<?xml version="1.0" encoding="UTF-8"?>
<svg id="Ebene_2" data-name="Ebene 2" xmlns="http://www.w3.org/2000/svg" viewBox="0 0 1080 1080">
  <defs>
    <style>
      .cls-1 {
        fill: #4884c3;
      }

      .cls-2 {
        fill: #352718;
      }

      .cls-3 {
        fill: #f3a33f;
      }

      .cls-4 {
        fill: #131928;
      }

      .cls-5 {
        fill: #c8d6e5;
      }

      .cls-6 {
        fill: #275da7;
      }

      .cls-7 {
        fill: #522a1f;
      }

      .cls-8 {
        fill: #76aadb;
      }

      .cls-9 {
        fill: #879caf;
      }

      .cls-10 {
        fill: #1b1c21;
      }

      .cls-11 {
        fill: #75a9d9;
      }

      .cls-12 {
        fill: #285da8;
      }

      .cls-13 {
        fill: #c6ba6b;
      }

      .cls-14 {
        fill: #111725;
      }

      .cls-15 {
        fill: #9e7454;
      }
    </style>
  </defs>
  <path class="cls-10" d="M510.49,668.19c5.77,1.3,10.85,2.42,15.93,3.59,9.25,2.14,18.13,5.34,26.81,9.12,2.31,1,4.61,2.08,6.27,4.03,1.88,2.22,1.59,4.35-.94,5.75-2.39,1.32-5.09,1.64-7.84,1.74-10.88.4-21.68-.65-32.47-1.67-8.99-.85-17.82-.07-26.47,2.17-6.64,1.72-12.19,5.72-17.58,9.79-5.23,3.95-10.31,8.09-15.58,11.98-3.57,2.64-7.47,4.76-11.84,5.92-2.34.62-4.63.92-6.56-.87-2.18-2.01-1.72-4.58-.99-6.98.78-2.57,2.26-4.85,3.75-7.1,2.66-4.03,5.93-7.56,8.99-11.27,1.57-1.9,3.52-3.61,3.7-6.44-2.93-.95-5.21.92-7.66,1.78-7.03,2.46-8.77,2.06-13.53-3.68-4.78,1.93-9.56,4.04-14.95,4-1.95-.02-3.01,1.63-4.06,2.97-4.87,6.19-9.66,12.4-13.71,19.2-15.02,25.24-31.24,49.72-49.06,73.13-2.81,3.69-6.04,6.98-9.75,9.8-6.74,5.13-11.71,11.62-15.17,19.28-.79,1.74-1.67,3.45-2.64,5.1-1.41,2.39-3.1,4.66-6.36,3.94-3.4-.74-3.31-3.83-3.83-6.4-.19-.93-.22-1.92-.13-2.86.98-10.67.56-21.44,2.74-32.02.81-3.92.91-7.99,1.28-11.99.12-1.32.33-2.71-.54-3.89-4.09-5.52-3.02-11.71-2.09-17.72,1.59-10.21,3.62-20.35,4.7-30.64.5-4.78.8-9.54-.03-14.31-.51-2.98-1.87-5.48-4.65-6.86-8.41-4.17-11.59-11.35-12.08-20.12-.32-5.76.21-11.47.89-17.19,1.94-16.16,3.54-32.35,5.72-48.48,5.73-42.3,17.14-83.04,33.43-122.6,11.14-27.05,24.36-52.85,41.02-76.97,9.62-13.92,21.06-25.93,35.41-35.17,4.37-2.82,8.53-5.97,12.71-9.07,3.05-2.26,4.64-5.35,5.69-9.03,2.81-9.76,5.13-19.63,7.37-29.51,3.65-16.07,11.88-29.37,24.07-40.38,15.66-14.15,33.33-24.88,54.13-29.81,16.05-3.81,31.79-2.3,47.29,3.45,16.49,6.12,31.35,14.82,44.84,25.92,9.33,7.68,16.87,16.86,22.82,27.3,3.61,6.33,7.21,12.68,10.45,19.2,3.67,7.37,9.43,12.49,16.55,16.33,5.1,2.75,10.53,4.79,15.97,6.77,26.72,9.76,52.5,21.43,76.76,36.27,4.62,2.82,9.31,5.59,12.86,9.73,2.2,2.56,5.14,5.21,3.1,9.1-1.85,3.52-5.38,3.92-9,4.02-3.55.1-6.94-.75-10.29-1.57-9.93-2.43-19.82-5.07-29.39-8.71-20.29-7.73-41.54-11.86-62.75-16.15-8.33-1.69-16.69-3.3-25.02-5.02-5.99-1.24-11.92-1.06-17.84.38-7.61,1.84-12.94,6.63-16.87,13.08-1.7,2.79-1.49,5.84-.75,8.91,1.52,6.39,4.42,12.24,7.22,18.11,6.57,13.8,10.5,28.41,12.93,43.33,2.41,14.76.17,29.34-3.93,43.69-5.96,20.84-16,39.81-27.62,57.93-22.58,35.22-48.29,67.98-79.94,95.84-.4.36-.7.83-1.51,1.79ZM714.14,397.5c4.85,1.75,9.71,3.5,14.56,5.25.14-.39.29-.77.43-1.16-4.23-2.47-8.93-3.94-13.53-5.61-15.73-6.41-31.56-12.63-48.1-16.68-17.62-4.32-35.47-7.73-52.56-14.03-2.87-1.06-6.14-1.97-9.24-1.2-.4,1.02-.06,1.51.35,1.9,7.64,7.35,16.3,12.78,27.15,14.1,2.88.35,5.79.62,8.61,1.24,24.13,5.3,48.58,9.21,72.32,16.2ZM463.18,577.26c-2.35,0-4.19.35-6.02,1-1.31.46-2.67.49-3.88-.4-.95-.7-1.87-1.49-1.48-2.82.36-1.22,1.48-1.02,2.4-.93,3.82.38,7.3-.9,10.63-2.37,17.07-7.51,32.87-17.08,47.05-29.16,19.49-16.6,30.84-38.05,37.45-62.18,4.16-15.16,5.79-30.62.95-45.89-4.46-14.05-9.8-27.42-23.16-36.54-13.49-9.21-27.19-17.43-42.95-22.23-13.18-4.01-26.57-4.73-40.18-3.98-7.78.43-13.47,5.41-19.93,8.73-11.19,5.75-20.5,13.66-28.03,23.63-3.13,4.14-6.24,8.3-9.22,12.53-19.07,27.06-32.5,56.92-44.33,87.57-11.76,30.47-20.46,61.75-25.53,94-.16,1.04-.71,2.21.82,3.58,5.83-4.16,11.8-8.24,16.3-14.12,1.98-2.59,3.94-5.23,6.15-7.63,1.91-2.07,3.91-4.76,7.3-3.51,2.83,1.05,2.56,3.92,2.94,6.37.8,5.21,2.46,6.01,6.87,3.24,5.29-3.32,9.47-7.87,13.53-12.51,6.71-7.68,13.42-15.37,21-22.24,4.22-3.82,5.5-3.73,9.18.61,1.3,1.53,2.51,1.73,3.94.67,1.54-1.14,3.02-2.42,4.33-3.8,8.22-8.67,16.05-17.65,22.39-27.82,2.23-3.58,4.7-7.02,7.12-10.48,3.55-5.1,8.44-7.78,14.76-7.53,3.99.15,7.06-1.5,9.78-4.19,5.13-5.06,9.37-10.78,12.27-17.31,7.68-17.31,11.48-35.28,8.69-54.27-.22-1.51-.35-3.05-.38-4.58-.01-.9-.04-2.07,1.23-2.25,1.47-.21,1.97.92,2.29,2.05.21.73.23,1.51.35,2.27,3.33,21.28-.01,41.56-9.58,60.83-3,6.05-7.08,11.41-11.97,16.15-3.75,3.63-8.04,6.04-13.47,5.52-4.11-.39-7.18,1.32-9.51,4.4-2.44,3.21-4.81,6.49-6.94,9.9-7.18,11.46-15.73,21.82-25.31,31.36-6.19,6.17-8.84,6.15-15.02.31-3.95,3.33-7.47,7.12-11.05,10.86-6.79,7.09-12.73,14.95-20.07,21.53-2.46,2.2-5.07,4.22-8.17,5.4-4.82,1.83-7.81.46-9.64-4.29-.67-1.73-1.05-3.57-1.66-5.67-2.58,1.57-4.19,3.73-5.65,5.93-4.23,6.36-9.95,11.18-16.05,15.63-1.87,1.36-3.73,2.74-5.64,4.05-2.23,1.53-3.24,3.61-3.5,6.27-1.04,10.46-2.19,20.9-3.33,31.6,2.37-1.05,3.13-3.13,4.27-4.82,5.05-7.49,10.08-14.99,15.72-22.06,1.05-1.31,2.23-3.44,4.1-2.08,2.16,1.58-.23,3.06-1.13,4.22-7.29,9.45-13.4,19.69-20.35,29.37-1.11,1.55-2.2,3.23-2.75,5.02-2.67,8.71-3.48,17.64-2.3,26.65.54,4.12,1.98,8.04,6.48,10.04.84-7.21,4.71-12.83,8.02-18.63,15.19-26.68,30.3-53.41,45.02-80.35.64-1.17,1.3-2.36,2.12-3.41.46-.59,1.31-.8,2.12-.48,1.1.44,1.39,1.42,1.04,2.34-.61,1.6-1.4,3.15-2.24,4.66-15.01,26.78-30.05,53.55-45.07,80.33-1.6,2.84-3.21,5.68-4.62,8.62-.82,1.71-1.42,3.57-1.81,5.42-.75,3.5,1.56,5.81,3.79,7.9,2.16,2.02,4.45.46,6.39-.59,5.58-3.01,10.11-7.21,12.44-13.15,4.09-10.43,9.96-19.88,16-29.24,10.43-16.14,20.24-32.63,29.1-49.66.44-.85.85-1.73,1.41-2.5.61-.81,1.51-1.24,2.52-.72,1.03.53,1.18,1.59.78,2.47-1.41,3.14-2.82,6.3-4.48,9.31-9.1,16.46-18.77,32.6-29.05,48.38-4.3,6.6-8.28,13.4-11.25,20.71-1.08,2.66-2.08,5.38-1.94,8.33.18,3.99,2.94,5.79,6.71,4.42,1.85-.67,3.44-1.77,4.9-3.02,5.51-4.72,9.68-10.41,12.39-17.11.93-2.3,1.77-4.65,2.69-6.95,10.62-26.69,28.66-48.86,44.96-72.09.78-1.11,1.83-2.29,3.33-1.27,1.49,1.02.63,2.34.01,3.55-2.54,4.99-5.8,9.46-9.37,13.78-14.19,17.13-25.49,36.05-34.84,56.12-2.31,4.97-2.45,10.4-2.44,15.75,0,2.86,1.61,3.59,4.29,2.25,1.2-.6,2.35-1.38,3.34-2.27,7.14-6.43,14.54-12.62,21-19.73,5.95-6.55,11.69-13.29,17.38-20.07,15.84-18.91,30.88-38.35,41.33-60.85.79-1.71,2.13-3.24,1.92-5.87ZM399.73,673.57c1.67,2.3,4.12,2.3,6.29,2.98,3.7,1.14,7.38,2.32,9.97,5.51,3.1,3.81,4.95,4.4,9.74,2.86,2.75-.88,5.41-2.06,8.08-3.16,2.13-.88,3.62-.33,4.92,1.57,2.78,4.05,2.87,4.03,7.29,2.55,2.01-.68,3.96-1.54,6-2.15,2.23-.67,4.76-1.36,6.62.39,1.77,1.66,3.09.92,4.6.05,4.18-2.41,8.34-4.85,12.5-7.28,2.01-1.18,4.19-2.72,6.49-1.66,3.8,1.75,6.92.06,9.83-1.59,8.87-5.03,17.63-10.15,25.05-17.4,30.49-29.76,56.65-62.82,78.12-99.48,8.06-13.77,15.05-28.05,19.68-43.36,3.79-12.55,4.5-25.51,5.1-38.47.07-1.51-.13-3.07-.44-4.56-3.3-15.75-7.1-31.32-14.32-45.91-4.05-8.18-10.74-13.1-19.49-13.29-7.1-.16-14-.48-21.07-1.38-5.46-.7-11.09-.92-16.61-1.81-1.5-.24-3.01-.72-4.57-.08-.16,2.31,1.49,3.9,2.46,5.69,7.66,14.09,12.29,28.93,11.28,45.09-.71,11.32-3.16,22.32-6.89,33.06-8.94,25.75-24.03,46.95-46.68,62.73-9.51,6.63-19.32,12.74-29.82,17.7-2.99,1.41-4.77,3.39-6.09,6.38-6.18,14.07-13.49,27.56-22.54,40.06-10.04,13.86-20.86,27.12-32.19,39.96-4.42,5.02-8.87,10.01-13.31,15.02ZM651.95,345.25c-5.93-8.39-9.9-16.9-14.4-25.1-6.82-12.43-15.36-23.27-26.87-31.91-13.84-10.4-28.66-18.85-45.22-24.13-14.35-4.58-28.88-5.19-43.4-.77-21.36,6.51-39.63,17.88-54.74,34.23-6.09,6.59-10.93,13.88-13.81,22.37-4.68,13.78-7.35,28.06-11.15,42.33,2.74-.56,3.82-2.52,5.25-3.95,6.25-6.27,12.3-12.75,18.63-18.94,6.76-6.61,14.35-11.57,24.68-9.72-2.86-11.1,2.86-19.77,13.88-21.81,4.2-.78,8.03.5,11.91,1.69,1.83.56,3.67,1.9,5.57,1.24,4.89-1.71,9.48-.92,14.12.83,1.02.39,2.36.41,3.43.14,4.63-1.17,8.36.71,11.83,3.3,2.93,2.19,5.69,4.61,8.52,6.94,1.14.94,1.95,1.22,3.41.02,9.03-7.43,16.91-7.93,27.09-2.24,4.65,2.6,8.28,6.22,11.35,10.44,2.07-1.14,1.99-3.37,3.13-4.87,3.21-4.26,6.95-7.15,13.39-3.41,3.2,1.86,6.03,4.16,8.64,6.74,4.11,4.06,8.21,8.11,12.24,12.24,3.16,3.23,6.89,4.73,12.52,4.34ZM320.29,761.32c.94-.66,1.34-.8,1.48-1.07,6.73-12.71,13.67-25.33,16.64-39.59.23-1.12.39-2.28.78-3.35.33-.91,1.09-1.69,2.18-1.46,1.03.22,1.67,1.12,1.55,2.14-.24,2.09-.54,4.18-1.04,6.22-3.08,12.6-9.23,23.92-15.3,35.24-2.21,4.12-4.05,8.09-3.82,12.92.23,4.98-.92,9.9-1.61,14.83-1.36,9.69-1.71,19.44-1.96,29.2-.02.7-.09,1.57,1.17,1.93,2.01-1.2,2.52-3.54,3.46-5.52,2.48-5.23,5.09-10.52,9.46-14.34,4.74-4.14,6.78-8.77,7.66-15.06,1.61-11.56,5.84-22.56,10.32-33.39,6.29-15.23,12.54-30.48,18.68-45.77,1.16-2.89,2.63-5.83,2.51-9.42-3.56.03-6.6-.34-8.4-3.46-2.28,1.88-4.3,3.65-6.44,5.28-1.85,1.4-3.89,2.42-6.29,2.73-4.96.64-7.98-1.95-10.04-6.18-3.04,2.16-5.3,4.51-8.06,6.27-2.47,1.57-6.58,1.16-7.59,3.36-1.14,2.48.26,5.99.04,9.02-.69,9.55-1.9,19.03-3.69,28.46-1.27,6.72-2.97,13.46-1.66,21.02ZM614.25,382.95c-6-9.61-8.19-11.56-15.99-13.32-10.12-2.29-20.38-2.17-30.56-.71-11.93,1.71-22.08,7.83-32.18,13.86-2.91,1.74-4.8,4.4-5.74,7.66-.75,2.62-.16,4.46,2.08,6.48,8.48,7.65,19.13,7.13,29.38,8.33,9.48,1.11,18.95,2.04,28.51,2.36,3.09.1,6.11,2.09,9.9,3.49-4.23-13.97,4.43-21.22,14.59-28.15ZM345,787.23c2.82-2.14,4.4-4.56,6.17-6.78,11.98-15.03,22.05-31.37,32.78-47.24,9.54-14.12,16.88-29.64,28-42.77,2.75-3.24,2.09-5.85-1.65-7.96-1.99-1.12-4.27-1.74-6.44-2.53-1.44-.52-3.31-.53-4.32-1.47-3.02-2.8-4.98-1.15-7.24.98-5,4.71-9.56,10.03-16.72,12.01,2.15,5.62-.34,10.38-2.21,15.1-6.14,15.46-12.49,30.84-18.82,46.22-3.79,9.22-6.68,18.71-9.19,28.33-.48,1.84-1.04,3.68-.36,6.09ZM608.58,357.91c-9.48-5.58-17.66-12.72-27.22-17.74-8.2-4.3-16.33-8.59-23.51-14.61-3.5-2.93-8.02-4.73-12.86-1.97-2.83,1.61-5.61.96-8.26-.55-1.84-1.05-3.63-2.19-5.47-3.23-1.02-.58-2.1-1.09-3.2-.12-3.8,3.34-7.64,1.63-11.34-.09-3.22-1.5-6.43-2.58-10.04-2.12-4.74.6-6.94,3.29-6.13,7.84,1.37,7.74,4.61,14.11,12.79,16.95,3.09,1.07,6.11,2.32,9.3,3.14,13.5,3.49,27.36,4.82,41.11,6.82,12.02,1.75,24.15,2.93,35.85,6.45,2.94.88,5.94,1.05,8.97-.77ZM515.44,354.82c-6.87-4.18-11.6-10.42-16.75-16.34-4.47-5.13-13.73-6.37-19.92-3.33-4.2,2.07-7.76,5.04-11.01,8.33-6.76,6.84-13.44,13.76-20.1,20.69-.83.86-2.53,1.23-2.03,3.21,12.8-.64,25.48.23,37.81,4.02,1.65.51,2.98-.04,4.41-.68,6.69-2.98,13.45-5.8,19.86-9.36,2.85-1.59,5.65-3.33,7.73-6.55ZM493.45,374.59c7.27,2.65,13.9,5.32,19.72,9.36,4.05,2.81,7.92,2.27,12.02.94,2.24-.73,3.9-2.44,5.8-3.74,10.25-6.94,20.93-12.98,33.29-15.59,5.49-1.16,11.15-1.04,17.74-2.31-1.99-.63-2.88-.94-3.77-1.19-.93-.26-1.86-.5-2.81-.71-14.7-3.24-29.57-3.48-44.47-2.19-13.87,1.21-25.74,7.41-37.53,15.42ZM506.19,671.74c-3.01.05-4.68,1.39-6.55,2.39-4.7,2.52-9.06,6.16-14.89,5.63-4.1-.37-7.59.71-10.75,3.28-1.33,1.08-2.81,2.21-4.41,2.7-7.58,2.29-11.4,8.83-16.5,13.92-.85.84-1.44,1.72-.79,3.03,2.23,4.5,6.74,5.76,11.07,2.99,1.29-.83,2.62-1.67,3.71-2.72,4.77-4.56,10.41-7.93,16.11-11.11,6.46-3.62,13.52-5.44,21.07-5.22,7.73.23,15.5-.49,23.2.4,5.08.59,6.67.11,8.53-4.22.89-2.08.69-3.68-1.92-4.37-3.16-.84-6.25-1.99-9.43-2.73-6.36-1.48-12.77-2.76-18.45-3.97ZM627.3,347.74c2.12-.04,4.49.14,5.45-2.24.89-2.21.55-4.49-.95-6.47-.23-.3-.48-.6-.75-.86-3.44-3.31-6.82-6.69-10.37-9.88-1.69-1.52-3.62-2.88-5.85-3.55-2.93-.88-5.23.52-5.33,3.32-.42,11.94,8.11,19.62,17.8,19.69ZM591.07,341.17c6.7,5.1,13.19,9.51,20.19,13.12.89.46,1.98,1.33,3.1.18,1.01-1.04,1.45-2.08.89-3.58-3.67-9.81-13.55-14.04-24.18-9.72ZM455.81,711.22c-1.5-1.12-2.58-1.89-3.62-2.71-3.98-3.12-4.02-3.12-6.68,1.17-.6.97-1.16,1.98-1.61,3.02-.45,1.04-.88,2.24-.07,3.23.86,1.04,2.17.7,3.21.32,3.06-1.14,6.01-2.5,8.76-5.02ZM537.95,687.79c6.06.1,11.25.81,17.13-.61-4.38-3.33-8.86-4.32-13.28-6.17-1.19,2.09-2.28,4.02-3.85,6.78ZM519.21,348.68c3.41,2.77,7.55,4.17,12.24,2.71-4.08-.9-8.16-1.81-12.24-2.71ZM581.93,327.92c.94-.1,1.53-.52,1.58-1.37.09-1.61-1.93-3.21-3.9-3.14-1.07.04-2.16.73-1.96,1.56.52,2.09,2.69,2.28,4.27,2.96ZM373.28,690.94c-2.03-1.99-3.04-3.68-3.59-6.03-2.58,5.52-2.48,5.7,3.59,6.03ZM591.34,336.23c3.13-.73,5-1.17,7.38-1.73q-4.28-2.35-7.38,1.73Z"/>
  <path class="cls-12" d="M463.18,577.26c.2,2.64-1.13,4.16-1.92,5.87-10.44,22.5-25.48,41.94-41.33,60.85-5.68,6.78-11.42,13.53-17.38,20.07-6.47,7.11-13.87,13.29-21,19.73-.99.89-2.15,1.67-3.34,2.27-2.68,1.34-4.29.61-4.29-2.25,0-5.35.13-10.78,2.44-15.75,9.35-20.08,20.65-38.99,34.84-56.12,3.58-4.32,6.83-8.79,9.37-13.78.62-1.21,1.48-2.53-.01-3.55-1.49-1.02-2.55.16-3.33,1.27-16.3,23.23-34.34,45.4-44.96,72.09-.92,2.31-1.75,4.65-2.69,6.95-2.71,6.7-6.88,12.39-12.39,17.11-1.46,1.25-3.05,2.35-4.9,3.02-3.76,1.36-6.52-.44-6.71-4.42-.13-2.95.86-5.67,1.94-8.33,2.97-7.31,6.95-14.11,11.25-20.71,10.28-15.78,19.95-31.91,29.05-48.38,1.67-3.01,3.07-6.17,4.48-9.31.4-.88.25-1.94-.78-2.47-1.01-.52-1.91-.09-2.52.72-.57.76-.97,1.65-1.41,2.5-8.86,17.03-18.67,33.52-29.1,49.66-6.04,9.36-11.91,18.8-16,29.24-2.33,5.94-6.86,10.14-12.44,13.15-1.94,1.05-4.24,2.61-6.39.59-2.23-2.1-4.54-4.4-3.79-7.9.4-1.85.99-3.71,1.81-5.42,1.41-2.94,3.03-5.78,4.62-8.62,15.02-26.78,30.06-53.55,45.07-80.33.84-1.5,1.63-3.05,2.24-4.66.35-.93.06-1.9-1.04-2.34-.81-.32-1.65-.12-2.12.48-.82,1.05-1.48,2.24-2.12,3.41-14.72,26.94-29.83,53.66-45.02,80.35-3.3,5.8-7.18,11.42-8.02,18.63-4.5-2.01-5.94-5.93-6.48-10.04-1.18-9.01-.38-17.95,2.3-26.65.55-1.79,1.64-3.48,2.75-5.02,6.94-9.68,13.05-19.93,20.35-29.37.89-1.16,3.29-2.64,1.13-4.22-1.86-1.36-3.05.77-4.1,2.08-5.64,7.07-10.67,14.57-15.72,22.06-1.14,1.69-1.9,3.77-4.27,4.82,1.14-10.7,2.29-21.14,3.33-31.6.26-2.66,1.27-4.74,3.5-6.27,1.91-1.31,3.77-2.69,5.64-4.05,6.1-4.46,11.83-9.27,16.05-15.63,1.46-2.2,3.07-4.36,5.65-5.93.6,2.1.99,3.94,1.66,5.67,1.82,4.75,4.82,6.12,9.64,4.29,3.1-1.18,5.71-3.19,8.17-5.4,7.34-6.58,13.29-14.44,20.07-21.53,3.58-3.74,7.1-7.52,11.05-10.86,6.19,5.83,8.83,5.86,15.02-.31,9.57-9.54,18.13-19.91,25.31-31.36,2.14-3.41,4.51-6.69,6.94-9.9,2.34-3.08,5.4-4.79,9.51-4.4,5.43.52,9.72-1.89,13.47-5.52,4.89-4.73,8.97-10.1,11.97-16.15,9.57-19.27,12.91-39.55,9.58-60.83-.12-.76-.14-1.54-.35-2.27-.32-1.13-.82-2.26-2.29-2.05-1.27.18-1.24,1.35-1.23,2.25.02,1.53.16,3.06.38,4.58,2.79,18.98-1.01,36.95-8.69,54.27-2.9,6.53-7.14,12.25-12.27,17.31-2.72,2.69-5.79,4.34-9.78,4.19-6.32-.24-11.21,2.44-14.76,7.53-2.42,3.47-4.89,6.9-7.12,10.48-6.34,10.16-14.16,19.15-22.39,27.82-1.32,1.39-2.79,2.66-4.33,3.8-1.43,1.06-2.64.86-3.94-.67-3.68-4.34-4.97-4.43-9.18-.61-7.58,6.87-14.29,14.56-21,22.24-4.06,4.65-8.24,9.2-13.53,12.51-4.42,2.77-6.08,1.97-6.87-3.24-.37-2.46-.11-5.33-2.94-6.37-3.39-1.26-5.39,1.44-7.3,3.51-2.21,2.4-4.16,5.03-6.15,7.63-4.49,5.87-10.46,9.96-16.3,14.12-1.53-1.36-.99-2.54-.82-3.58,5.06-32.25,13.76-63.53,25.53-94,11.83-30.64,25.26-60.51,44.33-87.57,2.99-4.24,6.1-8.39,9.22-12.53,7.53-9.97,16.83-17.88,28.03-23.63,6.47-3.32,12.16-8.3,19.93-8.73,13.61-.75,27-.03,40.18,3.98,15.76,4.8,29.46,13.02,42.95,22.23,13.35,9.12,18.7,22.49,23.16,36.54,4.84,15.27,3.21,30.72-.95,45.89-6.62,24.14-17.97,45.58-37.45,62.18-14.18,12.08-29.98,21.65-47.05,29.16-3.34,1.47-6.82,2.75-10.63,2.37-.92-.09-2.04-.28-2.4.93-.39,1.33.53,2.12,1.48,2.82,1.21.89,2.57.86,3.88.4,1.83-.65,3.68-1,6.02-1ZM473.89,396.05c-.14,0-.73.01-1.3.08-16.77,1.98-28.65,11.28-37.75,24.73-.32.47-.6.98-.82,1.5-.31.74-.34,1.52.29,2.11.84.79,1.91.67,2.61,0,1.1-1.04,2.03-2.27,2.93-3.5,8.8-11.92,19.69-20.38,35.37-20.93.75-.03,1.58-.16,2.21-.51,1.29-.72,1.37-1.76.19-2.69-.95-.74-2.14-.81-3.75-.78ZM394.4,439.53c-.25,1.4-.36,2.65,1,3.15,1.72.63,2.41-.59,2.91-1.94.13-.36.28-.71.4-1.08,3.85-12.32,12.17-21.54,21.41-30.11.99-.91,2.08-1.73,2.99-2.71.66-.71,1.08-1.67.21-2.53-.81-.8-1.82-.55-2.66-.04-.82.5-1.53,1.15-2.27,1.77-6.93,5.89-13.04,12.5-17.94,20.15-2.7,4.21-4.8,8.71-6.06,13.33ZM420.97,584.18c2.38.01,4.54-.81,6.63-1.79,7.39-3.48,12.64-9.23,17.02-15.87.31-.47.53-1.02.74-1.55.3-.77.23-1.52-.45-2.05-.9-.7-1.87-.55-2.55.25-.87,1.01-1.51,2.21-2.34,3.26-3.92,5-8.12,9.72-14.13,12.38-4.53,2.01-6.13,1.59-9.67-2.2-.53-.57-1.14-1.15-1.96-.89-1.02.32-1.42,1.15-1.43,2.22-.03,3.7,3.22,6.21,8.13,6.26ZM465.61,531.47c8.35-1.11,15.9-5.67,22.26-12.42.13-.14.21-.32.3-.49.42-.77.24-1.45-.35-2.06-.62-.65-1.38-.76-2.06-.23-1.21.94-2.31,2.01-3.51,2.97-8.37,6.69-17.09,11.45-27.81,4.74-.16-.1-.34-.18-.52-.24-1.16-.39-2.38-.54-3.04.69-.69,1.27.18,2.18,1.2,2.82,3.79,2.38,7.83,4.06,13.51,4.22ZM449.39,554.45c7.12-1.12,13.27-5,18.1-11.05.49-.62.52-1.45-.03-2.1-.76-.9-1.76-.8-2.56-.16-1.34,1.08-2.55,2.31-3.84,3.45-8.81,7.84-14.37,7.7-22.74-.58-.95-.94-1.76-2.01-3.11-2.48-1.03-.37-1.99-.19-2.65.54-.8.89-.25,1.75.49,2.45,2.37,2.23,4.65,4.56,7.15,6.64,2.4,2,5.29,3.05,9.18,3.29ZM515.53,501.07c.06-1.44.32-2.74-1.23-3.1-1.45-.34-2.04.65-2.4,1.85-.33,1.1-.64,2.22-1.09,3.27-3.97,9.37-9.08,17.8-18.93,22.29-.69.31-1.35.74-1.93,1.22-.62.52-.92,1.24-.46,2.03.41.71,1.07,1.23,1.9.99,1.28-.38,2.55-.87,3.76-1.44,7.34-3.46,11.99-9.51,15.81-16.3,1.98-3.51,3.7-7.15,4.57-10.82ZM405.32,471.96c-.11-1.33-.24-2.31-1.46-2.47-.83-.11-1.49.31-1.86,1.04-.26.51-.42,1.06-.59,1.61-1.78,5.9-4.91,11.15-8.02,16.41-1.75,2.96-3.55,5.89-5.27,8.86-.7,1.2-1.21,2.69.11,3.62,1.48,1.06,2.51-.18,3.21-1.37,4.75-8.05,10.01-15.83,13.08-24.74.37-1.07.59-2.19.79-2.96ZM523.61,431.72c-.2-.93-.3-1.69-.53-2.41-.34-1.12-.85-2.32-2.26-2.17-1.43.15-1.65,1.36-1.6,2.58,0,.19.04.38.04.57-.27,8-3.42,14.35-10.75,18.29-.5.27-1.06.48-1.5.83-.81.66-1.21,1.51-.58,2.49.43.68,1.15,1.08,1.96.83,1.09-.35,2.19-.75,3.2-1.29,7.9-4.31,10.4-11.81,12.03-19.72ZM512.07,475.75c-.19-.33-.36-1.01-.78-1.24-1.27-.68-2.18.12-2.92,1.05-4.76,6.06-10.51,10.5-18.55,11.38-1.33.15-2.82.79-2.28,2.57.48,1.61,1.93,1.54,3.35,1.31,8.43-1.34,14.92-5.77,20.07-12.32.59-.75,1.14-1.54,1.12-2.76ZM439.93,439.88c-.17-.78.11-2.41-1.81-2.52-1.55-.09-1.77,1.22-1.92,2.34-.68,5.32-3.67,9.5-6.72,13.67-1.46,2-3,3.95-4.4,5.99-.66.96-1.09,2.21.17,3,1.13.71,2.2.11,3.05-.79.13-.14.26-.28.38-.43,3.62-4.68,7.21-9.39,9.76-14.75.89-1.87,1.6-3.88,1.5-6.51ZM539.81,468.72c.08-1.56-.13-2.28-.94-2.62-1.05-.44-1.89-.08-2.41.89-.46.84-.79,1.75-1.21,2.6-2.64,5.29-5.98,9.84-12.19,11.43-.73.19-1.43.56-2.08.96-.7.43-1.05,1.16-.83,1.95.29,1.07,1.17,1.61,2.21,1.31,2.03-.6,4.1-1.18,5.98-2.13,6.3-3.17,9.25-8.92,11.48-14.39ZM368.89,529.31c.1-1.59.09-3.14-1.62-3.35-1.78-.22-2.14,1.41-2.32,2.7-.66,4.8-2.94,9.01-4.79,13.37-.67,1.57-1.31,3.17-1.81,4.8-.29.95-.03,1.91.99,2.4,1.12.53,1.98-.16,2.37-.98,2.9-6.19,5.98-12.33,7.18-18.94ZM475.53,559.06c4.12-.46,7.92-2.65,11.45-5.41.9-.7,1.97-1.61,1.13-2.84-1.05-1.54-2.35-.72-3.52.04-.81.53-1.59,1.08-2.4,1.61-3.97,2.59-8.1,3.47-12.56,1.17-.84-.43-1.79-.78-2.72-.88-1.01-.11-1.92.45-2.2,1.47-.23.84.4,1.44,1.09,1.82,2.88,1.61,5.84,3,9.73,3.02ZM358.95,502.55c1.45.09,1.97-.98,2.49-2,1.74-3.39,3.47-6.8,5.18-10.2,1.11-2.22,2.23-4.43,3.28-6.68.42-.9.52-1.96-.42-2.56-1.16-.75-2.2-.23-2.94.81-.43.62-.79,1.3-1.13,1.98-2.22,4.43-4.46,8.86-6.63,13.32-.57,1.18-1.42,2.32-1.23,3.74.11.8.53,1.4,1.39,1.58ZM389.48,576.48c.13.01-.25-.07-.63-.06-1.42.04-3.46-.72-3.65,1.49-.17,1.99,1.91,2.1,3.31,2.48,5.02,1.37,14.88-3.13,17.35-7.83.17-.33.28-.7.36-1.07.17-.82-.1-1.56-.85-1.89-.46-.2-1.26-.25-1.62.01-.9.67-1.58,1.63-2.46,2.33-3.3,2.62-6.6,5.3-11.81,4.54ZM455.64,468.71c.45-2.23.33-3.63-1.35-3.96-1.42-.29-2.06.99-2.28,2.08-.54,2.68-1.97,4.95-3.12,7.35-1.4,2.92-2.93,5.79-4.32,8.71-.42.87-.52,1.93.5,2.51.92.52,2.08.36,2.58-.52,3.1-5.47,6.09-11.01,7.99-16.18ZM401.87,529.17c.38-.18,1.02-.3,1.38-.69,3.77-4.1,8.07-7.74,11.27-12.35.63-.91,1.4-2.09,0-2.97-1.17-.74-2.18-.11-3.03.81-3.4,3.67-6.81,7.32-10.19,11.01-.51.56-1.01,1.21-1.27,1.9-.54,1.47.29,2.11,1.85,2.28ZM468.16,434.91h-.01c0-3.03.05-6.07-.03-9.1-.03-1.12-.27-2.41-1.89-2.24-1.1.12-1.61,1.03-1.62,2.03-.08,6.25-.13,12.51-.13,18.77,0,1.22.58,2.32,2,2.2,1.47-.12,1.64-1.42,1.66-2.55.05-3.03.02-6.07.02-9.1Z"/>
  <path class="cls-3" d="M399.73,673.57c4.43-5,8.88-10,13.31-15.02,11.33-12.85,22.15-26.1,32.19-39.96,9.05-12.5,16.36-25.98,22.54-40.06,1.31-2.99,3.1-4.97,6.09-6.38,10.5-4.96,20.31-11.07,29.82-17.7,22.65-15.79,37.74-36.99,46.68-62.73,3.73-10.74,6.19-21.74,6.89-33.06,1.01-16.15-3.62-31-11.28-45.09-.98-1.79-2.62-3.38-2.46-5.69,1.56-.64,3.07-.16,4.57.08,5.52.89,11.15,1.11,16.61,1.81,7.07.91,13.97,1.23,21.07,1.38,8.75.19,15.44,5.11,19.49,13.29,7.22,14.58,11.02,30.16,14.32,45.91.31,1.49.52,3.05.44,4.56-.61,12.96-1.31,25.92-5.1,38.47-4.63,15.31-11.62,29.59-19.68,43.36-21.47,36.66-47.63,69.71-78.12,99.48-7.42,7.25-16.18,12.37-25.05,17.4-2.91,1.65-6.03,3.34-9.83,1.59-2.3-1.06-4.47.48-6.49,1.66-4.16,2.43-8.32,4.87-12.5,7.28-1.51.87-2.83,1.61-4.6-.05-1.86-1.75-4.39-1.06-6.62-.39-2.03.61-3.98,1.48-6,2.15-4.42,1.49-4.51,1.5-7.29-2.55-1.3-1.9-2.79-2.45-4.92-1.57-2.67,1.1-5.33,2.28-8.08,3.16-4.79,1.54-6.64.95-9.74-2.86-2.59-3.18-6.27-4.36-9.97-5.51-2.17-.67-4.62-.67-6.29-2.98ZM477.96,621.58c.76-.4,1.99-.93,3.1-1.65,10.04-6.41,15.82-16.43,22.32-25.84.11-.16.21-.33.27-.5.28-.98.28-1.87-.79-2.43-.79-.42-1.63-.23-2.12.32-1.02,1.13-1.85,2.41-2.76,3.63-6.17,8.23-11.56,17.17-21.02,22.4-.49.27-.89.73-1.25,1.16-.52.62-.77,1.35-.22,2.07.47.63,1.11,1.04,2.47.84ZM542.06,532.71c4.17-.75,8.57-2,12.27-5.06,5.12-4.22,9.05-9.38,12.32-15.05.82-1.43,2.38-3.28.44-4.55-2.15-1.41-2.95,1.03-3.78,2.34-5.43,8.52-11.1,16.68-22.29,18.38-1.15.18-2.24.99-2.05,2.36.19,1.44,1.43,1.6,3.09,1.58ZM539.6,587.5c-.39-1.21-1.05-2.12-2.49-1.53-.68.28-1.31.82-1.82,1.36-7.39,7.88-13.3,16.72-17.66,26.57-.15.35-.33.7-.42,1.06-.24,1.03.04,1.89,1.02,2.39,1.04.53,1.88.04,2.52-.72.48-.58.86-1.26,1.17-1.95,4.17-9.07,9.57-17.35,16.35-24.73.65-.7,1.28-1.42,1.33-2.46ZM589.29,467.57c-.25-2.25-.46-5.29-.97-8.28-.22-1.26-.98-2.71-2.69-2.4-1.89.34-1.57,1.88-1.26,3.18,1.19,4.91.92,9.77.05,14.71-.78,4.41-2.21,8.43-4.99,11.99-.88,1.13-1.22,2.52.37,3.41,1.2.67,2.23.03,3-.94.71-.9,1.39-1.83,1.99-2.8,3.44-5.56,4.1-11.79,4.49-18.88ZM538.35,557.04c-.14-1.46-2.19-1.95-3.64-.54-3.62,3.52-7.88,6.13-12.09,8.83-1.78,1.14-3.59,2.24-5.31,3.47-.92.66-1.9,1.56-1.01,2.84.77,1.11,1.89,1.21,3.04.51,6.07-3.71,12.31-7.19,17.48-12.16.82-.79,1.58-1.68,1.52-2.95ZM564.42,564.34c.66-.27,1.26-.4,1.71-.72,5.94-4.31,11.61-8.88,14.96-15.61.25-.51.52-1.02.69-1.56.29-.97.26-1.99-.67-2.55-.94-.57-1.85-.15-2.53.64-.37.44-.69.93-.95,1.43-2.78,5.43-7.24,9.32-12.04,12.92-1.06.8-2.01,1.76-2.89,2.75-.58.66-.34,1.48.29,2.02.4.34.98.48,1.42.68ZM462.26,629.68c-.23-.36-.42-1.05-.85-1.25-1.22-.58-2.25.06-3.06.93-4.83,5.19-9.01,10.87-13.08,16.65-.84,1.19-1.25,2.68.12,3.53,1.42.88,2.45-.35,3.29-1.46,4-5.35,7.97-10.72,12.47-15.68.66-.73,1.1-1.55,1.12-2.71ZM473.19,659.19c.6-.23,1.25-.31,1.64-.66,4.46-3.94,8.89-7.9,13.29-11.91.77-.71.91-1.67.09-2.51-.82-.83-1.85-.7-2.62-.1-2.13,1.63-4.2,3.35-6.22,5.11-2.45,2.15-4.85,4.37-7.22,6.61-.75.71-.95,1.71-.37,2.59.27.41.92.57,1.41.86Z"/>
  <path class="cls-6" d="M651.95,345.25c-5.62.4-9.36-1.1-12.52-4.34-4.03-4.13-8.14-8.19-12.24-12.24-2.61-2.58-5.43-4.88-8.64-6.74-6.43-3.74-10.18-.85-13.39,3.41-1.13,1.5-1.06,3.73-3.13,4.87-3.07-4.22-6.7-7.84-11.35-10.44-10.18-5.69-18.06-5.19-27.09,2.24-1.46,1.2-2.27.92-3.41-.02-2.83-2.33-5.58-4.75-8.52-6.94-3.47-2.59-7.2-4.47-11.83-3.3-1.07.27-2.41.24-3.43-.14-4.64-1.75-9.23-2.54-14.12-.83-1.9.66-3.74-.68-5.57-1.24-3.88-1.19-7.71-2.47-11.91-1.69-11.02,2.04-16.75,10.71-13.88,21.81-10.33-1.85-17.92,3.11-24.68,9.72-6.33,6.19-12.37,12.67-18.63,18.94-1.43,1.43-2.51,3.4-5.25,3.95,3.8-14.27,6.47-28.55,11.15-42.33,2.88-8.49,7.72-15.78,13.81-22.37,15.11-16.35,33.38-27.72,54.74-34.23,14.52-4.43,29.05-3.81,43.4.77,16.56,5.28,31.37,13.74,45.22,24.13,11.51,8.64,20.05,19.48,26.87,31.91,4.5,8.21,8.46,16.71,14.4,25.1ZM551.78,281.93c-.41,5.42.05,9.36,1.78,13.09.72,1.55,1.47,3.38,3.7,2.8,1.76-.46,2.22-2.17,2.12-3.69-.39-5.91-1.72-11.65-3.67-17.23-.32-.91-1.18-1.59-2.26-1.37-1.04.21-1.6,1.06-1.64,2.07-.07,1.9-.02,3.81-.02,4.34ZM531.72,295.18c0-1.96-3.7-12.88-4.95-14.63-.58-.82-1.32-1.55-2.37-1.28-1.26.33-1.96,1.37-1.71,2.62,1,5.06,2.02,10.13,4.26,14.84.55,1.16,1.57,1.7,2.84,1.49,1.73-.28,1.91-1.64,1.93-3.04ZM580.91,293.5s-.02,0-.03,0c-.13-2.48-.22-4.97-.4-7.45-.06-.82-.62-1.43-1.45-1.55-.79-.11-1.42.21-1.87.99-2.73,4.75-3.36,9.72-1.59,14.91.53,1.56,1.56,2.69,3.45,2.37,1.68-.28,2.1-1.71,2.16-3.02.09-2.08-.17-4.18-.27-6.28ZM534.55,280.77c.03,3.19.53,5.6,1.84,7.8.64,1.08,1.6,1.66,2.89,1.45,1.37-.22,1.86-1.24,1.99-2.45.49-4.49-1.14-8.67-2.02-12.95-.14-.66-.87-1.28-1.78-1.2-.82.07-1.6.52-1.77,1.24-.52,2.22-.86,4.49-1.15,6.11ZM595.59,296.32c-.15-1.13-.31-3.6-.87-5.98-.4-1.7-1.77-1.94-3.01-.7-2.14,2.16-2.9,10.89-1.28,13.64.49.84,1.15,1.55,2.23,1.52,1.08-.03,1.69-.75,2.16-1.62.94-1.75.84-3.66.77-6.87ZM571.54,276.43c.25-1.71.37-2.95-1.02-3.39-1.34-.42-2.24.53-2.7,1.58-1.22,2.78-2.4,5.59-3.38,8.46-.48,1.42-.76,3.22,1.29,3.77,1.77.48,2.89-.69,3.54-2.21,1.2-2.82,1.81-5.8,2.27-8.23ZM472.52,322.25c1.19,0,2.15.04,3.11,0,1.37-.06,2.92-.18,2.87-1.97-.04-1.47-1.42-1.55-2.59-1.56-3.68-.02-7.25-.49-10.63-2.09-1.05-.5-2.38-.77-3.04.49-.85,1.62.49,2.34,1.68,3.04,2.73,1.6,5.69,2.2,8.6,2.09ZM503.95,298.4c-.12-2.83-6.72-6.71-8.92-5.38-.63.38-1.06,1.06-.91,1.91.4,2.27,5.61,6.05,7.86,5.64,1.27-.23,1.96-1.04,1.96-2.17ZM511.09,286.63c-.4-2.28-.82-4.69-1.24-7.1-.21-1.22-.7-2.21-2.17-1.98-1.16.18-1.34,1.16-1.41,2.13-.19,2.68.52,5.22,1.16,7.78.3,1.19,1.01,2.14,2.33,1.97,1.58-.21,1.28-1.58,1.32-2.81ZM477.68,300.58c-1.15-.03-1.87.92-1.72,1.96.4,2.78,5.95,7.19,8.9,7.03.78-.04,1.48-.38,1.64-1.27.15-.83-.19-1.53-.9-1.88-2.59-1.27-4.95-2.78-6.65-5.19-.27-.39-.96-.5-1.28-.65ZM609.03,309.77c2.27.05,5.99-5.04,5.15-7.24-.52-1.37-1.99-1.46-2.77-.5-1.42,1.75-2.56,3.75-3.64,5.74-.57,1.06.18,1.73,1.26,2Z"/>
  <path class="cls-11" d="M320.29,761.32c-1.31-7.56.38-14.3,1.66-21.02,1.79-9.43,3-18.91,3.69-28.46.22-3.03-1.19-6.54-.04-9.02,1.02-2.2,5.12-1.79,7.59-3.36,2.76-1.75,5.02-4.1,8.06-6.27,2.06,4.23,5.09,6.82,10.04,6.18,2.4-.31,4.44-1.32,6.29-2.73,2.14-1.62,4.16-3.4,6.44-5.28,1.8,3.11,4.84,3.49,8.4,3.46.12,3.59-1.34,6.52-2.51,9.42-6.14,15.29-12.39,30.54-18.68,45.77-4.48,10.83-8.71,21.83-10.32,33.39-.87,6.28-2.92,10.92-7.66,15.06-4.38,3.82-6.99,9.11-9.46,14.34-.94,1.99-1.45,4.32-3.46,5.52-1.26-.36-1.19-1.23-1.17-1.93.25-9.76.6-19.52,1.96-29.2.69-4.93,1.85-9.84,1.61-14.83-.23-4.84,1.61-8.8,3.82-12.92,6.08-11.32,12.22-22.64,15.3-35.24.5-2.04.8-4.13,1.04-6.22.12-1.02-.52-1.92-1.55-2.14-1.09-.23-1.85.55-2.18,1.46-.39,1.07-.54,2.23-.78,3.35-2.97,14.26-9.9,26.88-16.64,39.59-.14.27-.54.41-1.48,1.07Z"/>
  <path class="cls-8" d="M614.25,382.95c-10.16,6.93-18.83,14.19-14.59,28.15-3.8-1.4-6.82-3.39-9.9-3.49-9.56-.31-19.03-1.24-28.51-2.36-10.25-1.2-20.9-.68-29.38-8.33-2.24-2.02-2.84-3.86-2.08-6.48.94-3.27,2.84-5.93,5.74-7.66,10.1-6.03,20.24-12.14,32.18-13.86,10.18-1.46,20.44-1.58,30.56.71,7.8,1.77,9.99,3.72,15.99,13.32Z"/>
  <path class="cls-1" d="M345,787.23c-.68-2.41-.12-4.25.36-6.09,2.51-9.62,5.39-19.12,9.19-28.33,6.33-15.39,12.68-30.76,18.82-46.22,1.87-4.71,4.36-9.48,2.21-15.1,7.16-1.98,11.72-7.3,16.72-12.01,2.26-2.13,4.22-3.78,7.24-.98,1.01.94,2.88.95,4.32,1.47,2.17.78,4.45,1.41,6.44,2.53,3.74,2.1,4.4,4.72,1.65,7.96-11.13,13.13-18.46,28.65-28,42.77-10.73,15.88-20.8,32.21-32.78,47.24-1.77,2.22-3.35,4.64-6.17,6.78Z"/>
  <path class="cls-1" d="M608.58,357.91c-3.03,1.82-6.02,1.66-8.97.77-11.7-3.51-23.83-4.69-35.85-6.45-13.75-2.01-27.61-3.33-41.11-6.82-3.19-.82-6.21-2.07-9.3-3.14-8.18-2.84-11.41-9.21-12.79-16.95-.81-4.55,1.39-7.24,6.13-7.84,3.61-.46,6.82.61,10.04,2.12,3.69,1.72,7.54,3.43,11.34.09,1.1-.97,2.18-.45,3.2.12,1.84,1.04,3.63,2.18,5.47,3.23,2.65,1.51,5.43,2.17,8.26.55,4.85-2.76,9.36-.96,12.86,1.97,7.17,6.01,15.3,10.31,23.51,14.61,9.56,5.02,17.74,12.16,27.22,17.74Z"/>
  <path class="cls-8" d="M515.44,354.82c-2.08,3.22-4.88,4.96-7.73,6.55-6.4,3.56-13.17,6.39-19.86,9.36-1.44.64-2.76,1.19-4.41.68-12.33-3.8-25.01-4.66-37.81-4.02-.5-1.98,1.2-2.35,2.03-3.21,6.66-6.93,13.34-13.85,20.1-20.69,3.25-3.29,6.81-6.26,11.01-8.33,6.19-3.05,15.46-1.81,19.92,3.33,5.15,5.91,9.88,12.16,16.75,16.34Z"/>
  <path class="cls-1" d="M493.45,374.59c11.78-8.01,23.66-14.21,37.53-15.42,14.9-1.3,29.78-1.05,44.47,2.19.94.21,1.88.44,2.81.71.9.25,1.78.56,3.77,1.19-6.59,1.27-12.25,1.15-17.74,2.31-12.37,2.61-23.04,8.64-33.29,15.59-1.91,1.29-3.56,3.01-5.8,3.74-4.11,1.34-7.98,1.88-12.02-.94-5.82-4.05-12.45-6.71-19.72-9.36Z"/>
  <path class="cls-7" d="M506.19,671.74c5.67,1.21,12.08,2.49,18.45,3.97,3.18.74,6.27,1.89,9.43,2.73,2.61.69,2.81,2.29,1.92,4.37-1.86,4.33-3.45,4.81-8.53,4.22-7.7-.89-15.47-.17-23.2-.4-7.55-.22-14.61,1.6-21.07,5.22-5.69,3.19-11.34,6.55-16.11,11.11-1.1,1.05-2.42,1.89-3.71,2.72-4.33,2.77-8.84,1.51-11.07-2.99-.65-1.31-.05-2.19.79-3.03,5.1-5.09,8.92-11.63,16.5-13.92,1.6-.49,3.08-1.62,4.41-2.7,3.16-2.57,6.65-3.65,10.75-3.28,5.83.52,10.19-3.12,14.89-5.63,1.87-1,3.54-2.34,6.55-2.39Z"/>
  <path class="cls-13" d="M714.14,397.5c-23.74-6.99-48.19-10.91-72.32-16.2-2.82-.62-5.73-.89-8.61-1.24-10.85-1.32-19.51-6.74-27.15-14.1-.41-.39-.75-.88-.35-1.9,3.1-.77,6.36.14,9.24,1.2,17.09,6.31,34.94,9.72,52.56,14.03,16.54,4.05,32.37,10.27,48.1,16.68-.49.51-.98,1.02-1.47,1.52Z"/>
  <path class="cls-5" d="M627.3,347.74c-9.69-.07-18.23-7.75-17.8-19.69.1-2.8,2.39-4.2,5.33-3.32,2.23.67,4.16,2.03,5.85,3.55,3.55,3.2,6.93,6.57,10.37,9.88.27.26.52.56.75.86,1.5,1.99,1.84,4.26.95,6.47-.96,2.38-3.33,2.2-5.45,2.24Z"/>
  <path class="cls-5" d="M591.07,341.17c10.63-4.32,20.51-.08,24.18,9.72.56,1.5.13,2.55-.89,3.58-1.12,1.15-2.21.27-3.1-.18-7.01-3.61-13.49-8.02-20.19-13.12Z"/>
  <path class="cls-15" d="M455.81,711.22c-2.75,2.52-5.71,3.88-8.76,5.02-1.04.39-2.35.72-3.21-.32-.81-.98-.38-2.18.07-3.23.45-1.04,1.01-2.05,1.61-3.02,2.66-4.29,2.7-4.29,6.68-1.17,1.04.82,2.12,1.59,3.62,2.71Z"/>
  <path class="cls-15" d="M537.95,687.79c1.57-2.76,2.66-4.69,3.85-6.78,4.42,1.84,8.9,2.84,13.28,6.17-5.88,1.43-11.07.72-17.13.61Z"/>
  <path class="cls-15" d="M714.14,397.5c.49-.51.98-1.02,1.47-1.52,4.6,1.67,9.3,3.14,13.53,5.61-.14.39-.29.77-.43,1.16-4.85-1.75-9.71-3.5-14.56-5.25Z"/>
  <path class="cls-9" d="M519.21,348.68c4.08.9,8.16,1.81,12.24,2.71-4.69,1.46-8.83.07-12.24-2.71Z"/>
  <path class="cls-5" d="M581.93,327.92c-1.59-.68-3.75-.87-4.27-2.96-.21-.82.89-1.52,1.96-1.56,1.97-.07,3.99,1.53,3.9,3.14-.05.85-.64,1.27-1.58,1.37Z"/>
  <path class="cls-6" d="M373.28,690.94c-6.07-.33-6.17-.51-3.59-6.03.55,2.35,1.55,4.05,3.59,6.03Z"/>
  <path class="cls-9" d="M591.34,336.23q3.11-4.08,7.38-1.73c-2.38.56-4.25,1-7.38,1.73Z"/>
  <path class="cls-4" d="M473.89,396.05c1.61-.03,2.8.04,3.75.78,1.18.93,1.1,1.96-.19,2.69-.63.36-1.46.49-2.21.51-15.69.55-26.57,9.01-35.37,20.93-.9,1.22-1.83,2.45-2.93,3.5-.71.67-1.78.79-2.61,0-.63-.59-.6-1.37-.29-2.11.22-.52.5-1.03.82-1.5,9.1-13.44,20.97-22.75,37.75-24.73.57-.07,1.15-.07,1.3-.08Z"/>
  <path class="cls-14" d="M394.4,439.53c1.26-4.62,3.36-9.12,6.06-13.33,4.9-7.65,11.01-14.26,17.94-20.15.73-.62,1.45-1.28,2.27-1.77.84-.51,1.84-.76,2.66.04.86.86.44,1.82-.21,2.53-.91.98-2,1.79-2.99,2.71-9.24,8.57-17.56,17.79-21.41,30.11-.11.36-.27.72-.4,1.08-.49,1.35-1.18,2.58-2.91,1.94-1.36-.5-1.25-1.75-1-3.15Z"/>
  <path class="cls-4" d="M420.97,584.18c-4.92-.05-8.16-2.56-8.13-6.26,0-1.07.41-1.9,1.43-2.22.82-.26,1.43.32,1.96.89,3.54,3.79,5.14,4.21,9.67,2.2,6-2.66,10.21-7.38,14.13-12.38.82-1.05,1.47-2.25,2.34-3.26.68-.8,1.66-.95,2.55-.25.68.53.75,1.29.45,2.05-.21.53-.43,1.08-.74,1.55-4.38,6.64-9.63,12.39-17.02,15.87-2.09.98-4.25,1.8-6.63,1.79Z"/>
  <path class="cls-4" d="M465.61,531.47c-5.68-.16-9.72-1.84-13.51-4.22-1.02-.64-1.89-1.56-1.2-2.82.66-1.22,1.88-1.07,3.04-.69.18.06.36.14.52.24,10.71,6.71,19.43,1.95,27.81-4.74,1.2-.96,2.29-2.03,3.51-2.97.68-.52,1.43-.42,2.06.23.59.61.77,1.28.35,2.06-.09.17-.17.35-.3.49-6.36,6.75-13.91,11.31-22.26,12.42Z"/>
  <path class="cls-4" d="M449.39,554.45c-3.89-.23-6.78-1.28-9.18-3.29-2.5-2.08-4.78-4.41-7.15-6.64-.74-.7-1.3-1.57-.49-2.45.66-.73,1.61-.91,2.65-.54,1.35.48,2.16,1.55,3.11,2.48,8.37,8.27,13.93,8.41,22.74.58,1.29-1.14,2.5-2.38,3.84-3.45.8-.64,1.8-.74,2.56.16.55.65.52,1.49.03,2.1-4.83,6.06-10.98,9.94-18.1,11.05Z"/>
  <path class="cls-4" d="M515.53,501.07c-.88,3.67-2.6,7.31-4.57,10.82-3.82,6.78-8.47,12.84-15.81,16.3-1.21.57-2.47,1.06-3.76,1.44-.82.24-1.48-.28-1.9-.99-.46-.79-.16-1.51.46-2.03.58-.48,1.24-.91,1.93-1.22,9.85-4.49,14.96-12.92,18.93-22.29.45-1.06.75-2.17,1.09-3.27.36-1.2.96-2.18,2.4-1.85,1.55.36,1.29,1.66,1.23,3.1Z"/>
  <path class="cls-4" d="M405.32,471.96c-.2.77-.43,1.89-.79,2.96-3.07,8.91-8.33,16.7-13.08,24.74-.7,1.18-1.73,2.42-3.21,1.37-1.31-.94-.8-2.42-.11-3.62,1.72-2.97,3.53-5.9,5.27-8.86,3.1-5.26,6.24-10.51,8.02-16.41.16-.55.33-1.1.59-1.61.37-.73,1.02-1.16,1.86-1.04,1.22.16,1.35,1.14,1.46,2.47Z"/>
  <path class="cls-4" d="M523.61,431.72c-1.63,7.9-4.13,15.4-12.03,19.72-1,.55-2.1.95-3.2,1.29-.81.26-1.52-.15-1.96-.83-.62-.98-.23-1.84.58-2.49.44-.35.99-.56,1.5-.83,7.33-3.94,10.48-10.29,10.75-18.29,0-.19-.03-.38-.04-.57-.05-1.22.17-2.43,1.6-2.58,1.41-.14,1.92,1.05,2.26,2.17.22.72.33,1.48.53,2.41Z"/>
  <path class="cls-4" d="M512.07,475.75c.02,1.22-.53,2.01-1.12,2.76-5.15,6.55-11.64,10.98-20.07,12.32-1.43.23-2.87.3-3.35-1.31-.54-1.78.95-2.43,2.28-2.57,8.04-.88,13.79-5.31,18.55-11.38.73-.94,1.64-1.73,2.92-1.05.42.22.59.91.78,1.24Z"/>
  <path class="cls-4" d="M439.93,439.88c.1,2.63-.62,4.65-1.5,6.51-2.54,5.36-6.13,10.07-9.76,14.75-.12.15-.25.29-.38.43-.85.9-1.92,1.5-3.05.79-1.26-.79-.82-2.04-.17-3,1.4-2.04,2.94-3.99,4.4-5.99,3.05-4.17,6.04-8.36,6.72-13.67.14-1.12.37-2.43,1.92-2.34,1.92.11,1.64,1.75,1.81,2.52Z"/>
  <path class="cls-4" d="M539.81,468.72c-2.23,5.47-5.18,11.22-11.48,14.39-1.87.94-3.95,1.53-5.98,2.13-1.03.3-1.91-.24-2.21-1.31-.22-.79.13-1.52.83-1.95.65-.4,1.35-.77,2.08-.96,6.21-1.59,9.55-6.14,12.19-11.43.43-.86.76-1.76,1.21-2.6.52-.96,1.37-1.32,2.41-.89.81.34,1.02,1.07.94,2.62Z"/>
  <path class="cls-4" d="M368.89,529.31c-1.2,6.6-4.27,12.74-7.18,18.94-.39.82-1.25,1.52-2.37.98-1.03-.49-1.29-1.45-.99-2.4.5-1.63,1.14-3.22,1.81-4.8,1.85-4.37,4.12-8.58,4.79-13.37.18-1.29.54-2.92,2.32-2.7,1.71.21,1.72,1.76,1.62,3.35Z"/>
  <path class="cls-4" d="M475.53,559.06c-3.9-.02-6.86-1.41-9.73-3.02-.69-.38-1.32-.98-1.09-1.82.28-1.02,1.19-1.58,2.2-1.47.93.1,1.88.45,2.72.88,4.46,2.29,8.59,1.41,12.56-1.17.81-.53,1.6-1.08,2.4-1.61,1.17-.76,2.47-1.58,3.52-.04.84,1.23-.23,2.14-1.13,2.84-3.53,2.76-7.33,4.95-11.45,5.41Z"/>
  <path class="cls-4" d="M358.95,502.55c-.87-.18-1.29-.79-1.39-1.59-.19-1.42.66-2.56,1.23-3.74,2.17-4.46,4.4-8.89,6.63-13.32.34-.68.69-1.36,1.13-1.98.73-1.05,1.77-1.57,2.94-.81.94.61.85,1.66.42,2.56-1.06,2.24-2.17,4.46-3.28,6.68-1.71,3.41-3.44,6.81-5.18,10.2-.52,1.02-1.04,2.09-2.49,2Z"/>
  <path class="cls-4" d="M389.48,576.48c5.21.77,8.51-1.91,11.81-4.54.88-.7,1.56-1.66,2.46-2.33.36-.26,1.15-.21,1.62-.01.75.33,1.03,1.07.85,1.89-.08.37-.19.74-.36,1.07-2.47,4.71-12.33,9.2-17.35,7.83-1.39-.38-3.48-.49-3.31-2.48.19-2.21,2.23-1.44,3.65-1.49.38-.01.76.07.63.06Z"/>
  <path class="cls-4" d="M455.64,468.71c-1.9,5.17-4.89,10.7-7.99,16.18-.5.88-1.66,1.05-2.58.52-1.02-.58-.92-1.64-.5-2.51,1.4-2.92,2.92-5.79,4.32-8.71,1.15-2.4,2.58-4.67,3.12-7.35.22-1.1.86-2.37,2.28-2.08,1.68.34,1.8,1.73,1.35,3.96Z"/>
  <path class="cls-4" d="M401.87,529.17c-1.56-.17-2.39-.81-1.85-2.28.26-.7.75-1.34,1.27-1.9,3.38-3.69,6.8-7.34,10.19-11.01.85-.92,1.86-1.54,3.03-.81,1.4.88.63,2.06,0,2.97-3.2,4.61-7.49,8.24-11.27,12.35-.35.38-.99.5-1.38.69Z"/>
  <path class="cls-14" d="M468.16,434.91c0,3.03.04,6.07-.02,9.1-.02,1.14-.2,2.44-1.66,2.55-1.42.11-2-.98-2-2.2,0-6.26.05-12.51.13-18.77.01-1,.52-1.91,1.62-2.03,1.62-.17,1.86,1.12,1.89,2.24.08,3.03.03,6.07.03,9.1h.01Z"/>
  <path class="cls-2" d="M477.96,621.58c-1.36.2-1.99-.21-2.47-.84-.54-.72-.29-1.45.22-2.07.36-.43.77-.89,1.25-1.16,9.45-5.22,14.84-14.17,21.02-22.4.91-1.22,1.75-2.51,2.76-3.63.49-.55,1.33-.73,2.12-.32,1.07.56,1.07,1.45.79,2.43-.05.18-.16.35-.27.5-6.5,9.41-12.28,19.42-22.32,25.84-1.12.71-2.35,1.25-3.1,1.65Z"/>
  <path class="cls-2" d="M542.06,532.71c-1.66.02-2.9-.13-3.09-1.58-.18-1.38.9-2.19,2.05-2.36,11.19-1.7,16.86-9.86,22.29-18.38.83-1.31,1.63-3.75,3.78-2.34,1.94,1.27.39,3.12-.44,4.55-3.27,5.68-7.2,10.83-12.32,15.05-3.7,3.05-8.1,4.3-12.27,5.06Z"/>
  <path class="cls-2" d="M539.6,587.5c-.05,1.03-.68,1.75-1.33,2.46-6.78,7.38-12.18,15.66-16.35,24.73-.32.69-.69,1.37-1.17,1.95-.64.76-1.48,1.26-2.52.72-.98-.5-1.26-1.36-1.02-2.39.09-.37.26-.71.42-1.06,4.35-9.85,10.27-18.69,17.66-26.57.51-.55,1.14-1.08,1.82-1.36,1.43-.59,2.09.32,2.49,1.53Z"/>
  <path class="cls-2" d="M589.29,467.57c-.39,7.1-1.05,13.33-4.49,18.88-.6.97-1.28,1.9-1.99,2.8-.77.96-1.8,1.61-3,.94-1.59-.89-1.26-2.28-.37-3.41,2.78-3.56,4.21-7.57,4.99-11.99.87-4.95,1.14-9.81-.05-14.71-.32-1.31-.63-2.84,1.26-3.18,1.71-.31,2.48,1.14,2.69,2.4.51,2.99.72,6.03.97,8.28Z"/>
  <path class="cls-2" d="M538.35,557.04c.05,1.26-.7,2.15-1.52,2.95-5.17,4.97-11.41,8.45-17.48,12.16-1.15.7-2.28.6-3.04-.51-.89-1.28.09-2.18,1.01-2.84,1.72-1.23,3.53-2.33,5.31-3.47,4.21-2.7,8.47-5.3,12.09-8.83,1.45-1.41,3.49-.93,3.64.54Z"/>
  <path class="cls-2" d="M564.42,564.34c-.44-.2-1.02-.34-1.42-.68-.63-.54-.87-1.36-.29-2.02.87-.99,1.83-1.96,2.89-2.75,4.8-3.6,9.26-7.49,12.04-12.92.26-.51.58-1,.95-1.43.67-.8,1.58-1.22,2.53-.64.93.57.96,1.59.67,2.55-.16.54-.43,1.05-.69,1.56-3.35,6.74-9.02,11.3-14.96,15.61-.45.33-1.05.45-1.71.72Z"/>
  <path class="cls-2" d="M462.26,629.68c-.01,1.16-.46,1.98-1.12,2.71-4.51,4.96-8.48,10.33-12.47,15.68-.83,1.12-1.86,2.35-3.29,1.46-1.38-.86-.97-2.34-.12-3.53,4.07-5.77,8.26-11.46,13.08-16.65.81-.87,1.84-1.51,3.06-.93.43.21.63.9.85,1.25Z"/>
  <path class="cls-2" d="M473.19,659.19c-.49-.28-1.15-.44-1.41-.86-.58-.89-.38-1.89.37-2.59,2.37-2.24,4.77-4.46,7.22-6.61,2.02-1.77,4.09-3.48,6.22-5.11.78-.6,1.81-.73,2.62.1.82.84.69,1.8-.09,2.51-4.4,4.01-8.83,7.97-13.29,11.91-.4.35-1.04.43-1.64.66Z"/>
  <path class="cls-14" d="M551.78,281.93c0-.53-.05-2.44.02-4.34.04-1.01.6-1.85,1.64-2.07,1.09-.22,1.95.46,2.26,1.37,1.95,5.59,3.28,11.33,3.67,17.23.1,1.52-.36,3.23-2.12,3.69-2.23.58-2.98-1.24-3.7-2.8-1.73-3.72-2.18-7.67-1.78-13.09Z"/>
  <path class="cls-4" d="M531.72,295.18c-.02,1.4-.2,2.76-1.93,3.04-1.27.21-2.29-.33-2.84-1.49-2.23-4.71-3.26-9.78-4.26-14.84-.25-1.25.45-2.3,1.71-2.62,1.05-.27,1.79.46,2.37,1.28,1.25,1.75,4.95,12.67,4.95,14.63Z"/>
  <path class="cls-14" d="M580.91,293.5c.11,2.09.36,4.19.27,6.28-.06,1.3-.48,2.73-2.16,3.02-1.89.32-2.92-.82-3.45-2.37-1.76-5.19-1.13-10.16,1.59-14.91.45-.78,1.08-1.1,1.87-.99.83.11,1.39.73,1.45,1.55.18,2.48.27,4.96.4,7.45,0,0,.02,0,.03,0Z"/>
  <path class="cls-14" d="M534.55,280.77c.29-1.61.63-3.88,1.15-6.11.17-.72.95-1.17,1.77-1.24.91-.08,1.65.54,1.78,1.2.88,4.28,2.51,8.46,2.02,12.95-.13,1.21-.62,2.23-1.99,2.45-1.29.21-2.25-.37-2.89-1.45-1.31-2.2-1.81-4.61-1.84-7.8Z"/>
  <path class="cls-14" d="M595.59,296.32c.07,3.22.17,5.12-.77,6.87-.46.86-1.08,1.59-2.16,1.62-1.08.03-1.74-.68-2.23-1.52-1.62-2.75-.86-11.49,1.28-13.64,1.23-1.24,2.6-1.01,3.01.7.56,2.38.72,4.85.87,5.98Z"/>
  <path class="cls-14" d="M571.54,276.43c-.46,2.43-1.07,5.41-2.27,8.23-.65,1.51-1.77,2.68-3.54,2.21-2.05-.55-1.78-2.36-1.29-3.77.98-2.87,2.16-5.68,3.38-8.46.46-1.05,1.36-2,2.7-1.58,1.4.43,1.27,1.67,1.02,3.39Z"/>
  <path class="cls-4" d="M472.52,322.25c-2.91.1-5.87-.49-8.6-2.09-1.19-.7-2.53-1.42-1.68-3.04.66-1.26,2-.98,3.04-.49,3.37,1.6,6.95,2.08,10.63,2.09,1.18,0,2.55.09,2.59,1.56.05,1.79-1.5,1.9-2.87,1.97-.96.04-1.92,0-3.11,0Z"/>
  <path class="cls-14" d="M503.95,298.4c0,1.13-.69,1.93-1.96,2.17-2.25.41-7.46-3.36-7.86-5.64-.15-.85.28-1.53.91-1.91,2.2-1.33,8.8,2.55,8.92,5.38Z"/>
  <path class="cls-4" d="M511.09,286.63c-.05,1.23.26,2.6-1.32,2.81-1.32.17-2.03-.78-2.33-1.97-.64-2.55-1.36-5.1-1.16-7.78.07-.97.25-1.95,1.41-2.13,1.47-.23,1.96.76,2.17,1.98.42,2.41.84,4.82,1.24,7.1Z"/>
  <path class="cls-14" d="M477.68,300.58c.31.15,1,.25,1.28.65,1.69,2.41,4.05,3.92,6.65,5.19.71.35,1.05,1.05.9,1.88-.16.9-.86,1.23-1.64,1.27-2.95.17-8.5-4.25-8.9-7.03-.15-1.04.57-1.99,1.72-1.96Z"/>
  <path class="cls-4" d="M609.03,309.77c-1.08-.27-1.83-.94-1.26-2,1.07-1.99,2.22-3.99,3.64-5.74.78-.96,2.25-.87,2.77.5.84,2.2-2.88,7.29-5.15,7.24Z"/>
</svg>