<?xml version="1.0" encoding="UTF-8"?>
<svg id="Ebene_2" data-name="Ebene 2" xmlns="http://www.w3.org/2000/svg" viewBox="0 0 1080 1080">
  <defs>
    <style>
      .cls-1 {
        fill: #4884c3;
      }

      .cls-2 {
        fill: #352718;
      }

      .cls-3 {
        fill: #f3a33f;
      }

      .cls-4 {
        fill: #131928;
      }

      .cls-5 {
        fill: #00653b;
      }

      .cls-6 {
        fill: #c8d6e5;
      }

      .cls-7 {
        fill: #fff;
      }

      .cls-8 {
        fill: #275da7;
      }

      .cls-9 {
        fill: #522a1f;
      }

      .cls-10 {
        fill: #76aadb;
      }

      .cls-11 {
        fill: #879caf;
      }

      .cls-12 {
        fill: #1b1c21;
      }

      .cls-13 {
        fill: #75a9d9;
      }

      .cls-14 {
        fill: #285da8;
      }

      .cls-15 {
        fill: #c6ba6b;
      }

      .cls-16 {
        fill: #111725;
      }

      .cls-17 {
        fill: #9e7454;
      }
    </style>
  </defs>
  <circle class="cls-5" cx="542.34" cy="493.22" r="383.72"/>
  <g>
    <path class="cls-7" d="M322.04,281.55l-5.56,2.86-2.07-2.94,31.49-22.19,7.64,9.59-3.83,2.7-6.37-5.29-15.42,10.25,12.03,17.07,10.53-7.68-2.44-5.59,3.12-2.2,9.7,13.77-3.06,2.16-4.67-4.37-10.82,7.27,11.82,16.77,9.6-5.88,2.03,2.88-20.19,14.23-2.03-2.88,4.29-3.91-25.8-36.61Z"/>
    <path class="cls-7" d="M361.95,256.1c-1.09-.38-1.96-1.16-2.62-2.33-.75-1.34-.96-2.68-.63-4.02.33-1.34,1.2-2.4,2.63-3.19s2.68-1,3.78-.62c1.09.38,1.96,1.16,2.62,2.33.79,1.43,1.02,2.79.67,4.08-.35,1.29-1.26,2.35-2.73,3.17l-.06.03c-1.34.75-2.56.93-3.65.55ZM369.29,268.09l-5.41,1.53-1.86-3.33,9.08-6.62.13-.07,2.08.33,17.27,31.01,5.31-2.3,1.72,3.08-16.67,9.28-1.72-3.08,4.78-3.4-14.71-26.42Z"/>
    <path class="cls-7" d="M404.84,281.78c.73.47,1.92.65,3.58.55,1.66-.1,3.28-.5,4.86-1.2,2.5-1.1,4.14-2.4,4.9-3.89.76-1.49.76-3.09,0-4.8-.52-1.19-1.35-2.05-2.48-2.6-1.13-.55-2.52-.87-4.16-.96-1.64-.09-3.92-.07-6.85.07-3.94.22-7.09-.22-9.43-1.32-2.34-1.09-4.15-3.09-5.43-5.99-.85-1.93-1.01-3.88-.49-5.84.53-1.96,1.63-3.8,3.32-5.51,1.69-1.71,3.78-3.12,6.28-4.22,2.02-.89,3.86-1.51,5.51-1.87,1.65-.36,3.01-.59,4.06-.69,1.06-.1,1.76-.17,2.11-.22l3.6,8.17-4.02,1.77-3.46-4.3c-.5-.41-1.4-.55-2.7-.42-1.31.13-2.66.5-4.07,1.12-1.98.87-3.38,2.01-4.2,3.42-.82,1.41-.9,2.86-.25,4.36.58,1.32,1.38,2.27,2.39,2.84,1.01.58,2.12.92,3.32,1.02,1.2.1,2.79.14,4.77.1l1.55-.05c2.88-.12,5.29-.07,7.21.13,1.92.2,3.72.79,5.38,1.76,1.66.97,2.95,2.49,3.85,4.56,1.43,3.25,1.31,6.4-.37,9.44-1.68,3.05-4.71,5.53-9.1,7.47-2.15.95-4.54,1.64-7.15,2.08-2.61.44-4.8.68-6.56.73l-3.71-8.44,4.28-1.89,3.45,4.62Z"/>
    <path class="cls-7" d="M425.52,246.32c.54-3.53,1.98-6.66,4.33-9.37,2.35-2.71,5.56-4.7,9.64-5.97,1.97-.61,3.72-.95,5.26-1.03,1.53-.07,3.39-.1,5.56-.07l3.01,10.68-4.47,1.39-3.69-6.55c-.67-1.2-2.62-1.3-5.82-.3s-5.34,3.08-6.39,6.24c-1.05,3.17-.84,7.13.64,11.9,1.68,5.41,4,9.2,6.96,11.37,2.96,2.17,6.11,2.74,9.46,1.7,1.93-.6,3.66-1.46,5.19-2.59,1.54-1.13,2.79-2.3,3.78-3.51l2.16,2.35c-.84,1.67-2.3,3.39-4.39,5.17s-4.37,3.05-6.84,3.82c-3.76,1.17-7.2,1.3-10.31.41-3.12-.89-5.79-2.62-8.01-5.17-2.22-2.55-3.92-5.71-5.08-9.47-1.18-3.8-1.5-7.47-.96-11.01Z"/>
    <path class="cls-7" d="M461.66,211.83l-6.09.24-.52-3.05,11.34-3.33.14-.02,1.74.8,2.82,16.46.75,6.08c1.28-1.63,3.14-3.29,5.58-4.97,2.44-1.68,5.01-2.76,7.7-3.22,2.98-.51,5.39-.34,7.25.51,1.85.85,3.31,2.39,4.37,4.62s1.94,5.33,2.62,9.3l3.39,19.8,5.08-.21.6,3.48-16.96,2.9-.6-3.48,4.5-1.43-3.4-19.87c-.48-2.79-1.04-4.95-1.69-6.47-.65-1.52-1.56-2.58-2.74-3.18-1.17-.6-2.8-.73-4.88-.37-1.7.29-3.45,1.03-5.25,2.21-1.79,1.18-3.33,2.47-4.6,3.86l4.61,26.9,5.01-.2.6,3.48-16.54,2.83-.6-3.48,4.16-1.3-8.37-48.9Z"/>
    <path class="cls-7" d="M516.38,253.24c-3.19-3.68-4.89-8.68-5.12-15.02-.15-4.17.51-7.87,1.97-11.1,1.47-3.22,3.6-5.75,6.39-7.58,2.79-1.83,6.01-2.81,9.66-2.95,4.46-.16,7.97.95,10.53,3.33,2.56,2.38,4,5.87,4.31,10.47.11,2.93.02,5.16-.26,6.71l-24.75.9c.27,4.75,1.51,8.53,3.73,11.36,2.22,2.83,5.27,4.17,9.15,4.03,1.92-.07,3.91-.49,5.97-1.26,2.06-.77,3.65-1.66,4.77-2.66l1.48,3.12c-1.34,1.49-3.36,2.81-6.05,3.97-2.7,1.15-5.46,1.78-8.29,1.89-5.8.21-10.3-1.52-13.48-5.2ZM536.31,233.57c.11-1.01.14-2.05.1-3.1-.16-3.12-.91-5.55-2.25-7.3-1.34-1.75-3.37-2.58-6.11-2.48-2.78.1-4.96,1.19-6.54,3.26-1.58,2.08-2.41,5.49-2.47,10.25l17.27-.63Z"/>
    <path class="cls-7" d="M550.3,253.86l5.42-.04,2.23-30.37-5.08-1.67.28-3.88,10-.56h.14s1.48,1.42,1.48,1.42l-.09,1.29-.63,5.59.22.02c.54-.78,1.48-1.77,2.82-2.97,1.34-1.2,3.03-2.27,5.07-3.2,2.04-.93,4.21-1.32,6.51-1.15.96.07,1.74.25,2.34.53l-.59,8.04c-.32-.26-.84-.53-1.57-.8-.73-.27-1.54-.44-2.45-.5-3.97-.29-7.75.66-11.33,2.85l-1.9,25.85,9.08,1.24-.25,3.45-21.97-1.61.26-3.52Z"/>
    <path class="cls-7" d="M585.58,219.86l16.41,3.11-.63,3.32-5.2-.03,3.29,21.73,1.27,9.55,4.2-8.22,11.06-19.3-4.64-1.83.63-3.32,14.36,2.72-.63,3.33-3.85.22-20.4,33-6.01-1.14-7.48-38.28-3.01-1.52.63-3.32Z"/>
    <path class="cls-7" d="M625.71,264.12c-1.74-4.54-1.64-9.83.31-15.86,1.28-3.97,3.16-7.23,5.64-9.76,2.48-2.53,5.34-4.18,8.59-4.95,3.25-.77,6.61-.59,10.08.52,4.25,1.37,7.17,3.61,8.77,6.72,1.59,3.11,1.75,6.88.48,11.31-.9,2.79-1.74,4.86-2.53,6.22l-23.57-7.6c-1.37,4.55-1.49,8.53-.37,11.95,1.12,3.41,3.53,5.71,7.23,6.91,1.83.59,3.84.87,6.04.85,2.2-.02,4-.31,5.39-.87l.33,3.44c-1.77.94-4.11,1.5-7.04,1.66-2.93.17-5.74-.19-8.44-1.05-5.53-1.78-9.16-4.94-10.9-9.49ZM651.16,252.42c.45-.92.83-1.88,1.16-2.88.91-2.98,1.04-5.53.38-7.63-.66-2.1-2.29-3.57-4.89-4.41-2.65-.85-5.07-.58-7.27.84-2.19,1.41-4.13,4.34-5.82,8.79l16.45,5.3Z"/>
    <path class="cls-7" d="M657.39,276.28l5.1,1.83,12.53-27.76-4.19-3.31,1.6-3.54,9.59,2.91.13.06.91,1.83-.53,1.18-2.51,5.03.2.09c.77-.55,1.99-1.15,3.67-1.82s3.62-1.09,5.86-1.26c2.24-.18,4.41.21,6.51,1.16.88.39,1.55.83,2.02,1.31l-3.32,7.35c-.21-.36-.61-.79-1.2-1.29-.59-.5-1.3-.94-2.13-1.32-3.63-1.64-7.5-2.04-11.62-1.21l-10.66,23.63,8.1,4.29-1.42,3.15-20.08-9.06,1.45-3.22Z"/>
    <path class="cls-7" d="M690.86,290.59c-.69-4.82.59-9.95,3.82-15.4,2.13-3.59,4.69-6.35,7.67-8.26,2.98-1.92,6.14-2.89,9.48-2.92,3.34-.03,6.58.89,9.71,2.75,3.84,2.28,6.19,5.11,7.05,8.5.86,3.39.18,7.1-2.04,11.14-1.5,2.52-2.78,4.35-3.85,5.5l-21.3-12.64c-2.34,4.14-3.35,7.99-3.01,11.57.33,3.58,2.17,6.35,5.52,8.34,1.65.98,3.55,1.7,5.7,2.17,2.15.47,3.97.58,5.45.34l-.44,3.42c-1.93.53-4.34.55-7.24.06-2.89-.49-5.56-1.46-7.99-2.9-5-2.96-7.84-6.85-8.52-11.67ZM718.27,284.83c.64-.79,1.23-1.64,1.77-2.55,1.55-2.71,2.24-5.16,2.06-7.36-.18-2.2-1.44-3.99-3.79-5.39-2.39-1.42-4.82-1.69-7.27-.8s-5,3.31-7.63,7.28l14.86,8.82Z"/>
    <path class="cls-7" d="M741.74,288l-3.65-4.28,2.26-3.08,9.81,5.5.12.09.57,2.02-20.99,28.62,4.3,3.87-2.09,2.84-15.38-11.29,2.09-2.84,5.09,2.93,17.89-24.38ZM749.58,276.34c-.11-1.15.24-2.27,1.03-3.35.91-1.24,2.04-1.99,3.39-2.25,1.35-.26,2.68.09,4,1.06,1.32.96,2.03,2.02,2.14,3.17s-.24,2.27-1.03,3.35c-.97,1.32-2.11,2.08-3.43,2.3-1.32.22-2.66-.17-4.02-1.16l-.06-.04c-1.24-.91-1.91-1.94-2.02-3.09Z"/>
    <path class="cls-7" d="M761.82,303.12l-2.94-4.46,2.63-2.86,8.46,6.01.16.15.24,1.98-2.05,2.23-1.22,1.22c2.31.04,4.93.56,7.86,1.55,2.93,1,5.35,2.37,7.26,4.13,2.23,2.05,3.56,4.05,4,6.02.44,1.97.1,4.05-1.01,6.26-1.11,2.2-3.03,4.79-5.76,7.76l-13.64,14.84,3.37,3.78-2.44,2.65-12.56-11.55,2.39-2.6,3.68,2.6,13.69-14.9c1.92-2.08,3.28-3.85,4.08-5.29.8-1.44,1.09-2.81.84-4.11-.24-1.3-1.1-2.63-2.59-3.99-1.27-1.17-2.93-2.1-4.96-2.8-2.03-.7-4.01-1.14-5.92-1.33l-18.46,20.09,3.17,3.79-2.39,2.6-12.51-11.5,2.39-2.6,3.78,2.59,20.46-22.27Z"/>
  </g>
  <g>
    <path class="cls-12" d="M553.47,560.19c3.77.88,7.09,1.64,10.4,2.43,6.04,1.45,11.84,3.62,17.51,6.18,1.51.68,3.01,1.41,4.09,2.74,1.23,1.5,1.04,2.95-.61,3.9-1.56.89-3.33,1.11-5.12,1.18-7.1.27-14.16-.44-21.21-1.13-5.88-.57-11.64-.05-17.29,1.47-4.34,1.16-7.96,3.88-11.49,6.64-3.42,2.68-6.73,5.49-10.18,8.13-2.33,1.79-4.88,3.23-7.73,4.01-1.53.42-3.02.62-4.28-.59-1.42-1.36-1.12-3.1-.65-4.73.51-1.74,1.48-3.29,2.45-4.81,1.74-2.73,3.88-5.12,5.87-7.64,1.02-1.29,2.3-2.45,2.42-4.37-1.92-.64-3.4.62-5,1.21-4.59,1.67-5.73,1.39-8.84-2.49-3.13,1.31-6.25,2.74-9.77,2.71-1.27-.01-1.97,1.11-2.65,2.01-3.18,4.2-6.31,8.41-8.96,13.02-9.81,17.12-20.41,33.71-32.05,49.59-1.83,2.5-3.95,4.73-6.37,6.65-4.4,3.48-7.65,7.88-9.91,13.07-.51,1.18-1.09,2.34-1.72,3.46-.92,1.62-2.02,3.16-4.16,2.67-2.22-.51-2.17-2.6-2.5-4.34-.12-.63-.14-1.3-.08-1.94.64-7.23.36-14.54,1.79-21.71.53-2.66.59-5.41.84-8.13.08-.9.22-1.84-.35-2.64-2.67-3.74-1.97-7.94-1.36-12.02,1.04-6.92,2.37-13.8,3.07-20.77.33-3.24.52-6.47-.02-9.7-.34-2.02-1.22-3.72-3.04-4.65-5.5-2.83-7.57-7.69-7.89-13.64-.21-3.9.13-7.78.58-11.66,1.26-10.95,2.31-21.94,3.74-32.87,3.74-28.68,11.2-56.31,21.84-83.13,7.28-18.35,15.91-35.84,26.8-52.19,6.28-9.44,13.76-17.58,23.13-23.85,2.86-1.91,5.57-4.05,8.3-6.15,1.99-1.53,3.03-3.63,3.72-6.12,1.83-6.62,3.35-13.31,4.82-20.01,2.39-10.89,7.76-19.91,15.72-27.38,10.23-9.6,21.77-16.87,35.36-20.22,10.49-2.58,20.77-1.56,30.89,2.34,10.77,4.15,20.48,10.05,29.29,17.58,6.1,5.21,11.02,11.43,14.91,18.51,2.36,4.29,4.71,8.6,6.83,13.02,2.4,5,6.16,8.47,10.81,11.07,3.33,1.86,6.88,3.25,10.43,4.59,17.45,6.62,34.3,14.53,50.15,24.6,3.02,1.92,6.08,3.79,8.4,6.6,1.44,1.74,3.36,3.53,2.03,6.17-1.21,2.39-3.51,2.66-5.88,2.73-2.32.07-4.53-.51-6.72-1.07-6.49-1.65-12.94-3.43-19.2-5.91-13.26-5.24-27.14-8.04-40.99-10.95-5.44-1.15-10.9-2.24-16.34-3.4-3.91-.84-7.79-.72-11.65.25-4.97,1.25-8.45,4.49-11.02,8.87-1.11,1.89-.97,3.96-.49,6.04.99,4.33,2.89,8.3,4.71,12.28,4.29,9.36,6.86,19.27,8.45,29.38,1.57,10.01.11,19.9-2.57,29.62-3.89,14.13-10.45,27-18.04,39.28-14.75,23.88-31.54,46.09-52.22,64.99-.26.24-.46.56-.98,1.21ZM686.5,376.64c3.17,1.19,6.34,2.37,9.51,3.56.09-.26.19-.52.28-.79-2.76-1.67-5.83-2.67-8.84-3.8-10.28-4.35-20.61-8.56-31.42-11.31-11.51-2.93-23.17-5.24-34.34-9.52-1.88-.72-4.01-1.34-6.03-.81-.26.69-.04,1.03.23,1.29,4.99,4.98,10.65,8.66,17.73,9.56,1.88.24,3.78.42,5.62.84,15.76,3.59,31.73,6.25,47.24,10.99ZM522.57,498.53c-1.53,0-2.74.24-3.93.68-.85.31-1.74.33-2.53-.27-.62-.48-1.22-1.01-.97-1.91.23-.82.97-.69,1.57-.63,2.49.26,4.77-.61,6.95-1.6,11.15-5.09,21.47-11.58,30.74-19.77,12.73-11.26,20.14-25.8,24.47-42.17,2.72-10.28,3.78-20.76.62-31.12-2.91-9.53-6.4-18.6-15.13-24.78-8.81-6.24-17.76-11.82-28.05-15.07-8.61-2.72-17.36-3.21-26.25-2.7-5.08.29-8.8,3.67-13.02,5.92-7.31,3.9-13.39,9.26-18.31,16.03-2.04,2.81-4.07,5.63-6.02,8.5-12.46,18.35-21.23,38.6-28.96,59.38-7.69,20.66-13.37,41.87-16.67,63.74-.11.7-.46,1.5.54,2.43,3.81-2.82,7.71-5.59,10.65-9.57,1.3-1.76,2.57-3.55,4.02-5.17,1.25-1.4,2.55-3.23,4.77-2.38,1.85.71,1.67,2.66,1.92,4.32.52,3.53,1.6,4.07,4.49,2.19,3.46-2.25,6.19-5.33,8.84-8.48,4.38-5.21,8.77-10.42,13.72-15.08,2.75-2.59,3.59-2.53,6,.41.85,1.04,1.64,1.17,2.57.45,1.01-.78,1.97-1.64,2.83-2.58,5.37-5.88,10.48-11.97,14.62-18.86,1.46-2.43,3.07-4.76,4.65-7.11,2.32-3.46,5.51-5.27,9.64-5.11,2.6.1,4.61-1.02,6.39-2.84,3.35-3.43,6.12-7.31,8.02-11.74,5.02-11.74,7.5-23.93,5.68-36.8-.15-1.03-.23-2.07-.25-3.1,0-.61-.02-1.4.8-1.53.96-.14,1.29.62,1.49,1.39.13.5.15,1.03.23,1.54,2.17,14.43,0,28.18-6.26,41.24-1.96,4.1-4.62,7.74-7.82,10.95-2.45,2.46-5.25,4.1-8.8,3.74-2.69-.27-4.69.9-6.21,2.98-1.59,2.18-3.14,4.4-4.54,6.71-4.69,7.77-10.28,14.8-16.53,21.27-4.04,4.18-5.77,4.17-9.81.21-2.58,2.26-4.88,4.83-7.22,7.36-4.43,4.81-8.31,10.14-13.11,14.6-1.61,1.49-3.31,2.86-5.33,3.66-3.15,1.24-5.1.31-6.3-2.91-.43-1.18-.69-2.42-1.08-3.85-1.69,1.07-2.74,2.53-3.69,4.02-2.76,4.31-6.5,7.58-10.49,10.6-1.22.93-2.44,1.86-3.68,2.75-1.46,1.04-2.11,2.45-2.29,4.25-.68,7.09-1.43,14.17-2.18,21.43,1.55-.71,2.05-2.12,2.79-3.27,3.3-5.08,6.58-10.16,10.27-14.96.68-.89,1.46-2.33,2.68-1.41,1.41,1.07-.15,2.08-.74,2.86-4.77,6.41-8.76,13.35-13.29,19.92-.72,1.05-1.44,2.19-1.8,3.41-1.74,5.9-2.27,11.96-1.5,18.07.35,2.79,1.29,5.45,4.23,6.81.55-4.89,3.08-8.7,5.24-12.63,9.92-18.09,19.79-36.22,29.41-54.48.42-.8.85-1.6,1.38-2.31.3-.4.86-.54,1.38-.32.72.3.91.96.68,1.59-.4,1.09-.91,2.14-1.46,3.16-9.81,18.16-19.63,36.31-29.44,54.47-1.04,1.93-2.1,3.85-3.02,5.85-.54,1.16-.93,2.42-1.18,3.68-.49,2.38,1.02,3.94,2.48,5.36,1.41,1.37,2.91.31,4.18-.4,3.65-2.04,6.61-4.89,8.13-8.92,2.67-7.07,6.5-13.48,10.45-19.82,6.81-10.94,13.22-22.12,19.01-33.67.29-.58.55-1.18.92-1.69.4-.55.99-.84,1.65-.49.68.36.77,1.08.51,1.68-.92,2.13-1.84,4.27-2.93,6.31-5.95,11.16-12.26,22.1-18.98,32.8-2.81,4.47-5.41,9.09-7.35,14.04-.71,1.81-1.36,3.65-1.27,5.65.12,2.7,1.92,3.92,4.38,3,1.21-.45,2.24-1.2,3.2-2.05,3.6-3.2,6.32-7.06,8.09-11.6.61-1.56,1.16-3.15,1.76-4.72,6.94-18.1,18.72-33.13,29.37-48.88.51-.76,1.2-1.55,2.17-.86.97.69.41,1.58,0,2.41-1.66,3.38-3.79,6.42-6.12,9.34-9.27,11.62-16.65,24.44-22.76,38.05-1.51,3.37-1.6,7.05-1.6,10.68,0,1.94,1.05,2.44,2.8,1.53.78-.41,1.54-.93,2.18-1.54,4.66-4.36,9.5-8.55,13.72-13.38,3.89-4.44,7.64-9.01,11.35-13.61,10.35-12.82,20.17-26.01,27-41.26.52-1.16,1.39-2.19,1.26-3.98ZM481.12,563.84c1.09,1.56,2.69,1.56,4.11,2.02,2.41.78,4.82,1.58,6.51,3.73,2.02,2.58,3.23,2.98,6.36,1.94,1.8-.6,3.53-1.4,5.28-2.14,1.39-.59,2.36-.22,3.21,1.07,1.82,2.75,1.88,2.73,4.76,1.73,1.31-.46,2.59-1.05,3.92-1.46,1.46-.46,3.11-.92,4.32.26,1.15,1.13,2.02.63,3,.04,2.73-1.63,5.45-3.29,8.16-4.94,1.32-.8,2.74-1.84,4.24-1.13,2.48,1.19,4.52.04,6.42-1.08,5.8-3.41,11.51-6.89,16.36-11.8,19.92-20.18,37.01-42.59,51.03-67.45,5.27-9.34,9.83-19.02,12.85-29.4,2.48-8.51,2.94-17.3,3.33-26.09.05-1.03-.09-2.08-.29-3.09-2.16-10.68-4.64-21.24-9.36-31.13-2.64-5.55-7.01-8.88-12.73-9.01-4.64-.11-9.15-.32-13.76-.94-3.57-.48-7.25-.62-10.85-1.23-.98-.16-1.97-.49-2.99-.06-.11,1.57.97,2.64,1.61,3.86,5,9.55,8.03,19.62,7.37,30.57-.46,7.67-2.07,15.13-4.5,22.42-5.84,17.46-15.7,31.83-30.49,42.54-6.22,4.5-12.62,8.64-19.48,12-1.95.96-3.12,2.3-3.98,4.33-4.04,9.54-8.81,18.69-14.72,27.16-6.56,9.4-13.63,18.39-21.03,27.1-2.89,3.4-5.8,6.79-8.69,10.18ZM645.88,341.21c-3.88-5.69-6.47-11.46-9.41-17.02-4.46-8.43-10.04-15.78-17.56-21.64-9.04-7.05-18.72-12.78-29.54-16.37-9.37-3.11-18.87-3.52-28.35-.52-13.95,4.41-25.89,12.13-35.76,23.21-3.98,4.47-7.14,9.41-9.02,15.17-3.05,9.34-4.8,19.02-7.28,28.7,1.79-.38,2.5-1.71,3.43-2.68,4.08-4.25,8.03-8.64,12.17-12.84,4.41-4.48,9.37-7.85,16.12-6.59-1.87-7.53,1.87-13.41,9.07-14.79,2.74-.53,5.25.34,7.78,1.15,1.2.38,2.4,1.29,3.64.84,3.19-1.16,6.19-.62,9.22.56.67.26,1.54.28,2.24.1,3.03-.79,5.46.48,7.73,2.24,1.92,1.48,3.72,3.13,5.56,4.7.75.64,1.27.83,2.23.01,5.9-5.04,11.05-5.38,17.7-1.52,3.04,1.77,5.41,4.22,7.42,7.08,1.35-.77,1.3-2.29,2.04-3.3,2.1-2.89,4.54-4.85,8.75-2.31,2.09,1.26,3.94,2.82,5.64,4.57,2.68,2.75,5.37,5.5,8,8.3,2.06,2.19,4.5,3.21,8.18,2.94ZM429.22,623.34c.61-.45.87-.54.97-.72,4.4-8.62,8.93-17.18,10.87-26.85.15-.76.25-1.55.51-2.27.22-.62.71-1.15,1.42-.99.68.15,1.09.76,1.01,1.45-.15,1.41-.35,2.83-.68,4.22-2.01,8.54-6.03,16.22-10,23.89-1.44,2.79-2.64,5.48-2.5,8.76.15,3.38-.6,6.71-1.05,10.05-.89,6.57-1.12,13.18-1.28,19.8-.01.48-.06,1.06.76,1.31,1.31-.81,1.64-2.4,2.26-3.75,1.62-3.55,3.32-7.13,6.18-9.72,3.1-2.81,4.43-5.95,5-10.21,1.05-7.84,3.81-15.3,6.74-22.64,4.11-10.33,8.19-20.67,12.2-31.03.76-1.96,1.72-3.95,1.64-6.39-2.33.02-4.31-.23-5.49-2.34-1.49,1.27-2.81,2.48-4.21,3.58-1.21.95-2.54,1.64-4.11,1.85-3.24.43-5.22-1.32-6.56-4.19-1.99,1.47-3.46,3.06-5.26,4.25-1.62,1.06-4.3.78-4.96,2.28-.75,1.68.17,4.06.03,6.11-.45,6.47-1.24,12.91-2.41,19.3-.83,4.56-1.94,9.13-1.08,14.25ZM621.26,366.78c-3.92-6.51-5.35-7.84-10.44-9.03-6.61-1.55-13.31-1.47-19.96-.48-7.79,1.16-14.42,5.31-21.02,9.4-1.9,1.18-3.14,2.98-3.75,5.2-.49,1.78-.11,3.02,1.36,4.39,5.54,5.19,12.49,4.84,19.19,5.65,6.19.75,12.38,1.39,18.63,1.6,2.02.07,3.99,1.42,6.47,2.37-2.77-9.47,2.9-14.39,9.53-19.09ZM445.37,640.91c1.84-1.45,2.87-3.09,4.03-4.6,7.83-10.19,14.4-21.27,21.41-32.03,6.23-9.57,11.02-20.1,18.29-29,1.79-2.2,1.37-3.97-1.08-5.39-1.3-.76-2.79-1.18-4.21-1.71-.94-.35-2.16-.36-2.82-1-1.98-1.9-3.25-.78-4.73.67-3.26,3.2-6.25,6.8-10.92,8.15,1.4,3.81-.22,7.04-1.45,10.24-4.01,10.48-8.16,20.91-12.3,31.34-2.48,6.25-4.36,12.69-6,19.21-.31,1.25-.68,2.5-.24,4.13ZM617.55,349.79c-6.19-3.78-11.53-8.63-17.78-12.03-5.36-2.92-10.67-5.83-15.36-9.91-2.29-1.99-5.24-3.21-8.4-1.34-1.85,1.09-3.66.65-5.39-.38-1.2-.71-2.37-1.48-3.57-2.19-.66-.39-1.37-.74-2.09-.08-2.48,2.27-4.99,1.11-7.41-.06-2.1-1.02-4.2-1.75-6.56-1.44-3.09.41-4.53,2.23-4,5.32.9,5.25,3.01,9.57,8.35,11.5,2.02.73,3.99,1.57,6.07,2.13,8.82,2.37,17.87,3.27,26.85,4.63,7.85,1.19,15.78,1.99,23.42,4.37,1.92.6,3.88.71,5.86-.52ZM556.7,347.7c-4.48-2.84-7.58-7.07-10.94-11.08-2.92-3.48-8.97-4.32-13.01-2.25-2.74,1.4-5.07,3.42-7.19,5.65-4.42,4.64-8.78,9.33-13.13,14.03-.54.58-1.65.83-1.32,2.17,8.36-.43,16.64.15,24.7,2.73,1.08.35,1.94-.03,2.88-.46,4.37-2.02,8.79-3.93,12.97-6.35,1.86-1.08,3.69-2.26,5.05-4.44ZM542.34,361.11c4.75,1.8,9.08,3.61,12.88,6.35,2.64,1.91,5.17,1.54,7.86.64,1.46-.49,2.54-1.66,3.79-2.53,6.7-4.71,13.67-8.8,21.75-10.57,3.59-.78,7.29-.7,11.59-1.57-1.3-.43-1.88-.63-2.47-.81-.61-.18-1.22-.34-1.83-.48-9.6-2.2-19.32-2.36-29.05-1.48-9.06.82-16.82,5.02-24.51,10.45ZM550.67,562.6c-1.97.03-3.05.94-4.28,1.62-3.07,1.71-5.92,4.17-9.73,3.82-2.68-.25-4.96.48-7.02,2.22-.87.73-1.83,1.5-2.88,1.83-4.95,1.56-7.45,5.99-10.78,9.44-.55.57-.94,1.17-.52,2.05,1.46,3.05,4.4,3.91,7.23,2.03.84-.56,1.71-1.13,2.43-1.84,3.12-3.09,6.8-5.37,10.52-7.54,4.22-2.45,8.83-3.69,13.76-3.54,5.05.16,10.13-.33,15.16.27,3.32.4,4.35.07,5.57-2.86.58-1.41.45-2.5-1.25-2.96-2.07-.57-4.08-1.35-6.16-1.85-4.16-1-8.34-1.87-12.05-2.69ZM629.78,342.9c1.39-.03,2.93.1,3.56-1.52.58-1.5.36-3.04-.62-4.39-.15-.2-.31-.4-.49-.58-2.25-2.24-4.46-4.54-6.78-6.7-1.1-1.03-2.36-1.95-3.82-2.41-1.92-.6-3.42.35-3.48,2.25-.27,8.09,5.3,13.3,11.63,13.35ZM606.11,338.44c4.38,3.46,8.61,6.45,13.19,8.9.58.31,1.29.9,2.03.12.66-.7.94-1.41.58-2.43-2.4-6.65-8.85-9.52-15.8-6.59ZM517.75,589.37c-.98-.76-1.68-1.28-2.37-1.84-2.6-2.11-2.63-2.12-4.36.79-.39.66-.76,1.34-1.05,2.05-.29.71-.57,1.52-.04,2.19.56.71,1.42.48,2.1.21,2-.77,3.93-1.7,5.73-3.4ZM571.41,573.48c3.96.07,7.35.55,11.19-.42-2.86-2.25-5.79-2.93-8.68-4.18-.78,1.42-1.49,2.73-2.52,4.6ZM559.17,343.54c2.23,1.88,4.93,2.82,8,1.84-2.67-.61-5.33-1.22-8-1.84ZM600.14,329.46c.62-.07,1-.35,1.03-.93.06-1.09-1.26-2.18-2.55-2.13-.7.02-1.41.5-1.28,1.05.34,1.42,1.76,1.54,2.79,2.01ZM463.84,575.62c-1.33-1.35-1.98-2.5-2.34-4.09-1.69,3.74-1.62,3.87,2.34,4.09ZM606.29,335.1c2.05-.5,3.27-.79,4.82-1.17q-2.79-1.59-4.82,1.17Z"/>
    <path class="cls-14" d="M522.57,498.53c.13,1.79-.74,2.82-1.26,3.98-6.82,15.25-16.65,28.44-27,41.26-3.71,4.6-7.46,9.17-11.35,13.61-4.22,4.82-9.06,9.01-13.72,13.38-.65.61-1.4,1.13-2.18,1.54-1.75.91-2.8.41-2.8-1.53,0-3.63.08-7.31,1.6-10.68,6.11-13.61,13.49-26.44,22.76-38.05,2.34-2.93,4.46-5.96,6.12-9.34.4-.82.96-1.72,0-2.41-.98-.69-1.66.11-2.17.86-10.64,15.75-22.43,30.78-29.37,48.88-.6,1.57-1.15,3.15-1.76,4.72-1.77,4.55-4.49,8.4-8.09,11.6-.96.85-1.99,1.6-3.2,2.05-2.46.92-4.26-.3-4.38-3-.09-2,.56-3.84,1.27-5.65,1.94-4.96,4.54-9.57,7.35-14.04,6.71-10.7,13.03-21.64,18.98-32.8,1.09-2.04,2.01-4.18,2.93-6.31.26-.6.16-1.32-.51-1.68-.66-.35-1.25-.06-1.65.49-.37.52-.64,1.12-.92,1.69-5.79,11.55-12.2,22.73-19.01,33.67-3.95,6.34-7.78,12.75-10.45,19.82-1.52,4.03-4.48,6.88-8.13,8.92-1.27.71-2.77,1.77-4.18.4-1.46-1.42-2.97-2.98-2.48-5.36.26-1.26.65-2.52,1.18-3.68.92-1.99,1.98-3.92,3.02-5.85,9.81-18.16,19.64-36.31,29.44-54.47.55-1.02,1.06-2.07,1.46-3.16.23-.63.04-1.29-.68-1.59-.53-.22-1.08-.08-1.38.32-.54.71-.97,1.52-1.38,2.31-9.62,18.27-19.49,36.39-29.41,54.48-2.16,3.93-4.69,7.74-5.24,12.63-2.94-1.36-3.88-4.02-4.23-6.81-.77-6.11-.25-12.17,1.5-18.07.36-1.21,1.07-2.36,1.8-3.41,4.54-6.56,8.53-13.51,13.29-19.92.58-.78,2.15-1.79.74-2.86-1.22-.92-1.99.52-2.68,1.41-3.69,4.79-6.97,9.88-10.27,14.96-.74,1.15-1.24,2.56-2.79,3.27.74-7.25,1.5-14.34,2.18-21.43.17-1.81.83-3.22,2.29-4.25,1.25-.89,2.46-1.82,3.68-2.75,3.99-3.02,7.73-6.29,10.49-10.6.95-1.49,2-2.95,3.69-4.02.39,1.43.65,2.67,1.08,3.85,1.19,3.22,3.15,4.15,6.3,2.91,2.02-.8,3.73-2.17,5.33-3.66,4.8-4.46,8.68-9.79,13.11-14.6,2.34-2.54,4.64-5.1,7.22-7.36,4.04,3.96,5.77,3.97,9.81-.21,6.25-6.47,11.84-13.5,16.53-21.27,1.4-2.31,2.95-4.53,4.54-6.71,1.53-2.09,3.53-3.25,6.21-2.98,3.55.35,6.35-1.28,8.8-3.74,3.19-3.21,5.86-6.85,7.82-10.95,6.25-13.07,8.43-26.82,6.26-41.24-.08-.51-.09-1.04-.23-1.54-.21-.76-.53-1.53-1.49-1.39-.83.12-.81.92-.8,1.53.02,1.04.1,2.08.25,3.1,1.82,12.87-.66,25.06-5.68,36.8-1.89,4.43-4.67,8.31-8.02,11.74-1.78,1.82-3.79,2.95-6.39,2.84-4.13-.16-7.32,1.65-9.64,5.11-1.58,2.35-3.19,4.68-4.65,7.11-4.14,6.89-9.25,12.98-14.62,18.86-.86.94-1.82,1.8-2.83,2.58-.93.72-1.72.59-2.57-.45-2.4-2.94-3.25-3-6-.41-4.95,4.66-9.34,9.87-13.72,15.08-2.65,3.15-5.38,6.24-8.84,8.48-2.89,1.88-3.97,1.34-4.49-2.19-.24-1.66-.07-3.61-1.92-4.32-2.22-.85-3.52.97-4.77,2.38-1.44,1.63-2.72,3.41-4.02,5.17-2.94,3.98-6.84,6.75-10.65,9.57-1-.92-.65-1.72-.54-2.43,3.31-21.87,8.99-43.08,16.67-63.74,7.73-20.78,16.5-41.03,28.96-59.38,1.95-2.87,3.98-5.69,6.02-8.5,4.92-6.76,11-12.12,18.31-16.03,4.22-2.25,7.94-5.63,13.02-5.92,8.89-.51,17.64-.02,26.25,2.7,10.29,3.25,19.24,8.83,28.05,15.07,8.72,6.18,12.21,15.25,15.13,24.78,3.16,10.35,2.1,20.83-.62,31.12-4.32,16.37-11.74,30.91-24.47,42.17-9.27,8.19-19.58,14.68-30.74,19.77-2.18,1-4.45,1.86-6.95,1.6-.6-.06-1.34-.19-1.57.63-.25.9.35,1.44.97,1.91.79.6,1.68.58,2.53.27,1.2-.44,2.4-.68,3.93-.68ZM529.56,375.66c-.09,0-.47,0-.85.06-10.96,1.34-18.72,7.65-24.66,16.77-.21.32-.39.66-.54,1.02-.2.5-.22,1.03.19,1.43.55.53,1.24.45,1.71,0,.72-.71,1.33-1.54,1.91-2.37,5.75-8.08,12.86-13.82,23.11-14.19.49-.02,1.03-.11,1.44-.35.84-.49.9-1.19.13-1.82-.62-.5-1.4-.55-2.45-.53ZM477.64,405.14c-.17.95-.23,1.79.65,2.13,1.13.43,1.57-.4,1.9-1.32.09-.24.19-.48.26-.73,2.52-8.36,7.95-14.61,13.99-20.42.64-.62,1.36-1.17,1.95-1.84.43-.48.7-1.13.14-1.71-.53-.54-1.19-.37-1.73-.03-.53.34-1,.78-1.48,1.2-4.53,3.99-8.52,8.48-11.72,13.66-1.76,2.86-3.14,5.91-3.96,9.04ZM494.99,503.23c1.55,0,2.96-.55,4.33-1.22,4.83-2.36,8.26-6.26,11.12-10.76.2-.32.35-.69.48-1.05.2-.52.15-1.03-.29-1.39-.58-.47-1.22-.37-1.67.17-.57.69-.99,1.5-1.53,2.21-2.56,3.39-5.31,6.59-9.23,8.39-2.96,1.36-4.01,1.08-6.32-1.49-.35-.39-.75-.78-1.28-.61-.66.22-.93.78-.93,1.51-.02,2.51,2.1,4.21,5.31,4.24ZM524.16,467.48c5.46-.75,10.39-3.84,14.54-8.42.08-.09.14-.22.2-.33.28-.52.16-.98-.23-1.39-.41-.44-.9-.51-1.34-.16-.79.63-1.51,1.36-2.29,2.01-5.47,4.54-11.16,7.77-18.16,3.22-.11-.07-.22-.12-.34-.16-.76-.26-1.55-.36-1.99.47-.45.86.12,1.48.79,1.91,2.48,1.61,5.12,2.75,8.83,2.86ZM513.56,483.06c4.65-.76,8.67-3.39,11.83-7.49.32-.42.34-.99-.02-1.43-.5-.61-1.15-.54-1.67-.11-.88.73-1.67,1.56-2.51,2.34-5.75,5.32-9.39,5.22-14.86-.39-.62-.64-1.15-1.36-2.03-1.68-.68-.25-1.3-.13-1.73.37-.52.6-.16,1.19.32,1.66,1.55,1.51,3.04,3.09,4.67,4.5,1.57,1.36,3.46,2.07,6,2.23ZM556.77,446.87c.04-.97.21-1.86-.8-2.1-.94-.23-1.33.44-1.57,1.25-.22.75-.42,1.5-.71,2.22-2.59,6.35-5.93,12.07-12.37,15.11-.45.21-.88.5-1.26.83-.41.35-.6.84-.3,1.38.27.48.7.83,1.24.67.84-.26,1.66-.59,2.46-.97,4.8-2.34,7.83-6.45,10.33-11.05,1.29-2.38,2.41-4.85,2.99-7.34ZM484.77,427.13c-.07-.9-.16-1.56-.95-1.67-.54-.08-.97.21-1.21.71-.17.34-.28.72-.38,1.09-1.16,4-3.21,7.56-5.24,11.13-1.14,2.01-2.32,3.99-3.44,6.01-.45.81-.79,1.82.07,2.46.97.72,1.64-.12,2.1-.93,3.1-5.46,6.54-10.73,8.54-16.78.24-.73.39-1.49.52-2.01ZM562.05,399.85c-.13-.63-.2-1.14-.34-1.63-.22-.76-.56-1.57-1.48-1.47-.93.1-1.08.92-1.05,1.75,0,.13.03.26.02.39-.18,5.42-2.24,9.73-7.02,12.4-.33.18-.69.32-.98.56-.53.45-.79,1.03-.38,1.69.28.46.75.73,1.28.56.71-.23,1.43-.51,2.09-.88,5.16-2.92,6.8-8.01,7.86-13.37ZM554.51,429.7c-.13-.22-.24-.69-.51-.84-.83-.46-1.43.08-1.91.71-3.11,4.11-6.87,7.12-12.12,7.71-.87.1-1.84.54-1.49,1.75.32,1.09,1.26,1.04,2.19.89,5.51-.91,9.74-3.91,13.11-8.35.38-.51.75-1.04.73-1.87ZM507.38,405.38c-.11-.53.07-1.63-1.18-1.71-1.01-.06-1.16.82-1.25,1.59-.44,3.6-2.4,6.44-4.39,9.27-.96,1.36-1.96,2.68-2.88,4.06-.43.65-.71,1.5.11,2.03.74.48,1.43.08,1.99-.53.09-.09.17-.19.25-.29,2.37-3.17,4.71-6.37,6.37-10,.58-1.27,1.04-2.63.98-4.42ZM572.62,424.94c.05-1.05-.08-1.55-.61-1.78-.68-.3-1.24-.05-1.58.6-.3.57-.51,1.18-.79,1.76-1.72,3.59-3.91,6.67-7.96,7.75-.48.13-.94.38-1.36.65-.46.29-.69.79-.54,1.32.19.72.77,1.09,1.44.89,1.33-.4,2.68-.8,3.9-1.44,4.11-2.15,6.04-6.05,7.5-9.75ZM460.97,466.02c.07-1.08.06-2.13-1.06-2.27-1.16-.15-1.4.95-1.51,1.83-.43,3.25-1.92,6.11-3.13,9.07-.44,1.07-.85,2.15-1.18,3.25-.19.64-.02,1.3.65,1.63.73.36,1.29-.11,1.55-.67,1.9-4.2,3.9-8.36,4.69-12.84ZM530.63,486.19c2.69-.31,5.18-1.8,7.48-3.67.59-.48,1.29-1.09.74-1.93-.68-1.04-1.53-.49-2.3.03-.53.36-1.04.73-1.57,1.09-2.6,1.75-5.29,2.35-8.21.8-.55-.29-1.17-.53-1.78-.6-.66-.07-1.25.3-1.44.99-.15.57.26.98.71,1.23,1.88,1.09,3.81,2.03,6.36,2.05ZM454.48,447.87c.95.06,1.28-.67,1.62-1.36,1.14-2.3,2.26-4.61,3.38-6.92.73-1.5,1.46-3.01,2.14-4.53.28-.61.34-1.33-.27-1.74-.76-.51-1.44-.16-1.92.55-.28.42-.51.88-.74,1.34-1.45,3.01-2.91,6.01-4.33,9.03-.37.8-.93,1.57-.81,2.54.07.54.34.95.91,1.07ZM474.42,498c.09,0-.16-.05-.41-.04-.93.03-2.26-.49-2.38,1.01-.11,1.35,1.25,1.42,2.16,1.68,3.28.93,9.72-2.12,11.33-5.31.11-.22.19-.48.24-.72.11-.56-.07-1.06-.56-1.28-.3-.14-.82-.17-1.06,0-.59.45-1.03,1.1-1.61,1.58-2.16,1.78-4.31,3.59-7.71,3.08ZM517.64,424.92c.29-1.51.22-2.46-.88-2.69-.93-.19-1.35.67-1.49,1.41-.35,1.82-1.29,3.36-2.04,4.99-.91,1.98-1.91,3.92-2.82,5.91-.27.59-.34,1.31.33,1.71.6.36,1.36.24,1.69-.35,2.03-3.71,3.98-7.46,5.22-10.97ZM482.52,465.92c.25-.12.67-.21.9-.47,2.46-2.78,5.27-5.25,7.36-8.37.41-.62.92-1.41,0-2.01-.77-.5-1.43-.08-1.98.55-2.22,2.49-4.45,4.97-6.66,7.47-.33.38-.66.82-.83,1.29-.35.99.19,1.43,1.21,1.54ZM525.82,402.01h0c0-2.06.04-4.11-.02-6.17-.02-.76-.18-1.64-1.23-1.52-.72.08-1.05.7-1.06,1.37-.05,4.24-.09,8.48-.09,12.73,0,.83.38,1.57,1.31,1.49.96-.08,1.07-.96,1.09-1.73.04-2.06.01-4.11.01-6.17Z"/>
    <path class="cls-3" d="M481.12,563.84c2.9-3.39,5.8-6.78,8.69-10.18,7.4-8.71,14.47-17.7,21.03-27.1,5.91-8.47,10.69-17.62,14.72-27.16.86-2.03,2.02-3.37,3.98-4.33,6.86-3.36,13.27-7.51,19.48-12,14.8-10.71,24.65-25.08,30.49-42.54,2.44-7.28,4.04-14.74,4.5-22.42.66-10.95-2.37-21.02-7.37-30.57-.64-1.22-1.71-2.29-1.61-3.86,1.02-.43,2.01-.11,2.99.06,3.6.6,7.28.75,10.85,1.23,4.62.62,9.12.83,13.76.94,5.72.13,10.09,3.47,12.73,9.01,4.71,9.89,7.2,20.45,9.36,31.13.2,1.01.34,2.07.29,3.09-.4,8.79-.86,17.58-3.33,26.09-3.02,10.38-7.59,20.07-12.85,29.4-14.02,24.86-31.11,47.27-51.03,67.45-4.85,4.91-10.57,8.39-16.36,11.8-1.9,1.12-3.94,2.27-6.42,1.08-1.5-.72-2.92.33-4.24,1.13-2.72,1.65-5.43,3.3-8.16,4.94-.99.59-1.85,1.09-3-.04-1.22-1.18-2.86-.72-4.32-.26-1.33.41-2.6,1-3.92,1.46-2.89,1.01-2.95,1.02-4.76-1.73-.85-1.29-1.82-1.66-3.21-1.07-1.75.75-3.48,1.54-5.28,2.14-3.13,1.04-4.34.65-6.36-1.94-1.69-2.16-4.1-2.96-6.51-3.73-1.42-.46-3.02-.46-4.11-2.02ZM532.23,528.59c.49-.27,1.3-.63,2.03-1.12,6.56-4.35,10.34-11.14,14.58-17.52.07-.11.14-.22.17-.34.18-.66.18-1.27-.51-1.65-.52-.28-1.06-.15-1.38.21-.66.76-1.21,1.64-1.8,2.46-4.03,5.58-7.55,11.65-13.73,15.19-.32.18-.58.49-.82.79-.34.42-.5.91-.15,1.4.31.43.72.71,1.61.57ZM574.09,468.32c2.73-.51,5.6-1.36,8.02-3.43,3.34-2.86,5.91-6.36,8.05-10.21.54-.97,1.55-2.22.29-3.09-1.4-.96-1.93.7-2.47,1.59-3.55,5.78-7.25,11.31-14.56,12.46-.75.12-1.46.67-1.34,1.6.13.98.93,1.08,2.02,1.07ZM572.49,505.48c-.26-.82-.69-1.43-1.62-1.04-.45.19-.86.55-1.19.92-4.82,5.34-8.69,11.34-11.53,18.02-.1.24-.22.47-.27.72-.16.7.03,1.28.67,1.62.68.36,1.23.03,1.64-.49.32-.39.56-.86.77-1.32,2.72-6.15,6.25-11.76,10.68-16.77.42-.48.84-.97.87-1.67ZM604.95,424.15c-.16-1.52-.3-3.59-.63-5.61-.14-.86-.64-1.84-1.76-1.63-1.23.23-1.03,1.27-.82,2.16.77,3.33.6,6.62.03,9.98-.51,2.99-1.44,5.71-3.26,8.13-.58.77-.79,1.71.24,2.31.78.45,1.46.02,1.96-.63.47-.61.91-1.24,1.3-1.9,2.25-3.77,2.68-7.99,2.93-12.8ZM571.67,484.82c-.09-.99-1.43-1.32-2.37-.36-2.36,2.39-5.14,4.16-7.9,5.99-1.16.77-2.35,1.52-3.47,2.35-.6.45-1.24,1.06-.66,1.93.5.75,1.24.82,1.99.34,3.97-2.52,8.04-4.87,11.42-8.25.54-.54,1.03-1.14.99-2ZM588.7,489.77c.43-.18.82-.27,1.12-.49,3.88-2.92,7.58-6.02,9.77-10.59.17-.35.34-.69.45-1.06.19-.65.17-1.35-.44-1.73-.62-.39-1.21-.1-1.65.44-.24.3-.45.63-.62.97-1.82,3.68-4.73,6.32-7.86,8.76-.69.54-1.31,1.19-1.88,1.87-.38.44-.22,1,.19,1.37.26.23.64.32.93.46ZM521.97,534.08c-.15-.24-.28-.71-.56-.85-.8-.39-1.47.04-2,.63-3.15,3.52-5.89,7.37-8.55,11.29-.55.81-.82,1.81.08,2.4.93.6,1.6-.23,2.15-.99,2.61-3.63,5.21-7.27,8.15-10.63.43-.49.72-1.05.73-1.84ZM529.1,554.08c.39-.16.81-.21,1.07-.45,2.91-2.67,5.81-5.36,8.68-8.07.51-.48.59-1.13.06-1.7-.53-.56-1.21-.47-1.71-.07-1.39,1.11-2.74,2.27-4.06,3.47-1.6,1.46-3.17,2.96-4.71,4.48-.49.48-.62,1.16-.24,1.76.17.28.6.39.92.58Z"/>
    <path class="cls-8" d="M645.88,341.21c-3.67.27-6.12-.75-8.18-2.94-2.63-2.8-5.32-5.55-8-8.3-1.7-1.75-3.55-3.31-5.64-4.57-4.2-2.54-6.65-.57-8.75,2.31-.74,1.02-.69,2.53-2.04,3.3-2.01-2.86-4.38-5.32-7.42-7.08-6.65-3.86-11.8-3.52-17.7,1.52-.95.82-1.48.63-2.23-.01-1.85-1.58-3.65-3.22-5.56-4.7-2.27-1.76-4.7-3.03-7.73-2.24-.7.18-1.57.16-2.24-.1-3.03-1.19-6.03-1.72-9.22-.56-1.24.45-2.44-.46-3.64-.84-2.54-.81-5.04-1.68-7.78-1.15-7.2,1.38-10.94,7.26-9.07,14.79-6.75-1.26-11.71,2.11-16.12,6.59-4.13,4.2-8.08,8.59-12.17,12.84-.93.97-1.64,2.3-3.43,2.68,2.48-9.68,4.23-19.36,7.28-28.7,1.88-5.76,5.04-10.7,9.02-15.17,9.87-11.09,21.8-18.8,35.76-23.21,9.49-3,18.98-2.59,28.35.52,10.82,3.58,20.5,9.32,29.54,16.37,7.52,5.86,13.1,13.21,17.56,21.64,2.94,5.57,5.53,11.33,9.41,17.02ZM580.45,298.28c-.27,3.68.03,6.35,1.16,8.87.47,1.05.96,2.29,2.42,1.9,1.15-.31,1.45-1.47,1.38-2.5-.25-4.01-1.13-7.9-2.4-11.69-.21-.62-.77-1.08-1.48-.93-.68.15-1.05.72-1.07,1.4-.05,1.29-.01,2.58-.01,2.94ZM567.34,307.26c0-1.33-2.42-8.73-3.23-9.92-.38-.56-.86-1.05-1.55-.87-.83.22-1.28.93-1.12,1.78.65,3.43,1.32,6.87,2.78,10.06.36.79,1.03,1.16,1.86,1.01,1.13-.19,1.25-1.11,1.26-2.06ZM599.48,306.12s-.01,0-.02,0c-.08-1.68-.15-3.37-.26-5.05-.04-.55-.4-.97-.95-1.05-.52-.07-.93.14-1.22.67-1.78,3.22-2.19,6.59-1.04,10.11.34,1.06,1.02,1.83,2.25,1.61,1.1-.19,1.37-1.16,1.41-2.04.06-1.41-.11-2.84-.18-4.26ZM569.19,297.49c.02,2.16.35,3.79,1.2,5.29.42.73,1.05,1.12,1.89.98.9-.15,1.21-.84,1.3-1.66.32-3.04-.74-5.88-1.32-8.78-.09-.45-.57-.87-1.16-.81-.54.05-1.04.35-1.15.84-.34,1.51-.56,3.04-.75,4.14ZM609.07,308.04c-.1-.76-.2-2.44-.57-4.05-.26-1.15-1.16-1.31-1.96-.47-1.4,1.46-1.89,7.38-.84,9.25.32.57.75,1.05,1.46,1.03.7-.02,1.1-.51,1.41-1.1.62-1.19.55-2.48.51-4.66ZM593.35,294.55c.16-1.16.24-2-.67-2.3-.88-.28-1.46.36-1.76,1.07-.8,1.89-1.57,3.79-2.21,5.74-.32.96-.5,2.19.84,2.56,1.16.32,1.89-.47,2.31-1.5.79-1.91,1.18-3.93,1.49-5.58ZM528.67,325.61c.78,0,1.41.02,2.03,0,.89-.04,1.91-.12,1.87-1.33-.03-1-.92-1.05-1.69-1.05-2.4-.01-4.74-.33-6.94-1.42-.68-.34-1.56-.52-1.99.33-.55,1.1.32,1.59,1.1,2.06,1.78,1.09,3.72,1.49,5.62,1.42ZM549.2,309.44c-.08-1.92-4.39-4.55-5.82-3.65-.41.26-.69.72-.6,1.3.26,1.54,3.67,4.1,5.14,3.82.83-.16,1.28-.71,1.28-1.47ZM553.87,301.46c-.26-1.55-.54-3.18-.81-4.81-.14-.83-.46-1.5-1.42-1.34-.76.12-.88.79-.92,1.45-.13,1.82.34,3.54.76,5.27.19.81.66,1.45,1.52,1.34,1.03-.14.83-1.07.86-1.9ZM532.04,310.92c-.75-.02-1.22.62-1.12,1.33.26,1.89,3.89,4.88,5.82,4.76.51-.03.97-.26,1.07-.86.1-.56-.13-1.04-.59-1.27-1.7-.86-3.24-1.88-4.34-3.52-.18-.27-.63-.34-.83-.44ZM617.84,317.15c1.48.03,3.92-3.42,3.36-4.91-.34-.93-1.3-.99-1.81-.34-.93,1.19-1.67,2.54-2.38,3.89-.37.72.12,1.18.82,1.36Z"/>
    <path class="cls-13" d="M429.22,623.34c-.86-5.12.25-9.7,1.08-14.25,1.17-6.39,1.96-12.82,2.41-19.3.14-2.05-.78-4.44-.03-6.11.66-1.49,3.34-1.22,4.96-2.28,1.8-1.19,3.28-2.78,5.26-4.25,1.35,2.87,3.32,4.62,6.56,4.19,1.57-.21,2.9-.9,4.11-1.85,1.4-1.1,2.72-2.3,4.21-3.58,1.18,2.11,3.16,2.36,5.49,2.34.08,2.43-.88,4.42-1.64,6.39-4.01,10.37-8.09,20.71-12.2,31.03-2.92,7.34-5.69,14.8-6.74,22.64-.57,4.26-1.9,7.4-5,10.21-2.86,2.59-4.56,6.17-6.18,9.72-.61,1.35-.95,2.93-2.26,3.75-.82-.25-.78-.83-.76-1.31.16-6.62.39-13.24,1.28-19.8.45-3.34,1.21-6.67,1.05-10.05-.15-3.28,1.05-5.97,2.5-8.76,3.97-7.67,7.98-15.35,10-23.89.33-1.38.53-2.8.68-4.22.08-.69-.34-1.3-1.01-1.45-.71-.16-1.21.37-1.42.99-.26.73-.36,1.51-.51,2.27-1.94,9.67-6.47,18.23-10.87,26.85-.09.18-.36.28-.97.72Z"/>
    <path class="cls-10" d="M621.26,366.78c-6.63,4.7-12.3,9.62-9.53,19.09-2.48-.95-4.45-2.3-6.47-2.37-6.24-.21-12.43-.84-18.63-1.6-6.69-.81-13.65-.46-19.19-5.65-1.46-1.37-1.85-2.62-1.36-4.39.62-2.22,1.85-4.02,3.75-5.2,6.6-4.09,13.22-8.23,21.02-9.4,6.65-.99,13.35-1.07,19.96.48,5.1,1.2,6.53,2.52,10.44,9.03Z"/>
    <path class="cls-1" d="M445.37,640.91c-.44-1.63-.08-2.88.24-4.13,1.64-6.52,3.52-12.96,6-19.21,4.13-10.43,8.28-20.86,12.3-31.34,1.22-3.2,2.85-6.43,1.45-10.24,4.68-1.34,7.66-4.95,10.92-8.15,1.48-1.44,2.75-2.56,4.73-.67.66.64,1.88.64,2.82,1,1.42.53,2.91.96,4.21,1.71,2.45,1.42,2.87,3.2,1.08,5.39-7.27,8.9-12.06,19.43-18.29,29-7.01,10.77-13.59,21.84-21.41,32.03-1.16,1.51-2.19,3.15-4.03,4.6Z"/>
    <path class="cls-1" d="M617.55,349.79c-1.98,1.24-3.94,1.12-5.86.52-7.65-2.38-15.57-3.18-23.42-4.37-8.98-1.36-18.04-2.26-26.85-4.63-2.08-.56-4.06-1.4-6.07-2.13-5.34-1.93-7.46-6.24-8.35-11.5-.53-3.09.91-4.91,4-5.32,2.36-.31,4.46.42,6.56,1.44,2.41,1.17,4.92,2.33,7.41.06.72-.66,1.43-.31,2.09.08,1.2.71,2.37,1.48,3.57,2.19,1.73,1.03,3.55,1.47,5.39.38,3.17-1.87,6.11-.65,8.4,1.34,4.69,4.08,10,6.99,15.36,9.91,6.25,3.4,11.59,8.24,17.78,12.03Z"/>
    <path class="cls-10" d="M556.7,347.7c-1.36,2.18-3.19,3.37-5.05,4.44-4.18,2.41-8.6,4.33-12.97,6.35-.94.43-1.8.81-2.88.46-8.06-2.58-16.34-3.16-24.7-2.73-.33-1.34.78-1.59,1.32-2.17,4.35-4.7,8.71-9.39,13.13-14.03,2.12-2.23,4.45-4.25,7.19-5.65,4.04-2.07,10.1-1.22,13.01,2.25,3.36,4.01,6.45,8.24,10.94,11.08Z"/>
    <path class="cls-1" d="M542.34,361.11c7.7-5.43,15.45-9.64,24.51-10.45,9.73-.88,19.45-.71,29.05,1.48.62.14,1.23.3,1.83.48.59.17,1.16.38,2.47.81-4.3.86-8,.78-11.59,1.57-8.08,1.77-15.05,5.86-21.75,10.57-1.25.88-2.33,2.04-3.79,2.53-2.68.91-5.21,1.27-7.86-.64-3.8-2.74-8.13-4.55-12.88-6.35Z"/>
    <path class="cls-9" d="M550.67,562.6c3.71.82,7.89,1.69,12.05,2.69,2.08.5,4.09,1.28,6.16,1.85,1.7.47,1.84,1.55,1.25,2.96-1.22,2.94-2.25,3.26-5.57,2.86-5.03-.6-10.11-.11-15.16-.27-4.93-.15-9.54,1.09-13.76,3.54-3.72,2.16-7.41,4.44-10.52,7.54-.72.71-1.58,1.28-2.43,1.84-2.83,1.88-5.77,1.02-7.23-2.03-.42-.89-.03-1.48.52-2.05,3.33-3.45,5.83-7.89,10.78-9.44,1.05-.33,2.01-1.1,2.88-1.83,2.06-1.74,4.34-2.47,7.02-2.22,3.81.35,6.66-2.11,9.73-3.82,1.22-.68,2.31-1.58,4.28-1.62Z"/>
    <path class="cls-15" d="M686.5,376.64c-15.51-4.74-31.48-7.4-47.24-10.99-1.84-.42-3.74-.6-5.62-.84-7.09-.89-12.74-4.57-17.73-9.56-.27-.26-.49-.6-.23-1.29,2.02-.52,4.16.09,6.03.81,11.16,4.28,22.83,6.59,34.34,9.52,10.81,2.75,21.14,6.96,31.42,11.31-.32.34-.64.69-.96,1.03Z"/>
    <path class="cls-6" d="M629.78,342.9c-6.33-.05-11.91-5.26-11.63-13.35.06-1.9,1.56-2.85,3.48-2.25,1.46.45,2.72,1.38,3.82,2.41,2.32,2.17,4.53,4.46,6.78,6.7.18.18.34.38.49.58.98,1.35,1.2,2.89.62,4.39-.63,1.62-2.17,1.49-3.56,1.52Z"/>
    <path class="cls-6" d="M606.11,338.44c6.94-2.93,13.4-.06,15.8,6.59.37,1.02.08,1.73-.58,2.43-.73.78-1.45.19-2.03-.12-4.58-2.45-8.81-5.44-13.19-8.9Z"/>
    <path class="cls-17" d="M517.75,589.37c-1.8,1.71-3.73,2.63-5.73,3.4-.68.26-1.54.49-2.1-.21-.53-.66-.25-1.48.04-2.19.29-.71.66-1.39,1.05-2.05,1.74-2.91,1.76-2.91,4.36-.79.68.55,1.39,1.08,2.37,1.84Z"/>
    <path class="cls-17" d="M571.41,573.48c1.02-1.87,1.74-3.18,2.52-4.6,2.89,1.25,5.81,1.93,8.68,4.18-3.84.97-7.23.49-11.19.42Z"/>
    <path class="cls-17" d="M686.5,376.64c.32-.34.64-.69.96-1.03,3.01,1.13,6.07,2.13,8.84,3.8-.09.26-.19.52-.28.79-3.17-1.19-6.34-2.37-9.51-3.56Z"/>
    <path class="cls-11" d="M559.17,343.54c2.67.61,5.33,1.22,8,1.84-3.06.99-5.77.04-8-1.84Z"/>
    <path class="cls-6" d="M600.14,329.46c-1.04-.46-2.45-.59-2.79-2.01-.13-.56.58-1.03,1.28-1.05,1.29-.05,2.61,1.04,2.55,2.13-.03.57-.42.86-1.03.93Z"/>
    <path class="cls-8" d="M463.84,575.62c-3.97-.22-4.03-.35-2.34-4.09.36,1.59,1.01,2.75,2.34,4.09Z"/>
    <path class="cls-11" d="M606.29,335.1q2.03-2.77,4.82-1.17c-1.56.38-2.78.68-4.82,1.17Z"/>
    <path class="cls-4" d="M529.56,375.66c1.05-.02,1.83.03,2.45.53.77.63.72,1.33-.13,1.82-.41.24-.96.33-1.44.35-10.25.37-17.36,6.11-23.11,14.19-.59.83-1.2,1.66-1.91,2.37-.46.46-1.16.54-1.71,0-.41-.4-.39-.93-.19-1.43.14-.35.33-.7.54-1.02,5.94-9.12,13.7-15.42,24.66-16.77.37-.05.75-.05.85-.06Z"/>
    <path class="cls-16" d="M477.64,405.14c.82-3.13,2.19-6.18,3.96-9.04,3.2-5.19,7.19-9.67,11.72-13.66.48-.42.95-.87,1.48-1.2.55-.35,1.2-.52,1.73.03.56.58.29,1.23-.14,1.71-.6.66-1.31,1.22-1.95,1.84-6.04,5.81-11.47,12.06-13.99,20.42-.07.25-.17.49-.26.73-.32.91-.77,1.75-1.9,1.32-.89-.34-.82-1.19-.65-2.13Z"/>
    <path class="cls-4" d="M494.99,503.23c-3.21-.03-5.33-1.74-5.31-4.24,0-.73.27-1.29.93-1.51.54-.18.93.22,1.28.61,2.31,2.57,3.35,2.86,6.32,1.49,3.92-1.8,6.67-5,9.23-8.39.54-.71.96-1.52,1.53-2.21.45-.54,1.08-.64,1.67-.17.44.36.49.87.29,1.39-.14.36-.28.73-.48,1.05-2.86,4.51-6.29,8.4-11.12,10.76-1.37.67-2.78,1.22-4.33,1.22Z"/>
    <path class="cls-4" d="M524.16,467.48c-3.71-.11-6.35-1.25-8.83-2.86-.67-.43-1.23-1.05-.79-1.91.43-.83,1.23-.73,1.99-.47.12.04.23.1.34.16,7,4.55,12.69,1.32,18.16-3.22.78-.65,1.5-1.38,2.29-2.01.44-.36.94-.28,1.34.16.38.41.5.87.23,1.39-.06.11-.11.24-.2.33-4.15,4.58-9.09,7.67-14.54,8.42Z"/>
    <path class="cls-4" d="M513.56,483.06c-2.54-.16-4.43-.87-6-2.23-1.63-1.41-3.12-2.99-4.67-4.5-.49-.47-.85-1.06-.32-1.66.43-.49,1.05-.62,1.73-.37.88.32,1.41,1.05,2.03,1.68,5.47,5.61,9.1,5.71,14.86.39.84-.78,1.63-1.61,2.51-2.34.52-.44,1.17-.5,1.67.11.36.44.34,1.01.02,1.43-3.16,4.11-7.17,6.74-11.83,7.49Z"/>
    <path class="cls-4" d="M556.77,446.87c-.57,2.49-1.7,4.96-2.99,7.34-2.5,4.6-5.53,8.71-10.33,11.05-.79.39-1.62.72-2.46.97-.54.16-.97-.19-1.24-.67-.3-.54-.11-1.02.3-1.38.38-.33.81-.62,1.26-.83,6.44-3.05,9.77-8.76,12.37-15.11.29-.72.49-1.47.71-2.22.24-.81.62-1.48,1.57-1.25,1.01.24.84,1.13.8,2.1Z"/>
    <path class="cls-4" d="M484.77,427.13c-.13.52-.28,1.28-.52,2.01-2,6.04-5.44,11.32-8.54,16.78-.46.8-1.13,1.64-2.1.93-.86-.64-.52-1.64-.07-2.46,1.13-2.01,2.3-4,3.44-6.01,2.03-3.57,4.08-7.13,5.24-11.13.11-.37.22-.75.38-1.09.24-.5.67-.78,1.21-.71.8.11.88.77.95,1.67Z"/>
    <path class="cls-4" d="M562.05,399.85c-1.06,5.36-2.7,10.45-7.86,13.37-.65.37-1.37.64-2.09.88-.53.17-.99-.1-1.28-.56-.41-.67-.15-1.24.38-1.69.29-.24.65-.38.98-.56,4.79-2.67,6.84-6.98,7.02-12.4,0-.13-.02-.26-.02-.39-.03-.83.11-1.65,1.05-1.75.92-.1,1.25.71,1.48,1.47.14.49.21,1.01.34,1.63Z"/>
    <path class="cls-4" d="M554.51,429.7c.02.83-.35,1.36-.73,1.87-3.36,4.44-7.6,7.44-13.11,8.35-.93.15-1.87.2-2.19-.89-.35-1.21.62-1.65,1.49-1.75,5.25-.6,9.01-3.6,12.12-7.71.48-.63,1.07-1.18,1.91-.71.27.15.38.62.51.84Z"/>
    <path class="cls-4" d="M507.38,405.38c.06,1.79-.4,3.15-.98,4.42-1.66,3.63-4.01,6.83-6.37,10-.08.1-.16.2-.25.29-.56.61-1.26,1.02-1.99.53-.82-.54-.54-1.38-.11-2.03.91-1.38,1.92-2.71,2.88-4.06,1.99-2.82,3.95-5.67,4.39-9.27.09-.76.24-1.65,1.25-1.59,1.25.08,1.07,1.18,1.18,1.71Z"/>
    <path class="cls-4" d="M572.62,424.94c-1.46,3.71-3.39,7.61-7.5,9.75-1.22.64-2.58,1.04-3.9,1.44-.68.21-1.25-.16-1.44-.89-.14-.54.09-1.03.54-1.32.42-.27.88-.52,1.36-.65,4.05-1.08,6.24-4.17,7.96-7.75.28-.58.5-1.19.79-1.76.34-.65.89-.9,1.58-.6.53.23.66.72.61,1.78Z"/>
    <path class="cls-4" d="M460.97,466.02c-.78,4.48-2.79,8.64-4.69,12.84-.25.56-.81,1.03-1.55.67-.67-.33-.84-.98-.65-1.63.33-1.1.75-2.18,1.18-3.25,1.21-2.96,2.69-5.82,3.13-9.07.12-.87.35-1.98,1.51-1.83,1.12.14,1.12,1.19,1.06,2.27Z"/>
    <path class="cls-4" d="M530.63,486.19c-2.55-.01-4.48-.96-6.36-2.05-.45-.26-.86-.67-.71-1.23.19-.69.78-1.07,1.44-.99.61.07,1.23.3,1.78.6,2.91,1.55,5.61.96,8.21-.8.53-.36,1.04-.73,1.57-1.09.76-.52,1.61-1.07,2.3-.03.55.84-.15,1.45-.74,1.93-2.31,1.87-4.79,3.36-7.48,3.67Z"/>
    <path class="cls-4" d="M454.48,447.87c-.57-.12-.84-.53-.91-1.08-.12-.97.43-1.74.81-2.54,1.41-3.02,2.88-6.03,4.33-9.03.22-.46.45-.92.74-1.34.48-.71,1.16-1.06,1.92-.55.61.41.55,1.13.27,1.74-.69,1.52-1.42,3.02-2.14,4.53-1.12,2.31-2.25,4.62-3.38,6.92-.34.69-.68,1.41-1.62,1.36Z"/>
    <path class="cls-4" d="M474.42,498c3.4.52,5.56-1.3,7.71-3.08.58-.48,1.02-1.13,1.61-1.58.23-.18.75-.14,1.06,0,.49.22.67.72.56,1.28-.05.25-.12.5-.24.72-1.61,3.19-8.06,6.24-11.33,5.31-.91-.26-2.27-.33-2.16-1.68.12-1.5,1.45-.98,2.38-1.01.25,0,.5.05.41.04Z"/>
    <path class="cls-4" d="M517.64,424.92c-1.24,3.5-3.19,7.26-5.22,10.97-.33.6-1.08.71-1.69.35-.67-.39-.6-1.11-.33-1.71.91-1.98,1.91-3.92,2.82-5.91.75-1.63,1.69-3.17,2.04-4.99.14-.74.56-1.61,1.49-1.41,1.1.23,1.17,1.17.88,2.69Z"/>
    <path class="cls-4" d="M482.52,465.92c-1.02-.12-1.56-.55-1.21-1.54.17-.47.49-.91.83-1.29,2.21-2.5,4.44-4.98,6.66-7.47.56-.62,1.22-1.05,1.98-.55.92.6.41,1.39,0,2.01-2.09,3.12-4.9,5.59-7.36,8.37-.23.26-.65.34-.9.47Z"/>
    <path class="cls-16" d="M525.82,402.01c0,2.06.02,4.11-.01,6.17-.01.77-.13,1.65-1.09,1.73-.93.08-1.31-.67-1.31-1.49,0-4.24.03-8.48.09-12.73,0-.68.34-1.3,1.06-1.37,1.06-.12,1.21.76,1.23,1.52.05,2.06.02,4.11.02,6.17h0Z"/>
    <path class="cls-2" d="M532.23,528.59c-.89.14-1.3-.14-1.61-.57-.35-.49-.19-.98.15-1.4.24-.29.5-.6.82-.79,6.18-3.54,9.7-9.61,13.73-15.19.6-.83,1.14-1.7,1.8-2.46.32-.37.87-.5,1.38-.21.7.38.7.99.51,1.65-.03.12-.1.24-.17.34-4.24,6.38-8.02,13.17-14.58,17.52-.73.48-1.53.85-2.03,1.12Z"/>
    <path class="cls-2" d="M574.09,468.32c-1.09.01-1.89-.09-2.02-1.07-.12-.94.59-1.48,1.34-1.6,7.31-1.16,11.01-6.69,14.56-12.46.54-.89,1.07-2.54,2.47-1.59,1.27.86.25,2.12-.29,3.09-2.14,3.85-4.7,7.35-8.05,10.21-2.42,2.07-5.29,2.92-8.02,3.43Z"/>
    <path class="cls-2" d="M572.49,505.48c-.03.7-.44,1.19-.87,1.67-4.43,5.01-7.96,10.62-10.68,16.77-.21.47-.45.93-.77,1.32-.42.52-.97.85-1.64.49-.64-.34-.82-.92-.67-1.62.06-.25.17-.48.27-.72,2.84-6.68,6.71-12.67,11.53-18.02.34-.37.74-.73,1.19-.92.94-.4,1.37.22,1.62,1.04Z"/>
    <path class="cls-2" d="M604.95,424.15c-.25,4.81-.69,9.04-2.93,12.8-.39.66-.84,1.29-1.3,1.9-.5.65-1.17,1.09-1.96.63-1.04-.6-.82-1.54-.24-2.31,1.81-2.41,2.75-5.14,3.26-8.13.57-3.35.74-6.65-.03-9.98-.21-.89-.41-1.93.82-2.16,1.12-.21,1.62.77,1.76,1.63.34,2.03.47,4.09.63,5.61Z"/>
    <path class="cls-2" d="M571.68,484.82c.03.86-.46,1.46-1,2-3.38,3.37-7.45,5.73-11.42,8.25-.75.48-1.49.41-1.99-.34-.58-.87.06-1.48.66-1.93,1.12-.83,2.31-1.58,3.47-2.35,2.75-1.83,5.53-3.6,7.9-5.99.95-.96,2.28-.63,2.38.37Z"/>
    <path class="cls-2" d="M588.7,489.77c-.29-.14-.67-.23-.93-.46-.41-.37-.57-.92-.19-1.37.57-.67,1.19-1.33,1.88-1.87,3.13-2.44,6.05-5.08,7.86-8.76.17-.34.38-.68.62-.97.44-.54,1.04-.83,1.65-.44.61.38.63,1.08.44,1.73-.1.37-.28.72-.45,1.06-2.19,4.57-5.89,7.67-9.77,10.59-.29.22-.69.3-1.12.49Z"/>
    <path class="cls-2" d="M521.97,534.08c0,.79-.3,1.34-.73,1.84-2.94,3.36-5.54,7-8.15,10.63-.54.76-1.22,1.59-2.15.99-.9-.58-.63-1.59-.08-2.4,2.66-3.91,5.39-7.77,8.55-11.29.53-.59,1.2-1.02,2-.63.28.14.41.61.56.85Z"/>
    <path class="cls-2" d="M529.1,554.08c-.32-.19-.75-.3-.92-.58-.38-.6-.25-1.28.24-1.76,1.55-1.52,3.11-3.02,4.71-4.48,1.32-1.2,2.67-2.36,4.06-3.47.51-.4,1.18-.5,1.71.07.54.57.45,1.22-.06,1.7-2.87,2.72-5.77,5.4-8.68,8.07-.26.24-.68.29-1.07.45Z"/>
    <path class="cls-16" d="M580.45,298.28c0-.36-.03-1.65.01-2.94.02-.69.39-1.26,1.07-1.4.71-.15,1.27.31,1.48.93,1.27,3.79,2.14,7.68,2.4,11.69.07,1.03-.24,2.19-1.38,2.5-1.45.39-1.94-.84-2.42-1.9-1.13-2.52-1.43-5.2-1.16-8.87Z"/>
    <path class="cls-4" d="M567.34,307.26c-.01.95-.13,1.87-1.26,2.06-.83.14-1.5-.22-1.86-1.01-1.46-3.2-2.13-6.63-2.78-10.06-.16-.85.29-1.56,1.12-1.78.69-.18,1.17.31,1.55.87.81,1.19,3.23,8.59,3.23,9.92Z"/>
    <path class="cls-16" d="M599.48,306.12c.07,1.42.24,2.84.18,4.26-.04.88-.31,1.85-1.41,2.04-1.23.22-1.91-.55-2.25-1.61-1.15-3.52-.74-6.89,1.04-10.11.29-.53.7-.75,1.22-.67.54.08.91.49.95,1.05.12,1.68.18,3.37.26,5.05,0,0,.01,0,.02,0Z"/>
    <path class="cls-16" d="M569.19,297.49c.19-1.1.41-2.63.75-4.14.11-.49.62-.79,1.15-.84.59-.06,1.08.37,1.16.81.58,2.9,1.64,5.74,1.32,8.78-.09.82-.4,1.51-1.3,1.66-.84.14-1.47-.25-1.89-.98-.85-1.49-1.18-3.13-1.2-5.29Z"/>
    <path class="cls-16" d="M609.07,308.04c.04,2.18.11,3.47-.51,4.66-.3.59-.71,1.08-1.41,1.1-.71.02-1.13-.46-1.46-1.03-1.06-1.87-.56-7.79.84-9.25.8-.84,1.7-.68,1.96.47.37,1.61.47,3.29.57,4.05Z"/>
    <path class="cls-16" d="M593.35,294.55c-.3,1.65-.7,3.67-1.49,5.58-.42,1.03-1.15,1.82-2.31,1.5-1.34-.37-1.16-1.6-.84-2.56.64-1.95,1.41-3.85,2.21-5.74.3-.71.89-1.36,1.76-1.07.91.29.83,1.13.67,2.3Z"/>
    <path class="cls-4" d="M528.67,325.61c-1.9.07-3.84-.33-5.62-1.42-.78-.48-1.65-.96-1.1-2.06.43-.85,1.3-.67,1.99-.33,2.2,1.09,4.54,1.41,6.94,1.42.77,0,1.67.06,1.69,1.05.03,1.21-.98,1.29-1.87,1.33-.63.03-1.25,0-2.03,0Z"/>
    <path class="cls-16" d="M549.2,309.44c0,.76-.45,1.31-1.28,1.47-1.47.28-4.88-2.28-5.14-3.82-.1-.58.18-1.04.6-1.3,1.44-.9,5.75,1.73,5.82,3.65Z"/>
    <path class="cls-4" d="M553.87,301.46c-.03.83.17,1.76-.86,1.9-.86.12-1.33-.53-1.52-1.34-.42-1.73-.89-3.46-.76-5.27.05-.66.16-1.32.92-1.45.96-.16,1.28.51,1.42,1.34.27,1.63.55,3.27.81,4.81Z"/>
    <path class="cls-16" d="M532.04,310.92c.2.1.65.17.83.44,1.1,1.63,2.65,2.66,4.34,3.52.46.23.69.71.59,1.27-.11.61-.56.83-1.07.86-1.93.11-5.56-2.88-5.82-4.76-.1-.71.37-1.35,1.12-1.33Z"/>
    <path class="cls-4" d="M617.84,317.16c-.71-.18-1.19-.64-.82-1.36.7-1.35,1.45-2.71,2.38-3.89.51-.65,1.47-.59,1.81.34.55,1.49-1.88,4.95-3.37,4.91Z"/>
  </g>
  <g>
    <path class="cls-7" d="M293.84,610.24c.15-4.06,1.52-7.91,4.11-11.53,2.59-3.62,6.2-6.85,10.82-9.69,4.7-2.89,9.38-4.54,14.03-4.95,4.65-.41,8.9.35,12.76,2.26,3.85,1.91,6.97,4.81,9.36,8.7,3.92,6.38,4.9,12.49,2.95,18.34s-6.49,10.96-13.61,15.33c-4.78,2.94-9.54,4.61-14.28,5.02-4.74.4-9.07-.37-13-2.32-3.93-1.95-7.1-4.89-9.52-8.81-2.56-4.17-3.77-8.29-3.62-12.35ZM330.55,590.43c-4.86-.17-10.63,1.8-17.29,5.9-6.13,3.77-10.31,7.87-12.51,12.3-2.21,4.43-2.08,8.65.38,12.65,2.41,3.93,6.11,5.95,11.09,6.08,4.98.12,10.8-1.86,17.47-5.96,6.17-3.79,10.31-7.86,12.41-12.19,2.1-4.33,1.9-8.52-.58-12.57-2.44-3.97-6.09-6.03-10.95-6.2Z"/>
    <path class="cls-7" d="M358.62,610.75l8.82,7.54.1.11.33,1.95-15.93,14.7c2,.12,4.01.59,6.03,1.44,2.02.85,3.86,2.17,5.52,3.97,1.95,2.12,3.22,4.52,3.81,7.21.59,2.69.29,5.55-.91,8.58-1.19,3.03-3.43,6.05-6.71,9.08-3.04,2.8-6.37,4.71-9.99,5.74-3.63,1.03-7.24,1.04-10.83.05-3.6-.99-6.81-3.03-9.64-6.09-2.25-2.43-4.06-4.88-5.44-7.33s-2.07-4.07-2.07-4.85l38.1-35.15-3.42-4.88,2.22-2.05ZM353.36,638.87c-1.68-.58-3.23-.86-4.65-.85l-19.47,17.97c-.3.67-.13,1.64.49,2.92.63,1.28,1.53,2.56,2.7,3.83,2.51,2.72,5.62,3.9,9.33,3.54,3.72-.36,7.67-2.48,11.87-6.35,3.77-3.48,5.93-6.81,6.46-9.98s-.25-5.9-2.37-8.2c-1.24-1.34-2.69-2.3-4.37-2.88Z"/>
    <path class="cls-7" d="M359.24,686.41c-.09-4.86,1.8-9.8,5.67-14.82,2.55-3.3,5.43-5.73,8.62-7.26,3.19-1.54,6.44-2.12,9.76-1.74,3.32.38,6.42,1.68,9.3,3.92,3.53,2.73,5.52,5.83,5.96,9.3.44,3.47-.69,7.07-3.39,10.8-1.79,2.32-3.29,3.98-4.49,4.99l-19.6-15.15c-2.83,3.82-4.3,7.52-4.4,11.11-.11,3.59,1.38,6.57,4.46,8.95,1.52,1.17,3.32,2.12,5.39,2.85,2.08.73,3.87,1.06,5.36,1.01l-.85,3.34c-1.98.29-4.38.01-7.19-.83-2.81-.84-5.34-2.12-7.58-3.85-4.6-3.55-6.94-7.76-7.03-12.62ZM387.14,684.04c.73-.71,1.42-1.48,2.06-2.32,1.87-2.5,2.85-4.85,2.95-7.05s-.94-4.14-3.11-5.81c-2.2-1.7-4.58-2.26-7.12-1.68s-5.36,2.68-8.46,6.29l13.67,10.57Z"/>
    <path class="cls-7" d="M389.94,710.57l4.92,2.27,14.91-26.56-3.89-3.67,1.9-3.39,9.3,3.73.13.07.75,1.91-.63,1.13-2.94,4.79.19.11c.82-.48,2.09-.98,3.81-1.49,1.72-.52,3.71-.77,5.95-.75,2.24.02,4.37.6,6.38,1.72.84.47,1.47.96,1.9,1.48l-3.95,7.03c-.18-.37-.54-.84-1.08-1.39-.54-.55-1.21-1.05-2.01-1.5-3.47-1.95-7.3-2.69-11.47-2.22l-12.69,22.6,7.69,4.98-1.69,3.01-19.21-10.78,1.73-3.08Z"/>
    <path class="cls-7" d="M427.18,728.53c-1.5-4.63-1.12-9.9,1.13-15.82,1.49-3.9,3.53-7.05,6.14-9.45,2.61-2.4,5.55-3.9,8.84-4.49,3.28-.6,6.63-.25,10.04,1.05,4.17,1.59,6.97,3.98,8.4,7.17,1.43,3.19,1.39,6.96-.11,11.32-1.04,2.74-1.99,4.76-2.85,6.08l-23.15-8.81c-1.6,4.48-1.93,8.45-.99,11.91.94,3.47,3.23,5.89,6.86,7.27,1.79.68,3.79,1.07,5.99,1.16,2.2.09,4.01-.1,5.43-.59l.15,3.45c-1.81.85-4.19,1.28-7.12,1.3-2.93.01-5.72-.48-8.37-1.49-5.43-2.07-8.89-5.41-10.39-10.04ZM453.2,718.17c.49-.89.93-1.83,1.3-2.82,1.06-2.93,1.32-5.47.78-7.6-.55-2.14-2.1-3.69-4.66-4.66-2.6-.99-5.04-.84-7.3.46-2.26,1.29-4.36,4.12-6.27,8.48l16.15,6.15Z"/>
    <path class="cls-7" d="M495.75,704.24l-7.77-1.4.24-3.59,19.04,1.3,7.92,33.02,1.75,9.28,2.78-8.98,12.26-31.64,18.89,1.29-.25,3.59-7.96.32,2.7,45,6.2,1.22-.24,3.52-20.69-1.41.24-3.52,6.59-.27-1.03-32.47-.56-13.97-3.72,10.14-14.56,36.75-4.67-.32-9.29-35.2-3.31-13.87-2.24,13.85-5.07,32.06,7.06,1.2-.24,3.52-18.75-1.28.24-3.52,6.16-.3,8.29-44.32Z"/>
    <path class="cls-7" d="M560.08,723.41c1.23-3.42,3.15-6.18,5.75-8.28,2.59-2.11,5.53-3.43,8.79-3.97,5.97-.98,10.77.17,14.4,3.46,3.63,3.29,5.96,8.02,6.97,14.17.71,4.31.45,8.17-.79,11.59s-3.15,6.17-5.75,8.25c-2.6,2.08-5.53,3.39-8.8,3.93-5.97.98-10.77-.17-14.4-3.46-3.63-3.29-5.96-8.02-6.97-14.17-.71-4.26-.44-8.1.8-11.52ZM587.27,743.15c1.31-2.99,1.52-7.13.65-12.44-.87-5.26-2.36-9.29-4.48-12.1-2.12-2.81-4.95-3.93-8.51-3.34-3.27.54-5.57,2.31-6.9,5.3-1.33,2.99-1.56,7.14-.68,12.45.87,5.26,2.38,9.29,4.55,12.09,2.17,2.81,5,3.92,8.51,3.34,3.27-.54,5.55-2.3,6.86-5.29Z"/>
    <path class="cls-7" d="M603.25,715.19c.61-3.58,2-6.64,4.18-9.18,2.18-2.54,4.83-4.36,7.95-5.48,5.7-2.04,10.62-1.76,14.79.83,4.16,2.59,7.29,6.82,9.39,12.7,1.47,4.11,1.9,7.96,1.29,11.54-.61,3.58-2,6.63-4.19,9.14-2.19,2.51-4.84,4.33-7.96,5.44-5.7,2.04-10.62,1.76-14.79-.83-4.16-2.59-7.29-6.82-9.39-12.7-1.45-4.07-1.88-7.89-1.27-11.47ZM633.54,729.76c.75-3.17.22-7.29-1.59-12.35-1.79-5.02-3.98-8.72-6.57-11.11-2.59-2.39-5.58-2.98-8.96-1.77-3.12,1.11-5.07,3.26-5.84,6.45-.77,3.18-.26,7.3,1.55,12.37,1.79,5.02,4,8.71,6.64,11.09,2.63,2.37,5.62,2.96,8.96,1.77,3.12-1.11,5.05-3.26,5.81-6.43Z"/>
    <path class="cls-7" d="M660.1,719.59c.77.4,1.97.47,3.62.21,1.64-.25,3.22-.8,4.73-1.64,2.39-1.33,3.9-2.77,4.52-4.32.62-1.55.47-3.15-.43-4.78-.63-1.13-1.54-1.92-2.71-2.36-1.18-.44-2.59-.63-4.23-.57-1.64.06-3.91.29-6.82.7-3.91.58-7.08.43-9.51-.44s-4.42-2.69-5.96-5.46c-1.03-1.85-1.37-3.77-1.03-5.77s1.27-3.93,2.79-5.79c1.52-1.86,3.47-3.46,5.87-4.78,1.93-1.07,3.7-1.86,5.31-2.38s2.94-.86,3.98-1.06c1.04-.2,1.74-.33,2.08-.41l4.34,7.8-3.84,2.13-3.85-3.96c-.53-.36-1.44-.42-2.73-.17s-2.6.75-3.95,1.49c-1.89,1.05-3.18,2.31-3.86,3.79-.69,1.48-.63,2.93.16,4.36.7,1.26,1.58,2.13,2.64,2.61,1.06.48,2.2.72,3.4.71s2.79-.12,4.76-.34l1.54-.2c2.86-.38,5.26-.56,7.2-.54,1.94.02,3.78.44,5.52,1.26,1.74.82,3.16,2.21,4.26,4.18,1.73,3.11,1.9,6.25.51,9.44-1.39,3.19-4.18,5.95-8.37,8.28-2.06,1.14-4.36,2.05-6.92,2.74-2.56.68-4.72,1.12-6.47,1.33l-4.48-8.06,4.09-2.27,3.86,4.28Z"/>
    <path class="cls-7" d="M685.41,686.58c2.24-4.46,6.04-8.88,11.4-13.25l-1.24-1.59c-1.39-1.78-2.67-3.03-3.85-3.76-1.18-.73-2.41-.96-3.71-.71-1.29.25-2.79,1.04-4.5,2.37-1.93,1.51-3.45,3.13-4.55,4.88-1.1,1.75-2.1,3.61-2.99,5.58l-3.72-1.84c.17-.8.64-2.06,1.44-3.77.79-1.71,1.85-3.52,3.18-5.41,1.32-1.89,2.86-3.51,4.6-4.87,2.69-2.1,5.1-3.39,7.25-3.88,2.14-.49,4.2-.18,6.15.91,1.95,1.09,3.99,3,6.12,5.73l14.23,18.21,3.35-2.62,1.95,2.5c-.61.78-1.42,1.71-2.42,2.81-1.01,1.09-1.95,1.98-2.81,2.66-1.06.83-1.9,1.23-2.53,1.2-.63-.02-1.37-.59-2.23-1.68l-1.46-1.87c-.25,2.02-.83,4.15-1.73,6.38s-2.4,4.16-4.48,5.79c-2.72,2.13-5.6,3.11-8.62,2.94-3.02-.17-5.69-1.72-7.99-4.67-2.78-3.55-3.05-7.56-.81-12.03ZM704.95,691c.81-1.61,1.42-3.24,1.83-4.9l-7.62-9.76c-4.12,3.22-6.74,6.29-7.85,9.19-1.11,2.91-.87,5.38.73,7.42,1.6,2.04,3.27,3.15,5.03,3.33,1.76.18,3.48-.39,5.19-1.72.98-.77,1.88-1.96,2.7-3.57Z"/>
    <path class="cls-7" d="M706.72,656.41c-1.29-3.33-1.58-6.76-.89-10.29.7-3.52,2.5-6.84,5.41-9.97,1.41-1.51,2.76-2.67,4.06-3.5,1.29-.82,2.89-1.76,4.79-2.81l7.91,7.78-3.19,3.42-6.45-3.85c-1.18-.71-2.92.17-5.21,2.62-2.29,2.46-3.11,5.32-2.46,8.59.66,3.27,2.81,6.61,6.46,10.02,4.14,3.87,8.03,6.01,11.68,6.43,3.65.42,6.67-.65,9.06-3.21,1.38-1.47,2.45-3.08,3.22-4.82.77-1.74,1.29-3.38,1.54-4.92l3.04.97c.1,1.86-.32,4.09-1.25,6.67-.93,2.58-2.28,4.82-4.05,6.71-2.69,2.88-5.6,4.7-8.75,5.47-3.15.77-6.32.6-9.52-.51-3.2-1.11-6.23-3.01-9.11-5.7-2.91-2.72-5.01-5.75-6.3-9.08Z"/>
    <path class="cls-7" d="M713.81,614.18l-3.98,4.62-2.59-1.7,5.29-10.57.08-.12,1.77-.73,13.97,9.16,4.96,3.6c-.32-2.05-.27-4.54.16-7.47s1.39-5.54,2.89-7.83c1.66-2.53,3.43-4.18,5.31-4.96,1.88-.77,4-.79,6.36-.05,2.36.74,5.22,2.22,8.59,4.43l16.8,11.01,3.3-3.86,2.95,1.93-9.43,14.39-2.95-1.93,2.02-4.27-16.86-11.05c-2.37-1.55-4.33-2.61-5.89-3.17-1.55-.56-2.95-.62-4.2-.17-1.24.45-2.44,1.56-3.6,3.32-.95,1.45-1.6,3.23-1.96,5.35-.36,2.12-.46,4.12-.31,5.99l22.82,14.96,3.27-3.8,2.95,1.93-9.2,14.03-2.95-1.93,1.89-3.93-41.49-27.19Z"/>
  </g>
</svg>