<?xml version="1.0" encoding="UTF-8"?>
<svg id="Farbfeldinformationen-Ebene" xmlns="http://www.w3.org/2000/svg" viewBox="0 0 1920 1080">
  <defs>
    <style>
      .cls-1 {
        letter-spacing: -.02em;
      }

      .cls-2 {
        letter-spacing: .02em;
      }

      .cls-3 {
        letter-spacing: 0em;
      }

      .cls-4 {
        fill: none;
        stroke: #000;
        stroke-miterlimit: 10;
      }

      .cls-5 {
        fill: #f4f2ee;
      }

      .cls-6 {
        letter-spacing: 0em;
      }

      .cls-7 {
        letter-spacing: 0em;
      }

      .cls-8 {
        letter-spacing: 0em;
      }

      .cls-9 {
        letter-spacing: 0em;
      }

      .cls-10 {
        letter-spacing: 0em;
      }

      .cls-11 {
        fill: #6e4bae;
      }

      .cls-12 {
        fill: #fff;
      }

      .cls-13 {
        font-size: 21.5px;
      }

      .cls-13, .cls-14 {
        font-family: MyriadPro-Regular, 'Myriad Pro';
      }

      .cls-15 {
        letter-spacing: 0em;
      }

      .cls-16 {
        letter-spacing: 0em;
      }

      .cls-17 {
        letter-spacing: 0em;
      }

      .cls-18 {
        letter-spacing: 0em;
      }

      .cls-19 {
        letter-spacing: 0em;
      }

      .cls-20 {
        letter-spacing: -.02em;
      }

      .cls-21 {
        fill: #c6b9e9;
      }

      .cls-22 {
        letter-spacing: 0em;
      }

      .cls-23 {
        letter-spacing: 0em;
      }

      .cls-24 {
        letter-spacing: -.01em;
      }

      .cls-25 {
        letter-spacing: .01em;
      }

      .cls-26 {
        fill: #1b1b1b;
      }

      .cls-27 {
        fill: #7fb3ea;
      }

      .cls-14 {
        font-size: 23.65px;
      }

      .cls-28 {
        fill: #a88bd6;
      }

      .cls-29 {
        letter-spacing: 0em;
      }

      .cls-30 {
        letter-spacing: 0em;
      }

      .cls-31 {
        letter-spacing: -.05em;
      }

      .cls-32 {
        letter-spacing: 0em;
      }

      .cls-33 {
        letter-spacing: -.02em;
      }

      .cls-34 {
        fill: #4d87c7;
      }

      .cls-35 {
        letter-spacing: 0em;
      }

      .cls-36 {
        letter-spacing: 0em;
      }

      .cls-37 {
        letter-spacing: 0em;
      }

      .cls-38 {
        font-family: WaltographUI-Bold, 'Waltograph UI';
        font-size: 150px;
        font-weight: 700;
      }

      .cls-39 {
        letter-spacing: 0em;
      }

      .cls-40 {
        letter-spacing: 0em;
      }
    </style>
  </defs>
  <text class="cls-38" transform="translate(679.58 204.88)"><tspan x="0" y="0">Cri-kee</tspan></text>
  <g>
    <g>
      <rect class="cls-12" x="1615.84" y="402.15" width="249.43" height="410.71"/>
      <line class="cls-4" x1="1633.04" y1="673.09" x2="1848.07" y2="673.09"/>
      <text class="cls-13" transform="translate(1633.04 795.66)"><tspan class="cls-31" x="0" y="0">F</tspan><tspan x="9.5" y="0">a</tspan><tspan class="cls-35" x="19.87" y="0">r</tspan><tspan x="26.99" y="0">be</tspan><tspan class="cls-8" x="49.99" y="0">n</tspan><tspan class="cls-9" x="61.84" y="0">t</tspan><tspan x="69.15" y="0" xml:space="preserve">yp  </tspan><tspan class="cls-1" x="100.63" y="0">P</tspan><tspan class="cls-16" x="111.73" y="0">r</tspan><tspan class="cls-22" x="118.54" y="0">oz</tspan><tspan class="cls-23" x="139.25" y="0">ess</tspan></text>
      <text class="cls-13" transform="translate(1633.04 763.4)"><tspan x="0" y="0">CM</tspan><tspan class="cls-22" x="29.76" y="0">Y</tspan><tspan x="41.24" y="0" xml:space="preserve">K      76, 66, 61, 82</tspan></text>
      <text class="cls-13" transform="translate(1633.04 731.15)"><tspan class="cls-3" x="0" y="0">R</tspan><tspan x="11.63" y="0" xml:space="preserve">GB          27, 27, 27</tspan></text>
      <text class="cls-13" transform="translate(1633.04 698.89)"><tspan x="0" y="0">H</tspan><tspan class="cls-17" x="14.02" y="0">e</tspan><tspan class="cls-7" x="24.73" y="0" xml:space="preserve">x          #1B1B1B</tspan></text>
      <text class="cls-14" transform="translate(1633.04 666.64)"><tspan class="cls-18" x="0" y="0">E</tspan><tspan class="cls-30" x="11.47" y="0">y</tspan><tspan x="22.38" y="0">e_Gloss</tspan></text>
      <rect class="cls-26" x="1633.04" y="419.36" width="215.03" height="215.03"/>
    </g>
    <g>
      <rect class="cls-12" x="1355.65" y="402.15" width="249.43" height="410.71"/>
      <line class="cls-4" x1="1372.86" y1="673.09" x2="1587.89" y2="673.09"/>
      <text class="cls-13" transform="translate(1372.86 795.66)"><tspan class="cls-31" x="0" y="0">F</tspan><tspan x="9.5" y="0">a</tspan><tspan class="cls-35" x="19.87" y="0">r</tspan><tspan x="26.99" y="0">be</tspan><tspan class="cls-8" x="49.99" y="0">n</tspan><tspan class="cls-9" x="61.84" y="0">t</tspan><tspan x="69.15" y="0" xml:space="preserve">yp  </tspan><tspan class="cls-1" x="100.63" y="0">P</tspan><tspan class="cls-16" x="111.73" y="0">r</tspan><tspan class="cls-22" x="118.54" y="0">oz</tspan><tspan class="cls-23" x="139.25" y="0">ess</tspan></text>
      <text class="cls-13" transform="translate(1372.86 763.4)"><tspan x="0" y="0">CM</tspan><tspan class="cls-22" x="29.76" y="0">Y</tspan><tspan x="41.24" y="0" xml:space="preserve">K      5, 5, 7, 0</tspan></text>
      <text class="cls-13" transform="translate(1372.86 731.15)"><tspan class="cls-3" x="0" y="0">R</tspan><tspan x="11.63" y="0" xml:space="preserve">GB          244, 242, 238</tspan></text>
      <text class="cls-13" transform="translate(1372.86 698.89)"><tspan x="0" y="0">H</tspan><tspan class="cls-17" x="14.02" y="0">e</tspan><tspan class="cls-7" x="24.73" y="0" xml:space="preserve">x          #F4F2EE</tspan></text>
      <text class="cls-14" transform="translate(1372.86 666.64)"><tspan class="cls-32" x="0" y="0">S</tspan><tspan x="11.8" y="0">cle</tspan><tspan class="cls-40" x="39.83" y="0">r</tspan><tspan x="47.45" y="0">a_</tspan><tspan class="cls-2" x="70.67" y="0">O</tspan><tspan x="87.35" y="0">ffwhi</tspan><tspan class="cls-15" x="137.21" y="0">t</tspan><tspan x="144.9" y="0">e</tspan></text>
      <rect class="cls-5" x="1372.86" y="419.36" width="215.03" height="215.03"/>
    </g>
    <g>
      <rect class="cls-12" x="1095.47" y="402.15" width="249.43" height="410.71"/>
      <line class="cls-4" x1="1112.67" y1="673.09" x2="1327.7" y2="673.09"/>
      <text class="cls-13" transform="translate(1112.67 795.66)"><tspan class="cls-31" x="0" y="0">F</tspan><tspan x="9.5" y="0">a</tspan><tspan class="cls-35" x="19.87" y="0">r</tspan><tspan x="26.99" y="0">be</tspan><tspan class="cls-8" x="49.99" y="0">n</tspan><tspan class="cls-9" x="61.84" y="0">t</tspan><tspan x="69.15" y="0" xml:space="preserve">yp  </tspan><tspan class="cls-1" x="100.63" y="0">P</tspan><tspan class="cls-16" x="111.73" y="0">r</tspan><tspan class="cls-22" x="118.54" y="0">oz</tspan><tspan class="cls-23" x="139.25" y="0">ess</tspan></text>
      <text class="cls-13" transform="translate(1112.67 763.4)"><tspan x="0" y="0">CM</tspan><tspan class="cls-22" x="29.76" y="0">Y</tspan><tspan x="41.24" y="0" xml:space="preserve">K      26, 30, 0, 0</tspan></text>
      <text class="cls-13" transform="translate(1112.67 731.15)"><tspan class="cls-3" x="0" y="0">R</tspan><tspan x="11.63" y="0" xml:space="preserve">GB          198, 185, 233</tspan></text>
      <text class="cls-13" transform="translate(1112.67 698.89)"><tspan x="0" y="0">H</tspan><tspan class="cls-17" x="14.02" y="0">e</tspan><tspan class="cls-7" x="24.73" y="0" xml:space="preserve">x          #C6B9E9</tspan></text>
      <text class="cls-14" transform="translate(1112.67 666.64)"><tspan class="cls-33" x="0" y="0">W</tspan><tspan x="19.63" y="0">ing_L</tspan><tspan class="cls-37" x="74.51" y="0">a</tspan><tspan class="cls-30" x="85.72" y="0">v</tspan><tspan x="96.86" y="0">ender</tspan></text>
      <rect class="cls-21" x="1112.67" y="419.36" width="215.03" height="215.03"/>
    </g>
    <g>
      <rect class="cls-12" x="835.28" y="402.15" width="249.43" height="410.71"/>
      <line class="cls-4" x1="852.49" y1="673.09" x2="1067.52" y2="673.09"/>
      <text class="cls-13" transform="translate(852.48 795.66)"><tspan class="cls-31" x="0" y="0">F</tspan><tspan x="9.5" y="0">a</tspan><tspan class="cls-35" x="19.87" y="0">r</tspan><tspan x="26.99" y="0">be</tspan><tspan class="cls-8" x="49.99" y="0">n</tspan><tspan class="cls-9" x="61.84" y="0">t</tspan><tspan x="69.15" y="0" xml:space="preserve">yp  </tspan><tspan class="cls-1" x="100.63" y="0">P</tspan><tspan class="cls-16" x="111.73" y="0">r</tspan><tspan class="cls-22" x="118.54" y="0">oz</tspan><tspan class="cls-23" x="139.25" y="0">ess</tspan></text>
      <text class="cls-13" transform="translate(852.48 763.4)"><tspan x="0" y="0">CM</tspan><tspan class="cls-22" x="29.76" y="0">Y</tspan><tspan x="41.24" y="0" xml:space="preserve">K      72, 40, 0, 0</tspan></text>
      <text class="cls-13" transform="translate(852.48 731.15)"><tspan class="cls-3" x="0" y="0">R</tspan><tspan x="11.63" y="0" xml:space="preserve">GB          77, 135, 199</tspan></text>
      <text class="cls-13" transform="translate(852.48 698.89)"><tspan x="0" y="0">H</tspan><tspan class="cls-17" x="14.02" y="0">e</tspan><tspan class="cls-7" x="24.73" y="0" xml:space="preserve">x          #4D87C7</tspan></text>
      <text class="cls-14" transform="translate(852.48 666.64)"><tspan class="cls-39" x="0" y="0">A</tspan><tspan class="cls-29" x="14.41" y="0">n</tspan><tspan class="cls-15" x="27.44" y="0">t</tspan><tspan class="cls-10" x="35.12" y="0">enna_Blue</tspan></text>
      <rect class="cls-34" x="852.49" y="419.36" width="215.03" height="215.03"/>
    </g>
    <g>
      <rect class="cls-12" x="575.1" y="402.15" width="249.43" height="410.71"/>
      <line class="cls-4" x1="592.3" y1="673.09" x2="807.33" y2="673.09"/>
      <text class="cls-13" transform="translate(592.3 795.66)"><tspan class="cls-31" x="0" y="0">F</tspan><tspan x="9.5" y="0">a</tspan><tspan class="cls-35" x="19.87" y="0">r</tspan><tspan x="26.99" y="0">be</tspan><tspan class="cls-8" x="49.99" y="0">n</tspan><tspan class="cls-9" x="61.84" y="0">t</tspan><tspan x="69.15" y="0" xml:space="preserve">yp  </tspan><tspan class="cls-1" x="100.63" y="0">P</tspan><tspan class="cls-16" x="111.73" y="0">r</tspan><tspan class="cls-22" x="118.54" y="0">oz</tspan><tspan class="cls-23" x="139.25" y="0">ess</tspan></text>
      <text class="cls-13" transform="translate(592.3 763.4)"><tspan x="0" y="0">CM</tspan><tspan class="cls-22" x="29.76" y="0">Y</tspan><tspan x="41.24" y="0" xml:space="preserve">K      53, 20, 0, 0</tspan></text>
      <text class="cls-13" transform="translate(592.3 731.15)"><tspan class="cls-3" x="0" y="0">R</tspan><tspan x="11.63" y="0" xml:space="preserve">GB          127, 179, 234</tspan></text>
      <text class="cls-13" transform="translate(592.3 698.89)"><tspan x="0" y="0">H</tspan><tspan class="cls-17" x="14.02" y="0">e</tspan><tspan class="cls-7" x="24.73" y="0" xml:space="preserve">x          #7FB3EA</tspan></text>
      <text class="cls-14" transform="translate(592.3 666.64)"><tspan x="0" y="0">S</tspan><tspan class="cls-25" x="11.66" y="0">k</tspan><tspan x="23.06" y="0">y_Blue_Head</tspan></text>
      <rect class="cls-27" x="592.3" y="419.36" width="215.03" height="215.03"/>
    </g>
    <g>
      <rect class="cls-12" x="314.91" y="402.15" width="249.43" height="410.71"/>
      <line class="cls-4" x1="332.11" y1="673.09" x2="547.14" y2="673.09"/>
      <text class="cls-13" transform="translate(332.11 795.66)"><tspan class="cls-31" x="0" y="0">F</tspan><tspan x="9.5" y="0">a</tspan><tspan class="cls-35" x="19.87" y="0">r</tspan><tspan x="26.99" y="0">be</tspan><tspan class="cls-8" x="49.99" y="0">n</tspan><tspan class="cls-9" x="61.84" y="0">t</tspan><tspan x="69.15" y="0" xml:space="preserve">yp  </tspan><tspan class="cls-1" x="100.63" y="0">P</tspan><tspan class="cls-16" x="111.73" y="0">r</tspan><tspan class="cls-22" x="118.54" y="0">oz</tspan><tspan class="cls-23" x="139.25" y="0">ess</tspan></text>
      <text class="cls-13" transform="translate(332.11 763.4)"><tspan x="0" y="0">CM</tspan><tspan class="cls-22" x="29.76" y="0">Y</tspan><tspan x="41.24" y="0" xml:space="preserve">K      42, 49, 0, 0</tspan></text>
      <text class="cls-13" transform="translate(332.11 731.15)"><tspan class="cls-3" x="0" y="0">R</tspan><tspan x="11.63" y="0" xml:space="preserve">GB          168, 139, 214</tspan></text>
      <text class="cls-13" transform="translate(332.11 698.89)"><tspan x="0" y="0">H</tspan><tspan class="cls-17" x="14.02" y="0">e</tspan><tspan class="cls-7" x="24.73" y="0" xml:space="preserve">x          #A88BD6</tspan></text>
      <text class="cls-14" transform="translate(332.11 666.64)"><tspan x="0" y="0">L</tspan><tspan class="cls-37" x="11.16" y="0">a</tspan><tspan class="cls-24" x="22.38" y="0">v</tspan><tspan class="cls-10" x="33.52" y="0">ender_</tspan><tspan class="cls-6" x="103.25" y="0">B</tspan><tspan x="116.16" y="0">ody</tspan></text>
      <rect class="cls-28" x="332.11" y="419.36" width="215.03" height="215.03"/>
    </g>
    <g>
      <rect class="cls-12" x="54.73" y="402.15" width="249.43" height="410.71"/>
      <line class="cls-4" x1="71.93" y1="673.09" x2="286.96" y2="673.09"/>
      <text class="cls-13" transform="translate(71.93 795.66)"><tspan class="cls-31" x="0" y="0">F</tspan><tspan x="9.5" y="0">a</tspan><tspan class="cls-35" x="19.87" y="0">r</tspan><tspan x="26.99" y="0">be</tspan><tspan class="cls-8" x="49.99" y="0">n</tspan><tspan class="cls-9" x="61.84" y="0">t</tspan><tspan x="69.15" y="0" xml:space="preserve">yp  </tspan><tspan class="cls-1" x="100.63" y="0">P</tspan><tspan class="cls-16" x="111.73" y="0">r</tspan><tspan class="cls-22" x="118.54" y="0">oz</tspan><tspan class="cls-23" x="139.25" y="0">ess</tspan></text>
      <text class="cls-13" transform="translate(71.93 763.4)"><tspan x="0" y="0">CM</tspan><tspan class="cls-22" x="29.76" y="0">Y</tspan><tspan x="41.24" y="0" xml:space="preserve">K      72, 77, 0, 0</tspan></text>
      <text class="cls-13" transform="translate(71.93 731.15)"><tspan class="cls-3" x="0" y="0">R</tspan><tspan x="11.63" y="0" xml:space="preserve">GB          110, 75, 174</tspan></text>
      <text class="cls-13" transform="translate(71.93 698.89)"><tspan x="0" y="0">H</tspan><tspan class="cls-17" x="14.02" y="0">e</tspan><tspan class="cls-7" x="24.73" y="0" xml:space="preserve">x          #6E4BAE</tspan></text>
      <text class="cls-14" transform="translate(71.93 666.64)"><tspan class="cls-19" x="0" y="0">C</tspan><tspan class="cls-36" x="13.65" y="0">r</tspan><tspan x="21.48" y="0">icket_</tspan><tspan class="cls-20" x="80.21" y="0">V</tspan><tspan x="93.03" y="0">iolet</tspan></text>
      <rect class="cls-11" x="71.93" y="419.36" width="215.03" height="215.03"/>
    </g>
  </g>
</svg>