<?xml version="1.0" encoding="UTF-8"?>
<svg id="Farbfeldinformationen-Ebene" xmlns="http://www.w3.org/2000/svg" viewBox="0 0 1920 1080">
  <defs>
    <style>
      .cls-1 {
        letter-spacing: 0em;
      }

      .cls-2 {
        letter-spacing: -.02em;
      }

      .cls-3 {
        fill: none;
        stroke: #000;
        stroke-miterlimit: 10;
      }

      .cls-4 {
        letter-spacing: 0em;
      }

      .cls-5 {
        fill: #8a2e3a;
      }

      .cls-6 {
        letter-spacing: 0em;
      }

      .cls-7 {
        letter-spacing: 0em;
      }

      .cls-8 {
        letter-spacing: 0em;
      }

      .cls-9 {
        letter-spacing: 0em;
      }

      .cls-10 {
        letter-spacing: 0em;
      }

      .cls-11 {
        letter-spacing: 0em;
      }

      .cls-12 {
        fill: #fff;
      }

      .cls-13 {
        letter-spacing: 0em;
      }

      .cls-14 {
        letter-spacing: 0em;
      }

      .cls-15 {
        letter-spacing: 0em;
      }

      .cls-16 {
        letter-spacing: 0em;
      }

      .cls-17 {
        fill: #d19a2d;
      }

      .cls-18 {
        letter-spacing: 0em;
      }

      .cls-19 {
        letter-spacing: 0em;
      }

      .cls-20 {
        letter-spacing: 0em;
      }

      .cls-21 {
        letter-spacing: 0em;
      }

      .cls-22 {
        fill: #e53935;
      }

      .cls-23 {
        letter-spacing: 0em;
      }

      .cls-24 {
        fill: #7a1c1c;
      }

      .cls-25 {
        letter-spacing: -.02em;
      }

      .cls-26 {
        fill: #f2c14e;
      }

      .cls-27 {
        letter-spacing: -.07em;
      }

      .cls-28 {
        letter-spacing: -.01em;
      }

      .cls-29 {
        letter-spacing: 0em;
      }

      .cls-30 {
        fill: #c62828;
      }

      .cls-31 {
        fill: #0d0d0d;
      }

      .cls-32 {
        letter-spacing: -.02em;
      }

      .cls-33 {
        letter-spacing: 0em;
      }

      .cls-34 {
        fill: #f7f4ef;
      }

      .cls-35 {
        letter-spacing: -.01em;
      }

      .cls-36 {
        font-size: 12.32px;
      }

      .cls-36, .cls-37 {
        font-family: MyriadPro-Regular, 'Myriad Pro';
      }

      .cls-38 {
        letter-spacing: 0em;
      }

      .cls-39 {
        fill: #d96a7a;
      }

      .cls-40 {
        letter-spacing: 0em;
      }

      .cls-37 {
        font-size: 11.2px;
      }

      .cls-41 {
        letter-spacing: -.03em;
      }

      .cls-42 {
        letter-spacing: -.04em;
      }

      .cls-43 {
        font-family: WaltographUI-Bold, 'Waltograph UI';
        font-size: 150px;
        font-weight: 700;
      }
    </style>
  </defs>
  <text class="cls-43" transform="translate(683.78 198.99)"><tspan x="0" y="0">Mushu</tspan></text>
  <g>
    <g>
      <g>
        <rect class="cls-12" x="1210.39" y="646.4" width="241.99" height="326.02"/>
        <line class="cls-3" x1="1219.36" y1="899.6" x2="1443.42" y2="899.6"/>
        <text class="cls-37" transform="translate(1219.36 963.46)"><tspan class="cls-42" x="0" y="0">F</tspan><tspan class="cls-19" x="4.95" y="0">a</tspan><tspan class="cls-40" x="10.35" y="0">r</tspan><tspan class="cls-19" x="14.06" y="0">be</tspan><tspan class="cls-4" x="26.05" y="0">n</tspan><tspan class="cls-10" x="32.22" y="0">t</tspan><tspan x="36.03" y="0" xml:space="preserve">yp  </tspan><tspan class="cls-2" x="52.43" y="0">P</tspan><tspan class="cls-35" x="58.21" y="0">r</tspan><tspan class="cls-11" x="61.76" y="0">oz</tspan><tspan class="cls-14" x="72.55" y="0">ess</tspan></text>
        <text class="cls-37" transform="translate(1219.36 946.65)"><tspan x="0" y="0">CM</tspan><tspan class="cls-11" x="15.5" y="0">Y</tspan><tspan x="21.49" y="0" xml:space="preserve">K      82, 72, 62, 91</tspan></text>
        <text class="cls-37" transform="translate(1219.36 929.85)"><tspan class="cls-20" x="0" y="0">R</tspan><tspan x="6.06" y="0" xml:space="preserve">GB          13, 13, 13</tspan></text>
        <text class="cls-37" transform="translate(1219.36 913.04)"><tspan x="0" y="0">H</tspan><tspan class="cls-7" x="7.3" y="0">e</tspan><tspan x="12.88" y="0" xml:space="preserve">x          #0D0D0D</tspan></text>
        <text class="cls-36" transform="translate(1219.36 896.24)"><tspan class="cls-25" x="0" y="0">P</tspan><tspan x="6.37" y="0">upil_Black</tspan></text>
        <rect class="cls-31" x="1219.36" y="655.37" width="224.07" height="224.07"/>
      </g>
      <g>
        <rect class="cls-12" x="962.8" y="646.4" width="241.99" height="326.02"/>
        <line class="cls-3" x1="971.76" y1="899.6" x2="1195.83" y2="899.6"/>
        <text class="cls-37" transform="translate(971.76 963.46)"><tspan class="cls-42" x="0" y="0">F</tspan><tspan class="cls-19" x="4.95" y="0">a</tspan><tspan class="cls-40" x="10.35" y="0">r</tspan><tspan class="cls-19" x="14.06" y="0">be</tspan><tspan class="cls-4" x="26.05" y="0">n</tspan><tspan class="cls-10" x="32.22" y="0">t</tspan><tspan x="36.03" y="0" xml:space="preserve">yp  </tspan><tspan class="cls-2" x="52.43" y="0">P</tspan><tspan class="cls-35" x="58.21" y="0">r</tspan><tspan class="cls-11" x="61.76" y="0">oz</tspan><tspan class="cls-14" x="72.55" y="0">ess</tspan></text>
        <text class="cls-37" transform="translate(971.76 946.65)"><tspan x="0" y="0">CM</tspan><tspan class="cls-11" x="15.5" y="0">Y</tspan><tspan x="21.49" y="0" xml:space="preserve">K      4, 4, 7, 0</tspan></text>
        <text class="cls-37" transform="translate(971.76 929.85)"><tspan class="cls-20" x="0" y="0">R</tspan><tspan x="6.06" y="0" xml:space="preserve">GB          247, 244, 239</tspan></text>
        <text class="cls-37" transform="translate(971.76 913.04)"><tspan x="0" y="0">H</tspan><tspan class="cls-7" x="7.3" y="0">e</tspan><tspan x="12.88" y="0" xml:space="preserve">x          #F7F4EF</tspan></text>
        <text class="cls-36" transform="translate(971.76 896.24)"><tspan class="cls-16" x="0" y="0">E</tspan><tspan class="cls-29" x="5.98" y="0">y</tspan><tspan x="11.66" y="0">e_</tspan><tspan class="cls-6" x="23.99" y="0">W</tspan><tspan x="34.36" y="0">hi</tspan><tspan class="cls-33" x="44.08" y="0">t</tspan><tspan x="48.09" y="0">e</tspan></text>
        <rect class="cls-34" x="971.76" y="655.37" width="224.07" height="224.07"/>
      </g>
      <g>
        <rect class="cls-12" x="715.21" y="646.4" width="241.99" height="326.02"/>
        <line class="cls-3" x1="724.17" y1="899.6" x2="948.24" y2="899.6"/>
        <text class="cls-37" transform="translate(724.17 963.46)"><tspan class="cls-42" x="0" y="0">F</tspan><tspan class="cls-19" x="4.95" y="0">a</tspan><tspan class="cls-40" x="10.35" y="0">r</tspan><tspan class="cls-19" x="14.06" y="0">be</tspan><tspan class="cls-4" x="26.05" y="0">n</tspan><tspan class="cls-10" x="32.22" y="0">t</tspan><tspan x="36.03" y="0" xml:space="preserve">yp  </tspan><tspan class="cls-2" x="52.43" y="0">P</tspan><tspan class="cls-35" x="58.21" y="0">r</tspan><tspan class="cls-11" x="61.76" y="0">oz</tspan><tspan class="cls-14" x="72.55" y="0">ess</tspan></text>
        <text class="cls-37" transform="translate(724.17 946.65)"><tspan x="0" y="0">CM</tspan><tspan class="cls-11" x="15.5" y="0">Y</tspan><tspan x="21.49" y="0" xml:space="preserve">K      11, 69, 38, 2</tspan></text>
        <text class="cls-37" transform="translate(724.17 929.85)"><tspan class="cls-20" x="0" y="0">R</tspan><tspan x="6.06" y="0" xml:space="preserve">GB          217, 106, 122</tspan></text>
        <text class="cls-37" transform="translate(724.17 913.04)"><tspan x="0" y="0">H</tspan><tspan class="cls-7" x="7.3" y="0">e</tspan><tspan x="12.88" y="0" xml:space="preserve">x          #D96A7A</tspan></text>
        <text class="cls-36" transform="translate(724.17 896.24)"><tspan class="cls-27" x="0" y="0">T</tspan><tspan x="5.25" y="0">ongue_</tspan><tspan class="cls-32" x="44.87" y="0">P</tspan><tspan class="cls-15" x="51.23" y="0">ink</tspan></text>
        <rect class="cls-39" x="724.17" y="655.37" width="224.07" height="224.07"/>
      </g>
      <g>
        <rect class="cls-12" x="467.61" y="646.4" width="241.99" height="326.02"/>
        <line class="cls-3" x1="476.58" y1="899.6" x2="700.64" y2="899.6"/>
        <text class="cls-37" transform="translate(476.58 963.46)"><tspan class="cls-42" x="0" y="0">F</tspan><tspan class="cls-19" x="4.95" y="0">a</tspan><tspan class="cls-40" x="10.35" y="0">r</tspan><tspan class="cls-19" x="14.06" y="0">be</tspan><tspan class="cls-4" x="26.05" y="0">n</tspan><tspan class="cls-10" x="32.22" y="0">t</tspan><tspan x="36.03" y="0" xml:space="preserve">yp  </tspan><tspan class="cls-2" x="52.43" y="0">P</tspan><tspan class="cls-35" x="58.21" y="0">r</tspan><tspan class="cls-11" x="61.76" y="0">oz</tspan><tspan class="cls-14" x="72.55" y="0">ess</tspan></text>
        <text class="cls-37" transform="translate(476.58 946.65)"><tspan x="0" y="0">CM</tspan><tspan class="cls-11" x="15.5" y="0">Y</tspan><tspan x="21.49" y="0" xml:space="preserve">K      30, 88, 60, 34</tspan></text>
        <text class="cls-37" transform="translate(476.58 929.85)"><tspan class="cls-20" x="0" y="0">R</tspan><tspan x="6.06" y="0" xml:space="preserve">GB          138, 46, 58</tspan></text>
        <text class="cls-37" transform="translate(476.58 913.04)"><tspan x="0" y="0">H</tspan><tspan class="cls-7" x="7.3" y="0">e</tspan><tspan x="12.88" y="0" xml:space="preserve">x          #8A2E3A</tspan></text>
        <text class="cls-36" transform="translate(476.58 896.24)"><tspan class="cls-9" x="0" y="0">I</tspan><tspan x="3.07" y="0">nner_</tspan><tspan class="cls-21" x="33.11" y="0">M</tspan><tspan x="43.1" y="0">outh</tspan></text>
        <rect class="cls-5" x="476.58" y="655.37" width="224.07" height="224.07"/>
      </g>
    </g>
    <g>
      <g>
        <rect class="cls-12" x="1334.19" y="267.39" width="241.99" height="326.02"/>
        <line class="cls-3" x1="1343.15" y1="520.59" x2="1567.22" y2="520.59"/>
        <text class="cls-37" transform="translate(1343.15 584.45)"><tspan class="cls-42" x="0" y="0">F</tspan><tspan class="cls-19" x="4.95" y="0">a</tspan><tspan class="cls-40" x="10.35" y="0">r</tspan><tspan class="cls-19" x="14.06" y="0">be</tspan><tspan class="cls-4" x="26.05" y="0">n</tspan><tspan class="cls-10" x="32.22" y="0">t</tspan><tspan x="36.03" y="0" xml:space="preserve">yp  </tspan><tspan class="cls-2" x="52.43" y="0">P</tspan><tspan class="cls-35" x="58.21" y="0">r</tspan><tspan class="cls-11" x="61.76" y="0">oz</tspan><tspan class="cls-14" x="72.55" y="0">ess</tspan></text>
        <text class="cls-37" transform="translate(1343.15 567.64)"><tspan x="0" y="0">CM</tspan><tspan class="cls-11" x="15.5" y="0">Y</tspan><tspan x="21.49" y="0" xml:space="preserve">K      31, 97, 85, 43</tspan></text>
        <text class="cls-37" transform="translate(1343.15 550.84)"><tspan class="cls-20" x="0" y="0">R</tspan><tspan x="6.06" y="0" xml:space="preserve">GB          122, 28, 28</tspan></text>
        <text class="cls-37" transform="translate(1343.15 534.03)"><tspan x="0" y="0">H</tspan><tspan class="cls-7" x="7.3" y="0">e</tspan><tspan x="12.88" y="0" xml:space="preserve">x          #7A1C1C</tspan></text>
        <text class="cls-36" transform="translate(1343.15 517.23)"><tspan class="cls-21" x="0" y="0">M</tspan><tspan x="9.98" y="0">a</tspan><tspan class="cls-29" x="15.92" y="0">r</tspan><tspan x="19.83" y="0">oon_Shad</tspan><tspan class="cls-18" x="72.17" y="0">o</tspan><tspan class="cls-15" x="78.85" y="0">w</tspan></text>
        <rect class="cls-24" x="1343.15" y="276.36" width="224.07" height="224.07"/>
      </g>
      <g>
        <rect class="cls-12" x="1086.6" y="267.39" width="241.99" height="326.02"/>
        <line class="cls-3" x1="1095.56" y1="520.59" x2="1319.63" y2="520.59"/>
        <text class="cls-37" transform="translate(1095.56 584.45)"><tspan class="cls-42" x="0" y="0">F</tspan><tspan class="cls-19" x="4.95" y="0">a</tspan><tspan class="cls-40" x="10.35" y="0">r</tspan><tspan class="cls-19" x="14.06" y="0">be</tspan><tspan class="cls-4" x="26.05" y="0">n</tspan><tspan class="cls-10" x="32.22" y="0">t</tspan><tspan x="36.03" y="0" xml:space="preserve">yp  </tspan><tspan class="cls-2" x="52.43" y="0">P</tspan><tspan class="cls-35" x="58.21" y="0">r</tspan><tspan class="cls-11" x="61.76" y="0">oz</tspan><tspan class="cls-14" x="72.55" y="0">ess</tspan></text>
        <text class="cls-37" transform="translate(1095.56 567.64)"><tspan x="0" y="0">CM</tspan><tspan class="cls-11" x="15.5" y="0">Y</tspan><tspan x="21.49" y="0" xml:space="preserve">K      17, 39, 90, 5</tspan></text>
        <text class="cls-37" transform="translate(1095.56 550.84)"><tspan class="cls-20" x="0" y="0">R</tspan><tspan x="6.06" y="0" xml:space="preserve">GB          209, 154, 45</tspan></text>
        <text class="cls-37" transform="translate(1095.56 534.03)"><tspan x="0" y="0">H</tspan><tspan class="cls-7" x="7.3" y="0">e</tspan><tspan x="12.88" y="0" xml:space="preserve">x          #D19A2D</tspan></text>
        <text class="cls-36" transform="translate(1095.56 517.23)"><tspan class="cls-38" x="0" y="0">M</tspan><tspan x="9.95" y="0">usta</tspan><tspan class="cls-29" x="31.63" y="0">r</tspan><tspan x="35.54" y="0">d_Shad</tspan><tspan class="cls-18" x="74.46" y="0">o</tspan><tspan class="cls-15" x="81.14" y="0">w</tspan></text>
        <rect class="cls-17" x="1095.56" y="276.36" width="224.07" height="224.07"/>
      </g>
      <g>
        <rect class="cls-12" x="839" y="267.39" width="241.99" height="326.02"/>
        <line class="cls-3" x1="847.97" y1="520.59" x2="1072.03" y2="520.59"/>
        <text class="cls-37" transform="translate(847.97 584.45)"><tspan class="cls-42" x="0" y="0">F</tspan><tspan class="cls-19" x="4.95" y="0">a</tspan><tspan class="cls-40" x="10.35" y="0">r</tspan><tspan class="cls-19" x="14.06" y="0">be</tspan><tspan class="cls-4" x="26.05" y="0">n</tspan><tspan class="cls-10" x="32.22" y="0">t</tspan><tspan x="36.03" y="0" xml:space="preserve">yp  </tspan><tspan class="cls-2" x="52.43" y="0">P</tspan><tspan class="cls-35" x="58.21" y="0">r</tspan><tspan class="cls-11" x="61.76" y="0">oz</tspan><tspan class="cls-14" x="72.55" y="0">ess</tspan></text>
        <text class="cls-37" transform="translate(847.97 567.64)"><tspan x="0" y="0">CM</tspan><tspan class="cls-11" x="15.5" y="0">Y</tspan><tspan x="21.49" y="0" xml:space="preserve">K      5, 26, 77, 0</tspan></text>
        <text class="cls-37" transform="translate(847.97 550.84)"><tspan class="cls-20" x="0" y="0">R</tspan><tspan x="6.06" y="0" xml:space="preserve">GB          242, 193, 78</tspan></text>
        <text class="cls-37" transform="translate(847.97 534.03)"><tspan x="0" y="0">H</tspan><tspan class="cls-7" x="7.3" y="0">e</tspan><tspan x="12.88" y="0" xml:space="preserve">x          #F2C14E</tspan></text>
        <text class="cls-36" transform="translate(847.97 517.23)"><tspan class="cls-1" x="0" y="0">B</tspan><tspan x="6.73" y="0">elly_</tspan><tspan class="cls-13" x="30.69" y="0">G</tspan><tspan x="38.71" y="0">old</tspan></text>
        <rect class="cls-26" x="847.97" y="276.36" width="224.07" height="224.07"/>
      </g>
      <g>
        <rect class="cls-12" x="591.41" y="267.39" width="241.99" height="326.02"/>
        <line class="cls-3" x1="600.37" y1="520.59" x2="824.44" y2="520.59"/>
        <text class="cls-37" transform="translate(600.37 584.45)"><tspan class="cls-42" x="0" y="0">F</tspan><tspan class="cls-19" x="4.95" y="0">a</tspan><tspan class="cls-40" x="10.35" y="0">r</tspan><tspan class="cls-19" x="14.06" y="0">be</tspan><tspan class="cls-4" x="26.05" y="0">n</tspan><tspan class="cls-10" x="32.22" y="0">t</tspan><tspan x="36.03" y="0" xml:space="preserve">yp  </tspan><tspan class="cls-2" x="52.43" y="0">P</tspan><tspan class="cls-35" x="58.21" y="0">r</tspan><tspan class="cls-11" x="61.76" y="0">oz</tspan><tspan class="cls-14" x="72.55" y="0">ess</tspan></text>
        <text class="cls-37" transform="translate(600.37 567.64)"><tspan x="0" y="0">CM</tspan><tspan class="cls-11" x="15.5" y="0">Y</tspan><tspan x="21.49" y="0" xml:space="preserve">K      1, 88, 78, 0</tspan></text>
        <text class="cls-37" transform="translate(600.37 550.84)"><tspan class="cls-20" x="0" y="0">R</tspan><tspan x="6.06" y="0" xml:space="preserve">GB          229, 57, 53</tspan></text>
        <text class="cls-37" transform="translate(600.37 534.03)"><tspan x="0" y="0">H</tspan><tspan class="cls-7" x="7.3" y="0">e</tspan><tspan x="12.88" y="0" xml:space="preserve">x          #E53935</tspan></text>
        <text class="cls-36" transform="translate(600.37 517.23)"><tspan class="cls-41" x="0" y="0">F</tspan><tspan x="5.68" y="0">i</tspan><tspan class="cls-28" x="8.57" y="0">r</tspan><tspan x="12.47" y="0">e_Ember</tspan></text>
        <rect class="cls-22" x="600.37" y="276.36" width="224.07" height="224.07"/>
      </g>
      <g>
        <rect class="cls-12" x="343.82" y="267.39" width="241.99" height="326.02"/>
        <line class="cls-3" x1="352.78" y1="520.59" x2="576.85" y2="520.59"/>
        <text class="cls-37" transform="translate(352.78 584.45)"><tspan class="cls-42" x="0" y="0">F</tspan><tspan class="cls-19" x="4.95" y="0">a</tspan><tspan class="cls-40" x="10.35" y="0">r</tspan><tspan class="cls-19" x="14.06" y="0">be</tspan><tspan class="cls-4" x="26.05" y="0">n</tspan><tspan class="cls-10" x="32.22" y="0">t</tspan><tspan x="36.03" y="0" xml:space="preserve">yp  </tspan><tspan class="cls-2" x="52.43" y="0">P</tspan><tspan class="cls-35" x="58.21" y="0">r</tspan><tspan class="cls-11" x="61.76" y="0">oz</tspan><tspan class="cls-14" x="72.55" y="0">ess</tspan></text>
        <text class="cls-37" transform="translate(352.78 567.64)"><tspan x="0" y="0">CM</tspan><tspan class="cls-11" x="15.5" y="0">Y</tspan><tspan x="21.49" y="0" xml:space="preserve">K      15, 95, 88, 5</tspan></text>
        <text class="cls-37" transform="translate(352.78 550.84)"><tspan class="cls-20" x="0" y="0">R</tspan><tspan x="6.06" y="0" xml:space="preserve">GB          198, 40, 40</tspan></text>
        <text class="cls-37" transform="translate(352.78 534.03)"><tspan x="0" y="0">H</tspan><tspan class="cls-7" x="7.3" y="0">e</tspan><tspan x="12.88" y="0" xml:space="preserve">x          #C62828</tspan></text>
        <text class="cls-36" transform="translate(352.78 517.23)"><tspan x="0" y="0">D</tspan><tspan class="cls-8" x="8.21" y="0">r</tspan><tspan x="12.18" y="0">agon_</tspan><tspan class="cls-21" x="44.77" y="0">S</tspan><tspan x="50.92" y="0">ca</tspan><tspan class="cls-23" x="62.38" y="0">r</tspan><tspan x="66.46" y="0">let</tspan></text>
        <rect class="cls-30" x="352.78" y="276.36" width="224.07" height="224.07"/>
      </g>
    </g>
  </g>
</svg>