<?xml version="1.0" encoding="UTF-8"?>
<svg id="Farbfeldinformationen-Ebene" xmlns="http://www.w3.org/2000/svg" viewBox="0 0 1920 1080">
  <defs>
    <style>
      .cls-1 {
        fill: #8a5c49;
      }

      .cls-2 {
        fill: none;
        stroke: #000;
        stroke-miterlimit: 10;
      }

      .cls-3 {
        letter-spacing: 0em;
      }

      .cls-4 {
        letter-spacing: 0em;
      }

      .cls-5 {
        letter-spacing: 0em;
      }

      .cls-6 {
        font-size: 18.9px;
      }

      .cls-6, .cls-7 {
        font-family: MyriadPro-Regular, 'Myriad Pro';
      }

      .cls-8 {
        letter-spacing: 0em;
      }

      .cls-9 {
        fill: #fff;
      }

      .cls-10 {
        letter-spacing: 0em;
      }

      .cls-7 {
        font-size: 17.18px;
      }

      .cls-11 {
        fill: #8b1e2e;
      }

      .cls-12 {
        letter-spacing: -.03em;
      }

      .cls-13 {
        letter-spacing: 0em;
      }

      .cls-14 {
        letter-spacing: 0em;
      }

      .cls-15 {
        letter-spacing: 0em;
      }

      .cls-16 {
        letter-spacing: -.02em;
      }

      .cls-17 {
        letter-spacing: 0em;
      }

      .cls-18 {
        letter-spacing: 0em;
      }

      .cls-19 {
        letter-spacing: 0em;
      }

      .cls-20 {
        fill: #5f7ea6;
      }

      .cls-21 {
        letter-spacing: 0em;
      }

      .cls-22 {
        letter-spacing: .01em;
      }

      .cls-23 {
        letter-spacing: 0em;
      }

      .cls-24 {
        fill: #e6ecf1;
      }

      .cls-25 {
        letter-spacing: 0em;
      }

      .cls-26 {
        letter-spacing: 0em;
      }

      .cls-27 {
        letter-spacing: 0em;
      }

      .cls-28 {
        letter-spacing: -.05em;
      }

      .cls-29 {
        letter-spacing: 0em;
      }

      .cls-30 {
        fill: #6b4a3a;
      }

      .cls-31 {
        fill: #b58e3a;
      }

      .cls-32 {
        letter-spacing: 0em;
      }

      .cls-33 {
        fill: #6b7a86;
      }

      .cls-34 {
        letter-spacing: 0em;
      }

      .cls-35 {
        letter-spacing: -.01em;
      }

      .cls-36 {
        letter-spacing: -.02em;
      }

      .cls-37 {
        letter-spacing: -.02em;
      }

      .cls-38 {
        letter-spacing: -.01em;
      }

      .cls-39 {
        letter-spacing: 0em;
      }

      .cls-40 {
        letter-spacing: 0em;
      }

      .cls-41 {
        letter-spacing: 0em;
      }

      .cls-42 {
        letter-spacing: -.01em;
      }

      .cls-43 {
        letter-spacing: 0em;
      }

      .cls-44 {
        letter-spacing: 0em;
      }

      .cls-45 {
        fill: #8a6b2e;
      }

      .cls-46 {
        fill: #b9c2c9;
      }

      .cls-47 {
        font-family: WaltographUI-Bold, 'Waltograph UI';
        font-size: 150px;
        font-weight: 700;
      }

      .cls-48 {
        letter-spacing: 0em;
      }

      .cls-49 {
        letter-spacing: 0em;
      }
    </style>
  </defs>
  <text class="cls-47" transform="translate(680.18 201.89)"><tspan x="0" y="0">Sword</tspan></text>
  <g>
    <g>
      <rect class="cls-9" x="1692.07" y="451.97" width="199.34" height="328.23"/>
      <line class="cls-2" x1="1705.82" y1="668.5" x2="1877.67" y2="668.5"/>
      <text class="cls-7" transform="translate(1705.82 766.45)"><tspan class="cls-28" x="0" y="0">F</tspan><tspan x="7.6" y="0">a</tspan><tspan class="cls-21" x="15.88" y="0">r</tspan><tspan x="21.57" y="0">be</tspan><tspan class="cls-26" x="39.95" y="0">n</tspan><tspan class="cls-3" x="49.42" y="0">t</tspan><tspan x="55.27" y="0" xml:space="preserve">yp  </tspan><tspan class="cls-16" x="80.42" y="0">P</tspan><tspan class="cls-32" x="89.29" y="0">r</tspan><tspan class="cls-5" x="94.74" y="0">oz</tspan><tspan x="111.29" y="0">ess</tspan></text>
      <text class="cls-7" transform="translate(1705.82 740.68)"><tspan x="0" y="0">CM</tspan><tspan class="cls-18" x="23.78" y="0">Y</tspan><tspan class="cls-41" x="32.96" y="0" xml:space="preserve">K      68, 45, 19, 3</tspan></text>
      <text class="cls-7" transform="translate(1705.82 714.9)"><tspan class="cls-29" x="0" y="0">R</tspan><tspan x="9.3" y="0" xml:space="preserve">GB          95, 126, 166</tspan></text>
      <text class="cls-7" transform="translate(1705.82 689.12)"><tspan x="0" y="0">H</tspan><tspan class="cls-23" x="11.2" y="0">e</tspan><tspan x="19.76" y="0" xml:space="preserve">x          #5F7EA6</tspan></text>
      <text class="cls-6" transform="translate(1705.82 663.35)"><tspan class="cls-22" x="0" y="0">M</tspan><tspan x="15.42" y="0">i</tspan><tspan class="cls-44" x="19.85" y="0">r</tspan><tspan class="cls-38" x="26.1" y="0">r</tspan><tspan class="cls-13" x="32.1" y="0">o</tspan><tspan x="42.34" y="0">wing</tspan></text>
      <rect class="cls-20" x="1705.82" y="465.72" width="171.85" height="171.85"/>
    </g>
    <g>
      <rect class="cls-9" x="1484.14" y="451.97" width="199.34" height="328.23"/>
      <line class="cls-2" x1="1497.88" y1="668.5" x2="1669.73" y2="668.5"/>
      <text class="cls-7" transform="translate(1497.88 766.45)"><tspan class="cls-28" x="0" y="0">F</tspan><tspan x="7.6" y="0">a</tspan><tspan class="cls-21" x="15.88" y="0">r</tspan><tspan x="21.57" y="0">be</tspan><tspan class="cls-26" x="39.95" y="0">n</tspan><tspan class="cls-3" x="49.42" y="0">t</tspan><tspan x="55.27" y="0" xml:space="preserve">yp  </tspan><tspan class="cls-16" x="80.42" y="0">P</tspan><tspan class="cls-32" x="89.29" y="0">r</tspan><tspan class="cls-5" x="94.74" y="0">oz</tspan><tspan x="111.29" y="0">ess</tspan></text>
      <text class="cls-7" transform="translate(1497.88 740.68)"><tspan x="0" y="0">CM</tspan><tspan class="cls-18" x="23.78" y="0">Y</tspan><tspan class="cls-41" x="32.96" y="0" xml:space="preserve">K      29, 97, 70, 33</tspan></text>
      <text class="cls-7" transform="translate(1497.88 714.9)"><tspan class="cls-29" x="0" y="0">R</tspan><tspan x="9.3" y="0" xml:space="preserve">GB          139, 30, 46</tspan></text>
      <text class="cls-7" transform="translate(1497.88 689.12)"><tspan x="0" y="0">H</tspan><tspan class="cls-23" x="11.2" y="0">e</tspan><tspan x="19.76" y="0" xml:space="preserve">x          #8B1E2E</tspan></text>
      <text class="cls-6" transform="translate(1497.88 663.35)"><tspan x="0" y="0">La</tspan><tspan class="cls-49" x="18.03" y="0">c</tspan><tspan x="26.39" y="0">quer_</tspan><tspan class="cls-34" x="72.55" y="0">C</tspan><tspan class="cls-44" x="83.46" y="0">r</tspan><tspan x="89.71" y="0">imson</tspan></text>
      <rect class="cls-11" x="1497.88" y="465.72" width="171.85" height="171.85"/>
    </g>
    <g>
      <rect class="cls-9" x="1276.2" y="451.97" width="199.34" height="328.23"/>
      <line class="cls-2" x1="1289.95" y1="668.5" x2="1461.79" y2="668.5"/>
      <text class="cls-7" transform="translate(1289.95 766.45)"><tspan class="cls-28" x="0" y="0">F</tspan><tspan x="7.6" y="0">a</tspan><tspan class="cls-21" x="15.88" y="0">r</tspan><tspan x="21.57" y="0">be</tspan><tspan class="cls-26" x="39.95" y="0">n</tspan><tspan class="cls-3" x="49.42" y="0">t</tspan><tspan x="55.27" y="0" xml:space="preserve">yp  </tspan><tspan class="cls-16" x="80.42" y="0">P</tspan><tspan class="cls-32" x="89.29" y="0">r</tspan><tspan class="cls-5" x="94.74" y="0">oz</tspan><tspan x="111.29" y="0">ess</tspan></text>
      <text class="cls-7" transform="translate(1289.95 740.68)"><tspan x="0" y="0">CM</tspan><tspan class="cls-18" x="23.78" y="0">Y</tspan><tspan class="cls-41" x="32.96" y="0" xml:space="preserve">K      32, 58, 62, 34</tspan></text>
      <text class="cls-7" transform="translate(1289.95 714.9)"><tspan class="cls-29" x="0" y="0">R</tspan><tspan x="9.3" y="0" xml:space="preserve">GB          138, 92, 73</tspan></text>
      <text class="cls-7" transform="translate(1289.95 689.12)"><tspan x="0" y="0">H</tspan><tspan class="cls-23" x="11.2" y="0">e</tspan><tspan x="19.76" y="0" xml:space="preserve">x          #8A5C49</tspan></text>
      <text class="cls-6" transform="translate(1289.95 663.35)"><tspan class="cls-37" x="0" y="0">W</tspan><tspan class="cls-25" x="15.69" y="0">r</tspan><tspan x="21.78" y="0">ap_Binding</tspan></text>
      <rect class="cls-1" x="1289.95" y="465.72" width="171.85" height="171.85"/>
    </g>
    <g>
      <rect class="cls-9" x="1068.26" y="451.97" width="199.34" height="328.23"/>
      <line class="cls-2" x1="1082.01" y1="668.5" x2="1253.86" y2="668.5"/>
      <text class="cls-7" transform="translate(1082.01 766.45)"><tspan class="cls-28" x="0" y="0">F</tspan><tspan x="7.6" y="0">a</tspan><tspan class="cls-21" x="15.88" y="0">r</tspan><tspan x="21.57" y="0">be</tspan><tspan class="cls-26" x="39.95" y="0">n</tspan><tspan class="cls-3" x="49.42" y="0">t</tspan><tspan x="55.27" y="0" xml:space="preserve">yp  </tspan><tspan class="cls-16" x="80.42" y="0">P</tspan><tspan class="cls-32" x="89.29" y="0">r</tspan><tspan class="cls-5" x="94.74" y="0">oz</tspan><tspan x="111.29" y="0">ess</tspan></text>
      <text class="cls-7" transform="translate(1082.01 740.68)"><tspan x="0" y="0">CM</tspan><tspan class="cls-18" x="23.78" y="0">Y</tspan><tspan class="cls-41" x="32.96" y="0" xml:space="preserve">K      39, 59, 64, 50</tspan></text>
      <text class="cls-7" transform="translate(1082.01 714.9)"><tspan class="cls-29" x="0" y="0">R</tspan><tspan x="9.3" y="0" xml:space="preserve">GB          107, 74, 58</tspan></text>
      <text class="cls-7" transform="translate(1082.01 689.12)"><tspan x="0" y="0">H</tspan><tspan class="cls-23" x="11.2" y="0">e</tspan><tspan x="19.76" y="0" xml:space="preserve">x          #6B4A3A</tspan></text>
      <text class="cls-6" transform="translate(1082.01 663.35)"><tspan x="0" y="0">G</tspan><tspan class="cls-44" x="12.21" y="0">r</tspan><tspan class="cls-27" x="18.47" y="0">ip_</tspan><tspan class="cls-35" x="43.1" y="0">L</tspan><tspan x="51.76" y="0">e</tspan><tspan class="cls-43" x="61.23" y="0">a</tspan><tspan x="70.26" y="0">ther</tspan></text>
      <rect class="cls-30" x="1082.01" y="465.72" width="171.85" height="171.85"/>
    </g>
    <g>
      <rect class="cls-9" x="860.33" y="451.97" width="199.34" height="328.23"/>
      <line class="cls-2" x1="874.08" y1="668.5" x2="1045.92" y2="668.5"/>
      <text class="cls-7" transform="translate(874.07 766.45)"><tspan class="cls-28" x="0" y="0">F</tspan><tspan class="cls-19" x="7.6" y="0">a</tspan><tspan class="cls-15" x="15.88" y="0">r</tspan><tspan x="21.57" y="0">be</tspan><tspan class="cls-14" x="39.95" y="0">n</tspan><tspan class="cls-3" x="49.42" y="0">t</tspan><tspan x="55.27" y="0" xml:space="preserve">yp  </tspan><tspan class="cls-16" x="80.42" y="0">P</tspan><tspan class="cls-32" x="89.29" y="0">r</tspan><tspan class="cls-5" x="94.74" y="0">oz</tspan><tspan x="111.29" y="0">ess</tspan></text>
      <text class="cls-7" transform="translate(874.07 740.68)"><tspan x="0" y="0">CM</tspan><tspan class="cls-18" x="23.78" y="0">Y</tspan><tspan x="32.96" y="0" xml:space="preserve">K      35, 46, 86, 32</tspan></text>
      <text class="cls-7" transform="translate(874.07 714.9)"><tspan class="cls-29" x="0" y="0">R</tspan><tspan x="9.3" y="0" xml:space="preserve">GB          138, 107, 46</tspan></text>
      <text class="cls-7" transform="translate(874.07 689.12)"><tspan x="0" y="0">H</tspan><tspan class="cls-10" x="11.2" y="0">e</tspan><tspan x="19.76" y="0" xml:space="preserve">x          #8A6B2E</tspan></text>
      <text class="cls-6" transform="translate(874.07 663.35)"><tspan class="cls-12" x="0" y="0">P</tspan><tspan x="9.58" y="0">ommel_B</tspan><tspan class="cls-8" x="85.12" y="0">r</tspan><tspan x="91.11" y="0">on</tspan><tspan class="cls-39" x="111.98" y="0">z</tspan><tspan x="119.94" y="0">e</tspan></text>
      <rect class="cls-45" x="874.08" y="465.72" width="171.85" height="171.85"/>
    </g>
    <g>
      <rect class="cls-9" x="652.39" y="451.97" width="199.34" height="328.23"/>
      <line class="cls-2" x1="666.14" y1="668.5" x2="837.99" y2="668.5"/>
      <text class="cls-7" transform="translate(666.14 766.45)"><tspan class="cls-28" x="0" y="0">F</tspan><tspan class="cls-19" x="7.6" y="0">a</tspan><tspan class="cls-15" x="15.88" y="0">r</tspan><tspan x="21.57" y="0">be</tspan><tspan class="cls-14" x="39.95" y="0">n</tspan><tspan class="cls-3" x="49.42" y="0">t</tspan><tspan x="55.27" y="0" xml:space="preserve">yp  </tspan><tspan class="cls-36" x="80.42" y="0">P</tspan><tspan class="cls-42" x="89.29" y="0">r</tspan><tspan class="cls-18" x="94.74" y="0">oz</tspan><tspan x="111.29" y="0">ess</tspan></text>
      <text class="cls-7" transform="translate(666.14 740.68)"><tspan x="0" y="0">CM</tspan><tspan class="cls-18" x="23.78" y="0">Y</tspan><tspan x="32.96" y="0" xml:space="preserve">K      25, 38, 84, 14</tspan></text>
      <text class="cls-7" transform="translate(666.14 714.9)"><tspan class="cls-29" x="0" y="0">R</tspan><tspan x="9.3" y="0" xml:space="preserve">GB          181, 142, 58</tspan></text>
      <text class="cls-7" transform="translate(666.14 689.12)"><tspan x="0" y="0">H</tspan><tspan class="cls-10" x="11.2" y="0">e</tspan><tspan x="19.76" y="0" xml:space="preserve">x          #B58E3A</tspan></text>
      <text class="cls-6" transform="translate(666.14 663.35)"><tspan x="0" y="0">Gua</tspan><tspan class="cls-17" x="31.74" y="0">r</tspan><tspan class="cls-48" x="37.73" y="0">d_B</tspan><tspan class="cls-40" x="68.09" y="0">r</tspan><tspan x="74.18" y="0">ass</tspan></text>
      <rect class="cls-31" x="666.14" y="465.72" width="171.85" height="171.85"/>
    </g>
    <g>
      <rect class="cls-9" x="444.46" y="451.97" width="199.34" height="328.23"/>
      <line class="cls-2" x1="458.2" y1="668.5" x2="630.05" y2="668.5"/>
      <text class="cls-7" transform="translate(458.2 766.45)"><tspan class="cls-28" x="0" y="0">F</tspan><tspan class="cls-19" x="7.6" y="0">a</tspan><tspan class="cls-15" x="15.88" y="0">r</tspan><tspan x="21.57" y="0">be</tspan><tspan class="cls-14" x="39.95" y="0">n</tspan><tspan class="cls-3" x="49.42" y="0">t</tspan><tspan x="55.27" y="0" xml:space="preserve">yp  </tspan><tspan class="cls-36" x="80.42" y="0">P</tspan><tspan class="cls-42" x="89.29" y="0">r</tspan><tspan class="cls-18" x="94.74" y="0">oz</tspan><tspan x="111.29" y="0">ess</tspan></text>
      <text class="cls-7" transform="translate(458.2 740.68)"><tspan x="0" y="0">CM</tspan><tspan class="cls-18" x="23.78" y="0">Y</tspan><tspan x="32.96" y="0" xml:space="preserve">K      12, 5, 4, 0</tspan></text>
      <text class="cls-7" transform="translate(458.2 714.9)"><tspan class="cls-29" x="0" y="0">R</tspan><tspan x="9.3" y="0" xml:space="preserve">GB          230, 236, 241</tspan></text>
      <text class="cls-7" transform="translate(458.2 689.12)"><tspan x="0" y="0">H</tspan><tspan class="cls-10" x="11.2" y="0">e</tspan><tspan x="19.76" y="0" xml:space="preserve">x          #E6ECF1</tspan></text>
      <text class="cls-6" transform="translate(458.2 663.35)"><tspan class="cls-4" x="0" y="0">E</tspan><tspan x="9.22" y="0">dge_Gli</tspan><tspan class="cls-4" x="70.47" y="0">n</tspan><tspan x="80.89" y="0">t</tspan></text>
      <rect class="cls-24" x="458.2" y="465.72" width="171.85" height="171.85"/>
    </g>
    <g>
      <rect class="cls-9" x="236.52" y="451.97" width="199.34" height="328.23"/>
      <line class="cls-2" x1="250.27" y1="668.5" x2="422.12" y2="668.5"/>
      <text class="cls-7" transform="translate(250.27 766.45)"><tspan class="cls-28" x="0" y="0">F</tspan><tspan class="cls-19" x="7.6" y="0">a</tspan><tspan class="cls-15" x="15.88" y="0">r</tspan><tspan x="21.57" y="0">be</tspan><tspan class="cls-14" x="39.95" y="0">n</tspan><tspan class="cls-3" x="49.42" y="0">t</tspan><tspan x="55.27" y="0" xml:space="preserve">yp  </tspan><tspan class="cls-36" x="80.42" y="0">P</tspan><tspan class="cls-42" x="89.29" y="0">r</tspan><tspan class="cls-18" x="94.74" y="0">oz</tspan><tspan x="111.29" y="0">ess</tspan></text>
      <text class="cls-7" transform="translate(250.27 740.68)"><tspan x="0" y="0">CM</tspan><tspan class="cls-18" x="23.78" y="0">Y</tspan><tspan x="32.96" y="0" xml:space="preserve">K      60, 41, 34, 18</tspan></text>
      <text class="cls-7" transform="translate(250.27 714.9)"><tspan class="cls-29" x="0" y="0">R</tspan><tspan x="9.3" y="0" xml:space="preserve">GB          107, 122, 134</tspan></text>
      <text class="cls-7" transform="translate(250.27 689.12)"><tspan x="0" y="0">H</tspan><tspan class="cls-10" x="11.2" y="0">e</tspan><tspan x="19.76" y="0" xml:space="preserve">x          #6B7A86</tspan></text>
      <text class="cls-6" transform="translate(250.27 663.35)"><tspan class="cls-34" x="0" y="0">S</tspan><tspan class="cls-49" x="9.26" y="0">t</tspan><tspan x="15.41" y="0">eel_Shad</tspan><tspan class="cls-13" x="87.84" y="0">o</tspan><tspan x="98.09" y="0">w</tspan></text>
      <rect class="cls-33" x="250.27" y="465.72" width="171.85" height="171.85"/>
    </g>
    <g>
      <rect class="cls-9" x="28.59" y="451.97" width="199.34" height="328.23"/>
      <line class="cls-2" x1="42.33" y1="668.5" x2="214.18" y2="668.5"/>
      <text class="cls-7" transform="translate(42.33 766.45)"><tspan class="cls-28" x="0" y="0">F</tspan><tspan class="cls-19" x="7.6" y="0">a</tspan><tspan class="cls-15" x="15.88" y="0">r</tspan><tspan x="21.57" y="0">be</tspan><tspan class="cls-14" x="39.95" y="0">n</tspan><tspan class="cls-3" x="49.42" y="0">t</tspan><tspan x="55.27" y="0" xml:space="preserve">yp  </tspan><tspan class="cls-36" x="80.42" y="0">P</tspan><tspan class="cls-42" x="89.29" y="0">r</tspan><tspan class="cls-18" x="94.74" y="0">oz</tspan><tspan x="111.29" y="0">ess</tspan></text>
      <text class="cls-7" transform="translate(42.33 740.68)"><tspan x="0" y="0">CM</tspan><tspan class="cls-18" x="23.78" y="0">Y</tspan><tspan x="32.96" y="0" xml:space="preserve">K      32, 19, 18, 1</tspan></text>
      <text class="cls-7" transform="translate(42.33 714.9)"><tspan class="cls-29" x="0" y="0">R</tspan><tspan x="9.3" y="0" xml:space="preserve">GB          185, 194, 201</tspan></text>
      <text class="cls-7" transform="translate(42.33 689.12)"><tspan x="0" y="0">H</tspan><tspan class="cls-10" x="11.2" y="0">e</tspan><tspan x="19.76" y="0" xml:space="preserve">x          #B9C2C9</tspan></text>
      <text class="cls-6" transform="translate(42.33 663.35)"><tspan x="0" y="0">Blade_</tspan><tspan class="cls-34" x="53.4" y="0">S</tspan><tspan class="cls-49" x="62.66" y="0">t</tspan><tspan x="68.81" y="0">eel</tspan></text>
      <rect class="cls-46" x="42.33" y="465.72" width="171.85" height="171.85"/>
    </g>
  </g>
</svg>