<?xml version="1.0" encoding="UTF-8" standalone="no"?>
<!-- Created with Inkscape (http://www.inkscape.org/) -->

<svg
   version="1.1"
   id="svg975"
   xml:space="preserve"
   width="32"
   height="32"
   viewBox="0 0 32 32"
   xmlns="http://www.w3.org/2000/svg"
   xmlns:svg="http://www.w3.org/2000/svg"><defs
     id="defs979"><clipPath
       clipPathUnits="userSpaceOnUse"
       id="clipPath989"><path
         d="M 0,24 H 24 V 0 H 0 Z"
         id="path987" /></clipPath></defs><g
     id="g981"
     transform="matrix(1.3333333,0,0,-1.3333333,0,32)"><g
       id="g983"><g
         id="g985"
         clip-path="url(#clipPath989)"><g
           id="g991"
           transform="translate(18.0103,20.0039)"><path
             d="m 0,0 c -1.66,1.66 -3.835,2.489 -6.01,2.489 -2.176,0 -4.351,-0.829 -6.011,-2.489 -3.319,-3.319 -3.319,-8.701 0,-12.021 L -6.01,-17.899 0,-12.021 C 3.32,-8.701 3.32,-3.319 0,0 Z"
             style="fill:none;stroke:#000000;stroke-width:3;stroke-linecap:butt;stroke-linejoin:miter;stroke-miterlimit:4;stroke-dasharray:none;stroke-opacity:1"
             id="path993" /></g><g
           id="g995"
           transform="translate(15.4106,15.7822)"><path
             d="m 0,0 -2.5,1.91 c -0.538,0.41 -1.284,0.41 -1.821,0 L -6.821,0 c -0.372,-0.283 -0.59,-0.725 -0.59,-1.191 v -3.591 h 3 v 2 h 2 v -2 h 3 v 3.591 C 0.589,-0.725 0.372,-0.283 0,0"
             style="fill:#000000;fill-opacity:1;fill-rule:nonzero;stroke:none"
             id="path997" /></g></g></g></g></svg>
