<?xml version="1.0" encoding="UTF-8"?>
<svg id="Farbfeldinformationen-Ebene" xmlns="http://www.w3.org/2000/svg" viewBox="0 0 1920 1080">
  <defs>
    <style>
      .cls-1 {
        letter-spacing: 0em;
      }

      .cls-2 {
        letter-spacing: -.03em;
      }

      .cls-3 {
        fill: none;
        stroke: #000;
        stroke-miterlimit: 10;
      }

      .cls-4 {
        font-size: 16.71px;
      }

      .cls-4, .cls-5 {
        font-family: MyriadPro-Regular, 'Myriad Pro';
      }

      .cls-6 {
        letter-spacing: 0em;
      }

      .cls-7 {
        fill: #0e6650;
      }

      .cls-8 {
        fill: #fff;
      }

      .cls-9 {
        letter-spacing: 0em;
      }

      .cls-10 {
        letter-spacing: .02em;
      }

      .cls-11 {
        fill: #f4f2f3;
      }

      .cls-12 {
        letter-spacing: 0em;
      }

      .cls-13 {
        letter-spacing: 0em;
      }

      .cls-14 {
        letter-spacing: 0em;
      }

      .cls-15 {
        letter-spacing: 0em;
      }

      .cls-16 {
        letter-spacing: 0em;
      }

      .cls-17 {
        letter-spacing: 0em;
      }

      .cls-18 {
        fill: #2e2c2f;
      }

      .cls-19 {
        letter-spacing: -.01em;
      }

      .cls-20 {
        letter-spacing: 0em;
      }

      .cls-21 {
        fill: #9be1a4;
      }

      .cls-22 {
        letter-spacing: 0em;
      }

      .cls-23 {
        letter-spacing: 0em;
      }

      .cls-5 {
        font-size: 18.38px;
      }

      .cls-24 {
        fill: #e3cdb9;
      }

      .cls-25 {
        letter-spacing: 0em;
      }

      .cls-26 {
        letter-spacing: .01em;
      }

      .cls-27 {
        letter-spacing: 0em;
      }

      .cls-28 {
        letter-spacing: 0em;
      }

      .cls-29 {
        letter-spacing: -.01em;
      }

      .cls-30 {
        letter-spacing: 0em;
      }
    </style>
  </defs>
  <g>
    <rect class="cls-8" x="1534.89" y="284.31" width="360.98" height="511.39"/>
    <line class="cls-3" x1="1548.26" y1="662" x2="1882.5" y2="662"/>
    <text class="cls-4" transform="translate(1548.26 782.32)"><tspan x="0" y="0">Druckfa</tspan><tspan class="cls-28" x="54.06" y="0">r</tspan><tspan x="59.59" y="0">benp</tspan><tspan class="cls-9" x="96.26" y="0">r</tspan><tspan class="cls-16" x="101.56" y="0">oz</tspan><tspan x="117.65" y="0">ess</tspan></text>
    <text class="cls-4" transform="translate(1548.26 757.26)"><tspan x="0" y="0">CM</tspan><tspan class="cls-15" x="23.13" y="0">Y</tspan><tspan x="32.05" y="0" xml:space="preserve">K      72, 64, 56, 68</tspan></text>
    <text class="cls-4" transform="translate(1548.26 732.19)"><tspan x="0" y="0" xml:space="preserve">HSB          280, 6%, 18%</tspan></text>
    <text class="cls-4" transform="translate(1548.26 707.12)"><tspan class="cls-23" x="0" y="0">R</tspan><tspan x="9.04" y="0" xml:space="preserve">GB          46, 44, 47</tspan></text>
    <text class="cls-4" transform="translate(1548.26 682.05)"><tspan x="0" y="0">H</tspan><tspan class="cls-6" x="10.9" y="0">e</tspan><tspan class="cls-1" x="19.22" y="0" xml:space="preserve">x          #2E2C2F</tspan></text>
    <text class="cls-5" transform="translate(1548.26 656.98)"><tspan class="cls-20" x="0" y="0">S</tspan><tspan x="9.17" y="0">chie</tspan><tspan class="cls-29" x="41.12" y="0">f</tspan><tspan x="46.25" y="0">e</tspan><tspan class="cls-13" x="55.46" y="0">r</tspan><tspan class="cls-12" x="61.33" y="0">g</tspan><tspan class="cls-17" x="71.49" y="0">r</tspan><tspan class="cls-14" x="77.41" y="0">au </tspan></text>
    <rect class="cls-18" x="1548.26" y="297.68" width="334.24" height="334.24"/>
  </g>
  <g>
    <rect class="cls-8" x="1157.2" y="284.31" width="360.98" height="511.39"/>
    <line class="cls-3" x1="1170.57" y1="662" x2="1504.81" y2="662"/>
    <text class="cls-4" transform="translate(1170.57 782.32)"><tspan x="0" y="0">Druckfa</tspan><tspan class="cls-28" x="54.06" y="0">r</tspan><tspan x="59.59" y="0">benp</tspan><tspan class="cls-9" x="96.26" y="0">r</tspan><tspan class="cls-16" x="101.56" y="0">oz</tspan><tspan x="117.65" y="0">ess</tspan></text>
    <text class="cls-4" transform="translate(1170.57 757.26)"><tspan x="0" y="0">CM</tspan><tspan class="cls-15" x="23.13" y="0">Y</tspan><tspan x="32.05" y="0" xml:space="preserve">K      5, 5, 4, 0</tspan></text>
    <text class="cls-4" transform="translate(1170.57 732.19)"><tspan x="0" y="0" xml:space="preserve">HSB          330, 1%, 96%</tspan></text>
    <text class="cls-4" transform="translate(1170.57 707.12)"><tspan class="cls-23" x="0" y="0">R</tspan><tspan x="9.04" y="0" xml:space="preserve">GB          244, 242, 243</tspan></text>
    <text class="cls-4" transform="translate(1170.57 682.05)"><tspan x="0" y="0">H</tspan><tspan class="cls-6" x="10.9" y="0">e</tspan><tspan class="cls-1" x="19.22" y="0" xml:space="preserve">x          #F4F2F3</tspan></text>
    <text class="cls-5" transform="translate(1170.57 656.98)"><tspan class="cls-27" x="0" y="0">A</tspan><tspan x="11.2" y="0">labas</tspan><tspan class="cls-22" x="50.99" y="0">t</tspan><tspan x="56.97" y="0">e</tspan><tspan class="cls-10" x="66.18" y="0">r</tspan><tspan class="cls-19" x="72.65" y="0">w</tspan><tspan x="86" y="0">eiß </tspan></text>
    <rect class="cls-11" x="1170.57" y="297.68" width="334.24" height="334.24"/>
  </g>
  <g>
    <rect class="cls-8" x="779.51" y="284.31" width="360.98" height="511.39"/>
    <line class="cls-3" x1="792.88" y1="662" x2="1127.12" y2="662"/>
    <text class="cls-4" transform="translate(792.88 782.32)"><tspan x="0" y="0">Druckfa</tspan><tspan class="cls-28" x="54.06" y="0">r</tspan><tspan x="59.59" y="0">benp</tspan><tspan class="cls-9" x="96.26" y="0">r</tspan><tspan class="cls-16" x="101.56" y="0">oz</tspan><tspan x="117.65" y="0">ess</tspan></text>
    <text class="cls-4" transform="translate(792.88 757.26)"><tspan x="0" y="0">CM</tspan><tspan class="cls-15" x="23.13" y="0">Y</tspan><tspan x="32.05" y="0" xml:space="preserve">K      12, 21, 28, 1</tspan></text>
    <text class="cls-4" transform="translate(792.88 732.19)"><tspan x="0" y="0" xml:space="preserve">HSB          29, 19%, 89%</tspan></text>
    <text class="cls-4" transform="translate(792.88 707.12)"><tspan class="cls-23" x="0" y="0">R</tspan><tspan x="9.04" y="0" xml:space="preserve">GB          227, 205, 185</tspan></text>
    <text class="cls-4" transform="translate(792.88 682.05)"><tspan x="0" y="0">H</tspan><tspan class="cls-6" x="10.9" y="0">e</tspan><tspan class="cls-1" x="19.22" y="0" xml:space="preserve">x          #E3CDB9</tspan></text>
    <text class="cls-5" transform="translate(792.88 656.98)"><tspan class="cls-30" x="0" y="0">S</tspan><tspan class="cls-14" x="9.12" y="0">andbeige</tspan></text>
    <rect class="cls-24" x="792.88" y="297.68" width="334.24" height="334.24"/>
  </g>
  <g>
    <rect class="cls-8" x="401.82" y="284.31" width="360.98" height="511.39"/>
    <line class="cls-3" x1="415.19" y1="662" x2="749.43" y2="662"/>
    <text class="cls-4" transform="translate(415.19 782.32)"><tspan x="0" y="0">Druckfa</tspan><tspan class="cls-28" x="54.06" y="0">r</tspan><tspan x="59.59" y="0">benp</tspan><tspan class="cls-9" x="96.26" y="0">r</tspan><tspan class="cls-16" x="101.56" y="0">oz</tspan><tspan x="117.65" y="0">ess</tspan></text>
    <text class="cls-4" transform="translate(415.19 757.26)"><tspan x="0" y="0">CM</tspan><tspan class="cls-15" x="23.13" y="0">Y</tspan><tspan x="32.05" y="0" xml:space="preserve">K      44, 0, 47, 0</tspan></text>
    <text class="cls-4" transform="translate(415.19 732.19)"><tspan x="0" y="0" xml:space="preserve">HSB          128, 31%, 88%</tspan></text>
    <text class="cls-4" transform="translate(415.19 707.12)"><tspan class="cls-23" x="0" y="0">R</tspan><tspan x="9.04" y="0" xml:space="preserve">GB          155, 225, 164</tspan></text>
    <text class="cls-4" transform="translate(415.19 682.05)"><tspan x="0" y="0">H</tspan><tspan class="cls-6" x="10.9" y="0">e</tspan><tspan class="cls-1" x="19.22" y="0" xml:space="preserve">x          #9BE1A4</tspan></text>
    <text class="cls-5" transform="translate(415.19 656.98)"><tspan class="cls-2" x="0" y="0">F</tspan><tspan x="8.48" y="0">rühlingshauch </tspan></text>
    <rect class="cls-21" x="415.19" y="297.68" width="334.24" height="334.24"/>
  </g>
  <g>
    <rect class="cls-8" x="24.13" y="284.31" width="360.98" height="511.39"/>
    <line class="cls-3" x1="37.5" y1="662" x2="371.74" y2="662"/>
    <text class="cls-4" transform="translate(37.5 782.32)"><tspan x="0" y="0">Druckfa</tspan><tspan class="cls-28" x="54.06" y="0">r</tspan><tspan x="59.59" y="0">benp</tspan><tspan class="cls-9" x="96.26" y="0">r</tspan><tspan class="cls-16" x="101.56" y="0">oz</tspan><tspan x="117.65" y="0">ess</tspan></text>
    <text class="cls-4" transform="translate(37.5 757.26)"><tspan x="0" y="0">CM</tspan><tspan class="cls-15" x="23.13" y="0">Y</tspan><tspan x="32.05" y="0" xml:space="preserve">K      87, 34, 71, 27</tspan></text>
    <text class="cls-4" transform="translate(37.5 732.19)"><tspan x="0" y="0" xml:space="preserve">HSB          165, 86%, 40%</tspan></text>
    <text class="cls-4" transform="translate(37.5 707.12)"><tspan class="cls-23" x="0" y="0">R</tspan><tspan x="9.04" y="0" xml:space="preserve">GB          14, 102, 80</tspan></text>
    <text class="cls-4" transform="translate(37.5 682.05)"><tspan x="0" y="0">H</tspan><tspan class="cls-6" x="10.9" y="0">e</tspan><tspan class="cls-1" x="19.22" y="0" xml:space="preserve">x          #0E6650</tspan></text>
    <text class="cls-5" transform="translate(37.5 656.98)"><tspan class="cls-25" x="0" y="0">M</tspan><tspan x="14.89" y="0">oosach</tspan><tspan class="cls-26" x="69.65" y="0">-</tspan><tspan x="75.55" y="0">Grün</tspan></text>
    <rect class="cls-7" x="37.5" y="297.68" width="334.24" height="334.24"/>
  </g>
</svg>