<?xml version="1.0" encoding="UTF-8"?>
<svg id="Farbfeldinformationen-Ebene" xmlns="http://www.w3.org/2000/svg" viewBox="0 0 1920 1080">
  <defs>
    <style>
      .cls-1 {
        letter-spacing: -.01em;
      }

      .cls-2 {
        fill: none;
        stroke: #000;
        stroke-miterlimit: 10;
      }

      .cls-3 {
        letter-spacing: -.01em;
      }

      .cls-4 {
        letter-spacing: -.01em;
      }

      .cls-5 {
        letter-spacing: 0em;
      }

      .cls-6 {
        fill: #86a08e;
      }

      .cls-7 {
        fill: #fff;
      }

      .cls-8 {
        letter-spacing: 0em;
      }

      .cls-9 {
        letter-spacing: -.06em;
      }

      .cls-10 {
        letter-spacing: -.05em;
      }

      .cls-11 {
        letter-spacing: 0em;
      }

      .cls-12 {
        letter-spacing: -.01em;
      }

      .cls-13 {
        fill: #7a958e;
      }

      .cls-14 {
        fill: #b9aea5;
      }

      .cls-15 {
        letter-spacing: 0em;
      }

      .cls-16 {
        fill: #5c5149;
      }

      .cls-17 {
        letter-spacing: -.02em;
      }

      .cls-18 {
        fill: #a6d8af;
      }

      .cls-19 {
        letter-spacing: 0em;
      }

      .cls-20 {
        letter-spacing: 0em;
      }

      .cls-21 {
        letter-spacing: 0em;
      }

      .cls-22 {
        fill: #c7b5a3;
      }

      .cls-23 {
        letter-spacing: 0em;
      }

      .cls-24 {
        font-size: 16.53px;
      }

      .cls-24, .cls-25 {
        font-family: MyriadPro-Regular, 'Myriad Pro';
      }

      .cls-25 {
        font-size: 18.18px;
      }

      .cls-26 {
        fill: #387e6a;
      }

      .cls-27 {
        letter-spacing: 0em;
      }

      .cls-28 {
        letter-spacing: 0em;
      }

      .cls-29 {
        letter-spacing: 0em;
      }

      .cls-30 {
        letter-spacing: 0em;
      }

      .cls-31 {
        letter-spacing: 0em;
      }

      .cls-32 {
        letter-spacing: 0em;
      }

      .cls-33 {
        letter-spacing: 0em;
      }

      .cls-34 {
        letter-spacing: 0em;
      }

      .cls-35 {
        letter-spacing: 0em;
      }

      .cls-36 {
        fill: #3f6355;
      }

      .cls-37 {
        letter-spacing: 0em;
      }

      .cls-38 {
        fill: #f2ede9;
      }

      .cls-39 {
        letter-spacing: -.01em;
      }

      .cls-40 {
        fill: #8aa491;
      }

      .cls-41 {
        letter-spacing: .02em;
      }

      .cls-42 {
        letter-spacing: 0em;
      }
    </style>
  </defs>
  <g>
    <g>
      <rect class="cls-7" x="1528.51" y="24.4" width="356.97" height="505.71"/>
      <line class="cls-2" x1="1541.73" y1="397.9" x2="1872.27" y2="397.9"/>
      <text class="cls-24" transform="translate(1541.73 516.89)"><tspan x="0" y="0">Druckfa</tspan><tspan class="cls-19" x="53.46" y="0">r</tspan><tspan x="58.93" y="0">benp</tspan><tspan class="cls-1" x="95.19" y="0">r</tspan><tspan class="cls-15" x="100.43" y="0">oz</tspan><tspan x="116.35" y="0">ess</tspan></text>
      <text class="cls-24" transform="translate(1541.73 492.1)"><tspan x="0" y="0">CM</tspan><tspan class="cls-15" x="22.87" y="0">Y</tspan><tspan class="cls-27" x="31.7" y="0" xml:space="preserve">K      52, 51, 55, 48</tspan></text>
      <text class="cls-24" transform="translate(1541.73 467.31)"><tspan x="0" y="0" xml:space="preserve">HSB          25, 21%, 36%</tspan></text>
      <text class="cls-24" transform="translate(1541.73 442.52)"><tspan class="cls-35" x="0" y="0">R</tspan><tspan x="8.94" y="0" xml:space="preserve">GB          92, 81, 73</tspan></text>
      <text class="cls-24" transform="translate(1541.73 417.73)"><tspan x="0" y="0">H</tspan><tspan class="cls-28" x="10.78" y="0">e</tspan><tspan x="19.01" y="0" xml:space="preserve">x          #5C5149</tspan></text>
      <text class="cls-25" transform="translate(1541.73 392.94)"><tspan class="cls-20" x="0" y="0">K</tspan><tspan x="10.03" y="0">ieselb</tspan><tspan class="cls-33" x="54.34" y="0">r</tspan><tspan x="60.19" y="0">aun </tspan></text>
      <rect class="cls-16" x="1541.73" y="37.62" width="330.53" height="330.53"/>
    </g>
    <g>
      <rect class="cls-7" x="1155.01" y="24.4" width="356.97" height="505.71"/>
      <line class="cls-2" x1="1168.23" y1="397.9" x2="1498.77" y2="397.9"/>
      <text class="cls-24" transform="translate(1168.23 516.89)"><tspan x="0" y="0">Druckfa</tspan><tspan class="cls-19" x="53.46" y="0">r</tspan><tspan x="58.93" y="0">benp</tspan><tspan class="cls-1" x="95.19" y="0">r</tspan><tspan class="cls-15" x="100.43" y="0">oz</tspan><tspan x="116.35" y="0">ess</tspan></text>
      <text class="cls-24" transform="translate(1168.23 492.1)"><tspan x="0" y="0">CM</tspan><tspan class="cls-15" x="22.87" y="0">Y</tspan><tspan class="cls-27" x="31.7" y="0" xml:space="preserve">K      6, 7, 9, 0</tspan></text>
      <text class="cls-24" transform="translate(1168.23 467.31)"><tspan x="0" y="0" xml:space="preserve">HSB          27, 4%, 95%</tspan></text>
      <text class="cls-24" transform="translate(1168.23 442.52)"><tspan class="cls-35" x="0" y="0">R</tspan><tspan x="8.94" y="0" xml:space="preserve">GB          242, 237, 233</tspan></text>
      <text class="cls-24" transform="translate(1168.23 417.73)"><tspan x="0" y="0">H</tspan><tspan class="cls-28" x="10.78" y="0">e</tspan><tspan x="19.01" y="0" xml:space="preserve">x          #F2EDE9</tspan></text>
      <text class="cls-25" transform="translate(1168.23 392.94)"><tspan class="cls-8" x="0" y="0">S</tspan><tspan x="9.07" y="0">eide</tspan><tspan class="cls-12" x="41.79" y="0">n</tspan><tspan class="cls-42" x="51.65" y="0">w</tspan><tspan x="64.84" y="0">eiß </tspan></text>
      <rect class="cls-38" x="1168.23" y="37.62" width="330.53" height="330.53"/>
    </g>
    <g>
      <rect class="cls-7" x="781.51" y="24.4" width="356.97" height="505.71"/>
      <line class="cls-2" x1="794.73" y1="397.9" x2="1125.27" y2="397.9"/>
      <text class="cls-24" transform="translate(794.73 516.89)"><tspan x="0" y="0">Druckfa</tspan><tspan class="cls-19" x="53.46" y="0">r</tspan><tspan x="58.93" y="0">benp</tspan><tspan class="cls-1" x="95.19" y="0">r</tspan><tspan class="cls-15" x="100.43" y="0">oz</tspan><tspan x="116.35" y="0">ess</tspan></text>
      <text class="cls-24" transform="translate(794.73 492.1)"><tspan x="0" y="0">CM</tspan><tspan class="cls-15" x="22.87" y="0">Y</tspan><tspan class="cls-27" x="31.7" y="0" xml:space="preserve">K      23, 26, 34, 5</tspan></text>
      <text class="cls-24" transform="translate(794.73 467.31)"><tspan x="0" y="0" xml:space="preserve">HSB          30, 18%, 78%</tspan></text>
      <text class="cls-24" transform="translate(794.73 442.52)"><tspan class="cls-35" x="0" y="0">R</tspan><tspan x="8.94" y="0" xml:space="preserve">GB          199, 181, 163</tspan></text>
      <text class="cls-24" transform="translate(794.73 417.73)"><tspan x="0" y="0">H</tspan><tspan class="cls-28" x="10.78" y="0">e</tspan><tspan x="19.01" y="0" xml:space="preserve">x          #C7B5A3</tspan></text>
      <text class="cls-25" transform="translate(794.73 392.94)"><tspan class="cls-9" x="0" y="0">T</tspan><tspan x="7.87" y="0">aupe</tspan></text>
      <rect class="cls-22" x="794.73" y="37.62" width="330.53" height="330.53"/>
    </g>
    <g>
      <rect class="cls-7" x="408.01" y="24.4" width="356.97" height="505.71"/>
      <line class="cls-2" x1="421.23" y1="397.9" x2="751.77" y2="397.9"/>
      <text class="cls-24" transform="translate(421.23 516.89)"><tspan x="0" y="0">Druckfa</tspan><tspan class="cls-19" x="53.46" y="0">r</tspan><tspan x="58.93" y="0">benp</tspan><tspan class="cls-1" x="95.19" y="0">r</tspan><tspan class="cls-15" x="100.43" y="0">oz</tspan><tspan x="116.35" y="0">ess</tspan></text>
      <text class="cls-24" transform="translate(421.23 492.1)"><tspan x="0" y="0">CM</tspan><tspan class="cls-15" x="22.87" y="0">Y</tspan><tspan class="cls-27" x="31.7" y="0" xml:space="preserve">K      40, 0, 40, 0</tspan></text>
      <text class="cls-24" transform="translate(421.23 467.31)"><tspan x="0" y="0" xml:space="preserve">HSB          131, 23%, 85%</tspan></text>
      <text class="cls-24" transform="translate(421.23 442.52)"><tspan class="cls-35" x="0" y="0">R</tspan><tspan x="8.94" y="0" xml:space="preserve">GB          166, 216, 175</tspan></text>
      <text class="cls-24" transform="translate(421.23 417.73)"><tspan x="0" y="0">H</tspan><tspan class="cls-28" x="10.78" y="0">e</tspan><tspan x="19.01" y="0" xml:space="preserve">x          #A6D8AF</tspan></text>
      <text class="cls-25" transform="translate(421.23 392.94)"><tspan class="cls-17" x="0" y="0">P</tspan><tspan x="9.38" y="0">istazien</tspan><tspan class="cls-31" x="66.84" y="0">g</tspan><tspan class="cls-30" x="76.9" y="0">rün </tspan></text>
      <rect class="cls-18" x="421.23" y="37.62" width="330.53" height="330.53"/>
    </g>
    <g>
      <rect class="cls-7" x="34.51" y="24.4" width="356.97" height="505.71"/>
      <line class="cls-2" x1="47.73" y1="397.9" x2="378.27" y2="397.9"/>
      <text class="cls-24" transform="translate(47.73 516.89)"><tspan x="0" y="0">Druckfa</tspan><tspan class="cls-19" x="53.46" y="0">r</tspan><tspan x="58.93" y="0">benp</tspan><tspan class="cls-1" x="95.19" y="0">r</tspan><tspan class="cls-15" x="100.43" y="0">oz</tspan><tspan x="116.35" y="0">ess</tspan></text>
      <text class="cls-24" transform="translate(47.73 492.1)"><tspan x="0" y="0">CM</tspan><tspan class="cls-15" x="22.87" y="0">Y</tspan><tspan class="cls-27" x="31.7" y="0" xml:space="preserve">K      78, 29, 61, 14</tspan></text>
      <text class="cls-24" transform="translate(47.73 467.31)"><tspan x="0" y="0" xml:space="preserve">HSB          163, 56%, 49%</tspan></text>
      <text class="cls-24" transform="translate(47.73 442.52)"><tspan class="cls-35" x="0" y="0">R</tspan><tspan x="8.94" y="0" xml:space="preserve">GB          56, 126, 106</tspan></text>
      <text class="cls-24" transform="translate(47.73 417.73)"><tspan x="0" y="0">H</tspan><tspan class="cls-28" x="10.78" y="0">e</tspan><tspan x="19.01" y="0" xml:space="preserve">x          #387E6A</tspan></text>
      <text class="cls-25" transform="translate(47.73 392.94)"><tspan class="cls-32" x="0" y="0">D</tspan><tspan x="12.16" y="0">un</tspan><tspan class="cls-41" x="32.27" y="0">k</tspan><tspan x="41.1" y="0">ler Jade</tspan><tspan class="cls-5" x="99.15" y="0">g</tspan><tspan x="109.2" y="0">rün</tspan></text>
      <rect class="cls-26" x="47.73" y="37.62" width="330.53" height="330.53"/>
    </g>
  </g>
  <g>
    <g>
      <rect class="cls-7" x="1528.51" y="549.89" width="356.97" height="505.71"/>
      <line class="cls-2" x1="1541.73" y1="923.39" x2="1872.26" y2="923.39"/>
      <text class="cls-24" transform="translate(1541.73 1042.38)"><tspan x="0" y="0">Druckfa</tspan><tspan class="cls-21" x="53.46" y="0">r</tspan><tspan x="58.93" y="0">benp</tspan><tspan class="cls-39" x="95.19" y="0">r</tspan><tspan class="cls-15" x="100.43" y="0">oz</tspan><tspan x="116.35" y="0">ess</tspan></text>
      <text class="cls-24" transform="translate(1541.73 1017.59)"><tspan x="0" y="0">CM</tspan><tspan class="cls-15" x="22.87" y="0">Y</tspan><tspan x="31.7" y="0" xml:space="preserve">K      28, 27, 31, 7</tspan></text>
      <text class="cls-24" transform="translate(1541.73 992.8)"><tspan x="0" y="0" xml:space="preserve">HSB          27, 11%, 73%</tspan></text>
      <text class="cls-24" transform="translate(1541.73 968.01)"><tspan class="cls-23" x="0" y="0">R</tspan><tspan class="cls-37" x="8.94" y="0" xml:space="preserve">GB          185, 174, 165</tspan></text>
      <text class="cls-24" transform="translate(1541.73 943.22)"><tspan x="0" y="0">H</tspan><tspan class="cls-29" x="10.78" y="0">e</tspan><tspan x="19.01" y="0" xml:space="preserve">x          #B9AEA5</tspan></text>
      <text class="cls-25" transform="translate(1541.73 918.43)"><tspan class="cls-31" x="0" y="0">A</tspan><tspan x="11.02" y="0">sch</tspan><tspan class="cls-42" x="36.45" y="0">r</tspan><tspan x="42.21" y="0">osé</tspan></text>
      <rect class="cls-14" x="1541.73" y="563.11" width="330.53" height="330.53"/>
    </g>
    <g>
      <rect class="cls-7" x="1155.01" y="549.89" width="356.97" height="505.71"/>
      <line class="cls-2" x1="1168.23" y1="923.39" x2="1498.76" y2="923.39"/>
      <text class="cls-24" transform="translate(1168.23 1042.38)"><tspan x="0" y="0">Druckfa</tspan><tspan class="cls-21" x="53.46" y="0">r</tspan><tspan x="58.93" y="0">benp</tspan><tspan class="cls-39" x="95.19" y="0">r</tspan><tspan class="cls-15" x="100.43" y="0">oz</tspan><tspan x="116.35" y="0">ess</tspan></text>
      <text class="cls-24" transform="translate(1168.23 1017.59)"><tspan x="0" y="0">CM</tspan><tspan class="cls-15" x="22.87" y="0">Y</tspan><tspan x="31.7" y="0" xml:space="preserve">K      51, 23, 44, 5</tspan></text>
      <text class="cls-24" transform="translate(1168.23 992.8)"><tspan x="0" y="0" xml:space="preserve">HSB          136, 16%, 64%</tspan></text>
      <text class="cls-24" transform="translate(1168.23 968.01)"><tspan class="cls-23" x="0" y="0">R</tspan><tspan class="cls-37" x="8.94" y="0" xml:space="preserve">GB          138, 164, 145</tspan></text>
      <text class="cls-24" transform="translate(1168.23 943.22)"><tspan x="0" y="0">H</tspan><tspan class="cls-29" x="10.78" y="0">e</tspan><tspan x="19.01" y="0" xml:space="preserve">x          #8AA491</tspan></text>
      <text class="cls-25" transform="translate(1168.23 918.43)"><tspan x="0" y="0">Jadewiese</tspan></text>
      <rect class="cls-40" x="1168.23" y="563.11" width="330.53" height="330.53"/>
    </g>
    <g>
      <rect class="cls-7" x="781.51" y="549.89" width="356.97" height="505.71"/>
      <line class="cls-2" x1="794.73" y1="923.39" x2="1125.26" y2="923.39"/>
      <text class="cls-24" transform="translate(794.73 1042.38)"><tspan x="0" y="0">Druckfa</tspan><tspan class="cls-21" x="53.46" y="0">r</tspan><tspan x="58.93" y="0">benp</tspan><tspan class="cls-39" x="95.19" y="0">r</tspan><tspan class="cls-15" x="100.43" y="0">oz</tspan><tspan x="116.35" y="0">ess</tspan></text>
      <text class="cls-24" transform="translate(794.73 1017.59)"><tspan x="0" y="0">CM</tspan><tspan class="cls-15" x="22.87" y="0">Y</tspan><tspan x="31.7" y="0" xml:space="preserve">K      56, 28, 41, 10</tspan></text>
      <text class="cls-24" transform="translate(794.73 992.8)"><tspan x="0" y="0" xml:space="preserve">HSB          164, 18%, 58%</tspan></text>
      <text class="cls-24" transform="translate(794.73 968.01)"><tspan class="cls-23" x="0" y="0">R</tspan><tspan class="cls-37" x="8.94" y="0" xml:space="preserve">GB          122, 149, 142</tspan></text>
      <text class="cls-24" transform="translate(794.73 943.22)"><tspan x="0" y="0">H</tspan><tspan class="cls-29" x="10.78" y="0">e</tspan><tspan x="19.01" y="0" xml:space="preserve">x          #7A958E</tspan></text>
      <text class="cls-25" transform="translate(794.73 918.43)"><tspan x="0" y="0">Nebelschilf</tspan></text>
      <rect class="cls-13" x="794.73" y="563.11" width="330.53" height="330.53"/>
    </g>
    <g>
      <rect class="cls-7" x="408.01" y="549.89" width="356.97" height="505.71"/>
      <line class="cls-2" x1="421.23" y1="923.39" x2="751.76" y2="923.39"/>
      <text class="cls-24" transform="translate(421.23 1042.38)"><tspan x="0" y="0">Druckfa</tspan><tspan class="cls-21" x="53.46" y="0">r</tspan><tspan x="58.93" y="0">benp</tspan><tspan class="cls-39" x="95.19" y="0">r</tspan><tspan class="cls-15" x="100.43" y="0">oz</tspan><tspan x="116.35" y="0">ess</tspan></text>
      <text class="cls-24" transform="translate(421.23 1017.59)"><tspan x="0" y="0">CM</tspan><tspan class="cls-15" x="22.87" y="0">Y</tspan><tspan x="31.7" y="0" xml:space="preserve">K      52, 24, 45, 6</tspan></text>
      <text class="cls-24" transform="translate(421.23 992.8)"><tspan x="0" y="0" xml:space="preserve">HSB          138, 16%, 63%</tspan></text>
      <text class="cls-24" transform="translate(421.23 968.01)"><tspan class="cls-23" x="0" y="0">R</tspan><tspan class="cls-37" x="8.94" y="0" xml:space="preserve">GB          134, 160, 142</tspan></text>
      <text class="cls-24" transform="translate(421.23 943.22)"><tspan x="0" y="0">H</tspan><tspan class="cls-29" x="10.78" y="0">e</tspan><tspan x="19.01" y="0" xml:space="preserve">x          #86A08E</tspan></text>
      <text class="cls-25" transform="translate(421.23 918.43)"><tspan class="cls-17" x="0" y="0">W</tspan><tspan x="15.09" y="0">iesensch</tspan><tspan class="cls-11" x="80.28" y="0">a</tspan><tspan x="88.97" y="0">t</tspan><tspan class="cls-31" x="94.99" y="0">t</tspan><tspan x="100.89" y="0">en</tspan></text>
      <rect class="cls-6" x="421.23" y="563.11" width="330.53" height="330.53"/>
    </g>
    <g>
      <rect class="cls-7" x="34.51" y="549.89" width="356.97" height="505.71"/>
      <line class="cls-2" x1="47.73" y1="923.39" x2="378.27" y2="923.39"/>
      <text class="cls-24" transform="translate(47.73 1042.38)"><tspan x="0" y="0">Druckfa</tspan><tspan class="cls-21" x="53.46" y="0">r</tspan><tspan x="58.93" y="0">benp</tspan><tspan class="cls-39" x="95.19" y="0">r</tspan><tspan class="cls-15" x="100.43" y="0">oz</tspan><tspan x="116.35" y="0">ess</tspan></text>
      <text class="cls-24" transform="translate(47.73 1017.59)"><tspan x="0" y="0">CM</tspan><tspan class="cls-15" x="22.87" y="0">Y</tspan><tspan x="31.7" y="0" xml:space="preserve">K      74, 39, 62, 33</tspan></text>
      <text class="cls-24" transform="translate(47.73 992.8)"><tspan x="0" y="0" xml:space="preserve">HSB          157, 36%, 39%</tspan></text>
      <text class="cls-24" transform="translate(47.73 968.01)"><tspan class="cls-23" x="0" y="0">R</tspan><tspan class="cls-37" x="8.94" y="0" xml:space="preserve">GB          63, 99, 85</tspan></text>
      <text class="cls-24" transform="translate(47.73 943.22)"><tspan x="0" y="0">H</tspan><tspan class="cls-29" x="10.78" y="0">e</tspan><tspan x="19.01" y="0" xml:space="preserve">x          #3F6355</tspan></text>
      <text class="cls-25" transform="translate(47.73 918.43)"><tspan class="cls-34" x="0" y="0">M</tspan><tspan x="14.72" y="0">oos</tspan><tspan class="cls-10" x="41.88" y="0">-</tspan><tspan class="cls-3" x="46.56" y="0">T</tspan><tspan x="55.37" y="0">ie</tspan><tspan class="cls-4" x="68.73" y="0">f</tspan><tspan class="cls-31" x="73.83" y="0">g</tspan><tspan x="83.88" y="0">rün</tspan></text>
      <rect class="cls-36" x="47.73" y="563.11" width="330.53" height="330.53"/>
    </g>
  </g>
</svg>