<?xml version="1.0" standalone="no"?>
<!DOCTYPE svg PUBLIC "-//W3C//DTD SVG 1.1//EN" "http://www.w3.org/Graphics/SVG/1.1/DTD/svg11.dtd" >
<svg xmlns="http://www.w3.org/2000/svg" xmlns:xlink="http://www.w3.org/1999/xlink" version="1.1">
<metadata></metadata>
<defs>
<font id="luxurious_scriptregular" horiz-adv-x="1093" >
<font-face units-per-em="2048" ascent="1638" descent="-410" />
<missing-glyph horiz-adv-x="327" />
<glyph unicode="&#xfb01;" horiz-adv-x="735" d="M-788 -424q23 -18 51 -27.5t69 -7.5q109 0 204 54.5t179 144.5t158 198.5t139.5 218t122.5 199.5q39 61 81 131t91 140h-114l22 28h113q96 135 211.5 250t259.5 158q35 12 94 12q25 0 49.5 -3t44.5 -11q16 -8 32.5 -20.5t24.5 -34.5q14 -6 15 -27q0 -33 -30 -59.5 t-64 -26.5q-37 0 -37 33q0 29 30.5 57.5t61.5 28.5q8 0 12 -2q-39 27 -108 26q-106 0 -195.5 -59t-160 -146.5t-128.5 -175.5h332q37 16 64 23l28 6q-45 -51 -121.5 -145.5t-154.5 -200.5q-8 -12 -36 -53t-57.5 -91.5t-43.5 -91.5q-6 -18 -7 -30q0 -33 37 -33q29 0 74 22 q51 29 96 75t97 104q6 0 6 -7q0 -8 -7.5 -22t-11.5 -23q-82 -94 -152.5 -141t-146.5 -47q-43 0 -63.5 27.5t-20.5 68.5q0 68 41 140q39 68 90.5 134t105.5 124.5t95 99.5q18 18 39 33h-301q-45 -68 -89 -141.5t-108 -174.5q-43 -68 -105.5 -159t-138 -189t-161.5 -188 t-180.5 -159t-192.5 -97q-39 -15 -96 -15q-45 0 -82 13q-16 8 -33.5 22.5t-23.5 36.5z" />
<glyph unicode="&#xfb02;" horiz-adv-x="735" d="M-788 -424q23 -18 51 -27.5t69 -7.5q109 0 204 54.5t179 144.5t158 198.5t139.5 218t122.5 199.5q39 61 81 131t91 140h-114l22 28h113q96 135 211.5 250t259.5 158q35 12 94 12q25 0 49.5 -3t44.5 -11q18 -8 34.5 -22.5t25.5 -37.5q-43 35 -123 35q-106 0 -195.5 -59 t-160 -146.5t-128.5 -175.5h215l-22 -28h-211q-45 -68 -89 -141.5t-108 -174.5q-43 -68 -105.5 -159t-138 -189t-161.5 -188t-180.5 -159t-192.5 -97q-39 -15 -96 -15q-45 0 -82 13q-16 8 -33.5 22.5t-23.5 36.5zM346 76q0 35 16.5 76t38.5 81q70 119 169.5 248t209.5 248 q66 72 156 157t196.5 156.5t217.5 98.5q25 6 58.5 11t70.5 5q29 0 58.5 -3t53.5 -13q23 -8 44.5 -24.5t29.5 -45.5q-57 43 -164 43q-109 0 -207 -48t-184 -123t-158.5 -155.5t-130.5 -144.5q-70 -86 -138.5 -175t-121.5 -166t-80 -126q-14 -25 -23 -51.5t-9 -48.5 q0 -39 34 -39q23 0 72 24q51 29 96 75t97 104q6 0 6 -7q0 -8 -7.5 -22t-11.5 -23q-82 -94 -153.5 -141t-145.5 -47q-49 0 -69.5 21.5t-20.5 54.5z" />
<glyph horiz-adv-x="0" />
<glyph horiz-adv-x="682" />
<glyph unicode="&#xd;" horiz-adv-x="327" />
<glyph unicode=" "  horiz-adv-x="327" />
<glyph unicode="&#x09;" horiz-adv-x="327" />
<glyph unicode="&#xa0;" horiz-adv-x="327" />
<glyph unicode="!" horiz-adv-x="679" d="M90 27q0 33 32 59.5t64 26.5q37 0 37 -35q0 -33 -30.5 -58.5t-65.5 -25.5q-37 0 -37 33zM225 213l443 700q20 31 52 49.5t56 18.5q43 0 37 -45q-4 -4 -36 -45t-82 -106.5t-109.5 -141.5t-117.5 -151.5t-107.5 -139t-78.5 -101.5l-30 -38h-27z" />
<glyph unicode="&#x22;" horiz-adv-x="446" d="M233 721l173 289q8 12 26.5 20t34.5 8q27 0 27 -18q0 -12 -17 -39q-16 -25 -43.5 -67t-61.5 -86t-69 -74.5t-70 -32.5zM446 721l172 289q8 12 27 20t35 8q27 0 27 -18q0 -12 -17 -39q-16 -25 -44 -67t-61.5 -86t-68.5 -74.5t-70 -32.5z" />
<glyph unicode="#" horiz-adv-x="1028" d="M27 332q0 18 18 26.5t39 8.5h213l115 243q-14 -2 -45 -4t-59.5 -4t-41.5 -2q-25 0 -41 6t-18 23q0 20 18.5 28.5t38.5 8.5h168q35 66 60.5 126t44.5 93q25 53 42 79.5t50 36.5q4 2 14 3q16 0 16 -19q0 -29 -47 -115q-27 -74 -104 -204h274q33 66 58.5 126t44.5 93 q25 53 42 79.5t52 36.5q4 2 14 3q16 0 17 -19q0 -29 -47 -115q-14 -37 -42 -90t-65 -114q92 2 165 2h87q0 -6 -17.5 -16.5t-38 -18.5t-30.5 -8q-37 -4 -188 -4l-129 -254q84 2 146 2t77 2q0 -6 -17.5 -17.5t-38 -19.5t-30.5 -8q-12 -2 -56.5 -2h-103.5 q-68 -133 -135.5 -263.5t-120.5 -232.5q-6 -14 -20.5 -32.5t-20.5 -14.5q-4 4 -4 10q0 12 6 26.5t10 26.5l228 480l-293 -7l-254 -489q-6 -14 -20.5 -32.5t-20.5 -14.5q-4 4 -4 12q0 10 5 25.5t11 25.5l223 471q-29 -2 -68.5 -6t-73.5 -6t-44 -2q-25 0 -41 6t-18 25z M356 367h287l117 251h-185.5t-91.5 -2z" />
<glyph unicode="$" horiz-adv-x="845" d="M66 78q0 6 4 22q8 20 23.5 37t41.5 27q6 2 21 2q16 0 35.5 -4t21.5 -10q-8 0 -13 -4.5t-10 -8.5h3q-33 -39 -33 -69q0 -45 49 -56q53 90 111.5 180.5t111.5 178.5h2q-35 31 -49 62.5t-14 62.5q0 53 33.5 107t70.5 87q59 45 120.5 65.5t98.5 28.5h-2l53 88h50l-58 -88 q45 4 77 -10t32 -43q0 -4 -1 -9t-3 -11q-8 -33 -35 -49.5t-45 -16.5q-16 0 -21 10q16 31 17 56q0 39 -35 45l-191 -297q16 -20 29 -29l17 -14q41 -47 40 -105q0 -70 -48 -139.5t-133 -119.5t-197 -58h2l-80 -139h-53l86 133q-47 0 -88 22.5t-41 65.5zM256 18 q55 14 111.5 53.5t92.5 95.5t27 116q-2 16 -11 31.5t-19 29.5zM475 555q0 -6 1 -13t3 -14q4 -8 11.5 -20.5t13.5 -20.5l160 246q-45 -10 -88.5 -37.5t-72 -64.5t-28.5 -76z" />
<glyph unicode="%" horiz-adv-x="1064" d="M279 459q0 51 35.5 119.5t92 134t122 109.5t124.5 44q66 0 66 -67q0 -8 -1 -16.5t-3 -18.5q25 -14 61 -14q49 0 89 25.5t74 58t66.5 55t71.5 14.5q-51 -57 -120.5 -147t-151.5 -200t-167 -222.5t-166 -215t-148 -177.5q-19 -19 -29 -19t-10 12q0 10 8 21 q74 86 156.5 197.5t164.5 227.5t156 218t127 168q-25 -18 -51.5 -24.5t-52.5 -10.5q-6 0 -11.5 -1t-11.5 -1q-39 0 -61 14q-16 -53 -53.5 -114.5t-87.5 -116.5t-105 -90t-107 -35q-41 0 -59 19.5t-18 52.5zM358 455q0 -27 23 -27q35 0 86 42t100 104.5t82 123t33 95.5 q0 31 -31 30q-27 0 -63.5 -28.5t-76.5 -74.5t-75 -97.5t-56.5 -96.5t-21.5 -71zM635 72q0 49 36 117.5t92 134t121.5 109.5t125.5 44q66 0 65 -67q0 -49 -33.5 -118t-89 -136.5t-118 -111.5t-121.5 -44q-39 0 -58.5 19.5t-19.5 52.5zM719 68q-1 -27 22 -27q35 0 86.5 42 t100.5 104.5t81.5 123t32.5 95.5q0 31 -30 30q-27 0 -64 -28.5t-77 -74.5t-74.5 -97.5t-56 -96.5t-21.5 -71z" />
<glyph unicode="&#x26;" horiz-adv-x="1314" d="M137 211q0 10 2 24.5t4 24.5q12 70 60.5 134.5t117 115.5t145.5 84t148 37q-2 10 -3 25.5t-1 35.5q0 61 37 126t99.5 119t140.5 88t160 34h19t19 -2q53 -6 94.5 -32t41.5 -71q0 -10 -4 -26q-20 -66 -81 -119t-143 -78q-8 -2 -14 -3t-10 -1q-8 0 -8 4q0 12 26 23 q66 31 113 79t61 105q4 29 -13.5 53.5t-80.5 24.5q-53 0 -120.5 -34t-139.5 -99q-43 -39 -78 -96.5t-61 -120.5q0 -2 -2 -6.5t-2 -8.5q-4 -8 -5 -18q59 2 99 -23q23 -12 18 -16q-6 -18 -47 -19q-53 0 -80.5 14.5t-32.5 35.5q-84 -14 -164.5 -76t-136 -146t-69.5 -170 q-6 -31 -6 -57q0 -49 27.5 -79.5t101.5 -30.5q63 0 129.5 29.5t128 77.5t108.5 107.5t70 116.5h-6l-66 17l-123 22l-20 -9q-21 -9 -48.5 -19.5t-54.5 -10.5q-37 0 -36 17q0 16 25.5 31.5t62.5 15.5h27.5t27.5 -4l41 30q41 25 86 41.5t92 16.5q49 -2 72.5 -22.5t23.5 -51.5 q0 -33 -14 -61h-6q10 -2 22.5 -2h24.5q66 0 136.5 20.5t119.5 62t49 105.5q0 16 -7 36.5t-26 26.5q12 4 25 5q35 0 60.5 -25t25.5 -59q0 -74 -50 -119t-119 -64.5t-126 -19.5q-33 0 -67.5 1t-75.5 7l-15 -23q-31 -49 -87 -105t-127.5 -106.5t-149.5 -82t-154 -31.5 q-102 0 -156.5 46t-54.5 128zM629 453l47 -11q18 -2 36.5 -6t37.5 -6l57 -10h4l8 29q2 6 2 16q0 18 -10 31.5t-37 13.5h-12t-12 -2q-14 -2 -33 -9t-39 -18l-23 -14q-4 -2 -11 -6t-11 -8h-4z" />
<glyph unicode="'" horiz-adv-x="366" d="M367 721l174 289q8 12 26.5 20t32.5 8q27 0 27 -18q0 -16 -17 -39q-16 -25 -42.5 -67t-60.5 -86t-69.5 -74.5t-70.5 -32.5z" />
<glyph unicode="(" horiz-adv-x="489" d="M119 -45q0 63 17.5 151.5t55 187.5t99.5 191q90 125 189.5 209t194.5 136.5t175 79t135 36.5q29 8 29 -2q0 -2 -9.5 -4t-17.5 -6q-72 -23 -176 -78t-219 -150.5t-219 -238.5q-90 -133 -136.5 -261t-61.5 -227.5t-15 -148.5v-6q0 -6 -0.5 -9t-12.5 -3q-14 0 -18 18 q-2 16 -6 49t-4 76z" />
<glyph unicode=")" horiz-adv-x="489" d="M-227 -176l16 6q2 0 3 1t3 1q76 27 172 84t198.5 154.5t196.5 244.5q72 111 109 217.5t49 196.5t12 152v30.5t-2 26.5v6q0 4 -2 7t13 3q10 0 13 -5t5 -9q8 -33 16.5 -84t8.5 -113q0 -92 -28 -206.5t-110 -241.5q-82 -129 -174 -216t-180 -141.5t-164 -81t-129 -36.5 q-27 -8 -26 4z" />
<glyph unicode="*" horiz-adv-x="616" d="M225 659q0 16 70 17q23 0 48.5 -2t51.5 -6q-20 39 -37.5 83t-17.5 70q0 4 2 11.5t8 7.5q10 0 39 -41t68 -113q92 92 137 128t51 36t6 -8q0 -10 -22.5 -43t-55 -72t-61.5 -68q41 -6 84 -11t72.5 -12t29.5 -18q0 -8 -31.5 -11t-78.5 -3h-92q29 -51 43 -100t14 -60 q0 -8 -8 -8t-41 42t-66 106q-70 -70 -123 -119t-69 -49q-6 0 -6 6q0 14 46 70.5t103 117.5q-35 6 -72.5 12.5t-64.5 15.5t-27 21z" />
<glyph unicode="+" horiz-adv-x="866" d="M266 455l33 47h225l133 186h68l-133 -186h229l-35 -47h-229l-158 -222h-67l157 222h-223z" />
<glyph unicode="," horiz-adv-x="301" d="M-59 -172q12 10 49 36.5t79 63.5t66 72q-12 -6 -29 -6q-18 0 -28 8q-12 10 -12 25q0 33 32.5 59.5t65.5 26.5t33 -33q0 -12 -4.5 -25.5t-10.5 -27.5q-27 -57 -86 -108.5t-106 -86.5q-10 0 -30.5 -8t-18.5 4z" />
<glyph unicode="-" horiz-adv-x="561" d="M207 430l35 45h383l-35 -45h-383z" />
<glyph unicode="." horiz-adv-x="301" d="M66 27q0 33 31.5 59.5t64.5 26.5q37 0 37 -35q0 -33 -31 -58.5t-66 -25.5q-37 0 -36 33z" />
<glyph unicode="/" horiz-adv-x="837" d="M4 -129l983 1294h60l-984 -1294h-59z" />
<glyph unicode="0" horiz-adv-x="530" d="M20 109q0 16 2.5 35.5t6.5 39.5q18 104 77.5 209t126.5 187q86 109 180.5 166t153.5 57q51 0 80 -25.5t29 -85.5q0 -68 -35 -158t-93.5 -184t-130 -174t-147 -130t-143.5 -50q-106 0 -107 113zM113 76q-1 -47 24 -47q35 -8 96.5 56.5t163.5 205.5q23 29 60 92t70.5 135 t50.5 125q6 25 11 45.5t5 34.5q0 47 -31 47q-27 0 -72 -43t-96 -108.5t-100 -133.5q-53 -78 -100.5 -177t-71.5 -173q-10 -37 -10 -59z" />
<glyph unicode="1" horiz-adv-x="352" d="M-12 -12q45 72 105.5 165t125 189t119.5 176t88 123q-27 -20 -57.5 -41.5t-53.5 -38.5q-29 -18 -63.5 -29.5t-59 -14.5t-24.5 3q72 37 150.5 94.5t158.5 118.5l51 37q31 23 51.5 32t36.5 11q20 0 5 -25.5t-41 -60.5q-100 -143 -180.5 -270t-151.5 -248l-49 -82 q-47 -74 -89 -101.5t-114 -37.5h-8z" />
<glyph unicode="2" horiz-adv-x="618" d="M-23 27q0 18 35 32q4 4 8.5 6.5t8.5 4.5l71 41l131 77q47 31 105.5 76t107.5 92h-2q33 35 80 91.5t83 119t36 115.5q0 27 -14.5 44t-44.5 17q-49 0 -97.5 -23.5t-85.5 -57t-57 -68.5l-4 -6q-10 -10 -23 -10q-18 0 -18 12q39 74 95.5 118t116.5 63.5t107 19.5 q63 0 102.5 -24t39.5 -81q0 -61 -40 -122.5t-92.5 -113t-88.5 -85.5l-25 -21q-98 -86 -211 -158.5t-217 -126.5q29 4 58.5 5.5t62.5 1.5q78 2 153.5 13t137.5 73l8 8q10 12 20.5 23.5t16.5 11.5q8 0 6 -23q-6 -43 -29.5 -84t-75.5 -70q-23 -12 -47 -17t-49 -5q-29 0 -55.5 5 t-54.5 11q-31 6 -64 11.5t-70 5.5q-23 0 -48 -3t-52 -12h2q-4 -2 -10 -2q-16 0 -17 15z" />
<glyph unicode="3" horiz-adv-x="704" d="M0 84q0 53 44 102.5t115.5 81t153.5 31.5q20 0 41 -6t21 -17h-31q-51 0 -114.5 -26.5t-108.5 -68.5t-45 -89q0 -39 28.5 -56.5t65.5 -17.5q80 0 154.5 39t132 105.5t84.5 150.5q12 35 12 68q0 51 -35 51q-4 0 -26 -14q-14 -8 -33 -16.5t-35 -8.5q-43 0 -43 33 q0 18 25.5 23.5t62.5 7.5l55 6q45 18 87 52t70 77t28 88q0 29 -12.5 46t-45.5 17q-49 0 -98 -23.5t-87 -58t-58 -69.5q-2 -4 -8.5 -9t-18.5 -5q-16 0 -16 12q39 74 95 118t115.5 63.5t108.5 19.5q66 0 98.5 -28t32.5 -73q0 -43 -29.5 -84t-72.5 -73.5t-88 -55t-76 -31.5 q61 0 85.5 -30.5t24.5 -71.5q0 -12 -2 -25.5t-6 -25.5q-33 -82 -111.5 -151.5t-176 -111.5t-187.5 -42q-76 0 -126 19.5t-50 76.5z" />
<glyph unicode="4" horiz-adv-x="567" d="M33 274q51 59 133 123t170 127q47 35 101.5 75t107.5 81q16 14 53 41t78 49.5t65 24.5q16 0 2 -23.5t-36 -56.5q-57 -86 -117 -180.5t-129 -208.5q31 4 63.5 7t67.5 9q0 -8 -21.5 -33.5t-48.5 -36.5h-94l-119 -198q-47 -74 -89 -101.5t-114 -35.5h-8q39 53 100.5 144 t127.5 191h-246q-8 -2 -15.5 -2h-13.5q-18 0 -18 4zM150 311l73 4q33 0 67 1t66 3l25 37q68 102 124 188.5t79 114.5q-70 -45 -151 -106t-155.5 -125t-127.5 -117z" />
<glyph unicode="5" horiz-adv-x="659" d="M0 84q0 53 44 102.5t115.5 81t153.5 31.5q20 0 41 -6t21 -17h-31q-51 0 -114.5 -26.5t-108.5 -68.5t-45 -89q0 -41 29.5 -57.5t64.5 -16.5q74 0 142.5 33t122.5 88.5t85 122t31 133.5q0 41 -21.5 75t-66.5 34q-25 0 -53.5 -4t-51.5 -13q-27 -10 -36 -10q-8 0 -9 6 q0 8 15 29q55 78 94 131t57 74q-14 4 -42.5 6t-37.5 2q-18 0 -36.5 -7t-32.5 -26q-18 0 -19 19q0 43 92 43q39 0 100.5 -10.5t100.5 -10.5q47 0 95.5 8.5t81 29t32.5 54.5q0 10 -5 21.5t-15 15.5h41q31 0 43 -17.5t12 -37.5q0 -45 -36 -70.5t-85 -35t-94 -9.5q-70 0 -144 13 l-131 -173q43 18 101 19q94 0 133 -43t39 -105q0 -82 -44 -156.5t-116 -133t-160 -92t-176 -33.5q-76 0 -126 19.5t-50 76.5z" />
<glyph unicode="6" horiz-adv-x="491" d="M27 123q0 59 27.5 137t72.5 158t94 141q76 94 160 149.5t164 80t143 24.5q31 0 52.5 -8t23.5 -25q-10 2 -21.5 2h-21.5q-96 0 -179 -46t-154 -120.5t-130 -162.5q-33 -51 -65.5 -122t-55 -136.5t-26.5 -106.5q0 -27 7 -43t27 -16q41 2 87.5 43t87 94t65.5 92 q41 66 59.5 114t18.5 81q0 57 -47 57q-31 0 -65 -16.5t-50 -32.5q-12 -10 -18 2v2q0 10 16 22q23 23 62.5 38.5t72.5 15.5q14 0 21 -2q41 -4 64.5 -36t23.5 -79q0 -35 -14.5 -78t-47.5 -88q-47 -70 -108.5 -129t-126 -96t-117.5 -37q-102 0 -102 127z" />
<glyph unicode="7" horiz-adv-x="428" d="M49 -8q74 115 169 252t204.5 269t222.5 228h-53q-51 0 -113.5 -6t-122 -26.5t-102.5 -65.5q-20 -23 -29.5 -31t-15.5 -8t-6 12q0 43 26.5 88.5t77.5 73.5q25 12 49.5 16.5t49.5 4.5q29 0 55 -4t53 -11q33 -6 66.5 -12t70.5 -6q25 0 49.5 7t34.5 13q8 4 14.5 9.5t8.5 5.5 q18 0 30 -23q6 -14 -27.5 -25.5t-82.5 -11.5h-2q-25 -25 -70 -79t-94 -121q-33 -45 -73 -109.5t-74 -124.5q-49 -78 -96.5 -151.5t-84.5 -116.5q-39 -53 -98 -53q-20 0 -37 6z" />
<glyph unicode="8" horiz-adv-x="569" d="M45 102q0 76 55.5 140.5t135 111.5t153.5 68q-2 16 -3 31.5t-1 29.5q0 43 10.5 79t30.5 81q35 66 100.5 114t149.5 48q45 0 71.5 -24.5t26.5 -71.5q0 -57 -45 -112.5t-109.5 -93.5t-123.5 -48q4 -14 11 -56.5t7 -83.5q0 -92 -47 -166.5t-126 -117.5t-175 -43 q-51 0 -86 31.5t-35 82.5zM162 94q0 -71 57 -71q55 0 95 41.5t62.5 105t22.5 131.5q0 43 -6 100q-74 -33 -131 -98t-86 -141q-14 -39 -14 -68zM485 563q0 -20 2.5 -41t4.5 -37q47 16 94 53t79.5 81.5t32.5 80.5q0 33 -19.5 49.5t-47.5 16.5q-39 0 -81 -39t-54 -86 q-10 -35 -11 -78z" />
<glyph unicode="9" horiz-adv-x="503" d="M-74 20q12 -2 23.5 -2h21.5q94 0 173 44t148.5 117t131.5 159q-39 -29 -69.5 -37t-53.5 -8q-61 0 -94 37t-33 94q0 61 29.5 125.5t80 121t111 91.5t121.5 35q119 0 133 -115q4 -57 -18.5 -132t-62.5 -151.5t-89 -138.5q-68 -90 -149.5 -151.5t-162.5 -92t-147 -30.5 q-37 0 -63.5 8t-30.5 26zM260 403q0 -33 12 -55t39 -22q47 0 87 23.5t71 62.5q47 61 72.5 144t25.5 155q0 70 -47 69q-37 0 -82 -41t-86 -102.5t-66.5 -123.5t-25.5 -110z" />
<glyph unicode=":" horiz-adv-x="436" d="M66 27q0 33 31.5 59.5t64.5 26.5q37 0 37 -35q0 -33 -31 -58.5t-66 -25.5q-37 0 -36 33zM250 424q0 33 31.5 59.5t64.5 26.5q37 0 37 -35q0 -33 -30.5 -58.5t-65.5 -25.5q-37 0 -37 33z" />
<glyph unicode=";" horiz-adv-x="436" d="M-59 -172q12 10 49 36.5t79 63.5t66 72q-12 -6 -29 -6q-18 0 -28 8q-12 10 -12 25q0 33 32.5 59.5t65.5 26.5t33 -33q0 -12 -4.5 -25.5t-10.5 -27.5q-27 -57 -86 -108.5t-106 -86.5q-10 0 -30.5 -8t-18.5 4zM250 424q0 33 31.5 59.5t64.5 26.5q37 0 37 -35 q0 -33 -30.5 -58.5t-65.5 -25.5q-37 0 -37 33z" />
<glyph unicode="&#x3c;" horiz-adv-x="542" d="M164 240q0 20 29 49l327 323q2 2 6 2q6 0 10.5 -7t-4.5 -15l-282 -334l190 -129q12 -8 13 -18q-1 -15 -17 -15q-6 0 -18 6l-244 117q-10 6 -10 21z" />
<glyph unicode="=" horiz-adv-x="620" d="M111 240l32 45h385l-34 -45h-383zM215 430l35 45h383l-35 -45h-383z" />
<glyph unicode="&#x3e;" horiz-adv-x="542" d="M165 102.5q-3 8.5 3 16.5l285 334l-193 127q-12 10 -12 20q0 12 16 12q6 0 19 -6l245 -117q10 -6 11 -18q0 -18 -31 -49l-328 -326q-2 -2 -6 -2q-6 0 -9 8.5z" />
<glyph unicode="?" horiz-adv-x="636" d="M127 27q0 4 1 10t3 12q10 23 36 43.5t50 20.5q39 0 39 -35q0 -29 -28.5 -56.5t-61.5 -27.5q-39 0 -39 33zM258 227q16 63 55 123t121 123q139 102 233.5 214t94.5 220q0 80 -74 80q-59 0 -119.5 -46t-100.5 -111.5t-40 -129.5q0 -33 13.5 -47t13.5 -18q0 -6 -15 -6 q-33 0 -50 30.5t-17 63.5q0 66 38 123t97 102t123.5 70.5t120.5 25.5h2q55 0 87.5 -39.5t32.5 -105.5q0 -86 -46 -157.5t-118.5 -132t-151.5 -114t-144 -102.5q-18 -14 -49 -45t-61 -63.5t-46 -57.5z" />
<glyph unicode="@" horiz-adv-x="1572" d="M233 170q0 18 2.5 38.5t6.5 41.5q29 127 114.5 253t204.5 218q129 104 283.5 168.5t290.5 81.5q53 6 94 6q145 0 209.5 -56.5t64.5 -146.5q0 -74 -43 -162t-123 -176t-190 -162q-76 -47 -148.5 -79.5t-107.5 -32.5q-12 0 -19 2q-43 12 -43 63q0 35 15.5 76t36.5 78 q-25 -31 -59 -69t-62 -62q-37 -35 -71 -60.5t-73 -29.5q-63 -4 -63 73q0 41 23.5 99.5t72.5 122.5q35 43 84 93t109.5 94t123 72.5t119.5 28.5q27 0 37.5 -8t14.5 -16t1 -10t-8 0q-2 0 -16 1t-20 -1q-63 -4 -146.5 -62.5t-161.5 -150.5q-70 -78 -109.5 -150t-39.5 -106 q0 -25 18 -25q10 0 32 11.5t54 39.5q53 43 104.5 103.5t100.5 124t96.5 117t92.5 81.5q55 37 76.5 41t35.5 6q-10 -10 -39.5 -48t-61.5 -80t-52 -70q-33 -45 -69 -97.5t-64.5 -100.5t-40.5 -85q-2 -6 -2 -14q0 -23 28 -23q33 0 85 23.5t81 40.5q90 57 162 140t114 173 t42 168q0 80 -54.5 132t-177.5 52q-16 0 -34.5 -1t-37.5 -3q-125 -14 -271 -82.5t-269 -181.5q-88 -82 -160 -194.5t-94 -221.5q-4 -20 -6 -40.5t-2 -39.5q0 -121 81.5 -182t210.5 -61q16 0 33 1t33 3q150 18 289 87.5t258 178.5t203 242q12 18 36 18q10 0 17.5 -5t1.5 -13 q-152 -233 -370 -373.5t-474 -169.5q-43 -6 -86 -6q-150 0 -237 68.5t-87 195.5z" />
<glyph unicode="A" horiz-adv-x="1337" d="M-119 166q0 96 76 198.5t209 163.5q115 51 240.5 75t261.5 24q96 0 190 -7.5t189 -19.5q102 113 206.5 214t208 175t205.5 96q-57 0 -141 7.5t-179.5 15.5t-191.5 8q-139 0 -261 -28.5t-187 -118.5q-18 -27 -26.5 -51.5t-8.5 -47.5q0 -29 12 -51q8 -8 18.5 -17t18.5 -9 q-8 -8 -21 -9q-14 0 -27.5 7.5t-21.5 15.5q-20 23 -30.5 52.5t-10.5 58.5q0 57 27 96q59 78 148 114.5t225 36.5h33.5t33.5 -2q154 -8 301.5 -30.5t313.5 -22.5q90 0 162.5 9t95.5 34h4q25 0 24 -27q-2 -35 -35.5 -47t-74.5 -12q-33 0 -64.5 4t-52.5 6q-102 -6 -214 -76.5 t-224.5 -178t-222.5 -228.5q37 -6 74.5 -12.5t74.5 -14.5q68 84 139.5 162t139.5 143q45 45 98 86t104.5 69t89.5 28q-27 -20 -82 -74.5t-102 -106.5q-57 -63 -132 -149t-146 -178q39 -8 76.5 -16.5t76.5 -18.5q16 -2 17 -12q0 -4 -7.5 -8.5t-17.5 -2.5l-166 33 q-82 -102 -148.5 -196.5t-95.5 -149.5q-14 -27 -24 -54.5t-10 -49.5q0 -41 34 -41q23 0 62 20q59 35 105 82t87 94q8 0 9 -12q0 -18 -9 -29q-94 -111 -156.5 -150.5t-138.5 -39.5q-49 0 -70.5 23.5t-21.5 58.5t15.5 76t38.5 79q41 72 96 151t119 159q-39 6 -77 12t-79 10 q-84 -94 -166 -184t-158 -164t-157.5 -138.5t-178 -103t-217.5 -38.5q-74 0 -143.5 24.5t-115.5 74.5t-46 130zM-72 205q0 -78 68 -134.5t199 -56.5q70 0 145.5 16.5t164.5 65.5t195 146q78 72 158 156.5t162 172.5q-55 6 -111.5 10.5t-113.5 4.5q-156 0 -319 -15.5 t-314 -87.5q-117 -51 -175.5 -129t-58.5 -149z" />
<glyph unicode="B" horiz-adv-x="1349" d="M-94 -20q0 29 19.5 58.5t70.5 43.5q27 8 70 8q72 0 181 -20.5t273 -42.5q37 -4 76 -8.5t82 -4.5q27 0 53.5 2t52.5 7q133 23 242 107.5t158 215.5q16 43 16 94t-24.5 93t-90.5 42q-33 0 -61.5 -7t-56.5 -33q-6 16 -6 26q0 35 77 41q23 0 45.5 3t42.5 13q111 47 169.5 114 t82.5 155q4 16 6 29.5t2 27.5q0 70 -51 119q-78 -70 -154.5 -164t-148 -194.5t-135.5 -192.5q-49 -68 -102.5 -143.5t-110.5 -142t-118.5 -108.5t-125.5 -46q49 35 100.5 97t102.5 138t99.5 152t91.5 135q96 139 214.5 274.5t239.5 229.5q-43 23 -105.5 35t-146.5 12 q-137 0 -261 -42t-226.5 -109.5t-176 -150.5t-114.5 -165t-41 -152q0 -66 42 -110.5t134 -53.5q14 0 15 -6q0 -8 -19 -8q-121 10 -178 69.5t-57 145.5q0 92 60 196.5t175 199t276.5 153.5t364.5 59q98 0 172 -11t125 -34q72 51 142.5 80t134.5 29q37 0 73.5 -11.5t62 -38 t25.5 -77.5q-12 41 -57 66.5t-94 25.5q-57 0 -116.5 -26.5t-119.5 -73.5q51 -33 73 -78t22 -92q0 -63 -42 -134t-123 -126.5t-198 -75.5q49 0 94 -22.5t72 -65.5q16 -27 22.5 -53.5t6.5 -55.5q0 -63 -31 -125.5t-81 -114t-108 -85.5q-88 -49 -185 -67.5t-202 -18.5 q-82 0 -183 11t-206 19q-25 2 -49 3t-53 1q-88 0 -169 -17t-114 -66q-18 14 -18 43z" />
<glyph unicode="C" d="M55 803q0 66 37 109.5t93.5 70.5t121 41t120.5 18.5t89 4.5q10 0 48 -1.5t82 -4.5t77 -9t33 -14t-15 -8q-27 0 -59.5 3t-65.5 3h-49t-47 -2q-41 -2 -102.5 -9.5t-121.5 -29t-101 -63.5t-41 -113q0 -76 62.5 -118t162.5 -54q96 115 219 212t251 168.5t248 112.5t210 41 q59 0 110 -21.5t51 -88.5q0 -80 -62.5 -150t-166.5 -127t-233 -99t-266.5 -64.5t-262.5 -22.5h-16q-76 -102 -122 -210t-46 -214q0 -100 45 -152.5t106 -52.5q90 0 186.5 44t179.5 115.5t140.5 154.5t69.5 161q0 4 1 8t1 9q0 27 -16.5 44t-53.5 17q-8 0 -16 -1t-18 -3 q-57 -10 -131 -59.5t-138.5 -122t-97.5 -154.5q-8 -4 -10 -4q-10 0 -4 25q20 55 66 117.5t109.5 117.5t137.5 90t149 35q57 -2 84 -26.5t27 -65.5q0 -59 -49 -137q-39 -61 -109.5 -132t-161 -133.5t-187.5 -102.5t-189 -40q-61 0 -117.5 23.5t-92.5 75t-36 130.5 q0 115 51 228.5t135 220.5q-131 16 -215 65.5t-84 143.5zM485 621q113 0 241 23.5t251 64.5t223 96t160.5 118.5t60.5 133.5q0 47 -35.5 61.5t-76.5 14.5q-84 0 -190.5 -40t-220.5 -110t-220.5 -163t-192.5 -199z" />
<glyph unicode="D" horiz-adv-x="1497" d="M-94 -20q0 29 19.5 58.5t70.5 43.5q27 8 70 8q72 0 181 -20.5t273 -42.5q37 -4 76 -8.5t82 -4.5q27 0 53.5 2t52.5 7q72 12 170.5 49t196.5 111.5t175 196.5t106 304q4 29 6 54.5t2 49.5q0 178 -111 271q-78 -72 -152.5 -165t-145 -192.5t-134.5 -189.5 q-49 -68 -102.5 -143.5t-110.5 -142t-118.5 -108.5t-125.5 -46q49 35 100.5 97t102.5 138t99.5 152t91.5 135q96 139 211.5 271t234.5 227q-96 53 -244 53q-137 0 -261 -42t-226.5 -109.5t-176 -150.5t-114.5 -165t-41 -152q0 -66 42 -110.5t134 -53.5q14 0 15 -6 q0 -8 -19 -8q-121 10 -178 69.5t-57 145.5q0 92 60 196.5t175 199t276.5 153.5t364.5 59q82 -2 154.5 -13t134.5 -38q76 53 147.5 84t137.5 31q37 0 73.5 -11.5t62 -38t25.5 -77.5q-12 41 -57 66.5t-94 25.5q-59 0 -120.5 -28.5t-121.5 -77.5q84 -49 132 -133t48 -211 q0 -131 -50 -250t-131 -213t-172 -157.5t-171 -86.5q-80 -25 -162 -41t-168 -16q-82 0 -183 11t-206 19q-25 2 -49 3t-53 1q-88 0 -169 -17t-114 -66q-18 14 -18 43z" />
<glyph unicode="E" horiz-adv-x="956" d="M18 125q0 29 7 61q14 90 73.5 171t146.5 146.5t184 104.5t185 41q-2 10 -3 22.5t-1 22.5q-121 10 -222 47t-161.5 97.5t-60.5 144.5q0 41 14 78q29 78 93.5 104.5t127.5 26.5h21.5t21.5 -2q47 -4 103.5 -29.5t97.5 -75.5q12 -14 12 -20q0 -4 -4 -4t-20 12q-72 76 -164 82 q-8 2 -18.5 2h-22.5q-47 0 -100.5 -21.5t-77.5 -86.5q-8 -20 -12.5 -41t-4.5 -39q0 -70 51.5 -121t137.5 -82t188 -41q6 84 52.5 165t121 147.5t167.5 106.5t194 40h22.5t24.5 -2q66 -6 114 -36t48 -87q0 -16 -6 -39q-27 -86 -98.5 -148.5t-169 -101.5t-202 -58.5 t-194.5 -19.5h-25l-10 -41q9 0 18 1q68 0 115 -27q16 -10 17 -23q-10 -22 -56 -22h-4q-57 0 -86.5 18t-36.5 45q-82 -12 -162.5 -59t-148 -117t-114 -152t-58.5 -163q-2 -18 -5 -37t-3 -35q0 -61 37 -99t137 -38q90 0 185.5 45t178 117.5t140 156.5t69.5 160q0 4 1 9t1 7 q0 27 -16 44.5t-53 17.5q-8 0 -16.5 -1t-18.5 -3q-57 -10 -131 -59.5t-138.5 -122t-97.5 -154.5q-8 -4 -10 -4q-10 0 -4 26q20 55 66.5 117.5t109 117t136 89.5t149.5 35q59 0 86 -26t27 -66q0 -61 -50 -136q-39 -61 -109.5 -130.5t-158.5 -133t-184.5 -103.5t-188.5 -40 q-125 0 -189.5 58.5t-64.5 160.5zM672 721h14q104 0 205.5 22.5t187.5 63.5t144.5 98.5t74.5 126.5q2 8 2 23q0 31 -26.5 53t-104.5 22q-66 0 -153.5 -40.5t-177.5 -124.5q-57 -53 -100 -120t-66 -124z" />
<glyph unicode="F" horiz-adv-x="1056" d="M31 156q0 80 48 168t130 159q96 86 221 140.5t266 54.5q27 0 52.5 -2t52.5 -6q25 -2 24 -11q0 -4 -14 -4q-16 0 -33.5 2t-36.5 2q-82 0 -170 -31.5t-167.5 -82.5t-139.5 -113q-49 -47 -95 -116.5t-63 -151.5q-2 -10 -3 -21.5t-1 -21.5q0 -57 38 -96t124 -39q92 0 173 44 t153 111.5t133 134.5q59 63 129 156.5t145 194.5h-163l22 28h164l86 109q49 59 104.5 119.5t109.5 112t99 77.5q-98 12 -198.5 25.5t-206.5 17.5q-18 0 -37 1t-35 1q-137 0 -259 -30.5t-187 -118.5q-18 -25 -26.5 -49.5t-8.5 -47.5q0 -29 14 -53q8 -8 18.5 -17t18.5 -9 q-8 -8 -23 -9q-14 0 -27 7.5t-22 15.5q-20 23 -30.5 52.5t-10.5 58.5q0 57 29 96q110 151 370 151h3h33.5t33.5 -2q152 -8 300.5 -30.5t312.5 -22.5q90 0 162.5 9t97.5 34h4q8 0 15 -5t7 -18q0 -35 -38.5 -52t-79.5 -19q-49 0 -98.5 3t-96.5 7h-2q-51 -31 -133 -113 t-160 -204l-61 -97h127l-25 -28h-119q-78 -125 -161.5 -246t-178 -218t-206 -154.5t-246.5 -57.5q-82 0 -136.5 22.5t-84.5 59.5q-37 53 -37 123z" />
<glyph unicode="G" horiz-adv-x="1196" d="M-66 -209q0 68 36 112t59 44q4 0 8 -4q-18 -16 -29.5 -53t-11.5 -78q0 -84 56.5 -149.5t162.5 -65.5q143 0 257 70.5t207 186t175 250.5q39 63 70.5 113.5t58.5 91.5q-55 -61 -128 -128.5t-153.5 -126t-165.5 -94.5t-167 -36t-141.5 49.5t-59.5 171.5q0 115 51 228.5 t135 220.5q-131 16 -215 65.5t-84 143.5q0 66 37 109.5t93.5 70.5t121 41t120.5 18.5t89 4.5q10 0 48 -1.5t82 -4.5t77 -9t33 -14t-15 -8q-27 0 -59.5 3t-65.5 3h-49t-47 -2q-41 -2 -102.5 -9.5t-121.5 -29t-101 -63.5t-41 -113q0 -76 62.5 -118t162.5 -54q96 115 219 212 t251 168.5t248 112.5t210 41q59 0 110 -21.5t51 -88.5q0 -80 -62.5 -150t-166.5 -127t-233 -99t-266.5 -64.5t-262.5 -22.5h-8q-88 -113 -140.5 -235t-52.5 -236q0 -84 35 -117t86 -33q49 0 105.5 20.5t108 50.5t85.5 56q82 63 159 133t137.5 131.5t92.5 100.5q41 53 75 97 t87 44q35 0 35 -31q0 -25 -22 -34q-51 -2 -95.5 -34t-66.5 -87q-33 -80 -66 -164t-74 -168q-68 -141 -169 -262t-240.5 -193.5t-323.5 -72.5q-70 0 -136 20t-110.5 71.5t-44.5 145.5zM494 621q113 2 239.5 25.5t248.5 64.5t221.5 95t158.5 118.5t59 132.5q0 47 -35.5 61.5 t-76.5 14.5q-84 0 -188.5 -40t-216 -110t-218 -163t-192.5 -199z" />
<glyph unicode="H" horiz-adv-x="1511" d="M4 182q0 82 42 157t110.5 134t153.5 94t171 35q16 0 18.5 -7t-7.5 -7q-70 0 -145 -34t-137.5 -92.5t-101 -130t-38.5 -145.5q0 -115 60 -165t144 -50q66 0 136.5 26t132.5 71q137 109 245.5 250t219.5 284q74 92 140 179t155 169q39 37 83 70t87 53q-133 8 -281 25.5 t-281 17.5t-246.5 -31.5t-172.5 -115.5q-35 -49 -35 -97q0 -33 14 -53q6 -8 16.5 -17t18.5 -9q-8 -8 -21 -9q-14 0 -27.5 7.5t-21.5 15.5q-20 23 -30.5 52.5t-10.5 58.5q0 57 27 96q110 151 372 151h3q59 0 129.5 -7t150.5 -19q39 -6 104.5 -13.5t144.5 -12.5t155 -5 q90 0 160.5 10t93.5 35h6q16 0 16 -16q-6 -29 -29.5 -44.5t-50.5 -17.5q-35 -4 -73 -5h-25q-26 0 -53 1q-84 -70 -166 -167t-168 -216l-90 -123h309q63 78 131 152t133 139q45 43 98.5 84t105.5 68.5t91 27.5q-27 -20 -83 -74.5t-103 -105.5q-63 -68 -142 -162t-156 -192.5 t-138.5 -184.5t-90.5 -141q-32 -53 -32 -99t35 -46q20 0 59 20q59 35 100 77t92 99q8 0 9 -12q0 -18 -9 -29q-94 -111 -156.5 -150.5t-137.5 -39.5q-51 0 -72 23.5t-21 60.5q0 33 14.5 74t37.5 79q41 72 95 150t115 154h-305q-72 -100 -153.5 -206t-176 -195t-206 -144 t-242.5 -55q-80 0 -148.5 24.5t-109.5 78.5t-41 142z" />
<glyph unicode="I" horiz-adv-x="1228" d="M119 135q0 29 5 58.5t17 60.5q29 76 87.5 134t140.5 99q41 17 109 31q52 10 94 11q13 0 24 -1q16 -2 16 -9t-10 -7q-104 0 -192 -58.5t-144 -138.5q-35 -51 -56.5 -111.5t-21.5 -113.5q0 -63 37 -109.5t123 -46.5q78 0 157 32t142 83q139 106 246.5 258t210.5 301 q80 115 167 218.5t164.5 178t131.5 103.5l-37 6q-14 4 -42 6t-63 2q-57 0 -131.5 -15t-148.5 -60.5t-133 -133.5q-31 -47 -31 -106q0 -37 19.5 -65.5t66.5 -28.5q8 0 17.5 1t17.5 3q2 0 2 -2q0 -12 -23 -21q-8 -2 -16 -3t-16 -1q-76 0 -107 47t-31 105q0 84 43 139 q80 109 189.5 141.5t216.5 32.5q76 0 144.5 -7t119.5 -7q68 0 129.5 13t85.5 52q14 -10 14 -35q0 -27 -26.5 -56.5t-95.5 -29.5q-27 0 -61 5.5t-75 11.5q-37 -31 -83 -86t-91 -118.5t-79.5 -119t-53.5 -86.5q-92 -154 -185 -290t-196.5 -242.5t-230.5 -171.5 q-55 -31 -138 -60.5t-155 -29.5q-125 0 -194.5 68.5t-69.5 168.5z" />
<glyph unicode="J" horiz-adv-x="1243" d="M-104 -72q0 88 54 183.5t191 193.5q207 141 457 208t516 97q78 111 156 210.5t153.5 175t149.5 110.5l-43 8q-39 8 -97.5 13.5t-125.5 5.5q-80 0 -164 -15.5t-159 -56.5t-128 -121q-14 -20 -23.5 -50t-9.5 -59q0 -37 20.5 -64.5t67.5 -27.5q8 0 17.5 1t17.5 3q2 0 2 -2 t-5 -9t-19 -11q-8 -2 -16.5 -3t-16.5 -1q-74 0 -104.5 43t-30.5 96q0 84 43 139q76 102 186.5 134t235.5 32q102 0 205.5 -10t197.5 -10q68 0 129.5 13t85.5 52q14 -10 14 -35q0 -27 -26.5 -55.5t-95.5 -28.5q-45 0 -123 13q-82 -49 -179.5 -181.5t-203.5 -295.5l88 8 q4 0 4 -4q0 -2 -5 -9.5t-5 -11.5l-99 -10q-100 -156 -203.5 -312.5t-199.5 -265.5q-72 -80 -174.5 -156.5t-221 -126.5t-241.5 -50q-117 0 -194.5 63.5t-77.5 179.5zM-66 -63q0 -80 60 -130.5t158 -50.5q160 0 294 88t252 211q96 98 195.5 240.5t200.5 286.5 q-154 -23 -319 -61t-317.5 -95t-269.5 -137q-135 -94 -194.5 -186.5t-59.5 -165.5z" />
<glyph unicode="K" horiz-adv-x="1296" d="M-35 66q0 29 19.5 62.5t50.5 35.5q-8 -8 -11.5 -26.5t-3.5 -33.5q2 -35 31 -59.5t90 -24.5q78 0 163 46.5t172 123t170 171t153 190.5q57 82 132 179t162 192.5t179 169.5q-27 4 -60.5 9t-74.5 13q-39 6 -97.5 12.5t-126.5 6.5q-80 0 -163.5 -15.5t-158.5 -56.5 t-128 -121q-14 -20 -23.5 -50t-9.5 -59q0 -37 20.5 -64.5t67.5 -27.5q8 0 17.5 1t17.5 3q2 0 2 -2t-5 -9t-20 -11q-8 -2 -16 -3t-16 -1q-74 0 -105 43t-31 96q0 84 44 139q76 102 186 134t235 32q102 0 206 -10t198 -10q68 0 129 13t86 52q14 -10 14 -35q0 -20 -15 -42.5 t-54 -34.5q-28 -7 -66 -7h-10q-94 -74 -183.5 -178t-165 -211.5t-135.5 -193.5q-72 -98 -147.5 -200.5t-159.5 -188.5t-178 -138.5t-203 -52.5q-37 0 -77.5 12.5t-70.5 44t-30 85.5zM969 94q2 53 25.5 121t53 137.5t52 127t22.5 87.5q0 8 -4 17q-27 4 -40 17t-13 26 q0 16 20 16q39 0 56 -39q80 27 164 88.5t170 141t173 163.5t173 155t170 115t163 44q68 0 118 -31t50 -104q0 -14 -6 -22.5t-6 -2.5q0 39 -26.5 62.5t-64.5 33.5q-32 8 -61 8h-12q-68 -6 -146.5 -51t-165.5 -114.5t-177 -147.5t-179 -151.5t-174 -127t-161 -71.5 q4 -8 4 -19.5v-23.5q0 -59 -19 -150q-4 -20 -14 -66t-18.5 -103.5t-8.5 -110.5q0 -61 17.5 -104.5t62.5 -43.5q39 0 68 15.5t51 33.5q2 0 6 -2t-2 -12q-27 -39 -79 -62.5t-101 -23.5q-35 0 -68 12q-34 12 -54 50q-19 34 -19 99v13z" />
<glyph unicode="L" horiz-adv-x="1812" d="M4 80q0 68 63.5 125t176.5 57q98 0 204.5 -45t221.5 -104q78 66 154.5 148.5t152.5 176.5q-55 4 -117.5 21.5t-118 47.5t-91.5 74t-36 103q0 68 39 116t101.5 78.5t135.5 46t140 15.5q80 0 151.5 -13.5t131.5 -35.5q74 90 155.5 167t171 124t185.5 47q80 0 117.5 -42 t37.5 -108q0 -82 -56 -184t-166.5 -200.5t-271.5 -168t-368 -86.5q-82 -106 -175 -200.5t-206 -163.5q100 -51 203.5 -101.5t213.5 -82t224 -31.5q66 0 131.5 17.5t110.5 61.5t45 119q0 72 -54.5 103t-131.5 31q-53 0 -116 -17.5t-108 -50.5q-8 -6 -14 -6t-6 4q0 20 45 43.5 t107.5 41t109.5 17.5q45 0 104.5 -15t104.5 -52t45 -103q0 -82 -55.5 -134t-136 -76.5t-162.5 -24.5q-123 0 -246 33.5t-244 84t-237 97.5q-88 -45 -190.5 -81t-213.5 -40q-135 0 -198.5 49t-63.5 117zM51 82q0 -45 59.5 -90t155.5 -45q92 0 176 31.5t162 84.5 q-106 43 -205.5 73t-189.5 30q-84 0 -121 -24.5t-37 -59.5zM696 676q0 -66 49.5 -111t121 -67.5t134.5 -26.5q59 72 131 178.5t158 212.5q-123 47 -270 47q-45 0 -101.5 -15t-106.5 -45t-83 -73t-33 -100zM1147 477q184 20 328.5 92t247 167t155.5 191.5t53 166.5 q0 47 -25.5 75.5t-78.5 28.5q-51 0 -106.5 -29.5t-107.5 -74.5t-94 -91.5t-65 -78.5l-55 -78q59 -41 100 -94q8 -10 8 -29q0 -12 -4 -12q-2 0 -6 6q-47 59 -117 102q-55 -82 -112.5 -169t-120.5 -173z" />
<glyph unicode="M" horiz-adv-x="1380" d="M-332 -23q0 29 21.5 65t52.5 36q-16 -25 -16 -60q0 -37 30.5 -62.5t98.5 -25.5q78 0 163.5 44t174 117t172.5 161t155 178q82 102 166 200.5t163 177.5t140 122q20 14 68.5 47t124.5 59q-22 -1 -44 -1q-56 0 -115 4q-83 5 -161 16q-43 6 -88 10t-92 4 q-125 0 -235.5 -32.5t-170.5 -114.5q-34 -48 -34 -94q0 -36 14 -56q8 -8 18.5 -17.5t16.5 -9.5q-8 -8 -21 -8q-14 0 -27.5 7.5t-21.5 15.5q-20 23 -30.5 52.5t-10.5 57.5q0 57 29 97q57 78 147 114.5t228 36.5q59 0 128.5 -7t151.5 -19t171 -19.5t169 -7.5q90 0 154.5 9 t79.5 30h4q16 0 12 -19q-6 -25 -27.5 -31.5t-46.5 -17.5q-147 -133 -266 -281.5t-225 -299.5q-68 -94 -131.5 -187.5t-122.5 -177.5q53 31 140 113t187.5 190.5t196.5 218.5q84 96 182.5 195.5t203 183.5t203.5 136.5t181 52.5q55 0 106.5 -23.5t51.5 -93.5 q0 -23 -14.5 -51.5t-42.5 -34.5q10 10 14 29.5t6 33.5q0 35 -29.5 58.5t-95.5 23.5q-82 0 -177 -48t-194.5 -127t-194.5 -173t-175 -184q-86 -98 -175 -195.5t-171 -176.5t-146 -124q-59 -41 -96 -41h-6q-2 0 -2 2q-6 0 -10 13q-2 6 -3 22q0 53 39 134t102.5 174.5 t134.5 184.5t135.5 165.5t107.5 117.5q47 47 103 94.5t112 79.5h-31q-43 -2 -97.5 -25.5t-105.5 -56t-90 -65.5q-55 -47 -129 -126t-153.5 -172t-155.5 -189t-159 -194.5t-173 -181.5t-185.5 -134.5t-197.5 -51.5q-37 0 -75 11.5t-63.5 41t-25.5 80.5zM993 76q0 35 15.5 76 t38.5 81q59 102 141 211t175 215.5t183 196.5q45 43 98.5 84t104.5 68.5t90 27.5q-27 -20 -82 -74.5t-102 -105.5q-63 -68 -142 -162t-156 -192.5t-138.5 -184.5t-92.5 -141q-14 -25 -23 -51.5t-9 -48.5q0 -39 34 -39q23 0 72 24q51 29 96 75t97 104q6 0 6 -7q0 -8 -7.5 -22 t-11.5 -23q-80 -94 -151.5 -141t-147.5 -47q-49 0 -68.5 21.5t-19.5 54.5z" />
<glyph unicode="N" horiz-adv-x="1118" d="M-332 -23q0 29 21.5 65t52.5 36q-16 -25 -16 -60q0 -37 30.5 -62.5t98.5 -25.5q78 0 163.5 44t174 117t172.5 161t155 178q82 102 166 200.5t163 177.5t140 122q20 14 68.5 47t124.5 59q-22 -1 -44 -1q-56 0 -115 4q-83 5 -161 16q-43 6 -88 10t-92 4 q-125 0 -235.5 -32.5t-170.5 -114.5q-34 -48 -34 -94q0 -36 14 -56q8 -8 18.5 -17.5t16.5 -9.5q-8 -8 -21 -8q-14 0 -27.5 7.5t-21.5 15.5q-20 23 -30.5 52.5t-10.5 57.5q0 57 29 97q57 78 147 114.5t228 36.5q59 0 128.5 -7t151.5 -19q172 -29 328 -29q78 0 133 9t70 30 q23 0 14 -19q-6 -27 -26.5 -33t-45.5 -16q-47 -16 -106.5 -77.5t-121.5 -151.5t-123.5 -191.5t-115 -199t-92.5 -172.5q-20 -39 -51 -90.5t-68 -94.5q57 43 135 121t163 176.5t165 198.5q76 98 170 208.5t193.5 211t197 167t179.5 77.5q10 2 17 2h15q59 0 95 -28t39 -91 q0 -23 -12.5 -49.5t-39.5 -34.5q8 10 11.5 30.5t5.5 34.5q-2 35 -32 56.5t-89 21.5q-82 0 -177.5 -61.5t-192.5 -157.5t-188 -204.5t-165 -203.5q-78 -100 -170 -209.5t-178 -197.5t-150 -131q-12 -8 -36.5 -16.5t-49.5 -8.5q-20 0 -38.5 11.5t-22.5 37.5q4 -2 14 -4t23 -2 q23 0 51.5 16.5t48.5 73.5q45 117 101.5 245t130 254t171 237.5t222.5 197.5q-18 0 -39 -5l-21 -5q-57 -20 -117.5 -58t-103.5 -75q-55 -47 -129 -126t-153.5 -172t-155.5 -189t-159 -194.5t-173 -181.5t-185.5 -134.5t-197.5 -51.5q-37 0 -75 11.5t-63.5 41t-25.5 80.5z " />
<glyph unicode="O" d="M29 897q0 55 32.5 92t83 59.5t106.5 33t103 12.5q57 0 123 -6.5t141 -22.5q10 -2 7.5 -8t-13.5 -4q-43 6 -95 8t-95 2q-37 0 -92.5 -7t-108.5 -24.5t-89 -52.5t-36 -92q0 -63 80 -108.5t254 -49.5q113 129 247 228.5t269 154.5t250 55q72 0 104.5 -25.5t32.5 -66.5 q0 -47 -39 -98q23 -39 23 -92t-21 -121q-33 -104 -106.5 -218t-172.5 -222.5t-211 -195.5t-223.5 -138t-207.5 -51q-104 0 -156.5 56t-52.5 155q0 57 18 126q29 115 87.5 222.5t136.5 201.5q-176 6 -277.5 60.5t-101.5 136.5zM258 102q0 -63 31 -100t94 -37q90 0 192.5 51.5 t205 137.5t192.5 192.5t157.5 220t100.5 215.5q10 35 15 63.5t5 49.5v17.5t-2 15.5q-18 -18 -49 -39q-100 -63 -234.5 -104.5t-263.5 -61.5q-57 -68 -118.5 -153t-111.5 -178t-78 -185q-21 -71 -21 -135q0 -19 2 -37q-20 43 -21 102q0 74 31 157t77 163t94 146.5t85 109.5 q-25 -2 -49.5 -4t-46.5 -4q-94 -117 -167 -241t-102 -239q-18 -70 -18 -123zM571 737q25 4 51.5 7.5t53.5 9.5q113 121 242 199.5t247 80.5q61 0 97 -26q26 34 26 68t-25.5 53.5t-82.5 19.5q-82 0 -186.5 -56.5t-214.5 -148.5t-208 -207zM743 768q106 25 216 62.5t192 82.5 q43 23 78 58q-24 26 -72 26h-4q-106 -4 -211 -67.5t-199 -161.5z" />
<glyph unicode="P" horiz-adv-x="1366" d="M-47 -25q2 31 28.5 43.5t53.5 14.5h22q31 0 63 -4t64 -9h47q74 0 121 24t87 66t87 99q66 80 140.5 181.5t150.5 207.5q106 154 238.5 301.5t265.5 239.5q-47 18 -110.5 29.5t-141.5 11.5q-186 0 -338.5 -60.5t-263.5 -154t-171 -195.5t-60 -188q0 -70 45 -119t139 -57 q12 0 12 -7q0 -8 -18 -6q-127 10 -188.5 73.5t-61.5 154.5q0 90 59.5 192t174 192.5t281.5 146.5t382 56q92 0 167 -11t134 -34q61 39 119.5 59.5t113.5 20.5q53 0 103.5 -27.5t50.5 -103.5q-12 33 -60.5 62.5t-111.5 29.5q-41 0 -83 -15t-85 -44q102 -47 148.5 -119 t46.5 -154q0 -76 -38 -152.5t-107.5 -138t-164 -99.5t-209.5 -38q-41 0 -86 5.5t-92 19.5l-4 6t-4 8q0 10 16 4q51 -14 109 -14q96 0 182 39t151.5 102.5t102.5 139t37 149.5q0 63 -30.5 118.5t-96.5 94.5q-86 -66 -171 -167t-166 -214.5t-152 -216.5q-82 -115 -168 -213 t-164 -170q-63 -55 -117.5 -93t-134.5 -42l22 -4q51 -8 102.5 -18.5t131.5 -10.5q61 0 130 14.5t129 43t97 72.5t37 106q0 23 -11 47t-36 31q10 6 25 6q41 0 69.5 -32t28.5 -73q0 -70 -36 -119t-92 -78.5t-117.5 -43t-112.5 -13.5q-74 0 -163 11.5t-196 33.5 q-51 10 -101 20.5t-95 10.5q-43 0 -79 -12t-63 -41q-14 0 -14 24z" />
<glyph unicode="Q" horiz-adv-x="1011" d="M-158 -29q0 2 1 3t1 3q10 23 43 31t72 8q23 0 48.5 -2t45.5 -4q33 -4 74 -11t96 -28q86 8 193.5 69.5t221.5 159t216 215t177 242.5t104 240q18 72 18 123q0 66 -29.5 101.5t-95.5 35.5q-90 0 -190.5 -50t-197.5 -134t-183 -188.5t-150.5 -214t-97.5 -210.5 q-20 -63 -21 -110q0 -51 25 -73.5t63 -22.5q66 0 150 42t173 115.5t170 170t141.5 205t86.5 218.5q4 16 11 17q4 0 8 -12.5t0 -28.5q-20 -94 -77.5 -200t-137.5 -205t-173 -180t-186.5 -129t-177.5 -48q-61 0 -99 35.5t-38 107.5q0 53 20 117q31 100 99.5 210.5t163 216 t201 190.5t216 136.5t207.5 51.5q104 0 157.5 -55.5t53.5 -155.5q0 -55 -18 -127q-35 -137 -112 -265t-180.5 -238t-221 -192.5t-236.5 -133t-223 -60.5q61 -27 137 -67t154 -80.5t145 -75.5q57 -29 135 -53.5t150 -24.5q57 0 111.5 29.5t54.5 99.5q0 39 -29 74t-94 55 q-45 14 -101.5 23.5t-97.5 9.5q-2 6 16.5 9t26.5 3q35 0 82 -4t80 -14q43 -10 88 -37t76 -65t31 -89q0 -88 -74 -133t-180 -45q-84 0 -174.5 38t-180.5 94t-170 111.5t-143.5 93.5t-99.5 38q-37 -18 -91.5 -29.5t-91.5 -11.5q-10 -2 -20 -2h-21q-88 0 -115.5 26.5 t-15.5 40.5z" />
<glyph unicode="R" horiz-adv-x="1476" d="M-35 66q0 29 19.5 62.5t50.5 35.5q-8 -8 -11.5 -26.5t-3.5 -33.5q2 -35 31 -59.5t90 -24.5q78 0 163 46.5t172 123t170 171t153 190.5q66 92 153.5 204.5t190 219t209.5 176.5q-49 29 -121 46t-170 17q-143 0 -268 -40.5t-227.5 -108.5t-177.5 -148.5t-115 -163.5 t-40 -153q0 -68 42 -114t137 -54q12 0 12 -6q0 -8 -18 -6q-123 10 -181.5 70.5t-58.5 148.5q0 92 60.5 195.5t175 196.5t279.5 151.5t372 58.5q113 0 196.5 -18.5t143.5 -46.5q111 67 216 67h3q53 0 103 -27.5t50 -103.5q-12 33 -60 62.5t-112 29.5q-43 0 -86 -12t-84 -35 q72 -45 105 -104.5t33 -122.5q0 -84 -57.5 -164t-152 -130t-206.5 -50q2 -8 2 -16.5v-18.5q0 -59 -19 -152q-4 -27 -13 -84t-9 -116q0 -70 19.5 -123t74.5 -53q51 0 104.5 37.5t99.5 87t73 79.5q8 0 8 -12q0 -18 -8 -29q-94 -111 -174 -163t-177 -52q-47 0 -86 32t-39 124 q0 51 18.5 113.5t42 126t42 116t18.5 80.5q0 16 -4 21q-27 4 -40 17t-13 26q0 16 20 16q45 0 58 -45q61 6 120.5 42t105.5 88t73.5 111.5t27.5 114.5q0 49 -22.5 95.5t-69.5 83.5q-80 -51 -156.5 -130t-147 -168.5t-132 -175.5t-111.5 -155q-72 -98 -147.5 -200.5 t-159.5 -188.5t-178 -138.5t-203 -52.5q-37 0 -77.5 12.5t-70.5 44t-30 85.5z" />
<glyph unicode="S" horiz-adv-x="1042" d="M2 252q0 117 44 241.5t124 232.5t190.5 174.5t243.5 66.5q84 0 134 -40t73 -102.5t23 -128.5q0 -20 -2.5 -39.5t-6.5 -40.5q25 12 50.5 24.5t52.5 23.5l28 12q35 84 74 165t88 150q41 57 99.5 102.5t128.5 45.5q63 0 89.5 -28t26.5 -69q0 -57 -38 -108t-97 -95t-128 -82 t-132 -67q-41 -123 -85 -247t-107.5 -233.5t-167.5 -193.5q-78 -63 -169.5 -94t-175.5 -31q-14 0 -27 1.5t-26 3.5q16 -82 69.5 -140.5t162.5 -58.5q33 0 61.5 9t65.5 34l1 1t3 1q6 0 6 -12q0 -14 -23.5 -28.5t-58.5 -24t-66 -9.5q-104 0 -187 61.5t-105 178.5 q-125 35 -180.5 128t-55.5 216zM86 229q0 -104 32.5 -182.5t114.5 -107.5q-2 10 -2 20v18q0 131 72 242t193.5 203t271.5 168q12 47 12 96q0 59 -16 116.5t-56 96.5t-110 39q-106 0 -199.5 -67.5t-163 -175t-109.5 -231.5t-40 -235zM303 -25v-24.5t2 -24.5h8q68 0 155 39 t185 141q102 106 165 244.5t120 282.5l-125 -66q-39 -125 -132 -241.5t-200 -194.5q-14 -10 -26 -10q-10 0 -11 6q0 6 5 10q90 68 178 172.5t127 225.5q-117 -68 -219.5 -155t-167 -188.5t-64.5 -216.5zM1081 731q80 39 158 87t129 104.5t51 117.5q0 29 -13 50.5t-48 21.5 q-39 0 -75 -25.5t-62.5 -60.5t-44.5 -68q-27 -51 -51 -109.5t-44 -117.5z" />
<glyph unicode="T" horiz-adv-x="1056" d="M29 162q0 80 44 165t120 154q96 90 221 145.5t270 55.5q45 0 94 -6q25 -6 25 -10q0 -6 -19 -7q-14 0 -29.5 2.5t-31.5 2.5q-84 0 -171 -32t-165 -85t-137 -115q-45 -49 -87 -118.5t-57 -151.5q-2 -8 -2 -16.5v-16.5q0 -61 39 -103t127 -42q90 0 169 46t148.5 114.5 t129.5 136.5q76 86 168 221t192 268q68 90 149 177t146 132q-88 10 -176 22.5t-182 14.5q-18 0 -37 1t-35 1q-137 0 -259 -30.5t-187 -118.5q-18 -25 -26.5 -49.5t-8.5 -47.5q0 -29 14 -53q8 -8 18.5 -17t18.5 -9q-8 -8 -23 -9q-14 0 -27 7.5t-22 15.5q-20 23 -30.5 52.5 t-10.5 58.5q0 57 29 96q110 151 370 151h3h33.5t33.5 -2q152 -8 300.5 -30.5t312.5 -22.5q90 0 162.5 9t97.5 34h4q8 0 15 -5t7 -18q0 -35 -38.5 -52t-79.5 -19q-63 0 -125 4t-121 12q-51 -33 -126 -114.5t-144 -202.5q-80 -137 -165 -280.5t-182.5 -262.5t-217 -192.5 t-273.5 -73.5q-82 0 -135.5 22.5t-87.5 59.5q-43 55 -43 131z" />
<glyph unicode="U" horiz-adv-x="972" d="M4 866q0 76 41 132.5t106.5 92t139.5 52.5q84 18 176 18q41 0 82 -2t82 -6q59 -4 125.5 -11t132.5 -7q29 0 54.5 2t51.5 6q10 -2 0 -24.5t-45 -26.5q-49 -39 -99 -89.5t-90 -94.5t-61 -68q-14 -14 -63 -73.5t-115.5 -143.5t-134.5 -177.5t-121 -179.5q-41 -66 -63.5 -122 t-22.5 -89q0 -35 33 -35q41 0 92 33t109 90q109 104 203 225t198 238q43 45 86 88l88 88l17 17q53 53 115.5 96t107.5 43q-20 -18 -60.5 -56t-76.5 -81q-139 -166 -251 -331t-145 -316q-6 -25 -6 -54q0 -27 9.5 -45t33.5 -18q18 0 47 14q59 35 100.5 77t92.5 99q8 0 8 -12 q0 -18 -8 -29q-94 -111 -155.5 -150.5t-133.5 -39.5q-55 0 -76.5 37t-21.5 84q0 35 8 68.5t16 60.5q23 53 57.5 113.5t75.5 117.5q-57 -66 -104 -125t-96 -116.5t-113 -118.5q-63 -61 -131 -98t-127 -37q-37 0 -61.5 25.5t-24.5 74.5t27 111q47 109 129 231.5t179 239 t183 202.5q29 31 83 78t115.5 90t110.5 62q-18 -2 -62 6t-73 12q-33 4 -90 10t-123 6q-80 0 -168 -15t-164.5 -56t-130.5 -119q-12 -20 -21 -45t-9 -53q0 -39 19.5 -71t68.5 -32q8 0 16 1t17 3q2 0 2 -2q0 -12 -23 -20q-8 -2 -16.5 -3t-16.5 -1q-76 0 -105.5 46t-29.5 103z " />
<glyph unicode="V" horiz-adv-x="1032" d="M-6 348q0 35 6 74q16 98 70.5 205.5t135.5 208t177 181.5t198.5 129t198.5 48q117 0 176.5 -65.5t59.5 -172.5q0 -20 -2 -41.5t-6 -44.5q-47 -244 -185.5 -466t-328.5 -390q61 41 150 126t191.5 193.5t200.5 223.5q92 106 199.5 220t221.5 212t222.5 158.5t200.5 60.5 q41 0 81 -11t66.5 -41t26.5 -83q0 -27 -16.5 -56.5t-44.5 -35.5q20 29 20 72q0 90 -137 90q-90 0 -195.5 -57.5t-216 -151.5t-214 -201.5t-191.5 -210.5q-92 -106 -186.5 -206.5t-180.5 -180.5t-154.5 -126t-107.5 -46q-43 -33 -85 -53.5t-52 -20.5q-4 0 -4 2q0 8 16 19 q98 74 195.5 187.5t181.5 247.5t144.5 275.5t84.5 270.5q4 27 7.5 51.5t3.5 44.5q0 82 -35 131t-111 49q-90 -2 -184 -50t-180 -128t-159 -179t-122 -205.5t-65 -205.5q-4 -25 -6.5 -45t-2.5 -39q0 -68 28 -94t75 -26q63 0 145 40.5t164 114.5t151.5 171t112.5 211t45 235 q0 16 6 16t14.5 -14.5t8.5 -30.5q0 -102 -40 -212t-107.5 -212t-152.5 -183t-174 -129t-173 -48q-72 0 -119 48t-47 146z" />
<glyph unicode="W" horiz-adv-x="1363" d="M-45 346q0 16 3 35.5t5 40.5q16 98 70.5 205.5t134.5 208t177 181.5t199.5 129t198.5 48q117 0 176.5 -65.5t59.5 -174.5q0 -20 -2 -40.5t-6 -43.5q-33 -170 -112 -331.5t-191 -300.5q88 92 178 196.5t173 204.5t146 180q82 100 138.5 150.5t97.5 50.5q43 0 43 -45 q0 -37 -23.5 -91.5t-49 -99.5t-34.5 -59q-23 -41 -65.5 -115.5t-97 -164t-116 -179.5t-120.5 -162q92 84 207 204t225 249q90 106 198.5 220t222.5 212t221.5 158.5t199.5 60.5q41 0 82 -11t67.5 -41t26.5 -83q0 -27 -17.5 -56.5t-46.5 -35.5q10 10 16.5 32.5t6.5 39.5 q0 90 -139 90q-90 0 -195.5 -57.5t-215 -151.5t-214 -201.5t-192.5 -210.5q-111 -127 -223.5 -244.5t-209 -199.5t-159.5 -107q-12 -8 -24.5 -13t-22.5 -5h-2q-16 0 -17 14q0 10 5 20.5t14 22.5q59 84 125.5 178.5t134.5 188.5q96 135 186 276.5t160 278.5q12 20 12 37 q0 10 -8 10q-12 0 -35 -16q-27 -25 -72 -80.5t-88 -108.5q-70 -84 -154.5 -186.5t-178 -207t-184.5 -195.5t-173 -150q-14 -14 -30.5 -27.5t-32.5 -27.5q-45 -37 -94.5 -64t-65.5 -27q-4 0 -4 2t16 19q98 74 195.5 187.5t181.5 247.5t144.5 275.5t84.5 270.5q6 27 8.5 51.5 t2.5 46.5q0 82 -35 130t-109 48q-90 -2 -184 -50t-180 -128t-159 -179t-122 -205.5t-65 -205.5q-4 -25 -6.5 -46t-2.5 -38q0 -70 28 -95t73 -25q66 0 146.5 40.5t163.5 114.5t152.5 171t112.5 211t45 235q0 16 7 16q6 0 14 -14.5t8 -30.5q0 -102 -40 -212t-108.5 -212 t-152.5 -183t-174 -129t-172 -48q-72 0 -120 48t-48 144z" />
<glyph unicode="X" horiz-adv-x="1357" d="M-45 -45q39 10 104.5 30.5t133.5 51.5q156 72 302 186.5t270 261t206 308.5q31 61 46 120.5t15 108.5q0 80 -37 116t-112 36q-86 0 -192.5 -45.5t-215 -120t-200 -167.5t-146.5 -192.5t-55 -189.5q0 -45 28.5 -64.5t65.5 -19.5q78 0 179.5 41t203.5 117.5t187 187 t128 250.5q6 16 11 16q12 0 12 -31v-7t-2 -11q-37 -123 -122 -231.5t-192.5 -191.5t-215 -130t-187.5 -47q-152 0 -152 137q0 98 49.5 201.5t134.5 197t195.5 168t234.5 117.5t249 43q115 0 169 -59.5t54 -155.5q0 -55 -23 -123q104 113 220 202t227.5 141.5t204.5 52.5 q49 0 95 -25t46 -92v-13q-8 35 -55 63t-111 28q-86 0 -186.5 -58.5t-201.5 -155t-193.5 -216t-164 -244.5t-113.5 -237.5t-42 -196.5q0 -100 74 -101q61 2 136 44t147.5 107.5t129 142.5t82.5 149q6 18 6 34q0 35 -34 35q-37 0 -102.5 -43t-133.5 -113.5t-115 -156.5 q-2 -2 -10 -2t-8 8q0 6 2 8q27 51 74 109.5t104.5 111t116.5 85t110 32.5q70 0 70 -67q0 -61 -59 -146q-39 -55 -101.5 -120.5t-137.5 -123t-154.5 -94.5t-155.5 -37q-51 0 -93 34t-42 116q0 68 17.5 141.5t49.5 149.5q-125 -131 -269 -238.5t-290 -173.5 q-63 -31 -125.5 -42t-101.5 -11q-27 0 -39 4z" />
<glyph unicode="Y" horiz-adv-x="890" d="M-348 -356q0 76 37 157.5t94 143.5q59 63 139 110t166 68q6 29 25 70q47 109 129 231.5t179 239t183 202.5q29 31 83 78t115.5 90t110.5 62q-18 -2 -62 6t-73 12q-33 4 -90 10t-123 6q-80 0 -168 -15t-164.5 -56t-130.5 -119q-12 -20 -21 -45t-9 -53q0 -39 19.5 -71 t68.5 -32q8 0 16 1t17 3q2 0 2 -2q0 -12 -23 -20q-8 -2 -16.5 -3t-16.5 -1q-76 0 -105.5 46t-29.5 103q0 76 41 132.5t106.5 92t139.5 52.5q84 18 176 18q41 0 82 -2t82 -6q59 -4 125.5 -11t132.5 -7q29 0 54.5 2t51.5 6q10 -2 0 -24.5t-45 -26.5q-49 -39 -99 -89.5 t-90 -94.5t-61 -68q-14 -14 -63 -73.5t-115.5 -143.5t-134.5 -177.5t-121 -179.5q-23 -35 -40 -68.5t-27 -62.5q25 0 49 -2t49 -6q20 -2 20 -8q0 -4 -12 -4t-25.5 2t-25.5 2q-33 0 -64 -6q-6 -16 -8 -31.5t-2 -28.5q0 -20 8.5 -26.5t24.5 -6.5q41 0 92 33t109 90 q86 92 182 202t191.5 224.5t175.5 216.5q4 10 9 21.5t7 21.5q14 41 39 41q14 0 8 -20q-39 -117 -96.5 -266.5t-135 -307t-174 -306t-212 -267.5t-248.5 -189.5t-285 -70.5q-121 0 -172 59.5t-51 141.5zM-276 -375v-8q0 -58 28 -98q31 -43 105 -43q90 0 171 44t154.5 110.5 t136.5 136.5q80 86 170.5 206.5t177.5 256t159.5 269.5t119.5 244q-74 -113 -163 -227.5t-180 -217.5t-173 -181q-61 -59 -127.5 -96t-126.5 -39q-39 0 -65.5 24.5t-26.5 75.5q-70 -31 -133.5 -78t-106.5 -102q-45 -53 -82.5 -128t-37.5 -149z" />
<glyph unicode="Z" horiz-adv-x="1298" d="M4 209l2 8q6 25 26.5 34t47.5 9q16 0 33.5 -2t31.5 -6q25 -4 47.5 -9t43.5 -14q145 86 283 192.5t300 223.5q135 98 291 199.5t315 199.5q-111 8 -222 24.5t-222 21.5q-16 2 -32.5 2h-33.5q-113 0 -203.5 -30t-140.5 -120q-26 -49 -26 -95q0 -34 10 -54q6 -10 14.5 -19.5 t14.5 -9.5q-8 -8 -23 -8q-29 0 -43 18q-18 25 -26.5 56.5t-8.5 62.5q0 63 23 102q47 82 123 120t188 38h31.5t30.5 -2q86 -4 173 -21.5t177 -33t182 -15.5q78 0 130 17.5t73 44.5q25 0 24 -25q0 -39 -33.5 -58.5t-68.5 -19.5h-68q-45 -37 -118.5 -93t-156.5 -120.5 t-159 -124t-129 -102.5q-45 -37 -116.5 -86t-157.5 -104.5t-174 -107.5t-166 -95q96 -43 180 -90t175 -81t206 -34q39 0 87 6t93 25.5t74 58.5t29 105q0 43 -35 82.5t-92.5 65.5t-128.5 26q0 8 11 13t23 5q90 0 150.5 -33.5t94.5 -83t38 -96.5q0 -6 1 -13t1 -13 q0 -74 -43 -125.5t-106.5 -77t-126.5 -25.5q-92 0 -176 27.5t-165 69.5t-162 87.5t-169 77.5q-37 -20 -71 -34.5t-58 -16.5q-8 -2 -14.5 -2h-12.5q-57 0 -77.5 31t-12.5 47z" />
<glyph unicode="[" horiz-adv-x="579" d="M4 -217l744 1380h239l-24 -43h-150l-696 -1296h149l-24 -41h-238z" />
<glyph unicode="\" horiz-adv-x="569" d="M274 1165h64l156 -1382h-64z" />
<glyph unicode="]" horiz-adv-x="587" d="M-141 -217l24 43h152l696 1296h-149l22 41h240l-744 -1380h-241z" />
<glyph unicode="^" horiz-adv-x="514" d="M107.5 809q-7.5 6 1.5 10l301 221q23 16 39 17q14 0 18 -10l59 -213q2 -4 2 -13q0 -14 -10 -14t-16 12l-76 172l-303 -184q-8 -4 -15.5 2z" />
<glyph unicode="_" horiz-adv-x="700" d="M-6 -88l12 39h703l-17 -39h-698z" />
<glyph unicode="`" horiz-adv-x="270" d="M0 934q0 12 13.5 23.5t23.5 11.5q8 0 37.5 -18.5t69.5 -45t78 -53.5t63.5 -46.5t25.5 -21.5q0 -4 -8 -4q-18 0 -66.5 19.5t-102.5 46t-94 51.5t-40 37z" />
<glyph unicode="a" horiz-adv-x="636" d="M-39 84q0 49 28.5 117.5t86.5 144.5q41 51 100.5 109.5t130 112t144 87t143.5 33.5q31 0 43 -9t16 -20q4 -8 1 -12t-7 -2q-8 4 -33 4q-74 0 -175 -70.5t-199 -183.5q-70 -78 -115 -152.5t-59 -123.5q-4 -16 -5 -29q0 -29 23 -29q14 0 38.5 13.5t63.5 46.5 q61 53 122 124.5t120 146.5t115.5 138.5t107.5 96.5q66 43 91.5 49t41.5 8q-10 -12 -44.5 -57t-73.5 -95.5t-64 -82.5q-37 -53 -79 -115t-75.5 -116t-46.5 -89q-10 -35 -10 -51q0 -33 27 -33q18 0 43.5 15.5t52.5 35.5q35 29 65.5 60.5t63.5 70.5q8 0 8 -12q0 -18 -8 -29 q-27 -31 -64.5 -67.5t-74.5 -65.5q-27 -23 -61.5 -39t-67.5 -16q-47 0 -65.5 22.5t-18.5 57.5q0 41 18.5 89t40.5 91q-27 -33 -67.5 -79t-73.5 -77q-45 -41 -86 -72.5t-86 -31.5q-76 0 -76 86z" />
<glyph unicode="b" horiz-adv-x="643" d="M-35 78q0 37 14.5 79t30.5 76q37 61 81 124t95 130q55 74 127 160t155 169t175 146.5t188 92.5q18 6 44 10t53 4q23 0 44 -3t40 -11q16 -8 32.5 -21.5t20.5 -38.5q-20 18 -49 27.5t-70 9.5q-82 0 -151.5 -35.5t-132 -94t-120 -127t-114.5 -132.5q-82 -92 -153.5 -184 t-114.5 -168q41 51 92 108.5t100 107.5t82 79q45 41 88 66.5t88 29.5h6q68 0 68 -86q0 -47 -27.5 -115.5t-87.5 -146.5q-39 -51 -99 -109.5t-131 -112t-144.5 -87t-143.5 -33.5q-47 0 -66.5 24.5t-19.5 61.5zM37 49q0 -14 10.5 -21.5t22.5 -7.5q78 6 165 82t183 185 q72 80 120 154.5t62 121.5q2 6 2 17q0 16 -8 29.5t-27 13.5q-16 0 -43.5 -14.5t-68.5 -49.5q-35 -29 -93.5 -85t-117.5 -122q-18 -20 -52 -57t-70 -82t-60.5 -88t-24.5 -76z" />
<glyph unicode="c" horiz-adv-x="483" d="M-14 137q0 70 36.5 145.5t99 147.5t136.5 129t148.5 91t138.5 34q39 0 54 -19.5t15 -46.5t-12 -51q-18 -43 -64 -87t-106 -44q-23 0 -26 16.5t2 24.5q29 8 78 36t77 85q6 12 6 23q0 31 -37 30q-47 0 -121.5 -58t-164.5 -167q-63 -74 -105.5 -148.5t-42.5 -152.5 q0 -47 18.5 -74.5t67.5 -27.5q63 0 115.5 30.5t97.5 78.5t86 95q8 0 9 -12q0 -18 -9 -29q-41 -47 -88 -94t-104 -76.5t-131 -29.5q-39 0 -80 11t-67.5 44t-26.5 96z" />
<glyph unicode="d" horiz-adv-x="643" d="M-39 84q0 49 28.5 117.5t86.5 144.5q45 57 114.5 125t151.5 124t164 81q23 6 47.5 9t58.5 3q33 0 33 -8q0 -10 -29 -16q-25 -6 -59.5 -20.5t-62.5 -31.5q-59 -33 -125 -89t-129 -128q-70 -78 -115 -152.5t-59 -123.5q-4 -16 -5 -29q0 -29 23 -29q14 0 38.5 13.5 t63.5 46.5q78 66 157 149.5t142 173.5q49 70 115 149t137.5 153.5t140 136t123.5 98.5q63 43 89 49t45 6q-18 -14 -79 -72.5t-144 -146.5t-172 -190.5t-162 -204.5q-57 -78 -108.5 -161t-68.5 -132q-6 -16 -8 -28.5t-2 -22.5q0 -33 27 -33q18 0 43.5 15.5t52.5 35.5 q35 29 68.5 64t60.5 67q8 0 8 -12q0 -18 -8 -29q-27 -31 -64.5 -67.5t-74.5 -65.5q-27 -23 -61.5 -39t-67.5 -16q-47 0 -66.5 22.5t-19.5 57.5t14 76t35 79q-35 -37 -76 -78.5t-53 -52.5q-45 -41 -86 -70.5t-86 -33.5h-6q-70 0 -70 86z" />
<glyph unicode="e" horiz-adv-x="481" d="M-16 137q0 68 37.5 142.5t95.5 142.5q35 41 86 86t110.5 85t117.5 65.5t104 25.5q25 0 45 -11t20 -48q0 -51 -49 -97.5t-111 -85.5q-70 -45 -145.5 -75.5t-130.5 -47.5q-31 -49 -49.5 -100t-18.5 -100q0 -53 25.5 -72.5t60.5 -19.5q63 0 115.5 29.5t97.5 76.5t86 94 q8 0 8 -12q0 -18 -8 -29q-41 -47 -89 -94t-105 -76.5t-131 -29.5q-94 0 -133 41t-39 110zM188 348q53 18 126 51t128 72q12 8 43 33.5t57.5 57.5t26.5 56q0 33 -32 33q-35 0 -79 -30.5t-71 -53.5q-49 -45 -102.5 -100.5t-96.5 -118.5z" />
<glyph unicode="f" horiz-adv-x="391" d="M-788 -424q23 -18 51 -28q23 -7 55 -7h14q109 0 204 54.5t179 144.5t158 198.5t139.5 218t122.5 199.5q39 61 81 131t91 140h-114l22 28h113q96 135 211.5 250t259.5 158q35 12 94 12q25 0 49.5 -3t44.5 -11q18 -8 34.5 -22.5t25.5 -37.5q-43 35 -123 35 q-106 0 -195.5 -59t-160 -146.5t-128.5 -175.5h158l-23 -28h-153q-45 -68 -89 -141.5t-108 -174.5q-43 -68 -105.5 -159t-138 -189t-161.5 -188t-180.5 -159t-192.5 -97q-39 -15 -96 -15q-45 0 -82 13q-16 8 -33.5 22.5t-23.5 36.5z" />
<glyph unicode="g" horiz-adv-x="565" d="M-373 -479q0 8 15 8q10 0 20 -1t19 -1q74 0 147.5 45t143 120t133 165t114.5 178q18 33 47 85t64 113q-39 -45 -72 -79.5t-49 -51.5q-45 -41 -86 -70.5t-86 -33.5h-6q-70 0 -70 86q0 49 28.5 117.5t86.5 144.5q41 51 100.5 109.5t130 112t144 87t143.5 33.5q31 0 43 -9 t16 -20q2 -8 0 -14q59 39 111 39q14 0 18 -4q-86 -53 -152.5 -136t-123.5 -185.5t-113.5 -211t-119 -215t-140.5 -196.5q-92 -106 -198.5 -173t-200.5 -67q-61 0 -84 9.5t-23 15.5zM61 90q0 -29 23 -29q14 0 38.5 13.5t63.5 46.5q66 57 133.5 140t131.5 165q47 66 97 125 t103 92q-4 0 -4 2q-8 4 -33 4q-74 0 -175 -70.5t-199 -183.5q-70 -78 -115 -152.5t-59 -123.5q-4 -16 -5 -29z" />
<glyph unicode="h" horiz-adv-x="602" d="M-68 41q0 35 20.5 87t51.5 105q70 117 171 253.5t210 254.5q96 106 209 192.5t235 121.5q18 6 43 10t52 4q49 0 84 -14q16 -8 32.5 -21.5t22.5 -38.5q-23 18 -51.5 27.5t-69.5 9.5q-80 0 -163 -46t-157.5 -111.5t-131 -130t-87.5 -101.5q-80 -98 -140 -183t-101 -145 q82 90 179 181.5t179 144.5q27 18 55.5 30.5t59.5 12.5q55 0 55 -43q0 -33 -39 -78q-72 -82 -145.5 -181t-124.5 -198q-8 -14 -27.5 -56t-19.5 -71q0 -25 22 -24q47 0 115 60.5t131 133.5q8 0 8 -12q0 -18 -8 -29q-29 -31 -73 -77t-99 -81.5t-121 -35.5q-37 0 -53 18.5 t-16 46.5q0 25 12 70q27 74 78 150.5t111.5 147.5t115.5 129t88 95q-31 0 -66.5 -16.5t-72.5 -38.5q-88 -61 -177 -145t-166 -172.5t-130 -162t-68 -114.5q-33 0 -33 41z" />
<glyph unicode="i" horiz-adv-x="344" d="M-37 100q0 59 36 128t89 137.5t108.5 129t96.5 99.5q39 39 80 57.5t71 25.5l29 7q-45 -51 -123 -145.5t-153 -200.5q-6 -8 -29 -41t-50.5 -76t-47 -84t-19.5 -65q0 -39 41 -39q31 0 67 22.5t72.5 55t66.5 64.5t46 52q8 0 8 -12q0 -18 -8 -29q-78 -90 -140 -140t-138 -50 q-55 0 -79 29.5t-24 74.5zM469 803q0 10 6 22q10 25 36 44.5t50 19.5q39 0 39 -33q0 -31 -28.5 -57.5t-61.5 -28.5q-41 0 -41 33z" />
<glyph unicode="j" horiz-adv-x="354" d="M-788 -424q23 -18 51 -28q23 -7 55 -7h14q109 0 204 54.5t179 144.5t158 198.5t139.5 218t122.5 199.5l101 164q47 74 84.5 104.5t73.5 40t77 11.5q-43 -47 -108.5 -150.5t-137.5 -214.5q-43 -68 -101 -159t-130 -190t-154 -190t-173 -161t-187 -98q-35 -11 -101 -11 q-29 0 -58.5 3t-51.5 12q-16 8 -33.5 22.5t-23.5 36.5zM483 803q0 31 32 58.5t65 27.5q37 0 36 -35q0 -31 -29.5 -56.5t-62.5 -27.5h-4q-37 0 -37 33z" />
<glyph unicode="k" horiz-adv-x="602" d="M-68 41q0 35 20.5 87t51.5 105q70 117 171 253.5t210 254.5q96 106 209 192.5t235 121.5q18 6 43 10t52 4q49 0 84 -14q16 -8 32.5 -21.5t22.5 -38.5q-23 18 -51.5 27.5t-69.5 9.5q-80 0 -163 -46t-157.5 -111.5t-131 -130t-87.5 -101.5q-92 -111 -157.5 -205 t-104.5 -153q47 47 103.5 100t122.5 111q45 37 100 81t116.5 76.5t125.5 32.5q29 0 41 -13.5t12 -31.5q0 -25 -19 -47q-14 16 -31.5 21.5t-39.5 5.5q-53 0 -109.5 -28t-81.5 -46l-20 -17q-14 -33 -37 -90t-44.5 -123.5t-35.5 -127t-14 -99.5q0 -29 8 -40t22 -11 q31 0 69 24.5t74 58.5t63.5 64.5t35.5 40.5q8 0 8 -12q0 -18 -8 -29q-29 -31 -72 -75.5t-95 -78.5t-111 -34q-47 0 -64.5 31.5t-17.5 83.5q0 45 21.5 108.5t49 126t45.5 101.5q-113 -94 -204 -190.5t-142 -174.5q-14 -25 -24.5 -45.5t-16.5 -34.5l-4 -8q-35 2 -35 45z" />
<glyph unicode="l" horiz-adv-x="335" d="M-45 88q0 31 14.5 72t53.5 108q53 92 150 217t208 244q96 109 210 200t236 126q18 6 43 10t52 4q49 0 84 -14q16 -8 32.5 -21.5t22.5 -38.5q-23 18 -51.5 27.5t-69.5 9.5q-106 0 -204.5 -69.5t-196 -179t-203.5 -232.5q-41 -47 -90 -116.5t-93 -139.5t-71 -119 q-14 -23 -21.5 -48.5t-7.5 -41.5q0 -49 37 -49q39 0 87 37t92 82t67 71q8 0 8 -12q0 -18 -8 -29q-82 -94 -151 -143t-128 -49q-102 0 -102 94z" />
<glyph unicode="m" horiz-adv-x="878" d="M-70 41q0 41 26 98.5t44 89.5q53 90 121.5 189.5t128.5 175.5q31 41 65.5 60.5t58.5 24.5l25 5q-12 -18 -50 -75.5t-87 -134.5t-100 -159q82 100 172 192.5t172 139.5q68 37 127 37q47 0 47 -33q0 -31 -33 -73q-14 -18 -38.5 -53.5t-44.5 -64.5l-19 -28l-13 -18 q66 68 133.5 127t131.5 100q27 18 55.5 30.5t58.5 12.5q55 0 56 -43q0 -33 -39 -78q-47 -55 -102.5 -122.5t-105.5 -137.5t-82 -129t-32 -96q0 -20 11.5 -29.5t19.5 -9.5q31 0 68.5 24.5t73.5 58.5t63.5 64.5t36.5 40.5q8 0 8 -12q0 -18 -8 -29q-29 -31 -76 -75.5 t-100.5 -78.5t-102.5 -34q-43 0 -61.5 23.5t-18.5 60.5q0 55 39 126t101.5 148.5t131 153.5t130.5 139q-31 0 -67 -16.5t-73 -38.5q-57 -39 -125.5 -102.5t-136 -136t-127.5 -140.5q-33 -51 -59.5 -96t-36.5 -78q-41 16 -41 59q0 33 18 76q37 82 96.5 164t128 161t128.5 150 q-37 0 -92.5 -31.5t-109.5 -72.5t-87 -76q-43 -45 -101.5 -112.5t-114.5 -134t-91 -113.5q-37 -49 -50.5 -76t-17.5 -33q-33 0 -33 39z" />
<glyph unicode="n" horiz-adv-x="602" d="M-68 41q0 41 26 98.5t44 89.5q53 90 122 189.5t128 175.5q31 41 65.5 60.5t58.5 24.5l25 5q-12 -18 -51 -77.5t-90 -139.5t-104 -162q84 96 180 187.5t184 148.5q27 18 55.5 30.5t59.5 12.5q55 0 55 -43q0 -33 -39 -78q-47 -55 -102 -122.5t-105.5 -137.5t-82 -129 t-31.5 -96q0 -20 11 -29.5t19 -9.5q31 0 69 24.5t74 58.5t63.5 64.5t35.5 40.5q8 0 8 -12q0 -18 -8 -29q-29 -31 -76 -75.5t-100 -78.5t-102 -34q-43 0 -61.5 23.5t-18.5 60.5q0 55 39 126t101 148.5t131 153.5t130 139q-31 0 -66.5 -16.5t-72.5 -38.5q-55 -37 -121 -98.5 t-131.5 -131t-124.5 -137.5q-47 -55 -74.5 -92t-47 -66.5t-42.5 -66.5q-33 0 -33 39z" />
<glyph unicode="o" horiz-adv-x="528" d="M-31 94q0 57 34 135t91.5 158t129 148.5t146 110.5t144.5 42q51 0 73.5 -26.5t22.5 -69.5q0 -57 -32.5 -136t-89 -160t-125 -150.5t-142 -112.5t-141.5 -43q-59 0 -85 29.5t-26 74.5zM66 68q0 -39 38 -39q43 0 103.5 44t124 113.5t118 148.5t88 149.5t33.5 115.5 q0 49 -47 49q-39 0 -97 -46t-120.5 -117.5t-118 -151.5t-89 -151.5t-33.5 -114.5z" />
<glyph unicode="p" horiz-adv-x="772" d="M-717 -424q23 -18 51 -28q24 -7 56 -7h14q119 0 222.5 65.5t193.5 171t168 224.5q125 186 237.5 377.5t235.5 370.5q29 -2 28 -41q0 -51 -51 -154.5t-141 -243.5q-8 -10 -14.5 -22.5t-14.5 -24.5q61 72 128 146.5t132.5 137t127 101.5t112.5 39q66 0 66 -80 q0 -49 -31 -122.5t-94 -155.5q-39 -51 -97.5 -109.5t-127 -111t-140.5 -85t-139 -32.5q-55 0 -66 20q-4 6 -1 10.5t5 4.5l11 -2q10 -2 24 -2q49 0 112.5 34.5t134.5 94t134 133.5q70 78 117 154.5t61 125.5q4 16 4 27q0 16 -7 27.5t-27 7.5q-51 -12 -123 -71.5t-150 -141.5 t-148.5 -165t-123.5 -145q-76 -115 -173.5 -236.5t-209 -216.5t-234.5 -132q-38 -15 -112 -15q-55 0 -92 13q-16 8 -34 22.5t-24 36.5z" />
<glyph unicode="q" horiz-adv-x="636" d="M-90 -508q0 57 41 144.5t103.5 187.5t127 197.5t111.5 175.5q-43 -57 -84 -95q-45 -41 -86 -70.5t-86 -33.5h-6q-70 0 -70 86q0 49 28.5 117.5t86.5 144.5q41 51 100.5 109.5t130 112t144 87t143.5 33.5q31 0 43 -9t16 -20q4 -8 1 -12t-7 -2q-8 4 -33 4q-74 0 -175 -70.5 t-199 -183.5q-70 -78 -115 -152.5t-59 -123.5q-4 -16 -5 -29q0 -29 23 -29q14 0 38.5 13.5t63.5 46.5q61 53 132 129t144 156.5t140.5 146t122.5 94.5q68 37 94.5 42t42.5 5q-33 -20 -77 -62t-110.5 -118t-162.5 -198.5t-236 -309.5q-82 -109 -150.5 -223.5t-117.5 -208.5 t-69 -143q-29 16 -29 61z" />
<glyph unicode="r" horiz-adv-x="505" d="M-262 20q33 0 97.5 46.5t164.5 160.5q121 139 228.5 300t193.5 335h2q27 0 27 -51q0 -47 -33 -111q-8 -14 -25 -38q41 -8 82 -11.5t76 -3.5q29 0 53.5 2t38.5 6q18 0 19.5 -7t-3.5 -11q-8 -8 -33.5 -37t-57 -62.5t-58.5 -63.5t-39 -44q-63 -76 -125.5 -166t-87.5 -162 q-8 -18 -8 -34q0 -29 26 -29q29 0 72 33.5t87 79t71 75.5q8 0 8 -12q0 -18 -8 -29q-94 -111 -152.5 -150.5t-107.5 -39.5q-51 0 -72.5 26.5t-21.5 65.5q0 25 6 49q12 61 61 129t116.5 135.5t138.5 123t126 91.5q-25 -4 -63 -4q-45 0 -94.5 5.5t-67.5 17.5q-8 -14 -40 -54 t-78 -95.5t-95 -113t-92 -107.5t-70 -79q-27 -31 -73 -72.5t-92 -74.5t-77 -33q-14 0 -17 6t-3 8z" />
<glyph unicode="s" horiz-adv-x="520" d="M-29 141q0 53 26 82t54 29q23 29 62 81t87 115.5t99 128t96 115.5q29 29 60.5 61.5t71.5 56.5t85 24q35 0 50.5 -16.5t15.5 -39.5q0 -12 -6 -22q-6 1 -13 1q-21 -1 -51 -9q-41 -12 -90 -39q-53 -33 -108 -82q-2 -25 -5.5 -75t-7.5 -112.5t-13 -125t-24 -109.5 q-10 -33 -32.5 -73t-60.5 -73.5t-93 -46.5q74 0 123 22.5t83 52.5t54 48q16 16 45 47t41 45q8 0 8 -12q0 -18 -8 -29q-86 -92 -143 -135q-51 -39 -104.5 -52t-102.5 -13q-41 0 -79 8t-66 29q-23 16 -38.5 44.5t-15.5 73.5zM37 113q0 -39 16 -63.5t45 -24.5q35 0 65 27.5 t54.5 65.5t38.5 70q23 49 47.5 125t47 155t36.5 136q-57 -55 -113.5 -120.5t-103.5 -125t-78 -98.5q-27 -35 -41 -74t-14 -73z" />
<glyph unicode="t" horiz-adv-x="337" d="M-45 80q0 68 49 153q29 49 79 114t113.5 137.5t127.5 142.5h-138l23 28h141q57 59 107.5 111.5t83.5 85.5q90 90 166.5 137t121.5 47q-33 -29 -95 -90t-137 -137t-146 -154h141l-23 -28h-143q-39 -45 -73 -84t-58 -74q-96 -131 -155.5 -215t-78.5 -127q-14 -35 -14 -57 q0 -39 37 -39q31 0 66 20q51 29 103 83t85 93q8 0 8 -12q0 -18 -8 -29q-78 -90 -145.5 -142t-145.5 -52q-51 0 -71.5 24.5t-20.5 63.5z" />
<glyph unicode="u" horiz-adv-x="643" d="M-45 80q0 35 15.5 77t37.5 83q39 66 89 132t102.5 123.5t93.5 98.5q39 39 80 57.5t71 25.5l29 7q-45 -51 -122 -145.5t-154 -200.5q-8 -10 -30 -43t-46.5 -73t-42 -78t-17.5 -60q0 -23 25 -21q27 2 70 39t92 90.5t93 105.5t73 87q23 27 55.5 67t67 83t63.5 75 q33 37 70 52.5t64 18.5l28 3q-16 -20 -64.5 -79.5t-108 -140.5t-112.5 -168t-82 -165q-14 -35 -14 -57q0 -20 10 -27.5t23 -7.5q29 0 64.5 24.5t69.5 58.5t60.5 64.5t34.5 40.5q8 0 8 -12q0 -18 -8 -29q-31 -37 -75 -80t-92 -74.5t-95 -31.5q-51 0 -71.5 24.5t-20.5 61.5 q0 35 14 77t35 79q-25 -25 -58.5 -65t-74.5 -81t-82 -68.5t-78 -27.5q-49 0 -69.5 22.5t-20.5 57.5z" />
<glyph unicode="v" horiz-adv-x="561" d="M-45 76q0 35 16.5 76t38.5 81q39 66 97.5 131.5t121 121t109.5 92.5q45 39 94 61q-27 -2 -52.5 -4t-47.5 -4q-43 -2 -79 -9.5t-67 -25.5q10 35 44 58.5t69 25.5q18 2 39.5 2t46.5 -2q51 -4 94 -4q12 0 29.5 2t28.5 10q0 -20 -31 -35q-12 -6 -24.5 -12t-20.5 -12 q-20 -14 -40 -32.5t-40 -39.5q-158 -154 -275 -360q-18 -33 -31.5 -63t-13.5 -48q0 -23 25 -23q37 0 92 35t121 94.5t129 135.5q23 27 58.5 78t67.5 100t42 67q47 79 93 97q37 14 70 15q7 0 15 -1q-14 -20 -52 -67.5t-88 -106.5t-100.5 -117.5t-90.5 -103.5t-56 -64 q-53 -55 -109.5 -107t-115 -85t-117.5 -33q-49 0 -69.5 21.5t-20.5 54.5z" />
<glyph unicode="w" horiz-adv-x="897" d="M-45 76q0 35 16.5 76t38.5 81q39 66 97.5 131.5t121 121t109.5 92.5q45 39 94 61q-27 -2 -52.5 -4t-47.5 -4q-43 -2 -79 -9.5t-67 -25.5q10 35 44 58.5t69 25.5q18 2 39.5 2t46.5 -2q51 -4 94 -4q12 0 29.5 2t28.5 10q0 -20 -31 -35q-12 -6 -24.5 -12t-20.5 -12 q-20 -14 -40 -32.5t-40 -39.5q-158 -154 -275 -360q-18 -33 -31.5 -63t-13.5 -50q0 -23 25 -21q27 4 98 66q41 35 93.5 86t103.5 111l123 129q39 41 72.5 77.5t62.5 61.5q41 36 84 60q40 22 81 22h7q-25 -14 -64.5 -52t-70.5 -75q-51 -57 -104.5 -131t-98.5 -153t-72 -156 q-6 -14 -6 -25q0 -23 25 -21q37 0 92 35t120.5 94.5t129.5 135.5q23 27 58.5 78t67.5 100t42 67q47 79 94 97q38 14 71 15q8 0 15 -1q-14 -20 -53 -67.5t-89 -106.5t-100.5 -117.5t-90.5 -103.5t-56 -64q-53 -55 -109.5 -107t-115 -85t-117.5 -33q-49 0 -68.5 21.5 t-19.5 54.5t15.5 75t37.5 82l12 23q-41 -47 -94 -101.5t-82 -76.5q-39 -35 -74.5 -56.5t-60.5 -21.5q-49 0 -69.5 21.5t-20.5 54.5z" />
<glyph unicode="x" horiz-adv-x="657" d="M-266 2l6 4t18 10q72 35 131.5 90.5t110.5 120.5q96 123 178 238t170 180q51 37 105 37q33 0 55 -17.5t22 -56.5q0 -45 -34 -112q-6 -8 -11.5 -19.5t-11.5 -21.5q45 49 105.5 105t122 97t106.5 41q23 0 34 -13t11 -30q0 -12 -6 -24.5t-23 -18.5q-14 14 -39 15 q-20 0 -45.5 -9.5t-52.5 -21.5q-70 -37 -138.5 -105.5t-121.5 -140.5q-27 -63 -48.5 -128.5t-21.5 -117.5q0 -63 54 -63q29 0 67 20q51 29 95 74t85 92q8 0 9 -12q0 -18 -9 -29q-90 -104 -154.5 -146t-137.5 -42q-33 0 -69 26.5t-36 94.5q0 23 4 47t15 55 q-45 -63 -101.5 -125.5t-107.5 -97.5q-45 -31 -90 -31q-25 0 -40.5 14.5t-15.5 32.5q0 23 19 37q10 -10 39 -10q27 0 57.5 9t52.5 24q68 49 136.5 136t115.5 167q37 78 60.5 130t23.5 79q0 18 -14 24q-12 4 -19 4q-31 0 -67.5 -29.5t-76.5 -76.5t-77 -96l-174 -230 q-31 -33 -72 -76t-89 -74.5t-101 -31.5q-4 0 -4 2z" />
<glyph unicode="y" horiz-adv-x="579" d="M-365 -479q0 8 15 8q10 0 20.5 -1t20.5 -1q74 0 147.5 45t143 120t133 165t114.5 178l158 272q-27 -31 -69 -82t-91 -102t-96 -87t-88 -36q-49 0 -69.5 22.5t-20.5 57.5t15.5 76t37.5 82q39 66 89 132t102.5 124.5t93.5 99.5q39 39 80 57.5t71 25.5l29 7 q-45 -51 -122 -145.5t-154 -200.5q-8 -10 -30 -43t-46.5 -73t-42 -78t-17.5 -60q0 -23 25 -21q27 2 70 39t92 90.5t93 105.5t73 87q29 33 67.5 82t83.5 99t95.5 84t101.5 34q18 0 22 -4q-74 -35 -137 -113t-120.5 -182t-116 -220t-124 -227.5t-143.5 -201.5 q-92 -106 -197.5 -173t-201.5 -67q-59 0 -83 9.5t-24 15.5z" />
<glyph unicode="z" horiz-adv-x="516" d="M-573 -659q0 43 19 91t44 90t39 60q55 74 128 145.5t155 129t163 82.5q12 0 13 -7q-2 -2 -4 -8t-7 -8q-57 -18 -133.5 -72.5t-153.5 -128t-132 -153.5q-39 -53 -62.5 -106.5t-23.5 -98.5q0 -31 14 -51.5t51 -20.5q20 0 39 8q51 18 119.5 71.5t144.5 131.5t149.5 168 t133 182.5t95.5 176t36 147.5q0 37 -14 63q-16 -4 -36 -24.5t-42.5 -37.5t-48.5 -17q-39 0 -39 36q0 27 21.5 43.5t51 25.5t50.5 11l147 152q72 76 142.5 134t144.5 93q-39 0 -101.5 -8t-131 -26.5t-128 -53.5t-90.5 -88q-2 -10 -12 -20.5t-16 -10.5t-7 11q4 49 37 107 t80 99t94 41q51 0 111.5 -7t118.5 -7q47 0 88 4t61 12q-4 -14 -18.5 -28.5t-40.5 -20.5q-43 -25 -98.5 -73t-116 -106t-118.5 -112.5t-107 -89.5q59 -8 85.5 -51t26.5 -102q0 -82 -41 -178.5t-110.5 -193.5t-156.5 -186t-179 -159t-178 -111t-154 -41q-57 0 -79.5 26 t-22.5 65z" />
<glyph unicode="{" horiz-adv-x="514" d="M45 -100q0 20 12 47q27 57 70 119.5l86 125t70 119.5q18 43 18 72q0 33 -26.5 44t-73.5 13l14 17q70 6 117 22.5t87 53t87 104.5q53 76 98 151.5t109.5 135t173.5 84.5q25 6 68.5 9t76.5 3l-6 -16q-94 0 -154.5 -31t-102.5 -81t-81 -112.5t-88 -128.5q-37 -49 -90 -95 t-111.5 -75.5t-113.5 -29.5h-6q43 -4 68.5 -27t25.5 -59q0 -25 -17 -64q-25 -57 -66.5 -118.5t-83.5 -124t-69 -119.5q-12 -27 -12 -45q0 -35 26.5 -47.5t59.5 -13.5t47 -1l-20 -22q-41 0 -86.5 6t-76 25.5t-30.5 58.5z" />
<glyph unicode="|" horiz-adv-x="348" d="M57 -57l422 1161h43l-422 -1161h-43z" />
<glyph unicode="}" horiz-adv-x="675" d="M-158 -190l8 16q92 0 152.5 29.5t102.5 81t81 115t88 128.5q37 49 90.5 95.5t112 76t113.5 29.5h6q-45 4 -70.5 25.5t-25.5 60.5q0 29 14 59q29 59 71 121t83 123t65 119q12 31 12 49q0 33 -26.5 45t-57 13t-45.5 1l19 23q41 0 86 -6t76.5 -24.5t31.5 -57.5 q0 -18 -12 -47q-27 -59 -69.5 -122t-87 -124t-70.5 -121q-20 -43 -21 -74q0 -33 27 -44t76 -11l-15 -16q-68 -6 -114.5 -22.5t-87.5 -53.5t-90 -104q-51 -76 -96.5 -152t-109 -134.5t-171.5 -84.5q-25 -6 -69 -9t-77 -3z" />
<glyph unicode="~" horiz-adv-x="669" d="M299 913q0 8 4 17q16 29 44 49t61 20q37 0 59 -22.5t55 -22.5q35 0 56.5 19.5t37.5 38.5l1 -1t1 -3q0 -14 -8 -27q-10 -20 -37.5 -46t-68.5 -26q-31 0 -53.5 22.5t-57.5 22.5q-27 0 -51.5 -15.5t-40.5 -31.5q-2 2 -2 6z" />
<glyph unicode="&#xa1;" horiz-adv-x="569" d="M-119 -211l559 723h27l-440 -702q-20 -29 -52 -47.5t-59 -18.5q-43 0 -35 45zM471 645q0 33 32 59.5t62 26.5q37 0 37 -33q0 -29 -29.5 -57.5t-60.5 -30.5q-41 0 -41 35z" />
<glyph unicode="&#xa2;" horiz-adv-x="655" d="M143 -37l109 174q-51 14 -72.5 51t-21.5 88q0 70 36.5 146t99 147.5t136.5 129t148.5 91t138.5 33.5h2l72 105h40l-77 -115q20 -16 20 -55q0 -27 -8 -38t-18 -11q-6 0 -10.5 6t-0.5 14q4 6 4 12.5v10.5q0 18 -10 28l-412 -608q4 -2 11.5 -2h13.5q82 0 150 47q47 31 91 76 t79 84q4 0 4 -6q0 -8 -5.5 -21.5t-9.5 -21.5q-31 -39 -67.5 -76t-81.5 -68q-37 -25 -82 -40t-100 -15h-16.5t-14.5 2l-105 -168h-43zM270 258q1 -42 19 -65l407 598q-45 -2 -117.5 -61.5t-162.5 -164.5q-57 -72 -101.5 -150.5t-44.5 -156.5z" />
<glyph unicode="&#xa3;" horiz-adv-x="958" d="M6 51q0 8 10 19q4 4 21 4q14 0 28.5 -2t18.5 -4l66 -15q20 8 43.5 30.5t45 47.5t31.5 37q29 37 63 82t79 108h-164l22 27h162q12 16 23.5 33.5t23.5 34.5q59 86 135 166.5t161 133t175 52.5q35 0 73 -13.5t38 -66.5q-8 23 -39 26t-70 3q-68 0 -139.5 -55.5t-141 -140.5 t-132.5 -173h147l-22 -27h-146q-33 -47 -83 -112.5t-106.5 -120.5t-107.5 -78h4l107 -22q63 -14 136 -26.5t142 -12.5q43 0 82 7t72 23q43 23 69.5 58t26.5 71q0 8 -1 14.5t-3 12.5t-2 12t4 6q14 0 19 -18q8 -20 13 -39.5t5 -42.5q0 -33 -14.5 -63.5t-46.5 -57.5 q-27 -23 -60 -35t-67 -16q-31 -6 -66 -6q-82 0 -166 26.5t-153 47.5q-8 4 -39 11t-68 16.5t-68 17.5q-12 -2 -30.5 -5t-38.5 -3q-16 0 -31.5 2t-26.5 8q-14 6 -14 18z" />
<glyph unicode="&#xa4;" horiz-adv-x="933" d="M41 250q-2 4 2 8l193 145q-10 25 -11 54q0 59 40 125.5t97 105.5l-69 150q-2 4 3 7t7 -1l90 -133q41 25 83 39t83 14q82 0 117 -51l207 135q6 4 9 0t-3 -8l-199 -150q12 -27 12 -61q0 -66 -40.5 -124.5t-90.5 -98.5l68 -146q2 -4 -3 -7t-9 -1l-90 131q-82 -55 -168 -55 q-78 0 -119 53l-201 -131q-6 -4 -8 0zM303 487q0 -39 25.5 -64.5t70.5 -25.5q61 0 124 44t89 104q12 31 13 59q0 41 -25 66.5t-72 25.5q-49 0 -101 -30.5t-88 -77.5t-36 -101z" />
<glyph unicode="&#xa5;" horiz-adv-x="747" d="M0 0l18 23q53 0 98.5 11t71.5 46q23 27 41.5 51.5t34.5 54.5l17 31h-197l29 37h186q23 45 41 90h-199l29 37h182q14 41 17 65q6 33 8 65t2 62q0 23 -1 46.5t-3 44.5q-10 80 -21 94q-12 16 -75 16h-27l18 25q10 -2 99 -6q23 -2 49 -2h55q6 0 6 -41q0 -16 -1 -42t-3 -59 q-2 -68 -9 -128t-17 -113h6q51 51 111.5 107t129.5 120q70 59 113 96t63 51q6 6 33 6l166 7l-27 -25q-86 6 -155 -41q-25 -18 -70 -54t-97 -80t-100.5 -85t-79 -68.5t-34.5 -31.5q-12 -14 -27 -29h162l-29 -37h-161q-16 -23 -33 -45.5t-31 -44.5h197l-29 -37h-188 q-10 -14 -19 -31q-12 -23 -25.5 -47t-27.5 -55q-4 -12 -4 -18q0 -25 34.5 -34t73.5 -9l-24 -23h-377z" />
<glyph unicode="&#xa6;" horiz-adv-x="348" d="M57 -57l185 510h43l-185 -510h-43zM301 612l178 492h43l-178 -492h-43z" />
<glyph unicode="&#xa7;" horiz-adv-x="1363" d="M-25 -113q0 70 31 148t94 158q59 74 151.5 139t195 105t188.5 40q61 0 92 -27.5t31 -72.5q0 -70 -51.5 -138.5t-132 -124t-172 -89t-173.5 -33.5q-4 0 -4 6q0 4 3 11t8 9q72 0 154.5 36t159.5 90.5t125 117t48 117.5q0 70 -88 70t-173 -40t-160 -104.5t-131 -142.5 t-88 -155t-32 -140q0 -86 55.5 -143.5t174.5 -57.5q127 0 241.5 53.5t203.5 141.5t141.5 198.5t52.5 223.5q0 63 -19.5 127.5t-39 134t-19.5 145.5t32.5 148.5t91 127t134.5 72.5q35 109 119 184.5t198 75.5q41 0 73 -16t32 -59v-13q-4 -27 -23.5 -40t-36.5 -13q-8 0 -10 2 q10 20 10 49q0 57 -65 58q-76 0 -123 -46t-68.5 -107.5t-21.5 -108.5q0 -78 24.5 -150t49 -146.5t24.5 -158.5q0 -162 -91 -305.5t-237 -227.5q-72 -104 -177 -191t-232.5 -138.5t-268.5 -51.5q-150 0 -225.5 72t-75.5 180zM952 752q0 -84 21.5 -155t42 -140.5t20.5 -155.5 q0 -103 -41 -197q61 47 98 117t54.5 149t17.5 150q0 29 -2 53.5t-6 44.5q-14 74 -43 155t-29 169q0 33 7 64q-63 -27 -93 -71t-38.5 -92t-8.5 -91z" />
<glyph unicode="&#xa8;" horiz-adv-x="370" d="M25 823q0 29 23.5 50.5t49.5 21.5q23 0 35 -13.5t12 -33.5q0 -27 -22 -49.5t-49 -22.5q-20 0 -34.5 13.5t-14.5 33.5zM225 823q0 29 22.5 50.5t49.5 21.5q23 0 36 -13.5t13 -33.5q0 -27 -22.5 -49.5t-51.5 -22.5q-20 0 -33.5 13.5t-13.5 33.5z" />
<glyph unicode="&#xa9;" horiz-adv-x="1363" d="M207 481q0 18 1 37t3 37q14 117 71.5 219.5t144.5 180t195.5 121.5t225.5 44q143 0 256 -65.5t177.5 -178t64.5 -251.5q0 -16 -1.5 -34t-3.5 -36q-14 -117 -72.5 -219.5t-145.5 -180t-195.5 -121.5t-225.5 -44q-143 0 -254.5 65.5t-176 177t-64.5 248.5zM264 492 q0 -123 57.5 -224.5t159 -161t228.5 -59.5q113 0 216 46t185 125t129 181.5t47 214.5q0 125 -57.5 226.5t-157.5 161t-229 59.5q-104 0 -201.5 -40t-176.5 -109.5t-131 -161t-65 -195.5q-2 -14 -3 -30.5t-1 -32.5zM481 432q0 39 11.5 81t31.5 81q31 59 79 117.5t116.5 99.5 t152.5 45q66 0 115 -25q25 -14 35 -34.5t10 -42.5q0 -35 -18.5 -71t-45 -58.5t-55.5 -22.5q-14 0 -28.5 9.5t-14.5 23.5q0 18 25 41q25 25 40 55.5t15 54.5q0 29 -20 37q-14 6 -33 6q-63 0 -127 -53q-43 -35 -84 -84q-39 -47 -75 -126t-36 -150q0 -45 19 -80q12 -20 41 -40 t70 -22q59 -4 112 17.5t92 54.5q18 16 29.5 21.5t15.5 5.5q6 0 7 -6q0 -14 -29 -39q-49 -43 -109.5 -66.5t-132.5 -23.5q-106 0 -157.5 56t-51.5 138z" />
<glyph unicode="&#xaa;" horiz-adv-x="643" d="M117 805q0 31 17.5 73t49.5 87q33 41 85.5 89t113.5 82.5t117 34.5q41 0 41 -24q0 -10 -13 -10q-4 0 -9 1t-15 1q-39 -2 -97.5 -43t-115.5 -107q-49 -55 -78 -105t-29 -75q0 -14 11 -14q23 0 58.5 33.5t73.5 77.5t62 75q37 47 73 88t64 61q45 29 61.5 33t24.5 4q4 0 4 -3 v-3q-6 -6 -26.5 -32.5t-44 -57.5t-37.5 -51q-23 -31 -52.5 -74t-52 -82t-22.5 -61q0 -18 14 -19q20 0 56 31q6 6 25.5 26.5t37.5 40t21 19.5q6 0 6 -10q0 -18 -9 -27q-39 -43 -79.5 -79.5t-83.5 -36.5q-31 0 -43.5 15t-12.5 38q0 35 17 73q-35 -43 -83 -84.5t-83 -41.5 q-47 0 -47 57z" />
<glyph unicode="&#xab;" horiz-adv-x="839" d="M172 293q0 29 33 55l334 291q2 2 3 2h1q8 0 10 -11.5t-4 -19.5l-299 -315l160 -213q8 -14 8 -25q0 -14 -10 -14t-23 14l-207 213q-6 10 -6 23zM463 293q0 29 33 55l333 291q2 2 5 2q6 0 8 -11.5t-2 -19.5l-299 -315l159 -213q6 -12 7 -25q-1 -14 -11 -14q-8 0 -20 14 l-207 213q-6 10 -6 23z" />
<glyph unicode="&#xac;" horiz-adv-x="1126" d="M98 338q0 10 15.5 28.5t27.5 18.5h791l-72 -334q-4 -31 -37 -31q-10 0 -19 9.5t-7 21.5l57 268h-727q-8 0 -18.5 4.5t-10.5 14.5z" />
<glyph unicode="&#xad;" horiz-adv-x="382" d="M207 430l35 45h204l-34 -45h-205z" />
<glyph unicode="&#xae;" horiz-adv-x="944" d="M215 811q0 98 52 181t137 133.5t182 50.5q84 0 148.5 -38t101 -101.5t36.5 -143.5q0 -98 -53 -182t-137 -134.5t-180 -50.5q-82 0 -146.5 38t-102.5 102.5t-38 144.5zM260 815q0 -102 71 -174t175 -72q84 0 156.5 44t117.5 118t45 158q0 102 -69.5 173t-175.5 71 q-82 0 -156 -44.5t-119 -116t-45 -157.5zM324 692q2 2 10 4q18 4 43.5 43t54.5 93.5t52.5 103.5t35.5 70q4 10 15.5 16t19.5 12q-68 0 -120 -34.5t-70 -98.5q-2 -10 -7 -10q-2 0 -2 8q0 16 6 31q29 78 81.5 99.5t109.5 21.5q20 0 40.5 -1t41.5 -3q41 -2 61.5 -21.5 t20.5 -44.5q0 -35 -35 -71t-96 -46h-43q23 -49 57.5 -98t79.5 -49q23 0 45 16q-14 -16 -35 -35q-16 -8 -37 -8q-51 0 -90 52.5t-61 113.5l7 8t11 8q84 0 119 35t35 68q0 23 -12.5 38t-34.5 15q-31 0 -45.5 -10t-28.5 -35q-35 -51 -63.5 -109.5t-59.5 -119.5 q-16 -37 -23.5 -49.5t-29.5 -14.5h-41q-14 0 -12 2z" />
<glyph unicode="&#xaf;" horiz-adv-x="395" d="M0 805q0 10 12.5 28.5t24.5 18.5h354q4 0 4 -6q0 -12 -9 -30.5t-24 -18.5h-356q-6 0 -6 8z" />
<glyph unicode="&#xb0;" horiz-adv-x="645" d="M354 918q0 10 2 21t9 24q18 43 66 82.5t95 39.5q35 0 55.5 -17t20.5 -48q0 -37 -26.5 -75t-66.5 -63.5t-79 -25.5q-76 0 -76 62zM395 924q0 -35 35 -35q29 0 58.5 19.5t51 48t21.5 55.5q0 33 -35 32q-31 0 -67.5 -26.5t-52.5 -61.5q-10 -14 -11 -32z" />
<glyph unicode="&#xb1;" horiz-adv-x="851" d="M23 0l34 45h521l-33 -45h-522zM266 455l33 47h225l133 186h68l-133 -186h229l-35 -47h-229l-158 -222h-67l157 222h-223z" />
<glyph unicode="&#xb2;" horiz-adv-x="512" d="M68 635q0 16 28 24l10 7l50 30l92 52q33 23 73.5 54.5t73.5 63.5q23 23 55.5 62t57 83t24.5 79q0 41 -36 40q-51 0 -97.5 -33.5t-68.5 -70.5l-2 -4q-4 -2 -8.5 -6t-12.5 -4q-16 0 -16 14q41 80 108.5 112.5t118.5 32.5q104 0 105 -77q0 -45 -29 -89t-65.5 -80t-63.5 -59 l-16 -16q-63 -55 -136 -103.5t-143 -84.5q16 2 31.5 2h29.5q53 0 105.5 7t93.5 50l4 6q23 25 33 25q12 0 8 -19q-14 -78 -76 -110q-16 -8 -34.5 -12.5t-34.5 -4.5q-18 0 -37 3t-41 7q-4 2 -7 2t-7 3q-18 4 -38 7t-40 3q-16 0 -35 -4t-33 -9h-6q-18 0 -18 17z" />
<glyph unicode="&#xb3;" horiz-adv-x="507" d="M47 668q0 39 32 73.5t82 57t107 22.5q55 0 49 -22h-26q-35 0 -79 -17.5t-75 -46t-31 -61.5q0 -47 66 -47q82 0 153.5 58t100.5 146q4 10 6 22.5t2 23.5q0 33 -20 32l-3 -2t-14 -10q-10 -6 -23.5 -11t-25.5 -5q-37 0 -37 26q0 25 68 27q10 0 19.5 1t17.5 3q47 18 87 60 t40 87q0 41 -37 41q-51 0 -97.5 -33.5t-68.5 -70.5l-4 -4q-4 -10 -19 -10q-14 0 -14 14q41 82 107.5 113.5t117.5 31.5q96 0 97 -73q0 -37 -30 -72t-69 -60.5t-71 -37.5q61 -10 61 -74q0 -18 -6 -37q-23 -57 -78 -106.5t-125 -79t-133 -29.5q-127 0 -127 70z" />
<glyph unicode="&#xb4;" horiz-adv-x="270" d="M0 784q0 2 25.5 21.5t63.5 46.5t78 53.5t69.5 45t37.5 18.5q10 0 23.5 -11.5t13.5 -23.5t-40 -37t-94 -51.5t-102.5 -46t-66.5 -19.5q-8 0 -8 4z" />
<glyph unicode="&#xb5;" horiz-adv-x="643" d="M-340 -465q0 59 36 151.5t87 188.5q61 119 145 251t179.5 255t185.5 213q37 37 79 56.5t68 25.5q10 4 27 8h6q-45 -51 -122 -145.5t-154 -200.5q-8 -10 -30 -43t-46.5 -73t-42 -78t-17.5 -60q0 -23 25 -21q27 2 70 39t92 90.5t93 105.5t73 87q23 27 55.5 67t67 83 t63.5 75q33 37 70 52.5t64 18.5l28 3q-16 -20 -64.5 -79.5t-108 -140.5t-112.5 -168t-82 -165q-14 -35 -14 -57q0 -20 10 -27.5t23 -7.5q29 0 65.5 26.5t72.5 62.5t63.5 67.5t35.5 42.5q6 0 6 -7q0 -8 -6 -21t-8 -22q-31 -37 -75 -81t-92 -75.5t-95 -31.5q-51 0 -71.5 24.5 t-20.5 61.5q0 35 14 77t35 79q-25 -25 -58.5 -65t-74.5 -81t-82 -68.5t-78 -27.5q-49 0 -70 20q-4 -8 -10 -16t-12 -18q-59 -96 -114.5 -200.5t-94.5 -192t-53 -130.5q-31 16 -31 72z" />
<glyph unicode="&#xb6;" horiz-adv-x="1265" d="M23 0l639 817q-55 0 -101.5 39t-46.5 98q0 25 10.5 52.5t32.5 54.5q59 72 182 117t287 45h240l-29 -39h-72l-932 -1184h-51l932 1184h-110l-932 -1184h-49z" />
<glyph unicode="&#xb7;" horiz-adv-x="385" d="M242 412q0 33 31.5 59.5t64.5 26.5q37 0 37 -35q0 -33 -30.5 -58.5t-65.5 -25.5q-37 0 -37 33z" />
<glyph unicode="&#xb8;" horiz-adv-x="278" d="M0 -291q0 10 10 10q12 0 17 -12q16 -20 37.5 -27.5t41.5 -7.5q49 0 74 31t25 64q0 29 -16.5 49t-49.5 20q-27 0 -42 -6t-25 -6q-8 0 -15.5 5t-7.5 13t6 15q4 4 23.5 26.5t44 51t43 49t20.5 20.5q4 0 15.5 -1t9.5 -3t-18.5 -20.5t-34 -40t-27.5 -39t-2 -21.5q8 2 27 2 q41 0 82 -26.5t41 -75.5q0 -68 -53.5 -104.5t-110.5 -36.5q-39 0 -71 17t-44 54z" />
<glyph unicode="&#xb9;" horiz-adv-x="405" d="M86 582q29 45 68 104t80.5 122.5t79.5 119t65 92.5q-14 -8 -27.5 -18.5t-25.5 -18.5q-16 -10 -43 -19.5t-47.5 -11.5t-20.5 6l2 5q51 27 106.5 66.5t112.5 82.5l33 27q43 27 66 28q16 0 9 -17t-30 -48q-72 -100 -127 -189.5t-106 -173.5l-35 -57q-33 -51 -62.5 -72.5 t-81.5 -27.5h-16z" />
<glyph unicode="&#xba;" horiz-adv-x="528" d="M88 809q0 47 32 108.5t81 119t107.5 96t109.5 38.5q63 0 63 -63q0 -45 -29.5 -106.5t-77.5 -121t-104.5 -98.5t-107.5 -39q-39 0 -56.5 18.5t-17.5 47.5zM154 799q0 -23 20 -23q31 0 78 40t92 98.5t76 113.5t31 86q0 25 -23 25q-29 0 -75 -41t-92 -99.5t-76.5 -115 t-30.5 -84.5z" />
<glyph unicode="&#xbb;" horiz-adv-x="542" d="M174 46q-2 11 2 20l299 315l-160 213q-6 12 -6 24q0 14 10 15q8 0 21 -15l207 -212q6 -8 6 -23q0 -27 -33 -57l-334 -289q-2 -2 -4 -2q-6 0 -8 11zM463 46q-2 11 4 20l299 315l-160 213q-8 14 -8 24q0 14 10 15q10 0 23 -15l207 -212q6 -8 6 -23q0 -27 -33 -57l-334 -289 q-2 -2 -3 -2h-1q-8 0 -10 11z" />
<glyph unicode="&#xbc;" horiz-adv-x="1120" d="M41 0l897 1180h53l-897 -1180h-53zM86 582q29 45 68 104t80.5 122.5t79.5 119t65 92.5q-14 -8 -27.5 -18.5t-25.5 -18.5q-16 -10 -43 -19.5t-47.5 -11.5t-20.5 6l2 5q51 27 106.5 66.5t112.5 82.5l33 27q43 27 66 28q16 0 9 -17t-30 -48q-72 -100 -127 -189.5 t-106 -173.5l-35 -57q-33 -51 -62.5 -72.5t-81.5 -27.5h-16zM545 223v2q35 41 91 84t116 88q33 23 69.5 50.5t71.5 54.5q12 10 37.5 28.5t53.5 34t46 17.5q8 0 8 -9q0 -14 -28 -53q-39 -57 -78 -118.5t-84 -139.5q18 4 38.5 6t41.5 4l4 -4q0 -8 -16.5 -25.5t-32.5 -25.5h-64 l-80 -133q-33 -49 -60.5 -69.5t-80.5 -24.5h-4l-4 6q27 35 66.5 95.5t82.5 125.5h-157l-21 -2q-16 0 -16 8zM639 254l39 2h44t44 2l16 23q8 14 16.5 26t16.5 25q29 43 52.5 78.5t37.5 58.5q-66 -45 -141.5 -105.5t-124.5 -109.5z" />
<glyph unicode="&#xbd;" horiz-adv-x="1077" d="M41 0l897 1180h53l-897 -1180h-53zM86 582q29 45 68 104t80.5 122.5t79.5 119t65 92.5q-14 -8 -27.5 -18.5t-25.5 -18.5q-16 -10 -43 -19.5t-47.5 -11.5t-20.5 6l2 5q51 27 106.5 66.5t112.5 82.5l33 27q43 27 66 28q16 0 9 -17t-30 -48q-72 -100 -127 -189.5 t-106 -173.5l-35 -57q-33 -51 -62.5 -72.5t-81.5 -27.5h-16zM481 23q0 16 29 24l10 6l49 31l93 51q33 23 73.5 54.5t73.5 64.5q23 23 55.5 61.5t57 82.5t24.5 79q0 41 -37 41q-51 0 -97 -33.5t-69 -70.5l-2 -4q-4 -2 -8 -6.5t-12 -4.5q-16 0 -16 15q41 80 108.5 112.5 t118.5 32.5q104 0 104 -78q0 -45 -28.5 -89t-65.5 -80t-63 -58l-17 -16q-63 -55 -136 -103.5t-142 -85.5q16 2 31.5 2h29.5q53 0 105.5 7.5t93.5 50.5l4 6q23 25 33 24q12 0 8 -18q-14 -78 -76 -111q-16 -8 -35 -12t-35 -4q-18 0 -36.5 3t-40.5 7q-4 2 -7.5 2t-7.5 2 q-18 4 -37.5 7t-40.5 3q-16 0 -34.5 -4t-32.5 -8h-6q-18 0 -19 17z" />
<glyph unicode="&#xbe;" horiz-adv-x="1220" d="M47 668q0 39 32 73.5t82 57t107 22.5q55 0 49 -22h-26q-35 0 -79 -17.5t-75 -46t-31 -61.5q0 -47 66 -47q82 0 153.5 58t100.5 146q4 10 6 22.5t2 23.5q0 33 -20 32l-3 -2t-14 -10q-10 -6 -23.5 -11t-25.5 -5q-37 0 -37 26q0 25 68 27q10 0 19.5 1t17.5 3q47 18 87 60 t40 87q0 41 -37 41q-51 0 -97.5 -33.5t-68.5 -70.5l-4 -4q-4 -10 -19 -10q-14 0 -14 14q41 82 107.5 113.5t117.5 31.5q96 0 97 -73q0 -37 -30 -72t-69 -60.5t-71 -37.5q61 -10 61 -74q0 -18 -6 -37q-23 -57 -78 -106.5t-125 -79t-133 -29.5q-127 0 -127 70zM141 0l897 1180 h54l-897 -1180h-54zM645 223v2q35 41 91.5 84t115.5 88q33 23 69.5 50.5t71.5 54.5q12 10 38 28.5t53.5 34t45.5 17.5q8 0 9 -9q0 -14 -29 -53q-39 -57 -78 -118.5t-84 -139.5q18 4 39 6t41 4l4 -4q0 -8 -16.5 -25.5t-32.5 -25.5h-63l-80 -133q-33 -49 -60.5 -69.5 t-81.5 -24.5h-4l-4 6q27 35 67 95.5t83 125.5h-158l-20 -2q-16 0 -17 8zM739 254l39 2h44.5t43.5 2l17 23q8 14 16 26t16 25q29 43 52.5 78.5t38.5 58.5q-66 -45 -142 -105.5t-125 -109.5z" />
<glyph unicode="&#xbf;" horiz-adv-x="706" d="M-86 -176q0 86 46 157.5t119 133t151.5 115t144.5 102.5q20 16 50 46t59.5 62.5t45.5 55.5q-14 -61 -54 -122t-120 -124q-137 -102 -232 -213t-95 -221q0 -78 73 -78q61 0 121 45t99.5 110.5t39.5 129.5q0 35 -14 50t-14 17q0 4 14 4q35 0 52.5 -29.5t17.5 -62.5 q0 -63 -38 -121.5t-97.5 -104.5t-125 -72t-120.5 -26t-89 41t-34 105zM535 645q0 29 28.5 57.5t61.5 28.5q39 0 39 -33q0 -6 -5 -22q-10 -25 -35.5 -45.5t-50.5 -20.5q-39 0 -38 35z" />
<glyph unicode="&#xc0;" horiz-adv-x="1337" d="M-119 166q0 96 76 198.5t209 163.5q115 51 240.5 75t261.5 24q96 0 190 -7.5t189 -19.5q102 113 206.5 214t208 175t205.5 96q-57 0 -141 7.5t-179.5 15.5t-191.5 8q-139 0 -261 -28.5t-187 -118.5q-18 -27 -26.5 -51.5t-8.5 -47.5q0 -29 12 -51q8 -8 18.5 -17t18.5 -9 q-8 -8 -21 -9q-14 0 -27.5 7.5t-21.5 15.5q-20 23 -30.5 52.5t-10.5 58.5q0 57 27 96q59 78 148 114.5t225 36.5h33.5t33.5 -2q154 -8 301.5 -30.5t313.5 -22.5q90 0 162.5 9t95.5 34h4q25 0 24 -27q-2 -35 -35.5 -47t-74.5 -12q-33 0 -64.5 4t-52.5 6q-102 -6 -214 -76.5 t-224.5 -178t-222.5 -228.5q37 -6 74.5 -12.5t74.5 -14.5q68 84 139.5 162t139.5 143q45 45 98 86t104.5 69t89.5 28q-27 -20 -82 -74.5t-102 -106.5q-57 -63 -132 -149t-146 -178q39 -8 76.5 -16.5t76.5 -18.5q16 -2 17 -12q0 -4 -7.5 -8.5t-17.5 -2.5l-166 33 q-82 -102 -148.5 -196.5t-95.5 -149.5q-14 -27 -24 -54.5t-10 -49.5q0 -41 34 -41q23 0 62 20q59 35 105 82t87 94q8 0 9 -12q0 -18 -9 -29q-94 -111 -156.5 -150.5t-138.5 -39.5q-49 0 -70.5 23.5t-21.5 58.5t15.5 76t38.5 79q41 72 96 151t119 159q-39 6 -77 12t-79 10 q-84 -94 -166 -184t-158 -164t-157.5 -138.5t-178 -103t-217.5 -38.5q-74 0 -143.5 24.5t-115.5 74.5t-46 130zM-72 205q0 -78 68 -134.5t199 -56.5q70 0 145.5 16.5t164.5 65.5t195 146q78 72 158 156.5t162 172.5q-55 6 -111.5 10.5t-113.5 4.5q-156 0 -319 -15.5 t-314 -87.5q-117 -51 -175.5 -129t-58.5 -149zM1626 1392q0 12 13.5 23.5t23.5 11.5q8 0 41 -19.5t78 -49t87 -60.5t70.5 -51.5t28.5 -22.5q0 -4 -8 -4q-14 0 -52 14.5t-85 37t-92 47t-75 45t-30 28.5z" />
<glyph unicode="&#xc1;" horiz-adv-x="1337" d="M-119 166q0 96 76 198.5t209 163.5q115 51 240.5 75t261.5 24q96 0 190 -7.5t189 -19.5q102 113 206.5 214t208 175t205.5 96q-57 0 -141 7.5t-179.5 15.5t-191.5 8q-139 0 -261 -28.5t-187 -118.5q-18 -27 -26.5 -51.5t-8.5 -47.5q0 -29 12 -51q8 -8 18.5 -17t18.5 -9 q-8 -8 -21 -9q-14 0 -27.5 7.5t-21.5 15.5q-20 23 -30.5 52.5t-10.5 58.5q0 57 27 96q59 78 148 114.5t225 36.5h33.5t33.5 -2q154 -8 301.5 -30.5t313.5 -22.5q90 0 162.5 9t95.5 34h4q25 0 24 -27q-2 -35 -35.5 -47t-74.5 -12q-33 0 -64.5 4t-52.5 6q-102 -6 -214 -76.5 t-224.5 -178t-222.5 -228.5q37 -6 74.5 -12.5t74.5 -14.5q68 84 139.5 162t139.5 143q45 45 98 86t104.5 69t89.5 28q-27 -20 -82 -74.5t-102 -106.5q-57 -63 -132 -149t-146 -178q39 -8 76.5 -16.5t76.5 -18.5q16 -2 17 -12q0 -4 -7.5 -8.5t-17.5 -2.5l-166 33 q-82 -102 -148.5 -196.5t-95.5 -149.5q-14 -27 -24 -54.5t-10 -49.5q0 -41 34 -41q23 0 62 20q59 35 105 82t87 94q8 0 9 -12q0 -18 -9 -29q-94 -111 -156.5 -150.5t-138.5 -39.5q-49 0 -70.5 23.5t-21.5 58.5t15.5 76t38.5 79q41 72 96 151t119 159q-39 6 -77 12t-79 10 q-84 -94 -166 -184t-158 -164t-157.5 -138.5t-178 -103t-217.5 -38.5q-74 0 -143.5 24.5t-115.5 74.5t-46 130zM-72 205q0 -78 68 -134.5t199 -56.5q70 0 145.5 16.5t164.5 65.5t195 146q78 72 158 156.5t162 172.5q-55 6 -111.5 10.5t-113.5 4.5q-156 0 -319 -15.5 t-314 -87.5q-117 -51 -175.5 -129t-58.5 -149zM1673 1224q0 2 29 22.5t71 51.5t87 60.5t77.5 49t40.5 19.5q10 0 23.5 -11t13.5 -24q0 -8 -29.5 -28.5t-74.5 -45t-92 -47t-85.5 -37t-52.5 -14.5q-8 0 -8 4z" />
<glyph unicode="&#xc2;" horiz-adv-x="1337" d="M-119 166q0 96 76 198.5t209 163.5q115 51 240.5 75t261.5 24q96 0 190 -7.5t189 -19.5q102 113 206.5 214t208 175t205.5 96q-57 0 -141 7.5t-179.5 15.5t-191.5 8q-139 0 -261 -28.5t-187 -118.5q-18 -27 -26.5 -51.5t-8.5 -47.5q0 -29 12 -51q8 -8 18.5 -17t18.5 -9 q-8 -8 -21 -9q-14 0 -27.5 7.5t-21.5 15.5q-20 23 -30.5 52.5t-10.5 58.5q0 57 27 96q59 78 148 114.5t225 36.5h33.5t33.5 -2q154 -8 301.5 -30.5t313.5 -22.5q90 0 162.5 9t95.5 34h4q25 0 24 -27q-2 -35 -35.5 -47t-74.5 -12q-33 0 -64.5 4t-52.5 6q-102 -6 -214 -76.5 t-224.5 -178t-222.5 -228.5q37 -6 74.5 -12.5t74.5 -14.5q68 84 139.5 162t139.5 143q45 45 98 86t104.5 69t89.5 28q-27 -20 -82 -74.5t-102 -106.5q-57 -63 -132 -149t-146 -178q39 -8 76.5 -16.5t76.5 -18.5q16 -2 17 -12q0 -4 -7.5 -8.5t-17.5 -2.5l-166 33 q-82 -102 -148.5 -196.5t-95.5 -149.5q-14 -27 -24 -54.5t-10 -49.5q0 -41 34 -41q23 0 62 20q59 35 105 82t87 94q8 0 9 -12q0 -18 -9 -29q-94 -111 -156.5 -150.5t-138.5 -39.5q-49 0 -70.5 23.5t-21.5 58.5t15.5 76t38.5 79q41 72 96 151t119 159q-39 6 -77 12t-79 10 q-84 -94 -166 -184t-158 -164t-157.5 -138.5t-178 -103t-217.5 -38.5q-74 0 -143.5 24.5t-115.5 74.5t-46 130zM-72 205q0 -78 68 -134.5t199 -56.5q70 0 145.5 16.5t164.5 65.5t195 146q78 72 158 156.5t162 172.5q-55 6 -111.5 10.5t-113.5 4.5q-156 0 -319 -15.5 t-314 -87.5q-117 -51 -175.5 -129t-58.5 -149zM1567 1218q0 2 31.5 22.5t76.5 48.5t90 54.5t74 40.5q8 4 20 4q8 0 34 -24.5t55.5 -57t50 -59.5t20.5 -29q-4 -4 -10 -4q-16 0 -52 18.5t-72 44t-54 42.5q-29 -12 -81 -38t-102 -46.5t-75 -20.5q-10 0 -6 4z" />
<glyph unicode="&#xc3;" horiz-adv-x="1337" d="M-119 166q0 96 76 198.5t209 163.5q115 51 240.5 75t261.5 24q96 0 190 -7.5t189 -19.5q102 113 206.5 214t208 175t205.5 96q-57 0 -141 7.5t-179.5 15.5t-191.5 8q-139 0 -261 -28.5t-187 -118.5q-18 -27 -26.5 -51.5t-8.5 -47.5q0 -29 12 -51q8 -8 18.5 -17t18.5 -9 q-8 -8 -21 -9q-14 0 -27.5 7.5t-21.5 15.5q-20 23 -30.5 52.5t-10.5 58.5q0 57 27 96q59 78 148 114.5t225 36.5h33.5t33.5 -2q154 -8 301.5 -30.5t313.5 -22.5q90 0 162.5 9t95.5 34h4q25 0 24 -27q-2 -35 -35.5 -47t-74.5 -12q-33 0 -64.5 4t-52.5 6q-102 -6 -214 -76.5 t-224.5 -178t-222.5 -228.5q37 -6 74.5 -12.5t74.5 -14.5q68 84 139.5 162t139.5 143q45 45 98 86t104.5 69t89.5 28q-27 -20 -82 -74.5t-102 -106.5q-57 -63 -132 -149t-146 -178q39 -8 76.5 -16.5t76.5 -18.5q16 -2 17 -12q0 -4 -7.5 -8.5t-17.5 -2.5l-166 33 q-82 -102 -148.5 -196.5t-95.5 -149.5q-14 -27 -24 -54.5t-10 -49.5q0 -41 34 -41q23 0 62 20q59 35 105 82t87 94q8 0 9 -12q0 -18 -9 -29q-94 -111 -156.5 -150.5t-138.5 -39.5q-49 0 -70.5 23.5t-21.5 58.5t15.5 76t38.5 79q41 72 96 151t119 159q-39 6 -77 12t-79 10 q-84 -94 -166 -184t-158 -164t-157.5 -138.5t-178 -103t-217.5 -38.5q-74 0 -143.5 24.5t-115.5 74.5t-46 130zM-72 205q0 -78 68 -134.5t199 -56.5q70 0 145.5 16.5t164.5 65.5t195 146q78 72 158 156.5t162 172.5q-55 6 -111.5 10.5t-113.5 4.5q-156 0 -319 -15.5 t-314 -87.5q-117 -51 -175.5 -129t-58.5 -149zM1608 1245q20 63 57 89t82 26q35 0 69 -18.5t65.5 -38t58.5 -19.5q29 0 54.5 19.5t39.5 49.5q6 12 14 13q14 0 9 -21q-41 -121 -162 -121q-33 0 -64.5 19.5t-61.5 38t-59 18.5q-33 0 -48 -15.5t-33 -43.5q-4 -8 -14.5 -8 t-6.5 12z" />
<glyph unicode="&#xc4;" horiz-adv-x="1337" d="M-119 166q0 96 76 198.5t209 163.5q115 51 240.5 75t261.5 24q96 0 190 -7.5t189 -19.5q102 113 206.5 214t208 175t205.5 96q-57 0 -141 7.5t-179.5 15.5t-191.5 8q-139 0 -261 -28.5t-187 -118.5q-18 -27 -26.5 -51.5t-8.5 -47.5q0 -29 12 -51q8 -8 18.5 -17t18.5 -9 q-8 -8 -21 -9q-14 0 -27.5 7.5t-21.5 15.5q-20 23 -30.5 52.5t-10.5 58.5q0 57 27 96q59 78 148 114.5t225 36.5h33.5t33.5 -2q154 -8 301.5 -30.5t313.5 -22.5q90 0 162.5 9t95.5 34h4q25 0 24 -27q-2 -35 -35.5 -47t-74.5 -12q-33 0 -64.5 4t-52.5 6q-102 -6 -214 -76.5 t-224.5 -178t-222.5 -228.5q37 -6 74.5 -12.5t74.5 -14.5q68 84 139.5 162t139.5 143q45 45 98 86t104.5 69t89.5 28q-27 -20 -82 -74.5t-102 -106.5q-57 -63 -132 -149t-146 -178q39 -8 76.5 -16.5t76.5 -18.5q16 -2 17 -12q0 -4 -7.5 -8.5t-17.5 -2.5l-166 33 q-82 -102 -148.5 -196.5t-95.5 -149.5q-14 -27 -24 -54.5t-10 -49.5q0 -41 34 -41q23 0 62 20q59 35 105 82t87 94q8 0 9 -12q0 -18 -9 -29q-94 -111 -156.5 -150.5t-138.5 -39.5q-49 0 -70.5 23.5t-21.5 58.5t15.5 76t38.5 79q41 72 96 151t119 159q-39 6 -77 12t-79 10 q-84 -94 -166 -184t-158 -164t-157.5 -138.5t-178 -103t-217.5 -38.5q-74 0 -143.5 24.5t-115.5 74.5t-46 130zM-72 205q0 -78 68 -134.5t199 -56.5q70 0 145.5 16.5t164.5 65.5t195 146q78 72 158 156.5t162 172.5q-55 6 -111.5 10.5t-113.5 4.5q-156 0 -319 -15.5 t-314 -87.5q-117 -51 -175.5 -129t-58.5 -149zM1670 1263q0 29 23.5 50.5t49.5 21.5q23 0 35 -13.5t12 -33.5q0 -27 -22 -49.5t-49 -22.5q-20 0 -34.5 13.5t-14.5 33.5zM1870 1263q0 29 22.5 50.5t49.5 21.5q23 0 36 -13.5t13 -33.5q0 -27 -22.5 -49.5t-51.5 -22.5 q-20 0 -33.5 13.5t-13.5 33.5z" />
<glyph unicode="&#xc5;" horiz-adv-x="1337" d="M-119 166q0 96 76 198.5t209 163.5q115 51 240.5 75t261.5 24q96 0 190 -7.5t189 -19.5q102 113 206.5 214t208 175t205.5 96q-57 0 -141 7.5t-179.5 15.5t-191.5 8q-139 0 -261 -28.5t-187 -118.5q-18 -27 -26.5 -51.5t-8.5 -47.5q0 -29 12 -51q8 -8 18.5 -17t18.5 -9 q-8 -8 -21 -9q-14 0 -27.5 7.5t-21.5 15.5q-20 23 -30.5 52.5t-10.5 58.5q0 57 27 96q59 78 148 114.5t225 36.5h33.5t33.5 -2q154 -8 301.5 -30.5t313.5 -22.5q90 0 162.5 9t95.5 34h4q25 0 24 -27q-2 -35 -35.5 -47t-74.5 -12q-33 0 -64.5 4t-52.5 6q-102 -6 -214 -76.5 t-224.5 -178t-222.5 -228.5q37 -6 74.5 -12.5t74.5 -14.5q68 84 139.5 162t139.5 143q45 45 98 86t104.5 69t89.5 28q-27 -20 -82 -74.5t-102 -106.5q-57 -63 -132 -149t-146 -178q39 -8 76.5 -16.5t76.5 -18.5q16 -2 17 -12q0 -4 -7.5 -8.5t-17.5 -2.5l-166 33 q-82 -102 -148.5 -196.5t-95.5 -149.5q-14 -27 -24 -54.5t-10 -49.5q0 -41 34 -41q23 0 62 20q59 35 105 82t87 94q8 0 9 -12q0 -18 -9 -29q-94 -111 -156.5 -150.5t-138.5 -39.5q-49 0 -70.5 23.5t-21.5 58.5t15.5 76t38.5 79q41 72 96 151t119 159q-39 6 -77 12t-79 10 q-84 -94 -166 -184t-158 -164t-157.5 -138.5t-178 -103t-217.5 -38.5q-74 0 -143.5 24.5t-115.5 74.5t-46 130zM-72 205q0 -78 68 -134.5t199 -56.5q70 0 145.5 16.5t164.5 65.5t195 146q78 72 158 156.5t162 172.5q-55 6 -111.5 10.5t-113.5 4.5q-156 0 -319 -15.5 t-314 -87.5q-117 -51 -175.5 -129t-58.5 -149zM1721 1304q0 43 27.5 79t68.5 57.5t84 21.5t72.5 -24.5t29.5 -61.5q0 -68 -56 -114t-122 -46q-43 0 -73.5 24.5t-30.5 63.5zM1792 1300q0 -53 41 -53q39 0 70 43t31 88q0 51 -41 51q-35 0 -68 -38t-33 -91z" />
<glyph unicode="&#xc6;" horiz-adv-x="1988" d="M-119 166q0 96 76 198.5t209 163.5q115 51 240.5 75t261.5 24q94 0 188 -7.5t188 -19.5q104 113 208 214t208.5 175t206.5 96q-57 0 -141 7.5t-179.5 15.5t-191.5 8q-139 0 -261 -28.5t-187 -118.5q-18 -27 -26.5 -51.5t-8.5 -47.5q0 -29 12 -51q8 -8 18.5 -17t18.5 -9 q-8 -8 -21 -9q-14 0 -27.5 7.5t-21.5 15.5q-20 23 -30.5 52.5t-10.5 58.5q0 57 27 96q59 78 148 114.5t225 36.5h33.5t33.5 -2q154 -8 301.5 -30.5t313.5 -22.5q90 0 162.5 9t95.5 34h4q14 0 22 -14q49 23 101.5 34t105.5 11h20.5t20.5 -2q66 -6 114 -36t48 -87 q0 -16 -6 -39q-27 -84 -100.5 -150.5t-170.5 -95.5q-8 -2 -15 -3t-11 -1q-10 0 -10 6q0 12 32 27q90 41 149.5 100.5t76.5 128.5q2 8 2 23q0 31 -27 53t-104 22q-66 0 -154 -40.5t-178 -124.5q-57 -53 -101.5 -124t-76.5 -149l-11 -41q80 4 134 -26q16 -10 16 -23 q-10 -23 -59 -22q-57 0 -87 18t-36 45q-96 -14 -188.5 -74.5t-162.5 -144.5q-35 -45 -59 -84q-57 -88 -74 -188q-2 -18 -5 -37t-3 -35q0 -61 37 -99t137 -38q90 0 185.5 45t178.5 117.5t140 156.5t70 160q0 4 1 9t1 7q0 27 -16.5 44.5t-53.5 17.5q-8 0 -16.5 -1t-18.5 -3 q-57 -10 -131 -59.5t-138.5 -122t-96.5 -154.5q-8 -4 -11 -4q-10 0 -4 26q20 55 66.5 117.5t109 117t136 89.5t149.5 35q59 0 86 -26t27 -66q0 -61 -49 -136q-39 -61 -110 -130.5t-159 -133t-184 -103.5t-188 -40q-125 0 -189.5 58.5t-64.5 160.5q0 29 6 61q14 90 63 179.5 t119 173.5q-43 8 -87 14t-89 12q-84 -94 -166 -184t-158 -164t-157.5 -138.5t-178 -103t-217.5 -38.5q-74 0 -143.5 24.5t-115.5 74.5t-46 130zM-72 205q0 -78 68 -134.5t199 -56.5q70 0 145.5 16.5t164.5 65.5t195 146q78 72 158 156.5t162 172.5q-55 6 -111.5 10.5 t-113.5 4.5q-156 0 -319 -15.5t-314 -87.5q-117 -51 -175.5 -129t-58.5 -149zM1087 594q87 -13 173 -31q92 104 199.5 196.5t212 170.5t179.5 135q-29 2 -56.5 6t-43.5 6q-102 -6 -214 -76.5t-225.5 -178t-224.5 -228.5zM1440 598q53 23 105 36t102 15q-2 10 -3.5 29.5 t-1.5 46.5q0 63 31 131q-47 -53 -109.5 -119.5t-123.5 -138.5z" />
<glyph unicode="&#xc7;" d="M55 803q0 66 37 109.5t93.5 70.5t121 41t120.5 18.5t89 4.5q10 0 48 -1.5t82 -4.5t77 -9t33 -14t-15 -8q-27 0 -59.5 3t-65.5 3h-49t-47 -2q-41 -2 -102.5 -9.5t-121.5 -29t-101 -63.5t-41 -113q0 -76 62.5 -118t162.5 -54q96 115 219 212t251 168.5t248 112.5t210 41 q59 0 110 -21.5t51 -88.5q0 -80 -62.5 -150t-166.5 -127t-233 -99t-266.5 -64.5t-262.5 -22.5h-16q-76 -102 -122 -210t-46 -214q0 -100 45 -152.5t106 -52.5q90 0 186.5 44t179.5 115.5t140.5 154.5t69.5 161q0 4 1 8t1 9q0 27 -16.5 44t-53.5 17q-8 0 -16 -1t-18 -3 q-57 -10 -131 -59.5t-138.5 -122t-97.5 -154.5q-8 -4 -10 -4q-10 0 -4 25q20 55 66 117.5t109.5 117.5t137.5 90t149 35q57 -2 84 -26.5t27 -65.5q0 -59 -49 -137q-39 -61 -109.5 -132t-161 -133.5t-187.5 -102.5t-189 -40q-61 0 -117.5 23.5t-92.5 75t-36 130.5 q0 115 51 228.5t135 220.5q-131 16 -215 65.5t-84 143.5zM258 -361q0 10 10 10q12 0 17 -12q16 -20 37.5 -27.5t41.5 -7.5q49 0 74 31t25 64q0 29 -16.5 49t-49.5 20q-27 0 -42 -6t-25 -6q-8 0 -15.5 5t-7.5 13t6 15q4 4 23.5 26.5t44 51t43 49t20.5 20.5q4 0 15.5 -1 t9.5 -3t-18.5 -20.5t-34 -40t-27.5 -39t-2 -21.5q8 2 27 2q41 0 82 -26.5t41 -75.5q0 -68 -53.5 -104.5t-110.5 -36.5q-39 0 -71 17t-44 54zM485 621q113 0 241 23.5t251 64.5t223 96t160.5 118.5t60.5 133.5q0 47 -35.5 61.5t-76.5 14.5q-84 0 -190.5 -40t-220.5 -110 t-220.5 -163t-192.5 -199z" />
<glyph unicode="&#xc8;" horiz-adv-x="956" d="M18 125q0 29 7 61q14 90 73.5 171t146.5 146.5t184 104.5t185 41q-2 10 -3 22.5t-1 22.5q-121 10 -222 47t-161.5 97.5t-60.5 144.5q0 41 14 78q29 78 93.5 104.5t127.5 26.5h21.5t21.5 -2q47 -4 103.5 -29.5t97.5 -75.5q12 -14 12 -20q0 -4 -4 -4t-20 12q-72 76 -164 82 q-8 2 -18.5 2h-22.5q-47 0 -100.5 -21.5t-77.5 -86.5q-8 -20 -12.5 -41t-4.5 -39q0 -70 51.5 -121t137.5 -82t188 -41q6 84 52.5 165t121 147.5t167.5 106.5t194 40h22.5t24.5 -2q66 -6 114 -36t48 -87q0 -16 -6 -39q-27 -86 -98.5 -148.5t-169 -101.5t-202 -58.5 t-194.5 -19.5h-25l-10 -41q80 4 133 -26q16 -10 17 -23q-10 -23 -60 -22q-57 0 -86.5 18t-36.5 45q-82 -12 -162.5 -59t-148 -117t-114 -152t-58.5 -163q-2 -18 -5 -37t-3 -35q0 -61 37 -99t137 -38q90 0 185.5 45t178 117.5t140 156.5t69.5 160q0 4 1 9t1 7q0 27 -16 44.5 t-53 17.5q-8 0 -16.5 -1t-18.5 -3q-57 -10 -131 -59.5t-138.5 -122t-97.5 -154.5q-8 -4 -10 -4q-10 0 -4 26q20 55 66.5 117.5t109 117t136 89.5t149.5 35q59 0 86 -26t27 -66q0 -61 -50 -136q-39 -61 -109.5 -130.5t-158.5 -133t-184.5 -103.5t-188.5 -40 q-125 0 -189.5 58.5t-64.5 160.5zM672 721h14q104 0 205.5 22.5t187.5 63.5t144.5 98.5t74.5 126.5q2 8 2 23q0 31 -26.5 53t-104.5 22q-66 0 -153.5 -40.5t-177.5 -124.5q-57 -53 -100 -120t-66 -124zM1003 1433q0 12 13.5 23.5t23.5 11.5q8 0 41 -19.5t78 -49t87 -60.5 t70.5 -51.5t28.5 -22.5q0 -4 -8 -4q-14 0 -52 14.5t-85 37t-92 47t-75 45t-30 28.5z" />
<glyph unicode="&#xc9;" horiz-adv-x="956" d="M18 125q0 29 7 61q14 90 73.5 171t146.5 146.5t184 104.5t185 41q-2 10 -3 22.5t-1 22.5q-121 10 -222 47t-161.5 97.5t-60.5 144.5q0 41 14 78q29 78 93.5 104.5t127.5 26.5h21.5t21.5 -2q47 -4 103.5 -29.5t97.5 -75.5q12 -14 12 -20q0 -4 -4 -4t-20 12q-72 76 -164 82 q-8 2 -18.5 2h-22.5q-47 0 -100.5 -21.5t-77.5 -86.5q-8 -20 -12.5 -41t-4.5 -39q0 -70 51.5 -121t137.5 -82t188 -41q6 84 52.5 165t121 147.5t167.5 106.5t194 40h22.5t24.5 -2q66 -6 114 -36t48 -87q0 -16 -6 -39q-27 -86 -98.5 -148.5t-169 -101.5t-202 -58.5 t-194.5 -19.5h-25l-10 -41q80 4 133 -26q16 -10 17 -23q-10 -23 -60 -22q-57 0 -86.5 18t-36.5 45q-82 -12 -162.5 -59t-148 -117t-114 -152t-58.5 -163q-2 -18 -5 -37t-3 -35q0 -61 37 -99t137 -38q90 0 185.5 45t178 117.5t140 156.5t69.5 160q0 4 1 9t1 7q0 27 -16 44.5 t-53 17.5q-8 0 -16.5 -1t-18.5 -3q-57 -10 -131 -59.5t-138.5 -122t-97.5 -154.5q-8 -4 -10 -4q-10 0 -4 26q20 55 66.5 117.5t109 117t136 89.5t149.5 35q59 0 86 -26t27 -66q0 -61 -50 -136q-39 -61 -109.5 -130.5t-158.5 -133t-184.5 -103.5t-188.5 -40 q-125 0 -189.5 58.5t-64.5 160.5zM672 721h14q104 0 205.5 22.5t187.5 63.5t144.5 98.5t74.5 126.5q2 8 2 23q0 31 -26.5 53t-104.5 22q-66 0 -153.5 -40.5t-177.5 -124.5q-57 -53 -100 -120t-66 -124zM1050 1265q0 2 29 22.5t71 51.5t87 60.5t77.5 49t40.5 19.5 q10 0 23.5 -11t13.5 -24q0 -8 -29.5 -28.5t-74.5 -45t-92 -47t-85.5 -37t-52.5 -14.5q-8 0 -8 4z" />
<glyph unicode="&#xca;" horiz-adv-x="956" d="M18 125q0 29 7 61q14 90 73.5 171t146.5 146.5t184 104.5t185 41q-2 10 -3 22.5t-1 22.5q-121 10 -222 47t-161.5 97.5t-60.5 144.5q0 41 14 78q29 78 93.5 104.5t127.5 26.5h21.5t21.5 -2q47 -4 103.5 -29.5t97.5 -75.5q12 -14 12 -20q0 -4 -4 -4t-20 12q-72 76 -164 82 q-8 2 -18.5 2h-22.5q-47 0 -100.5 -21.5t-77.5 -86.5q-8 -20 -12.5 -41t-4.5 -39q0 -70 51.5 -121t137.5 -82t188 -41q6 84 52.5 165t121 147.5t167.5 106.5t194 40h22.5t24.5 -2q66 -6 114 -36t48 -87q0 -16 -6 -39q-27 -86 -98.5 -148.5t-169 -101.5t-202 -58.5 t-194.5 -19.5h-25l-10 -41q80 4 133 -26q16 -10 17 -23q-10 -23 -60 -22q-57 0 -86.5 18t-36.5 45q-82 -12 -162.5 -59t-148 -117t-114 -152t-58.5 -163q-2 -18 -5 -37t-3 -35q0 -61 37 -99t137 -38q90 0 185.5 45t178 117.5t140 156.5t69.5 160q0 4 1 9t1 7q0 27 -16 44.5 t-53 17.5q-8 0 -16.5 -1t-18.5 -3q-57 -10 -131 -59.5t-138.5 -122t-97.5 -154.5q-8 -4 -10 -4q-10 0 -4 26q20 55 66.5 117.5t109 117t136 89.5t149.5 35q59 0 86 -26t27 -66q0 -61 -50 -136q-39 -61 -109.5 -130.5t-158.5 -133t-184.5 -103.5t-188.5 -40 q-125 0 -189.5 58.5t-64.5 160.5zM672 721h14q104 0 205.5 22.5t187.5 63.5t144.5 98.5t74.5 126.5q2 8 2 23q0 31 -26.5 53t-104.5 22q-66 0 -153.5 -40.5t-177.5 -124.5q-57 -53 -100 -120t-66 -124zM945 1259q0 2 31.5 22.5t76.5 48.5t90 54.5t74 40.5q8 4 20 4 q8 0 34 -24.5t55.5 -57t50 -59.5t20.5 -29q-4 -4 -10 -4q-16 0 -52 18.5t-72 44t-54 42.5q-29 -12 -81 -38t-102 -46.5t-75 -20.5q-10 0 -6 4z" />
<glyph unicode="&#xcb;" horiz-adv-x="956" d="M18 125q0 29 7 61q14 90 73.5 171t146.5 146.5t184 104.5t185 41q-2 10 -3 22.5t-1 22.5q-121 10 -222 47t-161.5 97.5t-60.5 144.5q0 41 14 78q29 78 93.5 104.5t127.5 26.5h21.5t21.5 -2q47 -4 103.5 -29.5t97.5 -75.5q12 -14 12 -20q0 -4 -4 -4t-20 12q-72 76 -164 82 q-8 2 -18.5 2h-22.5q-47 0 -100.5 -21.5t-77.5 -86.5q-8 -20 -12.5 -41t-4.5 -39q0 -70 51.5 -121t137.5 -82t188 -41q6 84 52.5 165t121 147.5t167.5 106.5t194 40h22.5t24.5 -2q66 -6 114 -36t48 -87q0 -16 -6 -39q-27 -86 -98.5 -148.5t-169 -101.5t-202 -58.5 t-194.5 -19.5h-25l-10 -41q80 4 133 -26q16 -10 17 -23q-10 -23 -60 -22q-57 0 -86.5 18t-36.5 45q-82 -12 -162.5 -59t-148 -117t-114 -152t-58.5 -163q-2 -18 -5 -37t-3 -35q0 -61 37 -99t137 -38q90 0 185.5 45t178 117.5t140 156.5t69.5 160q0 4 1 9t1 7q0 27 -16 44.5 t-53 17.5q-8 0 -16.5 -1t-18.5 -3q-57 -10 -131 -59.5t-138.5 -122t-97.5 -154.5q-8 -4 -10 -4q-10 0 -4 26q20 55 66.5 117.5t109 117t136 89.5t149.5 35q59 0 86 -26t27 -66q0 -61 -50 -136q-39 -61 -109.5 -130.5t-158.5 -133t-184.5 -103.5t-188.5 -40 q-125 0 -189.5 58.5t-64.5 160.5zM672 721h14q104 0 205.5 22.5t187.5 63.5t144.5 98.5t74.5 126.5q2 8 2 23q0 31 -26.5 53t-104.5 22q-66 0 -153.5 -40.5t-177.5 -124.5q-57 -53 -100 -120t-66 -124zM1047 1304q0 29 23.5 50.5t49.5 21.5q23 0 35 -13.5t12 -33.5 q0 -27 -22 -49.5t-49 -22.5q-20 0 -34.5 13.5t-14.5 33.5zM1247 1304q0 29 22.5 50.5t49.5 21.5q23 0 36 -13.5t13 -33.5q0 -27 -22.5 -49.5t-51.5 -22.5q-20 0 -33.5 13.5t-13.5 33.5z" />
<glyph unicode="&#xcc;" horiz-adv-x="1228" d="M119 135q0 29 5 58.5t17 60.5q29 76 87.5 134t140.5 99q41 18 108.5 31.5t118.5 9.5q16 -2 16 -9t-10 -7q-104 0 -192 -58.5t-144 -138.5q-35 -51 -56.5 -111.5t-21.5 -113.5q0 -63 37 -109.5t123 -46.5q78 0 157 32t142 83q139 106 246.5 258t210.5 301 q80 115 167 218.5t164.5 178t131.5 103.5l-37 6q-14 4 -42 6t-63 2q-57 0 -131.5 -15t-148.5 -60.5t-133 -133.5q-31 -47 -31 -106q0 -37 19.5 -65.5t66.5 -28.5q8 0 17.5 1t17.5 3q2 0 2 -2q0 -12 -23 -21q-8 -2 -16 -3t-16 -1q-76 0 -107 47t-31 105q0 84 43 139 q80 109 189.5 141.5t216.5 32.5q76 0 144.5 -7t119.5 -7q68 0 129.5 13t85.5 52q14 -10 14 -35q0 -27 -26.5 -56.5t-95.5 -29.5q-27 0 -61 5.5t-75 11.5q-37 -31 -83 -86t-91 -118.5t-79.5 -119t-53.5 -86.5q-92 -154 -185 -290t-196.5 -242.5t-230.5 -171.5 q-55 -31 -138 -60.5t-155 -29.5q-125 0 -194.5 68.5t-69.5 168.5zM1437 1433q0 12 13.5 23.5t23.5 11.5q8 0 41 -19.5t78 -49t87 -60.5t70.5 -51.5t28.5 -22.5q0 -4 -8 -4q-14 0 -52 14.5t-85 37t-92 47t-75 45t-30 28.5z" />
<glyph unicode="&#xcd;" horiz-adv-x="1228" d="M119 135q0 29 5 58.5t17 60.5q29 76 87.5 134t140.5 99q41 18 108.5 31.5t118.5 9.5q16 -2 16 -9t-10 -7q-104 0 -192 -58.5t-144 -138.5q-35 -51 -56.5 -111.5t-21.5 -113.5q0 -63 37 -109.5t123 -46.5q78 0 157 32t142 83q139 106 246.5 258t210.5 301 q80 115 167 218.5t164.5 178t131.5 103.5l-37 6q-14 4 -42 6t-63 2q-57 0 -131.5 -15t-148.5 -60.5t-133 -133.5q-31 -47 -31 -106q0 -37 19.5 -65.5t66.5 -28.5q8 0 17.5 1t17.5 3q2 0 2 -2q0 -12 -23 -21q-8 -2 -16 -3t-16 -1q-76 0 -107 47t-31 105q0 84 43 139 q80 109 189.5 141.5t216.5 32.5q76 0 144.5 -7t119.5 -7q68 0 129.5 13t85.5 52q14 -10 14 -35q0 -27 -26.5 -56.5t-95.5 -29.5q-27 0 -61 5.5t-75 11.5q-37 -31 -83 -86t-91 -118.5t-79.5 -119t-53.5 -86.5q-92 -154 -185 -290t-196.5 -242.5t-230.5 -171.5 q-55 -31 -138 -60.5t-155 -29.5q-125 0 -194.5 68.5t-69.5 168.5zM1485 1265q0 2 29 22.5t71 51.5t87 60.5t77.5 49t40.5 19.5q10 0 23.5 -11t13.5 -24q0 -8 -29.5 -28.5t-74.5 -45t-92 -47t-85.5 -37t-52.5 -14.5q-8 0 -8 4z" />
<glyph unicode="&#xce;" horiz-adv-x="1228" d="M119 135q0 29 5 58.5t17 60.5q29 76 87.5 134t140.5 99q41 18 108.5 31.5t118.5 9.5q16 -2 16 -9t-10 -7q-104 0 -192 -58.5t-144 -138.5q-35 -51 -56.5 -111.5t-21.5 -113.5q0 -63 37 -109.5t123 -46.5q78 0 157 32t142 83q139 106 246.5 258t210.5 301 q80 115 167 218.5t164.5 178t131.5 103.5l-37 6q-14 4 -42 6t-63 2q-57 0 -131.5 -15t-148.5 -60.5t-133 -133.5q-31 -47 -31 -106q0 -37 19.5 -65.5t66.5 -28.5q8 0 17.5 1t17.5 3q2 0 2 -2q0 -12 -23 -21q-8 -2 -16 -3t-16 -1q-76 0 -107 47t-31 105q0 84 43 139 q80 109 189.5 141.5t216.5 32.5q76 0 144.5 -7t119.5 -7q68 0 129.5 13t85.5 52q14 -10 14 -35q0 -27 -26.5 -56.5t-95.5 -29.5q-27 0 -61 5.5t-75 11.5q-37 -31 -83 -86t-91 -118.5t-79.5 -119t-53.5 -86.5q-92 -154 -185 -290t-196.5 -242.5t-230.5 -171.5 q-55 -31 -138 -60.5t-155 -29.5q-125 0 -194.5 68.5t-69.5 168.5zM1379 1259q0 2 31.5 22.5t76.5 48.5t90 54.5t74 40.5q8 4 20 4q8 0 34 -24.5t55.5 -57t50 -59.5t20.5 -29q-4 -4 -10 -4q-16 0 -52 18.5t-72 44t-54 42.5q-29 -12 -81 -38t-102 -46.5t-75 -20.5q-10 0 -6 4z " />
<glyph unicode="&#xcf;" horiz-adv-x="1228" d="M119 135q0 29 5 58.5t17 60.5q29 76 87.5 134t140.5 99q41 18 108.5 31.5t118.5 9.5q16 -2 16 -9t-10 -7q-104 0 -192 -58.5t-144 -138.5q-35 -51 -56.5 -111.5t-21.5 -113.5q0 -63 37 -109.5t123 -46.5q78 0 157 32t142 83q139 106 246.5 258t210.5 301 q80 115 167 218.5t164.5 178t131.5 103.5l-37 6q-14 4 -42 6t-63 2q-57 0 -131.5 -15t-148.5 -60.5t-133 -133.5q-31 -47 -31 -106q0 -37 19.5 -65.5t66.5 -28.5q8 0 17.5 1t17.5 3q2 0 2 -2q0 -12 -23 -21q-8 -2 -16 -3t-16 -1q-76 0 -107 47t-31 105q0 84 43 139 q80 109 189.5 141.5t216.5 32.5q76 0 144.5 -7t119.5 -7q68 0 129.5 13t85.5 52q14 -10 14 -35q0 -27 -26.5 -56.5t-95.5 -29.5q-27 0 -61 5.5t-75 11.5q-37 -31 -83 -86t-91 -118.5t-79.5 -119t-53.5 -86.5q-92 -154 -185 -290t-196.5 -242.5t-230.5 -171.5 q-55 -31 -138 -60.5t-155 -29.5q-125 0 -194.5 68.5t-69.5 168.5zM1481 1304q0 29 23.5 50.5t49.5 21.5q23 0 35 -13.5t12 -33.5q0 -27 -22 -49.5t-49 -22.5q-20 0 -34.5 13.5t-14.5 33.5zM1681 1304q0 29 22.5 50.5t49.5 21.5q23 0 36 -13.5t13 -33.5q0 -27 -22.5 -49.5 t-51.5 -22.5q-20 0 -33.5 13.5t-13.5 33.5z" />
<glyph unicode="&#xd0;" horiz-adv-x="1398" d="M-94 -20q0 29 19.5 58.5t70.5 43.5q27 8 70 8q72 0 181 -20.5t273 -42.5q37 -4 76 -8.5t82 -4.5q27 0 53.5 2t52.5 7q72 12 170.5 49t196.5 111.5t175 196.5t106 304q4 29 6 54.5t2 49.5q0 178 -111 271q-78 -72 -152.5 -165t-145 -192.5t-134.5 -189.5l-35 -49h127 l-35 -45h-125q-57 -82 -120.5 -161t-130 -130t-138.5 -55q66 47 137.5 145t139.5 201h-146l35 45h139q23 35 45.5 68.5t43.5 62.5q96 139 211.5 271t234.5 227q-96 53 -244 53q-137 0 -261 -42t-226.5 -109.5t-176 -150.5t-114.5 -165t-41 -152q0 -66 42 -110.5t134 -53.5 q14 0 15 -6q0 -8 -19 -8q-121 10 -178 69.5t-57 145.5q0 92 60 196.5t175 199t276.5 153.5t364.5 59q82 -2 154.5 -13t134.5 -38q76 53 147.5 84t137.5 31q37 0 73.5 -11.5t62 -38t25.5 -77.5q-12 41 -57 66.5t-94 25.5q-59 0 -120.5 -28.5t-121.5 -77.5q84 -49 132 -133 t48 -211q0 -131 -50 -250t-131 -213t-172 -157.5t-171 -86.5q-80 -25 -162 -41t-168 -16q-82 0 -183 11t-206 19q-25 2 -49 3t-53 1q-88 0 -169 -17t-114 -66q-18 14 -18 43z" />
<glyph unicode="&#xd1;" horiz-adv-x="1118" d="M-332 -23q0 29 21.5 65t52.5 36q-16 -25 -16 -60q0 -37 30.5 -62.5t98.5 -25.5q78 0 163.5 44t174 117t172.5 161t155 178q82 102 166 200.5t163 177.5t140 122q20 14 68.5 47t124.5 59q-76 -2 -159 3t-161 16q-43 6 -88 10t-92 4q-125 0 -235.5 -32.5t-170.5 -114.5 q-35 -49 -34 -97q0 -33 14 -53q8 -8 18.5 -17.5t16.5 -9.5q-8 -8 -21 -8q-14 0 -27.5 7.5t-21.5 15.5q-20 23 -30.5 52.5t-10.5 57.5q0 57 29 97q57 78 147 114.5t228 36.5q59 0 128.5 -7t151.5 -19q172 -29 328 -29q78 0 133 9t70 30q23 0 14 -19q-6 -27 -26.5 -33 t-45.5 -16q-47 -16 -106.5 -77.5t-121.5 -151.5t-123.5 -191.5t-115 -199t-92.5 -172.5q-20 -39 -51 -90.5t-68 -94.5q57 43 135 121t163 176.5t165 198.5q76 98 170 208.5t193.5 211t197 167t179.5 77.5q10 2 17 2h15q59 0 95 -28t39 -91q0 -23 -12.5 -49.5t-39.5 -34.5 q8 10 11.5 30.5t5.5 34.5q-2 35 -32 56.5t-89 21.5q-82 0 -177.5 -61.5t-192.5 -157.5t-188 -204.5t-165 -203.5q-78 -100 -170 -209.5t-178 -197.5t-150 -131q-12 -8 -36.5 -16.5t-49.5 -8.5q-20 0 -38.5 11.5t-22.5 37.5q4 -2 14 -4t23 -2q23 0 51.5 16.5t48.5 73.5 q45 117 101.5 245t130 254t171 237.5t222.5 197.5q-18 0 -39 -5l-21 -5q-57 -20 -117.5 -58t-103.5 -75q-55 -47 -129 -126t-153.5 -172t-155.5 -189t-159 -194.5t-173 -181.5t-185.5 -134.5t-197.5 -51.5q-37 0 -75 11.5t-63.5 41t-25.5 80.5zM1386 1286q20 63 57 89t82 26 q35 0 69 -18.5t65.5 -38t58.5 -19.5q29 0 54.5 19.5t39.5 49.5q6 12 14 13q14 0 9 -21q-41 -121 -162 -121q-33 0 -64.5 19.5t-61.5 38t-59 18.5q-33 0 -48 -15.5t-33 -43.5q-4 -8 -14.5 -8t-6.5 12z" />
<glyph unicode="&#xd2;" d="M29 897q0 55 32.5 92t83 59.5t106.5 33t103 12.5q57 0 123 -6.5t141 -22.5q10 -2 7.5 -8t-13.5 -4q-43 6 -95 8t-95 2q-37 0 -92.5 -7t-108.5 -24.5t-89 -52.5t-36 -92q0 -63 80 -108.5t254 -49.5q113 129 247 228.5t269 154.5t250 55q72 0 104.5 -25.5t32.5 -66.5 q0 -47 -39 -98q23 -39 23 -92t-21 -121q-33 -104 -106.5 -218t-172.5 -222.5t-211 -195.5t-223.5 -138t-207.5 -51q-104 0 -156.5 56t-52.5 155q0 57 18 126q29 115 87.5 222.5t136.5 201.5q-176 6 -277.5 60.5t-101.5 136.5zM258 102q0 -63 31 -100t94 -37q90 0 192.5 51.5 t205 137.5t192.5 192.5t157.5 220t100.5 215.5q10 35 15 63.5t5 49.5v17.5t-2 15.5q-18 -18 -49 -39q-100 -63 -234.5 -104.5t-263.5 -61.5q-57 -68 -118.5 -153t-111.5 -178t-77.5 -185t-19.5 -172q-20 43 -21 102q0 74 31 157t77 163t94 146.5t85 109.5q-25 -2 -49.5 -4 t-46.5 -4q-94 -117 -167 -241t-102 -239q-18 -70 -18 -123zM571 737q25 4 51.5 7.5t53.5 9.5q113 121 242 199.5t247 80.5q61 0 97 -26q27 35 26 71q0 31 -25.5 50.5t-82.5 19.5q-82 0 -186.5 -56.5t-214.5 -148.5t-208 -207zM743 768q106 25 216 62.5t192 82.5q43 23 78 58 q-25 27 -76 26q-106 -4 -211 -67.5t-199 -161.5zM1052 1433q0 12 13.5 23.5t23.5 11.5q8 0 41 -19.5t78 -49t87 -60.5t70.5 -51.5t28.5 -22.5q0 -4 -8 -4q-14 0 -52 14.5t-85 37t-92 47t-75 45t-30 28.5z" />
<glyph unicode="&#xd3;" d="M29 897q0 55 32.5 92t83 59.5t106.5 33t103 12.5q57 0 123 -6.5t141 -22.5q10 -2 7.5 -8t-13.5 -4q-43 6 -95 8t-95 2q-37 0 -92.5 -7t-108.5 -24.5t-89 -52.5t-36 -92q0 -63 80 -108.5t254 -49.5q113 129 247 228.5t269 154.5t250 55q72 0 104.5 -25.5t32.5 -66.5 q0 -47 -39 -98q23 -39 23 -92t-21 -121q-33 -104 -106.5 -218t-172.5 -222.5t-211 -195.5t-223.5 -138t-207.5 -51q-104 0 -156.5 56t-52.5 155q0 57 18 126q29 115 87.5 222.5t136.5 201.5q-176 6 -277.5 60.5t-101.5 136.5zM258 102q0 -63 31 -100t94 -37q90 0 192.5 51.5 t205 137.5t192.5 192.5t157.5 220t100.5 215.5q10 35 15 63.5t5 49.5v17.5t-2 15.5q-18 -18 -49 -39q-100 -63 -234.5 -104.5t-263.5 -61.5q-57 -68 -118.5 -153t-111.5 -178t-77.5 -185t-19.5 -172q-20 43 -21 102q0 74 31 157t77 163t94 146.5t85 109.5q-25 -2 -49.5 -4 t-46.5 -4q-94 -117 -167 -241t-102 -239q-18 -70 -18 -123zM571 737q25 4 51.5 7.5t53.5 9.5q113 121 242 199.5t247 80.5q61 0 97 -26q27 35 26 71q0 31 -25.5 50.5t-82.5 19.5q-82 0 -186.5 -56.5t-214.5 -148.5t-208 -207zM743 768q106 25 216 62.5t192 82.5q43 23 78 58 q-25 27 -76 26q-106 -4 -211 -67.5t-199 -161.5zM1099 1265q0 2 29 22.5t71 51.5t87 60.5t77.5 49t40.5 19.5q10 0 23.5 -11t13.5 -24q0 -8 -29.5 -28.5t-74.5 -45t-92 -47t-85.5 -37t-52.5 -14.5q-8 0 -8 4z" />
<glyph unicode="&#xd4;" d="M29 897q0 55 32.5 92t83 59.5t106.5 33t103 12.5q57 0 123 -6.5t141 -22.5q10 -2 7.5 -8t-13.5 -4q-43 6 -95 8t-95 2q-37 0 -92.5 -7t-108.5 -24.5t-89 -52.5t-36 -92q0 -63 80 -108.5t254 -49.5q113 129 247 228.5t269 154.5t250 55q72 0 104.5 -25.5t32.5 -66.5 q0 -47 -39 -98q23 -39 23 -92t-21 -121q-33 -104 -106.5 -218t-172.5 -222.5t-211 -195.5t-223.5 -138t-207.5 -51q-104 0 -156.5 56t-52.5 155q0 57 18 126q29 115 87.5 222.5t136.5 201.5q-176 6 -277.5 60.5t-101.5 136.5zM258 102q0 -63 31 -100t94 -37q90 0 192.5 51.5 t205 137.5t192.5 192.5t157.5 220t100.5 215.5q10 35 15 63.5t5 49.5v17.5t-2 15.5q-18 -18 -49 -39q-100 -63 -234.5 -104.5t-263.5 -61.5q-57 -68 -118.5 -153t-111.5 -178t-77.5 -185t-19.5 -172q-20 43 -21 102q0 74 31 157t77 163t94 146.5t85 109.5q-25 -2 -49.5 -4 t-46.5 -4q-94 -117 -167 -241t-102 -239q-18 -70 -18 -123zM571 737q25 4 51.5 7.5t53.5 9.5q113 121 242 199.5t247 80.5q61 0 97 -26q27 35 26 71q0 31 -25.5 50.5t-82.5 19.5q-82 0 -186.5 -56.5t-214.5 -148.5t-208 -207zM743 768q106 25 216 62.5t192 82.5q43 23 78 58 q-25 27 -76 26q-106 -4 -211 -67.5t-199 -161.5zM994 1259q0 2 31.5 22.5t76.5 48.5t90 54.5t74 40.5q8 4 20 4q8 0 34 -24.5t55.5 -57t50 -59.5t20.5 -29q-4 -4 -10 -4q-16 0 -52 18.5t-72 44t-54 42.5q-29 -12 -81 -38t-102 -46.5t-75 -20.5q-10 0 -6 4z" />
<glyph unicode="&#xd5;" d="M29 897q0 55 32.5 92t83 59.5t106.5 33t103 12.5q57 0 123 -6.5t141 -22.5q10 -2 7.5 -8t-13.5 -4q-43 6 -95 8t-95 2q-37 0 -92.5 -7t-108.5 -24.5t-89 -52.5t-36 -92q0 -63 80 -108.5t254 -49.5q113 129 247 228.5t269 154.5t250 55q72 0 104.5 -25.5t32.5 -66.5 q0 -47 -39 -98q23 -39 23 -92t-21 -121q-33 -104 -106.5 -218t-172.5 -222.5t-211 -195.5t-223.5 -138t-207.5 -51q-104 0 -156.5 56t-52.5 155q0 57 18 126q29 115 87.5 222.5t136.5 201.5q-176 6 -277.5 60.5t-101.5 136.5zM258 102q0 -63 31 -100t94 -37q90 0 192.5 51.5 t205 137.5t192.5 192.5t157.5 220t100.5 215.5q10 35 15 63.5t5 49.5v17.5t-2 15.5q-18 -18 -49 -39q-100 -63 -234.5 -104.5t-263.5 -61.5q-57 -68 -118.5 -153t-111.5 -178t-77.5 -185t-19.5 -172q-20 43 -21 102q0 74 31 157t77 163t94 146.5t85 109.5q-25 -2 -49.5 -4 t-46.5 -4q-94 -117 -167 -241t-102 -239q-18 -70 -18 -123zM571 737q25 4 51.5 7.5t53.5 9.5q113 121 242 199.5t247 80.5q61 0 97 -26q27 35 26 71q0 31 -25.5 50.5t-82.5 19.5q-82 0 -186.5 -56.5t-214.5 -148.5t-208 -207zM743 768q106 25 216 62.5t192 82.5q43 23 78 58 q-25 27 -76 26q-106 -4 -211 -67.5t-199 -161.5zM1034 1286q20 63 57 89t82 26q35 0 69 -18.5t65.5 -38t58.5 -19.5q29 0 54.5 19.5t39.5 49.5q6 12 14 13q14 0 9 -21q-41 -121 -162 -121q-33 0 -64.5 19.5t-61.5 38t-59 18.5q-33 0 -48 -15.5t-33 -43.5q-4 -8 -14.5 -8 t-6.5 12z" />
<glyph unicode="&#xd6;" d="M29 897q0 55 32.5 92t83 59.5t106.5 33t103 12.5q57 0 123 -6.5t141 -22.5q10 -2 7.5 -8t-13.5 -4q-43 6 -95 8t-95 2q-37 0 -92.5 -7t-108.5 -24.5t-89 -52.5t-36 -92q0 -63 80 -108.5t254 -49.5q113 129 247 228.5t269 154.5t250 55q72 0 104.5 -25.5t32.5 -66.5 q0 -47 -39 -98q23 -39 23 -92t-21 -121q-33 -104 -106.5 -218t-172.5 -222.5t-211 -195.5t-223.5 -138t-207.5 -51q-104 0 -156.5 56t-52.5 155q0 57 18 126q29 115 87.5 222.5t136.5 201.5q-176 6 -277.5 60.5t-101.5 136.5zM258 102q0 -63 31 -100t94 -37q90 0 192.5 51.5 t205 137.5t192.5 192.5t157.5 220t100.5 215.5q10 35 15 63.5t5 49.5v17.5t-2 15.5q-18 -18 -49 -39q-100 -63 -234.5 -104.5t-263.5 -61.5q-57 -68 -118.5 -153t-111.5 -178t-77.5 -185t-19.5 -172q-20 43 -21 102q0 74 31 157t77 163t94 146.5t85 109.5q-25 -2 -49.5 -4 t-46.5 -4q-94 -117 -167 -241t-102 -239q-18 -70 -18 -123zM571 737q25 4 51.5 7.5t53.5 9.5q113 121 242 199.5t247 80.5q61 0 97 -26q27 35 26 71q0 31 -25.5 50.5t-82.5 19.5q-82 0 -186.5 -56.5t-214.5 -148.5t-208 -207zM743 768q106 25 216 62.5t192 82.5q43 23 78 58 q-25 27 -76 26q-106 -4 -211 -67.5t-199 -161.5zM1096 1304q0 29 23.5 50.5t49.5 21.5q23 0 35 -13.5t12 -33.5q0 -27 -22 -49.5t-49 -22.5q-20 0 -34.5 13.5t-14.5 33.5zM1296 1304q0 29 22.5 50.5t49.5 21.5q23 0 36 -13.5t13 -33.5q0 -27 -22.5 -49.5t-51.5 -22.5 q-20 0 -33.5 13.5t-13.5 33.5z" />
<glyph unicode="&#xd7;" horiz-adv-x="866" d="M137 174l289 225l-129 219h51l113 -190l244 190h75l-295 -229l129 -215h-53l-112 186l-238 -186h-74z" />
<glyph unicode="&#xd8;" d="M29 897q0 55 32.5 92t83 59.5t106.5 33t103 12.5q57 0 123 -6.5t141 -22.5q10 -2 7.5 -8t-13.5 -4q-43 6 -95 8t-95 2q-37 0 -92.5 -7t-108.5 -24.5t-89 -52.5t-36 -92q0 -63 80 -108.5t254 -49.5q106 123 232 217t254 152.5t241 66.5l45 60h60l-45 -60q59 -2 87.5 -27.5 t28.5 -62.5q0 -63 -69 -133q20 -37 20 -86q0 -23 -5 -51.5t-15 -61.5q-31 -100 -99.5 -209.5t-162 -214t-199 -189.5t-214 -136t-204.5 -55q-47 0 -88 10l-80 -105h-57l92 125q-86 49 -86 181q0 57 18 126q29 115 87.5 222.5t136.5 201.5q-176 6 -277.5 60.5t-101.5 136.5z M258 102q0 -59 25 -94l561 742q-78 -16 -155 -28.5t-144 -16.5q-94 -117 -167 -241t-102 -239q-18 -70 -18 -123zM319 -20q27 -15 70 -15q90 4 189.5 54.5t196.5 134.5t182 187t148.5 212t94.5 209q20 68 21 115q0 18 -2 26q-6 -6 -19 -14q-59 -39 -132 -68.5t-150 -52.5z M571 737q70 8 151 25.5t163 42.5l258 340q-80 -12 -178.5 -69.5t-200 -145t-193.5 -193.5zM965 831q51 18 99 39t87 43q27 14 47 31q-23 25 -72 25q-25 4 -24 10q0 10 37 25q61 0 96 -27q55 55 55 102q0 29 -20.5 47.5t-67.5 20.5z" />
<glyph unicode="&#xd9;" horiz-adv-x="972" d="M4 866q0 76 41 132.5t106.5 92t139.5 52.5q84 18 176 18q41 0 82 -2t82 -6q59 -4 125.5 -11t132.5 -7q29 0 54.5 2t51.5 6q10 -2 0 -24.5t-45 -26.5q-49 -39 -99 -89.5t-90 -94.5t-61 -68q-14 -14 -63 -73.5t-115.5 -143.5t-134.5 -177.5t-121 -179.5q-41 -66 -63.5 -122 t-22.5 -89q0 -35 33 -35q41 0 92 33t109 90q109 104 203 225t198 238q43 45 86 88l88 88l17 17q53 53 115.5 96t107.5 43q-20 -18 -60.5 -56t-76.5 -81q-139 -166 -251 -331t-145 -316q-6 -25 -6 -54q0 -27 9.5 -45t33.5 -18q18 0 47 14q59 35 100.5 77t92.5 99q8 0 8 -12 q0 -18 -8 -29q-94 -111 -155.5 -150.5t-133.5 -39.5q-55 0 -76.5 37t-21.5 84q0 35 8 68.5t16 60.5q23 53 57.5 113.5t75.5 117.5q-57 -66 -104 -125t-96 -116.5t-113 -118.5q-63 -61 -131 -98t-127 -37q-37 0 -61.5 25.5t-24.5 74.5t27 111q47 109 129 231.5t179 239 t183 202.5q29 31 83 78t115.5 90t110.5 62q-18 -2 -62 6t-73 12q-33 4 -90 10t-123 6q-80 0 -168 -15t-164.5 -56t-130.5 -119q-12 -20 -21 -45t-9 -53q0 -39 19.5 -71t68.5 -32q8 0 16 1t17 3q2 0 2 -2q0 -12 -23 -20q-8 -2 -16.5 -3t-16.5 -1q-76 0 -105.5 46t-29.5 103z M1032 1392q0 12 13.5 23.5t23.5 11.5q8 0 41 -19.5t78 -49t87 -60.5t70.5 -51.5t28.5 -22.5q0 -4 -8 -4q-14 0 -52 14.5t-85 37t-92 47t-75 45t-30 28.5z" />
<glyph unicode="&#xda;" horiz-adv-x="972" d="M4 866q0 76 41 132.5t106.5 92t139.5 52.5q84 18 176 18q41 0 82 -2t82 -6q59 -4 125.5 -11t132.5 -7q29 0 54.5 2t51.5 6q10 -2 0 -24.5t-45 -26.5q-49 -39 -99 -89.5t-90 -94.5t-61 -68q-14 -14 -63 -73.5t-115.5 -143.5t-134.5 -177.5t-121 -179.5q-41 -66 -63.5 -122 t-22.5 -89q0 -35 33 -35q41 0 92 33t109 90q109 104 203 225t198 238q43 45 86 88l88 88l17 17q53 53 115.5 96t107.5 43q-20 -18 -60.5 -56t-76.5 -81q-139 -166 -251 -331t-145 -316q-6 -25 -6 -54q0 -27 9.5 -45t33.5 -18q18 0 47 14q59 35 100.5 77t92.5 99q8 0 8 -12 q0 -18 -8 -29q-94 -111 -155.5 -150.5t-133.5 -39.5q-55 0 -76.5 37t-21.5 84q0 35 8 68.5t16 60.5q23 53 57.5 113.5t75.5 117.5q-57 -66 -104 -125t-96 -116.5t-113 -118.5q-63 -61 -131 -98t-127 -37q-37 0 -61.5 25.5t-24.5 74.5t27 111q47 109 129 231.5t179 239 t183 202.5q29 31 83 78t115.5 90t110.5 62q-18 -2 -62 6t-73 12q-33 4 -90 10t-123 6q-80 0 -168 -15t-164.5 -56t-130.5 -119q-12 -20 -21 -45t-9 -53q0 -39 19.5 -71t68.5 -32q8 0 16 1t17 3q2 0 2 -2q0 -12 -23 -20q-8 -2 -16.5 -3t-16.5 -1q-76 0 -105.5 46t-29.5 103z M1079 1224q0 2 29 22.5t71 51.5t87 60.5t77.5 49t40.5 19.5q10 0 23.5 -11t13.5 -24q0 -8 -29.5 -28.5t-74.5 -45t-92 -47t-85.5 -37t-52.5 -14.5q-8 0 -8 4z" />
<glyph unicode="&#xdb;" horiz-adv-x="972" d="M4 866q0 76 41 132.5t106.5 92t139.5 52.5q84 18 176 18q41 0 82 -2t82 -6q59 -4 125.5 -11t132.5 -7q29 0 54.5 2t51.5 6q10 -2 0 -24.5t-45 -26.5q-49 -39 -99 -89.5t-90 -94.5t-61 -68q-14 -14 -63 -73.5t-115.5 -143.5t-134.5 -177.5t-121 -179.5q-41 -66 -63.5 -122 t-22.5 -89q0 -35 33 -35q41 0 92 33t109 90q109 104 203 225t198 238q43 45 86 88l88 88l17 17q53 53 115.5 96t107.5 43q-20 -18 -60.5 -56t-76.5 -81q-139 -166 -251 -331t-145 -316q-6 -25 -6 -54q0 -27 9.5 -45t33.5 -18q18 0 47 14q59 35 100.5 77t92.5 99q8 0 8 -12 q0 -18 -8 -29q-94 -111 -155.5 -150.5t-133.5 -39.5q-55 0 -76.5 37t-21.5 84q0 35 8 68.5t16 60.5q23 53 57.5 113.5t75.5 117.5q-57 -66 -104 -125t-96 -116.5t-113 -118.5q-63 -61 -131 -98t-127 -37q-37 0 -61.5 25.5t-24.5 74.5t27 111q47 109 129 231.5t179 239 t183 202.5q29 31 83 78t115.5 90t110.5 62q-18 -2 -62 6t-73 12q-33 4 -90 10t-123 6q-80 0 -168 -15t-164.5 -56t-130.5 -119q-12 -20 -21 -45t-9 -53q0 -39 19.5 -71t68.5 -32q8 0 16 1t17 3q2 0 2 -2q0 -12 -23 -20q-8 -2 -16.5 -3t-16.5 -1q-76 0 -105.5 46t-29.5 103z M973 1218q0 2 31.5 22.5t76.5 48.5t90 54.5t74 40.5q8 4 20 4q8 0 34 -24.5t55.5 -57t50 -59.5t20.5 -29q-4 -4 -10 -4q-16 0 -52 18.5t-72 44t-54 42.5q-29 -12 -81 -38t-102 -46.5t-75 -20.5q-10 0 -6 4z" />
<glyph unicode="&#xdc;" horiz-adv-x="972" d="M4 866q0 76 41 132.5t106.5 92t139.5 52.5q84 18 176 18q41 0 82 -2t82 -6q59 -4 125.5 -11t132.5 -7q29 0 54.5 2t51.5 6q10 -2 0 -24.5t-45 -26.5q-49 -39 -99 -89.5t-90 -94.5t-61 -68q-14 -14 -63 -73.5t-115.5 -143.5t-134.5 -177.5t-121 -179.5q-41 -66 -63.5 -122 t-22.5 -89q0 -35 33 -35q41 0 92 33t109 90q109 104 203 225t198 238q43 45 86 88l88 88l17 17q53 53 115.5 96t107.5 43q-20 -18 -60.5 -56t-76.5 -81q-139 -166 -251 -331t-145 -316q-6 -25 -6 -54q0 -27 9.5 -45t33.5 -18q18 0 47 14q59 35 100.5 77t92.5 99q8 0 8 -12 q0 -18 -8 -29q-94 -111 -155.5 -150.5t-133.5 -39.5q-55 0 -76.5 37t-21.5 84q0 35 8 68.5t16 60.5q23 53 57.5 113.5t75.5 117.5q-57 -66 -104 -125t-96 -116.5t-113 -118.5q-63 -61 -131 -98t-127 -37q-37 0 -61.5 25.5t-24.5 74.5t27 111q47 109 129 231.5t179 239 t183 202.5q29 31 83 78t115.5 90t110.5 62q-18 -2 -62 6t-73 12q-33 4 -90 10t-123 6q-80 0 -168 -15t-164.5 -56t-130.5 -119q-12 -20 -21 -45t-9 -53q0 -39 19.5 -71t68.5 -32q8 0 16 1t17 3q2 0 2 -2q0 -12 -23 -20q-8 -2 -16.5 -3t-16.5 -1q-76 0 -105.5 46t-29.5 103z M1076 1263q0 29 23.5 50.5t49.5 21.5q23 0 35 -13.5t12 -33.5q0 -27 -22 -49.5t-49 -22.5q-20 0 -34.5 13.5t-14.5 33.5zM1276 1263q0 29 22.5 50.5t49.5 21.5q23 0 36 -13.5t13 -33.5q0 -27 -22.5 -49.5t-51.5 -22.5q-20 0 -33.5 13.5t-13.5 33.5z" />
<glyph unicode="&#xdd;" horiz-adv-x="890" d="M-348 -356q0 76 37 157.5t94 143.5q59 63 139 110t166 68q6 29 25 70q47 109 129 231.5t179 239t183 202.5q29 31 83 78t115.5 90t110.5 62q-18 -2 -62 6t-73 12q-33 4 -90 10t-123 6q-80 0 -168 -15t-164.5 -56t-130.5 -119q-12 -20 -21 -45t-9 -53q0 -39 19.5 -71 t68.5 -32q8 0 16 1t17 3q2 0 2 -2q0 -12 -23 -20q-8 -2 -16.5 -3t-16.5 -1q-76 0 -105.5 46t-29.5 103q0 76 41 132.5t106.5 92t139.5 52.5q84 18 176 18q41 0 82 -2t82 -6q59 -4 125.5 -11t132.5 -7q29 0 54.5 2t51.5 6q10 -2 0 -24.5t-45 -26.5q-49 -39 -99 -89.5 t-90 -94.5t-61 -68q-14 -14 -63 -73.5t-115.5 -143.5t-134.5 -177.5t-121 -179.5q-23 -35 -40 -68.5t-27 -62.5q25 0 49 -2t49 -6q20 -2 20 -8q0 -4 -12 -4t-25.5 2t-25.5 2q-33 0 -64 -6q-6 -16 -8 -31.5t-2 -28.5q0 -20 8.5 -26.5t24.5 -6.5q41 0 92 33t109 90 q86 92 182 202t191.5 224.5t175.5 216.5q4 10 9 21.5t7 21.5q14 41 39 41q14 0 8 -20q-39 -117 -96.5 -266.5t-135 -307t-174 -306t-212 -267.5t-248.5 -189.5t-285 -70.5q-121 0 -172 59.5t-51 141.5zM-276 -375q-2 -63 28.5 -106t104.5 -43q90 0 171 44t154.5 110.5 t136.5 136.5q80 86 170.5 206.5t177.5 256t159.5 269.5t119.5 244q-74 -113 -163 -227.5t-180 -217.5t-173 -181q-61 -59 -127.5 -96t-126.5 -39q-39 0 -65.5 24.5t-26.5 75.5q-70 -31 -133.5 -78t-106.5 -102q-45 -53 -82.5 -128t-37.5 -149zM989 1210q0 2 29 22.5t71 51.5 t87 60.5t77.5 49t40.5 19.5q10 0 23.5 -11t13.5 -24q0 -8 -29.5 -28.5t-74.5 -45t-92 -47t-85.5 -37t-52.5 -14.5q-8 0 -8 4z" />
<glyph unicode="&#xde;" horiz-adv-x="1398" d="M-195 -250q23 -18 51.5 -27.5t69.5 -7.5q152 0 270.5 78t218 208t191.5 282l-55 6q-16 2 -33.5 2h-36.5q-63 0 -123.5 -13.5t-85.5 -48.5q-12 10 -12 33q0 18 14.5 40t49.5 34q25 6 59 6q43 0 103.5 -8t138.5 -19q78 133 152.5 268.5t156.5 258.5t176 217q-35 6 -76 10 t-88 4q-164 0 -292 -41t-215 -105.5t-132 -137t-45 -134.5q0 -57 39 -97t121 -46q12 0 10 -4t-14 -4q-109 8 -164 61t-55 127q0 66 45 137.5t136 133t230.5 99.5t327.5 38q55 0 104.5 -5t90.5 -16q59 55 123.5 96.5t136.5 61.5q35 12 92 12q25 0 50.5 -3t45.5 -13 q18 -6 34.5 -20.5t24.5 -36.5q-43 35 -122 34q-90 -2 -167 -44t-141 -107q119 -43 172.5 -119t53.5 -166q0 -86 -44 -175t-124 -164t-188.5 -121t-235.5 -48q-33 -2 -73 1t-81 7q-86 -129 -187.5 -247.5t-216 -206.5t-245.5 -127q-43 -15 -98 -15q-20 0 -41 2.5t-39 10.5 q-16 8 -33.5 21.5t-24.5 37.5zM711 305q4 -2 14 -2q12 -2 23.5 -2h23.5q104 0 207.5 49t187.5 128t134.5 170t50.5 175q0 68 -38 124.5t-126 88.5q-43 -49 -81 -102t-73 -105q-66 -100 -146.5 -239t-176.5 -285z" />
<glyph unicode="&#xdf;" horiz-adv-x="815" d="M-788 -424q23 -18 51 -27.5t69 -7.5q109 0 204 54.5t179 144.5t158 198.5t139.5 218t122.5 199.5q51 80 108.5 171t124 183.5t142.5 168.5q49 49 109.5 94t130 74.5t143.5 29.5q78 0 125 -28.5t47 -98.5t-38 -131t-99.5 -111.5t-135 -87t-147.5 -55.5q27 -76 27 -192 q0 -43 -5 -86t-18 -82q-10 -33 -32.5 -73t-56.5 -73.5t-83 -46.5q16 0 32.5 3t35.5 5q45 12 82 33t80 60q27 23 58.5 58.5t49.5 55.5q8 0 8 -8q0 -6 -4 -16t-4 -17q-39 -45 -94 -97t-107 -75q-66 -27 -170 -26q-66 0 -125 32.5t-59 108.5q0 51 29.5 81t48.5 30q16 0 14 -17 q-23 -31 -22 -98q0 -35 13 -63.5t48 -28.5t64 26q51 45 90 129q25 53 38 123t13 131q0 33 -4 61.5t-10 49.5q-6 -2 -12.5 -2h-12.5h-16.5t-14.5 2q-20 2 -20 27q0 23 24 30q8 -14 29 -17t41 -3t68.5 13t83.5 28q102 43 170 141q16 25 38.5 76t22.5 100q0 41 -23.5 70 t-89.5 29q-86 0 -162.5 -61.5t-143 -152t-124.5 -178.5q-49 -76 -96 -154.5t-119 -189.5q-43 -68 -105.5 -159t-138 -189t-161.5 -188t-180.5 -159t-192.5 -97q-39 -15 -96 -15q-45 0 -82 13q-16 8 -33.5 22.5t-23.5 36.5z" />
<glyph unicode="&#xe0;" horiz-adv-x="636" d="M-39 84q0 49 28.5 117.5t86.5 144.5q41 51 100.5 109.5t130 112t144 87t143.5 33.5q31 0 43 -9t16 -20q4 -8 1 -12t-7 -2q-8 4 -33 4q-74 0 -175 -70.5t-199 -183.5q-70 -78 -115 -152.5t-59 -123.5q-4 -16 -5 -29q0 -29 23 -29q14 0 38.5 13.5t63.5 46.5 q61 53 122 124.5t120 146.5t115.5 138.5t107.5 96.5q66 43 91.5 49t41.5 8q-10 -12 -44.5 -57t-73.5 -95.5t-64 -82.5q-37 -53 -79 -115t-75.5 -116t-46.5 -89q-10 -35 -10 -51q0 -33 27 -33q18 0 43.5 15.5t52.5 35.5q35 29 65.5 60.5t63.5 70.5q8 0 8 -12q0 -18 -8 -29 q-27 -31 -64.5 -67.5t-74.5 -65.5q-27 -23 -61.5 -39t-67.5 -16q-47 0 -65.5 22.5t-18.5 57.5q0 41 18.5 89t40.5 91q-27 -33 -67.5 -79t-73.5 -77q-45 -41 -86 -72.5t-86 -31.5q-76 0 -76 86zM547 934q0 12 13.5 23.5t23.5 11.5q8 0 37.5 -18.5t69.5 -45t78 -53.5 t63.5 -46.5t25.5 -21.5q0 -4 -8 -4q-18 0 -66.5 19.5t-102.5 46t-94 51.5t-40 37z" />
<glyph unicode="&#xe1;" horiz-adv-x="636" d="M-39 84q0 49 28.5 117.5t86.5 144.5q41 51 100.5 109.5t130 112t144 87t143.5 33.5q31 0 43 -9t16 -20q4 -8 1 -12t-7 -2q-8 4 -33 4q-74 0 -175 -70.5t-199 -183.5q-70 -78 -115 -152.5t-59 -123.5q-4 -16 -5 -29q0 -29 23 -29q14 0 38.5 13.5t63.5 46.5 q61 53 122 124.5t120 146.5t115.5 138.5t107.5 96.5q66 43 91.5 49t41.5 8q-10 -12 -44.5 -57t-73.5 -95.5t-64 -82.5q-37 -53 -79 -115t-75.5 -116t-46.5 -89q-10 -35 -10 -51q0 -33 27 -33q18 0 43.5 15.5t52.5 35.5q35 29 65.5 60.5t63.5 70.5q8 0 8 -12q0 -18 -8 -29 q-27 -31 -64.5 -67.5t-74.5 -65.5q-27 -23 -61.5 -39t-67.5 -16q-47 0 -65.5 22.5t-18.5 57.5q0 41 18.5 89t40.5 91q-27 -33 -67.5 -79t-73.5 -77q-45 -41 -86 -72.5t-86 -31.5q-76 0 -76 86zM547 784q0 2 25.5 21.5t63.5 46.5t78 53.5t69.5 45t37.5 18.5q10 0 23.5 -11.5 t13.5 -23.5t-40 -37t-94 -51.5t-102.5 -46t-66.5 -19.5q-8 0 -8 4z" />
<glyph unicode="&#xe2;" horiz-adv-x="636" d="M-39 84q0 49 28.5 117.5t86.5 144.5q41 51 100.5 109.5t130 112t144 87t143.5 33.5q31 0 43 -9t16 -20q4 -8 1 -12t-7 -2q-8 4 -33 4q-74 0 -175 -70.5t-199 -183.5q-70 -78 -115 -152.5t-59 -123.5q-4 -16 -5 -29q0 -29 23 -29q14 0 38.5 13.5t63.5 46.5 q61 53 122 124.5t120 146.5t115.5 138.5t107.5 96.5q66 43 91.5 49t41.5 8q-10 -12 -44.5 -57t-73.5 -95.5t-64 -82.5q-37 -53 -79 -115t-75.5 -116t-46.5 -89q-10 -35 -10 -51q0 -33 27 -33q18 0 43.5 15.5t52.5 35.5q35 29 65.5 60.5t63.5 70.5q8 0 8 -12q0 -18 -8 -29 q-27 -31 -64.5 -67.5t-74.5 -65.5q-27 -23 -61.5 -39t-67.5 -16q-47 0 -65.5 22.5t-18.5 57.5q0 41 18.5 89t40.5 91q-27 -33 -67.5 -79t-73.5 -77q-45 -41 -86 -72.5t-86 -31.5q-76 0 -76 86zM477 778q0 2 28.5 23.5t69.5 50.5t83 54.5t71 37.5q8 4 20 4q14 0 38 -24.5 t47.5 -57t39 -59.5t15.5 -29q-4 -4 -11 -4q-16 0 -44.5 20.5t-58.5 46t-54 38.5q-33 -12 -80 -38t-90 -46.5t-68 -20.5q-10 0 -6 4z" />
<glyph unicode="&#xe3;" horiz-adv-x="636" d="M-39 84q0 49 28.5 117.5t86.5 144.5q41 51 100.5 109.5t130 112t144 87t143.5 33.5q31 0 43 -9t16 -20q4 -8 1 -12t-7 -2q-8 4 -33 4q-74 0 -175 -70.5t-199 -183.5q-70 -78 -115 -152.5t-59 -123.5q-4 -16 -5 -29q0 -29 23 -29q14 0 38.5 13.5t63.5 46.5 q61 53 122 124.5t120 146.5t115.5 138.5t107.5 96.5q66 43 91.5 49t41.5 8q-10 -12 -44.5 -57t-73.5 -95.5t-64 -82.5q-37 -53 -79 -115t-75.5 -116t-46.5 -89q-10 -35 -10 -51q0 -33 27 -33q18 0 43.5 15.5t52.5 35.5q35 29 65.5 60.5t63.5 70.5q8 0 8 -12q0 -18 -8 -29 q-27 -31 -64.5 -67.5t-74.5 -65.5q-27 -23 -61.5 -39t-67.5 -16q-47 0 -65.5 22.5t-18.5 57.5q0 41 18.5 89t40.5 91q-27 -33 -67.5 -79t-73.5 -77q-45 -41 -86 -72.5t-86 -31.5q-76 0 -76 86zM518 805q20 63 57 89t82 26q35 0 58.5 -18.5t45 -38t48.5 -19.5q29 0 54.5 19.5 t39.5 49.5q6 12 14 13q14 0 9 -21q-41 -121 -162 -121q-33 0 -54.5 19.5t-41 38t-48.5 18.5q-33 0 -48 -15.5t-33 -43.5q-4 -8 -14.5 -8t-6.5 12z" />
<glyph unicode="&#xe4;" horiz-adv-x="636" d="M-39 84q0 49 28.5 117.5t86.5 144.5q41 51 100.5 109.5t130 112t144 87t143.5 33.5q31 0 43 -9t16 -20q4 -8 1 -12t-7 -2q-8 4 -33 4q-74 0 -175 -70.5t-199 -183.5q-70 -78 -115 -152.5t-59 -123.5q-4 -16 -5 -29q0 -29 23 -29q14 0 38.5 13.5t63.5 46.5 q61 53 122 124.5t120 146.5t115.5 138.5t107.5 96.5q66 43 91.5 49t41.5 8q-10 -12 -44.5 -57t-73.5 -95.5t-64 -82.5q-37 -53 -79 -115t-75.5 -116t-46.5 -89q-10 -35 -10 -51q0 -33 27 -33q18 0 43.5 15.5t52.5 35.5q35 29 65.5 60.5t63.5 70.5q8 0 8 -12q0 -18 -8 -29 q-27 -31 -64.5 -67.5t-74.5 -65.5q-27 -23 -61.5 -39t-67.5 -16q-47 0 -65.5 22.5t-18.5 57.5q0 41 18.5 89t40.5 91q-27 -33 -67.5 -79t-73.5 -77q-45 -41 -86 -72.5t-86 -31.5q-76 0 -76 86zM560 823q0 29 23.5 50.5t49.5 21.5q23 0 35 -13.5t12 -33.5q0 -27 -22 -49.5 t-49 -22.5q-20 0 -34.5 13.5t-14.5 33.5zM760 823q0 29 22.5 50.5t49.5 21.5q23 0 36 -13.5t13 -33.5q0 -27 -22.5 -49.5t-51.5 -22.5q-20 0 -33.5 13.5t-13.5 33.5z" />
<glyph unicode="&#xe5;" horiz-adv-x="636" d="M-39 84q0 49 28.5 117.5t86.5 144.5q41 51 100.5 109.5t130 112t144 87t143.5 33.5q31 0 43 -9t16 -20q4 -8 1 -12t-7 -2q-8 4 -33 4q-74 0 -175 -70.5t-199 -183.5q-70 -78 -115 -152.5t-59 -123.5q-4 -16 -5 -29q0 -29 23 -29q14 0 38.5 13.5t63.5 46.5 q61 53 122 124.5t120 146.5t115.5 138.5t107.5 96.5q66 43 91.5 49t41.5 8q-10 -12 -44.5 -57t-73.5 -95.5t-64 -82.5q-37 -53 -79 -115t-75.5 -116t-46.5 -89q-10 -35 -10 -51q0 -33 27 -33q18 0 43.5 15.5t52.5 35.5q35 29 65.5 60.5t63.5 70.5q8 0 8 -12q0 -18 -8 -29 q-27 -31 -64.5 -67.5t-74.5 -65.5q-27 -23 -61.5 -39t-67.5 -16q-47 0 -65.5 22.5t-18.5 57.5q0 41 18.5 89t40.5 91q-27 -33 -67.5 -79t-73.5 -77q-45 -41 -86 -72.5t-86 -31.5q-76 0 -76 86zM611 864q0 63 56 108.5t120 45.5q43 0 72.5 -24.5t29.5 -61.5q0 -68 -54 -112 t-120 -44q-43 0 -73.5 24.5t-30.5 63.5zM682 860q0 -53 41 -53q39 0 68 41t29 86q0 51 -41 51q-35 0 -66 -36t-31 -89z" />
<glyph unicode="&#xe6;" horiz-adv-x="829" d="M-39 84q0 49 28.5 117.5t86.5 144.5q41 51 100.5 109.5t130 112t144 87t143.5 33.5q31 0 43 -9t16 -20q4 -8 1 -12t-7 -2q-8 4 -33 4q-74 0 -175 -70.5t-199 -183.5q-70 -78 -115 -152.5t-59 -123.5q-4 -16 -5 -29q0 -29 23 -29q14 0 38.5 13.5t63.5 46.5 q61 53 122 124.5t120 146.5t115.5 138.5t107.5 96.5q66 43 91.5 49t41.5 8l-28 -37q35 16 67.5 26.5t59.5 10.5q25 0 45 -11t20 -48q0 -51 -49 -97.5t-111 -85.5q-70 -45 -145.5 -76.5t-130.5 -48.5q-31 -49 -48.5 -99t-17.5 -99q0 -47 20.5 -67.5t53.5 -20.5q39 0 77 11 t71 36q47 31 91 76t81 84q4 0 4 -5q0 -8 -6.5 -22t-8.5 -23q-31 -39 -67.5 -75.5t-81.5 -67.5q-39 -25 -84 -40t-100 -15q-88 0 -126 40t-38 107q0 35 11 74t30 78q-14 -23 -44 -57.5t-61.5 -69.5t-58.5 -60q-45 -41 -86 -70.5t-86 -33.5q-76 -4 -76 86zM532 348 q53 18 125 51t127 72q12 8 44 33.5t58.5 57.5t26.5 56q0 33 -34 33q-35 0 -79 -30.5t-71 -53.5q-49 -45 -101.5 -100.5t-95.5 -118.5z" />
<glyph unicode="&#xe7;" horiz-adv-x="483" d="M-20 -291q0 10 10 10q12 0 17 -12q16 -20 37.5 -27.5t41.5 -7.5q49 0 74 31t25 64q0 29 -16.5 49t-49.5 20q-27 0 -42 -6t-25 -6q-8 0 -15.5 5t-7.5 13t6 15q4 4 23.5 26.5t44 51t43 49t20.5 20.5q4 0 15.5 -1t9.5 -3t-18.5 -20.5t-34 -40t-27.5 -39t-2 -21.5q8 2 27 2 q41 0 82 -26.5t41 -75.5q0 -68 -53.5 -104.5t-110.5 -36.5q-39 0 -71 17t-44 54zM-14 137q0 70 36.5 145.5t99 147.5t136.5 129t148.5 91t138.5 34q39 0 54 -19.5t15 -46.5t-12 -51q-18 -43 -64 -87t-106 -44q-23 0 -26 16.5t2 24.5q29 8 78 36t77 85q6 12 6 23q0 31 -37 30 q-47 0 -121.5 -58t-164.5 -167q-63 -74 -105.5 -148.5t-42.5 -152.5q0 -47 18.5 -74.5t67.5 -27.5q63 0 115.5 30.5t97.5 78.5t86 95q8 0 9 -12q0 -18 -9 -29q-41 -47 -88 -94t-104 -76.5t-131 -29.5q-39 0 -80 11t-67.5 44t-26.5 96z" />
<glyph unicode="&#xe8;" horiz-adv-x="481" d="M-16 137q0 68 37.5 142.5t95.5 142.5q35 41 86 86t110.5 85t117.5 65.5t104 25.5q25 0 45 -11t20 -48q0 -51 -49 -97.5t-111 -85.5q-70 -45 -145.5 -75.5t-130.5 -47.5q-31 -49 -49.5 -100t-18.5 -100q0 -53 25.5 -72.5t60.5 -19.5q63 0 115.5 29.5t97.5 76.5t86 94 q8 0 8 -12q0 -18 -8 -29q-41 -47 -89 -94t-105 -76.5t-131 -29.5q-94 0 -133 41t-39 110zM188 348q53 18 126 51t128 72q12 8 43 33.5t57.5 57.5t26.5 56q0 33 -32 33q-35 0 -79 -30.5t-71 -53.5q-49 -45 -102.5 -100.5t-96.5 -118.5zM395 934q0 12 13.5 23.5t23.5 11.5 q8 0 37.5 -18.5t69.5 -45t78 -53.5t63.5 -46.5t25.5 -21.5q0 -4 -8 -4q-18 0 -66.5 19.5t-102.5 46t-94 51.5t-40 37z" />
<glyph unicode="&#xe9;" horiz-adv-x="481" d="M-16 137q0 68 37.5 142.5t95.5 142.5q35 41 86 86t110.5 85t117.5 65.5t104 25.5q25 0 45 -11t20 -48q0 -51 -49 -97.5t-111 -85.5q-70 -45 -145.5 -75.5t-130.5 -47.5q-31 -49 -49.5 -100t-18.5 -100q0 -53 25.5 -72.5t60.5 -19.5q63 0 115.5 29.5t97.5 76.5t86 94 q8 0 8 -12q0 -18 -8 -29q-41 -47 -89 -94t-105 -76.5t-131 -29.5q-94 0 -133 41t-39 110zM188 348q53 18 126 51t128 72q12 8 43 33.5t57.5 57.5t26.5 56q0 33 -32 33q-35 0 -79 -30.5t-71 -53.5q-49 -45 -102.5 -100.5t-96.5 -118.5zM395 784q0 2 25.5 21.5t63.5 46.5 t78 53.5t69.5 45t37.5 18.5q10 0 23.5 -11.5t13.5 -23.5t-40 -37t-94 -51.5t-102.5 -46t-66.5 -19.5q-8 0 -8 4z" />
<glyph unicode="&#xea;" horiz-adv-x="481" d="M-16 137q0 68 37.5 142.5t95.5 142.5q35 41 86 86t110.5 85t117.5 65.5t104 25.5q25 0 45 -11t20 -48q0 -51 -49 -97.5t-111 -85.5q-70 -45 -145.5 -75.5t-130.5 -47.5q-31 -49 -49.5 -100t-18.5 -100q0 -53 25.5 -72.5t60.5 -19.5q63 0 115.5 29.5t97.5 76.5t86 94 q8 0 8 -12q0 -18 -8 -29q-41 -47 -89 -94t-105 -76.5t-131 -29.5q-94 0 -133 41t-39 110zM188 348q53 18 126 51t128 72q12 8 43 33.5t57.5 57.5t26.5 56q0 33 -32 33q-35 0 -79 -30.5t-71 -53.5q-49 -45 -102.5 -100.5t-96.5 -118.5zM326 778q0 2 28.5 23.5t69.5 50.5 t83 54.5t71 37.5q8 4 20 4q14 0 38 -24.5t47.5 -57t39 -59.5t15.5 -29q-4 -4 -11 -4q-16 0 -44.5 20.5t-58.5 46t-54 38.5q-33 -12 -80 -38t-90 -46.5t-68 -20.5q-10 0 -6 4z" />
<glyph unicode="&#xeb;" horiz-adv-x="481" d="M-16 137q0 68 37.5 142.5t95.5 142.5q35 41 86 86t110.5 85t117.5 65.5t104 25.5q25 0 45 -11t20 -48q0 -51 -49 -97.5t-111 -85.5q-70 -45 -145.5 -75.5t-130.5 -47.5q-31 -49 -49.5 -100t-18.5 -100q0 -53 25.5 -72.5t60.5 -19.5q63 0 115.5 29.5t97.5 76.5t86 94 q8 0 8 -12q0 -18 -8 -29q-41 -47 -89 -94t-105 -76.5t-131 -29.5q-94 0 -133 41t-39 110zM188 348q53 18 126 51t128 72q12 8 43 33.5t57.5 57.5t26.5 56q0 33 -32 33q-35 0 -79 -30.5t-71 -53.5q-49 -45 -102.5 -100.5t-96.5 -118.5zM408 823q0 29 23.5 50.5t49.5 21.5 q23 0 35 -13.5t12 -33.5q0 -27 -22 -49.5t-49 -22.5q-20 0 -34.5 13.5t-14.5 33.5zM608 823q0 29 22.5 50.5t49.5 21.5q23 0 36 -13.5t13 -33.5q0 -27 -22.5 -49.5t-51.5 -22.5q-20 0 -33.5 13.5t-13.5 33.5z" />
<glyph unicode="&#xec;" horiz-adv-x="344" d="M-37 100q0 59 36 128t89 137.5t108.5 129t96.5 99.5q39 39 80 57.5t71 25.5l29 7q-45 -51 -123 -145.5t-153 -200.5q-6 -8 -29 -41t-50.5 -76t-47 -84t-19.5 -65q0 -39 41 -39q31 0 67 22.5t72.5 55t66.5 64.5t46 52q8 0 8 -12q0 -18 -8 -29q-78 -90 -140 -140t-138 -50 q-55 0 -79 29.5t-24 74.5zM309 934q0 12 13.5 23.5t23.5 11.5q8 0 37.5 -18.5t69.5 -45t78 -53.5t63.5 -46.5t25.5 -21.5q0 -4 -8 -4q-18 0 -66.5 19.5t-102.5 46t-94 51.5t-40 37z" />
<glyph unicode="&#xed;" horiz-adv-x="344" d="M-37 100q0 59 36 128t89 137.5t108.5 129t96.5 99.5q39 39 80 57.5t71 25.5l29 7q-45 -51 -123 -145.5t-153 -200.5q-6 -8 -29 -41t-50.5 -76t-47 -84t-19.5 -65q0 -39 41 -39q31 0 67 22.5t72.5 55t66.5 64.5t46 52q8 0 8 -12q0 -18 -8 -29q-78 -90 -140 -140t-138 -50 q-55 0 -79 29.5t-24 74.5zM309 784q0 2 25.5 21.5t63.5 46.5t78 53.5t69.5 45t37.5 18.5q10 0 23.5 -11.5t13.5 -23.5t-40 -37t-94 -51.5t-102.5 -46t-66.5 -19.5q-8 0 -8 4z" />
<glyph unicode="&#xee;" horiz-adv-x="344" d="M-37 100q0 59 36 128t89 137.5t108.5 129t96.5 99.5q39 39 80 57.5t71 25.5l29 7q-45 -51 -123 -145.5t-153 -200.5q-6 -8 -29 -41t-50.5 -76t-47 -84t-19.5 -65q0 -39 41 -39q31 0 67 22.5t72.5 55t66.5 64.5t46 52q8 0 8 -12q0 -18 -8 -29q-78 -90 -140 -140t-138 -50 q-55 0 -79 29.5t-24 74.5zM240 778q0 2 28.5 23.5t69.5 50.5t83 54.5t71 37.5q8 4 20 4q14 0 38 -24.5t47.5 -57t39 -59.5t15.5 -29q-4 -4 -11 -4q-16 0 -44.5 20.5t-58.5 46t-54 38.5q-33 -12 -80 -38t-90 -46.5t-68 -20.5q-10 0 -6 4z" />
<glyph unicode="&#xef;" horiz-adv-x="344" d="M-37 100q0 59 36 128t89 137.5t108.5 129t96.5 99.5q39 39 80 57.5t71 25.5l29 7q-45 -51 -123 -145.5t-153 -200.5q-6 -8 -29 -41t-50.5 -76t-47 -84t-19.5 -65q0 -39 41 -39q31 0 67 22.5t72.5 55t66.5 64.5t46 52q8 0 8 -12q0 -18 -8 -29q-78 -90 -140 -140t-138 -50 q-55 0 -79 29.5t-24 74.5zM322 823q0 29 23.5 50.5t49.5 21.5q23 0 35 -13.5t12 -33.5q0 -27 -22 -49.5t-49 -22.5q-20 0 -34.5 13.5t-14.5 33.5zM522 823q0 29 22.5 50.5t49.5 21.5q23 0 36 -13.5t13 -33.5q0 -27 -22.5 -49.5t-51.5 -22.5q-20 0 -33.5 13.5t-13.5 33.5z " />
<glyph unicode="&#xf0;" horiz-adv-x="690" d="M31 94v20.5t2 18.5q16 115 79.5 223.5t153.5 196.5q55 59 119 96t119 45q6 2 12 2h10q41 0 51.5 -32.5t6.5 -73.5q20 72 32.5 148.5t12.5 148.5q0 51 -6 96l-199 -80l14 53l174 72q-18 72 -61 123q-47 53 -119 53q-55 0 -117 -26h-2q-4 0 -4 6q0 4 7.5 14t27.5 19 q66 33 135 32q43 0 81 -12t65 -35q29 -25 48 -59.5t29 -77.5l162 65l-16 -55l-135 -55q6 -43 6 -88q0 -94 -21.5 -197.5t-56.5 -187.5q-31 -76 -80 -166t-115.5 -174t-144.5 -144.5t-166 -76.5q-6 -2 -13 -2h-11q-45 0 -62.5 34.5t-17.5 75.5zM106 72q1 -60 48 -52 q41 8 92 54.5t103 115t97.5 144.5t75 142.5t35.5 109.5q4 33 -2 60.5t-41 27.5q-47 0 -102.5 -47t-109.5 -121t-98 -157t-71 -156.5t-27 -120.5z" />
<glyph unicode="&#xf1;" horiz-adv-x="602" d="M-68 41q0 41 26 98.5t44 89.5q53 90 122 189.5t128 175.5q31 41 65.5 60.5t58.5 24.5l25 5q-12 -18 -51 -77.5t-90 -139.5t-104 -162q84 96 180 187.5t184 148.5q27 18 55.5 30.5t59.5 12.5q55 0 55 -43q0 -33 -39 -78q-47 -55 -102 -122.5t-105.5 -137.5t-82 -129 t-31.5 -96q0 -20 11 -29.5t19 -9.5q31 0 69 24.5t74 58.5t63.5 64.5t35.5 40.5q8 0 8 -12q0 -18 -8 -29q-29 -31 -76 -75.5t-100 -78.5t-102 -34q-43 0 -61.5 23.5t-18.5 60.5q0 55 39 126t101 148.5t131 153.5t130 139q-31 0 -66.5 -16.5t-72.5 -38.5q-55 -37 -121 -98.5 t-131.5 -131t-124.5 -137.5q-47 -55 -74.5 -92t-47 -66.5t-42.5 -66.5q-33 0 -33 39zM453 805q20 63 57 89t82 26q35 0 58.5 -18.5t45 -38t48.5 -19.5q29 0 54.5 19.5t39.5 49.5q6 12 14 13q14 0 9 -21q-41 -121 -162 -121q-33 0 -54.5 19.5t-41 38t-48.5 18.5 q-33 0 -48 -15.5t-33 -43.5q-4 -8 -14.5 -8t-6.5 12z" />
<glyph unicode="&#xf2;" horiz-adv-x="528" d="M-31 94q0 57 34 135t91.5 158t129 148.5t146 110.5t144.5 42q51 0 73.5 -26.5t22.5 -69.5q0 -57 -32.5 -136t-89 -160t-125 -150.5t-142 -112.5t-141.5 -43q-59 0 -85 29.5t-26 74.5zM66 70q-1 -41 38 -41q43 0 103.5 44t124 113.5t118 148.5t88 149.5t33.5 115.5 q0 49 -47 49q-39 0 -97 -46t-120.5 -117.5t-118 -151.5t-89 -151.5t-33.5 -112.5zM428 934q0 12 13.5 23.5t23.5 11.5q8 0 37.5 -18.5t69.5 -45t78 -53.5t63.5 -46.5t25.5 -21.5q0 -4 -8 -4q-18 0 -66.5 19.5t-102.5 46t-94 51.5t-40 37z" />
<glyph unicode="&#xf3;" horiz-adv-x="528" d="M-31 94q0 57 34 135t91.5 158t129 148.5t146 110.5t144.5 42q51 0 73.5 -26.5t22.5 -69.5q0 -57 -32.5 -136t-89 -160t-125 -150.5t-142 -112.5t-141.5 -43q-59 0 -85 29.5t-26 74.5zM66 70q-1 -41 38 -41q43 0 103.5 44t124 113.5t118 148.5t88 149.5t33.5 115.5 q0 49 -47 49q-39 0 -97 -46t-120.5 -117.5t-118 -151.5t-89 -151.5t-33.5 -112.5zM428 784q0 2 25.5 21.5t63.5 46.5t78 53.5t69.5 45t37.5 18.5q10 0 23.5 -11.5t13.5 -23.5t-40 -37t-94 -51.5t-102.5 -46t-66.5 -19.5q-8 0 -8 4z" />
<glyph unicode="&#xf4;" horiz-adv-x="528" d="M-31 94q0 57 34 135t91.5 158t129 148.5t146 110.5t144.5 42q51 0 73.5 -26.5t22.5 -69.5q0 -57 -32.5 -136t-89 -160t-125 -150.5t-142 -112.5t-141.5 -43q-59 0 -85 29.5t-26 74.5zM66 70q-1 -41 38 -41q43 0 103.5 44t124 113.5t118 148.5t88 149.5t33.5 115.5 q0 49 -47 49q-39 0 -97 -46t-120.5 -117.5t-118 -151.5t-89 -151.5t-33.5 -112.5zM358 778q0 2 28.5 23.5t69.5 50.5t83 54.5t71 37.5q8 4 20 4q14 0 38 -24.5t47.5 -57t39 -59.5t15.5 -29q-4 -4 -11 -4q-16 0 -44.5 20.5t-58.5 46t-54 38.5q-33 -12 -80 -38t-90 -46.5 t-68 -20.5q-10 0 -6 4z" />
<glyph unicode="&#xf5;" horiz-adv-x="528" d="M-31 94q0 57 34 135t91.5 158t129 148.5t146 110.5t144.5 42q51 0 73.5 -26.5t22.5 -69.5q0 -57 -32.5 -136t-89 -160t-125 -150.5t-142 -112.5t-141.5 -43q-59 0 -85 29.5t-26 74.5zM66 70q-1 -41 38 -41q43 0 103.5 44t124 113.5t118 148.5t88 149.5t33.5 115.5 q0 49 -47 49q-39 0 -97 -46t-120.5 -117.5t-118 -151.5t-89 -151.5t-33.5 -112.5zM399 805q20 63 57 89t82 26q35 0 58.5 -18.5t45 -38t48.5 -19.5q29 0 54.5 19.5t39.5 49.5q6 12 14 13q14 0 9 -21q-41 -121 -162 -121q-33 0 -54.5 19.5t-41 38t-48.5 18.5q-33 0 -48 -15.5 t-33 -43.5q-4 -8 -14.5 -8t-6.5 12z" />
<glyph unicode="&#xf6;" horiz-adv-x="528" d="M-31 94q0 57 34 135t91.5 158t129 148.5t146 110.5t144.5 42q51 0 73.5 -26.5t22.5 -69.5q0 -57 -32.5 -136t-89 -160t-125 -150.5t-142 -112.5t-141.5 -43q-59 0 -85 29.5t-26 74.5zM66 70q-1 -41 38 -41q43 0 103.5 44t124 113.5t118 148.5t88 149.5t33.5 115.5 q0 49 -47 49q-39 0 -97 -46t-120.5 -117.5t-118 -151.5t-89 -151.5t-33.5 -112.5zM441 823q0 29 23.5 50.5t49.5 21.5q23 0 35 -13.5t12 -33.5q0 -27 -22 -49.5t-49 -22.5q-20 0 -34.5 13.5t-14.5 33.5zM641 823q0 29 22.5 50.5t49.5 21.5q23 0 36 -13.5t13 -33.5 q0 -27 -22.5 -49.5t-51.5 -22.5q-20 0 -33.5 13.5t-13.5 33.5z" />
<glyph unicode="&#xf7;" horiz-adv-x="626" d="M166 430l35 45h465l-35 -45h-465zM240 227q0 33 31.5 59.5t64.5 26.5q35 0 35 -32q0 -31 -28.5 -58.5t-61.5 -29.5q-41 0 -41 34zM424 623q0 31 31.5 58.5t64.5 27.5q37 0 37 -35q0 -33 -30.5 -58.5t-65.5 -25.5q-37 0 -37 33z" />
<glyph unicode="&#xf8;" horiz-adv-x="528" d="M-106 -193l141 189q-35 10 -51.5 35.5t-16.5 62.5q0 57 34 135t92.5 158t130 148.5t146 110.5t144.5 42q25 0 43 -6l100 131h45l-114 -151q23 -27 22 -70q0 -57 -32.5 -135t-89 -160t-126 -152.5t-144.5 -113.5t-142 -41l-137 -183h-45zM66 70q0 -17 6 -27l460 604l-8 2 q-39 0 -97 -46t-120.5 -117.5t-118 -151.5t-89 -151.5t-33.5 -112.5zM106 29q43 2 103.5 46t123 113.5t117 148.5t88 148.5t33.5 114.5q0 10 -2 17.5t-6 13.5z" />
<glyph unicode="&#xf9;" horiz-adv-x="643" d="M-45 80q0 35 15.5 77t37.5 83q39 66 89 132t102.5 123.5t93.5 98.5q39 39 80 57.5t71 25.5l29 7q-45 -51 -122 -145.5t-154 -200.5q-8 -10 -30 -43t-46.5 -73t-42 -78t-17.5 -60q0 -23 25 -21q27 2 70 39t92 90.5t93 105.5t73 87q23 27 55.5 67t67 83t63.5 75 q33 37 70 52.5t64 18.5l28 3q-16 -20 -64.5 -79.5t-108 -140.5t-112.5 -168t-82 -165q-14 -35 -14 -57q0 -20 10 -27.5t23 -7.5q29 0 64.5 24.5t69.5 58.5t60.5 64.5t34.5 40.5q8 0 8 -12q0 -18 -8 -29q-31 -37 -75 -80t-92 -74.5t-95 -31.5q-51 0 -71.5 24.5t-20.5 61.5 q0 35 14 77t35 79q-25 -25 -58.5 -65t-74.5 -81t-82 -68.5t-78 -27.5q-49 0 -69.5 22.5t-20.5 57.5zM473 934q0 12 13.5 23.5t23.5 11.5q8 0 37.5 -18.5t69.5 -45t78 -53.5t63.5 -46.5t25.5 -21.5q0 -4 -8 -4q-18 0 -66.5 19.5t-102.5 46t-94 51.5t-40 37z" />
<glyph unicode="&#xfa;" horiz-adv-x="643" d="M-45 80q0 35 15.5 77t37.5 83q39 66 89 132t102.5 123.5t93.5 98.5q39 39 80 57.5t71 25.5l29 7q-45 -51 -122 -145.5t-154 -200.5q-8 -10 -30 -43t-46.5 -73t-42 -78t-17.5 -60q0 -23 25 -21q27 2 70 39t92 90.5t93 105.5t73 87q23 27 55.5 67t67 83t63.5 75 q33 37 70 52.5t64 18.5l28 3q-16 -20 -64.5 -79.5t-108 -140.5t-112.5 -168t-82 -165q-14 -35 -14 -57q0 -20 10 -27.5t23 -7.5q29 0 64.5 24.5t69.5 58.5t60.5 64.5t34.5 40.5q8 0 8 -12q0 -18 -8 -29q-31 -37 -75 -80t-92 -74.5t-95 -31.5q-51 0 -71.5 24.5t-20.5 61.5 q0 35 14 77t35 79q-25 -25 -58.5 -65t-74.5 -81t-82 -68.5t-78 -27.5q-49 0 -69.5 22.5t-20.5 57.5zM473 784q0 2 25.5 21.5t63.5 46.5t78 53.5t69.5 45t37.5 18.5q10 0 23.5 -11.5t13.5 -23.5t-40 -37t-94 -51.5t-102.5 -46t-66.5 -19.5q-8 0 -8 4z" />
<glyph unicode="&#xfb;" horiz-adv-x="643" d="M-45 80q0 35 15.5 77t37.5 83q39 66 89 132t102.5 123.5t93.5 98.5q39 39 80 57.5t71 25.5l29 7q-45 -51 -122 -145.5t-154 -200.5q-8 -10 -30 -43t-46.5 -73t-42 -78t-17.5 -60q0 -23 25 -21q27 2 70 39t92 90.5t93 105.5t73 87q23 27 55.5 67t67 83t63.5 75 q33 37 70 52.5t64 18.5l28 3q-16 -20 -64.5 -79.5t-108 -140.5t-112.5 -168t-82 -165q-14 -35 -14 -57q0 -20 10 -27.5t23 -7.5q29 0 64.5 24.5t69.5 58.5t60.5 64.5t34.5 40.5q8 0 8 -12q0 -18 -8 -29q-31 -37 -75 -80t-92 -74.5t-95 -31.5q-51 0 -71.5 24.5t-20.5 61.5 q0 35 14 77t35 79q-25 -25 -58.5 -65t-74.5 -81t-82 -68.5t-78 -27.5q-49 0 -69.5 22.5t-20.5 57.5zM403 778q0 2 28.5 23.5t69.5 50.5t83 54.5t71 37.5q8 4 20 4q14 0 38 -24.5t47.5 -57t39 -59.5t15.5 -29q-4 -4 -11 -4q-16 0 -44.5 20.5t-58.5 46t-54 38.5 q-33 -12 -80 -38t-90 -46.5t-68 -20.5q-10 0 -6 4z" />
<glyph unicode="&#xfc;" horiz-adv-x="643" d="M-45 80q0 35 15.5 77t37.5 83q39 66 89 132t102.5 123.5t93.5 98.5q39 39 80 57.5t71 25.5l29 7q-45 -51 -122 -145.5t-154 -200.5q-8 -10 -30 -43t-46.5 -73t-42 -78t-17.5 -60q0 -23 25 -21q27 2 70 39t92 90.5t93 105.5t73 87q23 27 55.5 67t67 83t63.5 75 q33 37 70 52.5t64 18.5l28 3q-16 -20 -64.5 -79.5t-108 -140.5t-112.5 -168t-82 -165q-14 -35 -14 -57q0 -20 10 -27.5t23 -7.5q29 0 64.5 24.5t69.5 58.5t60.5 64.5t34.5 40.5q8 0 8 -12q0 -18 -8 -29q-31 -37 -75 -80t-92 -74.5t-95 -31.5q-51 0 -71.5 24.5t-20.5 61.5 q0 35 14 77t35 79q-25 -25 -58.5 -65t-74.5 -81t-82 -68.5t-78 -27.5q-49 0 -69.5 22.5t-20.5 57.5zM486 823q0 29 23.5 50.5t49.5 21.5q23 0 35 -13.5t12 -33.5q0 -27 -22 -49.5t-49 -22.5q-20 0 -34.5 13.5t-14.5 33.5zM686 823q0 29 22.5 50.5t49.5 21.5q23 0 36 -13.5 t13 -33.5q0 -27 -22.5 -49.5t-51.5 -22.5q-20 0 -33.5 13.5t-13.5 33.5z" />
<glyph unicode="&#xfd;" horiz-adv-x="579" d="M-365 -479q0 8 15 8q10 0 20.5 -1t20.5 -1q74 0 147.5 45t143 120t133 165t114.5 178l158 272q-27 -31 -69 -82t-91 -102t-96 -87t-88 -36q-49 0 -69.5 22.5t-20.5 57.5t15.5 76t37.5 82q39 66 89 132t102.5 124.5t93.5 99.5q39 39 80 57.5t71 25.5l29 7 q-45 -51 -122 -145.5t-154 -200.5q-8 -10 -30 -43t-46.5 -73t-42 -78t-17.5 -60q0 -23 25 -21q27 2 70 39t92 90.5t93 105.5t73 87q29 33 67.5 82t83.5 99t95.5 84t101.5 34q18 0 22 -4q-74 -35 -137 -113t-120.5 -182t-116 -220t-124 -227.5t-143.5 -201.5 q-92 -106 -197.5 -173t-201.5 -67q-59 0 -83 9.5t-24 15.5zM487 784q0 2 25.5 21.5t63.5 46.5t78 53.5t69.5 45t37.5 18.5q10 0 23.5 -11.5t13.5 -23.5t-40 -37t-94 -51.5t-102.5 -46t-66.5 -19.5q-8 0 -8 4z" />
<glyph unicode="&#xfe;" horiz-adv-x="628" d="M-723 -498q63 0 134 40t143.5 104.5t143.5 143.5t133.5 158t111.5 144q145 195 256.5 385.5t196.5 354t145 278.5q33 -2 32 -51q0 -53 -35.5 -146.5t-96 -204t-132.5 -216.5l-45 -68q96 106 190.5 185t170.5 79q66 0 65 -80q0 -49 -30.5 -122.5t-94.5 -155.5 q-39 -51 -97 -109.5t-127 -111t-140.5 -85t-139.5 -32.5q-55 0 -65 20q-4 6 -1 10.5t5 4.5l10 -2t25 -2q49 0 112.5 34.5t134 94t134.5 133.5q70 78 117 154.5t61 125.5q4 16 4 27q0 16 -7 27.5t-28 7.5q-49 -12 -117.5 -68.5t-143.5 -134.5t-144 -158q-39 -57 -77 -109.5 t-77 -101.5q-35 -45 -91 -117.5t-124 -152.5t-141.5 -150.5t-146 -114.5t-138.5 -44q-20 0 -45 2t-41 24z" />
<glyph unicode="&#xff;" horiz-adv-x="579" d="M-365 -479q0 8 15 8q10 0 20.5 -1t20.5 -1q74 0 147.5 45t143 120t133 165t114.5 178l158 272q-27 -31 -69 -82t-91 -102t-96 -87t-88 -36q-49 0 -69.5 22.5t-20.5 57.5t15.5 76t37.5 82q39 66 89 132t102.5 124.5t93.5 99.5q39 39 80 57.5t71 25.5l29 7 q-45 -51 -122 -145.5t-154 -200.5q-8 -10 -30 -43t-46.5 -73t-42 -78t-17.5 -60q0 -23 25 -21q27 2 70 39t92 90.5t93 105.5t73 87q29 33 67.5 82t83.5 99t95.5 84t101.5 34q18 0 22 -4q-74 -35 -137 -113t-120.5 -182t-116 -220t-124 -227.5t-143.5 -201.5 q-92 -106 -197.5 -173t-201.5 -67q-59 0 -83 9.5t-24 15.5zM500 823q0 29 23.5 50.5t49.5 21.5q23 0 35 -13.5t12 -33.5q0 -27 -22 -49.5t-49 -22.5q-20 0 -34.5 13.5t-14.5 33.5zM700 823q0 29 22.5 50.5t49.5 21.5q23 0 36 -13.5t13 -33.5q0 -27 -22.5 -49.5t-51.5 -22.5 q-20 0 -33.5 13.5t-13.5 33.5z" />
<glyph unicode="&#x152;" horiz-adv-x="2052" d="M29 897q0 55 32.5 92t83 59.5t106.5 33t103 12.5q57 0 123 -6.5t141 -22.5q10 -2 7.5 -8t-13.5 -4q-43 6 -95 8t-95 2q-37 0 -92.5 -7t-108.5 -24.5t-89 -52.5t-36 -92q0 -63 80 -108.5t254 -49.5q113 129 247 228.5t269 154.5t250 55q72 0 104.5 -25.5t32.5 -66.5 q0 -29 -17.5 -64.5t-51.5 -70.5q18 -33 18 -86q0 -45 -18 -111q-8 -27 -18.5 -53t-24.5 -53q49 10 94 12q-6 23 -6 76q0 78 45 158t121.5 148.5t172 110.5t195.5 42h24.5t22.5 -2q68 -6 115 -36t47 -85q0 -18 -6 -41q-27 -84 -100.5 -150.5t-169.5 -95.5q-8 -2 -15.5 -3 t-11.5 -1q-8 0 -8 4q0 16 33 29q88 41 148 100.5t77 128.5q2 4 2 10.5v10.5q0 33 -27.5 55t-103.5 22q-66 0 -155 -40.5t-179 -124.5q-57 -53 -100 -124t-76 -149q-2 -12 -6 -21t-6 -20q80 4 133 -26q16 -8 16 -21q0 -12 -16.5 -18t-42.5 -6q-57 0 -86 18t-37 45 q-82 -12 -163 -59t-148.5 -117t-113.5 -152t-59 -163q-6 -37 -6 -68q0 -63 36 -102t136 -39q90 0 185.5 45t179.5 117.5t140.5 156.5t68.5 160q2 6 2 18q0 25 -15.5 42.5t-50.5 17.5q-8 0 -17 -1t-20 -3q-57 -10 -130.5 -59.5t-139 -122t-98.5 -154.5l-8 -4q-10 0 -7 26 q20 55 66.5 117.5t109 117t137.5 89.5t150 35q59 0 86 -24.5t27 -65.5q0 -57 -51 -138q-39 -61 -108.5 -130.5t-159 -133t-185.5 -103.5t-188 -40q-106 0 -168 44t-78 120q-90 -59 -179 -95t-169 -36q-104 0 -157.5 55t-53.5 156q0 57 18 126q29 115 87.5 222.5t136.5 201.5 q-176 6 -277.5 60.5t-101.5 136.5zM258 102q0 -63 31 -100t94 -37q78 0 165 40t171 104q0 35 6 77q14 90 74.5 173t149.5 148.5t186 102.5q45 80 65 152q10 33 14.5 58.5t4.5 45.5v18.5t-2 16.5l-17 -12q-88 -57 -201.5 -95t-232.5 -59.5t-221 -29.5q-94 -117 -167 -241 t-102 -239q-18 -70 -18 -123zM571 737q88 10 192.5 35t207 61.5t180.5 79.5q66 35 102.5 81t36.5 85q0 31 -25.5 50.5t-84.5 19.5q-82 0 -186.5 -56.5t-214.5 -148.5t-208 -207z" />
<glyph unicode="&#x153;" horiz-adv-x="878" d="M-33 94q0 57 34 135t92.5 158t130 148.5t146 110.5t144.5 42q53 0 74.5 -25.5t21.5 -68.5q0 -39 -16 -92q51 45 111.5 87t120 68.5t106.5 26.5q25 0 45 -11t20 -48q0 -51 -49 -97.5t-110 -85.5q-70 -45 -146 -75.5t-131 -47.5q-31 -49 -49 -100t-18 -100 q0 -53 25.5 -72.5t60.5 -19.5q63 0 115.5 29.5t97.5 76.5t86 94q8 0 8 -12q0 -18 -8 -29q-41 -47 -89.5 -94t-105.5 -76.5t-131 -29.5q-94 0 -133 41t-39 110v14.5t2 14.5q-70 -76 -150.5 -126t-152.5 -50q-59 0 -86 28.5t-27 75.5zM66 70q-1 -41 38 -41q43 0 103.5 44 t124 113.5t118 148.5t88 149.5t33.5 115.5q0 49 -47 49q-39 0 -97 -46t-120.5 -117.5t-118 -151.5t-89 -151.5t-33.5 -112.5zM586 348q53 18 125.5 51t128.5 72q12 8 42.5 33.5t57.5 57.5t27 56q0 33 -33 33q-35 0 -79 -30.5t-71 -53.5q-49 -45 -102 -100.5t-96 -118.5z" />
<glyph unicode="&#x178;" horiz-adv-x="890" d="M-348 -356q0 76 37 157.5t94 143.5q59 63 139 110t166 68q6 29 25 70q47 109 129 231.5t179 239t183 202.5q29 31 83 78t115.5 90t110.5 62q-18 -2 -62 6t-73 12q-33 4 -90 10t-123 6q-80 0 -168 -15t-164.5 -56t-130.5 -119q-12 -20 -21 -45t-9 -53q0 -39 19.5 -71 t68.5 -32q8 0 16 1t17 3q2 0 2 -2q0 -12 -23 -20q-8 -2 -16.5 -3t-16.5 -1q-76 0 -105.5 46t-29.5 103q0 76 41 132.5t106.5 92t139.5 52.5q84 18 176 18q41 0 82 -2t82 -6q59 -4 125.5 -11t132.5 -7q29 0 54.5 2t51.5 6q10 -2 0 -24.5t-45 -26.5q-49 -39 -99 -89.5 t-90 -94.5t-61 -68q-14 -14 -63 -73.5t-115.5 -143.5t-134.5 -177.5t-121 -179.5q-23 -35 -40 -68.5t-27 -62.5q25 0 49 -2t49 -6q20 -2 20 -8q0 -4 -12 -4t-25.5 2t-25.5 2q-33 0 -64 -6q-6 -16 -8 -31.5t-2 -28.5q0 -20 8.5 -26.5t24.5 -6.5q41 0 92 33t109 90 q86 92 182 202t191.5 224.5t175.5 216.5q4 10 9 21.5t7 21.5q14 41 39 41q14 0 8 -20q-39 -117 -96.5 -266.5t-135 -307t-174 -306t-212 -267.5t-248.5 -189.5t-285 -70.5q-121 0 -172 59.5t-51 141.5zM-276 -375q-2 -63 28.5 -106t104.5 -43q90 0 171 44t154.5 110.5 t136.5 136.5q80 86 170.5 206.5t177.5 256t159.5 269.5t119.5 244q-74 -113 -163 -227.5t-180 -217.5t-173 -181q-61 -59 -127.5 -96t-126.5 -39q-39 0 -65.5 24.5t-26.5 75.5q-70 -31 -133.5 -78t-106.5 -102q-45 -53 -82.5 -128t-37.5 -149zM986 1249q0 29 23.5 50.5 t49.5 21.5q23 0 35 -13.5t12 -33.5q0 -27 -22 -49.5t-49 -22.5q-20 0 -34.5 13.5t-14.5 33.5zM1186 1249q0 29 22.5 50.5t49.5 21.5q23 0 36 -13.5t13 -33.5q0 -27 -22.5 -49.5t-51.5 -22.5q-20 0 -33.5 13.5t-13.5 33.5z" />
<glyph unicode="&#x2c6;" horiz-adv-x="466" d="M0 778q0 2 28.5 23.5t69.5 50.5t83 54.5t71 37.5q8 4 20 4q14 0 38 -24.5t47.5 -57t39 -59.5t15.5 -29q-4 -4 -11 -4q-16 0 -44.5 20.5t-58.5 46t-54 38.5q-33 -12 -80 -38t-90 -46.5t-68 -20.5q-10 0 -6 4z" />
<glyph unicode="&#x2dc;" horiz-adv-x="432" d="M2 805q20 63 57 89t82 26q35 0 58.5 -18.5t45 -38t48.5 -19.5q29 0 54.5 19.5t39.5 49.5q6 12 14 13q14 0 9 -21q-41 -121 -162 -121q-33 0 -54.5 19.5t-41 38t-48.5 18.5q-33 0 -48 -15.5t-33 -43.5q-4 -8 -14.5 -8t-6.5 12z" />
<glyph unicode="&#x2000;" horiz-adv-x="734" />
<glyph unicode="&#x2001;" horiz-adv-x="1468" />
<glyph unicode="&#x2002;" horiz-adv-x="734" />
<glyph unicode="&#x2003;" horiz-adv-x="1468" />
<glyph unicode="&#x2004;" horiz-adv-x="489" />
<glyph unicode="&#x2005;" horiz-adv-x="367" />
<glyph unicode="&#x2006;" horiz-adv-x="244" />
<glyph unicode="&#x2007;" horiz-adv-x="244" />
<glyph unicode="&#x2008;" horiz-adv-x="183" />
<glyph unicode="&#x2009;" horiz-adv-x="293" />
<glyph unicode="&#x200a;" horiz-adv-x="81" />
<glyph unicode="&#x2010;" horiz-adv-x="561" d="M207 430l35 45h383l-35 -45h-383z" />
<glyph unicode="&#x2011;" horiz-adv-x="561" d="M207 430l35 45h383l-35 -45h-383z" />
<glyph unicode="&#x2012;" horiz-adv-x="561" d="M207 430l35 45h383l-35 -45h-383z" />
<glyph unicode="&#x2013;" horiz-adv-x="856" d="M207 430l35 45h678l-35 -45h-678z" />
<glyph unicode="&#x2014;" horiz-adv-x="1267" d="M207 430l35 45h1089l-33 -45h-1091z" />
<glyph unicode="&#x2018;" horiz-adv-x="577" d="M207 803q0 25 14 53q29 61 92.5 114.5t110.5 86.5q10 2 30.5 9t18.5 -5q-12 -8 -49 -35t-78 -63.5t-65 -73.5q16 10 32 10q33 0 33 -33v-12t-4 -14q-8 -27 -38 -50.5t-54 -23.5h-6q-20 0 -28.5 11t-8.5 26z" />
<glyph unicode="&#x2019;" horiz-adv-x="577" d="M207 741q12 8 49 35t78 64t65 73q-16 -10 -32 -10q-33 0 -33 33q0 6 1 12t3 15q10 27 39 50t53 23h6q23 0 30 -10t7 -27q0 -25 -14 -53q-29 -61 -92.5 -113.5t-110.5 -87.5q-10 -2 -30.5 -9t-18.5 5z" />
<glyph unicode="&#x201a;" horiz-adv-x="301" d="M14 -172q12 10 49 36.5t79 63.5t67 72q-12 -6 -29 -6q-18 0 -28 8q-12 10 -13 25q0 33 33 59.5t66 26.5t32 -33q0 -12 -4 -25.5t-10 -27.5q-27 -57 -86 -108.5t-107 -86.5q-10 0 -30.5 -8t-18.5 4z" />
<glyph unicode="&#x201c;" horiz-adv-x="798" d="M207 803q0 25 14 53q29 61 92.5 114.5t110.5 86.5q10 2 30.5 9t18.5 -5q-12 -8 -49 -35t-78 -63.5t-65 -73.5q16 10 32 10q33 0 33 -33v-12t-4 -14q-8 -27 -38 -50.5t-54 -23.5h-6q-20 0 -28.5 11t-8.5 26zM428 803q0 25 14 53q29 61 92.5 114.5t110.5 86.5q10 2 30.5 9 t18.5 -5q-12 -8 -49 -35t-78 -63.5t-65 -73.5q16 10 33 10q33 0 32 -33v-12t-4 -14q-8 -27 -37.5 -50.5t-54.5 -23.5h-6q-20 0 -28.5 11t-8.5 26z" />
<glyph unicode="&#x201d;" horiz-adv-x="827" d="M248 741q12 8 49 35t78 64t65 73q-16 -10 -32 -10q-33 0 -33 33q0 6 1 12t3 15q10 27 38.5 50t53.5 23h6q23 0 30 -10t7 -27q0 -25 -14 -53q-29 -61 -92.5 -113.5t-110.5 -87.5q-10 -2 -30.5 -9t-18.5 5zM457 741q12 8 50 35t79 64t65 73q-16 -10 -35 -10q-33 0 -32 33 q0 6 1 12t3 15q10 27 38.5 50t55.5 23h4q39 0 39 -37q0 -27 -16 -53q-29 -61 -92.5 -113.5t-110.5 -87.5q-10 -2 -30.5 -9t-18.5 5z" />
<glyph unicode="&#x201e;" horiz-adv-x="501" d="M14 -172q12 10 49 36.5t79 63.5t67 72q-12 -6 -29 -6q-18 0 -28 8q-12 10 -13 25q0 33 33 59.5t66 26.5t32 -33q0 -12 -4 -25.5t-10 -27.5q-27 -57 -86 -108.5t-107 -86.5q-10 0 -30.5 -8t-18.5 4zM219 -172q12 10 50 36.5t79 63.5t66 72q-12 -6 -29 -6q-18 0 -29 8 q-12 10 -12 25q0 33 33 59.5t65 26.5q33 0 33 -33q0 -12 -4 -25.5t-10 -27.5q-27 -57 -86.5 -108.5t-106.5 -86.5q-10 0 -30.5 -8t-18.5 4z" />
<glyph unicode="&#x2022;" horiz-adv-x="806" d="M258 385q0 76 46 147.5t120 118.5t151 47q76 0 121 -45t45 -114q0 -74 -47 -144.5t-120.5 -117t-153.5 -46.5q-74 0 -118 43t-44 111z" />
<glyph unicode="&#x2026;" horiz-adv-x="866" d="M98 27q0 33 32 59.5t65 26.5q37 0 36 -35q0 -33 -30.5 -58.5t-65.5 -25.5q-37 0 -37 33zM399 27q0 33 32 59.5t65 26.5q37 0 36 -35q0 -33 -30.5 -58.5t-65.5 -25.5q-37 0 -37 33zM702 25q0 33 31 60.5t64 27.5q37 0 37 -35q0 -33 -31 -58.5t-66 -25.5t-35 31z" />
<glyph unicode="&#x202f;" horiz-adv-x="293" />
<glyph unicode="&#x2039;" horiz-adv-x="542" d="M172 293q0 29 33 55l334 291q2 2 3 2h1q8 0 10 -11.5t-4 -19.5l-299 -315l160 -213q8 -14 8 -25q0 -14 -10 -14t-23 14l-207 213q-6 10 -6 23z" />
<glyph unicode="&#x203a;" horiz-adv-x="542" d="M174 46q-2 11 2 20l299 315l-160 213q-6 12 -6 24q0 14 10 15q8 0 21 -15l207 -212q6 -8 6 -23q0 -27 -33 -57l-334 -289q-2 -2 -4 -2q-6 0 -8 11z" />
<glyph unicode="&#x205f;" horiz-adv-x="367" />
<glyph unicode="&#x20ac;" horiz-adv-x="700" d="M14 377l29 31h80q16 23 36.5 51t37.5 51h-103l29 29h102q70 76 152 137t165 97t152 36q18 0 46 -10.5t22 -63.5q-2 -27 -27.5 -53.5t-54.5 -26.5q14 10 25.5 35t11.5 45q0 12 -10.5 22.5t-26.5 10.5q-51 0 -131 -59.5t-178 -169.5h174l-29 -29h-174q-37 -51 -72 -102h269 l-29 -31h-260q-31 -53 -53.5 -113.5t-22.5 -116.5q0 -113 100 -112q109 0 191 70.5t182 183.5q8 0 2 -13.5t-15 -29t-11 -21.5q-90 -119 -182.5 -172t-207.5 -53q-104 0 -146 46t-42 126q0 45 17.5 99.5t43.5 105.5h-92z" />
<glyph unicode="&#x2122;" horiz-adv-x="1001" d="M264 1028l25 76h258q-8 -14 -15.5 -39t-11.5 -37h-12q4 47 -16.5 52t-49.5 5q-14 0 -16 -6q-6 -14 -16.5 -63t-19.5 -101.5t-11 -78.5q-2 -14 18.5 -21.5t28.5 -7.5l-4 -8h-148l2 8q16 0 36 7t24 22q8 27 18.5 78t18.5 100t8 65q0 6 -12 6q-33 0 -57.5 -10t-35.5 -47h-12 zM477 797l2 10q29 0 44.5 29.5t23.5 60.5q14 41 21 75t18 81q2 4 2 12q0 16 -10.5 24.5t-22.5 4.5l4 10h84l16 -129q4 -27 8.5 -53.5t10.5 -53.5q4 -29 14 -10q6 10 27.5 47t46.5 82t43 79t18 38h99l-4 -10q-29 2 -40.5 -11.5t-17.5 -38.5q-2 -27 -6 -73.5t-8 -81.5 q-2 -23 2 -53.5t37 -28.5l-2 -8l-144 -2l2 10q55 0 66 70q2 14 5 46.5t6 70.5t5 65q-33 -55 -65.5 -109.5t-61.5 -113.5q-6 -10 -17 -25.5t-21 -15.5q-12 0 -19 39q-6 59 -14 115.5t-19 115.5q-12 -39 -24.5 -84t-22.5 -90q-4 -20 -4 -41q0 -16 7 -30.5t28 -12.5l-2 -8z" />
<glyph unicode="&#x25fc;" horiz-adv-x="696" d="M0 0v696h696v-696h-696z" />
<glyph unicode="&#xfb03;" horiz-adv-x="1185" d="M-788 -424q23 -18 51 -27.5t69 -7.5q109 0 204 54.5t179 144.5t158 198.5t139.5 218t122.5 199.5q39 61 81 131t91 140h-114l22 28h113q96 135 211.5 250t259.5 158q35 12 94 12q25 0 49.5 -3t44.5 -11q18 -8 34.5 -22.5t25.5 -37.5q-43 35 -123 35q-106 0 -195.5 -59 t-160 -146.5t-128.5 -175.5h279q96 135 212 250t259 158q35 12 94 12q66 0 112 -27.5t46 -89.5q0 -45 -23.5 -89t-58.5 -71.5t-68 -27.5q-41 0 -41 33q0 29 31 57.5t61 28.5q39 0 39 -33v-4q31 45 31 88q0 49 -33.5 72.5t-64.5 23.5q-106 0 -195.5 -59t-160 -146.5 t-128.5 -175.5h158l-22 -28h-154q-45 -68 -89 -141.5t-108 -174.5q-43 -68 -105 -159t-138 -189t-162 -188t-180 -159t-193 -97q-39 -14 -96 -15q-45 0 -82 13q-16 8 -33.5 22.5t-23.5 36.5q23 -18 51.5 -27.5t69.5 -7.5q106 0 202.5 54.5t180 144.5t157.5 198.5t139.5 218 t122.5 199.5q39 61 81 131t91 140h-276q-45 -68 -89 -141.5t-108 -174.5q-43 -68 -105.5 -159t-138 -189t-161.5 -188t-180.5 -159t-192.5 -97q-39 -15 -96 -15q-45 0 -82 13q-16 8 -33.5 22.5t-23.5 36.5zM745 100q0 59 36 128t89.5 137.5t108.5 129t96 99.5q39 39 80 57.5 t71 25.5l29 7q-45 -51 -122.5 -145.5t-153.5 -200.5q-6 -8 -28.5 -41t-50.5 -76t-47 -84t-19 -65q0 -39 40 -39q31 0 67 22.5t73 55t66.5 64.5t45.5 52q8 0 9 -12q0 -18 -9 -29q-78 -90 -140 -140t-138 -50q-55 0 -79 29.5t-24 74.5z" />
<glyph unicode="&#xfb04;" horiz-adv-x="1118" d="M-788 -424q23 -18 51 -27.5t69 -7.5q109 0 204 54.5t179 144.5t158 198.5t139.5 218t122.5 199.5q39 61 81 131t91 140h-114l22 28h113q96 135 211.5 250t259.5 158q35 12 94 12q25 0 49.5 -3t44.5 -11q18 -8 34.5 -22.5t25.5 -37.5q-43 35 -123 35q-106 0 -195.5 -59 t-160 -146.5t-128.5 -175.5h279q96 135 212 250t259 158q35 12 94 12q25 0 49.5 -3t44.5 -11q18 -8 35 -22.5t25 -37.5q-43 35 -123 35q-106 0 -195.5 -59t-160 -146.5t-128.5 -175.5h158l-22 -28h-154q-45 -68 -89 -141.5t-108 -174.5q-43 -68 -105 -159t-138 -189 t-162 -188t-180 -159t-193 -97q-39 -14 -96 -15q-45 0 -82 13q-16 8 -33.5 22.5t-23.5 36.5q23 -18 51.5 -27.5t69.5 -7.5q106 0 202.5 54.5t180 144.5t157.5 198.5t139.5 218t122.5 199.5q39 61 81 131t91 140h-276q-45 -68 -89 -141.5t-108 -174.5q-43 -68 -105.5 -159 t-138 -189t-161.5 -188t-180.5 -159t-192.5 -97q-39 -15 -96 -15q-45 0 -82 13q-16 8 -33.5 22.5t-23.5 36.5zM737 88q0 31 14.5 72t53.5 108q53 92 150.5 217t207.5 244q96 109 210 200t237 126q18 6 42.5 10t51.5 4q49 0 84 -14q16 -8 32.5 -21.5t22.5 -38.5 q-23 18 -51.5 27.5t-69.5 9.5q-106 0 -204.5 -69.5t-195.5 -179t-204 -232.5q-41 -47 -90 -116.5t-93 -139.5t-71 -119q-14 -23 -21 -48.5t-7 -41.5q0 -49 36 -49q39 0 87.5 37t92.5 82t66 71q8 0 8 -12q0 -18 -8 -29q-82 -94 -150.5 -143t-127.5 -49q-102 0 -103 94z" />
</font>
</defs>
</svg>
