<?xml version="1.0" encoding="UTF-8"?>
<svg id="Ebene_2" data-name="Ebene 2" xmlns="http://www.w3.org/2000/svg" viewBox="0 0 1080 1080">
  <defs>
    <style>
      .cls-1 {
        fill: #4884c3;
      }

      .cls-2 {
        fill: #352718;
      }

      .cls-3 {
        fill: #f3a33f;
      }

      .cls-4 {
        fill: #1d1d1b;
      }

      .cls-5 {
        fill: #131928;
      }

      .cls-6 {
        fill: #c8d6e5;
      }

      .cls-7 {
        fill: #275da7;
      }

      .cls-8 {
        fill: #522a1f;
      }

      .cls-9 {
        fill: #76aadb;
      }

      .cls-10 {
        fill: #879caf;
      }

      .cls-11 {
        fill: #1b1c21;
      }

      .cls-12 {
        fill: #75a9d9;
      }

      .cls-13 {
        fill: #285da8;
      }

      .cls-14 {
        fill: #c6ba6b;
      }

      .cls-15 {
        fill: #111725;
      }

      .cls-16 {
        fill: #9e7454;
      }
    </style>
  </defs>
  <g>
    <path class="cls-11" d="M287.61,591.98c2.78.63,5.23,1.16,7.68,1.73,4.46,1.03,8.74,2.58,12.92,4.4,1.11.48,2.22,1,3.02,1.95.91,1.07.77,2.1-.45,2.77-1.15.64-2.45.79-3.78.84-5.24.19-10.45-.32-15.65-.81-4.34-.41-8.59-.03-12.76,1.05-3.2.83-5.88,2.76-8.48,4.72-2.52,1.9-4.97,3.9-7.51,5.78-1.72,1.27-3.6,2.3-5.71,2.85-1.13.3-2.23.44-3.16-.42-1.05-.97-.83-2.21-.48-3.36.38-1.24,1.09-2.34,1.81-3.42,1.28-1.94,2.86-3.64,4.33-5.43.75-.92,1.7-1.74,1.79-3.11-1.41-.46-2.51.44-3.69.86-3.39,1.19-4.23.99-6.52-1.77-2.31.93-4.61,1.95-7.21,1.93-.94,0-1.45.79-1.96,1.43-2.35,2.98-4.66,5.98-6.61,9.26-7.24,12.17-15.06,23.97-23.65,35.26-1.35,1.78-2.91,3.37-4.7,4.73-3.25,2.48-5.65,5.6-7.31,9.3-.38.84-.8,1.66-1.27,2.46-.68,1.15-1.49,2.25-3.07,1.9-1.64-.36-1.6-1.85-1.85-3.08-.09-.45-.1-.92-.06-1.38.47-5.14.27-10.34,1.32-15.44.39-1.89.44-3.85.62-5.78.06-.64.16-1.31-.26-1.88-1.97-2.66-1.46-5.65-1.01-8.54.76-4.92,1.75-9.81,2.27-14.77.24-2.31.38-4.6-.01-6.9-.25-1.43-.9-2.64-2.24-3.31-4.06-2.01-5.59-5.47-5.82-9.7-.15-2.78.1-5.53.43-8.29.93-7.79,1.71-15.6,2.76-23.37,2.76-20.39,8.26-40.04,16.12-59.11,5.37-13.04,11.74-25.48,19.78-37.11,4.64-6.71,10.15-12.5,17.07-16.96,2.11-1.36,4.11-2.88,6.13-4.37,1.47-1.09,2.23-2.58,2.75-4.35,1.35-4.7,2.47-9.46,3.56-14.23,1.76-7.75,5.73-14.16,11.6-19.47,7.55-6.82,16.07-12,26.1-14.37,7.74-1.83,15.33-1.11,22.8,1.66,7.95,2.95,15.12,7.15,21.62,12.5,4.5,3.7,8.13,8.13,11,13.16,1.74,3.05,3.47,6.11,5.04,9.26,1.77,3.55,4.55,6.02,7.98,7.87,2.46,1.33,5.08,2.31,7.7,3.27,12.88,4.71,25.31,10.33,37.01,17.49,2.23,1.36,4.49,2.69,6.2,4.69,1.06,1.24,2.48,2.51,1.5,4.39-.89,1.7-2.59,1.89-4.34,1.94-1.71.05-3.35-.36-4.96-.76-4.79-1.17-9.55-2.44-14.17-4.2-9.78-3.72-20.03-5.72-30.25-7.79-4.02-.81-8.05-1.59-12.06-2.42-2.89-.6-5.75-.51-8.6.18-3.67.89-6.24,3.19-8.13,6.31-.82,1.35-.72,2.81-.36,4.3.73,3.08,2.13,5.9,3.48,8.73,3.17,6.65,5.06,13.7,6.24,20.89,1.16,7.12.08,14.15-1.89,21.06-2.87,10.05-7.72,19.19-13.32,27.93-10.89,16.98-23.28,32.77-38.54,46.21-.19.17-.34.4-.73.86ZM385.8,461.47c2.34.84,4.68,1.69,7.02,2.53.07-.19.14-.37.21-.56-2.04-1.19-4.3-1.9-6.52-2.7-7.58-3.09-15.21-6.09-23.19-8.04-8.5-2.08-17.1-3.73-25.34-6.77-1.39-.51-2.96-.95-4.45-.58-.19.49-.03.73.17.92,3.68,3.54,7.86,6.16,13.09,6.8,1.39.17,2.79.3,4.15.6,11.63,2.55,23.42,4.44,34.87,7.81ZM264.8,548.14c-1.13,0-2.02.17-2.9.48-.63.22-1.29.24-1.87-.19-.46-.34-.9-.72-.72-1.36.17-.59.72-.49,1.16-.45,1.84.18,3.52-.43,5.13-1.14,8.23-3.62,15.85-8.23,22.68-14.06,9.4-8,14.87-18.34,18.06-29.98,2-7.31,2.79-14.76.46-22.12-2.15-6.77-4.73-13.22-11.16-17.62-6.5-4.44-13.11-8.41-20.71-10.72-6.35-1.93-12.81-2.28-19.37-1.92-3.75.21-6.49,2.61-9.61,4.21-5.4,2.77-9.88,6.59-13.51,11.39-1.51,2-3.01,4-4.45,6.04-9.19,13.05-15.67,27.44-21.37,42.22-5.67,14.69-9.87,29.77-12.31,45.32-.08.5-.34,1.07.4,1.72,2.81-2,5.69-3.97,7.86-6.81.96-1.25,1.9-2.52,2.96-3.68.92-1,1.88-2.3,3.52-1.69,1.36.5,1.23,1.89,1.42,3.07.38,2.51,1.18,2.9,3.31,1.56,2.55-1.6,4.57-3.79,6.52-6.03,3.24-3.7,6.47-7.41,10.13-10.72,2.03-1.84,2.65-1.8,4.43.29.63.74,1.21.83,1.9.32.74-.55,1.45-1.16,2.09-1.83,3.96-4.18,7.74-8.51,10.79-13.41,1.08-1.73,2.27-3.38,3.43-5.06,1.71-2.46,4.07-3.75,7.12-3.63,1.92.07,3.4-.72,4.72-2.02,2.47-2.44,4.52-5.2,5.92-8.35,3.7-8.35,5.54-17.01,4.19-26.16-.11-.73-.17-1.47-.18-2.21,0-.44-.02-1,.59-1.09.71-.1.95.44,1.1.99.1.35.11.73.17,1.09,1.6,10.26,0,20.04-4.62,29.33-1.45,2.91-3.41,5.5-5.77,7.78-1.81,1.75-3.88,2.91-6.5,2.66-1.98-.19-3.46.64-4.59,2.12-1.17,1.55-2.32,3.13-3.35,4.77-3.46,5.52-7.59,10.52-12.2,15.12-2.98,2.97-4.26,2.96-7.24.15-1.9,1.61-3.6,3.43-5.33,5.23-3.27,3.42-6.14,7.21-9.68,10.38-1.18,1.06-2.44,2.03-3.94,2.6-2.32.88-3.77.22-4.65-2.07-.32-.84-.51-1.72-.8-2.74-1.24.76-2.02,1.8-2.72,2.86-2.04,3.07-4.8,5.39-7.74,7.54-.9.66-1.8,1.32-2.72,1.95-1.08.74-1.56,1.74-1.69,3.03-.5,5.04-1.06,10.08-1.61,15.23,1.14-.51,1.51-1.51,2.06-2.33,2.43-3.61,4.86-7.23,7.58-10.64.51-.63,1.08-1.66,1.97-1,1.04.76-.11,1.48-.54,2.03-3.52,4.55-6.46,9.49-9.81,14.16-.53.75-1.06,1.56-1.33,2.42-1.29,4.2-1.68,8.51-1.11,12.85.26,1.98.95,3.87,3.12,4.84.4-3.48,2.27-6.18,3.87-8.98,7.32-12.86,14.61-25.75,21.71-38.74.31-.57.63-1.14,1.02-1.65.22-.29.63-.38,1.02-.23.53.21.67.68.5,1.13-.3.77-.67,1.52-1.08,2.24-7.24,12.91-14.49,25.82-21.73,38.73-.77,1.37-1.55,2.74-2.23,4.16-.4.82-.68,1.72-.87,2.61-.36,1.69.75,2.8,1.83,3.81,1.04.98,2.15.22,3.08-.28,2.69-1.45,4.88-3.48,6-6.34,1.97-5.03,4.8-9.58,7.71-14.1,5.03-7.78,9.76-15.73,14.03-23.94.21-.41.41-.84.68-1.2.29-.39.73-.6,1.22-.35.5.26.57.77.38,1.19-.68,1.51-1.36,3.04-2.16,4.49-4.39,7.94-9.05,15.72-14.01,23.32-2.07,3.18-3.99,6.46-5.42,9.98-.52,1.28-1,2.6-.94,4.02.09,1.92,1.42,2.79,3.23,2.13.89-.32,1.66-.85,2.36-1.46,2.66-2.27,4.67-5.02,5.97-8.25.45-1.11.85-2.24,1.3-3.35,5.12-12.87,13.82-23.56,21.68-34.76.38-.54.88-1.11,1.6-.61.72.49.3,1.13,0,1.71-1.22,2.4-2.79,4.56-4.52,6.64-6.84,8.26-12.29,17.38-16.8,27.06-1.12,2.4-1.18,5.01-1.18,7.59,0,1.38.78,1.73,2.07,1.08.58-.29,1.13-.66,1.61-1.09,3.44-3.1,7.01-6.08,10.13-9.51,2.87-3.16,5.64-6.41,8.38-9.68,7.64-9.11,14.89-18.49,19.92-29.34.38-.82,1.02-1.56.93-2.83ZM234.21,594.57c.81,1.11,1.99,1.11,3.03,1.43,1.78.55,3.56,1.12,4.81,2.65,1.49,1.84,2.39,2.12,4.7,1.38,1.33-.43,2.61-.99,3.9-1.52,1.03-.42,1.74-.16,2.37.76,1.34,1.95,1.39,1.94,3.52,1.23.97-.33,1.91-.74,2.89-1.04,1.08-.32,2.29-.65,3.19.19.85.8,1.49.45,2.22.03,2.01-1.16,4.02-2.34,6.03-3.51.97-.57,2.02-1.31,3.13-.8,1.83.84,3.34.03,4.74-.77,4.28-2.43,8.5-4.9,12.08-8.39,14.7-14.35,27.31-30.29,37.66-47.96,3.89-6.64,7.26-13.53,9.49-20.91,1.83-6.05,2.17-12.3,2.46-18.55.03-.73-.06-1.48-.21-2.2-1.59-7.59-3.43-15.1-6.9-22.13-1.95-3.94-5.18-6.32-9.4-6.41-3.42-.07-6.75-.23-10.16-.67-2.63-.34-5.35-.44-8.01-.87-.72-.12-1.45-.35-2.2-.04-.08,1.11.72,1.88,1.19,2.74,3.69,6.79,5.93,13.95,5.44,21.74-.34,5.46-1.53,10.76-3.32,15.94-4.31,12.41-11.58,22.63-22.51,30.25-4.59,3.2-9.32,6.14-14.38,8.53-1.44.68-2.3,1.64-2.93,3.08-2.98,6.78-6.5,13.29-10.87,19.31-4.84,6.68-10.06,13.07-15.52,19.27-2.13,2.42-4.28,4.83-6.42,7.24ZM355.81,436.28c-2.86-4.05-4.77-8.15-6.94-12.1-3.29-6-7.41-11.22-12.96-15.39-6.67-5.01-13.82-9.09-21.8-11.64-6.92-2.21-13.92-2.5-20.93-.37-10.3,3.14-19.11,8.62-26.39,16.5-2.94,3.18-5.27,6.69-6.66,10.79-2.25,6.64-3.54,13.53-5.37,20.41,1.32-.27,1.84-1.21,2.53-1.9,3.01-3.02,5.93-6.15,8.98-9.13,3.26-3.19,6.92-5.58,11.9-4.69-1.38-5.35,1.38-9.53,6.69-10.52,2.03-.37,3.87.24,5.74.82.88.27,1.77.92,2.68.6,2.36-.82,4.57-.44,6.81.4.49.19,1.14.2,1.66.07,2.23-.56,4.03.34,5.7,1.59,1.41,1.06,2.74,2.22,4.11,3.34.55.45.94.59,1.65,0,4.35-3.58,8.15-3.82,13.06-1.08,2.24,1.26,3.99,3,5.47,5.03,1-.55.96-1.63,1.51-2.35,1.55-2.05,3.35-3.45,6.45-1.64,1.54.9,2.91,2.01,4.16,3.25,1.98,1.96,3.96,3.91,5.9,5.9,1.52,1.56,3.32,2.28,6.04,2.09ZM195.91,636.88c.45-.32.65-.38.71-.51,3.25-6.13,6.59-12.21,8.02-19.09.11-.54.19-1.1.37-1.62.16-.44.53-.82,1.05-.7.5.11.8.54.75,1.03-.11,1.01-.26,2.01-.5,3-1.48,6.07-4.45,11.53-7.38,16.99-1.07,1.99-1.95,3.9-1.84,6.23.11,2.4-.44,4.77-.78,7.15-.66,4.67-.83,9.37-.95,14.08,0,.34-.04.76.56.93.97-.58,1.21-1.71,1.67-2.66,1.19-2.52,2.45-5.07,4.56-6.91,2.28-2,3.27-4.23,3.69-7.26.78-5.57,2.82-10.88,4.97-16.1,3.03-7.34,6.05-14.69,9.01-22.06.56-1.4,1.27-2.81,1.21-4.54-1.72.02-3.18-.17-4.05-1.67-1.1.91-2.07,1.76-3.11,2.55-.89.68-1.88,1.17-3.03,1.31-2.39.31-3.85-.94-4.84-2.98-1.47,1.04-2.55,2.18-3.89,3.02-1.19.76-3.17.56-3.66,1.62-.55,1.19.13,2.89.02,4.35-.33,4.6-.92,9.18-1.78,13.72-.61,3.24-1.43,6.49-.8,10.13ZM337.64,454.46c-2.89-4.63-3.95-5.57-7.71-6.42-4.88-1.1-9.83-1.04-14.73-.34-5.75.83-10.64,3.77-15.51,6.68-1.4.84-2.32,2.12-2.77,3.7-.36,1.26-.08,2.15,1,3.12,4.09,3.69,9.22,3.44,14.16,4.02,4.57.54,9.14.99,13.75,1.14,1.49.05,2.94,1.01,4.77,1.68-2.04-6.73,2.14-10.23,7.03-13.57ZM207.83,649.37c1.36-1.03,2.12-2.2,2.98-3.27,5.78-7.25,10.63-15.12,15.8-22.78,4.6-6.81,8.14-14.29,13.5-20.62,1.32-1.56,1.01-2.82-.8-3.84-.96-.54-2.06-.84-3.1-1.22-.7-.25-1.59-.26-2.08-.71-1.46-1.35-2.4-.55-3.49.47-2.41,2.27-4.61,4.84-8.06,5.79,1.04,2.71-.16,5.01-1.07,7.28-2.96,7.45-6.02,14.87-9.08,22.29-1.83,4.44-3.22,9.02-4.43,13.66-.23.89-.5,1.77-.17,2.94ZM334.91,442.38c-4.57-2.69-8.51-6.13-13.12-8.55-3.95-2.07-7.87-4.14-11.33-7.04-1.69-1.42-3.86-2.28-6.2-.95-1.36.78-2.7.46-3.98-.27-.89-.51-1.75-1.05-2.64-1.56-.49-.28-1.01-.53-1.54-.06-1.83,1.61-3.68.79-5.47-.04-1.55-.72-3.1-1.24-4.84-1.02-2.28.29-3.34,1.58-2.95,3.78.66,3.73,2.22,6.8,6.16,8.17,1.49.52,2.95,1.12,4.48,1.52,6.51,1.68,13.19,2.32,19.82,3.29,5.8.85,11.64,1.41,17.29,3.11,1.42.43,2.86.51,4.32-.37ZM290,440.89c-3.31-2.02-5.59-5.03-8.07-7.88-2.15-2.47-6.62-3.07-9.61-1.6-2.02,1-3.74,2.43-5.31,4.02-3.26,3.3-6.48,6.63-9.69,9.98-.4.41-1.22.59-.98,1.55,6.17-.31,12.28.11,18.23,1.94.8.25,1.43-.02,2.13-.33,3.23-1.44,6.49-2.8,9.57-4.51,1.38-.77,2.72-1.61,3.73-3.16ZM279.39,450.43c3.5,1.28,6.7,2.56,9.51,4.51,1.95,1.36,3.82,1.1,5.8.45,1.08-.35,1.88-1.18,2.8-1.8,4.94-3.35,10.09-6.26,16.05-7.52,2.65-.56,5.38-.5,8.55-1.11-.96-.3-1.39-.45-1.82-.57-.45-.13-.9-.24-1.35-.34-7.09-1.56-14.26-1.68-21.44-1.06-6.69.58-12.41,3.57-18.09,7.43ZM285.54,593.69c-1.45.02-2.25.67-3.16,1.15-2.27,1.21-4.37,2.97-7.18,2.72-1.98-.18-3.66.34-5.18,1.58-.64.52-1.35,1.07-2.13,1.3-3.65,1.11-5.5,4.26-7.95,6.71-.41.41-.7.83-.38,1.46,1.08,2.17,3.25,2.78,5.34,1.44.62-.4,1.26-.8,1.79-1.31,2.3-2.2,5.02-3.82,7.77-5.36,3.12-1.74,6.52-2.63,10.16-2.52,3.73.11,7.47-.24,11.19.19,2.45.28,3.21.05,4.11-2.04.43-1,.33-1.77-.92-2.11-1.53-.4-3.01-.96-4.55-1.32-3.07-.71-6.16-1.33-8.89-1.91ZM343.93,437.48c1.02-.02,2.17.07,2.63-1.08.43-1.07.26-2.16-.46-3.12-.11-.15-.23-.29-.36-.41-1.66-1.6-3.29-3.22-5-4.77-.81-.73-1.74-1.39-2.82-1.71-1.41-.42-2.52.25-2.57,1.6-.2,5.75,3.91,9.46,8.58,9.49ZM326.46,434.31c3.23,2.46,6.36,4.59,9.74,6.33.43.22.96.64,1.5.09.49-.5.7-1,.43-1.73-1.77-4.73-6.53-6.77-11.66-4.69ZM261.25,612.72c-.72-.54-1.24-.91-1.75-1.31-1.92-1.5-1.94-1.51-3.22.56-.29.47-.56.95-.77,1.46-.22.5-.42,1.08-.03,1.55.41.5,1.05.34,1.55.15,1.47-.55,2.9-1.21,4.23-2.42ZM300.85,601.43c2.92.05,5.42.39,8.26-.3-2.11-1.6-4.27-2.08-6.4-2.97-.57,1.01-1.1,1.94-1.86,3.27ZM291.81,437.93c1.64,1.34,3.64,2.01,5.9,1.31-1.97-.44-3.93-.87-5.9-1.31ZM322.06,427.93c.45-.05.74-.25.76-.66.04-.78-.93-1.55-1.88-1.52-.51.02-1.04.35-.94.75.25,1.01,1.3,1.1,2.06,1.43ZM221.46,602.95c-.98-.96-1.46-1.78-1.73-2.91-1.25,2.66-1.2,2.75,1.73,2.91ZM326.59,431.93c1.51-.35,2.41-.56,3.56-.83q-2.06-1.13-3.56.83Z"/>
    <path class="cls-13" d="M264.8,548.14c.1,1.27-.55,2.01-.93,2.83-5.03,10.85-12.29,20.22-19.92,29.34-2.74,3.27-5.51,6.52-8.38,9.68-3.12,3.43-6.69,6.41-10.13,9.51-.48.43-1.03.8-1.61,1.09-1.29.65-2.07.29-2.07-1.08,0-2.58.06-5.2,1.18-7.59,4.51-9.68,9.96-18.8,16.8-27.06,1.72-2.08,3.29-4.24,4.52-6.64.3-.59.71-1.22,0-1.71-.72-.49-1.23.07-1.6.61-7.86,11.2-16.56,21.89-21.68,34.76-.44,1.11-.85,2.24-1.3,3.35-1.31,3.23-3.32,5.97-5.97,8.25-.71.6-1.47,1.13-2.36,1.46-1.81.66-3.15-.21-3.23-2.13-.06-1.42.41-2.73.94-4.02,1.43-3.53,3.35-6.8,5.42-9.98,4.96-7.61,9.62-15.39,14.01-23.32.8-1.45,1.48-2.97,2.16-4.49.19-.42.12-.94-.38-1.19-.49-.25-.92-.04-1.22.35-.27.37-.47.79-.68,1.2-4.27,8.21-9,16.16-14.03,23.94-2.91,4.51-5.74,9.07-7.71,14.1-1.12,2.86-3.31,4.89-6,6.34-.94.51-2.04,1.26-3.08.28-1.08-1.01-2.19-2.12-1.83-3.81.19-.89.48-1.79.87-2.61.68-1.42,1.46-2.78,2.23-4.16,7.24-12.91,14.49-25.82,21.73-38.73.41-.72.78-1.47,1.08-2.24.17-.45.03-.92-.5-1.13-.39-.16-.8-.06-1.02.23-.4.51-.71,1.08-1.02,1.65-7.1,12.99-14.38,25.87-21.71,38.74-1.59,2.8-3.46,5.5-3.87,8.98-2.17-.97-2.86-2.86-3.12-4.84-.57-4.34-.18-8.65,1.11-12.85.26-.86.79-1.68,1.33-2.42,3.35-4.67,6.29-9.61,9.81-14.16.43-.56,1.59-1.27.54-2.03-.9-.66-1.47.37-1.97,1-2.72,3.41-5.15,7.02-7.58,10.64-.55.82-.92,1.82-2.06,2.33.55-5.16,1.11-10.19,1.61-15.23.13-1.28.61-2.29,1.69-3.03.92-.63,1.82-1.3,2.72-1.95,2.94-2.15,5.7-4.47,7.74-7.54.7-1.06,1.48-2.1,2.72-2.86.29,1.01.48,1.9.8,2.74.88,2.29,2.32,2.95,4.65,2.07,1.49-.57,2.75-1.54,3.94-2.6,3.54-3.17,6.41-6.96,9.68-10.38,1.73-1.8,3.43-3.63,5.33-5.23,2.98,2.81,4.26,2.82,7.24-.15,4.62-4.6,8.74-9.6,12.2-15.12,1.03-1.64,2.17-3.22,3.35-4.77,1.13-1.49,2.6-2.31,4.59-2.12,2.62.25,4.69-.91,6.5-2.66,2.36-2.28,4.32-4.87,5.77-7.78,4.61-9.29,6.22-19.07,4.62-29.33-.06-.36-.07-.74-.17-1.09-.15-.54-.39-1.09-1.1-.99-.61.09-.6.65-.59,1.09.01.74.08,1.48.18,2.21,1.35,9.15-.49,17.82-4.19,26.16-1.4,3.15-3.44,5.91-5.92,8.35-1.31,1.3-2.79,2.09-4.72,2.02-3.05-.12-5.4,1.17-7.12,3.63-1.17,1.67-2.36,3.33-3.43,5.06-3.06,4.9-6.83,9.23-10.79,13.41-.64.67-1.35,1.28-2.09,1.83-.69.51-1.27.42-1.9-.32-1.77-2.09-2.4-2.14-4.43-.29-3.65,3.31-6.89,7.02-10.13,10.72-1.96,2.24-3.97,4.43-6.52,6.03-2.13,1.33-2.93.95-3.31-1.56-.18-1.18-.05-2.57-1.42-3.07-1.64-.61-2.6.69-3.52,1.69-1.07,1.16-2.01,2.43-2.96,3.68-2.17,2.83-5.05,4.8-7.86,6.81-.74-.66-.48-1.22-.4-1.72,2.44-15.55,6.63-30.63,12.31-45.32,5.71-14.77,12.18-29.17,21.37-42.22,1.44-2.04,2.94-4.05,4.45-6.04,3.63-4.81,8.12-8.62,13.51-11.39,3.12-1.6,5.86-4,9.61-4.21,6.56-.36,13.02-.01,19.37,1.92,7.6,2.31,14.2,6.28,20.71,10.72,6.44,4.39,9.01,10.84,11.16,17.62,2.34,7.36,1.55,14.81-.46,22.12-3.19,11.64-8.66,21.98-18.06,29.98-6.84,5.83-14.45,10.44-22.68,14.06-1.61.71-3.29,1.32-5.13,1.14-.44-.04-.99-.14-1.16.45-.19.64.26,1.02.72,1.36.58.43,1.24.42,1.87.19.88-.31,1.77-.48,2.9-.48ZM269.96,460.77c-.07,0-.35,0-.63.04-8.09.95-13.81,5.44-18.2,11.92-.15.23-.29.47-.4.72-.15.36-.16.73.14,1.02.4.38.92.32,1.26,0,.53-.5.98-1.1,1.41-1.69,4.24-5.75,9.49-9.83,17.05-10.09.36-.01.76-.08,1.07-.25.62-.35.66-.85.09-1.3-.46-.36-1.03-.39-1.81-.38ZM231.64,481.74c-.12.67-.17,1.28.48,1.52.83.31,1.16-.29,1.4-.94.06-.17.14-.34.19-.52,1.86-5.94,5.87-10.38,10.32-14.52.48-.44,1-.83,1.44-1.31.32-.34.52-.81.1-1.22-.39-.39-.88-.26-1.28-.02-.39.24-.74.56-1.09.85-3.34,2.84-6.29,6.03-8.65,9.71-1.3,2.03-2.32,4.2-2.92,6.43ZM244.45,551.48c1.15,0,2.19-.39,3.2-.86,3.56-1.68,6.09-4.45,8.21-7.65.15-.23.26-.49.36-.75.15-.37.11-.73-.22-.99-.43-.34-.9-.26-1.23.12-.42.49-.73,1.06-1.13,1.57-1.89,2.41-3.92,4.69-6.81,5.97-2.19.97-2.96.77-4.66-1.06-.26-.28-.55-.56-.95-.43-.49.16-.68.55-.69,1.07-.01,1.78,1.55,2.99,3.92,3.02ZM265.98,526.06c4.03-.53,7.67-2.73,10.73-5.99.06-.07.1-.15.14-.24.2-.37.12-.7-.17-.99-.3-.31-.67-.36-.99-.11-.58.45-1.11.97-1.69,1.43-4.04,3.23-8.24,5.52-13.41,2.29-.08-.05-.16-.09-.25-.12-.56-.19-1.15-.26-1.47.33-.33.61.09,1.05.58,1.36,1.83,1.15,3.78,1.96,6.51,2.03ZM258.15,537.14c3.43-.54,6.4-2.41,8.73-5.33.24-.3.25-.7-.01-1.01-.37-.43-.85-.39-1.23-.08-.65.52-1.23,1.11-1.85,1.66-4.25,3.78-6.93,3.71-10.96-.28-.46-.45-.85-.97-1.5-1.2-.5-.18-.96-.09-1.28.26-.39.43-.12.85.24,1.18,1.14,1.07,2.24,2.2,3.45,3.2,1.16.97,2.55,1.47,4.43,1.58ZM290.04,511.41c.03-.69.15-1.32-.59-1.49-.7-.16-.98.31-1.16.89-.16.53-.31,1.07-.52,1.58-1.92,4.52-4.38,8.58-9.13,10.75-.33.15-.65.36-.93.59-.3.25-.44.6-.22.98.2.34.52.59.91.48.62-.18,1.23-.42,1.81-.69,3.54-1.67,5.78-4.59,7.62-7.86.95-1.69,1.78-3.45,2.2-5.22ZM236.9,497.37c-.05-.64-.11-1.11-.7-1.19-.4-.05-.72.15-.89.5-.12.24-.2.51-.28.77-.86,2.84-2.37,5.37-3.87,7.91-.84,1.43-1.71,2.84-2.54,4.27-.34.58-.58,1.29.05,1.75.71.51,1.21-.09,1.55-.66,2.29-3.88,4.83-7.63,6.31-11.93.18-.52.28-1.06.38-1.43ZM293.94,477.97c-.1-.45-.15-.81-.25-1.16-.17-.54-.41-1.12-1.09-1.05-.69.07-.8.65-.77,1.24,0,.09.02.18.02.28-.13,3.86-1.65,6.92-5.18,8.82-.24.13-.51.23-.72.4-.39.32-.58.73-.28,1.2.21.33.55.52.94.4.53-.17,1.06-.36,1.54-.62,3.81-2.08,5.02-5.69,5.8-9.51ZM288.38,499.2c-.09-.16-.17-.49-.38-.6-.61-.33-1.05.06-1.41.51-2.3,2.92-5.07,5.06-8.95,5.49-.64.07-1.36.38-1.1,1.24.23.78.93.74,1.62.63,4.06-.65,7.19-2.78,9.68-5.94.28-.36.55-.74.54-1.33ZM253.59,481.9c-.08-.37.05-1.16-.87-1.22-.75-.04-.85.59-.92,1.13-.33,2.56-1.77,4.58-3.24,6.59-.71.96-1.45,1.9-2.12,2.89-.32.46-.53,1.06.08,1.45.54.34,1.06.05,1.47-.38.06-.07.13-.13.18-.21,1.75-2.25,3.48-4.53,4.7-7.11.43-.9.77-1.87.72-3.14ZM301.75,495.81c.04-.75-.06-1.1-.45-1.26-.5-.21-.91-.04-1.16.43-.22.41-.38.84-.58,1.25-1.27,2.55-2.88,4.74-5.87,5.51-.35.09-.69.27-1,.46-.34.21-.51.56-.4.94.14.51.56.78,1.06.63.98-.29,1.98-.57,2.88-1.03,3.04-1.53,4.46-4.3,5.54-6.94ZM219.34,525.02c.05-.77.05-1.51-.78-1.62-.86-.11-1.03.68-1.12,1.3-.32,2.31-1.42,4.34-2.31,6.45-.32.76-.63,1.53-.87,2.31-.14.46-.02.92.48,1.16.54.26.96-.08,1.14-.47,1.4-2.99,2.88-5.95,3.46-9.13ZM270.75,539.36c1.99-.22,3.82-1.28,5.52-2.61.43-.34.95-.78.54-1.37-.51-.74-1.13-.35-1.7.02-.39.25-.77.52-1.16.77-1.92,1.25-3.91,1.67-6.06.57-.41-.21-.86-.38-1.31-.42-.49-.05-.92.22-1.06.71-.11.41.19.69.52.88,1.39.78,2.81,1.45,4.69,1.46ZM214.55,512.12c.7.04.95-.47,1.2-.96.84-1.64,1.67-3.28,2.5-4.92.54-1.07,1.07-2.14,1.58-3.22.2-.44.25-.94-.2-1.24-.56-.36-1.06-.11-1.42.39-.21.3-.38.63-.54.96-1.07,2.14-2.15,4.27-3.19,6.42-.28.57-.69,1.12-.59,1.8.05.39.25.68.67.76ZM229.27,547.76c.06,0-.12-.03-.3-.03-.69.02-1.67-.35-1.76.72-.08.96.92,1.01,1.6,1.2,2.42.66,7.17-1.51,8.36-3.78.08-.16.14-.34.17-.51.08-.4-.05-.75-.41-.91-.22-.1-.61-.12-.78,0-.44.32-.76.79-1.19,1.12-1.59,1.26-3.18,2.56-5.69,2.19ZM261.17,495.8c.22-1.08.16-1.75-.65-1.91-.69-.14-.99.48-1.1,1-.26,1.29-.95,2.39-1.5,3.54-.67,1.41-1.41,2.79-2.08,4.2-.2.42-.25.93.24,1.21.44.25,1,.17,1.24-.25,1.5-2.64,2.94-5.31,3.85-7.8ZM235.24,524.95c.18-.09.49-.15.66-.33,1.82-1.98,3.89-3.73,5.43-5.95.31-.44.68-1.01,0-1.43-.57-.36-1.05-.05-1.46.39-1.64,1.77-3.28,3.53-4.91,5.31-.25.27-.49.58-.61.92-.26.71.14,1.01.89,1.1ZM267.2,479.51h0c0-1.46.03-2.93-.01-4.39-.01-.54-.13-1.16-.91-1.08-.53.06-.78.5-.78.98-.04,3.02-.06,6.03-.06,9.05,0,.59.28,1.12.97,1.06.71-.06.79-.68.8-1.23.03-1.46,0-2.92,0-4.39Z"/>
    <path class="cls-3" d="M234.21,594.57c2.14-2.41,4.28-4.82,6.42-7.24,5.46-6.19,10.68-12.58,15.52-19.27,4.36-6.03,7.89-12.53,10.87-19.31.63-1.44,1.49-2.4,2.93-3.08,5.06-2.39,9.79-5.34,14.38-8.53,10.92-7.61,18.2-17.83,22.51-30.25,1.8-5.18,2.98-10.48,3.32-15.94.49-7.79-1.75-14.95-5.44-21.74-.47-.87-1.27-1.63-1.19-2.74.75-.31,1.48-.08,2.2.04,2.66.43,5.37.53,8.01.87,3.41.44,6.73.59,10.16.67,4.22.09,7.44,2.47,9.4,6.41,3.48,7.03,5.31,14.54,6.9,22.13.15.72.25,1.47.21,2.2-.29,6.25-.63,12.5-2.46,18.55-2.23,7.38-5.6,14.27-9.49,20.91-10.35,17.67-22.96,33.61-37.66,47.96-3.58,3.49-7.8,5.96-12.08,8.39-1.4.8-2.91,1.61-4.74.77-1.11-.51-2.16.23-3.13.8-2.01,1.17-4.01,2.35-6.03,3.51-.73.42-1.36.77-2.22-.03-.9-.84-2.11-.51-3.19-.19-.98.29-1.92.71-2.89,1.04-2.13.72-2.17.72-3.52-1.23-.63-.92-1.35-1.18-2.37-.76-1.29.53-2.57,1.1-3.9,1.52-2.31.74-3.2.46-4.7-1.38-1.25-1.53-3.02-2.1-4.81-2.65-1.05-.32-2.23-.32-3.03-1.43ZM271.93,569.51c.36-.19.96-.45,1.5-.79,4.84-3.09,7.63-7.92,10.76-12.46.05-.08.1-.16.13-.24.14-.47.13-.9-.38-1.17-.38-.2-.78-.11-1.02.15-.49.54-.89,1.16-1.33,1.75-2.98,3.97-5.57,8.28-10.13,10.8-.23.13-.43.35-.6.56-.25.3-.37.65-.11,1,.23.3.53.5,1.19.41ZM302.83,526.66c2.01-.36,4.13-.97,5.92-2.44,2.47-2.03,4.36-4.52,5.94-7.26.4-.69,1.15-1.58.21-2.19-1.04-.68-1.42.5-1.82,1.13-2.62,4.11-5.35,8.04-10.75,8.86-.55.08-1.08.48-.99,1.14.09.7.69.77,1.49.76ZM301.65,553.08c-.19-.58-.51-1.02-1.2-.74-.33.13-.63.39-.88.66-3.56,3.8-6.41,8.06-8.51,12.81-.07.17-.16.34-.2.51-.12.5.02.91.49,1.15.5.26.91.02,1.21-.35.23-.28.41-.61.57-.94,2.01-4.37,4.61-8.36,7.88-11.92.31-.34.62-.69.64-1.18ZM325.61,495.25c-.12-1.08-.22-2.55-.47-3.99-.1-.61-.47-1.31-1.3-1.16-.91.16-.76.91-.61,1.54.57,2.37.45,4.71.02,7.09-.38,2.13-1.07,4.06-2.4,5.78-.43.55-.59,1.22.18,1.64.58.32,1.08.01,1.45-.45.34-.43.67-.88.96-1.35,1.66-2.68,1.98-5.68,2.17-9.1ZM301.04,538.39c-.07-.71-1.06-.94-1.75-.26-1.74,1.7-3.8,2.96-5.83,4.26-.86.55-1.73,1.08-2.56,1.67-.44.32-.92.75-.49,1.37.37.53.91.58,1.47.24,2.93-1.79,5.94-3.47,8.43-5.86.4-.38.76-.81.73-1.42ZM313.61,541.91c.32-.13.61-.19.82-.35,2.86-2.08,5.6-4.28,7.21-7.53.12-.25.25-.49.33-.75.14-.47.12-.96-.32-1.23-.45-.28-.89-.07-1.22.31-.18.21-.33.45-.46.69-1.34,2.62-3.49,4.49-5.8,6.23-.51.38-.97.85-1.39,1.33-.28.32-.16.71.14.97.19.16.47.23.68.33ZM264.36,573.41c-.11-.17-.2-.51-.41-.6-.59-.28-1.09.03-1.48.45-2.33,2.5-4.35,5.24-6.31,8.03-.41.58-.6,1.29.06,1.7.69.43,1.18-.17,1.58-.71,1.93-2.58,3.84-5.17,6.01-7.56.32-.35.53-.75.54-1.31ZM269.63,587.64c.29-.11.6-.15.79-.32,2.15-1.9,4.29-3.81,6.41-5.74.37-.34.44-.81.04-1.21-.39-.4-.89-.34-1.27-.05-1.03.79-2.03,1.61-3,2.47-1.18,1.04-2.34,2.11-3.48,3.19-.36.34-.46.82-.18,1.25.13.2.45.28.68.41Z"/>
    <path class="cls-7" d="M355.81,436.28c-2.71.19-4.51-.53-6.04-2.09-1.94-1.99-3.92-3.95-5.9-5.9-1.26-1.24-2.62-2.35-4.16-3.25-3.1-1.8-4.91-.41-6.45,1.64-.55.72-.51,1.8-1.51,2.35-1.48-2.04-3.23-3.78-5.47-5.03-4.91-2.74-8.71-2.5-13.06,1.08-.7.58-1.09.44-1.65,0-1.36-1.12-2.69-2.29-4.11-3.34-1.67-1.25-3.47-2.16-5.7-1.59-.52.13-1.16.12-1.66-.07-2.24-.84-4.45-1.22-6.81-.4-.91.32-1.8-.33-2.68-.6-1.87-.57-3.72-1.19-5.74-.82-5.31.98-8.07,5.16-6.69,10.52-4.98-.89-8.64,1.5-11.9,4.69-3.05,2.99-5.97,6.11-8.98,9.13-.69.69-1.21,1.64-2.53,1.9,1.83-6.88,3.12-13.76,5.37-20.41,1.39-4.09,3.72-7.61,6.66-10.79,7.28-7.88,16.09-13.37,26.39-16.5,7-2.13,14.01-1.84,20.93.37,7.98,2.55,15.13,6.62,21.8,11.64,5.55,4.17,9.67,9.39,12.96,15.39,2.17,3.96,4.08,8.06,6.94,12.1ZM307.52,405.75c-.2,2.61.02,4.51.86,6.31.35.75.71,1.63,1.78,1.35.85-.22,1.07-1.05,1.02-1.78-.19-2.85-.83-5.61-1.77-8.31-.15-.44-.57-.77-1.09-.66-.5.1-.77.51-.79,1-.03.92,0,1.84,0,2.09ZM297.85,412.14c0-.95-1.78-6.21-2.38-7.06-.28-.4-.64-.75-1.14-.62-.61.16-.94.66-.83,1.26.48,2.44.98,4.88,2.05,7.16.27.56.76.82,1.37.72.84-.14.92-.79.93-1.47ZM321.56,411.33s0,0-.01,0c-.06-1.2-.11-2.39-.19-3.59-.03-.39-.3-.69-.7-.75-.38-.05-.68.1-.9.48-1.31,2.29-1.62,4.69-.77,7.19.25.75.75,1.3,1.66,1.14.81-.14,1.01-.83,1.04-1.45.04-1.01-.08-2.02-.13-3.03ZM299.21,405.19c.02,1.54.26,2.7.89,3.76.31.52.77.8,1.39.7.66-.11.9-.6.96-1.18.24-2.16-.55-4.18-.97-6.24-.07-.32-.42-.62-.86-.58-.4.04-.77.25-.85.6-.25,1.07-.41,2.16-.56,2.94ZM328.64,412.69c-.07-.54-.15-1.73-.42-2.88-.19-.82-.86-.93-1.45-.34-1.03,1.04-1.4,5.25-.62,6.58.24.41.55.75,1.08.73.52-.01.82-.36,1.04-.78.45-.84.41-1.76.37-3.31ZM317.05,403.1c.12-.83.18-1.42-.49-1.63-.65-.2-1.08.26-1.3.76-.59,1.34-1.16,2.7-1.63,4.08-.23.68-.37,1.55.62,1.82.85.23,1.39-.33,1.7-1.06.58-1.36.87-2.79,1.1-3.97ZM269.3,425.19c.57,0,1.04.02,1.5,0,.66-.03,1.41-.09,1.38-.95-.02-.71-.68-.75-1.25-.75-1.77,0-3.5-.24-5.12-1.01-.5-.24-1.15-.37-1.47.23-.41.78.24,1.13.81,1.47,1.32.77,2.74,1.06,4.15,1.01ZM284.46,413.69c-.06-1.37-3.24-3.24-4.3-2.6-.3.18-.51.51-.44.92.19,1.1,2.71,2.92,3.79,2.72.61-.11.95-.5.95-1.04ZM287.9,408.02c-.19-1.1-.4-2.26-.6-3.42-.1-.59-.34-1.06-1.05-.95-.56.09-.65.56-.68,1.03-.09,1.29.25,2.52.56,3.75.14.57.49,1.03,1.12.95.76-.1.62-.76.64-1.35ZM271.79,414.74c-.55-.01-.9.44-.83.95.19,1.34,2.87,3.47,4.29,3.39.38-.02.71-.18.79-.61.07-.4-.09-.74-.43-.91-1.25-.61-2.39-1.34-3.2-2.5-.13-.19-.46-.24-.62-.31ZM335.12,419.18c1.09.02,2.89-2.43,2.48-3.49-.25-.66-.96-.7-1.34-.24-.68.85-1.24,1.81-1.75,2.77-.28.51.09.84.61.96Z"/>
    <path class="cls-12" d="M195.91,636.88c-.63-3.64.18-6.89.8-10.13.86-4.54,1.45-9.12,1.78-13.72.11-1.46-.57-3.15-.02-4.35.49-1.06,2.47-.86,3.66-1.62,1.33-.84,2.42-1.98,3.89-3.02.99,2.04,2.45,3.29,4.84,2.98,1.16-.15,2.14-.64,3.03-1.31,1.03-.78,2.01-1.64,3.11-2.55.87,1.5,2.33,1.68,4.05,1.67.06,1.73-.65,3.14-1.21,4.54-2.96,7.37-5.97,14.72-9.01,22.06-2.16,5.22-4.2,10.52-4.97,16.1-.42,3.03-1.41,5.26-3.69,7.26-2.11,1.84-3.37,4.39-4.56,6.91-.45.96-.7,2.08-1.67,2.66-.61-.18-.57-.59-.56-.93.12-4.71.29-9.41.95-14.08.33-2.38.89-4.75.78-7.15-.11-2.33.78-4.24,1.84-6.23,2.93-5.46,5.89-10.91,7.38-16.99.24-.98.39-1.99.5-3,.06-.49-.25-.93-.75-1.03-.52-.11-.89.26-1.05.7-.19.52-.26,1.07-.37,1.62-1.43,6.87-4.77,12.96-8.02,19.09-.07.13-.26.2-.71.51Z"/>
    <path class="cls-9" d="M337.64,454.46c-4.9,3.34-9.08,6.84-7.03,13.57-1.83-.67-3.29-1.63-4.77-1.68-4.61-.15-9.18-.6-13.75-1.14-4.94-.58-10.08-.33-14.16-4.02-1.08-.98-1.37-1.86-1-3.12.45-1.58,1.37-2.86,2.77-3.7,4.87-2.91,9.76-5.86,15.51-6.68,4.91-.7,9.85-.76,14.73.34,3.76.85,4.82,1.79,7.71,6.42Z"/>
    <path class="cls-1" d="M207.83,649.37c-.33-1.16-.06-2.05.17-2.94,1.21-4.64,2.6-9.22,4.43-13.66,3.05-7.42,6.11-14.83,9.08-22.29.9-2.27,2.1-4.57,1.07-7.28,3.45-.96,5.65-3.52,8.06-5.79,1.09-1.03,2.03-1.82,3.49-.47.49.45,1.39.46,2.08.71,1.05.38,2.15.68,3.1,1.22,1.8,1.01,2.12,2.27.8,3.84-5.36,6.33-8.9,13.81-13.5,20.62-5.17,7.65-10.03,15.53-15.8,22.78-.86,1.07-1.62,2.24-2.98,3.27Z"/>
    <path class="cls-1" d="M334.91,442.38c-1.46.88-2.9.8-4.32.37-5.64-1.69-11.49-2.26-17.29-3.11-6.63-.97-13.31-1.61-19.82-3.29-1.54-.4-2.99-1-4.48-1.52-3.94-1.37-5.5-4.44-6.16-8.17-.39-2.2.67-3.49,2.95-3.78,1.74-.22,3.29.3,4.84,1.02,1.78.83,3.63,1.65,5.47.04.53-.47,1.05-.22,1.54.06.89.5,1.75,1.05,2.64,1.56,1.28.73,2.62,1.04,3.98.27,2.34-1.33,4.51-.46,6.2.95,3.46,2.9,7.38,4.97,11.33,7.04,4.61,2.42,8.55,5.86,13.12,8.55Z"/>
    <path class="cls-9" d="M290,440.89c-1,1.55-2.35,2.39-3.73,3.16-3.09,1.72-6.35,3.08-9.57,4.51-.69.31-1.33.57-2.13.33-5.95-1.83-12.06-2.25-18.23-1.94-.24-.95.58-1.13.98-1.55,3.21-3.34,6.43-6.68,9.69-9.98,1.57-1.59,3.29-3.02,5.31-4.02,2.98-1.47,7.45-.87,9.61,1.6,2.48,2.85,4.76,5.86,8.07,7.88Z"/>
    <path class="cls-1" d="M279.39,450.43c5.68-3.86,11.41-6.85,18.09-7.43,7.18-.62,14.36-.51,21.44,1.06.45.1.91.21,1.35.34.43.12.86.27,1.82.57-3.18.61-5.91.56-8.55,1.11-5.96,1.26-11.11,4.17-16.05,7.52-.92.62-1.72,1.45-2.8,1.8-1.98.64-3.85.9-5.8-.45-2.8-1.95-6-3.24-9.51-4.51Z"/>
    <path class="cls-8" d="M285.54,593.69c2.74.58,5.83,1.2,8.89,1.91,1.54.36,3.02.91,4.55,1.32,1.26.33,1.36,1.1.92,2.11-.9,2.09-1.66,2.32-4.11,2.04-3.71-.43-7.46-.08-11.19-.19-3.64-.11-7.04.77-10.16,2.52-2.74,1.54-5.47,3.16-7.77,5.36-.53.51-1.17.91-1.79,1.31-2.09,1.34-4.26.73-5.34-1.44-.31-.63-.02-1.05.38-1.46,2.46-2.45,4.3-5.61,7.95-6.71.77-.23,1.49-.78,2.13-1.3,1.52-1.24,3.2-1.76,5.18-1.58,2.81.25,4.91-1.5,7.18-2.72.9-.48,1.71-1.13,3.16-1.15Z"/>
    <path class="cls-14" d="M385.8,461.47c-11.45-3.37-23.23-5.26-34.87-7.81-1.36-.3-2.76-.43-4.15-.6-5.23-.64-9.41-3.25-13.09-6.8-.2-.19-.36-.43-.17-.92,1.49-.37,3.07.07,4.45.58,8.24,3.04,16.85,4.68,25.34,6.77,7.98,1.95,15.61,4.95,23.19,8.04-.24.24-.47.49-.71.73Z"/>
    <path class="cls-6" d="M343.93,437.48c-4.67-.03-8.79-3.74-8.58-9.49.05-1.35,1.15-2.02,2.57-1.6,1.08.32,2.01.98,2.82,1.71,1.71,1.54,3.34,3.17,5,4.77.13.13.25.27.36.41.72.96.89,2.05.46,3.12-.46,1.15-1.6,1.06-2.63,1.08Z"/>
    <path class="cls-6" d="M326.46,434.31c5.12-2.08,9.89-.04,11.66,4.69.27.72.06,1.23-.43,1.73-.54.55-1.07.13-1.5-.09-3.38-1.74-6.5-3.87-9.74-6.33Z"/>
    <path class="cls-16" d="M261.25,612.72c-1.33,1.21-2.75,1.87-4.23,2.42-.5.19-1.13.35-1.55-.15-.39-.47-.18-1.05.03-1.55.22-.5.49-.99.77-1.46,1.28-2.07,1.3-2.07,3.22-.56.5.39,1.02.77,1.75,1.31Z"/>
    <path class="cls-16" d="M300.85,601.43c.76-1.33,1.28-2.26,1.86-3.27,2.13.89,4.29,1.37,6.4,2.97-2.84.69-5.34.35-8.26.3Z"/>
    <path class="cls-16" d="M385.8,461.47c.24-.25.47-.49.71-.73,2.22.81,4.48,1.51,6.52,2.7-.07.19-.14.37-.21.56-2.34-.84-4.68-1.69-7.02-2.53Z"/>
    <path class="cls-10" d="M291.81,437.93c1.97.44,3.93.87,5.9,1.31-2.26.7-4.26.03-5.9-1.31Z"/>
    <path class="cls-6" d="M322.06,427.93c-.76-.33-1.81-.42-2.06-1.43-.1-.4.43-.73.94-.75.95-.03,1.92.74,1.88,1.52-.02.41-.31.61-.76.66Z"/>
    <path class="cls-7" d="M221.46,602.95c-2.93-.16-2.97-.25-1.73-2.91.26,1.13.75,1.95,1.73,2.91Z"/>
    <path class="cls-10" d="M326.59,431.93q1.5-1.97,3.56-.83c-1.15.27-2.05.48-3.56.83Z"/>
    <path class="cls-5" d="M269.96,460.77c.78-.01,1.35.02,1.81.38.57.45.53.95-.09,1.3-.31.17-.7.24-1.07.25-7.56.27-12.81,4.35-17.05,10.09-.44.59-.88,1.18-1.41,1.69-.34.32-.86.38-1.26,0-.3-.28-.29-.66-.14-1.02.11-.25.24-.5.4-.72,4.39-6.48,10.11-10.97,18.2-11.92.28-.03.56-.04.63-.04Z"/>
    <path class="cls-15" d="M231.64,481.74c.61-2.23,1.62-4.4,2.92-6.43,2.36-3.69,5.31-6.88,8.65-9.71.35-.3.7-.62,1.09-.85.41-.25.89-.37,1.28.02.42.41.21.88-.1,1.22-.44.47-.96.86-1.44,1.31-4.46,4.13-8.47,8.58-10.32,14.52-.05.18-.13.35-.19.52-.24.65-.57,1.24-1.4.94-.66-.24-.6-.84-.48-1.52Z"/>
    <path class="cls-5" d="M244.45,551.48c-2.37-.02-3.94-1.23-3.92-3.02,0-.52.2-.91.69-1.07.4-.13.69.16.95.43,1.71,1.83,2.48,2.03,4.66,1.06,2.89-1.28,4.92-3.56,6.81-5.97.4-.51.71-1.08,1.13-1.57.33-.38.8-.46,1.23-.12.33.26.36.62.22.99-.1.26-.21.52-.36.75-2.11,3.2-4.64,5.97-8.21,7.65-1.01.47-2.05.87-3.2.86Z"/>
    <path class="cls-5" d="M265.98,526.06c-2.74-.08-4.69-.89-6.51-2.03-.49-.31-.91-.75-.58-1.36.32-.59.91-.52,1.47-.33.09.03.17.07.25.12,5.17,3.24,9.37.94,13.41-2.29.58-.46,1.11-.98,1.69-1.43.33-.25.69-.2.99.11.28.29.37.62.17.99-.04.08-.08.17-.14.24-3.07,3.26-6.71,5.45-10.73,5.99Z"/>
    <path class="cls-5" d="M258.15,537.14c-1.88-.11-3.27-.62-4.43-1.58-1.2-1-2.3-2.13-3.45-3.2-.36-.34-.63-.76-.24-1.18.32-.35.78-.44,1.28-.26.65.23,1.04.75,1.5,1.2,4.04,3.99,6.72,4.06,10.96.28.62-.55,1.2-1.15,1.85-1.66.39-.31.87-.36,1.23.08.27.31.25.72.01,1.01-2.33,2.92-5.3,4.79-8.73,5.33Z"/>
    <path class="cls-5" d="M290.04,511.41c-.42,1.77-1.25,3.53-2.2,5.22-1.84,3.27-4.08,6.19-7.62,7.86-.58.27-1.19.51-1.81.69-.4.12-.71-.13-.91-.48-.22-.38-.08-.73.22-.98.28-.23.6-.44.93-.59,4.75-2.17,7.21-6.23,9.13-10.75.22-.51.36-1.05.52-1.58.17-.58.46-1.05,1.16-.89.75.17.62.8.59,1.49Z"/>
    <path class="cls-5" d="M236.9,497.37c-.1.37-.21.91-.38,1.43-1.48,4.3-4.02,8.05-6.31,11.93-.34.57-.84,1.17-1.55.66-.63-.45-.39-1.17-.05-1.75.83-1.43,1.7-2.84,2.54-4.27,1.5-2.54,3.01-5.07,3.87-7.91.08-.26.16-.53.28-.77.18-.35.49-.56.89-.5.59.08.65.55.7,1.19Z"/>
    <path class="cls-5" d="M293.94,477.97c-.79,3.81-1.99,7.43-5.8,9.51-.48.26-1.01.46-1.54.62-.39.12-.73-.07-.94-.4-.3-.47-.11-.89.28-1.2.21-.17.48-.27.72-.4,3.53-1.9,5.05-4.96,5.18-8.82,0-.09-.01-.18-.02-.28-.03-.59.08-1.17.77-1.24.68-.07.92.51,1.09,1.05.11.35.16.71.25,1.16Z"/>
    <path class="cls-5" d="M288.38,499.2c.01.59-.26.97-.54,1.33-2.48,3.16-5.61,5.29-9.68,5.94-.69.11-1.38.14-1.62-.63-.26-.86.46-1.17,1.1-1.24,3.88-.42,6.65-2.56,8.95-5.49.35-.45.79-.84,1.41-.51.2.11.28.44.38.6Z"/>
    <path class="cls-5" d="M253.59,481.9c.05,1.27-.3,2.24-.72,3.14-1.23,2.58-2.96,4.86-4.7,7.11-.06.07-.12.14-.18.21-.41.43-.93.72-1.47.38-.61-.38-.4-.98-.08-1.45.67-.98,1.42-1.92,2.12-2.89,1.47-2.01,2.91-4.03,3.24-6.59.07-.54.18-1.17.92-1.13.92.06.79.84.87,1.22Z"/>
    <path class="cls-5" d="M301.75,495.81c-1.08,2.64-2.5,5.41-5.54,6.94-.9.45-1.9.74-2.88,1.03-.5.15-.92-.12-1.06-.63-.1-.38.06-.73.4-.94.31-.19.65-.37,1-.46,2.99-.77,4.6-2.96,5.87-5.51.21-.41.37-.85.58-1.25.25-.46.66-.64,1.16-.43.39.16.49.51.45,1.26Z"/>
    <path class="cls-5" d="M219.34,525.02c-.58,3.18-2.06,6.14-3.46,9.13-.19.4-.6.73-1.14.47-.5-.24-.62-.7-.48-1.16.24-.79.55-1.55.87-2.31.89-2.11,1.99-4.14,2.31-6.45.09-.62.26-1.41,1.12-1.3.83.1.83.85.78,1.62Z"/>
    <path class="cls-5" d="M270.75,539.36c-1.88-.01-3.31-.68-4.69-1.46-.33-.18-.64-.47-.52-.88.14-.49.57-.76,1.06-.71.45.05.91.22,1.31.42,2.15,1.11,4.14.68,6.06-.57.39-.25.77-.52,1.16-.77.56-.37,1.19-.76,1.7-.02.41.6-.11,1.03-.54,1.37-1.7,1.33-3.53,2.39-5.52,2.61Z"/>
    <path class="cls-5" d="M214.55,512.12c-.42-.09-.62-.38-.67-.76-.09-.69.32-1.23.59-1.8,1.04-2.15,2.12-4.28,3.19-6.42.16-.33.33-.66.54-.96.35-.51.85-.76,1.42-.39.45.29.41.8.2,1.24-.51,1.08-1.05,2.15-1.58,3.22-.83,1.64-1.66,3.28-2.5,4.92-.25.49-.5,1.01-1.2.96Z"/>
    <path class="cls-5" d="M229.27,547.76c2.51.37,4.1-.92,5.69-2.19.43-.34.75-.8,1.19-1.12.17-.13.56-.1.78,0,.36.16.49.51.41.91-.04.18-.09.36-.17.51-1.19,2.27-5.94,4.44-8.36,3.78-.67-.18-1.68-.24-1.6-1.2.09-1.07,1.07-.7,1.76-.72.18,0,.37.04.3.03Z"/>
    <path class="cls-5" d="M261.17,495.8c-.92,2.49-2.36,5.16-3.85,7.8-.24.43-.8.51-1.24.25-.49-.28-.44-.79-.24-1.21.67-1.41,1.41-2.79,2.08-4.2.55-1.16,1.24-2.25,1.5-3.54.11-.53.41-1.14,1.1-1,.81.16.87.83.65,1.91Z"/>
    <path class="cls-5" d="M235.24,524.95c-.75-.08-1.15-.39-.89-1.1.12-.34.36-.65.61-.92,1.63-1.78,3.28-3.54,4.91-5.31.41-.44.9-.74,1.46-.39.68.42.31.99,0,1.43-1.54,2.22-3.61,3.97-5.43,5.95-.17.18-.48.24-.66.33Z"/>
    <path class="cls-15" d="M267.2,479.51c0,1.46.02,2.93,0,4.39,0,.55-.09,1.18-.8,1.23-.68.05-.97-.47-.97-1.06,0-3.02.02-6.03.06-9.05,0-.48.25-.92.78-.98.78-.08.9.54.91,1.08.04,1.46.01,2.92.01,4.39h0Z"/>
    <path class="cls-2" d="M271.93,569.51c-.66.1-.96-.1-1.19-.41-.26-.35-.14-.7.11-1,.17-.21.37-.43.6-.56,4.56-2.52,7.16-6.83,10.13-10.8.44-.59.84-1.21,1.33-1.75.24-.26.64-.35,1.02-.15.51.27.51.7.38,1.17-.02.09-.08.17-.13.24-3.13,4.54-5.92,9.36-10.76,12.46-.54.34-1.13.6-1.5.79Z"/>
    <path class="cls-2" d="M302.83,526.66c-.8,0-1.4-.06-1.49-.76-.09-.66.43-1.06.99-1.14,5.39-.82,8.13-4.75,10.75-8.86.4-.63.79-1.81,1.82-1.13.94.61.19,1.5-.21,2.19-1.58,2.74-3.47,5.22-5.94,7.26-1.79,1.47-3.9,2.07-5.92,2.44Z"/>
    <path class="cls-2" d="M301.65,553.08c-.02.5-.33.85-.64,1.18-3.27,3.56-5.87,7.55-7.88,11.92-.15.33-.33.66-.57.94-.31.37-.71.61-1.21.35-.47-.24-.61-.66-.49-1.15.04-.18.13-.34.2-.51,2.1-4.75,4.95-9.01,8.51-12.81.25-.26.55-.52.88-.66.69-.28,1.01.15,1.2.74Z"/>
    <path class="cls-2" d="M325.61,495.25c-.19,3.42-.51,6.42-2.17,9.1-.29.47-.62.92-.96,1.35-.37.46-.87.77-1.45.45-.77-.43-.61-1.1-.18-1.64,1.34-1.72,2.03-3.65,2.4-5.78.42-2.39.55-4.73-.02-7.09-.15-.63-.3-1.37.61-1.54.82-.15,1.19.55,1.3,1.16.25,1.44.35,2.91.47,3.99Z"/>
    <path class="cls-2" d="M301.05,538.39c.03.61-.34,1.04-.74,1.42-2.49,2.4-5.5,4.07-8.43,5.86-.55.34-1.1.29-1.47-.24-.43-.62.04-1.05.49-1.37.83-.59,1.7-1.12,2.56-1.67,2.03-1.3,4.08-2.56,5.83-4.26.7-.68,1.68-.45,1.75.26Z"/>
    <path class="cls-2" d="M313.61,541.91c-.21-.1-.49-.16-.68-.33-.3-.26-.42-.66-.14-.97.42-.48.88-.94,1.39-1.33,2.31-1.74,4.46-3.61,5.8-6.23.12-.24.28-.48.46-.69.32-.39.76-.59,1.22-.31.45.27.46.76.32,1.23-.08.26-.21.51-.33.75-1.62,3.25-4.35,5.45-7.21,7.53-.22.16-.51.22-.82.35Z"/>
    <path class="cls-2" d="M264.36,573.41c0,.56-.22.96-.54,1.31-2.17,2.39-4.09,4.98-6.01,7.56-.4.54-.9,1.13-1.58.71-.66-.41-.47-1.13-.06-1.7,1.96-2.78,3.98-5.52,6.31-8.03.39-.42.89-.73,1.48-.45.21.1.3.43.41.6Z"/>
    <path class="cls-2" d="M269.63,587.64c-.24-.14-.55-.21-.68-.41-.28-.43-.18-.91.18-1.25,1.14-1.08,2.3-2.15,3.48-3.19.97-.85,1.97-1.68,3-2.47.38-.29.87-.35,1.27.05.4.4.33.87-.04,1.21-2.12,1.93-4.26,3.84-6.41,5.74-.19.17-.5.21-.79.32Z"/>
    <path class="cls-15" d="M307.52,405.75c0-.26-.02-1.18,0-2.09.02-.49.29-.89.79-1,.52-.11.94.22,1.09.66.94,2.69,1.58,5.46,1.77,8.31.05.73-.17,1.56-1.02,1.78-1.07.28-1.44-.6-1.78-1.35-.83-1.79-1.05-3.7-.86-6.31Z"/>
    <path class="cls-5" d="M297.85,412.14c0,.68-.09,1.33-.93,1.47-.61.1-1.1-.16-1.37-.72-1.08-2.27-1.57-4.72-2.05-7.16-.12-.6.22-1.11.83-1.26.51-.13.86.22,1.14.62.6.85,2.38,6.11,2.39,7.06Z"/>
    <path class="cls-15" d="M321.56,411.33c.05,1.01.18,2.02.13,3.03-.03.63-.23,1.32-1.04,1.45-.91.15-1.41-.39-1.66-1.14-.85-2.5-.55-4.9.77-7.19.22-.38.52-.53.9-.48.4.05.67.35.7.75.09,1.2.13,2.39.19,3.59,0,0,0,0,.01,0Z"/>
    <path class="cls-15" d="M299.21,405.19c.14-.78.31-1.87.56-2.94.08-.35.46-.56.85-.6.44-.04.79.26.86.58.42,2.06,1.21,4.08.97,6.24-.06.58-.3,1.08-.96,1.18-.62.1-1.08-.18-1.39-.7-.63-1.06-.87-2.22-.89-3.76Z"/>
    <path class="cls-15" d="M328.64,412.69c.03,1.55.08,2.47-.37,3.31-.22.42-.52.77-1.04.78-.52.01-.84-.33-1.08-.73-.78-1.33-.42-5.54.62-6.58.59-.6,1.26-.48,1.45.34.27,1.15.35,2.34.42,2.88Z"/>
    <path class="cls-15" d="M317.05,403.1c-.22,1.17-.52,2.61-1.1,3.97-.31.73-.85,1.29-1.7,1.06-.99-.27-.86-1.14-.62-1.82.47-1.38,1.04-2.74,1.63-4.08.22-.51.65-.96,1.3-.76.67.21.61.81.49,1.63Z"/>
    <path class="cls-5" d="M269.3,425.19c-1.4.05-2.83-.24-4.15-1.01-.58-.34-1.22-.69-.81-1.47.32-.61.96-.47,1.47-.23,1.63.77,3.35,1,5.12,1.01.57,0,1.23.04,1.25.75.02.86-.72.92-1.38.95-.46.02-.93,0-1.5,0Z"/>
    <path class="cls-15" d="M284.46,413.69c0,.54-.33.93-.95,1.04-1.08.2-3.6-1.62-3.79-2.72-.07-.41.13-.74.44-.92,1.06-.64,4.24,1.23,4.3,2.6Z"/>
    <path class="cls-5" d="M287.9,408.02c-.02.59.13,1.25-.64,1.35-.64.08-.98-.38-1.12-.95-.31-1.23-.65-2.46-.56-3.75.03-.47.12-.94.68-1.03.71-.11.95.36,1.05.95.2,1.16.4,2.32.6,3.42Z"/>
    <path class="cls-15" d="M271.79,414.74c.15.07.48.12.62.31.82,1.16,1.95,1.89,3.2,2.5.34.17.51.5.43.91-.08.43-.41.59-.79.61-1.42.08-4.1-2.05-4.29-3.39-.07-.5.27-.96.83-.95Z"/>
    <path class="cls-5" d="M335.12,419.18c-.52-.13-.88-.45-.61-.96.52-.96,1.07-1.92,1.75-2.77.38-.46,1.08-.42,1.34.24.41,1.06-1.39,3.52-2.48,3.49Z"/>
  </g>
  <g>
    <path class="cls-4" d="M383.59,487.71l-5.16-.72v-3h32.1l.6,10.2h-3.9l-1.8-6.66-15.42-.42v17.4l10.86-.18,1.02-4.98h3.18v14.04h-3.12l-1.08-5.22-10.86-.24v17.1l9.36.6v2.94h-20.58v-2.94l4.8-.6v-37.32Z"/>
    <path class="cls-4" d="M420.37,499.89l-4.56-1.08v-3.18l9.3-1.14h.12l1.38,1.08v29.58l4.8.48v2.94h-15.9v-2.94l4.86-.54v-25.2ZM419.89,488.19c-.64-.72-.96-1.64-.96-2.76,0-1.28.39-2.34,1.17-3.18.78-.84,1.85-1.26,3.21-1.26s2.36.36,3,1.08c.64.72.96,1.64.96,2.76,0,1.36-.39,2.44-1.17,3.24-.78.8-1.87,1.2-3.27,1.2h-.06c-1.28,0-2.24-.36-2.88-1.08Z"/>
    <path class="cls-4" d="M441.25,523.77c.4.6,1.25,1.14,2.55,1.62,1.3.48,2.67.72,4.11.72,2.28,0,3.96-.44,5.04-1.32,1.08-.88,1.62-2.1,1.62-3.66,0-1.08-.34-2.02-1.02-2.82-.68-.8-1.63-1.51-2.85-2.13-1.22-.62-2.97-1.37-5.25-2.25-3.08-1.16-5.33-2.55-6.75-4.17-1.42-1.62-2.13-3.75-2.13-6.39,0-1.76.53-3.3,1.59-4.62,1.06-1.32,2.52-2.35,4.38-3.09,1.86-.74,3.93-1.11,6.21-1.11,1.84,0,3.45.14,4.83.42,1.38.28,2.49.56,3.33.84.84.28,1.4.46,1.68.54v7.44h-3.66l-1.2-4.44c-.24-.48-.88-.89-1.92-1.23-1.04-.34-2.2-.51-3.48-.51-1.8,0-3.25.4-4.35,1.2-1.1.8-1.65,1.88-1.65,3.24,0,1.2.29,2.19.87,2.97.58.78,1.31,1.41,2.19,1.89.88.48,2.08,1.04,3.6,1.68l1.2.48c2.24.88,4.06,1.72,5.46,2.52,1.4.8,2.57,1.85,3.51,3.15.94,1.3,1.41,2.89,1.41,4.77,0,2.96-1.15,5.32-3.45,7.08-2.3,1.76-5.45,2.64-9.45,2.64-1.96,0-4.01-.27-6.15-.81-2.14-.54-3.89-1.09-5.25-1.65v-7.68h3.9l1.08,4.68Z"/>
    <path class="cls-4" d="M467.2,503.13c1.3-2.68,3.22-4.81,5.76-6.39,2.54-1.58,5.59-2.37,9.15-2.37,1.72,0,3.2.16,4.44.48,1.24.32,2.72.76,4.44,1.32l-.24,9.24h-3.9l-1.32-6.12c-.24-1.12-1.76-1.68-4.56-1.68s-5.01,1.13-6.63,3.39c-1.62,2.26-2.43,5.47-2.43,9.63,0,4.72.91,8.31,2.73,10.77,1.82,2.46,4.19,3.69,7.11,3.69,1.68,0,3.27-.26,4.77-.78,1.5-.52,2.79-1.14,3.87-1.86l1.14,2.4c-1.08,1.12-2.67,2.13-4.77,3.03-2.1.9-4.23,1.35-6.39,1.35-3.28,0-6.05-.74-8.31-2.22-2.26-1.48-3.96-3.51-5.1-6.09s-1.71-5.51-1.71-8.79.65-6.32,1.95-9Z"/>
    <path class="cls-4" d="M499.99,483.81l-5.04-.66v-2.58l9.78-1.14h.12l1.32.9v13.92l-.24,5.1c1.28-1.16,3.04-2.26,5.28-3.3,2.24-1.04,4.5-1.56,6.78-1.56,2.52,0,4.48.48,5.88,1.44,1.4.96,2.38,2.43,2.94,4.41.56,1.98.84,4.65.84,8.01v16.74l4.2.54v2.94h-14.34v-2.94l3.9-.54v-16.8c0-2.36-.16-4.21-.48-5.55-.32-1.34-.92-2.34-1.8-3-.88-.66-2.2-.99-3.96-.99-1.44,0-2.98.36-4.62,1.08-1.64.72-3.08,1.56-4.32,2.52v22.74l4.14.54v2.94h-13.98v-2.94l3.6-.48v-41.34Z"/>
    <path class="cls-4" d="M539.98,524.49c-2.54-3.16-3.81-7.38-3.81-12.66,0-3.48.66-6.54,1.98-9.18s3.17-4.68,5.55-6.12c2.38-1.44,5.09-2.16,8.13-2.16,3.72,0,6.61,1.03,8.67,3.09,2.06,2.06,3.15,5.01,3.27,8.85,0,2.44-.14,4.3-.42,5.58h-20.64c.08,3.96,1,7.15,2.76,9.57,1.76,2.42,4.26,3.63,7.5,3.63,1.6,0,3.27-.29,5.01-.87,1.74-.58,3.09-1.27,4.05-2.07l1.14,2.64c-1.16,1.2-2.88,2.24-5.16,3.12-2.28.88-4.6,1.32-6.96,1.32-4.84,0-8.53-1.58-11.07-4.74ZM557.17,508.71c.12-.84.18-1.7.18-2.58-.04-2.6-.59-4.65-1.65-6.15-1.06-1.5-2.73-2.25-5.01-2.25s-4.17.84-5.55,2.52c-1.38,1.68-2.17,4.5-2.37,8.46h14.4Z"/>
    <path class="cls-4" d="M569.05,525.63l4.5-.36v-25.38l-4.32-1.08v-3.24l8.28-1.08h.12l1.32,1.08v1.08l-.18,4.68h.18c.4-.68,1.12-1.56,2.16-2.64,1.04-1.08,2.38-2.07,4.02-2.97,1.64-.9,3.42-1.35,5.34-1.35.8,0,1.46.1,1.98.3v6.72c-.28-.2-.73-.39-1.35-.57-.62-.18-1.31-.27-2.07-.27-3.32,0-6.4,1.02-9.24,3.06v21.6l7.62.48v2.88h-18.36v-2.94Z"/>
    <path class="cls-4" d="M593.65,495.27h13.92v2.82l-4.26.78,6.06,17.28,2.52,7.62,2.16-7.38,6.06-17.52-4.08-.78v-2.82h12.18v2.82l-3.12.78-11.58,30.18h-5.1l-12.06-30.18-2.7-.78v-2.82Z"/>
    <path class="cls-4" d="M634.18,524.49c-2.54-3.16-3.81-7.38-3.81-12.66,0-3.48.66-6.54,1.98-9.18s3.17-4.68,5.55-6.12c2.38-1.44,5.09-2.16,8.13-2.16,3.72,0,6.61,1.03,8.67,3.09,2.06,2.06,3.15,5.01,3.27,8.85,0,2.44-.14,4.3-.42,5.58h-20.64c.08,3.96,1,7.15,2.76,9.57,1.76,2.42,4.26,3.63,7.5,3.63,1.6,0,3.27-.29,5.01-.87,1.74-.58,3.09-1.27,4.05-2.07l1.14,2.64c-1.16,1.2-2.88,2.24-5.16,3.12-2.28.88-4.6,1.32-6.96,1.32-4.84,0-8.53-1.58-11.07-4.74ZM651.37,508.71c.12-.84.18-1.7.18-2.58-.04-2.6-.59-4.65-1.65-6.15-1.06-1.5-2.73-2.25-5.01-2.25s-4.17.84-5.55,2.52c-1.38,1.68-2.17,4.5-2.37,8.46h14.4Z"/>
    <path class="cls-4" d="M663.25,525.63l4.5-.36v-25.38l-4.32-1.08v-3.24l8.28-1.08h.12l1.32,1.08v1.08l-.18,4.68h.18c.4-.68,1.12-1.56,2.16-2.64,1.04-1.08,2.38-2.07,4.02-2.97,1.64-.9,3.42-1.35,5.34-1.35.8,0,1.46.1,1.98.3v6.72c-.28-.2-.73-.39-1.35-.57-.62-.18-1.31-.27-2.07-.27-3.32,0-6.4,1.02-9.24,3.06v21.6l7.62.48v2.88h-18.36v-2.94Z"/>
    <path class="cls-4" d="M694.29,524.49c-2.54-3.16-3.81-7.38-3.81-12.66,0-3.48.66-6.54,1.98-9.18s3.17-4.68,5.55-6.12c2.38-1.44,5.09-2.16,8.13-2.16,3.72,0,6.61,1.03,8.67,3.09,2.06,2.06,3.15,5.01,3.27,8.85,0,2.44-.14,4.3-.42,5.58h-20.64c.08,3.96,1,7.15,2.76,9.57,1.76,2.42,4.26,3.63,7.5,3.63,1.6,0,3.27-.29,5.01-.87,1.74-.58,3.09-1.27,4.05-2.07l1.14,2.64c-1.16,1.2-2.88,2.24-5.16,3.12-2.28.88-4.6,1.32-6.96,1.32-4.84,0-8.53-1.58-11.07-4.74ZM711.48,508.71c.12-.84.18-1.7.18-2.58-.04-2.6-.59-4.65-1.65-6.15-1.06-1.5-2.73-2.25-5.01-2.25s-4.17.84-5.55,2.52c-1.38,1.68-2.17,4.5-2.37,8.46h14.4Z"/>
    <path class="cls-4" d="M727.92,499.89l-4.56-1.08v-3.18l9.3-1.14h.12l1.38,1.08v29.58l4.8.48v2.94h-15.9v-2.94l4.86-.54v-25.2ZM727.44,488.19c-.64-.72-.96-1.64-.96-2.76,0-1.28.39-2.34,1.17-3.18.78-.84,1.85-1.26,3.21-1.26s2.36.36,3,1.08c.64.72.96,1.64.96,2.76,0,1.36-.39,2.44-1.17,3.24-.78.8-1.87,1.2-3.27,1.2h-.06c-1.28,0-2.24-.36-2.88-1.08Z"/>
    <path class="cls-4" d="M746.82,499.89l-4.32-1.08v-3.24l8.58-1.08h.18l1.26,1.08v2.52l-.06,1.44c1.44-1.28,3.34-2.44,5.7-3.48,2.36-1.04,4.62-1.56,6.78-1.56,2.52,0,4.47.48,5.85,1.44s2.35,2.43,2.91,4.41c.56,1.98.84,4.65.84,8.01v16.8l4.2.42v3h-14.22v-2.94l3.72-.48v-16.86c0-2.36-.16-4.21-.48-5.55-.32-1.34-.92-2.34-1.8-3-.88-.66-2.16-.99-3.84-.99-1.44,0-2.98.36-4.62,1.08-1.64.72-3.1,1.56-4.38,2.52v22.74l4.08.54v2.94h-14.16v-2.94l3.78-.54v-25.2Z"/>
    <path class="cls-4" d="M386.44,598.41c-2.82-1.88-4.95-4.53-6.39-7.95-1.44-3.42-2.16-7.39-2.16-11.91s.87-8.64,2.61-12.12,4.13-6.17,7.17-8.07c3.04-1.9,6.46-2.85,10.26-2.85,6.24,0,11.01,1.97,14.31,5.91,3.3,3.94,4.95,9.39,4.95,16.35,0,4.68-.89,8.79-2.67,12.33-1.78,3.54-4.22,6.28-7.32,8.22-3.1,1.94-6.57,2.91-10.41,2.91-4.08,0-7.53-.94-10.35-2.82ZM388.39,563.7c-2.24,3.38-3.36,8.33-3.36,14.85,0,6,1.09,10.75,3.27,14.25,2.18,3.5,5.23,5.25,9.15,5.25s6.89-1.74,9.15-5.22c2.26-3.48,3.39-8.48,3.39-15,0-6.04-1.08-10.75-3.24-14.13-2.16-3.38-5.22-5.07-9.18-5.07s-6.94,1.69-9.18,5.07Z"/>
    <path class="cls-4" d="M419.05,552.57l9.6-1.14h.12l1.38.9v18.06c1.2-1.16,2.63-2.12,4.29-2.88,1.66-.76,3.51-1.14,5.55-1.14,2.4,0,4.59.58,6.57,1.74s3.56,2.96,4.74,5.4c1.18,2.44,1.77,5.52,1.77,9.24,0,3.44-.71,6.56-2.13,9.36-1.42,2.8-3.45,5.02-6.09,6.66-2.64,1.64-5.7,2.46-9.18,2.46-2.76,0-5.28-.27-7.56-.81-2.28-.54-3.66-1.03-4.14-1.47v-43.2l-4.92-.66v-2.52ZM433.3,571.68c-1.3.7-2.35,1.49-3.15,2.37v22.08c.24.56.93,1.01,2.07,1.35,1.14.34,2.43.51,3.87.51,3.08,0,5.56-1.24,7.44-3.72,1.88-2.48,2.82-6.1,2.82-10.86,0-4.28-.82-7.48-2.46-9.6-1.64-2.12-3.76-3.18-6.36-3.18-1.52,0-2.93.35-4.23,1.05Z"/>
    <path class="cls-4" d="M461.98,596.49c-2.54-3.16-3.81-7.38-3.81-12.66,0-3.48.66-6.54,1.98-9.18s3.17-4.68,5.55-6.12c2.38-1.44,5.09-2.16,8.13-2.16,3.72,0,6.61,1.03,8.67,3.09,2.06,2.06,3.15,5.01,3.27,8.85,0,2.44-.14,4.3-.42,5.58h-20.64c.08,3.96,1,7.15,2.76,9.57,1.76,2.42,4.26,3.63,7.5,3.63,1.6,0,3.27-.29,5.01-.87,1.74-.58,3.09-1.27,4.05-2.07l1.14,2.64c-1.16,1.2-2.88,2.24-5.16,3.12-2.28.88-4.6,1.32-6.96,1.32-4.84,0-8.53-1.58-11.07-4.74ZM479.17,580.71c.12-.84.18-1.7.18-2.58-.04-2.6-.59-4.65-1.65-6.15-1.06-1.5-2.73-2.25-5.01-2.25s-4.17.84-5.55,2.52c-1.38,1.68-2.17,4.5-2.37,8.46h14.4Z"/>
    <path class="cls-4" d="M491.05,597.63l4.5-.36v-25.38l-4.32-1.08v-3.24l8.28-1.08h.12l1.32,1.08v1.08l-.18,4.68h.18c.4-.68,1.12-1.56,2.16-2.64,1.04-1.08,2.38-2.07,4.02-2.97,1.64-.9,3.42-1.35,5.34-1.35.8,0,1.46.1,1.98.3v6.72c-.28-.2-.73-.39-1.35-.57-.62-.18-1.31-.27-2.07-.27-3.32,0-6.4,1.02-9.24,3.06v21.6l7.62.48v2.88h-18.36v-2.94Z"/>
    <path class="cls-4" d="M522.1,596.49c-2.54-3.16-3.81-7.38-3.81-12.66,0-3.48.66-6.54,1.98-9.18s3.17-4.68,5.55-6.12c2.38-1.44,5.09-2.16,8.13-2.16,3.72,0,6.61,1.03,8.67,3.09,2.06,2.06,3.15,5.01,3.27,8.85,0,2.44-.14,4.3-.42,5.58h-20.64c.08,3.96,1,7.15,2.76,9.57,1.76,2.42,4.26,3.63,7.5,3.63,1.6,0,3.27-.29,5.01-.87,1.74-.58,3.09-1.27,4.05-2.07l1.14,2.64c-1.16,1.2-2.88,2.24-5.16,3.12-2.28.88-4.6,1.32-6.96,1.32-4.84,0-8.53-1.58-11.07-4.74ZM539.29,580.71c.12-.84.18-1.7.18-2.58-.04-2.6-.59-4.65-1.65-6.15-1.06-1.5-2.73-2.25-5.01-2.25s-4.17.84-5.55,2.52c-1.38,1.68-2.17,4.5-2.37,8.46h14.4Z"/>
    <path class="cls-4" d="M572.41,559.71l-6.54-.72v-3h15.9l8.46,27,1.98,7.62,1.8-7.62,8.4-27h15.78v3l-6.6.72,4.8,37.26,5.22.66v2.94h-17.28v-2.94l5.46-.6-2.7-26.94-1.26-11.58-2.52,8.64-10.02,31.38h-3.9l-9.72-28.74-3.54-11.34-1.08,11.64-2.4,26.94,5.94.6v2.94h-15.66v-2.94l5.1-.6,4.38-37.32Z"/>
    <path class="cls-4" d="M626.89,574.47c1.48-2.64,3.43-4.65,5.85-6.03,2.42-1.38,5.01-2.07,7.77-2.07,5.04,0,8.83,1.6,11.37,4.8,2.54,3.2,3.81,7.4,3.81,12.6,0,3.64-.74,6.78-2.22,9.42-1.48,2.64-3.43,4.64-5.85,6-2.42,1.36-5.01,2.04-7.77,2.04-5.04,0-8.83-1.6-11.37-4.8-2.54-3.2-3.81-7.4-3.81-12.6,0-3.6.74-6.72,2.22-9.36ZM646.57,594.39c1.48-2.28,2.22-5.66,2.22-10.14s-.68-7.96-2.04-10.56c-1.36-2.6-3.54-3.9-6.54-3.9-2.76,0-4.89,1.14-6.39,3.42-1.5,2.28-2.25,5.66-2.25,10.14s.7,7.96,2.1,10.56c1.4,2.6,3.58,3.9,6.54,3.9,2.76,0,4.88-1.14,6.36-3.42Z"/>
    <path class="cls-4" d="M663.37,574.47c1.48-2.64,3.43-4.65,5.85-6.03,2.42-1.38,5.01-2.07,7.77-2.07,5.04,0,8.83,1.6,11.37,4.8,2.54,3.2,3.81,7.4,3.81,12.6,0,3.64-.74,6.78-2.22,9.42-1.48,2.64-3.43,4.64-5.85,6-2.42,1.36-5.01,2.04-7.77,2.04-5.04,0-8.83-1.6-11.37-4.8-2.54-3.2-3.81-7.4-3.81-12.6,0-3.6.74-6.72,2.22-9.36ZM683.05,594.39c1.48-2.28,2.22-5.66,2.22-10.14s-.68-7.96-2.04-10.56c-1.36-2.6-3.54-3.9-6.54-3.9-2.76,0-4.89,1.14-6.39,3.42-1.5,2.28-2.25,5.66-2.25,10.14s.7,7.96,2.1,10.56c1.4,2.6,3.58,3.9,6.54,3.9,2.76,0,4.88-1.14,6.36-3.42Z"/>
    <path class="cls-4" d="M703.2,595.77c.4.6,1.25,1.14,2.55,1.62,1.3.48,2.67.72,4.11.72,2.28,0,3.96-.44,5.04-1.32,1.08-.88,1.62-2.1,1.62-3.66,0-1.08-.34-2.02-1.02-2.82-.68-.8-1.63-1.51-2.85-2.13-1.22-.62-2.97-1.37-5.25-2.25-3.08-1.16-5.33-2.55-6.75-4.17-1.42-1.62-2.13-3.75-2.13-6.39,0-1.76.53-3.3,1.59-4.62,1.06-1.32,2.52-2.35,4.38-3.09,1.86-.74,3.93-1.11,6.21-1.11,1.84,0,3.45.14,4.83.42,1.38.28,2.49.56,3.33.84.84.28,1.4.46,1.68.54v7.44h-3.66l-1.2-4.44c-.24-.48-.88-.89-1.92-1.23-1.04-.34-2.2-.51-3.48-.51-1.8,0-3.25.4-4.35,1.2-1.1.8-1.65,1.88-1.65,3.24,0,1.2.29,2.19.87,2.97.58.78,1.31,1.41,2.19,1.89.88.48,2.08,1.04,3.6,1.68l1.2.48c2.24.88,4.06,1.72,5.46,2.52,1.4.8,2.57,1.85,3.51,3.15.94,1.3,1.41,2.89,1.41,4.77,0,2.96-1.15,5.32-3.45,7.08-2.3,1.76-5.45,2.64-9.45,2.64-1.96,0-4.01-.27-6.15-.81-2.14-.54-3.89-1.09-5.25-1.65v-7.68h3.9l1.08,4.68Z"/>
    <path class="cls-4" d="M733.56,583.26c3.76-1.78,8.52-2.73,14.28-2.85v-1.68c0-1.88-.2-3.36-.6-4.44-.4-1.08-1.09-1.87-2.07-2.37-.98-.5-2.37-.75-4.17-.75-2.04,0-3.87.29-5.49.87-1.62.58-3.23,1.29-4.83,2.13l-1.5-3.12c.52-.44,1.48-1.02,2.88-1.74,1.4-.72,3.02-1.36,4.86-1.92,1.84-.56,3.68-.84,5.52-.84,2.84,0,5.09.39,6.75,1.17,1.66.78,2.85,2.03,3.57,3.75.72,1.72,1.08,4.02,1.08,6.9v19.26h3.54v2.64c-.8.2-1.81.4-3.03.6-1.22.2-2.29.3-3.21.3-1.12,0-1.88-.17-2.28-.51-.4-.34-.6-1.09-.6-2.25v-1.98c-1.2,1.2-2.67,2.3-4.41,3.3-1.74,1-3.71,1.5-5.91,1.5-2.88,0-5.27-.83-7.17-2.49-1.9-1.66-2.85-4.05-2.85-7.17,0-3.76,1.88-6.53,5.64-8.31ZM744.12,596.19c1.36-.64,2.6-1.4,3.72-2.28v-10.32c-4.36,0-7.65.67-9.87,2.01-2.22,1.34-3.33,3.09-3.33,5.25s.53,3.75,1.59,4.77c1.06,1.02,2.49,1.53,4.29,1.53,1.04,0,2.24-.32,3.6-.96Z"/>
    <path class="cls-4" d="M762.81,575.13c1.3-2.68,3.22-4.81,5.76-6.39,2.54-1.58,5.59-2.37,9.15-2.37,1.72,0,3.2.16,4.44.48,1.24.32,2.72.76,4.44,1.32l-.24,9.24h-3.9l-1.32-6.12c-.24-1.12-1.76-1.68-4.56-1.68s-5.01,1.13-6.63,3.39c-1.62,2.26-2.43,5.47-2.43,9.63,0,4.72.91,8.31,2.73,10.77,1.82,2.46,4.19,3.69,7.11,3.69,1.68,0,3.27-.26,4.77-.78,1.5-.52,2.79-1.14,3.87-1.86l1.14,2.4c-1.08,1.12-2.67,2.13-4.77,3.03-2.1.9-4.23,1.35-6.39,1.35-3.28,0-6.05-.74-8.31-2.22-2.26-1.48-3.96-3.51-5.1-6.09s-1.71-5.51-1.71-8.79.65-6.32,1.95-9Z"/>
    <path class="cls-4" d="M795.6,555.81l-5.04-.66v-2.58l9.78-1.14h.12l1.32.9v13.92l-.24,5.1c1.28-1.16,3.04-2.26,5.28-3.3,2.24-1.04,4.5-1.56,6.78-1.56,2.52,0,4.48.48,5.88,1.44,1.4.96,2.38,2.43,2.94,4.41.56,1.98.84,4.65.84,8.01v16.74l4.2.54v2.94h-14.34v-2.94l3.9-.54v-16.8c0-2.36-.16-4.21-.48-5.55-.32-1.34-.92-2.34-1.8-3-.88-.66-2.2-.99-3.96-.99-1.44,0-2.98.36-4.62,1.08-1.64.72-3.08,1.56-4.32,2.52v22.74l4.14.54v2.94h-13.98v-2.94l3.6-.48v-41.34Z"/>
  </g>
</svg>