<?xml version="1.0" encoding="UTF-8"?>
<svg id="Outline" xmlns="http://www.w3.org/2000/svg" viewBox="0 0 1080 1080">
  <defs>
    <style>
      .cls-1 {
        fill: #e24d3a;
      }

      .cls-2 {
        fill: #8c2f2a;
      }

      .cls-3 {
        fill: #8c2e2b;
      }

      .cls-4 {
        fill: #d6423e;
      }
    </style>
  </defs>
  <path class="cls-2" d="M493.16,528.39l-57.77,83.16c-.98.44-16.58-7.82-18.71-9.12-.79-.48-4.88-2.9-5.04-3.15-.33-.52.24-1.03.48-1.49l81.04-69.4Z"/>
  <path class="cls-2" d="M532.41,536.03l26.69,89.69c-.36.53-.7.71-1.33.81-4.99.8-12.36,1.38-17.46,1.63-6.42.31-12.92-.22-19.35,0l11.45-92.13Z"/>
  <path class="cls-2" d="M557.49,520.76l96.78,65.42c-.62,1.22-11,10-12.15,10.28-.45.11-.83.12-1.22-.17l-83.41-75.53Z"/>
  <path class="cls-3" d="M547.67,529.49s.15.89.54,1.34c21.71,25.05,40.36,54.49,61.83,79.94,2.61,2.47-2.61,3.81-4.7,4.46-3.77,1.18-7.34,2.49-11.09,3.63-2.73.83-7.84,2.45-10.48,2.66-.61.04-1.09.23-1.47-.44l-35.66-90.84c-.44-.93.75-1,1.03-.75Z"/>
  <path class="cls-3" d="M519.32,517.49l-22.96,108.97c-11.99-.18-23.69-3.57-35.36-5.93l.1-1.25,58.22-101.79Z"/>
  <path class="cls-4" d="M417.39,608.55l-132.45,157.85c-.97.43-11.05-8.45-12.56-9.83-8.39-7.71-17.7-17.55-24.75-26.5-2.92-3.71-9.53-12.02-11.35-15.91-.26-.55-.66-1.36-.33-1.95l159.67-117.6,21.77,13.94Z"/>
  <path class="cls-4" d="M538.98,731.46c.56,32.08-.53,64.14-.65,96.17-6,.73-12.17,1.79-18.19,2.25-31.02,2.41-63.96,1.43-94.68-3.42-9.84-1.56-19.55-3.92-29.31-5.86l80.72-190.74c.86-.74,14.2,1.85,16.57,2.11,13.67,1.52,27.39,1.9,41.16,1.64l2.2,31.33c.17,22.2,1.79,44.42,2.18,66.52Z"/>
  <path class="cls-4" d="M786.35,710.29l-.63,1.67c-11.81,10.5-23.54,21.09-36.18,30.6-17.57,13.22-36.32,24.77-55.5,35.48l-88.59-157.22c17.88-6.38,34.72-15.28,49.35-27.42l20.2,17.55,111.35,99.34Z"/>
  <path class="cls-1" d="M471.9,628.17l-81.21,190.01c-1.07.67-4.1-.23-5.46-.55-6.97-1.66-15.81-4.86-22.64-7.35-26.17-9.53-50.7-23.09-73.19-39.37l.41-2.39,131.97-156.46c.72-.45,1.35-.1,2.05.1,2.73.77,7.43,3.59,10.48,4.81,12.14,4.87,24.67,8.95,37.59,11.2Z"/>
  <path class="cls-1" d="M600.45,622.81l87.8,157.63c-.23.9-6.87,4.11-8.29,4.83-35.78,18.15-91.7,37.14-131.53,41.28-1.52.16-3.05.05-4.57.07-.42-28.27.96-56.53.57-84.8-.35-25.49-1.53-51.36-2.74-76.86-.51-10.64-1.18-21.26-1.65-31.89,16.15-.55,32.13-3.21,47.77-7.02,1.93-.46,11.85-3.72,12.64-3.24Z"/>
  <path class="cls-1" d="M833.62,654.32c.56.58,0,.94-.26,1.41-.99,1.81-3.2,4.55-4.5,6.41-9.98,14.17-21.57,27.29-33.49,39.83-.82.87-3.49,4.51-4.37,4.66l-3.18-2.15-128.43-114.19-.27-1.38c4.22-4.25,7.93-8.93,11.21-13.92l163.29,79.33Z"/>
  <path d="M871.36,376.09c.15,1.56-1.76,3.06-3.3,2.82-2-.31-14.73-9.07-15.66-8.08l2.73,27.54c-2.45,8.52-1.99,17.62-4.09,26.43-4.37,18.3-12.62,17.79-28.23,11.87-13.13-4.98-18.42-7.96-16.61-23.45.64-5.43,3.2-10.4,4.61-15.56,2.81-10.22,2.23-19.84,4.12-30.23.47-2.56,2.62-8.43,2.56-10.55-.03-.83-.53-1.17-1.22-1.44-56.62-19.49-116.53-27.9-176.22-31.53-2.32-.03-2.49,2.4-3.77,3.87-5.27,6.03-21.04,6.72-28.89,7.09-13.99.65-31.87,1.04-44.82-4.29-3.81-1.57-9.15-5.87-13.17-4.64-10.92,3.34,7.62,19.06,11.1,21.98,14.81,12.42,36.57,23.54,42.8,43.33,5.48,17.43-12.66,41.71-31.23,39.41-7.87-.98-15.63-8.9-20.46,2.17-4.11,9.44,1.65,12.03,3.77,20.53,1.73,6.93.71,12.77-4.97,17.52-5.33,4.45-11.75,4.34-12.95,12.67-.33,2.3-.06,4.63-.14,6.94-.06,1.69-1.48,3.18.33,4.59,1.03.8,5.79,2.63,7.48,3.42,105.27,49.13,212.81,93.64,318.28,142.36,2.52,1.04,3.14,2.15,2.47,4.88-1.05,4.26-9.78,18.85-12.5,23.48-106.11,180.38-374.04,257.64-552.05,137.45-41.41-27.96-63.87-56.34-90.09-97.99-1.75-2.79-4.55-3.5-.63-6.83l311.48-206.41c.45-.47.46-1.04.54-1.64.69-5.27.42-14.44-2.31-19.01-5.13-8.6-9.45-9.4-10.28-21.34-1.03-14.88,1.84-34.75,2.75-50.18,1.32-22.17,3.65-44.42,4.9-66.52.23-4.07-.16-8.2.01-12.27l-19.36,1.09c-5.66.6-18.73,14.02-24.63,17.89-11.9,7.81-25.19,9.51-38.85,5.27-4.07-1.27-8.54-3.96-12.53-4.92-6.08-1.47-12.68-.41-17.71-5.11-40.11,8.76-81.59,19.05-118.43,37.48-1.29.65-8.63,4.42-8.72,5.27.47,1.75,1.29,3.42,1.74,5.18,3.15,12.22,3.14,20.99,4.66,32.96.77,6.08,4.52,13.14,5.8,19.28,1.52,7.26,2.74,16.91-3.92,21.92-3.66,2.74-18.45,8.65-22.94,9.22-21.07,2.68-17.06-27.7-20.97-40.54l1.65-24.84c-2.81,1.41-7.04,9.45-10.67,6.59-3.31-2.6,4.59-9.05,6.58-10.97,1.51-1.45,4.18-2.8,5.34-4.47,1.39-1.98,2.08-6.23,3.2-8.79,3.37-7.72,10.77-17.06,20.23-15.48,3.59.59,5.27,4.64,7.64,4.15,40.35-21.22,84.92-33.21,129.5-42.27,8.17-7.36,18.57-5.6,28.7-5.09l41.17-5.72c2.11-.99,7.45-22.73,8.85-26.59,4.26-11.77,10.43-20.74,21.31-27.21,4.56-2.71,13.7-7.73,18.92-6.77,10.2,1.89,22.84,25.88,30.82,33.8,11.65,11.58,18.03,9.46,33.04,12.49,9.08,1.84,18,4.34,27.04,6.21,25.1,5.19,50.15,5.46,75.54,8.41,40.32,4.69,80.56,12.64,119.29,24.62,1.74.54,8.67,3.53,9.7,2.88.44-.28,2.43-4.49,3.6-5.7,9.04-9.3,20.68,2.57,24.84,11.02,1.03,2.07,1.6,4.89,2.51,6.76,1.35,2.75,7.97,4.97,10.85,6.6,2.02,1.15,9.69,5.06,9.87,6.99ZM843.14,386.9l5.98,4.1c-1.12-7.77-.44-15.99-3-23.43l-20.96-9.02c-.7-.2-2.13-.55-2.68-.2-1.14.74-4.64,23.55-4.42,26.65,8.31-3.63,17.34-2.52,25.08,1.9ZM824.6,352.57l19.62,7.9c-2.42-8.04-14.32-21.35-19.62-7.9ZM835.77,406.86c9.57-.08,15.87-6.08,7.1-13.69-4.8-4.17-12.19-5.81-18.42-4.77-2.97.5-6.69,2.98-6.92,6.21-.52,7.52,12.18,12.3,18.24,12.25ZM833.36,655.73c.26-.47.82-.83.26-1.41l-163.29-79.33c-3.28,4.99-6.99,9.67-11.21,13.92l.27,1.38,128.43,114.19,3.18,2.15c.88-.15,3.55-3.79,4.37-4.66,11.92-12.54,23.51-25.66,33.49-39.83,1.3-1.86,3.51-4.6,4.5-6.41ZM785.72,711.96l.63-1.67-111.35-99.34-20.2-17.55c-14.63,12.14-31.47,21.04-49.35,27.42l88.59,157.22c19.18-10.71,37.93-22.26,55.5-35.48,12.64-9.51,24.37-20.1,36.18-30.6ZM688.25,780.44l-87.8-157.63c-.79-.48-10.71,2.78-12.64,3.24-15.64,3.81-31.62,6.47-47.77,7.02.47,10.63,1.14,21.25,1.65,31.89,1.21,25.5,2.39,51.37,2.74,76.86.39,28.27-.99,56.53-.57,84.8,1.52-.02,3.05.09,4.57-.07,39.83-4.14,95.75-23.13,131.53-41.28,1.42-.72,8.06-3.93,8.29-4.83ZM654.27,586.18l-96.78-65.42,83.41,75.53c.39.29.77.28,1.22.17,1.15-.28,11.53-9.06,12.15-10.28ZM605.34,615.23c2.09-.65,7.31-1.99,4.7-4.46-21.47-25.45-40.12-54.89-61.83-79.94-.39-.45-.49-1.3-.54-1.34-.28-.25-1.47-.18-1.03.75l35.66,90.84c.38.67.86.48,1.47.44,2.64-.21,7.75-1.83,10.48-2.66,3.75-1.14,7.32-2.45,11.09-3.63ZM559.1,625.72l-26.69-89.69-11.45,92.13c6.43-.22,12.93.31,19.35,0,5.1-.25,12.47-.83,17.46-1.63.63-.1.97-.28,1.33-.81ZM551.94,402.08c2.86-6.35,12.18-9.42,6.54-17.25l-12.43-15.64c-.11,2.08.13,4.19-.01,6.27-.78,10.87-3.48,21.8-3.84,32.69-.15,4.68-1.15,9.46,5.25,6.88,3.12-1.26,2.8-9.21,4.49-12.95ZM538.33,827.63c.12-32.03,1.21-64.09.65-96.17-.39-22.1-2.01-44.32-2.18-66.52l-2.2-31.33c-13.77.26-27.49-.12-41.16-1.64-2.37-.26-15.71-2.85-16.57-2.11l-80.72,190.74c9.76,1.94,19.47,4.3,29.31,5.86,30.72,4.85,63.66,5.83,94.68,3.42,6.02-.46,12.19-1.52,18.19-2.25ZM496.36,626.46l22.96-108.97-58.22,101.79-.1,1.25c11.67,2.36,23.37,5.75,35.36,5.93ZM511.9,319.5c.82-.1,3.29-.25,3.61-1-2.66-1.04-5.64-.31-8.17.8.97.95,3.31.36,4.56.2ZM435.39,611.55l57.77-83.16-81.04,69.4c-.24.46-.81.97-.48,1.49.16.25,4.25,2.67,5.04,3.15,2.13,1.3,17.73,9.56,18.71,9.12ZM464.51,334.81c1.84-.29,8.81-4.9,7.39-6.51-1.93.77-23.42,2.36-23.42,3.55.01.45,7.69,2.73,8.56,2.86,1.84.29,5.67.38,7.47.1ZM390.69,818.18l81.21-190.01c-12.92-2.25-25.45-6.33-37.59-11.2-3.05-1.22-7.75-4.04-10.48-4.81-.7-.2-1.33-.55-2.05-.1l-131.97,156.46-.41,2.39c22.49,16.28,47.02,29.84,73.19,39.37,6.83,2.49,15.67,5.69,22.64,7.35,1.36.32,4.39,1.22,5.46.55ZM284.94,766.4l132.45-157.85-21.77-13.94-159.67,117.6c-.33.59.07,1.4.33,1.95,1.82,3.89,8.43,12.2,11.35,15.91,7.05,8.95,16.36,18.79,24.75,26.5,1.51,1.38,11.59,10.26,12.56,9.83ZM277.04,429.72c6.22-7.95-2.22-12.21-9.65-11.86-5.43.26-11.94,2.68-15.44,6.94-2.82,3.42-3.73,6.59.25,9.57,6.29,4.71,20.08,1.43,24.84-4.65ZM278.39,414.44c-.07-10.42-2.62-20.59-5.46-30.53-.6-.52-8.18,4.22-9.43,5.01-2.26,1.44-12.52,8.36-13.39,10.05-1.49,7.21-2.19,14.65-2.24,22.02,8.32-7.92,19.62-10.13,30.52-6.55ZM268.43,379.68c.47-.39,1.43-.62,1.23-1.48-.15-.68-3.31-1.88-4.09-1.86-4.68.1-11.6,8.64-12.8,13.02,4.48-3.33,11.54-6.25,15.66-9.68Z"/>
  <path d="M527.81,239.96c1.5,10.17-8.6,15.32-17.47,14.73-3.17-.21-8.7-2.48-11.2-1.96-4.38.91-6.34,9.13-13.38,10.1-15.8,2.17-19.26-22.55-4.03-28.02,1.17-.42,4.83-.8,5.2-1.33.41-.59.25-3.1.59-4.33,1.82-6.67,6.48-12.59,13.69-13.56,12.33-1.67,24.95,13.13,26.6,24.37Z"/>
</svg>