<?xml version="1.0" encoding="UTF-8"?>
<svg id="Outline" xmlns="http://www.w3.org/2000/svg" viewBox="0 0 1080 1080">
  <path d="M555.09,295.82c11.65,11.57,18.03,9.46,33.03,12.49,9.09,1.84,18,4.34,27.04,6.21,25.1,5.19,50.16,5.46,75.54,8.41,40.32,4.69,80.56,12.64,119.29,24.62,1.74.54,8.67,3.53,9.7,2.88.44-.28,2.42-4.49,3.6-5.7,9.03-9.3,20.68,2.58,24.84,11.02,1.02,2.07,1.6,4.9,2.51,6.76,1.35,2.75,7.97,4.97,10.84,6.6,2.02,1.15,9.69,5.06,9.87,6.99.15,1.56-1.76,3.06-3.3,2.82-2.01-.31-14.73-9.08-15.66-8.08l2.73,27.53c-2.45,8.52-1.99,17.62-4.09,26.44-4.36,18.3-12.62,17.79-28.22,11.87-13.13-4.98-18.43-7.96-16.61-23.45.64-5.43,3.2-10.4,4.61-15.56,2.8-10.22,2.23-19.84,4.12-30.23.47-2.57,2.62-8.43,2.55-10.55-.02-.84-.52-1.17-1.22-1.44-56.61-19.49-116.53-27.9-176.22-31.53-2.31-.03-2.49,2.4-3.77,3.86-5.27,6.03-21.04,6.72-28.89,7.09-13.98.66-31.87,1.04-44.82-4.29-3.81-1.57-9.15-5.88-13.16-4.65-10.92,3.34,7.62,19.06,11.1,21.98,14.81,12.42,36.57,23.54,42.8,43.33,5.48,17.43-12.66,41.71-31.23,39.41-7.88-.98-15.63-8.9-20.46,2.17-4.12,9.44,1.64,12.03,3.76,20.53,1.73,6.93.72,12.77-4.97,17.52-5.33,4.45-11.75,4.34-12.95,12.68-.33,2.3-.07,4.63-.15,6.94-.06,1.69-1.47,3.18.33,4.59,1.03.81,5.79,2.63,7.48,3.42,105.28,49.13,212.81,93.64,318.28,142.36,2.52,1.04,3.14,2.15,2.47,4.88-1.05,4.26-9.77,18.86-12.5,23.48-106.12,180.38-374.05,257.63-552.05,137.45-41.41-27.96-63.87-56.34-90.09-97.99-1.76-2.79-4.55-3.49-.64-6.83l311.49-206.41c.45-.47.46-1.05.53-1.65.69-5.27.43-14.44-2.31-19.01-5.14-8.6-9.45-9.4-10.28-21.34-1.03-14.88,1.84-34.74,2.75-50.18,1.31-22.18,3.64-44.43,4.89-66.53.23-4.06-.16-8.2,0-12.26l-19.36,1.09c-5.66.6-18.73,14.02-24.63,17.89-11.9,7.81-25.18,9.51-38.85,5.26-4.07-1.26-8.54-3.96-12.52-4.92-6.08-1.47-12.68-.41-17.71-5.11-40.11,8.77-81.59,19.06-118.43,37.48-1.29.65-8.63,4.42-8.72,5.26.47,1.75,1.29,3.43,1.74,5.18,3.14,12.22,3.14,20.99,4.66,32.96.77,6.07,4.52,13.14,5.8,19.27,1.52,7.26,2.74,16.92-3.93,21.92-3.66,2.74-18.45,8.65-22.94,9.22-21.07,2.68-17.05-27.7-20.97-40.54l1.66-24.84c-2.82,1.41-7.04,9.45-10.68,6.59-3.31-2.6,4.59-9.05,6.58-10.97,1.51-1.45,4.18-2.81,5.34-4.47,1.39-1.99,2.08-6.24,3.2-8.79,3.37-7.72,10.77-17.06,20.24-15.48,3.58.6,5.27,4.65,7.63,4.15,40.36-21.22,84.93-33.2,129.5-42.27,8.18-7.36,18.57-5.6,28.71-5.09l41.16-5.71c2.11-.99,7.45-22.73,8.85-26.59,4.27-11.77,10.43-20.74,21.31-27.21,4.56-2.71,13.71-7.73,18.92-6.77,10.2,1.88,22.85,25.87,30.83,33.8ZM515.51,318.5c-2.66-1.04-5.64-.31-8.17.81.97.95,3.31.36,4.56.2.82-.1,3.3-.25,3.61-1.01ZM471.91,328.31c-1.93.77-23.47,2.36-23.43,3.54.02.45,7.69,2.73,8.57,2.87,1.84.29,5.66.38,7.47.1,1.83-.29,8.8-4.9,7.39-6.51ZM844.22,360.47c-2.42-8.03-14.31-21.35-19.61-7.9l19.61,7.9ZM849.13,391c-1.12-7.77-.44-15.98-3.01-23.43l-20.96-9.02c-.69-.2-2.13-.55-2.68-.2-1.14.74-4.64,23.55-4.42,26.65,8.31-3.63,17.34-2.53,25.08,1.9l5.98,4.1ZM546.05,369.19c-.11,2.07.14,4.19-.01,6.26-.77,10.87-3.48,21.8-3.83,32.7-.15,4.68-1.16,9.46,5.24,6.88,3.12-1.26,2.8-9.22,4.49-12.95,2.86-6.35,12.18-9.42,6.54-17.25l-12.43-15.64ZM252.78,389.37c4.48-3.33,11.54-6.26,15.66-9.69.47-.39,1.43-.62,1.23-1.48-.15-.68-3.32-1.87-4.1-1.86-4.68.1-11.59,8.64-12.79,13.03ZM272.94,383.91c-.6-.53-8.18,4.22-9.43,5.01-2.26,1.43-12.52,8.36-13.39,10.05-1.49,7.21-2.19,14.65-2.24,22.01,8.32-7.92,19.63-10.13,30.52-6.54-.06-10.42-2.61-20.6-5.45-30.53ZM824.46,388.41c-2.98.5-6.7,2.97-6.92,6.21-.52,7.52,12.18,12.3,18.24,12.25,9.58-.08,15.87-6.08,7.1-13.69-4.8-4.17-12.19-5.81-18.42-4.76ZM267.39,417.86c-5.43.26-11.94,2.68-15.44,6.94-2.81,3.42-3.72,6.59.25,9.57,6.29,4.71,20.08,1.44,24.84-4.65,6.22-7.95-2.22-12.21-9.65-11.86ZM496.37,626.46l22.96-108.97-58.22,101.79-.1,1.25c11.67,2.36,23.37,5.75,35.36,5.93ZM557.49,520.77l83.42,75.53c.39.29.76.28,1.21.17,1.15-.28,11.53-9.07,12.16-10.28l-96.79-65.42ZM412.12,597.79c-.23.46-.8.97-.48,1.49.16.25,4.25,2.67,5.04,3.15,2.13,1.3,17.73,9.55,18.71,9.12l57.77-83.16-81.04,69.4ZM547.67,529.49c-.28-.25-1.46-.17-1.03.75l35.66,90.84c.38.68.86.49,1.47.44,2.64-.21,7.75-1.82,10.49-2.65,3.74-1.14,7.32-2.46,11.09-3.63,2.09-.65,7.31-1.99,4.7-4.47-21.47-25.45-40.12-54.89-61.83-79.94-.39-.45-.49-1.29-.55-1.34ZM520.97,628.17c6.42-.23,12.93.31,19.35,0,5.1-.25,12.47-.82,17.45-1.63.64-.1.97-.28,1.34-.82l-26.7-89.69-11.44,92.14ZM795.37,701.97c11.92-12.54,23.51-25.66,33.49-39.83,1.31-1.85,3.51-4.59,4.51-6.41.26-.47.81-.83.26-1.41l-163.29-79.32c-3.28,4.99-6.99,9.67-11.21,13.92l.27,1.38,128.42,114.19,3.18,2.16c.89-.15,3.55-3.8,4.37-4.66ZM675.01,610.95l-20.2-17.55c-14.63,12.14-31.47,21.04-49.35,27.42l88.59,157.22c19.19-10.72,37.94-22.26,55.51-35.48,12.63-9.51,24.36-20.1,36.18-30.59l.63-1.67-111.34-99.35ZM417.4,608.55l-21.78-13.94-159.67,117.61c-.33.58.07,1.39.33,1.95,1.82,3.89,8.42,12.2,11.35,15.91,7.05,8.94,16.36,18.79,24.75,26.49,1.51,1.39,11.59,10.26,12.56,9.83l132.45-157.85ZM471.91,628.17c-12.92-2.25-25.46-6.32-37.6-11.2-3.05-1.22-7.75-4.04-10.48-4.81-.7-.2-1.33-.55-2.05-.1l-131.97,156.46-.41,2.39c22.5,16.28,47.02,29.84,73.19,39.37,6.83,2.49,15.67,5.69,22.64,7.34,1.37.32,4.39,1.22,5.47.56l81.21-190.02ZM600.46,622.81c-.8-.47-10.72,2.78-12.64,3.25-15.64,3.81-31.63,6.46-47.77,7.01.47,10.63,1.14,21.25,1.64,31.89,1.21,25.5,2.39,51.37,2.74,76.86.39,28.28-.99,56.53-.57,84.8,1.52-.02,3.05.09,4.57-.07,39.83-4.14,95.75-23.13,131.53-41.28,1.42-.72,8.07-3.93,8.29-4.83l-87.8-157.64ZM534.6,633.61c-13.76.26-27.48-.12-41.15-1.64-2.38-.26-15.71-2.86-16.57-2.11l-80.72,190.73c9.75,1.94,19.46,4.31,29.3,5.86,30.72,4.86,63.66,5.83,94.69,3.42,6.02-.47,12.19-1.52,18.19-2.25.11-32.03,1.2-64.09.64-96.17-.39-22.09-2-44.32-2.18-66.51l-2.2-31.33Z"/>
  <path d="M501.21,215.59c12.33-1.67,24.95,13.13,26.6,24.37,1.5,10.17-8.6,15.32-17.47,14.73-3.18-.21-8.71-2.48-11.2-1.96-4.38.91-6.34,9.13-13.38,10.1-15.8,2.18-19.26-22.55-4.03-28.02,1.17-.42,4.83-.8,5.2-1.34.41-.58.25-3.09.58-4.32,1.82-6.67,6.48-12.59,13.69-13.57Z"/>
</svg>