<?xml version="1.0" encoding="UTF-8"?>
<svg id="Outline" xmlns="http://www.w3.org/2000/svg" viewBox="0 0 1080 1080">
  <defs>
    <style>
      .cls-1, .cls-2 {
        stroke-linecap: round;
      }

      .cls-1, .cls-2, .cls-3 {
        stroke: #000;
        stroke-miterlimit: 10;
        stroke-width: 6px;
      }

      .cls-2, .cls-3 {
        fill: none;
      }
    </style>
  </defs>
  <path class="cls-3" d="M403.88,144.35c10.44,9.82,26.97,24.45,48.86,40.07,42.31,30.19,58.13,30.84,83.07,51.8,9.35,7.86,45.02,38.68,57.66,90.89,2.42,10,16.67,73.26-22.48,128.02-14.14,19.79-33.66,37.42-45.02,44.47"/>
  <path class="cls-3" d="M635.5,148.26c3.74,11.02,9.57,27.41,17.59,46.91,18.92,46.02,30.66,62.39,38.11,80.14,28.86,68.72-10.19,149.56-21.5,172.98-27.27,56.47-71.48,93.19-94.74,109.64"/>
  <path class="cls-3" d="M564.34,539.51c19.06-13.01,44.84-32.56,67.25-55.06,19.73-19.81,35.32-39.25,47.46-56.44"/>
  <path class="cls-3" d="M507.29,486.52c8.52-6.2,20.74-16.44,31.82-26.75,3.04-2.83,15.2-14.26,29.44-31.27,8.25-9.86,17.9-22.43,27.73-37.75"/>
  <path class="cls-3" d="M401.93,455.62c7.57,4.96,14.05,3.02,25.9,3.91,7.02.52,13.8,2.47,27.36,6.35,4.68,1.34,6.42,1.98,46.42,18.08,10.95,4.41,16.52,6.71,21.01,11.24,4.25,4.29,5.68,7.9,11.24,10.75,6.22,3.19,9.19,1.13,14.17,3.42,7.27,3.35,9.27,11.58,12.7,21.01,6.81,18.71,11.55,20.95,16.13,32.74,7.36,18.98,10.83,53.77-5.86,79.65-18.45,28.6-53.6,34-89.91,39.58-30.24,4.64-54.49,1.65-71.83-.49-30.82-3.8-46.23-5.7-57.17-14.17-17.87-13.82-20.87-45.37-26.87-108.48-1.35-14.16-3.08-37.47,6.84-56.19,8.36-15.78,19.55-23.94,19.55-23.94,5.12-3.74,6.12-3.12,10.26-6.84,10-8.99,8.96-16.9,17.59-21.01.68-.32,6.02-2.79,12.22-1.47,4.8,1.02,6.84,3.62,10.26,5.86Z"/>
  <path class="cls-2" d="M527.02,780.07c6.61-6.07,15.61-13.8,26.87-21.99,6.78-4.93,23.7-17.13,44.47-26.88,27.07-12.7,49.69-16.08,77.69-20.03,28.15-3.97,85.27-9.34,87.96,1.47.54,2.16-1.38,3.84-6.84,10.26-8.52,10.03-15.29,21.44-23.45,31.76-4.9,6.2-11.08,15.33-51.8,102.13,0,0-6.19,13.2-17.1,54.73-.92,3.49-2.79,10.85-.98,11.73,1.72.84,5.9-4.63,7.33-6.35,11.65-13.99,41.82-20.28,66.45-16.61,23.08,3.43,49.85,16.87,48.38,24.43-2.09,10.71-61.07,11.14-109.61,1.34-5.1-1.03-9.39-2.03-12.55-2.81"/>
  <path class="cls-2" d="M542.66,748.31c-3.77,2.49-9.32,6.09-16.12,10.26-21.55,13.2-32.33,19.79-43.49,23.94-29.61,11.01-58.15,5.1-73.3,1.95-13.65-2.83-24.62-6.94-32.25-10.26"/>
  <path class="cls-2" d="M548.03,794.73c-3.39,8.83-11.48,26.25-29.32,41.05-16.11,13.37-32.3,18.07-38.11,19.55-9.44,2.4-17.63,2.93-23.45,2.93"/>
  <path class="cls-2" d="M576.37,815.74c1.27,4.77,4.28,18.63-1.95,34.2-8.08,20.18-25.67,28.23-29.32,29.81"/>
  <path class="cls-2" d="M621.33,861.19c-4.53,2.79-9.57,5.61-15.15,8.31-9.7,4.69-18.83,7.95-26.87,10.26"/>
  <path class="cls-2" d="M414.63,832.84c-9.29-4.69-23.29-11.09-41.05-16.61-6.57-2.04-50.58-15.73-54.73-7.33-2.69,5.44,12.41,17.96,21.99,25.9,9.54,7.91,30.64,24.12,78.18,46.91,1.46.7,24.75,11.86,44.57,32.73,3.94,4.15,8.21,9.18,6.74,12.71-2.25,5.4-16.33,3.59-29.32,2.93-49.21-2.48-74.23,12.04-79.65,1.95-3.17-5.9,2.93-15.48,7.33-20.03,5.25-5.42,12.71-8.46,25.9-9.28,25.4-1.59,55.68,7.26,71.11,14.45"/>
  <path class="cls-2" d="M379.45,783c-16.11,1.82-34.26,5.07-53.75,10.75-28.44,8.28-31.79,12.83-31.76,15.64.04,3.71,5.87,7.08,12.22,10.75,3.07,1.78,6.39,4.69,14.17,6.35,4.57.98,9.86.49,12.17,1.39"/>
  <path class="cls-1" d="M537.04,595.12c-1.24-5.33-8.69-9.71-15.39-9.04-8.75.87-13.48,10.05-14.9,15.64-.15.58-2.84,11.84,4.4,19.55,3.48,3.7,9.83,7.2,13.68,5.13,1.08-.58,2.2-3.25,4.4-8.55,3.59-8.67,3.94-9.57,4.64-11.48,2.36-6.47,3.53-9.73,3.18-11.24Z"/>
  <path class="cls-1" d="M363.57,520.12c-4.15,1.22-5.87,5.13-8.55,11.24-2.83,6.45-5.25,11.93-2.44,16.37,2.05,3.24,6.15,4.75,9.53,4.64,6.84-.22,10.7-7.08,12.22-9.77,1.37-2.43,6.24-11.08,1.71-17.59-2.61-3.74-7.93-6.22-12.46-4.89Z"/>
  <path class="cls-2" d="M492.51,517.25c3.87-2.53,9.01-5.34,15.39-7.51,10.91-3.71,20.55-3.89,26.75-3.48"/>
  <path class="cls-2" d="M560.13,566.9c1.21-4.54,2.32-9.96,2.93-16.12.56-5.67.59-10.8.37-15.21"/>
  <path class="cls-2" d="M406.57,483.35c-.27-4.37-1.15-10.77-4.03-17.96-2.79-6.96-6.41-12.08-9.16-15.39"/>
  <path class="cls-3" d="M358.2,474.55c1.94-.45,6.75-1.51,12.09.37,7.54,2.66,11.2,9.44,12.83,12.46,9.59,17.78.72,41.45-2.57,50.21-4.11,10.96-14.61,38.99-31.15,39.21-8.53.11-16.01-7.21-16.86-8.06-2.34-2.35-5.83-6.71-8.06-16.13-5.37-22.65,3.89-43.48,6.6-49.11,3.99-8.3,12.24-25.48,27.12-28.95Z"/>
  <path class="cls-2" d="M464.35,642.7c-4.46-4.15-15.75-15.79-18.57-34.02-3.54-22.9,8.76-40.22,14.29-48.01,3.83-5.4,14.77-20.35,34.82-27.12,8.34-2.81,22.07-7.45,32.25-.73,10.13,6.68,10.83,20.7,11.73,38.48.18,3.56,1.08,26.98-11,51.67-4.85,9.91-8.68,13.66-13.19,15.39-7.36,2.82-13.18-1.05-21.26-2.2-8.19-1.17-20.28.24-36.65,12.46"/>
  <path class="cls-2" d="M445.17,684.42c4.4-1.9,12.38-5.82,18.69-12.22,3.11-3.15,4.56-5.63,5.38-8.18.99-3.1.92-5.85.73-7.57"/>
  <path class="cls-2" d="M361.98,610.51c4.79,2.12,10.43,5.07,16.37,9.16,6.46,4.45,11.54,9.07,15.39,13.07"/>
  <path class="cls-2" d="M365.53,602.33c5.13.97,11.34,2.62,18.08,5.5,10.01,4.28,17.51,9.69,22.6,14.05"/>
  <path class="cls-2" d="M547.3,665.12c1.76,12.25,5.57,28.87,14.29,46.91,5.48,11.33,11.62,20.59,17.22,27.85"/>
  <path class="cls-2" d="M535.57,669.52c-1.8,13.88-2.71,32.75.73,54.61,2.4,15.2,6.32,28.15,10.26,38.48"/>
  <path class="cls-2" d="M560.86,795.22c7.37,11.26,17.07,24.07,29.68,37.02,20.04,20.57,40.44,34.29,56.44,43.24"/>
  <path class="cls-2" d="M599.34,791.92c1.27,2.23,21.07,36.96,22.36,39.21,1.62,2.84,23.65,41.46,25.29,44.34"/>
  <path class="cls-2" d="M387.52,679.41c-5.68,13.93-13.38,37.91-12.46,68.17.43,14.22.98,32.18,10.51,51.55,14.26,29,39.46,42.48,66.94,57.17,12.46,6.67,36.04,19,68.9,23.21,7.88,1.01,15.16,1.41,44.95.49,19.47-.6,47.26-2.33,80.49-4.57"/>
  <path class="cls-2" d="M525.56,780.07c-.37,1.24-.78,3.29,0,5.38,1.28,3.45,5.14,5.22,9.28,6.35,24.73,6.78,42.51,3.42,42.51,3.42,21.05-3.98,44.39-8.39,70.36-26.39,25.9-17.95,27.05-30.44,53.75-42.02,9.35-4.05,28.09-12.18,35.67-4.4,5.87,6.02,3.73,20.19-4.89,34.69"/>
  <path class="cls-2" d="M513.34,707.75c-9.56,2.34-7.4,21.27-17.1,54.24-4.42,15.01-7.38,30.42-11.73,45.44-1.32,4.56-2.55,8.66-.98,9.77,3.64,2.58,20.99-11.62,31.27-29.32,9.48-16.32,10.43-31.24,11.24-43.98.66-10.47,2-31.57-7.33-35.67-.42-.18-2.7-1.14-5.37-.49Z"/>
  <path class="cls-2" d="M373.1,747.33c-12.12-2.54-20.21-6.78-25.41-10.26-4.41-2.95-10.87-8.1-20.81-9.47-1.91-.26-3.47-.48-5.57-.3-9.36.78-18.67,8.35-21.5,18.08-2.85,9.82.92,21.77,5.37,22.48,3.75.59,8.3-6.73,10.26-11.24,3.28-7.55,2.24-14.04,3.42-14.17,1.81-.19,4.11,15.28,5.86,15.15.97-.07,1.67-15.95,1.89-30.04"/>
  <path class="cls-2" d="M446.34,736.95c-9.21,16.13-24.87,31.57-30.72,29.44-5.97-2.17-7.77-17.08-2.93-27.85,4.16-9.27,14.93-19.21,23.45-16.12,3.24,1.17,4.99,4.16,8.31,10.26,14.12,26,14.54,27,14.54,27,5.92,14.26,16.39,36.84,23.64,54.85"/>
  <path class="cls-2" d="M405.6,874.99c4.52-.51,9.25-.92,14.17-1.22,7-.42,13.65-.56,19.91-.49"/>
  <path class="cls-2" d="M430.15,887.57c3.53-.47,7.37-.82,11.48-.98,6.06-.23,11.6.01,16.49.49"/>
  <path class="cls-2" d="M447.98,900.03c3.4-.76,7.72-1.4,12.7-1.34,7.87.08,14.26,1.84,18.57,3.42"/>
  <path class="cls-2" d="M670.8,890.26c6.07-.17,12.52-.16,19.3.12,9.07.37,17.52,1.16,25.29,2.2"/>
  <path class="cls-2" d="M678.26,866.93c5.53-.29,11.67-.31,18.32.12,9.42.62,17.79,2.02,24.92,3.66"/>
  <path class="cls-2" d="M688.15,843.47c5.77-.7,13.73-.95,22.84.98,4.43.94,8.32,2.22,11.61,3.54"/>
</svg>