<?xml version="1.0" encoding="UTF-8"?>
<svg id="Outline" xmlns="http://www.w3.org/2000/svg" viewBox="0 0 1080 1080">
  <defs>
    <style>
      .cls-1 {
        fill: #7fb3ea;
      }

      .cls-2 {
        stroke-linecap: round;
      }

      .cls-2, .cls-3 {
        fill: none;
        stroke: #000;
        stroke-miterlimit: 10;
        stroke-width: 6px;
      }

      .cls-4 {
        fill: #0d0d0d;
      }

      .cls-5 {
        fill: #6e4bae;
      }

      .cls-6 {
        fill: #f7f4ef;
      }

      .cls-7 {
        fill: #4d87c7;
      }

      .cls-8 {
        fill: #1b1b1b;
      }
    </style>
  </defs>
  <g>
    <path class="cls-6" d="M383.11,487.38c9.59,17.78.72,41.45-2.56,50.2-4.11,10.96-14.62,39-31.15,39.22-8.53.11-16.01-7.22-16.86-8.07-2.26-2.27-5.59-6.41-7.83-15.17-1.1-14.21-1.35-34.15,7.34-50.55,8.36-15.78,19.55-23.94,19.55-23.94,3.86-2.82,5.37-3.16,7.66-4.76,2.34-.47,6.5-.99,11.03.61,7.54,2.65,11.2,9.44,12.82,12.46ZM374.32,542.59c1.37-2.43,6.24-11.08,1.71-17.59-2.61-3.74-7.93-6.22-12.46-4.89-4.15,1.23-5.87,5.13-8.55,11.24-2.84,6.45-5.25,11.94-2.45,16.37,2.05,3.25,6.15,4.76,9.53,4.64,6.84-.22,10.7-7.08,12.22-9.77Z"/>
    <path class="cls-6" d="M524.82,626.39c1.08-.58,2.2-3.24,4.4-8.55,3.58-8.67,3.94-9.56,4.64-11.48.73-2.01,1.35-3.71,1.84-5.15-1.66,6.78-4.14,14.21-7.83,21.76-4.85,9.91-8.68,13.67-13.19,15.39-7.36,2.82-13.18-1.04-21.26-2.19-6.81-.97-16.31-.16-28.71,7.15l-.36-.62c-4.46-4.15-15.75-15.79-18.57-34.02-3.54-22.9,8.76-40.22,14.29-48.01,3.84-5.39,14.77-20.35,34.82-27.12,8.34-2.81,22.07-7.45,32.25-.73,10.13,6.68,10.83,20.7,11.73,38.48.11,2.13.47,11.39-1.85,23.79-1.25-5.32-8.68-9.68-15.38-9.01-8.75.87-13.48,10.05-14.9,15.64-.15.58-2.84,11.84,4.4,19.54,3.48,3.71,9.83,7.21,13.68,5.13Z"/>
    <path class="cls-4" d="M596.28,390.75h.03c-2.89,20.3-10.03,42.99-25.32,64.38-14.01,19.6-33.3,37.09-44.69,44.26-1.08-1.31-2.21-2.71-3.68-4.2-3.6-3.63-7.9-5.83-15.11-8.83,8.51-6.21,20.61-16.37,31.6-26.59,3.04-2.83,15.2-14.26,29.44-31.28,8.25-9.85,17.9-22.43,27.73-37.74Z"/>
    <path class="cls-4" d="M678.93,428.17c-3.67,8.6-6.99,15.48-9.23,20.11-27.27,56.47-71.48,93.19-94.74,109.64l-.32.16c-3.04-6.11-6.27-9.93-10.23-18.62,19.05-13.02,44.8-32.54,67.18-55.02,19.67-19.75,35.21-39.13,47.34-56.27Z"/>
    <path class="cls-7" d="M576.6,816.65c-5.93-7.22-10.97-14.2-15.25-20.68,9.95.39,16-.75,16-.75,6.97-1.32,14.19-2.68,21.67-4.58l.32,1.28c1.27,2.23,21.07,36.96,22.35,39.21,1.62,2.85,23.65,41.47,25.29,44.35-.04-.02-.09-.05-.13-.07-7.47-4.19-15.89-9.41-24.78-15.88-10.14-7.38-20.88-16.37-31.53-27.3-5.12-5.25-9.75-10.47-13.94-15.58Z"/>
    <path class="cls-7" d="M541.89,748.81c-2.19-7.38-4.16-15.64-5.59-24.69-3.4-21.53-2.56-40.16-.81-53.97,4.04-1.57,7.92-3.35,11.6-5.4l.21.37c1.75,12.25,5.56,28.87,14.29,46.91,5.48,11.33,11.62,20.59,17.22,27.85l.74,1.27c-11.89,6.96-21.08,13.6-25.66,16.93-2.39,1.74-4.67,3.45-6.85,5.14l-.48-.62c-1.59-4.17-3.19-8.78-4.67-13.79Z"/>
    <path class="cls-8" d="M737.62,900.28c23.08,3.43,49.85,16.86,48.38,24.43-2.1,10.71-61.08,11.14-109.61,1.34-4.92-.99-9.09-1.96-12.21-2.73,1.87.11,5.64-4.81,6.99-6.43,11.64-13.99,41.81-20.28,66.45-16.61Z"/>
    <path class="cls-8" d="M446.66,736.77l-.33.18c-9.2,16.12-24.87,31.57-30.72,29.44-5.97-2.17-7.78-17.08-2.93-27.85,4.16-9.27,14.92-19.22,23.45-16.13,3.24,1.17,4.99,4.16,8.31,10.26.78,1.44,1.52,2.81,2.22,4.1Z"/>
    <path class="cls-8" d="M524.52,759.8c-1.34,8.72-3.95,18.15-9.72,28.09-10.29,17.7-27.63,31.9-31.27,29.32-.64-.45-.82-1.4-.71-2.67.15-1.85.9-4.39,1.69-7.11,2.74-9.48,4.94-19.11,7.29-28.69,8.31-4.04,17.88-9.86,32.72-18.94Z"/>
    <path class="cls-8" d="M518.71,708.24c9.33,4.1,7.99,25.2,7.33,35.67-.31,4.98-.65,10.29-1.52,15.89-14.84,9.08-24.41,14.9-32.72,18.94,1.37-5.61,2.8-11.21,4.43-16.75,9.71-32.97,7.54-51.89,17.11-54.24,2.67-.65,4.95.31,5.37.49Z"/>
    <path class="cls-8" d="M465.92,916.97c3.08,3.53,5.6,7.34,4.41,10.18-2.25,5.4-16.32,3.59-29.31,2.93-49.22-2.48-74.24,12.04-79.65,1.96-3.17-5.91,2.92-15.49,7.33-20.04,5.25-5.42,12.7-8.46,25.9-9.28,25.4-1.59,55.67,7.26,71.11,14.44l.21-.19Z"/>
    <path class="cls-8" d="M326.61,727.56c-.22,14.09-.91,29.96-1.89,30.03-1.75.13-4.05-15.34-5.86-15.15-1.18.13-.14,6.63-3.42,14.18-1.96,4.5-6.52,11.83-10.26,11.23-4.46-.7-8.23-12.65-5.38-22.47,2.83-9.73,12.14-17.3,21.5-18.08,2.01-.17,3.52.02,5.31.26Z"/>
    <path class="cls-8" d="M412.26,831.66c-9.23-4.55-22.37-10.36-38.68-15.43-6.57-2.05-50.57-15.73-54.72-7.33-1.98,4.01,5.69,11.86,13.7,18.9l-.07.08c-2.31-.9-7.6-.41-12.17-1.39-7.77-1.66-11.09-4.57-14.17-6.35-6.34-3.67-12.17-7.05-12.21-10.75-.04-2.81,3.32-7.36,31.76-15.64,19.47-5.67,37.61-8.92,53.71-10.75,1.46,5.23,3.44,10.62,6.15,16.13,6.75,13.73,15.96,23.99,26.7,32.53Z"/>
    <path class="cls-8" d="M561.35,795.97c-3.88-.15-8.36-.54-13.31-1.32-4.1-.65-8.53-1.57-13.2-2.85-4.15-1.14-8-2.91-9.29-6.35-.77-2.09-.37-4.14,0-5.38h1.47c5.21-4.78,11.9-10.6,20.02-16.85,2.18-1.69,4.46-3.4,6.85-5.14,4.58-3.33,13.77-9.97,25.66-16.93,5.72-3.35,12.06-6.77,18.81-9.94,27.07-12.71,49.69-16.08,77.69-20.04,28.15-3.97,85.27-9.34,87.96,1.47.53,2.16-1.38,3.83-6.84,10.26-8.52,10.03-15.3,21.44-23.46,31.76-.08.1-.15.19-.23.29,7.57-13.73,9.23-26.82,3.65-32.54-7.58-7.78-26.32.34-35.67,4.4-26.7,11.58-27.85,24.07-53.75,42.02-17.37,12.04-33.57,18-48.69,21.81-7.48,1.9-14.7,3.26-21.67,4.58,0,0-6.05,1.14-16,.75Z"/>
    <path class="cls-1" d="M491.8,778.74c-2.35,9.58-4.55,19.21-7.29,28.69-.79,2.72-1.54,5.26-1.69,7.11l-.21-.02c-3.56-8.83-7.89-18.77-12.07-28.29,4.12-.94,8.3-2.16,12.5-3.72,2.88-1.07,5.74-2.3,8.76-3.77Z"/>
    <path class="cls-1" d="M482.61,814.52l.21.02c-.11,1.27.07,2.22.71,2.67,3.64,2.58,20.98-11.62,31.27-29.32,5.77-9.94,8.38-19.37,9.72-28.09.66-.4,1.33-.81,2.01-1.23,6.37-3.9,11.63-7.3,15.36-9.76,1.48,5.01,3.08,9.62,4.67,13.79l.48.62c-8.12,6.25-14.81,12.07-20.02,16.85h-1.47c-.37,1.24-.77,3.29,0,5.38,1.29,3.44,5.14,5.21,9.29,6.35,4.67,1.28,9.1,2.2,13.2,2.85v.08c-3.4,8.83-11.5,26.25-29.33,41.04-16.11,13.37-32.3,18.07-38.11,19.55-9.44,2.4-17.63,2.93-23.46,2.93l-.21.39c-1.61-.83-3.08-1.62-4.43-2.34-14.47-7.74-28.3-15.14-40.24-24.64-10.74-8.54-19.95-18.8-26.7-32.53-2.71-5.51-4.69-10.9-6.15-16.13-.84-2.98-1.5-5.91-2.03-8.77l.11-.02c7.63,3.32,18.6,7.43,32.25,10.26,13,2.69,35.86,7.43,60.8,1.76,4.18,9.52,8.51,19.46,12.07,28.29Z"/>
    <path class="cls-1" d="M622.07,859.53l-.75,1.65c-4.52,2.8-9.57,5.62-15.14,8.31-9.28,4.49-18.05,7.67-25.83,9.96-5.05.23-9.73.42-14,.55-8.88.28-15.75.43-21.24.49v-.74c3.64-1.57,21.23-9.62,29.3-29.8,5.88-14.68,3.55-27.84,2.19-33.3,4.19,5.11,8.82,10.33,13.94,15.58,10.65,10.93,21.39,19.92,31.53,27.3Z"/>
    <path class="cls-7" d="M646.85,875.41v.02c-25.94,1.75-48.56,3.19-66.5,4.02,7.78-2.29,16.55-5.47,25.83-9.96,5.57-2.69,10.62-5.51,15.14-8.31l.75-1.65c8.89,6.47,17.31,11.69,24.78,15.88Z"/>
    <path class="cls-7" d="M576.6,816.65c1.36,5.46,3.69,18.62-2.19,33.3-8.07,20.18-25.66,28.23-29.31,29.8v.74c-12.93.14-18.17-.27-23.7-.98-29.31-3.75-51.23-13.98-64.47-20.87l.21-.39c5.83,0,14.02-.53,23.46-2.93,5.81-1.48,22-6.18,38.11-19.55,17.83-14.79,25.93-32.21,29.32-41.04v-.08c4.96.78,9.44,1.17,13.32,1.32,4.28,6.48,9.32,13.46,15.25,20.68Z"/>
    <path class="cls-7" d="M470.54,786.23c-24.94,5.67-47.8.93-60.8-1.76-13.65-2.83-24.62-6.94-32.25-10.26l-.11.02c-1.82-9.77-2.09-18.78-2.33-26.65-.92-30.25,6.78-54.24,12.46-68.17l.06-.38c6.26.92,13.42,1.8,21.69,2.82,17.34,2.14,41.59,5.14,71.82.49,19.23-2.95,38.14-5.85,54.41-12.19-1.75,13.81-2.59,32.44.81,53.97,1.43,9.05,3.4,17.31,5.59,24.69-3.73,2.46-8.99,5.86-15.36,9.76-.68.42-1.35.83-2.01,1.23.87-5.6,1.21-10.91,1.52-15.89.66-10.47,2-31.57-7.33-35.67-.42-.18-2.7-1.14-5.37-.49-9.57,2.35-7.4,21.27-17.11,54.24-1.63,5.54-3.06,11.14-4.43,16.75-3.02,1.47-5.88,2.7-8.76,3.77-4.2,1.56-8.38,2.78-12.5,3.72ZM446.66,736.77c-.7-1.29-1.44-2.66-2.22-4.1-3.32-6.1-5.07-9.09-8.31-10.26-8.53-3.09-19.29,6.86-23.45,16.13-4.85,10.77-3.04,25.68,2.93,27.85,5.85,2.13,21.52-13.32,30.72-29.44l.33-.18Z"/>
    <path class="cls-5" d="M464.71,643.32c12.4-7.31,21.9-8.12,28.71-7.15,8.08,1.15,13.9,5.01,21.26,2.19,4.51-1.72,8.34-5.48,13.19-15.39,3.69-7.55,6.17-14.98,7.83-21.76,1.1-3.18,1.58-5.05,1.33-6.09,0-.01,0-.02-.01-.03,2.32-12.4,1.96-21.66,1.85-23.79-.9-17.78-1.6-31.8-11.73-38.48-10.18-6.72-23.91-2.08-32.25.73-20.05,6.77-30.98,21.73-34.82,27.12-5.53,7.79-17.83,25.11-14.29,48.01,2.82,18.23,14.11,29.87,18.57,34.02l.36.62ZM481.08,682.34c-30.23,4.65-54.48,1.65-71.82-.49-8.27-1.02-15.43-1.9-21.69-2.82-17.08-2.47-27.48-5.15-35.49-11.35-17.86-13.82-20.86-45.37-26.87-108.47-.17-1.75-.34-3.64-.5-5.65,2.24,8.76,5.57,12.9,7.83,15.17.85.85,8.33,8.18,16.86,8.07,16.53-.22,27.04-28.26,31.15-39.22,3.28-8.75,12.15-32.42,2.56-50.2-1.62-3.02-5.28-9.81-12.82-12.46-4.53-1.6-8.69-1.08-11.03-.61.75-.52,1.58-1.17,2.6-2.08,10-8.99,8.96-16.9,17.59-21.01.67-.33,6.02-2.79,12.21-1.47.71.15,1.36.34,1.97.56,3.48,1.22,5.39,3.39,8.3,5.3,7.56,4.97,14.04,3.03,25.89,3.91,7.02.53,13.8,2.47,27.37,6.36,4.68,1.34,6.42,1.98,46.42,18.07,2.17.87,4.12,1.66,5.9,2.41,7.21,3,11.51,5.2,15.11,8.83,1.47,1.49,2.6,2.89,3.68,4.2,2.05,2.5,3.92,4.69,7.56,6.55.21.11.41.21.61.3,5.81,2.77,8.75.91,13.56,3.12,7.27,3.35,9.27,11.59,12.7,21.02.96,2.63,1.88,4.94,2.76,6.99.31.73.62,1.42.92,2.09,3.96,8.69,7.19,12.51,10.23,18.62.75,1.5,1.49,3.14,2.22,5.03,7.36,18.98,10.83,53.77-5.87,79.65-6.25,9.69-14.42,16.72-23.9,21.99-3.68,2.05-7.56,3.83-11.6,5.4-16.27,6.34-35.18,9.24-54.41,12.19Z"/>
    <path d="M537.03,595.12c.25,1.04-.23,2.91-1.33,6.09.52-2.11.95-4.16,1.32-6.12.01.01.01.02.01.03Z"/>
    <path d="M537.02,595.09c-.37,1.96-.8,4.01-1.32,6.12-.49,1.44-1.11,3.14-1.84,5.15-.7,1.92-1.06,2.81-4.64,11.48-2.2,5.31-3.32,7.97-4.4,8.55-3.85,2.08-10.2-1.42-13.68-5.13-7.24-7.7-4.55-18.96-4.4-19.54,1.42-5.59,6.15-14.77,14.9-15.64,6.7-.67,14.13,3.69,15.38,9.01Z"/>
    <path d="M376.03,525c4.53,6.51-.34,15.16-1.71,17.59-1.52,2.69-5.38,9.55-12.22,9.77-3.38.12-7.48-1.39-9.53-4.64-2.8-4.43-.39-9.92,2.45-16.37,2.68-6.11,4.4-10.01,8.55-11.24,4.53-1.33,9.85,1.15,12.46,4.89Z"/>
  </g>
  <g>
    <path class="cls-3" d="M403.88,144.35c10.44,9.82,26.97,24.45,48.86,40.07,42.32,30.18,58.13,30.84,83.07,51.8,9.35,7.85,45.02,38.67,57.66,90.88,1.47,6.09,7.34,31.97,2.84,63.65-2.89,20.3-10.03,42.99-25.32,64.38-14.01,19.6-33.3,37.09-44.69,44.26-.11.07-.21.13-.32.2"/>
    <path class="cls-3" d="M635.5,148.26c3.74,11.03,9.57,27.41,17.59,46.91,18.91,46.02,30.65,62.39,38.11,80.14,23.15,55.11,2.61,118.04-12.27,152.86-3.67,8.6-6.99,15.48-9.23,20.11-27.27,56.47-71.48,93.19-94.74,109.64"/>
    <path class="cls-3" d="M564.34,539.51s.05-.03.07-.05c19.05-13.02,44.8-32.54,67.18-55.02,19.67-19.75,35.21-39.13,47.34-56.27.05-.05.08-.11.12-.16"/>
    <path class="cls-3" d="M507.29,486.52c.07-.05.14-.11.22-.16,8.51-6.21,20.61-16.37,31.6-26.59,3.04-2.83,15.2-14.26,29.44-31.28,8.25-9.85,17.9-22.43,27.73-37.74"/>
    <path class="cls-3" d="M393.63,450.31c3.48,1.22,5.39,3.39,8.3,5.3,7.56,4.97,14.04,3.03,25.89,3.91,7.02.53,13.8,2.47,27.37,6.36,4.68,1.34,6.42,1.98,46.42,18.07,2.17.87,4.12,1.66,5.9,2.41,7.21,3,11.51,5.2,15.11,8.83,1.47,1.49,2.6,2.89,3.68,4.2,2.05,2.5,3.92,4.69,7.56,6.55.21.11.41.21.61.3,5.81,2.77,8.75.91,13.56,3.12,7.27,3.35,9.27,11.59,12.7,21.02.96,2.63,1.88,4.94,2.76,6.99.31.73.62,1.42.92,2.09,3.96,8.69,7.19,12.51,10.23,18.62.75,1.5,1.49,3.14,2.22,5.03,7.36,18.98,10.83,53.77-5.87,79.65-6.25,9.69-14.42,16.72-23.9,21.99-3.68,2.05-7.56,3.83-11.6,5.4-16.27,6.34-35.18,9.24-54.41,12.19-30.23,4.65-54.48,1.65-71.82-.49-8.27-1.02-15.43-1.9-21.69-2.82-17.08-2.47-27.48-5.15-35.49-11.35-17.86-13.82-20.86-45.37-26.87-108.47-.17-1.75-.34-3.64-.5-5.65-1.1-14.21-1.35-34.15,7.34-50.55,8.36-15.78,19.55-23.94,19.55-23.94,3.86-2.82,5.37-3.16,7.66-4.76.75-.52,1.58-1.17,2.6-2.08,10-8.99,8.96-16.9,17.59-21.01.67-.33,6.02-2.79,12.21-1.47.71.15,1.36.34,1.97.56Z"/>
    <path class="cls-2" d="M664.18,923.32c-.11-.02-.23-.05-.34-.08"/>
    <path class="cls-2" d="M664.18,923.32c1.87.11,5.64-4.81,6.99-6.43,11.64-13.99,41.81-20.28,66.45-16.61,23.08,3.43,49.85,16.86,48.38,24.43-2.1,10.71-61.08,11.14-109.61,1.34-4.92-.99-9.09-1.96-12.21-2.73Z"/>
    <path class="cls-2" d="M733.47,754.96c-4.6,5.88-10.78,15.33-45.28,88.51-2,4.23-4.08,8.66-6.27,13.32,0,0-6.19,13.19-17.11,54.72-.91,3.49-2.79,10.85-.97,11.73.1.05.21.08.34.08"/>
    <path class="cls-2" d="M527.02,780.07c5.21-4.78,11.9-10.6,20.02-16.85,2.18-1.69,4.46-3.4,6.85-5.14,4.58-3.33,13.77-9.97,25.66-16.93,5.72-3.35,12.06-6.77,18.81-9.94,27.07-12.71,49.69-16.08,77.69-20.04,28.15-3.97,85.27-9.34,87.96,1.47.53,2.16-1.38,3.83-6.84,10.26-8.52,10.03-15.3,21.44-23.46,31.76-.08.1-.15.19-.23.29"/>
    <path class="cls-2" d="M542.65,748.31c-.25.16-.5.33-.76.5-3.73,2.46-8.99,5.86-15.36,9.76-.68.42-1.35.83-2.01,1.23-14.84,9.08-24.41,14.9-32.72,18.94-3.02,1.47-5.88,2.7-8.76,3.77-4.2,1.56-8.38,2.78-12.5,3.72-24.94,5.67-47.8.93-60.8-1.76-13.65-2.83-24.62-6.94-32.25-10.26"/>
    <path class="cls-2" d="M548.03,794.73c-3.39,8.83-11.49,26.25-29.32,41.04-16.11,13.37-32.3,18.07-38.11,19.55-9.44,2.4-17.63,2.93-23.46,2.93"/>
    <path class="cls-2" d="M576.37,815.74c.07.27.15.58.23.91,1.36,5.46,3.69,18.62-2.19,33.3-8.07,20.18-25.66,28.23-29.31,29.8"/>
    <path class="cls-2" d="M621.32,861.18c-4.52,2.8-9.57,5.62-15.14,8.31-9.28,4.49-18.05,7.67-25.83,9.96l-1.05.3"/>
    <path class="cls-2" d="M414.63,832.84c-.76-.38-1.55-.77-2.37-1.18-9.23-4.55-22.37-10.36-38.68-15.43-6.57-2.05-50.57-15.73-54.72-7.33-1.98,4.01,5.69,11.86,13.7,18.9,2.86,2.5,5.77,4.91,8.29,7,9.53,7.91,30.63,24.12,78.18,46.91,1.46.7,24.75,11.86,44.57,32.73.77.81,1.56,1.66,2.32,2.53,3.08,3.53,5.6,7.34,4.41,10.18-2.25,5.4-16.32,3.59-29.31,2.93-49.22-2.48-74.24,12.04-79.65,1.96-3.17-5.91,2.92-15.49,7.33-20.04,5.25-5.42,12.7-8.46,25.9-9.28,25.4-1.59,55.67,7.26,71.11,14.44"/>
    <path class="cls-2" d="M379.45,783h-.04c-16.1,1.83-34.24,5.08-53.71,10.75-28.44,8.28-31.8,12.83-31.76,15.64.04,3.7,5.87,7.08,12.21,10.75,3.08,1.78,6.4,4.69,14.17,6.35,4.57.98,9.86.49,12.17,1.39"/>
    <path class="cls-2" d="M535.7,601.21c1.1-3.18,1.58-5.05,1.33-6.09,0-.01,0-.02-.01-.03-1.25-5.32-8.68-9.68-15.38-9.01-8.75.87-13.48,10.05-14.9,15.64-.15.58-2.84,11.84,4.4,19.54,3.48,3.71,9.83,7.21,13.68,5.13,1.08-.58,2.2-3.24,4.4-8.55,3.58-8.67,3.94-9.56,4.64-11.48.73-2.01,1.35-3.71,1.84-5.15Z"/>
    <path class="cls-2" d="M363.57,520.11c-4.15,1.23-5.87,5.13-8.55,11.24-2.84,6.45-5.25,11.94-2.45,16.37,2.05,3.25,6.15,4.76,9.53,4.64,6.84-.22,10.7-7.08,12.22-9.77,1.37-2.43,6.24-11.08,1.71-17.59-2.61-3.74-7.93-6.22-12.46-4.89Z"/>
    <path class="cls-2" d="M492.51,517.24c3.86-2.52,9-5.34,15.39-7.51,10.81-3.68,20.37-3.89,26.57-3.49.06,0,.12.01.18.01"/>
    <path class="cls-2" d="M560.12,566.9c1.21-4.54,2.32-9.96,2.93-16.12.49-4.92.57-9.43.44-13.41-.02-.62-.04-1.21-.07-1.8"/>
    <path class="cls-2" d="M406.57,483.34c-.27-4.36-1.16-10.77-4.03-17.95-2.7-6.74-6.18-11.76-8.91-15.08-.09-.11-.17-.22-.26-.32"/>
    <path class="cls-3" d="M324.71,553.56c-.08-.31-.15-.63-.23-.95-5.37-22.65,3.89-43.48,6.59-49.11,3.99-8.3,12.24-25.48,27.12-28.95.29-.07.65-.15,1.07-.24,2.34-.47,6.5-.99,11.03.61,7.54,2.65,11.2,9.44,12.82,12.46,9.59,17.78.72,41.45-2.56,50.2-4.11,10.96-14.62,39-31.15,39.22-8.53.11-16.01-7.22-16.86-8.07-2.26-2.27-5.59-6.41-7.83-15.17Z"/>
    <path class="cls-2" d="M464.35,642.7c-4.46-4.15-15.75-15.79-18.57-34.02-3.54-22.9,8.76-40.22,14.29-48.01,3.84-5.39,14.77-20.35,34.82-27.12,8.34-2.81,22.07-7.45,32.25-.73,10.13,6.68,10.83,20.7,11.73,38.48.11,2.13.47,11.39-1.85,23.79-.37,1.96-.8,4.01-1.32,6.12-1.66,6.78-4.14,14.21-7.83,21.76-4.85,9.91-8.68,13.67-13.19,15.39-7.36,2.82-13.18-1.04-21.26-2.19-6.81-.97-16.31-.16-28.71,7.15-2.52,1.49-5.16,3.24-7.93,5.31"/>
    <path class="cls-2" d="M445.17,684.42c4.4-1.9,12.38-5.82,18.69-12.22,3.12-3.15,4.56-5.62,5.38-8.18.99-3.1.92-5.85.73-7.58"/>
    <path class="cls-2" d="M361.98,610.51c4.79,2.12,10.43,5.07,16.37,9.16,6.46,4.46,11.54,9.07,15.39,13.08"/>
    <path class="cls-2" d="M365.52,602.33c5.13.97,11.34,2.62,18.08,5.5,10.02,4.27,17.51,9.69,22.6,14.04"/>
    <path class="cls-2" d="M547.3,665.12c1.75,12.25,5.56,28.87,14.29,46.91,5.48,11.33,11.62,20.59,17.22,27.85"/>
    <path class="cls-2" d="M535.57,669.52c-.03.21-.05.42-.08.63-1.75,13.81-2.59,32.44.81,53.97,1.43,9.05,3.4,17.31,5.59,24.69,1.48,5.01,3.08,9.62,4.67,13.79"/>
    <path class="cls-2" d="M560.86,795.22c.16.25.33.5.49.75,4.28,6.48,9.32,13.46,15.25,20.68,4.19,5.11,8.82,10.33,13.94,15.58,10.65,10.93,21.39,19.92,31.53,27.3,8.89,6.47,17.31,11.69,24.78,15.88.04.02.09.05.13.07"/>
    <path class="cls-2" d="M599.34,791.92c1.27,2.23,21.07,36.96,22.35,39.21,1.62,2.85,23.65,41.47,25.29,44.35"/>
    <path class="cls-2" d="M387.51,679.41c-5.68,13.93-13.38,37.92-12.46,68.17.24,7.87.51,16.88,2.33,26.65.53,2.86,1.19,5.79,2.03,8.77,1.46,5.23,3.44,10.62,6.15,16.13,6.75,13.73,15.96,23.99,26.7,32.53,11.94,9.5,25.77,16.9,40.24,24.64,1.35.72,2.82,1.51,4.43,2.34,13.24,6.89,35.16,17.12,64.47,20.87,5.53.71,10.77,1.12,23.71.98,5.49-.06,12.36-.21,21.24-.49,4.27-.13,8.95-.32,14-.55,17.94-.83,40.56-2.27,66.49-4.02"/>
    <path class="cls-2" d="M525.55,780.07c-.37,1.24-.77,3.29,0,5.38,1.29,3.44,5.14,5.21,9.29,6.35,4.67,1.28,9.1,2.2,13.2,2.85,4.95.78,9.43,1.17,13.31,1.32,9.95.39,16-.75,16-.75,6.97-1.32,14.19-2.68,21.67-4.58,15.12-3.81,31.32-9.77,48.69-21.81,25.9-17.95,27.05-30.44,53.75-42.02,9.35-4.06,28.09-12.18,35.67-4.4,5.58,5.72,3.92,18.81-3.65,32.54h-.01c-.39.72-.79,1.43-1.22,2.15"/>
    <path class="cls-2" d="M524.52,759.8c.87-5.6,1.21-10.91,1.52-15.89.66-10.47,2-31.57-7.33-35.67-.42-.18-2.7-1.14-5.37-.49-9.57,2.35-7.4,21.27-17.11,54.24-1.63,5.54-3.06,11.14-4.43,16.75-2.35,9.58-4.55,19.21-7.29,28.69-.79,2.72-1.54,5.26-1.69,7.11-.11,1.27.07,2.22.71,2.67,3.64,2.58,20.98-11.62,31.27-29.32,5.77-9.94,8.38-19.37,9.72-28.09Z"/>
    <path class="cls-2" d="M326.61,727.56c-1.79-.24-3.3-.43-5.31-.26-9.36.78-18.67,8.35-21.5,18.08-2.85,9.82.92,21.77,5.38,22.47,3.74.6,8.3-6.73,10.26-11.23,3.28-7.55,2.24-14.05,3.42-14.18,1.81-.19,4.11,15.28,5.86,15.15.98-.07,1.67-15.94,1.89-30.03Z"/>
    <path class="cls-2" d="M373.1,747.33c-12.12-2.54-20.21-6.78-25.41-10.26-4.41-2.95-10.87-8.1-20.81-9.47-.09-.01-.18-.02-.27-.04"/>
    <path class="cls-2" d="M446.33,736.95c-9.2,16.12-24.87,31.57-30.72,29.44-5.97-2.17-7.78-17.08-2.93-27.85,4.16-9.27,14.92-19.22,23.45-16.13,3.24,1.17,4.99,4.16,8.31,10.26.78,1.44,1.52,2.81,2.22,4.1,11.94,22.02,12.31,22.9,12.31,22.9,3.02,7.26,7.21,16.68,11.57,26.56,4.18,9.52,8.51,19.46,12.07,28.29"/>
    <path class="cls-2" d="M405.59,874.99c4.52-.51,9.25-.93,14.17-1.22,7-.43,13.65-.56,19.91-.49"/>
    <path class="cls-2" d="M430.14,887.57c3.53-.47,7.37-.82,11.49-.98,6.06-.23,11.6.02,16.49.49"/>
    <path class="cls-2" d="M447.98,900.03c3.4-.76,7.72-1.4,12.7-1.34,7.87.08,14.27,1.84,18.57,3.42"/>
    <path class="cls-2" d="M670.8,890.26c6.07-.17,12.52-.16,19.3.12,9.07.37,17.52,1.16,25.29,2.2"/>
    <path class="cls-2" d="M678.25,866.93c5.53-.29,11.67-.32,18.32.12,9.42.61,17.8,2.02,24.93,3.66"/>
    <path class="cls-2" d="M688.15,843.47h.04c5.77-.7,13.7-.95,22.8.98,4.43.93,8.32,2.21,11.6,3.54"/>
  </g>
</svg>