<?xml version="1.0" encoding="UTF-8"?>
<svg id="Outline" xmlns="http://www.w3.org/2000/svg" viewBox="0 0 1080 1080">
  <path d="M546.06,302.53c20.13,16.27,36.59,36.95,44.65,61.87,6.88.96,15.13-10.6,20.67-9.53,7.8,1.51,20.95,26.33,27.9,31.7,3.64.77,16.92-15.13,21.01-18.24,9.94-7.59,56.61-35.16,66.89-27.62,10.59,7.76,2.86,96.62-5.11,112.8,7.68-5.86,46.2-20.61,51.67-12.02,4.13,6.47-7.65,38.74-12.04,46.64,18.08-7.82,93.51-17.91,102.94-.05,6.55,12.4-11.14,9.07-16.84,10.57-52.5,13.78-87.06,75.56-128.19,107.07,19.55,11.81,40.53,23.17,55.75,40.81,6.19,7.17,22.19,26.78,11.84,34.82-7.87,6.12-37.81,17.51-48.35,20.36-40.8,11.01-80.68,9.18-119.41-7.81-11.36,15.59-16.36,35.17-29.88,49.3-8.31,8.68-45.71,36.74-56.46,34.09-17.14-4.21-74.96-72.45-71.31-96.08-50.34,22.62-103.91,26.56-156.65,9.18-5.65-1.86-34.31-13.94-36.15-17.08-1.98-3.38-.39-8.28.89-11.76,6.75-18.33,38.97-44.74,54.83-56.61,3.84-2.88,21.39-10.55,18.11-15.27-47.74-30.27-76.69-84.73-128.87-108.95v-4.95c30.89-18.97,69.25-10.66,101.61-.01-4.48-14.99-12.39-31.03-7.14-46.73,19.13-4.09,32.55,6.2,49.27,12.08-6.66-16.01-11.56-103.24-2.23-111.1,14.7-12.39,81.13,42.52,90.23,56.62,3.37.02,16.41-26.53,25.8-28.54,6.49-1.39,16.87,11.11,20.02,8.78,6.48-27.33,30.12-44.1,47.12-64.35h7.44ZM542.8,320.18c-13.94,7.16-43.71,45-40.98,59.73,1.09,5.86,15.29,21.58,18.2,28.99,19.57-27.48,22.22-23.2,39.66,2.48,4.22-10.08,21.95-28.78,21.08-38.06-.9-9.53-28.55-54.58-37.96-53.14ZM399.82,489.4c-.82-18,0-36.4,0-54.45,0-1.36,3.89-17.79,4.77-19.99,7.33-18.47,17.49.4,29.9,1.43-.23-4.67,4.46-10.28,4.53-14.11.23-12.27-57.24-59.34-73.89-57.67-6.13,51.08,2.49,106.46,33.47,148.49,7.59.58,1.27-2.56,1.21-3.7ZM717.07,354.49c-16.97.68-67,32.69-70.9,46.98-1.59,5.84,4.97,11.17,4.01,17.39,2.63,2.44,16.05-11.91,21.79-.74,8.92,17.37,6.01,62.98,2.98,82.39,5.81,1.75,4.29-1.75,5.66-3.15,32.66-33.22,43.8-98.28,36.46-142.87ZM585.74,473.3c6.2-5.83,10.99-12.73,17.29-18.59,5.63-5.23,33.29-24.19,34.35-27.7,3.7-12.21-18.74-45.5-28.11-54.94-19.19,11.98-41.88,40.77-37.41,64.21,2.17,11.4,12.43,24.7,13.88,37.01ZM486.54,468.35c-.26-11.24,23.88-39.13,23.96-45.76.08-7.5-26.41-48.31-35.08-48.38-9.18-.07-30.3,40.11-28.53,50.71,1.32,7.92,29.88,29.88,33.43,41.03l6.22,2.41ZM541.05,406.5c-1.4-1.18-3.44-.33-5.12,1.54-4.42,4.91-13.94,21.52-18.17,28.36-14.43,23.31-56.05,102.85-41.28,127.43,7.21,12.01,54.64,27.39,54.73,53.04,9.06-9.92,12.82-20.35,23.58-29.63,10.57-9.12,24.1-14.54,35.97-21.52-1.08-56.51-22.81-110.48-49.71-159.2ZM461.77,552.5c-6.36-18.11,17.04-56.36,13.85-69.29-1.84-7.45-21.1-31.12-27.35-37.24-3.66-3.58-30.41-25.56-33.57-22.16-2.8,30.79-7.31,74.68,11.3,101.32,3.67,5.26,31.29,32.03,35.77,27.37ZM603.08,557.45c20.74-6.7,49.77-29.6,57.54-50.18,8.61-22.79,3.79-54.65,1.91-78.51-2.57-3.64-63.23,45.24-67.49,55.08-6.97,16.1,13.35,53.79,8.05,73.61ZM394.84,527.76c4.61-18.87-6.82-23.49-14.4-36.33-4.57-7.74-7.42-17.23-12.84-24.3-10.77-14.03-30.34-22.15-47.07-25.99-3.15,3.45,9.99,38.11,14.83,43.33l59.49,43.28ZM759.2,453.52c-17,2.12-35.41,11.04-47.19,23.39-6.78,7.1-11.18,17.04-17.29,24.81-4.08,5.18-16.69,14.56-18.5,18.65-3.01,6.81.65,15.32-3.75,22.22l40.34-30.24c27.07-11.38,42.55-28.97,46.4-58.83ZM279.61,478.26c-11.98-1.42-26.15,1.03-38.42,0,66.13,53.63,119.46,141.43,213.14,144.8-36.01-25.94-47.88-67.1-81.75-96.57-20.13-17.51-66.8-45.12-92.97-48.23ZM826.12,490.66c-49.45-.67-99.76,23.45-136.34,55.63-27.17,23.9-42.78,54.01-69.36,77.98,81.54,10.06,122.62-66.88,175.94-112.62l29.76-20.98ZM523.74,631.7c-11.65-42.68-60.69-54.27-91.49-80.63-8.56-7.33-14.25-15.99-22.49-23.31,9.48,53.32,56.36,107.14,113.98,103.94ZM543.59,634.17c56.64,3.24,111.02-46.05,116.46-101.45l-24.93,23.33c-32.2,22.52-85.56,32.73-91.53,78.12ZM461.8,639.16c-21.7-1.82-43.04-6.8-63.27-14.81-7.72-3.06-39.72-21.42-42.08-21.41-7,.03-34.29,19.43-40.92,25.03-4.57,3.86-35.16,34.44-32.19,38.36,46.07,22.55,96.29,27.8,145.69,13.11,3.91-1.16,24.58-8.92,26.21-10.37,3.94-3.52,3.69-23.69,6.56-29.91ZM620.82,678.35c47.86,27.01,110.32,20.34,155.29-8.23.85-10.5-55.28-54.02-67.51-53.22-6.24.41-18.19,9.18-25.56,11.76-21.8,7.63-44.64,13.13-67.55,8.03,2.88,14.15,6.15,26.95,5.35,41.67ZM597.37,637.02c-5.55.3-20.1,7.4-28.41,8.9-22.56,4.07-40.61,3.23-63.07-.09-17.34-2.56-30.59-15.7-33.95,7.15-6.31,42.93,32.16,85.06,63.31,109.66,45.38-23.22,90.26-71.06,65.43-124.98-.99-1.07-2.06-.72-3.3-.65Z"/>
</svg>