<?xml version="1.0" encoding="UTF-8"?>
<svg id="Outline" xmlns="http://www.w3.org/2000/svg" viewBox="0 0 1080 1080">
  <defs>
    <style>
      .cls-1 {
        fill: #fce4ec;
      }

      .cls-2 {
        fill: #f48fb1;
      }

      .cls-3 {
        fill: #f8bbd0;
      }
    </style>
  </defs>
  <path class="cls-1" d="M380.43,491.43c7.59,12.84,19.02,17.46,14.41,36.33l-59.49-43.29c-4.84-5.22-17.97-39.88-14.83-43.33,16.73,3.84,36.3,11.96,47.07,25.99,5.42,7.07,8.27,16.56,12.84,24.3Z"/>
  <path class="cls-1" d="M475.41,374.21c8.67.06,35.16,40.88,35.08,48.38-.07,6.63-24.22,34.52-23.96,45.76l-6.22-2.41c-3.56-11.15-32.11-33.11-33.43-41.03-1.77-10.6,19.35-50.78,28.53-50.7Z"/>
  <path class="cls-1" d="M759.19,453.52c-3.85,29.85-19.32,47.44-46.4,58.83l-40.33,30.23c4.4-6.89.73-15.41,3.75-22.21,1.81-4.09,14.42-13.47,18.5-18.65,6.12-7.77,10.52-17.71,17.29-24.81,11.79-12.35,30.19-21.27,47.19-23.39Z"/>
  <path class="cls-1" d="M662.52,428.76c1.89,23.86,6.7,55.72-1.91,78.51-7.77,20.57-36.79,43.47-57.54,50.18,5.3-19.83-15.01-57.52-8.04-73.62,4.26-9.83,64.92-58.71,67.49-55.07Z"/>
  <path class="cls-2" d="M708.58,616.89c12.24-.8,68.37,42.72,67.52,53.22-44.97,28.57-107.43,35.25-155.29,8.23.81-14.72-2.47-27.52-5.35-41.67,22.92,5.1,45.75-.4,67.56-8.03,7.37-2.58,19.32-11.34,25.56-11.75Z"/>
  <path class="cls-2" d="M461.79,639.15c-2.88,6.22-2.62,26.39-6.56,29.91-1.63,1.45-22.3,9.21-26.21,10.37-49.4,14.7-99.61,9.45-145.69-13.1-2.97-3.92,27.62-34.5,32.19-38.36,6.63-5.6,33.92-25.01,40.92-25.03,2.38,0,34.36,18.35,42.08,21.4,20.24,8.01,41.58,13,63.27,14.81Z"/>
  <path class="cls-2" d="M635.11,556.05l24.93-23.33c-5.44,55.4-59.82,104.69-116.46,101.45,5.97-45.39,59.33-55.6,91.53-78.12Z"/>
  <path class="cls-2" d="M523.73,631.7c-57.61,3.2-104.49-50.62-113.97-103.94,8.23,7.32,13.92,15.97,22.49,23.31,30.79,26.36,79.83,37.95,91.48,80.63Z"/>
  <path class="cls-1" d="M600.67,637.67c24.84,53.92-20.04,101.76-65.43,124.98-31.14-24.61-69.61-66.74-63.3-109.67,3.35-22.84,16.61-9.71,33.95-7.15,22.46,3.32,40.51,4.17,63.07.09,8.31-1.5,22.86-8.6,28.41-8.9,1.24-.07,2.31-.42,3.3.65Z"/>
  <path class="cls-2" d="M609.27,372.07c9.37,9.45,31.81,42.73,28.11,54.94-1.06,3.51-28.72,22.47-34.35,27.7-6.3,5.86-11.09,12.76-17.29,18.59-1.45-12.31-11.7-25.62-13.88-37.01-4.47-23.45,18.22-52.24,37.41-64.22Z"/>
  <path class="cls-2" d="M475.62,483.21c3.19,12.92-20.21,51.18-13.85,69.29-4.48,4.65-32.09-22.12-35.77-27.38-18.61-26.63-14.09-70.53-11.3-101.32,3.16-3.4,29.91,18.58,33.57,22.16,6.25,6.13,25.51,29.8,27.35,37.25Z"/>
  <path class="cls-3" d="M717.06,354.49c7.34,44.59-3.79,109.65-36.46,142.87-1.37,1.4.14,4.9-5.66,3.15,3.03-19.41,5.95-65.01-2.98-82.39-5.73-11.17-19.16,3.18-21.78.74.95-6.22-5.61-11.56-4.02-17.39,3.9-14.29,53.93-46.3,70.9-46.98Z"/>
  <path class="cls-3" d="M365.13,344.61c16.65-1.68,74.12,45.39,73.89,57.66-.07,3.83-4.77,9.44-4.53,14.11-12.41-1.03-22.57-19.9-29.9-1.43-.88,2.21-4.77,18.63-4.77,19.99,0,18.05-.82,36.45,0,54.45.05,1.14,6.38,4.29-1.22,3.7-30.97-42.02-39.6-97.4-33.47-148.48Z"/>
  <path class="cls-3" d="M580.76,373.32c.87,9.28-16.86,27.98-21.08,38.06-17.44-25.67-20.08-29.96-39.65-2.47-2.92-7.42-17.12-23.13-18.21-29-2.73-14.73,27.04-52.57,40.98-59.73,9.41-1.44,37.06,43.61,37.96,53.14Z"/>
  <path class="cls-3" d="M826.11,490.66l-29.76,20.98c-53.32,45.74-94.4,122.68-175.94,112.62,26.59-23.96,42.19-54.08,69.36-77.97,36.59-32.18,86.89-56.3,136.34-55.63Z"/>
  <path class="cls-3" d="M372.58,526.49c33.88,29.47,45.75,70.63,81.76,96.57-93.69-3.37-147.02-91.17-213.15-144.8,12.27,1.03,26.44-1.43,38.42,0,26.17,3.11,72.85,30.72,92.97,48.23Z"/>
  <path class="cls-3" d="M541.05,406.5c26.9,48.72,48.63,102.69,49.71,159.2-11.87,6.98-25.4,12.4-35.97,21.52-10.76,9.28-14.52,19.71-23.58,29.63-.09-25.64-47.52-41.03-54.73-53.03-14.77-24.58,26.85-104.12,41.28-127.43,4.23-6.84,13.75-23.44,18.17-28.36,1.68-1.86,3.72-2.71,5.12-1.53Z"/>
  <path d="M864.63,488.08c6.55,12.41-11.15,9.07-16.84,10.57-52.5,13.78-87.06,75.56-128.19,107.07,19.55,11.81,40.53,23.17,55.75,40.81,6.19,7.17,22.19,26.78,11.84,34.82-7.88,6.12-37.81,17.52-48.35,20.36-40.8,11.01-80.68,9.18-119.42-7.8-11.36,15.58-16.35,35.16-29.88,49.29-8.31,8.68-45.71,36.74-56.46,34.09-17.14-4.21-74.96-72.45-71.31-96.08-50.35,22.62-103.91,26.56-156.65,9.18-5.65-1.86-34.31-13.94-36.15-17.08-1.98-3.37-.4-8.27.89-11.76,6.74-18.33,38.97-44.74,54.82-56.61,3.85-2.87,21.39-10.55,18.12-15.26-47.75-30.27-76.69-84.73-128.87-108.95v-4.95c30.89-18.97,69.25-10.65,101.61-.01-4.48-14.99-12.39-31.03-7.14-46.73,19.13-4.09,32.55,6.2,49.27,12.08-6.66-16.01-11.56-103.25-2.22-111.11,14.7-12.38,81.13,42.52,90.22,56.63,3.37,0,16.41-26.53,25.8-28.54,6.5-1.39,16.88,11.11,20.02,8.77,6.48-27.33,30.12-44.09,47.13-64.34h7.43c20.13,16.27,36.59,36.95,44.65,61.87,6.88.96,15.14-10.6,20.67-9.53,7.8,1.51,20.95,26.33,27.9,31.7,3.64.77,16.92-15.13,21-18.25,9.94-7.58,56.61-35.15,66.9-27.62,10.59,7.77,2.85,96.63-5.12,112.81,7.69-5.86,46.2-20.61,51.68-12.02,4.13,6.47-7.65,38.73-12.04,46.64,18.07-7.82,93.5-17.9,102.94-.05ZM796.35,511.64l29.76-20.98c-49.45-.67-99.75,23.45-136.34,55.63-27.17,23.89-42.77,54.01-69.36,77.97,81.54,10.06,122.62-66.88,175.94-112.62ZM776.1,670.11c.85-10.5-55.28-54.02-67.52-53.22-6.24.41-18.19,9.17-25.56,11.75-21.81,7.63-44.64,13.13-67.56,8.03,2.88,14.15,6.16,26.95,5.35,41.67,47.86,27.02,110.32,20.34,155.29-8.23ZM712.79,512.35c27.08-11.39,42.55-28.98,46.4-58.83-17,2.12-35.4,11.04-47.19,23.39-6.77,7.1-11.17,17.04-17.29,24.81-4.08,5.18-16.69,14.56-18.5,18.65-3.02,6.8.65,15.32-3.75,22.21l40.33-30.23ZM680.6,497.36c32.67-33.22,43.8-98.28,36.46-142.87-16.97.68-67,32.69-70.9,46.98-1.59,5.83,4.97,11.17,4.02,17.39,2.62,2.44,16.05-11.91,21.78-.74,8.93,17.38,6.01,62.98,2.98,82.39,5.8,1.75,4.29-1.75,5.66-3.15ZM660.61,507.27c8.61-22.79,3.8-54.65,1.91-78.51-2.57-3.64-63.23,45.24-67.49,55.07-6.97,16.1,13.34,53.79,8.04,73.62,20.75-6.71,49.77-29.61,57.54-50.18ZM660.04,532.72l-24.93,23.33c-32.2,22.52-85.56,32.73-91.53,78.12,56.64,3.24,111.02-46.05,116.46-101.45ZM637.38,427.01c3.7-12.21-18.74-45.49-28.11-54.94-19.19,11.98-41.88,40.77-37.41,64.22,2.18,11.39,12.43,24.7,13.88,37.01,6.2-5.83,10.99-12.73,17.29-18.59,5.63-5.23,33.29-24.19,34.35-27.7ZM535.24,762.65c45.39-23.22,90.27-71.06,65.43-124.98-.99-1.07-2.06-.72-3.3-.65-5.55.3-20.1,7.4-28.41,8.9-22.56,4.08-40.61,3.23-63.07-.09-17.34-2.56-30.6-15.69-33.95,7.15-6.31,42.93,32.16,85.06,63.3,109.67ZM559.68,411.38c4.22-10.08,21.95-28.78,21.08-38.06-.9-9.53-28.55-54.58-37.96-53.14-13.94,7.16-43.71,45-40.98,59.73,1.09,5.87,15.29,21.58,18.21,29,19.57-27.49,22.21-23.2,39.65,2.47ZM590.76,565.7c-1.08-56.51-22.81-110.48-49.71-159.2-1.4-1.18-3.44-.33-5.12,1.53-4.42,4.92-13.94,21.52-18.17,28.36-14.43,23.31-56.05,102.85-41.28,127.43,7.21,12,54.64,27.39,54.73,53.03,9.06-9.92,12.82-20.35,23.58-29.63,10.57-9.12,24.1-14.54,35.97-21.52ZM409.76,527.76c9.48,53.32,56.36,107.14,113.97,103.94-11.65-42.68-60.69-54.27-91.48-80.63-8.57-7.34-14.26-15.99-22.49-23.31ZM510.49,422.59c.08-7.5-26.41-48.32-35.08-48.38-9.18-.08-30.3,40.1-28.53,50.7,1.32,7.92,29.87,29.88,33.43,41.03l6.22,2.41c-.26-11.24,23.89-39.13,23.96-45.76ZM461.77,552.5c-6.36-18.11,17.04-56.37,13.85-69.29-1.84-7.45-21.1-31.12-27.35-37.25-3.66-3.58-30.41-25.56-33.57-22.16-2.79,30.79-7.31,74.69,11.3,101.32,3.68,5.26,31.29,32.03,35.77,27.38ZM455.23,669.06c3.94-3.52,3.68-23.69,6.56-29.91-21.69-1.81-43.03-6.8-63.27-14.81-7.72-3.05-39.7-21.4-42.08-21.4-7,.02-34.29,19.43-40.92,25.03-4.57,3.86-35.16,34.44-32.19,38.36,46.08,22.55,96.29,27.8,145.69,13.1,3.91-1.16,24.58-8.92,26.21-10.37ZM439.02,402.27c.23-12.27-57.24-59.34-73.89-57.66-6.13,51.08,2.5,106.46,33.47,148.48,7.6.59,1.27-2.56,1.22-3.7-.82-18,0-36.4,0-54.45,0-1.36,3.89-17.78,4.77-19.99,7.33-18.47,17.49.4,29.9,1.43-.24-4.67,4.46-10.28,4.53-14.11ZM454.34,623.06c-36.01-25.94-47.88-67.1-81.76-96.57-20.12-17.51-66.8-45.12-92.97-48.23-11.98-1.43-26.15,1.03-38.42,0,66.13,53.63,119.46,141.43,213.15,144.8ZM394.84,527.76c4.61-18.87-6.82-23.49-14.41-36.33-4.57-7.74-7.42-17.23-12.84-24.3-10.77-14.03-30.34-22.15-47.07-25.99-3.14,3.45,9.99,38.11,14.83,43.33l59.49,43.29Z"/>
</svg>