<?xml version="1.0" encoding="UTF-8"?>
<svg xmlns="http://www.w3.org/2000/svg" viewBox="0 0 1080 1080">
  <defs>
    <style>
      .cls-1 {
        fill: #3a2a1e;
      }

      .cls-2 {
        fill: #231f20;
      }

      .cls-3 {
        fill: #b6484b;
      }

      .cls-4 {
        fill: #f3cdb9;
      }

      .cls-5 {
        fill: #f7f3ee;
      }

      .cls-6 {
        fill: #0b090a;
      }

      .cls-7 {
        fill: #a5c583;
      }
    </style>
  </defs>
  <g id="Mulan_2">
    <path class="cls-7" d="M739.12,873.6c-27.21,27.89,14.74-33.01-101.2,86.83-59.36,61.36-56.98,63.5-66.04,65.43-38.32,8.16-79.65-30.45-135.75-82.85-20.62-19.26-81.93-78.94-101.5-73.07-9.23,2.77-11.92,8.56-11.92,8.56-1.83,3.95-.76,7.57,0,12.84.03.23.02,7.8,0,22.93-.02,14.98-.38,25.45-.61,35.16-.28,11.67-.18,31.63,0,71.54.21,44.9.48,41.96.23,45.55-.83,11.56-1.73,14.36.08,18.04,8.37,17.04,53.94,10.44,74.6,7.95,10.91-1.32,58.94-.98,155.01-.31,93.51.66,198.54,14.14,203.31-4.59.64-2.5,1.06-11.74,1.22-15.29.49-10.71.1-18.69,0-21.1-.84-19.32.99-33.22,1.22-82.85.09-18.59-.21-7.93-.41-44.06-.08-14.58-3-29.12-2.34-43.69.27-6.07.87-13.4-2.45-14.98-3.97-1.89-11.18,5.62-13.45,7.95Z"/>
    <path class="cls-4" d="M377.44,682.06c-6.01,9.01,1.86,9.49,0,45.4-2.23,43.09-16.4,96.9-23.85,125.2-2.11,8.03-7.61,28.46,2.29,43.57,1.31,2,3.47,4.39,7.8,9.17,9.21,10.19,15.61,15.71,23.85,23.39,11.66,10.86,20.11,18.73,29.58,29.89,3.25,3.82,7.28,9.25,15.36,20.1,9.98,13.41,17.59,23.63,27.44,37.99,10.47,15.27,18.22,27.55,22.93,35.01,6.09,9.66,9.14,14.48,9.92,15.99,3.44,6.63,4.28,9.75,7.81,12.98,4.17,3.81,8.99,4.93,14.45,5.89,14.18,2.49,41.25,7.24,50.45-2.83.62-.68,2.99-3.43,5.66-7.03,2.61-3.53,4.29-6.23,5.66-8.41,4.71-7.5,3.57-5.27,10.09-15.52,7-11,7.39-12.11,11.77-18.96,2.49-3.89,5.26-8.07,14.37-20.87,11.13-15.64,16.69-23.47,20.48-28.36,0,0,16.37-21.1,42.65-47.54,7.33-7.37,10.95-10.76,10.95-10.76,6.73-6.29,7.37-6.32,8.62-8.12,2.43-3.51,4.86-10.41-1.15-27.97-6.17-18.03-15.33-30.08-15.82-30.73-31.82-41.98,17.21-146.63-7.34-159.59-3.01-1.59-5.92-1.17-8.25-.92-69.61,7.51-253.69-64.94-285.71-16.97Z"/>
  </g>
  <g id="Outline">
    <g>
      <path class="cls-6" d="M753.42,765.84c.03,3.17-.61,6.5-.59,9.28.23,32.05.73,64.18,1.03,96.22-12.03,3.4-22.69,11.93-32.09,19.97-9.45,8.09-18.3,17.02-27.49,25.41-1.64,1.51-4.04-1.74-5.19-3.05-6.93-7.88-12.92-21.69-16.38-31.61-16.89-48.37-15.6-114.13-5.83-164.03,1.15-5.88,3.97-21.41,7.2-25.53,3.77-4.82,9.93-10.01,14.18-14.72,14.43-15.98,27.85-32.83,41.97-49.09,2.44,10.11,4.94,20.39,9.44,29.82,3.3,6.92,7.62,12.7,12.62,18.46-.2,29.63.91,59.3,1.13,88.87Z"/>
      <path class="cls-6" d="M751.49,606.32l.81,62.73c-10.81-11.87-14.82-29.04-17.91-44.48-.02-1.06.71-1.69,1.28-2.44,4.07-5.38,11.42-10.42,15.82-15.81Z"/>
      <path class="cls-6" d="M751.78,561.3c-1.14,10.8,1.45,24.52,0,34.96-.61,4.44-12.91,15.79-16.73,18.98-.59.5-.53,1.76-1.82,1.44-1.59-7.63-1.88-15.43-2.74-23.17-4-35.93-7.28-72.09-11.44-108-3.1-26.75-6.35-53.58-13.12-79.66,0-2.27,2.65-2.79,4.12-4.09,4.81-4.24,9.26-8.93,14.2-13.06,2.47-2.08,18.44-14.77,20.17-14.74,1.2.03,6.02,6.75,6.27,8.43-.21,59.69.42,119.45,1.09,178.91Z"/>
      <path class="cls-6" d="M746.85,366.86c-.82.91-5.33-3.91-6.01-4.61-8.32-8.68-15.93-18.73-24.23-27.57-5.89-6.27-12.34-12.03-18.26-18.27-.03-1.36,8.67-.73,10.1-.79,1.46-.07,2.76-.59,4.31-.6,2.07,0,12.28.33,13.24,1.26,8.81,15.82,18.8,32.19,20.85,50.58Z"/>
      <path class="cls-6" d="M738.41,366.32c.42.55,1.05.69.81,1.64-7.16.62-14.35,1.19-21.56,1.12-5.57-.5-11.26-.87-16.85-1.14-1.61-.08-5.31.78-6.16-.11l-18.66-48.41c4.31-.15,10.47-2.68,14.56-2.56,1.1.03,1.95.69,2.85,1.23,14.84,15.46,31.93,31.28,45.01,48.23Z"/>
      <path class="cls-6" d="M709.26,294.04c1.59,1.62,12.55,14.82,12.51,15.83-.1,1.89-10.05.22-11.72.23-3.86.03-14.86,2.13-17.7.85l-36.82-31.35c-1.57-2.44,6.9-5.58,8.88-5.86,12.69-1.84,36.02,11.31,44.85,20.3Z"/>
      <path class="cls-6" d="M719.05,379.42c1.65,1.57-11.88,18.31-14.44,19.62l-4.9-15.27-.83-4.9,20.17.55Z"/>
      <path class="cls-5" d="M698.61,395.78c.48,1.91,1.77,5.51,1.26,7.24-.51,1.72-10.5,8.29-12.59,9.23-.45.2-1.17.93-1.48.16,1.32-3,3.07-5.78,4.23-8.85.78-2.04,3.4-10.24,3.4-11.87v-10.64c.93.15.98,1.06,1.25,1.75,1.39,3.66,2.96,9.14,3.93,12.98Z"/>
      <path class="cls-1" d="M688.45,378.4c1.9,1.19-.55,14.95-1.18,17.49-2.56,10.34-8.6,20.56-18.55,25.07-18.5,8.4-29.83-5.4-34.05-22.11,7.67-9.16,18.08-13.75,29.33-16.98,7.91-2.27,16.19-3.94,24.45-3.47Z"/>
      <path class="cls-2" d="M662.91,292.14l23.43,19.91c-.48.8-1.16.66-1.86.86-1.58.44-8.75,2.02-9.97,2.02-.41,0-.72-.02-1-.36l-10.6-22.43Z"/>
      <path class="cls-2" d="M649.52,282.84c.52-.34,1.4-.85,1.91-.49.16.11,1.09,2.81,1.57,3.61,4.68,7.82,9.41,15.6,13.1,23.98.53,1.21,2.63,5.37,2.03,6.23-24.87,6.73-47.79,19.04-65.73,37.61,2.11-6.32,5.89-12.51,9.17-18.37,8.46-15.09,19.22-32.72,30.89-45.46,1.44-1.58,5.6-6.16,7.06-7.11Z"/>
      <path class="cls-5" d="M643.02,423.04c.85.68,7.75,4.53,7.35,4.91-10.92,2.69-23.85,5.69-35.17,4.38-.76-.08-2.86-.57-2.93-1.36-.06-.83,6.33-13.31,7.34-14.97,2.97-4.86,6.97-9.01,10.86-13.13,2.59,7.56,6.18,15.06,12.55,20.17Z"/>
      <path class="cls-3" d="M583.33,658.95l22.33,8.19c-19.31,12.79-30.87,36.61-57.52,34.11-1.67-.15-9.23-2.05-10.07-3.01-1.49-1.7-.16-28.75-.31-33.05,11.58-1.89,22.79-6.61,34.55-7.43,3.91-.27,7.21.34,11.02,1.19Z"/>
      <path class="cls-3" d="M595.86,658.13c-4.97-.96-9.55-4.08-14.59-4.76-15.51-2.09-28.84,4.45-43.74,6.41l-.2-23.86c4.01-4.34,7.32-7.93,13.14-9.83,21.12-6.89,32.77,20.69,45.39,32.04Z"/>
      <path d="M578.81,558.2c1.28,6.84,3.01,26.02-7.73,25.78-6.09-.14-9.11-5.47-15.77-4.86-2.65.24-8.72,2.76-10.71.76-1.03-1.04-.72-3.14.58-3.82,3.51.01,8.64-2.43,11.73-2.48,4.51-.09,12.13,6.12,14.97,5.25,1.71-.52,2.17-2.48,2.57-4.02,1.41-5.46.1-14.5-1.64-19.88-.81-2.47-4.99-8.6-1.64-9.61,4.48-1.34,7.04,9.67,7.64,12.88Z"/>
      <path d="M326.54,299.48c-.09,16.82-.22,33.7.58,50.48l15.03-22.32c34.8-45.8,85.57-75.24,124.25-117.31,14.28-15.53,26.06-32.88,38.52-49.82,3.56-4.83,26.61-34.3,26.61-37.19V33.87c0-.83,2.59-2.28,3.54-.27.93,1.96.17,17.36.26,21.02.51,22.97.69,46.07.69,69.12,9.84,21.48,21.02,43.59,33.23,63.84,20.94,34.74,49.87,60.97,80.4,87.05,1.84,1.02,5.94-2.91,7.98-3.86,5.07-2.37,9.8-2.33,15.32-2.04l10.12,2.96c-26.19-19.44-52.45-38.09-74.69-62.17-18.39-19.91-39.66-49.98-48.76-75.57-.94-2.64-4.12-9.84-.81-11.2,3.02-1.23,4.2,7.11,5,9.18,15.67,40.39,47.57,78,80.85,105.1,20.02,16.31,41.3,31.43,61.6,47.46,8.83,6.97,21.55,14.12,28.59,22.66,4.33,5.27,5.14,7.65-2.43,9.01-.7.12-.99-.39-.82.78,5.5,9.02,10.14,18.48,14.43,28.12l4.09,10.9c-.08-13.18.11-26.38.03-39.57-.68-107.96-1.83-216.48-2.77-324.5-.09-10.04-.8-22.46,0-32.23.2-2.41.72-5.34,3.84-3.8,1.87.93.93,7.15,1.06,9.3,1.29,21.5.4,43.31.55,64.91,1.89,280.01,4.12,560.15,6.04,839.96.53,77.77,1.28,155.42,1.6,233.03-.42-.05-.87-.05-1.33.01.16-.02.26-.04.32-.05-.12,0-.43.03-.56.04-.36.01-.72.01-1.08,0-.66-.02-1.32-.05-1.98-.06-.18,0-.34.03-.51.06l-2.22-225.65c-1.19.27-2.25.59-3.25.95-3.63,1.31-6.17,2.95-7.32,3.74-11.81,8.02-40.84,32.51-44.84,38.36-.39.18-.74.44-1.04.79-1.15,1.32-2.39,2.5-3.53,3.81-.21-.09-.36-.15-.44-.14-.3.05-4.07,3.45-4.72,4.03-42.1,37.39-79.41,94.1-109.78,141.6-6.77,10.58-13.27,21.4-19.21,32.5-.23-.05-.46-.08-.7-.1-1.05-.08-2.09.05-3.14.04-.14-.01-.28.02-.43.04-.48-.05-.96-.08-1.44-.06,9.41-17.48,19.99-34.25,31.02-50.86,22.06-33.22,44.65-67.55,71.25-97.25,10.39-11.6,21.37-22.66,32.96-33.06.36-1.22-4.79-6.67-5.87-8.22-26.78-38.28-30.33-106.73-26.8-152.07,1.54-19.94,5.01-39.7,9.25-59.19-14.88,14.37-30.75,28.01-49.04,37.92-19.96,10.81-44.69,19.74-66.96,24.09-3,.59-7.48.62-10.07,1.38-.69.2-1.15.69-1.37,1.36-.1,20.51-.24,41.03-.13,61.55.35,65.51.16,131.36,1.13,196.86.09,5.93.57,14.01.01,19.69-.28,2.89-1.86,4.18-4.12,1.88-.76-93.38-.91-186.89-.87-280.31-11.67.05-23.52-.33-34.95-2.94-30.31-6.92-64.07-37.71-87.91-57.67-7.9-6.62-15.38-13.74-23.45-20.18l5.11,26.53c3.64,29.13,3.4,58.55,0,87.68-4.03,34.51-12.28,67.41-32.91,95.83l-.22,1.22c2.15,2.4,4.44,4.7,6.75,6.94,8.37,8.14,17.34,15.78,25.64,23.98,42.31,41.76,77.11,94.88,107.88,145.69,5.77,9.54,11.38,19.26,16.51,29.2-.13,0-.27-.03-.41-.03-.87-.02-1.73.09-2.6.07-.13,0-.27.03-.4.04-.66-.03-1.31-.04-1.97-.04-.14,0-.27.03-.41.05-4.35-8.37-8.98-16.6-13.78-24.59-15.73-26.21-34.15-54.16-51.56-79.32-19.32-27.91-41.5-52.4-65.79-75.98-12.46-12.09-28.23-28.19-42.09-38.07-1.85-1.32-9.14-6.42-10.8-6.66-1.12-.15-.72.1-.82.82-.43,3.03.15,7.17.02,10.4-2.06,49.96-.49,101.11-.54,151.05-.03,20.73-.44,62.19-.61,62.19-1.37.01-2.75.1-4.13.11-.2,0-.4.03-.6.07.31-63.88.21-127.73.38-191.65.79-292.5,1.8-585.7,2.78-878.14.08-26.51-.22-53.02.09-79.53.44-2.44,3.05-2.84,4.52-.94.42,38.77.36,77.66.29,116.48-.12,76.53-.69,153.44-1.14,230.13ZM752.83,775.12c-.02-2.78.62-6.11.59-9.28-.22-29.57-1.33-59.24-1.13-88.87-5-5.76-9.32-11.54-12.62-18.46-4.5-9.43-7-19.71-9.44-29.82-14.12,16.26-27.54,33.11-41.97,49.09-4.25,4.71-10.41,9.9-14.18,14.72-3.23,4.12-6.05,19.65-7.2,25.53-9.77,49.9-11.06,115.66,5.83,164.03,3.46,9.92,9.45,23.73,16.38,31.61,1.15,1.31,3.55,4.56,5.19,3.05,9.19-8.39,18.04-17.32,27.49-25.41,9.4-8.04,20.06-16.57,32.09-19.97-.3-32.04-.8-64.17-1.03-96.22ZM752.3,669.05l-.81-62.73c-4.4,5.39-11.75,10.43-15.82,15.81-.57.75-1.3,1.38-1.28,2.44,3.09,15.44,7.1,32.61,17.91,44.48ZM751.78,596.26c1.45-10.44-1.14-24.16,0-34.96-.67-59.46-1.3-119.22-1.09-178.91-.25-1.68-5.07-8.4-6.27-8.43-1.73-.03-17.7,12.66-20.17,14.74-4.94,4.13-9.39,8.82-14.2,13.06-1.47,1.3-4.12,1.82-4.12,4.09,6.77,26.08,10.02,52.91,13.12,79.66,4.16,35.91,7.44,72.07,11.44,108,.86,7.74,1.15,15.54,2.74,23.17,1.29.32,1.23-.94,1.82-1.44,3.82-3.19,16.12-14.54,16.73-18.98ZM740.84,362.25c.68.7,5.19,5.52,6.01,4.61-2.05-18.39-12.04-34.76-20.85-50.58-.96-.93-11.17-1.27-13.24-1.26-1.55.01-2.85.53-4.31.6-1.43.06-10.13-.57-10.1.79,5.92,6.24,12.37,12,18.26,18.27,8.3,8.84,15.91,18.89,24.23,27.57ZM739.22,367.96c.24-.95-.39-1.09-.81-1.64-13.08-16.95-30.17-32.77-45.01-48.23-.9-.54-1.75-1.2-2.85-1.23-4.09-.12-10.25,2.41-14.56,2.56l18.66,48.41c.85.89,4.55.03,6.16.11,5.59.27,11.28.64,16.85,1.14,7.21.07,14.4-.5,21.56-1.12ZM731.04,311.23c.77-.75-5.93-6.78-7.08-7.09-.25.28,3.17,5.66,3.56,5.98.86.72,2.42.9,3.52,1.11ZM728.35,622.99l.56-2.75c-5.99-45.71-9.42-91.72-14.77-137.46-2.89-24.82-6.43-49.56-11.99-73.91-1.74-.33-2.37,1.24-3.63,2.09-22.96,15.34-63.13,31.53-90.91,25.15-4.6-1.06.62-7.51,1.8-10.14,6.95-15.49,15.19-26.68,28.71-37.27,14.65-11.47,33.81-15.14,51.48-19.67.79-.92-6.84-20.22-7.89-22.88-3.34-8.42-7.17-16.7-10.73-25.01-26.97,5.54-51.08,20.47-69.41,40.81-2.38,2.65-5.27,8.79-9.27,8.78-2.21,0-2.62-1.44-2.19-3.32.8-3.54,5.18-11.67,6.99-15.39,9.38-19.22,22.51-41.83,35.84-58.5,4.25-5.32,9.21-10.01,13.57-15.21-21.66-19.55-44.36-38.29-62.63-61.18-18.49-23.18-29.97-49.05-44.27-74.62-.99-1.77-2.08-4.18-3.71-5.28.07,22.82-.11,45.65-.03,68.48.02,5.92-.03,12.04,0,17.95.51,134.37,1.33,268.68,1.11,403.12-.06.45.58,1.35.82,1.35.29,0,3.61-3.01,4.56-3.61,16.92-10.46,30.91-1.14,42.04,12.09,9.3,11.05,12.14,20.06,28.14,23.11,2.17.41,8.11-.34,5.93,4.41-.67,1.46-12.51,8.81-14.94,10.69-13.34,10.34-22.61,25.27-39.95,29.84-9.04,2.38-17.14,1.66-26.05-.7v55.91c0,.74,1.74.86,2.42.83,10.71-.35,29.95-6.62,40.39-10.36,37.67-13.46,61.26-31.17,88.78-59.53,20.91-21.55,39.63-45.11,59.23-67.82ZM721.77,309.87c.04-1.01-10.92-14.21-12.51-15.83-8.83-8.99-32.16-22.14-44.85-20.3-1.98.28-10.45,3.42-8.88,5.86l36.82,31.35c2.84,1.28,13.84-.82,17.7-.85,1.67-.01,11.62,1.66,11.72-.23ZM704.61,399.04c2.56-1.31,16.09-18.05,14.44-19.62l-20.17-.55.83,4.9,4.9,15.27ZM699.87,403.02c.51-1.73-.78-5.33-1.26-7.24-.97-3.84-2.54-9.32-3.93-12.98-.27-.69-.32-1.6-1.25-1.75v10.64c0,1.63-2.62,9.83-3.4,11.87-1.16,3.07-2.91,5.85-4.23,8.85.31.77,1.03.04,1.48-.16,2.09-.94,12.08-7.51,12.59-9.23ZM687.27,395.89c.63-2.54,3.08-16.3,1.18-17.49-8.26-.47-16.54,1.2-24.45,3.47-11.25,3.23-21.66,7.82-29.33,16.98,4.22,16.71,15.55,30.51,34.05,22.11,9.95-4.51,15.99-14.73,18.55-25.07ZM686.34,312.05l-23.43-19.91,10.6,22.43c.28.34.59.36,1,.36,1.22,0,8.39-1.58,9.97-2.02.7-.2,1.38-.06,1.86-.86ZM668.13,316.17c.6-.86-1.5-5.02-2.03-6.23-3.69-8.38-8.42-16.16-13.1-23.98-.48-.8-1.41-3.5-1.57-3.61-.51-.36-1.39.15-1.91.49-1.46.95-5.62,5.53-7.06,7.11-11.67,12.74-22.43,30.37-30.89,45.46-3.28,5.86-7.06,12.05-9.17,18.37,17.94-18.57,40.86-30.88,65.73-37.61ZM650.37,427.95c.4-.38-6.5-4.23-7.35-4.91-6.37-5.11-9.96-12.61-12.55-20.17-3.89,4.12-7.89,8.27-10.86,13.13-1.01,1.66-7.4,14.14-7.34,14.97.07.79,2.17,1.28,2.93,1.36,11.32,1.31,24.25-1.69,35.17-4.38ZM605.66,667.14l-22.33-8.19c-3.81-.85-7.11-1.46-11.02-1.19-11.76.82-22.97,5.54-34.55,7.43.15,4.3-1.18,31.35.31,33.05.84.96,8.4,2.86,10.07,3.01,26.65,2.5,38.21-21.32,57.52-34.11ZM581.27,653.37c5.04.68,9.62,3.8,14.59,4.76-12.62-11.35-24.27-38.93-45.39-32.04-5.82,1.9-9.13,5.49-13.14,9.83l.2,23.86c14.9-1.96,28.23-8.5,43.74-6.41ZM533.17,761.23v-57.27c-9.35,3.14-17.82,3.61-27.38.93-17.87-4.99-28.34-21.93-42.46-32.78-2.41-1.85-12.12-7.34-12.36-9.96-.32-3.42,3.73-2.65,5.55-2.98,18.53-3.4,19.45-11.69,30.58-23.95,9.73-10.72,22.15-19.14,37-12.46,3.34,1.51,5.76,4.2,9.06,5.38l-1.63-494.73c-21.16,25.69-38.43,54.35-60.77,79.1-18.37,20.36-39.84,37.75-60.79,55.36-.19,1.18.24.63.76.86,20.75,9.16,38.57,39.1,49.49,58.5,4.23,7.53,8.65,15.83,12.36,23.62,1.82,3.82,6.8,13.64,7.33,17.23.36,2.41-.57,3.6-3.04,3.05-3.15-.7-7.97-8.6-10.47-11.36-24.13-26.66-61.09-43.45-97.05-45.8-1.94-.13-9.24-.38-10.34.54-9.58,11.58-19.32,23.32-26.89,36.37-2.32,4.01-5.1,8.32-5.54,13-.14,1.43-.25,7.6.25,8.45.44.74,9.85,2.57,11.46,2.71,15.12,1.38,31-1.71,45.64,1.25,31.9,6.45,58.99,20.63,74.65,50.22.32,3.39,7.06,13.68,7.04,15.92-.03,2.67-4.56,2.8-6.87,2.98-26.54,2.08-62.11-10.63-83.61-25.97-15.96-11.38-29.69-28.98-46.45-39.15-.68-.41-1.2-1.06-2.12-.87l-.58,245.21c.08,1.94,3.05,2.58,4.88,3.85,14.49,10.01,28.7,25.67,42.03,37.58,24.48,21.87,49.61,43.9,75.52,64.06,24.94,19.4,45.35,32.71,78.49,31.12,2.08-.1,4.18.05,6.26-.01ZM533.17,658.96v-22.37c0-.5-6.08-6.34-7.13-7.05-10.8-7.28-20.45-4.42-29.68,3.5-11.77,10.08-17.61,27.14-34.61,30.28.03,2.28,26.42-7.29,28.24-7.75,15.27-3.91,27.69-2.54,41.93,4.13.44.19,1.17-.46,1.25-.74ZM533.09,698.16v-33.4c-6.52-1.06-12.4-4.8-18.87-5.94-16.93-2.97-31.73,5.25-47.55,9.41,12.35,9.1,21.45,24.01,35.78,30.2,9.81,4.23,21.12,4.82,30.64-.27ZM466.39,352.69c.61.51.89,1.32,1.91,1.08-7.22-14.69-14.84-29.3-23.76-43.04-7.06-10.89-21.69-31.72-33.65-36.69-2.02-.84-5.15-2.14-7.11-.91-13.4,10.86-26.47,22.19-38.43,34.64l.2,1.28c33.63,2.23,67.71,13.55,93.2,36.01,2.64,2.33,4.98,5.4,7.64,7.63ZM459.03,439.95c-3.74-8.27-6.76-16.03-12.55-23.16-.7-.85-5.33-6.12-5.72-6.28-.98-.41-.7.41-.85.75-4.75,10.7-8.82,17.16-20.13,21.89-.88.37-3.83.19-1.48,1.48,1.14.63,3.49,1.2,4.88,1.66,11.42,3.74,23.94,5.29,35.85,3.66ZM433.07,414.8c1.03-1.98,3.68-7.59,2.57-9.49-.83-1.41-5.93-5.59-7.5-6.71-9.77-7-23.59-10.52-35.25-12.58-10.73,14.42-6.56,38.81,12.58,43.44,11.08,2.68,22.62-5.08,27.6-14.66ZM387.01,802.89c5.16-40.82,4.39-83.77-6.79-123.44-13.04-11.44-25.37-23.76-38.38-35.23-2.24-1.97-13.68-12.27-15.54-12.27-.61,10.8-.15,21.66-.25,32.49-.26,27.89-.52,56.09-.6,83.95-.11,41.34.06,82.69.12,124.03,7.82,3.61,15.32,8.8,21.97,14.28,1.23,1.01,6.29,6.32,7.14,6.51.9.21,2.63-3,3.19-3.84,17.95-27.15,25.07-54.36,29.14-86.48ZM387.08,385.42c-11.46-.32-22.91,1.87-34.34.54,4.27,10.23,12.5,19.22,21,26.17,2.02,1.65,8.85,7.02,10.89,7.64.8.24.93-.07.82-.81-.25-1.7-2.11-4.91-2.58-7.24-1.88-9.15,0-18.11,4.21-26.3Z"/>
      <path class="cls-4" d="M536.98,626.78c.22-134.44-.6-268.75-1.11-403.12-.03-5.91.02-12.03,0-17.95-.08-22.83.1-45.66.03-68.48,1.63,1.1,2.72,3.51,3.71,5.28,14.3,25.57,25.78,51.44,44.27,74.62,18.27,22.89,40.97,41.63,62.63,61.18-4.36,5.2-9.32,9.89-13.57,15.21-13.33,16.67-26.46,39.28-35.84,58.5-1.81,3.72-6.19,11.85-6.99,15.39-.43,1.88-.02,3.31,2.19,3.32,4,.01,6.89-6.13,9.27-8.78,18.33-20.34,42.44-35.27,69.41-40.81,3.56,8.31,7.39,16.59,10.73,25.01,1.05,2.66,8.68,21.96,7.89,22.88-17.67,4.53-36.83,8.2-51.48,19.67-13.52,10.59-21.76,21.78-28.71,37.27-1.18,2.63-6.4,9.08-1.8,10.14,27.78,6.38,67.95-9.81,90.91-25.15,1.26-.85,1.89-2.42,3.63-2.09,5.56,24.35,9.1,49.09,11.99,73.91,5.35,45.74,8.78,91.75,14.77,137.46l-.56,2.75c-19.6,22.71-38.32,46.27-59.23,67.82-27.52,28.36-51.11,46.07-88.78,59.53-10.44,3.74-29.68,10.01-40.39,10.36-.68.03-2.42-.09-2.42-.83v-55.91c8.91,2.36,17.01,3.08,26.05.7,17.34-4.57,26.61-19.5,39.95-29.84,2.43-1.88,14.27-9.23,14.94-10.69,2.18-4.75-3.76-4-5.93-4.41-16-3.05-18.84-12.06-28.14-23.11-11.13-13.23-25.12-22.55-42.04-12.09-.95.6-4.27,3.61-4.56,3.61-.24,0-.88-.9-.82-1.35ZM571.08,583.98c10.74.24,9.01-18.94,7.73-25.78-.6-3.21-3.16-14.22-7.64-12.88-3.35,1.01.83,7.14,1.64,9.61,1.74,5.38,3.05,14.42,1.64,19.88-.4,1.54-.86,3.5-2.57,4.02-2.84.87-10.46-5.34-14.97-5.25-3.09.05-8.22,2.49-11.73,2.48-1.3.68-1.61,2.78-.58,3.82,1.99,2,8.06-.52,10.71-.76,6.66-.61,9.68,4.72,15.77,4.86Z"/>
      <path class="cls-3" d="M533.17,636.59v22.37c-.08.28-.81.93-1.25.74-14.24-6.67-26.66-8.04-41.93-4.13-1.82.46-28.21,10.03-28.24,7.75,17-3.14,22.84-20.2,34.61-30.28,9.23-7.92,18.88-10.78,29.68-3.5,1.05.71,7.13,6.55,7.13,7.05Z"/>
      <path class="cls-3" d="M533.1,664.76v33.4c-9.53,5.09-20.84,4.5-30.65.27-14.33-6.19-23.43-21.1-35.78-30.2,15.82-4.16,30.62-12.38,47.55-9.41,6.47,1.14,12.35,4.88,18.88,5.94Z"/>
      <path d="M522.32,577.08c2.42,8.08-9.69,1.55-13.36,1.98-3.56.42-8.08,4.67-12.6,4.92-13.66.78-8.63-25.71-5.43-33.29.78-1.83,2.09-5.51,4.35-5.51,5.1,0,.45,6.29-.29,8.48-1.66,4.92-4.85,20.93-.93,24.7,2.44,2.35,9.7-3.16,12.5-3.85,4.83-1.18,11.09,1.35,15.76,2.57Z"/>
      <path class="cls-2" d="M468.3,353.77c-1.02.24-1.3-.57-1.91-1.08-2.66-2.23-5-5.3-7.64-7.63-25.49-22.46-59.57-33.78-93.2-36.01l-.2-1.28c11.96-12.45,25.03-23.78,38.43-34.64,1.96-1.23,5.09.07,7.11.91,11.96,4.97,26.59,25.8,33.65,36.69,8.92,13.74,16.54,28.35,23.76,43.04Z"/>
      <path class="cls-5" d="M439.91,411.26c.15-.34-.13-1.16.85-.75.39.16,5.02,5.43,5.72,6.28,5.79,7.13,8.81,14.89,12.55,23.16-11.91,1.63-24.43.08-35.85-3.66-1.39-.46-3.74-1.03-4.88-1.66-2.35-1.29.6-1.11,1.48-1.48,11.31-4.73,15.38-11.19,20.13-21.89Z"/>
      <path class="cls-1" d="M435.64,405.31c1.11,1.9-1.54,7.51-2.57,9.49-4.98,9.58-16.52,17.34-27.6,14.66-19.14-4.63-23.31-29.02-12.58-43.44,11.66,2.06,25.48,5.58,35.25,12.58,1.57,1.12,6.67,5.3,7.5,6.71Z"/>
      <path class="cls-4" d="M409.97,267.87c20.95-17.61,42.42-35,60.79-55.36,22.34-24.75,39.61-53.41,60.77-79.1l1.63,494.73c-3.3-1.18-5.72-3.87-9.06-5.38-14.85-6.68-27.27,1.74-37,12.46-11.13,12.26-12.05,20.55-30.58,23.95-1.82.33-5.87-.44-5.55,2.98.24,2.62,9.95,8.11,12.36,9.96,14.12,10.85,24.59,27.79,42.46,32.78,9.56,2.68,18.03,2.21,27.38-.93v57.27c-2.08.06-4.18-.09-6.26.01-33.14,1.59-53.55-11.72-78.49-31.12-25.91-20.16-51.04-42.19-75.52-64.06-13.33-11.91-27.54-27.57-42.03-37.58-1.83-1.27-4.8-1.91-4.88-3.85l.58-245.21c.92-.19,1.44.46,2.12.87,16.76,10.17,30.49,27.77,46.45,39.15,21.5,15.34,57.07,28.05,83.61,25.97,2.31-.18,6.84-.31,6.87-2.98.02-2.24-6.72-12.53-7.04-15.92-15.66-29.59-42.75-43.77-74.65-50.22-14.64-2.96-30.52.13-45.64-1.25-1.61-.14-11.02-1.97-11.46-2.71-.5-.85-.39-7.02-.25-8.45.44-4.68,3.22-8.99,5.54-13,7.57-13.05,17.31-24.79,26.89-36.37,1.1-.92,8.4-.67,10.34-.54,35.96,2.35,72.92,19.14,97.05,45.8,2.5,2.76,7.32,10.66,10.47,11.36,2.47.55,3.4-.64,3.04-3.05-.53-3.59-5.51-13.41-7.33-17.23-3.71-7.79-8.13-16.09-12.36-23.62-10.92-19.4-28.74-49.34-49.49-58.5-.52-.23-.95.32-.76-.86ZM508.96,579.06c3.67-.43,15.78,6.1,13.36-1.98-4.67-1.22-10.93-3.75-15.76-2.57-2.8.69-10.06,6.2-12.5,3.85-3.92-3.77-.73-19.78.93-24.7.74-2.19,5.39-8.48.29-8.48-2.26,0-3.57,3.68-4.35,5.51-3.2,7.58-8.23,34.07,5.43,33.29,4.52-.25,9.04-4.5,12.6-4.92Z"/>
      <path class="cls-6" d="M380.22,679.45c11.18,39.67,11.95,82.62,6.79,123.44-4.07,32.12-11.19,59.33-29.14,86.48-.56.84-2.29,4.05-3.19,3.84-.85-.19-5.91-5.5-7.14-6.51-6.65-5.48-14.15-10.67-21.97-14.28-.06-41.34-.23-82.69-.12-124.03.08-27.86.34-56.06.6-83.95.1-10.83-.36-21.69.25-32.49,1.86,0,13.3,10.3,15.54,12.27,13.01,11.47,25.34,23.79,38.38,35.23Z"/>
      <path class="cls-5" d="M385.45,418.96c.11.74-.02,1.05-.82.81-2.04-.62-8.87-5.99-10.89-7.64-8.5-6.95-16.73-15.94-21-26.17,11.43,1.33,22.88-.86,34.34-.54-4.21,8.19-6.09,17.15-4.21,26.3.47,2.33,2.33,5.54,2.58,7.24Z"/>
    </g>
  </g>
  <g id="Mulan_1">
    <path class="cls-6" d="M324.39,352.94c.93.32,1.87-.28,3.52-1.38,4.98-3.3,6.8-7.82,9.94-13.15,1.92-3.25,4.31-6.2,6.42-9.32,6.99-10.37,14.78-18.51,19.87-23.85,4.97-5.21,6.94-6.75,25.68-23.08,21.21-18.49,19.13-16.9,29.2-25.53,23.61-20.24,21.08-17.01,29.66-24.92,4.48-4.13,20.76-19.37,38.22-41.89,7.25-9.35,14.32-18.47,21.71-30.27,0,0,6.53-10.43,14.83-20.79,4.47-5.58,5.4-4.89,7.03-7.95.29-.54.93-1.82,1.83-1.83,1-.02,1.7,1.51,2.6,3.06,1.68,2.88,2.33,2.82,4.59,5.96,4.44,6.18,8.1,14.22,8.1,14.22,6.13,13.44,17.43,33.47,18.04,34.55,9.22,16.3,18.69,27.43,26.45,36.54,5.92,6.96,13.4,15.68,24.61,25.53,12.07,10.61,13.09,9.02,18.65,15.75.97,1.18,8.15,9.95,16.82,14.98.98.57,2.24,1.24,3.97,1.53,5.23.87,8.88-2.73,13.3-4.74,0,0,5.17-2.37,16.81-1.07,3.19.36,16.54,2.67,36.76,39.44,14.95,27.19,19.72,47.86,24.53,47.01,2.47-.44,3.6-6.31,4.59-11.46,1.87-9.73.57-17.54.23-19.72-1.81-11.55-.1-23.39-.23-35.08-.05-4.6-.03-19.18,0-48.15.04-37.06.07-38.06,0-44.03-.25-21.54-.86-30.15-1.38-47.69-1.45-48.97.51-74.88,0-121.07-.28-25.31-.91-21.93-.58-32.8.37-12.03,1.12-15.12-.57-19.94-5.12-14.66-24.06-20.53-29.58-22.24-30.98-9.6-61.58,2.85-73.15,7.11-32.37,11.93-80.59,9.86-177.02,5.73,0,0-118.38-5.07-136.89,14.45-9.51,10.02-9.4,18.57-9.4,18.57.02,1.34.25,5.02.46,7.8.38,5.06.81,8.72.92,9.63.97,8.6.3,19.2,0,28.2-.02.48-.01,9.49,0,27.52.02,31.33.24,34.62.23,55.03,0,11.57-.16,24.68-.46,50.9-.34,29.76-.44,29.77-.69,53.2-.51,47.47-.07,39.26-.46,55.03-.31,12.38.72,24.8-.23,37.15-.78,10.12-2.31,21.91,1.07,23.08Z"/>
  </g>
</svg>