<?xml version="1.0" encoding="UTF-8"?>
<svg id="Outline" xmlns="http://www.w3.org/2000/svg" viewBox="0 0 1080 1080">
  <path d="M319.49,1128.32c.49-72.28.32-144.52.52-216.84.79-292.5,1.8-585.7,2.77-878.13.09-26.51-.22-53.03.1-79.54.44-2.43,3.04-2.84,4.51-.94.42,38.77.36,77.67.3,116.48-.13,76.53-.7,153.44-1.14,230.13-.1,16.82-.22,33.7.58,50.48l15.03-22.31c34.8-45.8,85.57-75.24,124.25-117.31,14.28-15.53,26.07-32.88,38.52-49.82,3.56-4.84,26.61-34.3,26.61-37.19V33.87c0-.83,2.59-2.28,3.54-.27.93,1.96.17,17.36.25,21.02.51,22.97.69,46.07.7,69.12,9.84,21.48,21.02,43.59,33.23,63.84,20.94,34.74,49.87,60.97,80.4,87.05,1.84,1.02,5.94-2.91,7.98-3.86,5.07-2.36,9.8-2.33,15.32-2.04l10.13,2.96c-26.2-19.44-52.45-38.09-74.69-62.17-18.39-19.91-39.66-49.98-48.76-75.57-.94-2.64-4.12-9.84-.81-11.19,3.02-1.24,4.21,7.11,5.01,9.18,15.66,40.39,47.57,78,80.85,105.1,20.02,16.3,41.3,31.43,61.6,47.45,8.84,6.97,21.55,14.12,28.59,22.67,4.34,5.26,5.14,7.64-2.43,9-.7.12-.98-.39-.81.79,5.5,9.01,10.14,18.47,14.43,28.11l4.09,10.9c-.08-13.18.11-26.38.03-39.57-.68-107.96-1.82-216.48-2.77-324.5-.09-10.04-.8-22.46,0-32.23.2-2.41.73-5.34,3.84-3.8,1.87.92.93,7.14,1.06,9.3,1.29,21.5.4,43.31.55,64.91,1.89,280.01,4.12,560.14,6.04,839.95.55,79.74,1.33,159.34,1.64,238.91.02,6.46-.06,12.93-.02,19.39h-4.91l-2.47-250.91c-4.26.97-6.93,2.52-10.57,4.68-16.48,9.82-30.13,25.78-44.77,38.11-1.55,2.35.98,1.52,1.09,3.88.24,5.37-5.46.71-6.16.84-.31.05-4.07,3.45-4.72,4.03-42.11,37.38-79.41,94.09-109.79,141.6-11.8,18.45-22.82,37.6-31.39,57.77h-6c11.93-26.95,27.24-51.74,43.49-76.21,22.06-33.22,44.65-67.55,71.25-97.25,10.39-11.6,21.37-22.66,32.96-33.06.36-1.21-4.78-6.67-5.87-8.21-26.78-38.28-30.33-106.73-26.81-152.08,1.55-19.94,5.01-39.7,9.26-59.19-14.88,14.37-30.75,28.01-49.04,37.92-19.95,10.81-44.68,19.74-66.96,24.09-3,.59-7.48.62-10.07,1.38-.68.2-1.14.69-1.37,1.36-.09,20.51-.24,41.04-.13,61.55.35,65.51.16,131.37,1.14,196.86.09,5.93.57,14,0,19.69-.29,2.89-1.86,4.18-4.12,1.88-.76-93.38-.91-186.88-.87-280.31-11.67.06-23.52-.33-34.95-2.94-30.31-6.92-64.07-37.71-87.91-57.67-7.91-6.62-15.39-13.74-23.45-20.17l5.11,26.52c3.63,29.13,3.4,58.55,0,87.68-4.03,34.51-12.28,67.4-32.91,95.83l-.21,1.21c2.15,2.4,4.43,4.7,6.74,6.94,8.37,8.14,17.34,15.77,25.65,23.97,42.31,41.76,77.11,94.88,107.87,145.7,10.57,17.46,20.61,35.49,28.12,54.5h-5.45c-7.19-17.11-16.18-33.89-25.73-49.8-15.73-26.21-34.15-54.16-51.56-79.32-19.32-27.91-41.5-52.4-65.79-75.98-12.45-12.09-28.23-28.19-42.09-38.07-1.85-1.32-9.14-6.42-10.8-6.66-1.11-.16-.72.1-.82.81-.43,3.03.16,7.17.02,10.4-2.06,49.96-.49,101.12-.54,151.05-.03,29.19.29,58.45-.57,87.57h-4.91ZM533.17,761.23v-57.27c-9.35,3.14-17.82,3.61-27.37.94-17.87-5-28.35-21.93-42.46-32.79-2.41-1.85-12.12-7.33-12.37-9.96-.32-3.41,3.74-2.65,5.55-2.98,18.53-3.4,19.46-11.69,30.58-23.94,9.74-10.72,22.16-19.14,37-12.46,3.34,1.5,5.77,4.19,9.07,5.37l-1.64-494.72c-21.16,25.69-38.43,54.35-60.77,79.1-18.37,20.35-39.84,37.75-60.78,55.36-.2,1.18.24.63.75.86,20.75,9.16,38.57,39.1,49.49,58.5,4.24,7.53,8.66,15.83,12.37,23.62,1.82,3.82,6.8,13.64,7.33,17.23.36,2.41-.58,3.6-3.04,3.05-3.14-.7-7.97-8.6-10.47-11.36-24.13-26.66-61.09-43.45-97.05-45.8-1.94-.13-9.24-.37-10.34.55-9.58,11.58-19.32,23.32-26.89,36.37-2.32,4.01-5.1,8.32-5.55,13-.14,1.44-.24,7.6.26,8.45.44.74,9.85,2.57,11.46,2.72,15.12,1.37,31-1.71,45.63,1.25,31.9,6.45,58.99,20.63,74.65,50.22.32,3.4,7.06,13.69,7.04,15.92-.02,2.67-4.56,2.8-6.87,2.98-26.54,2.08-62.11-10.62-83.61-25.96-15.96-11.39-29.69-28.99-46.45-39.15-.68-.41-1.2-1.06-2.12-.87l-.58,245.21c.08,1.95,3.05,2.59,4.87,3.85,14.49,10.02,28.7,25.67,42.03,37.58,24.49,21.88,49.62,43.9,75.53,64.06,24.94,19.4,45.35,32.71,78.48,31.12,2.08-.1,4.18.06,6.26,0ZM537.53,703.96v55.91c0,.74,1.74.86,2.42.84,10.71-.35,29.95-6.63,40.39-10.36,37.67-13.46,61.25-31.17,88.78-59.53,20.91-21.55,39.63-45.11,59.23-67.82l.55-2.75c-5.98-45.71-9.42-91.72-14.76-137.46-2.9-24.82-6.44-49.56-12-73.91-1.74-.32-2.36,1.25-3.63,2.09-22.96,15.34-63.13,31.53-90.91,25.15-4.6-1.06.62-7.5,1.8-10.14,6.96-15.5,15.19-26.69,28.71-37.27,14.65-11.47,33.81-15.14,51.48-19.67.79-.92-6.84-20.22-7.89-22.88-3.33-8.42-7.16-16.7-10.72-25-26.97,5.53-51.08,20.47-69.41,40.81-2.39,2.65-5.28,8.79-9.27,8.78-2.21,0-2.62-1.44-2.19-3.31.8-3.54,5.19-11.68,7-15.39,9.38-19.23,22.51-41.83,35.84-58.51,4.25-5.32,9.21-10,13.57-15.21-21.66-19.54-44.36-38.28-62.63-61.18-18.49-23.17-29.97-49.04-44.27-74.61-.99-1.77-2.08-4.18-3.71-5.28.07,22.82-.11,45.65-.03,68.48.02,5.92-.03,12.04,0,17.95.52,134.37,1.33,268.68,1.11,403.12-.06.45.58,1.35.82,1.35.29,0,3.61-3.01,4.56-3.61,16.91-10.46,30.91-1.14,42.03,12.08,9.3,11.06,12.15,20.06,28.14,23.11,2.18.41,8.11-.34,5.93,4.41-.67,1.46-12.51,8.81-14.94,10.69-13.34,10.34-22.61,25.27-39.96,29.84-9.04,2.38-17.14,1.66-26.05-.7ZM468.3,353.77c-7.21-14.69-14.84-29.3-23.76-43.04-7.07-10.89-21.69-31.73-33.65-36.69-2.02-.84-5.14-2.14-7.11-.92-13.4,10.86-26.47,22.19-38.43,34.64l.19,1.28c33.64,2.23,67.71,13.55,93.2,36.01,2.65,2.33,4.99,5.4,7.64,7.62.61.51.89,1.32,1.91,1.08ZM664.42,273.74c-1.98.29-10.45,3.42-8.88,5.87l36.83,31.35c2.83,1.29,13.84-.82,17.7-.85,1.67-.01,11.62,1.66,11.72-.23.05-1.01-10.92-14.21-12.51-15.84-8.83-8.99-32.15-22.14-44.84-20.3ZM651.44,282.35c-.52-.36-1.39.16-1.91.5-1.46.95-5.62,5.53-7.07,7.11-11.67,12.74-22.43,30.37-30.89,45.46-3.29,5.86-7.06,12.05-9.17,18.37,17.94-18.57,40.86-30.87,65.72-37.61.61-.86-1.49-5.01-2.03-6.22-3.69-8.38-8.42-16.16-13.1-23.98-.48-.8-1.41-3.5-1.57-3.62ZM662.92,292.14l10.59,22.43c.28.34.6.36,1.01.36,1.22,0,8.39-1.58,9.97-2.03.7-.2,1.38-.06,1.86-.86l-23.42-19.91ZM731.05,311.23c.77-.75-5.93-6.78-7.08-7.09-.26.28,3.17,5.66,3.55,5.98.86.72,2.43.89,3.52,1.1ZM726.01,316.28c-.96-.93-11.18-1.27-13.25-1.26-1.55.01-2.84.53-4.31.59s-10.13-.56-10.1.8c5.92,6.24,12.37,12,18.26,18.27,8.3,8.84,15.91,18.89,24.24,27.57.67.7,5.19,5.53,6.01,4.62-2.05-18.39-12.04-34.76-20.85-50.59ZM739.22,367.96c.24-.94-.39-1.09-.81-1.64-13.08-16.94-30.17-32.77-45.01-48.23-.89-.54-1.74-1.2-2.85-1.23-4.09-.12-10.25,2.42-14.56,2.56l18.67,48.41c.85.89,4.55.02,6.16.11,5.59.28,11.27.64,16.85,1.14,7.2.08,14.39-.49,21.56-1.12ZM735.05,615.25c3.82-3.2,16.12-14.54,16.74-18.99,1.44-10.44-1.15-24.15,0-34.96-.68-59.46-1.3-119.21-1.09-178.91-.26-1.68-5.08-8.4-6.28-8.43-1.72-.03-17.69,12.66-20.17,14.74-4.93,4.13-9.39,8.83-14.2,13.06-1.47,1.3-4.12,1.82-4.11,4.08,6.76,26.08,10.02,52.91,13.12,79.66,4.16,35.91,7.44,72.07,11.44,108.01.86,7.74,1.15,15.53,2.74,23.17,1.29.32,1.23-.95,1.82-1.44ZM688.45,378.4c-8.26-.47-16.54,1.2-24.45,3.47-11.25,3.23-21.65,7.82-29.33,16.98,4.22,16.71,15.56,30.51,34.06,22.11,9.95-4.51,15.99-14.73,18.55-25.07.63-2.54,3.08-16.3,1.17-17.49ZM719.06,379.42l-20.17-.55.82,4.9,4.9,15.27c2.56-1.31,16.09-18.05,14.44-19.62ZM693.44,381.05v10.64c0,1.63-2.63,9.84-3.4,11.87-1.17,3.08-2.91,5.86-4.24,8.85.32.78,1.03.05,1.48-.16,2.09-.94,12.09-7.51,12.6-9.23.51-1.73-.78-5.33-1.26-7.24-.97-3.84-2.54-9.32-3.93-12.97-.26-.69-.32-1.61-1.24-1.75ZM387.08,385.42c-11.46-.32-22.9,1.87-34.34.54,4.27,10.23,12.5,19.22,21,26.16,2.02,1.66,8.86,7.02,10.9,7.64.8.24.93-.06.82-.81-.25-1.69-2.11-4.9-2.58-7.24-1.87-9.14,0-18.11,4.21-26.3ZM392.9,386.03c-10.74,14.42-6.57,38.8,12.58,43.44,11.07,2.68,22.61-5.08,27.6-14.66,1.03-1.98,3.68-7.59,2.56-9.49-.82-1.41-5.92-5.58-7.49-6.71-9.77-7-23.59-10.52-35.25-12.57ZM650.37,427.95c.4-.38-6.5-4.24-7.35-4.92-6.37-5.1-9.96-12.61-12.55-20.17-3.9,4.12-7.89,8.27-10.86,13.13-1.01,1.66-7.4,14.14-7.34,14.97.06.79,2.17,1.28,2.92,1.36,11.32,1.31,24.25-1.69,35.17-4.38ZM459.04,439.95c-3.74-8.27-6.76-16.03-12.55-23.16-.7-.86-5.32-6.12-5.71-6.28-.98-.41-.71.41-.86.75-4.74,10.7-8.82,17.15-20.12,21.89-.88.37-3.83.19-1.48,1.48,1.15.63,3.49,1.2,4.88,1.65,11.42,3.74,23.94,5.29,35.85,3.67ZM752.3,669.05l-.81-62.72c-4.4,5.38-11.75,10.43-15.82,15.8-.57.75-1.3,1.38-1.28,2.44,3.09,15.44,7.1,32.62,17.91,44.48ZM595.86,658.14c-12.61-11.35-24.27-38.93-45.39-32.05-5.82,1.9-9.13,5.5-13.14,9.83l.2,23.86c14.9-1.96,28.24-8.5,43.74-6.41,5.04.68,9.62,3.79,14.59,4.76ZM533.17,658.96v-22.36c0-.5-6.08-6.35-7.12-7.05-10.8-7.29-20.45-4.42-29.68,3.49-11.77,10.08-17.61,27.15-34.61,30.29.03,2.28,26.42-7.29,28.24-7.75,15.27-3.91,27.69-2.54,41.93,4.13.44.19,1.17-.46,1.25-.74ZM753.87,871.34c-.31-32.04-.81-64.16-1.04-96.22-.02-2.78.62-6.11.59-9.28-.22-29.58-1.33-59.25-1.13-88.87-5-5.76-9.32-11.54-12.62-18.46-4.5-9.43-7-19.71-9.44-29.82-14.12,16.26-27.54,33.11-41.97,49.1-4.25,4.7-10.41,9.9-14.19,14.72-3.23,4.12-6.04,19.65-7.19,25.53-9.77,49.9-11.06,115.66,5.83,164.03,3.46,9.92,9.45,23.73,16.38,31.61,1.15,1.31,3.55,4.56,5.19,3.05,9.19-8.39,18.04-17.32,27.5-25.4,9.4-8.04,20.06-16.58,32.09-19.98ZM325.57,872.42c7.82,3.61,15.33,8.8,21.97,14.28,1.23,1.01,6.29,6.32,7.14,6.51.9.2,2.63-3,3.19-3.85,17.96-27.15,25.07-54.36,29.14-86.48,5.17-40.82,4.39-83.77-6.78-123.44-13.05-11.45-25.37-23.76-38.38-35.23-2.24-1.98-13.67-12.27-15.54-12.27-.61,10.8-.15,21.66-.26,32.48-.26,27.9-.52,56.09-.59,83.95-.11,41.34.06,82.7.12,124.03ZM572.31,657.76c-11.76.82-22.96,5.54-34.54,7.43.14,4.3-1.18,31.35.3,33.04.84.96,8.4,2.86,10.07,3.02,26.66,2.5,38.21-21.32,57.52-34.11l-22.33-8.19c-3.81-.85-7.11-1.46-11.02-1.19ZM533.1,664.76c-6.52-1.06-12.4-4.8-18.87-5.93-16.93-2.97-31.73,5.24-47.56,9.4,12.35,9.1,21.45,24.02,35.78,30.2,9.81,4.23,21.12,4.82,30.65-.27v-33.4Z"/>
  <path d="M494.07,578.36c2.44,2.35,9.7-3.16,12.5-3.84,4.83-1.18,11.09,1.34,15.76,2.57,2.42,8.08-9.69,1.54-13.36,1.98s-8.08,4.66-12.61,4.92c-13.66.78-8.63-25.71-5.43-33.29.78-1.84,2.09-5.52,4.35-5.52,5.1,0,.44,6.3-.29,8.48-1.66,4.92-4.85,20.93-.93,24.69Z"/>
  <path d="M571.17,545.33c4.48-1.34,7.04,9.67,7.64,12.87,1.29,6.84,3.01,26.02-7.73,25.78-6.09-.14-9.11-5.46-15.77-4.86-2.65.24-8.72,2.77-10.7.76-1.03-1.04-.72-3.14.57-3.82,3.52,0,8.64-2.43,11.73-2.49,4.51-.09,12.14,6.13,14.98,5.26,1.7-.52,2.16-2.49,2.56-4.03,1.41-5.46.11-14.5-1.64-19.88-.8-2.47-4.99-8.6-1.64-9.61Z"/>
</svg>