<?xml version="1.0" encoding="UTF-8"?>
<svg id="Outline" xmlns="http://www.w3.org/2000/svg" viewBox="0 0 1080 1080">
  <defs>
    <style>
      .cls-1 {
        fill: none;
        stroke: #000;
        stroke-miterlimit: 10;
        stroke-width: 6px;
      }
    </style>
  </defs>
  <path class="cls-1" d="M454.57,289.49c-1.82,9.98-6.72,43.95,12.91,78.56,13.92,24.54,33.43,37.52,43.05,43.05"/>
  <path class="cls-1" d="M477.17,332.54c4.85-6.74,12.84-16.52,24.75-25.83,13.39-10.46,16.72-8.6,30.13-18.29,0,0,8.54-6.17,38.74-40.9h0"/>
  <path class="cls-1" d="M582.63,252.9c.94,9.02-.68,15.42-2.15,19.37-6.04,16.27-20.06,19.74-25.83,36.59-2.13,6.22-2.27,11.76-2.15,15.07"/>
  <path class="cls-1" d="M598.78,249.67c7.59,5.86,22.09,18.89,27.98,39.82,5.96,21.18-.26,38.45-9.69,64.57-5.97,16.56-13.95,37.85-34.44,53.81-7.33,5.71-13.07,10.18-21.52,10.76-23.36,1.62-41.82-28.11-48.43-38.74-5.4-8.69-12.69-23.02-16.14-43.05"/>
  <path class="cls-1" d="M619.22,382.04c8.72-6.21,23.36-18.48,33.36-38.74,13.21-26.78,17.13-65.12-1.08-92.55-2.76-4.15-14.39-13.53-37.67-32.29-24.65-19.86-31.9-23.71-40.9-24.75-16.26-1.89-30.11,6.32-37.66,11.84"/>
  <path class="cls-1" d="M581.56,177.57c-1.18-7.38-5.66-29.21-24.75-46.28-6.78-6.07-25.45-22.76-49.5-18.3-16.85,3.13-35.62,16.5-37.67,34.44-1.49,13.01,6.33,23.94,10.76,30.13,7.74,10.83,17.23,16.61,22.6,19.37"/>
  <path class="cls-1" d="M565.41,167.88c-4.32.02-13.75.66-23.68,6.46-11.02,6.44-16.33,15.55-18.29,19.37"/>
  <path class="cls-1" d="M562.46,176.22c-5.02,4.84-10.04,9.69-15.07,14.53"/>
  <path class="cls-1" d="M485.24,192.37c-3.5,2.75-3.31,10.7,0,14.53,4.07,4.71,12.41,2.63,12.64,4.31.22,1.58-6.91,5.15-15.33,5.65-8.61.51-10.84-2.65-16.14-.54-4.23,1.69-8.76,6.08-8.88,11.57,0,.25-.04,5.15,3.5,8.34.84.76,2.5,1.98,12.91,3.77,5.76.99,6.63.85,6.99,1.61,1.96,4.12-20.26,14.92-18.29,21.52,1.22,4.1,11.46,5.59,18.83,4.57,6.91-.95,7.44-3.56,12.11-3.23,8.73.61,10.11,9.98,18.56,11.57,7.09,1.33,16.56-3.3,19.1-9.95,4.08-10.66-11.06-22.69-6.46-29.06,1.85-2.57,4.69-1.13,11.57-3.5,9.25-3.18,19.25-10.98,18.29-15.87-.9-4.6-10.86-3.5-27.44-8.61-25.67-7.91-36.26-21.17-41.97-16.68Z"/>
  <path class="cls-1" d="M495.46,225.19c-.81.7-6.62,5.74-5.38,8.34.7,1.47,3.61,1.45,9.42,1.35,17.84-.33,19.66-.56,20.18-1.88.41-1.05.34-3.63-7.8-9.95"/>
  <path class="cls-1" d="M527.75,419.17c2.25,3.22,8.41,12.93,8.07,26.64-.4,15.78-9.15,26.11-11.57,28.79"/>
  <path class="cls-1" d="M598.24,407.06c-.9,3.33-2.68,11.71.54,21.52,2.66,8.1,7.43,13.23,9.95,15.6"/>
  <path class="cls-1" d="M611.42,412.17c11.77.79,20.81,5.63,22.87,12.64.62,2.1,1.3,6.75-5.38,16.68-4.71,7.01-15.14,19.68-36.59,28.79"/>
  <path class="cls-1" d="M516.72,445c-15.15,8.4-25.13,23.34-25.29,39.28-.24,23.01,20.09,37.4,25.02,40.89,4,2.83,7.71,4.7,10.49,5.92"/>
  <path class="cls-1" d="M512.41,464.64c-.95,4.33-3.77,19.62,4.57,35.78,6.97,13.51,17.82,20.05,22.06,22.33"/>
  <path class="cls-1" d="M564.07,495.58c-.93,7.59-3.59,20.79-12.38,34.44-5.84,9.06-12.46,15.34-17.49,19.37"/>
  <path class="cls-1" d="M634.02,438.27c-.54,4.05-.77,10.24,1.61,16.95,2.86,8.08,8.21,13.24,16.68,20.18,14.25,11.67,26.26,19.26,27.71,20.18,26.94,17.05,40.41,25.58,48.7,36.05,3.56,4.49,7.9,11.06,15.87,35.24,6.06,18.4,13.39,44.46,18.56,77.22"/>
  <path class="cls-1" d="M635.91,482.4c-19.3,10.5-46.06,27.93-72.1,55.69-30.3,32.31-46.96,65.11-55.96,86.9"/>
  <path class="cls-1" d="M671.96,504.73c-17.66,8.13-45.68,23.73-72.1,52.19-23.21,25-36.18,50.24-43.32,67.26"/>
  <path class="cls-1" d="M493.58,524.1c-2.92,8.37-7.33,24.64-4.57,44.93,2.22,16.32,8.16,28.59,12.37,35.78"/>
  <path class="cls-1" d="M514.57,535.4c-.96,5.49-1.76,13.93,0,23.94,1.5,8.57,4.35,15.32,6.73,19.91"/>
  <path class="cls-1" d="M473.67,557.73c-5.04,9.01-10.75,21.41-14.53,36.86-2.59,10.62-3.68,20.23-4.04,28.25"/>
  <path class="cls-1" d="M483.89,495.31c-11.67,4.19-29,11.47-47.89,23.94-23.06,15.23-30.71,26.49-51.66,41.7-12.77,9.27-32.23,21.29-59.73,30.94"/>
  <path class="cls-1" d="M360.13,611.27c-46.39-2.56-61.86-10.3-66.72-17.49-.75-1.11-2.92-4.68-7.27-6.73-7.79-3.66-17.27.1-23.95,3.77"/>
  <path class="cls-1" d="M274.58,609.65c2.74,4.62,8.42,12.8,18.56,19.37,12.7,8.23,25.18,9.29,30.67,9.42"/>
  <path class="cls-1" d="M205.16,659.7c5.93,12.63,16.23,30.76,33.63,48.7,15.92,16.41,32.09,26.78,43.85,33.09"/>
  <path class="cls-1" d="M319.24,737.45c11.35-12.85,31.48-32.41,61.88-47.62,27.84-13.93,53.22-18.67,69.68-20.45"/>
  <path class="cls-1" d="M461.03,650.01c31.18-10.27,54.8-9.23,70.49-6.46,23.48,4.15,35.4,13.26,68.07,19.91,19.5,3.97,35.83,4.91,46.28,5.11"/>
  <path class="cls-1" d="M671.42,603.2c-.86,16.93-3.11,37-8.07,59.19-4.86,21.73-11.21,40.5-17.49,55.96"/>
  <path class="cls-1" d="M454.03,658.62c2.96,15.94,7.96,35.44,16.68,56.77,8.03,19.63,17.19,35.88,25.56,48.7"/>
  <path class="cls-1" d="M499.23,745.52c3.48,2.52,7.96,5.25,13.45,7.53,11.13,4.63,21.25,5.27,27.71,5.11"/>
  <path class="cls-1" d="M605.5,724.27c-26.05,12.75-39.54,26.26-47.08,36.59-1.92,2.63-4.15,6.01-8.34,9.95-12.68,11.94-28.79,15.4-40.63,16.41"/>
  <path class="cls-1" d="M768.81,609.38c13.31,2.35,36.68,8.4,59.73,25.83,9.29,7.03,20.9,23.97,44.12,57.84.86,1.25,2.93,4.34,1.88,5.92-2.14,3.24-15.09-3.24-26.9-5.92-15.47-3.51-27.75-.23-45.74,4.57-35.8,9.56-62.45,30.9-75.06,42.24"/>
  <path class="cls-1" d="M660.39,746.06c14.46-3.12,41.04-10.87,67.53-31.75,29.79-23.48,43.86-51.25,49.77-65.11"/>
  <g>
    <path class="cls-1" d="M794.37,714.04c5.36,9.5,10.91,20.82,15.87,33.9,4.03,10.63,6.97,20.6,9.15,29.6"/>
    <path class="cls-1" d="M815.63,719.69c.68-2.65,2.46-8.05,7.26-12.91,6.88-6.97,15.26-8.1,17.76-8.34"/>
    <path class="cls-1" d="M618.15,730.99c4.53,10.41,13.6,26.37,30.67,33.63,7.01,2.98,12.94,3.46,34.71,4.04,30.01.8,39.89.45,48.16.81,15.63.67,37.79,4.36,64.84,18.3"/>
    <path class="cls-1" d="M541.74,803.1c-3.11,19.68-5.26,46.23-1.88,77.22,4.07,37.39,14.66,67.23,23.68,87.44"/>
    <path class="cls-1" d="M566.49,923.9c-.08-15.27,1.52-36.5,8.88-60.54,9.75-31.85,25.35-54.73,36.32-68.34"/>
    <path class="cls-1" d="M592.05,850.45c7.87-8.09,20.67-19.31,39.01-28.25,22.2-10.82,42.44-13.39,54.62-13.99"/>
    <path class="cls-1" d="M650.16,840.22c9,9.7,23.68,22.91,44.93,32.55,43.38,19.69,84.08,10.92,97.93,7.26"/>
    <path class="cls-1" d="M760.2,901.84c4.57,6.24,11.46,17.37,14.8,32.82,2.49,11.54,2.14,21.46,1.35,28.25"/>
  </g>
</svg>