<?xml version="1.0" encoding="UTF-8"?>
<svg xmlns="http://www.w3.org/2000/svg" viewBox="0 0 1080 1080">
  <defs>
    <style>
      .cls-1 {
        fill: #f3cdb9;
      }

      .cls-2 {
        fill: #f48fb1;
      }

      .cls-3 {
        fill: #3b2f2a;
      }

      .cls-4 {
        fill: none;
        stroke: #000;
        stroke-miterlimit: 10;
        stroke-width: 6px;
      }

      .cls-5 {
        fill: #e9a2b3;
      }

      .cls-6 {
        fill: #a5c583;
      }
    </style>
  </defs>
  <g id="Mulan_3">
    <path class="cls-6" d="M560.74,965.01c-7.62-13.57-13.85-42.64-15.59-50.75-4.07-19.01-5.28-33.47-6.42-47.08-3.13-37.44,10.74-51.9.61-63.9-9.76-11.57-28.9-8.43-29.04-13.15-.15-4.81,19.96-2.4,38.22-17.12,10.66-8.59,18.02-20.89,30.27-30.57,5.09-4.02,7.63-6.03,10.4-7.64,4.7-2.74,7.11-3.27,10.09-6.42,3.42-3.62,2.86-5.7,4.89-6.42,4.85-1.72,12.75,8.5,16.81,13.76,8.66,11.2,7.45,13.89,13.15,19.57,6.8,6.76,14.57,8.96,22.93,11.31,6.3,1.78,12.5,2.75,33.63,3.06,24.51.36,24.09-.82,36.69,0,14.91.98,26,3.32,36.08,5.5,19.42,4.2,29.14,6.3,33.63,10.39,9.67,8.82,9.81,24.04,10.09,54.47.14,15.03-1.34,27.43-9.17,37.87-2.07,2.76-4.1,4.73-4.59,5.2-13.57,13.05-28.84,10.52-30.88,17.43-1.15,3.91,2.91,7.58,6.11,11.92,13.42,18.22,8.74,44.51,7.64,48.92-10.41,41.86-183.03,61.57-215.54,3.67Z"/>
    <path class="cls-6" d="M202.42,660.81c-6.67-38.67,54.39-71.06,58.7-72.76,6.03-2.38,11.92-2.75,11.92-2.75h0c6.05-.59,8.78.36,9.48.61,2.63.96,3.79,2.23,7.34,5.2,5.79,4.84,8.69,7.26,10.09,7.64,6.71,1.85,10.57-6.15,23.85-9.78,5.4-1.48,5.13-.25,11.62-1.53,4.08-.8,12.56-2.93,36.99-19.26,3.9-2.61,7.22-4.82,11.92-8.25,22.75-16.6,23.89-22.16,40.36-33.94,8.01-5.73,17.37-10.75,36.08-20.79,2.35-1.26,12.91-6.9,22.32-11.92,2.13-1.14,7.7-1.33,9.17-4.89.76-1.83.05-3.32-.31-5.5-.82-5.04,1-9.08,3.67-14.98,1.61-3.57,1.97-3.13,10.7-15.29,5-6.97,6.92-9.94,8.56-9.48,1.55.44,1.9,3.7,2.14,6.11.65,6.68-.98,11.39-2.14,16.2-.55,2.29-2.33,9.66-2.14,16.51.28,10.3,4.98,18,6.73,20.79,2.84,4.54,10.8,17.24,20.18,16.82,6.36-.29,7.95-6.37,21.71-23.24,13.33-16.34,20.19-24.58,30.27-28.13,7.85-2.76,11.48-1.2,18.04-5.81,8.56-6.02,14.68-14.37,14.68-14.37,2.41-3.29,4.24-6.48,6.11-6.11,1.62.32,2.18,3.07,3.06,6.11,0,0,2.55,8.89,7.64,17.43,3.31,5.55,7.72,8.19,13.15,11.62,15.72,9.94,30.47,21.34,45.86,31.8,12.67,8.61,19.01,12.91,21.71,15.59,12.25,12.16,17.44,25.24,22.32,37.91,8.49,22.05,3.94,23.61,13.76,52.28,4.64,13.55,7.24,17.81,8.25,27.97.34,3.35,1.6,18.33-4.13,33.48-4.74,12.54-11.56,18.03-59.62,51.82-26.06,18.33-32.61,22.73-40.36,20.18-11.73-3.86-17.91-20.91-19.26-32.56-2.53-21.83,10.61-35.78,3.21-44.48-2.19-2.57-4.76-3.03-15.13-4.59-35.48-5.32-40.84-5.25-50.9-7.8-15.62-3.95-12.91-6.67-31.64-11.92-7.59-2.13-20.77-5.25-37.6-5.96-22.45-.95-42.74,2.76-49.07,11.01-3.09,4.02-4.13,6.88-4.13,6.88-2.22,6.09-.57,10.64-3.21,12.38-1.82,1.2-4.39.22-5.04,0-8.44-2.87-36.44,5.06-59.16,15.13-23.23,10.3-50.75,22.5-62.83,43.57-1.05,1.83-2.93,5.37-6.88,8.71-10.54,8.9-27.38,9.23-39.9,4.13-3.94-1.61-6.65-3.43-16.97-12.38-17.09-14.84-25.63-22.26-34.4-32.1-16.8-18.87-25.2-28.31-26.75-37.3Z"/>
  </g>
  <g id="Mulan_4">
    <path class="cls-3" d="M524.97,420.89c-7.62-4.79-13.71-6.88-16.51-8.03-8.73-3.56-14.22-10.02-25.22-22.93-12.56-14.74-19.28-22.63-24.08-35.54-5.18-13.93-.92-14.32-6.65-47.24-.56-3.2-1.72-9.64-.69-17.89.61-4.89,1.95-8.73,4.62-16.39,2.63-7.53,3.7-8.68,5.01-9.06,3.3-.96,4.98,3.85,11.69,5.04,3.96.71,7.66-.21,10.55-.92,5.05-1.25,4.77-2.37,7.57-2.52,2.4-.13,3.96.62,13.53,5.96,6.1,3.41,6.9,3.91,8.71,4.13,5.82.7,10.36-2.87,10.78-3.21,5.29-4.3,5.69-11.08,5.73-12.61.29-9.7-7.53-14.14-5.04-19.72.92-2.06,2.83-3.05,6.65-5.04,7.69-4.01,11.07-1.96,16.05-5.04,5.98-3.71,9.46-11.83,7.34-14.9-1.1-1.59-3.15-1.04-10.78-1.61-8.04-.59-15.05-1.11-15.82-3.67-.53-1.77,2.18-3.97,5.73-6.88,3.6-2.95,5.55-3.49,10.78-7.11,0,0,2.54-1.76,5.5-4.13,7.25-5.8,7.96-8.41,13.76-13.53,4.72-4.16,11.3-9.97,15.82-8.03.55.24,2.16,1.05,4.13,6.42,3.58,9.77.68,13.7,3.21,19.72,1.75,4.15,4.04,4.47,13.99,12.15,8.07,6.23,8.04,7.17,16.05,13.76,20.15,16.57,23.9,13.57,31.87,23.16,7.56,9.1,9.93,18.69,12.38,28.66,1.35,5.47,3.99,18.22,2.29,34.39-2.9,27.71-17.55,56.28-35.54,69.25-1.9,1.37-4.64,3.14-7.57,6.65-9.8,11.75-4.63,22.56-9.4,32.56-10.68,22.41-62.64,22.66-77.04,11.01-.98-.79-4.27-3.65-9.4-6.88Z"/>
    <path class="cls-1" d="M529.32,402.08c0,.35.76,1.61,2.29,4.13.99,1.63,1.88,2.96,2.52,3.9-.83,3.56-2.3,5.95-3.67,7.57-1.86,2.19-3.52,2.92-3.67,4.59-.17,1.85,1.61,3.73,4.36,5.5,0,0,2.69,3.59,4.13,10.32,2.8,13.11-9.86,20.23-9.4,36,.11,3.69.33,11.28,5.27,15.59,9.94,8.67,31.66-2.25,50.9-11.92,21.71-10.92,32.57-16.37,34.62-26.83,2.46-12.48-7.7-26.52-16.05-38.06-1.48-2.05-3.21-4.12-5.5-6.19-5.09-4.59-10.15-6.61-12.61-7.57-17.51-6.81-53.07-1.93-53.2,2.98Z"/>
    <path class="cls-5" d="M463.29,649.04c-5.47,3.93-7,7.65-7.57,9.63-1.56,5.48.68,10.39,2.06,13.76,5.3,12.95,1.52,12.11,7.34,29.58,6.58,19.78,10.88,19.2,20.87,44.71,1.88,4.79,3.8,10.12,7.57,18.8,8.82,20.35,12.81,24.7,16.28,24.54,2.38-.11,2.48-2.25,7.11-4.59,5.15-2.6,8.78-1.85,13.3-2.52,6.88-1.02,11.38-4.67,18.34-10.32,6.71-5.44,6.98-7.67,16.28-18.34,7.58-8.7,16.44-17.58,28.2-24.08,4.26-2.35,8.41-4.11,13.07-3.21,4.52.88,7.57,3.88,10.55,6.88,5.2,5.24,6.25,8.78,9.4,13.3,6.41,9.18,15.28,13.46,20.18,15.82,6.94,3.35,12.96,4.37,25.22,5.5,21.69,2.01,40.68,2.34,55.26,2.52,12.68.16,20.12.2,31.18,1.38,19.82,2.11,29.69,5.6,33.25,12.61.96,1.9,1.37,3.87,3.44,5.04,4.72,2.68,12.52-2,17.59-5.04,2.75-1.65,1.85-1.54,6.61-4.67,2.59-1.71,3.69-2.29,3.77-3.36.13-1.76-2.67-2.7-4.82-4.82-3.38-3.32-3.33-7.75-3.9-12.15-2.01-15.61-10.01-17.64-7.57-24.54,2.48-7.01,11.91-8.22,11.92-15.13,0-1.93-.73-1.96-.69-4.13.1-5.06,4.23-10.45,9.4-12.61,6.02-2.51,11.36.23,12.84-2.52.98-1.82-.91-3.89.46-5.96,1.08-1.63,3.29-1.93,4.36-2.06,9.39-1.15,15.78,9.16,23.62,6.88.3-.09,3.96-1.2,5.04-4.13,1.88-5.06-5.3-11.87-9.17-15.82-16.5-16.83-9.81-19.13-25.68-35.31-5.35-5.45-16.17-12.5-37.83-26.6-13.7-8.92-21.54-13.42-30.96-11.92-1.42.23-9.87,1.57-12.15,7.11-1.36,3.3.26,6.18,1.6,11.24,2.28,8.56,2.11,17.11,1.38,20.18-2.88,12.06-32.99,16.73-115.34,21.1-5.75.3-13.07,1.61-23.16,1.15-5.46-.25-16.61-1.14-49.76-11.24-20.95-6.38-20.47-7.24-31.18-9.63-16.8-3.75-29.18-4.14-37.6-4.36-25.9-.67-35.09,3.72-40.13,7.34Z"/>
    <path class="cls-5" d="M515.34,442.21c2-1.02,3.61-.56,11.92-3.21,5.54-1.76,6.66-2.55,7.8-1.83,3.49,2.19.43,14.23-2.29,21.55-3.78,10.18-7.47,12.87-6.19,17.43,1.83,6.49,11.54,8.97,12.38,9.17,12.66,3.07,19.2-6.9,45.63-15.36,1.67-.54,3.66-1.14,6.19-2.52,7.08-3.86,15.57-12.24,15.59-21.55.02-6.25-3.79-6.1-6.88-16.51-2.99-10.07-2.5-20.62.69-21.78,1.41-.52,2.49,1.13,7.34,1.83,2.26.33,3.73.22,4.82.23,5.28.02,13,2.73,17.66,8.71.87,1.12,3.64,4.77,4.13,9.86.75,7.87-4.4,14.61-11.92,22.24-11.81,11.97-19.79,16.32-28.43,23.16-27.95,22.13-29.59,44.1-49.76,46.55-2.2.27-6.68.76-11.69-1.15-14.37-5.45-18.33-24.91-20.87-37.38-.32-1.59-6.69-34.04,3.9-39.44Z"/>
    <path class="cls-3" d="M575.11,165.98c-8.98-6.09-25.16,4.49-33.48,9.94-9.63,6.3-13.85,11.79-16.36,16.51-1.77,3.33-4.75,8.95-2.45,12.99,2.46,4.31,9.55,4.4,12.23,4.43,22.28.29,48.3-23.35,44.48-37.61-.11-.42-1.13-4.03-4.43-6.27Z"/>
    <path class="cls-2" d="M483.46,193.19c-1.96,1.74-1.77,6.19,0,9.17,2.99,5.04,9.75,4.61,10.09,7.57.29,2.49-4.27,4.88-4.59,5.04-7.79,4-13.68-2.82-21.55.46-5.78,2.41-8.08,8.35-8.48,9.4-.43,1.11-3.04,7.85,0,11.24,1.04,1.16,2.28,1.41,13.07,2.98,5.07.74,6.17.88,6.65,1.83.55,1.09.14,2.94-7.11,11.69-5.9,7.13-8.2,9.02-7.57,11.01.9,2.81,6.81,3.26,9.17,3.44,10.89.83,13.75-4.88,20.18-2.98,6.45,1.91,5.44,8.22,13.3,10.78,5.12,1.67,10.05.46,12.84-.23,4.14-1.02,7.83-1.92,10.09-5.04,3.6-4.97,1.27-12.32.23-15.59-2.81-8.86-8.01-11.5-6.65-15.36.44-1.26,1.48-2.36,9.4-5.27,13.29-4.89,17.84-4.52,19.95-8.48,1.63-3.06,1.01-7.21-.92-9.63-2.76-3.46-7.9-2.97-12.61-3.21-6.74-.34-18.33-5.43-41.5-15.59-6.79-2.98-11.64-5.29-13.99-3.21Z"/>
    <path class="cls-1" d="M487.36,321.14c-.85,5.06,2,8.02,6.42,16.17,9.22,16.97,4.91,18.97,13.45,35.2,5.92,11.25,12.3,18.47,18.76,25.8,8.59,9.73,13.79,13.33,18.23,15.71,9.23,4.93,15.41,4.68,16.85,4.59,5.06-.31,9.04-2.14,12.5-4.13,18.9-10.89,32.1-32.45,32.1-32.45,8.42-13.76,11.91-25.21,16.51-40.36,5.77-18.99,8.66-28.48,7.68-37.15-1.1-9.82-3.71-8.02-21.67-46.43-1.75-3.75-3.5-7.56-7.57-10.89-8.92-7.31-24.05-8.26-32.1-1.49-3.17,2.67-2.14,3.93-6.42,11.35-6.2,10.76-13.74,17.42-21.78,24.54-3.81,3.37-8.17,7.19-14.68,11.35-9.37,5.99-11.88,5.43-21.1,11.24-9.16,5.76-16.05,10.1-17.2,16.97Z"/>
    <path class="cls-3" d="M566.85,252.2c1.15-.84,3.13-2.1,5.81-2.9,9.69-2.91,15.7,4.05,24.31,2.29,6.5-1.33,13.02-7.32,12.38-11.46-1.33-8.58-34.52-16.83-42.65-4.74-3.56,5.3-1.29,13,.15,16.82Z"/>
    <path class="cls-3" d="M526.04,194.72c-1.46,4.58-1.34,7.42-3.67,9.02-1.95,1.34-4.88,1.32-9.94-.61-8.3-3.16-14.23-8.38-21.55-16.05-8.72-9.13-13.08-13.7-15.59-18.5-3.13-5.98-8.01-15.29-5.35-26.14,2.59-10.59,10.84-16.48,15.59-19.87,11.02-7.87,22.31-8.65,26.14-8.87,14.45-.81,25.11,4.69,31.8,8.25,21.08,11.23,39.99,33.31,35.31,42.5-2.06,4.04-8.94,6.11-13.6,6.27-5.08.18-5.72-1.96-10.4-2.14-11.25-.43-20.38,11.46-22.17,13.91-4.78,6.57-6.57,12.23-6.57,12.23Z"/>
  </g>
  <g id="Outline">
    <g>
      <path class="cls-4" d="M454.57,289.49c-1.82,9.98-6.72,43.95,12.91,78.56,13.92,24.54,33.43,37.52,43.05,43.05"/>
      <path class="cls-4" d="M477.17,332.54c4.85-6.74,12.84-16.52,24.75-25.83,13.39-10.46,16.72-8.6,30.13-18.29,0,0,8.54-6.17,38.74-40.9h0"/>
      <path class="cls-4" d="M582.63,252.9c.94,9.02-.68,15.42-2.15,19.37-6.04,16.27-20.06,19.74-25.83,36.59-2.13,6.22-2.27,11.76-2.15,15.07"/>
      <path class="cls-4" d="M598.78,249.67c7.59,5.86,22.09,18.89,27.98,39.82,5.96,21.18-.26,38.45-9.69,64.57-5.97,16.56-13.95,37.85-34.44,53.81-7.33,5.71-13.07,10.18-21.52,10.76-23.36,1.62-41.82-28.11-48.43-38.74-5.4-8.69-12.69-23.02-16.14-43.05"/>
      <path class="cls-4" d="M619.22,382.04c8.72-6.21,23.36-18.48,33.36-38.74,13.21-26.78,17.13-65.12-1.08-92.55-2.76-4.15-14.39-13.53-37.67-32.29-24.65-19.86-31.9-23.71-40.9-24.75-16.26-1.89-30.11,6.32-37.66,11.84"/>
      <path class="cls-4" d="M581.56,177.57c-1.18-7.38-5.66-29.21-24.75-46.28-6.78-6.07-25.45-22.76-49.5-18.3-16.85,3.13-35.62,16.5-37.67,34.44-1.49,13.01,6.33,23.94,10.76,30.13,7.74,10.83,17.23,16.61,22.6,19.37"/>
      <path class="cls-4" d="M565.41,167.88c-4.32.02-13.75.66-23.68,6.46-11.02,6.44-16.33,15.55-18.29,19.37"/>
      <path class="cls-4" d="M562.46,176.22c-5.02,4.84-10.04,9.69-15.07,14.53"/>
      <path class="cls-4" d="M485.24,192.37c-3.5,2.75-3.31,10.7,0,14.53,4.07,4.71,12.41,2.63,12.64,4.31.22,1.58-6.91,5.15-15.33,5.65-8.61.51-10.84-2.65-16.14-.54-4.23,1.69-8.76,6.08-8.88,11.57,0,.25-.04,5.15,3.5,8.34.84.76,2.5,1.98,12.91,3.77,5.76.99,6.63.85,6.99,1.61,1.96,4.12-20.26,14.92-18.29,21.52,1.22,4.1,11.46,5.59,18.83,4.57,6.91-.95,7.44-3.56,12.11-3.23,8.73.61,10.11,9.98,18.56,11.57,7.09,1.33,16.56-3.3,19.1-9.95,4.08-10.66-11.06-22.69-6.46-29.06,1.85-2.57,4.69-1.13,11.57-3.5,9.25-3.18,19.25-10.98,18.29-15.87-.9-4.6-10.86-3.5-27.44-8.61-25.67-7.91-36.26-21.17-41.97-16.68Z"/>
      <path class="cls-4" d="M495.46,225.19c-.81.7-6.62,5.74-5.38,8.34.7,1.47,3.61,1.45,9.42,1.35,17.84-.33,19.66-.56,20.18-1.88.41-1.05.34-3.63-7.8-9.95"/>
      <path class="cls-4" d="M527.75,419.17c2.25,3.22,8.41,12.93,8.07,26.64-.4,15.78-9.15,26.11-11.57,28.79"/>
      <path class="cls-4" d="M598.24,407.06c-.9,3.33-2.68,11.71.54,21.52,2.66,8.1,7.43,13.23,9.95,15.6"/>
      <path class="cls-4" d="M611.42,412.17c11.77.79,20.81,5.63,22.87,12.64.62,2.1,1.3,6.75-5.38,16.68-4.71,7.01-15.14,19.68-36.59,28.79"/>
      <path class="cls-4" d="M516.72,445c-15.15,8.4-25.13,23.34-25.29,39.28-.24,23.01,20.09,37.4,25.02,40.89,4,2.83,7.71,4.7,10.49,5.92"/>
      <path class="cls-4" d="M512.41,464.64c-.95,4.33-3.77,19.62,4.57,35.78,6.97,13.51,17.82,20.05,22.06,22.33"/>
      <path class="cls-4" d="M564.07,495.58c-.93,7.59-3.59,20.79-12.38,34.44-5.84,9.06-12.46,15.34-17.49,19.37"/>
      <path class="cls-4" d="M634.02,438.27c-.54,4.05-.77,10.24,1.61,16.95,2.86,8.08,8.21,13.24,16.68,20.18,14.25,11.67,26.26,19.26,27.71,20.18,26.94,17.05,40.41,25.58,48.7,36.05,3.56,4.49,7.9,11.06,15.87,35.24,6.06,18.4,13.39,44.46,18.56,77.22"/>
      <path class="cls-4" d="M635.91,482.4c-19.3,10.5-46.06,27.93-72.1,55.69-30.3,32.31-46.96,65.11-55.96,86.9"/>
      <path class="cls-4" d="M671.96,504.73c-17.66,8.13-45.68,23.73-72.1,52.19-23.21,25-36.18,50.24-43.32,67.26"/>
      <path class="cls-4" d="M493.58,524.1c-2.92,8.37-7.33,24.64-4.57,44.93,2.22,16.32,8.16,28.59,12.37,35.78"/>
      <path class="cls-4" d="M514.57,535.4c-.96,5.49-1.76,13.93,0,23.94,1.5,8.57,4.35,15.32,6.73,19.91"/>
      <path class="cls-4" d="M473.67,557.73c-5.04,9.01-10.75,21.41-14.53,36.86-2.59,10.62-3.68,20.23-4.04,28.25"/>
      <path class="cls-4" d="M483.89,495.31c-11.67,4.19-29,11.47-47.89,23.94-23.06,15.23-30.71,26.49-51.66,41.7-12.77,9.27-32.23,21.29-59.73,30.94"/>
      <path class="cls-4" d="M360.13,611.27c-46.39-2.56-61.86-10.3-66.72-17.49-.75-1.11-2.92-4.68-7.27-6.73-7.79-3.66-17.27.1-23.95,3.77"/>
      <path class="cls-4" d="M274.58,609.65c2.74,4.62,8.42,12.8,18.56,19.37,12.7,8.23,25.18,9.29,30.67,9.42"/>
      <path class="cls-4" d="M205.16,659.7c5.93,12.63,16.23,30.76,33.63,48.7,15.92,16.41,32.09,26.78,43.85,33.09"/>
      <path class="cls-4" d="M319.24,737.45c11.35-12.85,31.48-32.41,61.88-47.62,27.84-13.93,53.22-18.67,69.68-20.45"/>
      <path class="cls-4" d="M461.03,650.01c31.18-10.27,54.8-9.23,70.49-6.46,23.48,4.15,35.4,13.26,68.07,19.91,19.5,3.97,35.83,4.91,46.28,5.11"/>
      <path class="cls-4" d="M671.42,603.2c-.86,16.93-3.11,37-8.07,59.19-4.86,21.73-11.21,40.5-17.49,55.96"/>
      <path class="cls-4" d="M454.03,658.62c2.96,15.94,7.96,35.44,16.68,56.77,8.03,19.63,17.19,35.88,25.56,48.7"/>
      <path class="cls-4" d="M499.23,745.52c3.48,2.52,7.96,5.25,13.45,7.53,11.13,4.63,21.25,5.27,27.71,5.11"/>
      <path class="cls-4" d="M605.5,724.27c-26.05,12.75-39.54,26.26-47.08,36.59-1.92,2.63-4.15,6.01-8.34,9.95-12.68,11.94-28.79,15.4-40.63,16.41"/>
      <path class="cls-4" d="M768.81,609.38c13.31,2.35,36.68,8.4,59.73,25.83,9.29,7.03,20.9,23.97,44.12,57.84.86,1.25,2.93,4.34,1.88,5.92-2.14,3.24-15.09-3.24-26.9-5.92-15.47-3.51-27.75-.23-45.74,4.57-35.8,9.56-62.45,30.9-75.06,42.24"/>
      <path class="cls-4" d="M660.39,746.06c14.46-3.12,41.04-10.87,67.53-31.75,29.79-23.48,43.86-51.25,49.77-65.11"/>
      <g>
        <path class="cls-4" d="M794.37,714.04c5.36,9.5,10.91,20.82,15.87,33.9,4.03,10.63,6.97,20.6,9.15,29.6"/>
        <path class="cls-4" d="M815.63,719.69c.68-2.65,2.46-8.05,7.26-12.91,6.88-6.97,15.26-8.1,17.76-8.34"/>
        <path class="cls-4" d="M618.15,730.99c4.53,10.41,13.6,26.37,30.67,33.63,7.01,2.98,12.94,3.46,34.71,4.04,30.01.8,39.89.45,48.16.81,15.63.67,37.79,4.36,64.84,18.3"/>
        <path class="cls-4" d="M541.74,803.1c-3.11,19.68-5.26,46.23-1.88,77.22,4.07,37.39,14.66,67.23,23.68,87.44"/>
        <path class="cls-4" d="M566.49,923.9c-.08-15.27,1.52-36.5,8.88-60.54,9.75-31.85,25.35-54.73,36.32-68.34"/>
        <path class="cls-4" d="M592.05,850.45c7.87-8.09,20.67-19.31,39.01-28.25,22.2-10.82,42.44-13.39,54.62-13.99"/>
        <path class="cls-4" d="M650.16,840.22c9,9.7,23.68,22.91,44.93,32.55,43.38,19.69,84.08,10.92,97.93,7.26"/>
        <path class="cls-4" d="M760.2,901.84c4.57,6.24,11.46,17.37,14.8,32.82,2.49,11.54,2.14,21.46,1.35,28.25"/>
      </g>
    </g>
  </g>
</svg>