<?xml version="1.0" encoding="UTF-8"?>
<svg id="Outline" xmlns="http://www.w3.org/2000/svg" viewBox="0 0 1080 1080">
  <defs>
    <style>
      .cls-1 {
        fill: none;
        stroke: #000;
        stroke-miterlimit: 10;
        stroke-width: 6px;
      }
    </style>
  </defs>
  <path class="cls-1" d="M432.29,337.97c-2.29,12.58-8.47,55.41,16.28,99.05,17.55,30.93,42.14,47.31,54.27,54.27"/>
  <path class="cls-1" d="M460.79,392.24c6.12-8.49,16.18-20.82,31.21-32.56,16.88-13.19,21.08-10.84,37.99-23.06,0,0,10.77-7.78,48.84-51.56h0"/>
  <path class="cls-1" d="M593.75,291.84c1.18,11.37-.86,19.44-2.72,24.42-7.62,20.51-25.29,24.88-32.56,46.13-2.68,7.84-2.87,14.83-2.71,19"/>
  <path class="cls-1" d="M614.1,287.77c9.57,7.39,27.84,23.81,35.28,50.2,7.52,26.7-.33,48.47-12.21,81.41-7.53,20.88-17.59,47.72-43.42,67.84-9.25,7.2-16.47,12.83-27.14,13.57-29.45,2.04-52.73-35.44-61.06-48.84-6.8-10.95-16-29.03-20.35-54.27"/>
  <path class="cls-1" d="M639.88,454.65c11-7.83,29.46-23.29,42.06-48.84,16.66-33.77,21.59-82.1-1.36-116.68-3.47-5.24-18.15-17.06-47.49-40.7-31.08-25.04-40.22-29.89-51.56-31.21-20.51-2.38-37.96,7.97-47.49,14.92"/>
  <path class="cls-1" d="M592.4,196.86c-1.49-9.3-7.14-36.82-31.21-58.34-8.55-7.65-32.09-28.69-62.41-23.07-21.24,3.94-44.9,20.8-47.49,43.42-1.87,16.4,7.98,30.18,13.57,37.99,9.76,13.65,21.72,20.95,28.49,24.42"/>
  <path class="cls-1" d="M572.04,184.65c-5.45.03-17.33.83-29.85,8.14-13.9,8.12-20.59,19.6-23.06,24.42"/>
  <path class="cls-1" d="M568.31,195.17c-6.33,6.11-12.66,12.21-19,18.32"/>
  <path class="cls-1" d="M470.96,215.52c-4.41,3.47-4.17,13.5,0,18.32,5.13,5.93,15.65,3.31,15.94,5.43.28,1.99-8.71,6.5-19.33,7.12-10.86.64-13.67-3.34-20.35-.68-5.33,2.13-11.05,7.66-11.19,14.59,0,.31-.05,6.5,4.41,10.52,1.06.95,3.15,2.49,16.28,4.75,7.26,1.25,8.36,1.07,8.82,2.04,2.47,5.19-25.54,18.81-23.06,27.14,1.53,5.17,14.44,7.04,23.75,5.77,8.71-1.19,9.38-4.48,15.26-4.07,11,.77,12.75,12.58,23.4,14.59,8.94,1.68,20.87-4.16,24.08-12.55,5.14-13.44-13.94-28.6-8.14-36.63,2.34-3.24,5.91-1.42,14.59-4.41,11.66-4.01,24.27-13.84,23.06-20.01-1.13-5.8-13.69-4.41-34.6-10.85-32.36-9.97-45.72-26.69-52.91-21.03Z"/>
  <path class="cls-1" d="M483.85,256.9c-1.03.88-8.34,7.23-6.78,10.52.88,1.86,4.56,1.83,11.87,1.7,22.49-.41,24.79-.71,25.44-2.37.52-1.32.42-4.57-9.84-12.55"/>
  <path class="cls-1" d="M524.56,501.46c2.84,4.06,10.61,16.3,10.18,33.58-.5,19.9-11.54,32.92-14.59,36.29"/>
  <path class="cls-1" d="M613.43,486.2c-1.14,4.2-3.38,14.77.68,27.14,3.35,10.21,9.37,16.69,12.55,19.67"/>
  <path class="cls-1" d="M630.05,492.64c14.84,1,26.24,7.1,28.83,15.94.78,2.64,1.64,8.51-6.78,21.03-5.94,8.84-19.08,24.81-46.13,36.29"/>
  <path class="cls-1" d="M510.65,534.03c-19.1,10.59-31.68,29.43-31.89,49.52-.3,29.01,25.33,47.16,31.55,51.56,5.04,3.57,9.73,5.93,13.23,7.46"/>
  <path class="cls-1" d="M505.22,558.79c-1.2,5.46-4.75,24.73,5.77,45.11,8.79,17.03,22.46,25.28,27.81,28.15"/>
  <path class="cls-1" d="M570.35,597.8c-1.17,9.57-4.52,26.21-15.6,43.42-7.36,11.43-15.71,19.34-22.05,24.42"/>
  <path class="cls-1" d="M658.54,525.55c-.68,5.1-.97,12.91,2.03,21.37,3.61,10.18,10.35,16.69,21.03,25.44,17.96,14.71,33.11,24.29,34.94,25.44,33.97,21.5,50.95,32.25,61.4,45.45,4.48,5.67,9.97,13.94,20.01,44.43,7.64,23.2,16.88,56.05,23.4,97.35"/>
  <path class="cls-1" d="M660.91,581.18c-24.33,13.24-58.08,35.21-90.91,70.21-38.21,40.73-59.21,82.09-70.55,109.56"/>
  <path class="cls-1" d="M706.37,609.33c-22.27,10.25-57.59,29.92-90.9,65.81-29.26,31.52-45.62,63.34-54.61,84.8"/>
  <path class="cls-1" d="M481.48,633.75c-3.68,10.56-9.24,31.07-5.77,56.65,2.8,20.57,10.29,36.04,15.6,45.11"/>
  <path class="cls-1" d="M507.93,648c-1.21,6.93-2.21,17.56,0,30.19,1.89,10.8,5.49,19.32,8.48,25.1"/>
  <path class="cls-1" d="M456.38,676.15c-6.36,11.36-13.56,26.99-18.32,46.47-3.27,13.38-4.64,25.5-5.09,35.62"/>
  <path class="cls-1" d="M469.26,597.46c-14.71,5.29-36.56,14.46-60.38,30.19-29.08,19.2-38.71,33.4-65.13,52.58-16.09,11.69-40.64,26.84-75.3,39.01"/>
  <path class="cls-1" d="M313.23,743.65c-58.48-3.23-78-12.98-84.12-22.05-.95-1.4-3.68-5.91-9.16-8.48-9.82-4.62-21.77.13-30.19,4.75"/>
  <path class="cls-1" d="M205.37,741.62c3.45,5.82,10.62,16.13,23.4,24.42,16.01,10.38,31.75,11.71,38.67,11.87"/>
  <path class="cls-1" d="M117.85,804.71c7.47,15.92,20.46,38.78,42.4,61.4,20.07,20.69,40.46,33.76,55.29,41.72"/>
  <path class="cls-1" d="M261.68,902.74c14.31-16.21,39.69-40.86,78.02-60.04,35.09-17.56,67.1-23.54,87.85-25.78"/>
  <path class="cls-1" d="M440.43,792.5c39.31-12.95,69.09-11.63,88.87-8.14,29.61,5.23,44.63,16.71,85.82,25.1,24.59,5.01,45.17,6.19,58.34,6.45"/>
  <path class="cls-1" d="M705.69,733.48c-1.09,21.34-3.92,46.65-10.18,74.62-6.13,27.39-14.13,51.06-22.05,70.55"/>
  <path class="cls-1" d="M431.61,803.35c3.73,20.09,10.03,44.68,21.03,71.57,10.12,24.75,21.68,45.24,32.22,61.4"/>
  <path class="cls-1" d="M488.6,912.91c4.39,3.17,10.03,6.62,16.96,9.5,14.04,5.84,26.8,6.64,34.94,6.44"/>
  <path class="cls-1" d="M622.58,886.12c-32.85,16.07-49.85,33.1-59.36,46.13-2.42,3.31-5.23,7.58-10.52,12.55-15.99,15.06-36.3,19.41-51.22,20.69"/>
  <path class="cls-1" d="M828.48,741.28c16.78,2.96,46.24,10.59,75.3,32.56,11.72,8.86,26.35,30.21,55.63,72.93,1.08,1.58,3.69,5.47,2.37,7.46-2.7,4.08-19.02-4.08-33.92-7.46-19.5-4.42-34.98-.29-57.66,5.77-45.14,12.05-78.74,38.96-94.64,53.25"/>
  <path class="cls-1" d="M691.78,913.59c18.23-3.94,51.74-13.7,85.14-40.03,37.56-29.6,55.3-64.61,62.75-82.09"/>
</svg>