<?xml version="1.0" encoding="UTF-8"?>
<svg xmlns="http://www.w3.org/2000/svg" viewBox="0 0 1080 1080">
  <defs>
    <style>
      .cls-1 {
        fill: #d96a7a;
      }

      .cls-2 {
        fill: #7a1c1c;
      }

      .cls-3 {
        fill: #c62828;
      }

      .cls-4 {
        fill: #0d0d0d;
      }

      .cls-5 {
        fill: #f7f4ef;
      }

      .cls-6 {
        fill: #d19a2d;
      }

      .cls-7 {
        fill: #e53935;
      }

      .cls-8 {
        fill: #8a2e3a;
      }

      .cls-9 {
        fill: #f2c14e;
      }
    </style>
  </defs>
  <g id="Outline">
    <g>
      <path d="M834.76,488.19c27.86,20.3,42.01,78.81,40.26,111.66-1.96,36.88-13.87,85.1-33.38,116.45-32.78,52.66-61.59,84.97-122.74,103.34-10.45,3.14-21.34,4.75-31.51,8.67l9.21,7.83c6.48,6.12,20.27,17.86,10.91,27.28-6.38,6.41-27.54,9.58-36.49,13.9-1.73.83-3.26,1.94-1.19,3.48,6.79,5.07,24.26-.8,32.56-1.4,11.96-.85,32.11-.51,41.88,7.13,5.56,4.34,20.27,23.37,14.77,30.13-4.24,5.2-14.71.79-20.23.88,2.3,7.57,6.14,19.2-3.89,23.01-10.58,4.01-28.82-4.82-38.99-9.08-18.2-7.62-43.38-19.47-58.23-32.34-16.27-14.11,7.77-22.54,15.19-31.77,17.78-22.13-15.77-26.43-29.69-31.37-8.45-2.99-17.13-7.39-24.88-11.89-2.43-1.42-14.15-9.76-15.23-9.94-2.47-.43-18.34,11.74-21,14.14-4.43,3.98-11.83,11.05-11.25,17.39.65,7.15,15.39,17.67,21.2,21.72,5.94,4.15,24.13,11.11,15.19,20.77-4.6,4.98-29.77,11.5-37.97,15.15-17.05,7.59-46.14,30.38-64.03,28.43-13.55-1.48-15.68-11.71-9.27-22.39-16.19.11-24.35-5.82-15.26-21.75,5.81-10.18,16.79-17.12,28.18-19.49,14.13-2.93,26.98,2.96,40.88,3.77l-16.12-6.01c-3.57-2.24-7.63-5.01-9.43-8.96-1.24-2.73-1.14-6.26-2.21-8.68-.77-1.73-2.81-2.56-3.61-4.56-3.87-9.69,10.34-20.33,17.26-25.06,12.63-8.64,27.29-14.5,41.17-20.8l.85-1.17c-23.11-20.15-43.1-43.5-61.15-68.24-25.81-35.38-47.7-74.13-59.38-116.67-.96.42-1.1,3.44-1.26,4.52-.81,5.5-.51,23.89-7.4,25.32-5.48,1.14-5.06-5.6-4.95-9.41-6.29,6.11-12.01,7.46-12.26-3.41-10.73,2.55-21.54,4.99-32.45,6.7-14.91,2.33-30.59,2.93-45.31,5.76-2.38.46-5.54.93-7.72,1.82-10.26,4.18-12.35,20.24-17.32,28.99.02,1.16,4.55,5.32,5.75,6.46,3.69,3.52,13.5,10.68,14.89,15.08,3.3,10.43-11.63,18.16-20.46,12.97-4.52-2.65-9.65-13.17-11.8-14.13-1.6-.71-4.51,1.04-6.91.9-7.59-.46-17.8-7.18-23.92-11.55-5.31-3.8-14.5-13.28-20.04-14.69-7.01-1.8-18.03-.3-19.24-10.73-.88-7.59,5.67-25.75,9.93-32.29,2.58-3.95,6.6-6.62,8.99-10.46-1.46-6.39-4.02-12.46-5.79-18.73-.55-1.96-1.84-10.65-2.25-11.04-.66-.63-6.03,2.23-9.54-1.69-3.58-4-.85-10.83-2.35-13.31-.47-.78-4.61-2.03-6.01-2.84-30.42-17.68-9.88-64.67,22.46-51.08,16.2,6.81,22.19,27.05,13.17,41.97,4.12,2.96,10.11,8.14,7.65,13.83-1.75,4.03-6.41,2.74-9.7,2.54-.86-.05-1.03-.75-.67.68,2.44,9.59,8.25,18.91,12.33,27.85,1.24,2.33,4.1-.57,6.05-1.26,5.54-1.97,10.38-2.77,16.01-.37,7.92,3.38,14.15,16.48,21.82,17.68,10.58,1.65,25.59-3.41,40.94-10.22,18.55-8.21,37.6-18.96,49.89-23.47,5.89-12.07,14.95-25.76,19.68-38.22,3.58-9.46-2.42-25.23-4.46-35.52-6.01-30.4-8.99-53.76,10.01-80.14,5.9-8.18,7.82-5.64,7.52-17.75-.58-22.87-5.6-39.26-15.11-59.81-6.2-13.39-15.22-30.79-23.86-42.19-2.12-2.79-12.65-14.51-12.83-16.52-.02-.23-.02-.45,0-.66.25-2.45,3.34-3.02,5.45-1.68-1.33-6.5,3.36-4.15,5.32-5.58,1.94-1.4,2.31-19.49,2.21-22.71-.27-8.84-.98-20.52-2.08-29.25-.13-1.02-.29-4.06-1.34-4.43-1.35,4.87-5.51,8.14-9.56,10.69-.04,6.36,1.02,12.58.72,18.96-.52,11.02-2.45,22.46-3.5,33.73-.27,2.84-.48,5.67-.6,8.48-.42,9.83-.91,34.69,1.53,43.4.89,3.19,3.61,7.21,4.9,10.76,3.71,10.23,7.13,25.66,8.45,36.5,7.71,62.98,5.44,150.53-34.36,203.14-3.68,4.87-6.13,8.27-9.07,9.79-3.19,1.65-6.95,1.12-13.47-2.11-37.62-18.63-54.59-50.12-58.64-91.05-2.35-23.83-4.61-49.43-2.85-73.54.82-11.16,2.94-22.27,4.08-33.39,2.04-20.02,2.48-38.81,7.54-58.51,1.02-3.96,4.92-12.98,5.2-15.8.31-3.27-.71-8.93-.51-12.88,1.12-22.15,4.13-44,7.73-65.82,2.76-16.7,6.27-33.28,9.33-49.92-6.21-1.06-10.99,2.7-16.37,4.73-6.67,2.52-10.91,3.27-16.95,7.57-2.69,1.92-11.16,11.56-12.24,4-1.36-9.52,7.66-29.69,14.54-36.44,10.69-10.48,27.84-6.88,41.01-12.1,16.16-6.41,39.35-31.42,55.03-31.44,16.75-.02,29.33,23.21,33.9,36.91,9.7,29.09,9.32,62.59,17.03,92.62,8.8,34.32,18.43,68.77,35.77,99.75,1.67,2.97,13.29,22.96,14.83,23.33,12.94-7.72,26.66-13.98,41.12-18.35l-9.31-3.27c-24.43-9.88-37.15-25.68-39.63-52.31-.37-4.02-.72-9.64,4-10.81-5.79-5.15-13.48-10.05-16.67-17.38-3.66-8.42-3-21.83-.69-30.64,6.32-24.1,35.53-33.29,32.28-62.24-.36-3.21-5.8-16.59-3.61-18.19,3.15-2.31,7.94,4.25,9.69,6.66,17.2,23.66-3.95,39.67-14.54,58.78-6.58,11.88-11.99,28.8-3.62,41.1,10.52,15.46,23.68.66,35.31-3.96,9.44-3.75,23.28-6.25,32.22-.24,4.85,3.26,2.99,5.93,9.93,1.53,9.82-6.22-1.99-5.22-6.32-8.54-5.83-4.49,4.83-7.24,7.74-8.42-2.45-4.06-15.1-5.29-16.21-9.01-2.73-9.19,19.8-7.96,20.96-14.17.61-3.32-.87-7.41.84-10.73,2.24-4.33,7.13.35,6.69-9.02-.27-5.86-3.47-8.31-5.32-13.08-7.09-18.27-4.08-39.43,8.72-54.31,4-4.64,13.36-12.19,17.05-2.79,1.44,3.65.64,13.12,1.5,18.25,1.32,7.85,6.02,30.53,9.9,36.42,7.97,12.1,12.85-3.34,16.87-8.59,3.28-4.28,7.56-7.72,13.2-6.5,7.17-5.32,19.65-21.14,28.91-20.75,7.58.32,6.08,7.77,3.92,12.67-3.39,7.71-9.49,15.5-13.17,23.6-.68,1.49-4.1,9.45-3.69,10.02,2.06.22,6.93,3.99,8.22,4.03,4.26.14,12.89-9.55,18.46-10.14,3.96-.43,4.34,1.35,6.9,1.86,3.73.74,11.2-3.08,15.41-4.05,6.13-1.4,20.22-2.32,19.54,7.24-.69,9.64-20.91,12.84-23.36,18.91-2.14,5.31,1.38,15.19-2.56,20.93,12.04-.13,23.48-4.74,34.29-9.62,11.21-5.06,32.45-17.96,44.35-16.92,10.92.96,9.29,15.86,7.35,23.68-3.88,15.67-15.55,31.81-31.55,36.55-7.71,2.29-4.2-2.52-4.82-7.7-3.16-1.84-7.35,2.41-8.65,5.12-1.21,2.52-1.05,6.4-1.81,7.72-1.73,3.01-15.91.22-19.29-.47-8-1.63-15.78-4.51-23.27-7.7-.85.9,10.68,16.02,8.71,22.67-2.34,7.88-14.83-1.64-15.52-.88.81,6.55-1.37,8.01-7.49,6.13,1.11,2.72,1.42,5.51-1.02,7.5-6.44,5.27-24.62-7.94-31.6,1.08-2.08,8.51-4.62,16.9-7.54,25.14-2.9,8.16-6.69,16.11-9.55,24.16,2.47.22,4.6,1.22,7.12,1.39,10.12.68,31.2-10.78,41.74-14.83,8.49-3.27,19.17-7.65,27.95-9.51,1.99-.42,5.97-1.55,7.63-.54,7.49,4.52-14.84,10.27-16.81,11.12-20.73,8.85-36.49,22.85-60.67,26.49-10.54,1.59-17.42-1.2-26.35,6.34-2.38,2.01-7.1,9.52-10.49,7.38-2.11-1.34,1.75-14.85,1.95-17.97.48-7.2-.34-12.74-4.4-3.04-4.87,11.62-4.24,28.68-8.19,42.21-7.39,25.34-15.03,37.33-30.96,57.57-1.98,2.51-7.76,12.12-10,12.41-.53.07-1.37-.15-1.81-.45-3.28-2.26-1.39-26.29-6.03-32.98-4.34-6.25-10.97.73-10.8,6.66.33,11.02,6.49,25.99,8.08,37.61,2.06,15.05.88,31.42-5.49,45.36-1.14,2.51-3.7,5.19-5.91,2.14-2.3-3.17-4.51-16.37-6.17-21.08-2.55-7.26-7.26-15.29-15.68-15.98-4.71,57.35,8.45,112.7,40.02,160.54,22.92,34.75,75.55,96.22,118.39,102.25,31.07,4.38,69.94-15.84,93.85-34.67,41.79-32.91,97.72-98.36,100.5-153.51,1.2-23.85-1.48-69.34-24.35-82.65-18.22-10.6-37.51-5.58-48.42,11.92-4.53,7.27-10.2,22.28-15.09,27.81-2.26,2.55-4.45,2.44-7.51,1.68l-4.58,27.09c-3.61,9.64-11.16,6.17-13.99-2.04-.66-1.9-.82-7.44-2.6-5.54-2.15,2.31-3.73,4.75-7.47,1.99-6.91-5.11-4.91-25.6-3.03-33.08,12.2-48.42,75.3-76.59,117.41-45.91ZM858.46,666.38c14.15-51.17,18.33-93.99-3.78-143.63-15.67-35.19-48.55-52.37-86.09-38.2-29.05,10.96-57.12,46.75-46.12,78.84,1.8,1.31,4.55-7.76,8.86-5.12,2.37,1.45,3.21,18.64,8.09,15.27,1.19-.82,3.25-19.56,3.94-22.97.82-4.06,7.72-29.88,9.73-31.13,1.57-.98,3.98.14,4.07,2.04.08,1.85-3.72,10.08-4.4,13.3-.18.85-1.76,6.25,0,6.12,12.62-19.24,16.83-44.32,44.27-46.28,41.57-2.98,49.04,37.67,51.39,69.8,2.74,37.41-5.59,62.37-24.9,93.58-29.83,48.19-84.64,104.31-140.72,119.42-11.56,3.11-23.43,3.82-35.25,1.87l6.8,4.43c8.5,4.44,17.33,8.55,27,9.78,2.9.36,8.66-1.17,9.46,2.07.89,3.64-6.73,2.86-8.78,2.69-19.51-1.59-34.63-14.27-50.6-23.63-2.94-1.72-7.01-2.93-10.21-4.77-43.39-24.83-92.93-84.96-113.38-130.41-15.19-33.77-24.07-76.73-21.26-117.41,2.01-29.14,10.02-57.11,25.99-79.69,19.68-27.8,49.59-49.58,73.4-73.75.73-1.47-4.49-7.33-6.2-7.5-2.91-.29-29.44,15.37-33.62,18.13-14.8,9.76-33.21,23.52-46.68,35.03-8.58,7.32-15.78,14.98-21.41,24.84,6.73,5.15,12.76,14.61,13.48,23.25.24,2.87-.84,6.55-3.69,3.67-.55-.56-2.91-11.37-4.95-14.79-.81-1.35-6.32-8.64-7.62-7.7-11.15,21.33-19.77,43.91-30.06,65.62-6.12,12.9-13.16,22.23-19.78,34.03-4.41,7.88-13.47,25.4-16.21,33.5-.25.74-.21,1.32.67.68,1.64-1.19,4.28-4.17,5.8-5.79,1.44-1.52,4.56-7.67,7.17-5.85,2.76,1.93-3.57,8.91-5.13,10.62-6.69,7.34-14.52,11.24-23.25,15.56-19.29,9.53-57.94,28.99-78.3,30.65-16.92,1.38-17.16-7.76-27.49-15.92-6.37-5.03-12.93-3.47-19.75-.32l5.11,10.19c6.89-6.68,11.22-2.51,9.71,6.32-1.04,6.07-7.67,13.49-12.99,16.29-6.24,3.27-23.64,7.29-22.26-4.21-1.83-.08-3.39.79-5.01,1.46-1.69.71-8.39,4.52-9.32,5.66-2.53,3.1-4.57,14.17-1.01,17.42,4.68,4.29,20.39,1.53,26.55,1.31,2.63-.09,11.73-.46,13.54.13,1.3.42,1.58,2.33.84,3.36-.21.28-4.74,1.23-5.5,1.31-3.92.38-8.87,0-12.94,0-1.76,0-.39,1.71.33,2.39,6.33,5.88,26.56,21.59,35.02,20.76,3.76-.38,9.79-10.92,11.56-14.38,5.67-11.05,7.8-25.74,18.11-33.65,3.91-3,9.32-3.44,14.08-4.29,25.79-4.65,52.69-5.12,78.23-12.43,3.17-.17,3.05,5.81,3.04,8.23,2.25-1.9,8.08-7.79,10.92-4.28l2,7c2.79-14.75,2.62-30.23,6.81-44.62,5.74-19.69,18.97-39.47,32.04-55.12,1.93-2.31,13.08-14.79,14.76-15.26,1.78-.5,3.43.61,3.43,2.1,0,.44-.14.92-.48,1.4-3.03,2.36-5.99,5.12-8.55,7.97-3.08,3.43-12.16,13.95-13.79,17.54-1.1,2.44-.41,9.04-.16,12.09,3.96,47.17,31.47,98.73,55.04,139.06,24.48,41.89,46.68,71.02,87.46,98.44,8.67,5.83,28.37,18.72,37.62,21.63.44.14,1.15.14,1-.32-1.32-2.1-2.51-4.3-3.8-6.42-2.26-3.72-10.71-13.8-11.57-16.37-.62-1.84.04-3.01,2.07-2.78,2.75.31,11.73,14.14,13.59,17.11,8.7,13.91,13.65,27.43,18.14,43.16.16,8.27-4.94,15.26-10.92,20.47-4.72,4.1-20.38,11.71-12.6,19.39,10.09,9.95,35.57,22.78,48.9,28.73,1.69.76,7.38,3.5,8.61,3.68.63.09.57.06,1.06-.32,1.29-1.01,6.79-11.31,8.62-13.91,2.4-3.41,5.12-6.67,8.03-9.66,0-1.23-9.03-4.99-10.7-5.63-4.45-1.7-13.5-3.19-16.73-5.06-2.34-1.36-1.95-3.98.35-4.35.36-.06.77-.06,1.23,0,4.34.66,11.87,3.37,16.17,4.97,2.47.92,12.7,6.31,13.44,6.31,3.08,0,9.04-7.53,11.58-9.53,1.65-1.3,4.03-1.54,5.1-3.4-8.43-1.31-16.94-3.08-25.56-2.76-5.46.21-13.94,2.28-22.11,3.33-8.5,1.08-16.67,1.07-20.8-3.27-5.64-5.93.43-9.28,5.65-11.44,6.85-2.85,29.98-7.68,33.14-13.16,1.39-2.42,1.41-7.47-1.95-7.47-2.11,0-10.69,2.59-12.79,3.62-2.5,1.23-5.27,5.52-7.39,2.91-1.69-2.07,2.42-5.24,4.05-6.26,4.19-2.63,8.55-2.67,12.78-4.25.49-.19,1.43.08.93-1.09-.55-1.28-8.19-7.75-9.89-9.18-5.28-4.47-11.19-8.29-16.34-12.94-9.43-8.51-17.49-19.09-26.39-28.15-.6-3.01,1.81-4.15,4.24-2.13,3.16,2.64,7.19,8.4,10.23,11.55,5.01,5.17,11.99,13.06,17.37,17.36.96.77,1.68,1.91,3.15,1.7,27.25-7.48,54.79-13.94,79.61-27.92,39.58-22.28,83.8-86.87,95.81-130.28ZM767.43,242.93c.11-13.28-8.85-9.37-17.4-6.45-19.91,6.8-42.04,23.27-63.35,23.87-1.2.03-2.2-.02-3.03-.14-6.41-.93-2.69-6.11-2.1-10.5.81-5.99-1.52-13.04,1.95-18.48,3.85-6.02,20.84-9.84,22.36-15.82.57-2.28-5.95-3.49-7.57-3.5-7.18-.01-18.4,6.47-23.68,5.36-1.44-.3-2.65-1.66-4.3-1.88-5.23-.68-14.48,10.02-20.63,10.57-2.01.17-6.16-4.68-8.93-4.45,4.59,3.62,8.72,7.42,12.06,12.27,10.53-.09,26.56-3.97,26.09,11.87-.36,12.32-7.89,20.56-16.36,28.3h11.92c1.34,0,3.14,3.9,1.7,5.44,2,.79,4,1.6,6.01,2.39,12.05,4.82,24.29,9.46,37.57,9.19-.78-6.92,7.2-14.49,13.08-14.49,3.14,0,5.68,2.15,5.99,7.68,15.2-4.1,28.5-26.29,28.62-41.23ZM755.76,913c1.01-3.62-9.73-20.34-13.39-21.85-8.44-3.47-13.04,7.32-19.22,10.05-.26,1.05.17,1.09.72,1.65,2.22,2.24,7.04,5.1,9.81,7.21.92.7,2.42,2.79,3.05,3.02.82.29,2.46-.51,3.74-.34,2.97.39,14.25,3.99,15.29.26ZM702.04,929.1c8.84,3,37.49,17.79,34.56-2.21-1.37-9.33-3.83-12.27-11.2-17.4-2.84-1.99-6.01-5.5-8.75-2.87-2.14,2.05-15.64,21.11-14.61,22.48ZM678.5,304.61c.41.67,5.98,3.26,6.51,2.7-.68-9.76-9.75-16.66-10.55-26.55-9.21,6.13-3.78,6.11.71,10.87,1.67,1.77,5.06,6.16,5,8.55-.03,1.51-2.15,3.65-1.67,4.43ZM675.48,300.15c.55-2.91-10.03-9.49-10.72-12.42-1.24-5.26,3.21-5.65,4.59-9.69-3.59,1.83-8.81-.94-11.81.1-.97.34-4.01,6.99-5.55,8.75-14.25,16.29-46.54,19.7-56.51-3.42-1.22-2.82-.37-6.7-4.43-4.75.03.16.08.3.15.42l-1.96.88c-.15,0-.34.01-.58.05-3.65.56-5.63,2.04-10.17,1.32-1.25-.19-4.73-2.45-5.15-2-.25.28.59,2.74-1.11,3.32-3.45,1.17-9.92-1.35-14.18-.56-1.92.36-3.64,2.52-5.35,3.51-1.07.61-5.67,2.4-5.84,2.67-.54.86.6,5.25,1.67,6,1.56,1.1,9.62,2.71,12.8,4.23,3.71,1.79,9.99,5.71,9.89,10.47-.04,2.09-1.81,4.08-3.73,2.44-1.14-.98-.97-3.36-1.99-4.83-2.48-3.56-13.05-6.66-17.36-7.49v10.55c0,1.56-.66,6.66-.98,8.55-1.37,8.09-10.57,14.95-17.89,17.52-11.44,4.01-23.27.28-32.19-7.34-.6,2,2.24,13.61,3.74,13.61,5.45-8.77,9.11-1.66,11.25,4.78,2.08.29,1.46-2.3,3.41-3.73,4.93-3.63,7.26,3.64,11.53,4.77,2.76.72,7.12-.77,8.47.25.67.5.65,2.86.31,3.39-.26.42-5.38,1.48-6.37,1.5-6.06.14-9.19-5.59-11.57-5.51-4.72,15.06-11.26-3.42-12.26-3.38-6.11,9.05-10.92-2.03-12.3-8.15-1.1-4.92-1.91-10.8-.98-15.7-8.2-.44-14.11-6.98-21.79-8.86-.8,2.1-.11,4.1.22,6.26,3.43,22.56,8.74,33.4,29.28,44.26,25.26,13.34,49.53,6.54,71.94-8.63-5.47-4.9-12.48-8.72-19.71-10.24-2.5-.53-15.14-.58-12.21-5.02,1.31-2,13.03.45,15.45,1.11,11.13,3,22.36,11.93,30.12,20.26,1.71,1.83,4.12,7.84,6.47,3.77,1.32-2.29-.61-1.96-1.73-3.03-10.67-10.29-15.49-23.32-30.93-29.02-2.03-.75-8.72-.77-5.16-4.4,2.55-2.6,10.8,1.86,13.58,3.47,4.78,2.77,9.27,6.78,12.97,10.86,1.35,1.48,5.29,7.62,6.15,8.16,1.47.9,6.57-.59,8.18-1.36,4.79-2.27,8.24-12,11.28-16.64,3.18-4.84,7.16-9.25,11.92-12.59,4.58-3.22,13.19-8.22,11.52,1.64,9.45-10.57,21.19-2.47,32.68-2.05-1.04-4.38.1-8.15-3.86-10.78-4.2-2.78-11.24-3.91-16.22-3.5-2.82.22-7.96,3.04-8.87-.64-.83-3.33,9.2-4.21,11.59-4.21,3.06,0,9.25,2.27,10.84,2.13.44-.03,1.52-2.95,2.48-3.73,3.91-3.17,10.82,2.44,14.92,3.4.88.21,1.88.22,2.06-.73ZM663.55,266.45c6.38-3.1,14.28-22.28,9.04-27.06-.89-.82-4.88-1.46-6.28-1.56-3.59-.26-14.73.31-18.11,1-7.51,1.56-20.07,16.25-26.88,15.75-1.63-.11-3.14-1.71-3.05-3.39.36-6.31,21.75-16.38,27.24-19.13-5.24-5.35-11.81-10.4-19.49-11.15-7.17-.69-21.81-.07-29.19.6-7.35.66.34,9.31-2.32,12.66-2.44,3.06-4.5-.9-6.18-2.45,2.22,6.86,6.17,12.89,6.12,20.43,1.46,1.52,6.54-8.53,7.21-9.47.92-1.29,3.89-5.33,5.06-5.83,4.41-1.88,7.08,1.06,6.82,5.41-.26,4.41-11.86,22.61-10.92,23.51,2.87.38,5.32-.49,8.01-1.18,17.64-4.5,32.18-14.07,50.92-13.83,1.3,0,2.99.85,3.93.62,1.58-.39,3.15-5.16,5.49-5.32,4.33,2.77-.18,4.92-.78,7.27-.89,3.5,1.02,3.88-2.56,6.98-2.44,2.1-3.65,1.18-4.56,4.96-.21.89-1.31,1.32.48,1.18ZM656.66,369.88l12.69-7.39c-17.38,3.88-35.18,20.52-53.58,13.74-4.53-1.67-16.43-11.76-19.47-10.93-.66.19-3.62,3.11-3.73,3.73-.33,1.7,1.26,7.02,1.26,9.45,0,3.76-1.49,8.69-1.42,12.61,8.88-10.63,20.26-7.81,32.13-9.75,11.31-1.85,21.68-7.1,32.12-11.46ZM657.09,260.32v-4.76c-3.75-.29-7.48.41-11.04,1.56-.71.24-2.05.18-1.89,1.16,2.98.13,8.87-1.9,11.3-.06.8.61.53,2.21,1.63,2.1ZM656.41,264.42l-3.96,7.95c-4.97,9.29-15.76,19.73-26.9,19.7-7.73-.02-18.07-3.34-24.29-7.91,3.09,7.08,13.23,11.95,20.76,11.57,17.69-.9,32.71-13.34,34.39-31.31ZM645.51,197.67c.4-3.71,12.64-20.09,10.22-22.47-3.21-3.16-19.84,12.97-22.47,15.65,2.15.23,4.82,1.45,6.6,2.6,1.26.81,4.81,4.83,5.65,4.22ZM653.68,841.94c.53-.67-5.01-14.66-6.42-15.71-1.19-.88-3.89-1.09-5.61-1.88-7.03-3.24-13.84-7.03-20.64-10.72-2.67-.72-6.46,2.5-9.36,3.63-3.35,1.31-6.93,1.96-10.39,2.89l4.75,3.07c14.88,9.27,32.63,10.46,47.67,18.72ZM651.64,262.37c-.61-.55-15.49,1.7-16.35,2.37-.74.58-1.92,10.04-5.77,13.3-5.18,4.4-12.53,1.94-15.02-4.09-1.89,1.95-10.53,3.4-9.76,6.34.99,3.75,17.13,7.34,20.69,7.33,11.59-.05,23.76-14.57,26.21-25.25ZM636.66,219.46c-1.97-7.51,10.29-14.73,2.02-21.42-1.45-1.18-8.56-4.55-9.84-3.13-1.28,1.43-2.95,10.39-3.07,12.64-.09,1.75,1.99,4.86-.69,6.16-.43.21-.81.31-1.14.31-4.27,0-1.18-15.85-1.24-18.4-11.84,4.61-11.33,27.21-28.24,17.03-.43,6.41-5.73,5.11-9.54,2.05-.67.9,2.74,7.11,3.74,8.17,3.34-8.97,18.47-6.07,26.58-6.1,2.59,0,5.05-.8,8.14-.7.15,0,.3.01.46.02,4.31.17,9.17,1.11,12.82,3.37ZM628.49,324.35l-4.95,12.41c-1.47,3.99-1.99,8.27-3.38,12.28-.96,2.77-9.4,18.77-8.68,19.57.76.86,1.83-1.07,2.17-1.57,2.34-3.46,4.92-11.09,6.5-15.29,3.28-8.71,6.42-18.32,8.34-27.4ZM624.4,320.26c-.77-.91-11.28,9.38-12.23,10.57-6.66,8.3-8.34,22.12-21.13,22.81,1.59,1.77,4.1,6.09,6.5,4.12,10.39-11.34,21.86-22.56,26.86-37.5ZM616.91,343.41l-16.32,17.37c1.97,1.33,5.62,5.77,7.38,3.31,3.74-5.22,6.77-14.55,8.94-20.68ZM602.96,274.63l11.23-6.12c-3.77.73-15.24,4.78-16.33-1.06-1.21-6.39,10.89-18.92,10.88-26.19-4.51,3.52-7.33,13.66-12.24,16.03-.76.37-2.34.11-2.65.4-.18.17-.82,4.36-.76,4.96.19,1.87,1.8,2.63,1.24,5.35-.85,4.13-8.08,6.08-11.76,5.96-13.2-.41-16.24-14.33-15.37-25.21l-4.07,10.56c4.28,1.23,5.21,6.63,7.6,10.09,4.99,7.2,10.4,9.73,18.88,5.5,1.99-.99,4.88-4.53,7.47-2.9.75.48,2.12,7.93,2.14,9.44,1.33-.35.36-2.61,1.03-4.08.4-.88,2.05-1.86,2.71-2.73ZM596.14,816.13c2.6.1,18.67-3.93,18.72-5.86-28.42-18.06-54.07-39.35-74.53-66.24-7.38,4.43-16.13,2.57-24.19,2.22,13.97,17.87,29.88,34.17,47.02,49,.71.77.82,1.62.55,2.61-.9,3.24-24.14,12.68-28.65,14.99-11.59,5.94-24.56,12.93-31.85,23.99,4.51,1.16,9.01,1.87,13.39,3.61,2.77,1.1,16.19,7.99,15.2,11.34-.73,1.13-1.81,1.22-3.02,1.04-1.72-.25-10.28-6.6-13.82-8.01-2.67-1.06-7.36-2.63-10.13-2.81-3.87-.26.4,2.59,1.23,4.22,1.55,2.99,1.22,6.56,3.13,9.81,5.59,9.51,26.05,9.6,29.45,15.48,2.35,4.06-1.44,5.96-5.14,5.89-12.44-.26-26.28-6.78-39.15-5.5,3.75,3.55,7.49,7.4,7.49,12.94,9.27-3.31,18.22-4.37,27.95-2.43,1.94.39,15.25,4.3,9.48,6.86-1.85.82-10.73-2.66-14.02-2.99-6.25-.63-14.64-.02-20.41,2.57-.64.29-1.97.22-.95,1.42.17.2,3.3,1.74,4.34,2.81,2.76,2.83,4.69,7.58,5.66,11.37.52,1.98,1.46,11.48,2.61,11.71,13.83-8.29,27.73-16.11,42.87-21.81,4.51-1.69,24.38-6.82,25.45-10.69.34-1.23.03-1.63-.55-2.61-1.72-2.91-12.34-8.16-15.91-10.64-8.44-5.87-17.21-12.28-21.91-21.65-1.64,1.08-3.32,2.04-4.79,3.37-1.81,1.65-5.35,8.58-7.51,5.5-2.09-2.98,3.76-8.16,5.82-9.92,1.55-1.34,4.93-2.75,5.78-3.76,1.02-1.22,2.4-6.64,3.88-9.05,4.05-6.61,23.57-22.36,30.7-25.13,6.21-2.41,10.22,6.13,15.81,6.35ZM590.36,211.97l-8.92-40.79c-20.28.38-25.68,22.3-16.94,38.07,6.63-2.25,10.96-10.55,18.72-4.78,2.86,2.13,3.56,6.69,7.14,7.5ZM584.92,237.85c.9-.97-5.14-12.99-7.26-13.55-2.25-.6-2.58,3.4-5.35,3.3-1.71-.06-3.76-3.52-4.42-2.69-.55.72.26,8.25-4.77,7.5.75,2.05,2.43,2.76,3.52,4.98.7,1.44,1.17,2.94,1.26,4.54l3.94-10c7.24-8.64,5.23,9.42,13.08,5.92ZM579.72,220.23c1.19.63,1.87,2.15,3.15,2.64-2.03-5.07-4.02-10.2-4.77-15.67l-3.6,1.51-7.87,5.5c-.04,2.18,4.09,6.92,5.79,7.22,1.32.24,2.87-3.51,7.3-1.2ZM580.83,166.34c-1.23-2.42,0-13.31-1.45-14.21-2.96-1.85-8.82,5.35-10.41,7.46-3.86,5.12-6.76,11.52-8.56,17.65,5.06-6.33,12.04-10.9,20.42-10.9ZM573.21,262.15c1.12,3,3.31,6.51,6.94,6.34-.66-2.21-.79-4.18-.71-6.49.19-5.54,3.35-14.14.32-18.66-1.38-2.06-3.85-3.61-4.72-6.17-3.93,7.12-4.64,17.41-1.83,24.98ZM578.1,382.91c-.13-.16-2.93,1.97-3.41,2.38-15.35,13.04-34.91,31.48-48,46.65-19.06,22.09-30.26,46.52-34.39,75.6,10.43,1.23,16.03,10.11,19.26,19.23.84,2.37,3.37,14.28,3.91,14.83,1.12,1.16,1.15-.37,1.42-.96,5.26-11.6,5.22-27.68,3.12-40.03-1.89-11.09-7.49-25.69-7.9-36.42-.28-7.41,7.58-16.6,15.11-13.02,8.76,4.17,8.53,22.92,8.67,31.17,1.31.32,1.31-.47,1.92-1.14,17.8-19.54,29.56-41.88,35.87-67.63,2.52-10.25,2.72-20.33,4.42-30.66ZM563.05,244.24c.24-2.37.31-4.7-1.63-6.38.76,12.83-11,11.58-19.41,15.34-.74.33-1.74.02-1.36,1.33.31,1.05,18.88,3.84,15.21,12.45-.63,1.48-3.44,2.15-4.7,2.82-.49.27-2.16.22-.97,1.41.28.29,6.37,2.12,7.49,2.74v-11.92c0-4.03,4.89-12.79,5.37-17.79ZM512.27,398.49l42-29.87c-8.66,3.05-17.01,4.83-26.21,5.31-8.01.41-5.56.38-12.62,3.17-8.61,3.41-18.34,5.8-25.86,11.26,8.1,1.88,16.05,5.1,22.69,10.13ZM542.51,317.69c.99-3.85,1.76-14.18,1.57-18.23-.16-3.39-1.98-10.39-3.82-13.2-4.47-6.78-22.29-5.59-28.68-2.24-5.05,2.65-10.47,15.96-11.96,21.42-2.78,10.14-4.5,19.26,6.95,24.05.61.25,2.24.87,2.07-.37-7.81-3.01-10.94-12.29-4.75-18.73,5.74-5.97,26.11-10.09,31.32-2.73,5.3,7.5-7.16,15.8-14.04,16.61-1.59.19-5.74.44-7.7-.46-1.2-.55-1.58-1.54-.06-3.23.68-.75,7.82-.77,10.48-1.76,2.36-.88,11.27-6.69,6.77-9.34-8.27-4.89-35.67,4.16-21.67,14.86.68.52,1.44,1,2.25,1.43,9.84,5.25,28.21,3.82,31.27-8.08ZM537.24,740.79c1.09-.78.45-.7.13-1.46-18.42-27.17-34.75-55.85-49.21-85.31-10.05,2.22-20.61,1.72-30.58-.73,12.88,31.41,32.7,59.29,53.07,86.19,3.5,2.97,22.73,4.05,26.59,1.31ZM509.12,920.39c2.28-1.56,2.32-1.54,2.19-4.45-.25-5.67-4.35-23.43-11.86-23.36-.79.01-11.41,8.41-12.62,9.6-6.04,5.98-17.25,22.75-2.29,24.83,6.82.95,18.9-2.75,24.58-6.62ZM507.96,401.64c-6.5-6.06-16.18-7.49-24.17-10.99-18.74,11.45-37.22,24.02-52.77,39.6l-7.49,11.23h16.69c4.52,0,13.73,4.32,17.58,6.93,2.12,1.43,4.32,4.03,6.25,5.34.77.52.46,1.05,1.34-.02,2.82-3.42,6.51-13.21,9.34-17.9,8.6-14.23,20.22-24.14,33.23-34.19ZM496.93,887.09c1.52-6.62-5.71-14.22-12.29-12.99-8.95,1.69-23.99,15.81-23.02,25.4.53,5.32,13.5,6.06,17.27,4.95.93-.27,5.7-6.28,7.28-7.7,2.76-2.48,9.96-6.21,10.76-9.66ZM492.93,315.43c1.22-9.34,4.21-18.06,8.22-26.5-11.1,8.3-24.14,10.65-32.55-2.5-15.98-24.98,8.13-48.71,19.06-68.55,5.05-9.17,7.48-19.46.57-28.38,1.84,8.29,1.98,14.7-.68,22.82-8.22,25.1-32.96,30.56-32.75,61.97.11,16.97,8.34,19.71,19.13,29.27,2.39,2.12,4.42,5.49,6.45,7.18,1.54,1.28,11.17,5.84,12.55,4.69ZM454.64,647.21c9.65,3.93,20.66,4.48,30.86,2.67-13.4-29.71-24.81-60.47-27.58-93.3-4.92,6.25-9.31,13.58-12.5,20.87-1.82,4.16-6.45,15.84-6.77,19.85-.36,4.55,3.45,16.37,4.97,21.25,3.04,9.76,7.12,19.24,11.02,28.66ZM436.48,418.33l33.35-24.86c-13.9-19.67-26.52-42.27-34.24-65.19-8.57-25.44-17.87-58.37-22.17-84.74-3.92-23.99-5.06-52.66-14.96-74.93-1.33-2.97-6.43-13.28-9.33-13.83-1.23.01-2.41-.03-3.55-.1-6.04-.35-10.96-1.38-17.38.93-11.79,4.22-20.75,10.58-30.52,17.85-.73.54-2.37.92-2.55,1.18-.51.79.05,3.64-1.18,5.29-3.83,5.15-24.6,1.44-30.43-.14-1.39-.37-2.41-1.75-3.6-1.86-1.57-.15-7.93,1.2-9.86,1.69-.95.24-6.58,2.11-6.8,2.4-.66.89.68,1.48,1.14,1.91,2.46,2.25,5.28,4.31,7.31,6.99,1.1,1.45,4.02,7.54,4.45,7.79.44.25,9.02-1.3,9.96-1.67,1.66-.64,8.21-10.15,8.22-3.25.03,7.8,3.24,13.9,3.5,21.25.24,6.5-2.23,15.97-.23,22.17,1.77,5.49,7.98,2.74,9.58-1.39,2.74-7.05-.93-16.49.5-24.06.42-2.25,2.83-3.19,4.42-1.65,3.63,3.51,3.48,25.83,5.52,32.27.47,1.46,1.05,4.22,3.03,4.19l20.89-8.06c-.29-4.22-3.98-6.58-5.24-10.72-3.08-10.16,3.43-19.28,12.76-22.96,1.89-.74,8.44-3.2,9.35-.67.11.33.14.74.04,1.25-.48,2.56-8.16,2.97-10.08,4.86,7.13,6.48,12.64,14.02,12.26,24.18,12.73-8.27,3.3-18.87-.03-28.92-.19-.59-.38-1.2-.56-1.84-3.43-12.1-4.37-32.98,1.81-43.27,1.15-1.91,2.45-2.86,3.58-2.86,1.39,0,2.51,1.45,2.71,4.32.75,10.55-2.73,16.04,1.89,27.4,5.99,14.73,11.96,19.36,13.06,37.34,1.16,18.97,1.26,36.92.01,55.85-.48,7.26,2.62,18.05-6.16,21.15,11.63,24.63,26.85,47.69,35.07,73.87,4.3,13.73,5.08,26.46,4.46,40.84ZM462.25,460.05c.32-2.19-6.54-7.67-8.54-8.91-8.17-5.07-21.82-6.19-31.23-4.92-3.43.46-4.07,5.06-4.88,8.06-5.6,20.62-1.57,39.87,2.74,60.21l5.23,20.97c15.36-23.48,24.05-50.46,36.68-75.41ZM399.24,277.48l1.17-16.1c-3.29-14.19-.44-30.11-3.06-43.99-2.1-11.14-8.8-19.71-12.94-29.97l-2.41-10.86v13.96c0,13.77,10.76,25.08,13.31,37.76,1.49,7.42,1.96,18.51,2.34,26.26.26,5.31.85,14.85.19,22.84-.36,4.45-1.11,8.42-2.52,10.91-1.79,3.17-4.11,2.31-4.48,2.69-.2.2,1.03,2.76.59,4.28-.52,1.78-3.16,1.44-2.61,2.85,4.19,5.05,2.83,1.86,5.45.7,1.07-.48,2.92,0,3.47-.74l1.5-20.59ZM355.31,590.85c40.7-56.45,40.33-146.58,29.63-212.58l-5.66-20.55c.1,2.6-.15,5.25-.04,7.86.31,6.9,3.1,18.84-.26,24.87-2.81,5.03-12.04,2.96-14.83-1.61-4.57-7.49-2.09-23.49-1.87-32.12.14-5.88-.35-11.85-.03-17.73.43-7.79,3.2-19.09,2.57-26.41-.45-5.29-14.67-24.59-19.79-26.52-6.25-2.37-12.64,2.52-17.45,5.99-2.4,1.74-16.39,13.72-16.39,15.61,12.6,6.07,20.05,20.03,25.5,32.37,9.92,22.47,15.99,48.5,14.66,73.18-.19,3.5-1.53,18-2.8,20.36-1.16,2.13-3.13,2.36-3.87-.06-.78-2.57,1.69-15.03,1.9-18.93,1.47-27.13-8.71-76.98-28.6-96.7-2.15-2.14-6.64-5.96-9.73-4.99-1.49.46-13.25,18.96-14.43,21.68-8.72,20.15-9,47.43-11.25,69.11-1.13,10.88-3.23,21.8-4.07,32.7-2.08,26.99.74,54.84,3.41,81.71,1.77,17.82,10.74,42.81,22.79,56.21,1.18,1.31,5.8,6.51,7.15,5.82,3.07-1.58,10.44-11.47,12.55-14.74,16.79-25.94,18.69-53.18,21.61-83.27.77-2.47,5.17-.79,4.63,1.84-2.48,16.45-3.14,33.29-7.11,49.48-4.46,18.21-14.87,37.03-28.24,50.1-.28.98.64,1.08,1.11,1.54,3.52,3.5,22.83,16.14,27.21,16.44,4.39.29,9.24-7.24,11.7-10.66ZM370.12,150.04c5.68-1.39,9.66.01,15.28-.05-2.64-3.99-9.16-7.04-13.93-6.83-11.98.54-32.49,20.02-43.74,26.45l-15.87,7.62c4.46.14,8.8.99,13.31.72,8.59-.5,3.08-2.54,6.12-6.14.81-.96,3.65-2.06,5.02-3.15,8.37-6.6,23.39-16.07,33.81-18.62ZM372.43,322.67c-.86-30.79,6.47-61.2,3.43-91.96-.8-8.14-5.8-12.12-11.25-17.36-.99-.38-2.33,2.61-2.71,3.38-2.25,4.53-2.87,8.9.69,12.95.7-.82,1.22-4.99,1.79-5.35,3.94-2.51,4.53,4.1,4.7,6.35,1.61,20.35-.13,45.12.01,66.05.17,27.16-5.07,56.65-2.75,83.11.42,4.77,1.35,9.35,7.2,9.17,3.12-.09,2.43-8.13,2.36-10.55-.54-18.46-2.95-37.31-3.47-55.79ZM364.28,300.51v-52.44l-4.19,11.8c-8.39,10.35-14.65-1.59-14.19-10.44-9.9,5.31-13.56-3.72-13.62-12.26-1.69,1.02-1.91,2.96-3.37,4.45-3.12,3.19-8.94,4.49-12.64,1.7-1.26-.95-1.56-3.62-2.72-2.07l-5.77,62.66c8.18-7.17,21.5-22.78,33.01-23.19,10.81-.39,17.4,12.77,23.49,19.79ZM355.32,258.83c1.61-.91,4.27-13.11,5.56-15.53-1.88.9-9.55,3.66-10.1,5.22-.82,2.36.72,12.48,4.54,10.31ZM313.04,703.53c5.2,1.05,14.3-3.32,10.99-9.63-.63-1.19-17.26-17.48-18.29-16.77-.39,2.68-6.62,9.6-5.82,11.54,3.75,3.62,7.86,13.8,13.12,14.86ZM307.1,253.18c1.59-15.73,7.25-31.38,4.75-47.33-.98-.16-.95,1.2-1.14,1.9-2.08,7.46-3.33,16.76-4.77,24.53-4.85,26.18-12.45,63.6-11.11,89.69.04.77-.44,1.87.68,1.69,1.52-4.33,5.62-7.44,6.75-11.98,4.28-17.27,3.02-40.46,4.84-58.5ZM266.24,214.7c7.36-7.75,16.87-9.32,25.8-13.95-.62-3.51-10.3-15.94-13.53-14.35-4.66,2.29-12.22,22.58-12.27,28.3ZM267.83,635.47c2.48-.23,7.85-6.11,9.18-8.41-6.03-3.8-7.34-9.67-10.63-15.12-6.77-11.2-15.7-24.53-18.22-37.62-1.81-9.37,4.68-5.03,10.59-5.48,1.64-4.83-7.56-7.87-8.06-9.3-1.15-3.28,2.8-8.06,3.66-11.78,2.65-11.42-3.07-24.32-14.21-28.76-28.27-11.24-43.84,30.95-16.11,44.04,2.3,1.09,6.11.84,6.8,4.1.51,2.42,0,8,0,10.89,0,.4,1.57,1.62,2.35,1.67,2.41.13,5.25-3.66,7.49-.61,1.34,1.83,3.13,12.97,4.12,16.31,3.45,11.73,7.47,24.77,15.65,34.06,1.16,1.32,5.88,6.14,7.39,6.01ZM261.47,637.62l-6.7-7.94c-1.93-3.51-5.13-6.59-6.25-10.44-3.91-.97-12.39,14.15-11.56,14.98,6.25-2.85,19.67-9.51,16.34,3.4h8.17Z"/>
      <path class="cls-7" d="M854.68,522.75c22.11,49.64,17.93,92.46,3.78,143.63-12.01,43.41-56.23,108-95.81,130.28-24.82,13.98-52.36,20.44-79.61,27.92-1.47.21-2.19-.93-3.15-1.7-5.38-4.3-12.36-12.19-17.37-17.36-3.04-3.15-7.07-8.91-10.23-11.55-2.43-2.02-4.84-.88-4.24,2.13,8.9,9.06,16.96,19.64,26.39,28.15,5.15,4.65,11.06,8.47,16.34,12.94,1.7,1.43,9.34,7.9,9.89,9.18.5,1.17-.44.9-.93,1.09-4.23,1.58-8.59,1.62-12.78,4.25-1.63,1.02-5.74,4.19-4.05,6.26,2.12,2.61,4.89-1.68,7.39-2.91,2.1-1.03,10.68-3.62,12.79-3.62,3.36,0,3.34,5.05,1.95,7.47-3.16,5.48-26.29,10.31-33.14,13.16-5.22,2.16-11.29,5.51-5.65,11.44,4.13,4.34,12.3,4.35,20.8,3.27l.15,1.07c-2.3.37-2.69,2.99-.35,4.35,3.23,1.87,12.28,3.36,16.73,5.06,1.67.64,10.7,4.4,10.7,5.63-2.91,2.99-5.63,6.25-8.03,9.66-1.83,2.6-7.33,12.9-8.62,13.91-.49.38-.43.41-1.06.32-1.23-.18-6.92-2.92-8.61-3.68-13.33-5.95-38.81-18.78-48.9-28.73-7.78-7.68,7.88-15.29,12.6-19.39,5.98-5.21,11.08-12.2,10.92-20.47-4.49-15.73-9.44-29.25-18.14-43.16-1.86-2.97-10.84-16.8-13.59-17.11-2.03-.23-2.69.94-2.07,2.78.86,2.57,9.31,12.65,11.57,16.37,1.29,2.12,2.48,4.32,3.8,6.42.15.46-.56.46-1,.32-9.25-2.91-28.95-15.8-37.62-21.63-40.78-27.42-62.98-56.55-87.46-98.44-23.57-40.33-51.08-91.89-55.04-139.06-.25-3.05-.94-9.65.16-12.09,1.63-3.59,10.71-14.11,13.79-17.54,2.56-2.85,5.52-5.61,8.55-7.97.34-.48.48-.96.48-1.4l.58.04c-2.81,40.68,6.07,83.64,21.26,117.41,20.45,45.45,69.99,105.58,113.38,130.41,3.2,1.84,7.27,3.05,10.21,4.77,15.97,9.36,31.09,22.04,50.6,23.63,2.05.17,9.67.95,8.78-2.69-.8-3.24-6.56-1.71-9.46-2.07-9.67-1.23-18.5-5.34-27-9.78l-6.8-4.43c11.82,1.95,23.69,1.24,35.25-1.87,56.08-15.11,110.89-71.23,140.72-119.42,19.31-31.21,27.64-56.17,24.9-93.58-2.35-32.13-9.82-72.78-51.39-69.8-27.44,1.96-31.65,27.04-44.27,46.28-1.77.13-.19-5.27,0-6.12.68-3.22,4.48-11.45,4.4-13.3-.09-1.9-2.5-3.02-4.07-2.04-2.01,1.25-8.91,27.07-9.73,31.13-.69,3.41-2.75,22.15-3.94,22.97-4.88,3.37-5.72-13.82-8.09-15.27-4.31-2.64-7.06,6.43-8.86,5.12-11-32.09,17.07-67.88,46.12-78.84,37.54-14.17,70.42,3.01,86.09,38.2Z"/>
      <path class="cls-7" d="M750.03,236.48c8.55-2.92,17.51-6.83,17.4,6.45-.12,14.94-13.42,37.13-28.62,41.23-.31-5.53-2.85-7.68-5.99-7.68l.04-2.06c1.09.03,2.25.12,3.41.36,4.72.97,5.68,6.48,11.83.97,3.17-2.84,8.89-11.07,9.61-15.25.9-5.21.52-11.68-6.22-11.04-4.82.46-12.88,8.26-17.74,13.71l-1.17-.98c1.2-1.37,2.36-2.8,3.48-4.28,1.59-2.09,9.69-12.65,3.1-12.62-2.45.02-14.71,7.4-18.28,9.03-7.77,3.55-20.27,8.72-28.75,8.75-2.95.01-5.91-1.06-8.7-1.52l.22-1.34c.83.12,1.83.17,3.03.14,21.31-.6,43.44-17.07,63.35-23.87Z"/>
      <path d="M751.49,249.46c6.74-.64,7.12,5.83,6.22,11.04-.72,4.18-6.44,12.41-9.61,15.25-6.15,5.51-7.11,0-11.83-.97-1.16-.24-2.32-.33-3.41-.36-5.41-.18-8.99.99-1.89-7.97.7-.89,1.65-2.02,2.78-3.28,4.86-5.45,12.92-13.25,17.74-13.71ZM743.36,273.16c2.76.24,12.84-14.91,9.72-18.94-2.75-2.42-16.89,12.61-18.36,15.63,2.76-.55,6.76,3.14,8.64,3.31Z"/>
      <path d="M742.37,891.15c3.66,1.51,14.4,18.23,13.39,21.85-1.04,3.73-12.32.13-15.29-.26-1.28-.17-2.92.63-3.74.34-.63-.23-2.13-2.32-3.05-3.02-2.77-2.11-7.59-4.97-9.81-7.21-.55-.56-.98-.6-.72-1.65,6.18-2.73,10.78-13.52,19.22-10.05Z"/>
      <path class="cls-1" d="M753.08,254.22c3.12,4.03-6.96,19.18-9.72,18.94-1.88-.17-5.88-3.86-8.64-3.31,1.47-3.02,15.61-18.05,18.36-15.63Z"/>
      <path d="M739.16,245.29c6.59-.03-1.51,10.53-3.1,12.62-1.12,1.48-2.28,2.91-3.48,4.28-8.35,9.61-18.49,16.55-31.65,18.49-3.29.48-14.88,1.55-18.42.24-.29-.11-.53-.23-.7-.37-2.93-2.37.06-6.24-.98-7.87-1.23-1.96-11.12,1.88-7.29-5.79,2.75-5.5,6.17-5.95,9.89-5.34,2.79.46,5.75,1.53,8.7,1.52,8.48-.03,20.98-5.2,28.75-8.75,3.57-1.63,15.83-9.01,18.28-9.03ZM708.17,274.29c10.78-3.43,19.53-12.46,25.87-21.45-14.35,6.92-29.36,15.56-45.96,14.29-2.61-.2-8.04-3.36-8.51.68,5.27.03,6.92,4.83,6.12,9.55,7.4-.68,15.39-.81,22.48-3.07Z"/>
      <path d="M736.6,926.89c2.93,20-25.72,5.21-34.56,2.21-1.03-1.37,12.47-20.43,14.61-22.48,2.74-2.63,5.91.88,8.75,2.87,7.37,5.13,9.83,8.07,11.2,17.4Z"/>
      <path class="cls-7" d="M732.58,262.19l1.17.98c-1.13,1.26-2.08,2.39-2.78,3.28-7.1,8.96-3.52,7.79,1.89,7.97l-.04,2.06c-5.88,0-13.86,7.57-13.08,14.49-13.28.27-25.52-4.37-37.57-9.19l.34-.86c3.54,1.31,15.13.24,18.42-.24,13.16-1.94,23.3-8.88,31.65-18.49Z"/>
      <path class="cls-7" d="M734.72,886.21c-1.07,1.86-3.45,2.1-5.1,3.4-2.54,2-8.5,9.53-11.58,9.53-.74,0-10.97-5.39-13.44-6.31-4.3-1.6-11.83-4.31-16.17-4.97-.46-.07-.87-.07-1.23,0l-.15-1.07c8.17-1.05,16.65-3.12,22.11-3.33,8.62-.32,17.13,1.45,25.56,2.76Z"/>
      <path class="cls-7" d="M734.04,252.84c-6.34,8.99-15.09,18.02-25.87,21.45-7.09,2.26-15.08,2.39-22.48,3.07.8-4.72-.85-9.52-6.12-9.55.47-4.04,5.9-.88,8.51-.68,16.6,1.27,31.61-7.37,45.96-14.29Z"/>
      <path class="cls-7" d="M698.29,211.91c1.62.01,8.14,1.22,7.57,3.5-1.52,5.98-18.51,9.8-22.36,15.82-3.47,5.44-1.14,12.49-1.95,18.48-.59,4.39-4.31,9.57,2.1,10.5l-.22,1.34c-3.72-.61-7.14-.16-9.89,5.34-3.83,7.67,6.06,3.83,7.29,5.79,1.04,1.63-1.95,5.5.98,7.87.17.14.41.26.7.37l-.34.86c-2.01-.79-4.01-1.6-6.01-2.39,1.44-1.54-.36-5.44-1.7-5.44h-11.92c8.47-7.74,16-15.98,16.36-28.3.47-15.84-15.56-11.96-26.09-11.87-3.34-4.85-7.47-8.65-12.06-12.27,2.77-.23,6.92,4.62,8.93,4.45,6.15-.55,15.4-11.25,20.63-10.57,1.65.22,2.86,1.58,4.3,1.88,5.28,1.11,16.5-5.37,23.68-5.36Z"/>
      <path class="cls-7" d="M685.01,307.31c-.53.56-6.1-2.03-6.51-2.7-.48-.78,1.64-2.92,1.67-4.43.06-2.39-3.33-6.78-5-8.55-4.49-4.76-9.92-4.74-.71-10.87.8,9.89,9.87,16.79,10.55,26.55Z"/>
      <path class="cls-7" d="M664.76,287.73c.69,2.93,11.27,9.51,10.72,12.42-.18.95-1.18.94-2.06.73-4.1-.96-11.01-6.57-14.92-3.4-.96.78-2.04,3.7-2.48,3.73-1.59.14-7.78-2.13-10.84-2.13-2.39,0-12.42.88-11.59,4.21.91,3.68,6.05.86,8.87.64,4.98-.41,12.02.72,16.22,3.5,3.96,2.63,2.82,6.4,3.86,10.78-11.49-.42-23.23-8.52-32.68,2.05,1.67-9.86-6.94-4.86-11.52-1.64-4.76,3.34-8.74,7.75-11.92,12.59-3.04,4.64-6.49,14.37-11.28,16.64-1.61.77-6.71,2.26-8.18,1.36-.86-.54-4.8-6.68-6.15-8.16-3.7-4.08-8.19-8.09-12.97-10.86-2.78-1.61-11.03-6.07-13.58-3.47-3.56,3.63,3.13,3.65,5.16,4.4,15.44,5.7,20.26,18.73,30.93,29.02,1.12,1.07,3.05.74,1.73,3.03-2.35,4.07-4.76-1.94-6.47-3.77-7.76-8.33-18.99-17.26-30.12-20.26-2.42-.66-14.14-3.11-15.45-1.11-2.93,4.44,9.71,4.49,12.21,5.02,7.23,1.52,14.24,5.34,19.71,10.24-22.41,15.17-46.68,21.97-71.94,8.63-20.54-10.86-25.85-21.7-29.28-44.26-.33-2.16-1.02-4.16-.22-6.26,7.68,1.88,13.59,8.42,21.79,8.86-.93,4.9-.12,10.78.98,15.7,1.38,6.12,6.19,17.2,12.3,8.15,1-.04,7.54,18.44,12.26,3.38,2.38-.08,5.51,5.65,11.57,5.51.99-.02,6.11-1.08,6.37-1.5.34-.53.36-2.89-.31-3.39-1.35-1.02-5.71.47-8.47-.25-4.27-1.13-6.6-8.4-11.53-4.77-1.95,1.43-1.33,4.02-3.41,3.73-2.14-6.44-5.8-13.55-11.25-4.78-1.5,0-4.34-11.61-3.74-13.61,8.92,7.62,20.75,11.35,32.19,7.34,7.32-2.57,16.52-9.43,17.89-17.52.32-1.89.98-6.99.98-8.55v-10.55c4.31.83,14.88,3.93,17.36,7.49,1.02,1.47.85,3.85,1.99,4.83,1.92,1.64,3.69-.35,3.73-2.44.1-4.76-6.18-8.68-9.89-10.47-3.18-1.52-11.24-3.13-12.8-4.23-1.07-.75-2.21-5.14-1.67-6,.17-.27,4.77-2.06,5.84-2.67,1.71-.99,3.43-3.15,5.35-3.51,4.26-.79,10.73,1.73,14.18.56,1.7-.58.86-3.04,1.11-3.32.42-.45,3.9,1.81,5.15,2,4.54.72,6.52-.76,10.17-1.32.24-.04.43-.05.58-.05,1.1,0-.24.93-.24,1.08,0,3.68-.46,8.82,0,12.26,1.04,7.74,7.47,13.95,14.84,15.8,2.45.62,10.82,2.3,11.64-.94.94-3.7-9.11-2.95-12.16-3.99-7.49-2.53-10.02-9.64-10.26-17.04-.06-1.99,1.23-3.91.59-5.96-.45-1.49-1.94-1.29-2.45-2.09-.07-.12-.12-.26-.15-.42,4.06-1.95,3.21,1.93,4.43,4.75,9.97,23.12,42.26,19.71,56.51,3.42,1.54-1.76,4.58-8.41,5.55-8.75,3-1.04,8.22,1.73,11.81-.1-1.38,4.04-5.83,4.43-4.59,9.69ZM582.56,306.62c.68-1.34-1.18-4.96-2.09-6.09-3.39-4.21-23.37-12.91-28.44-11.46-2.27.66-1.91,2.76-.01,3.82,1.76.99,7.8,1.97,10.59,3.02,3.73,1.4,11.32,4.46,13.82,7.3,1.16,1.32,3.85,7.91,6.13,3.41Z"/>
      <path class="cls-7" d="M672.59,239.39c5.24,4.78-2.66,23.96-9.04,27.06-1.79.14-.69-.29-.48-1.18.91-3.78,2.12-2.86,4.56-4.96,3.58-3.1,1.67-3.48,2.56-6.98.6-2.35,5.11-4.5.78-7.27-2.34.16-3.91,4.93-5.49,5.32-.94.23-2.63-.61-3.93-.62-18.74-.24-33.28,9.33-50.92,13.83-2.69.69-5.14,1.56-8.01,1.18-.94-.9,10.66-19.1,10.92-23.51.26-4.35-2.41-7.29-6.82-5.41-1.17.5-4.14,4.54-5.06,5.83-.67.94-5.75,10.99-7.21,9.47.05-7.54-3.9-13.57-6.12-20.43,1.68,1.55,3.74,5.51,6.18,2.45,2.66-3.35-5.03-12,2.32-12.66,7.38-.67,22.02-1.29,29.19-.6,7.68.75,14.25,5.8,19.49,11.15-5.49,2.75-26.88,12.82-27.24,19.13-.09,1.68,1.42,3.28,3.05,3.39,6.81.5,19.37-14.19,26.88-15.75,3.38-.69,14.52-1.26,18.11-1,1.4.1,5.39.74,6.28,1.56Z"/>
      <path class="cls-4" d="M669.35,362.49l-12.69,7.39c-10.44,4.36-20.81,9.61-32.12,11.46-11.87,1.94-23.25-.88-32.13,9.75-.07-3.92,1.42-8.85,1.42-12.61,0-2.43-1.59-7.75-1.26-9.45.11-.62,3.07-3.54,3.73-3.73,3.04-.83,14.94,9.26,19.47,10.93,18.4,6.78,36.2-9.86,53.58-13.74Z"/>
      <path class="cls-7" d="M657.1,255.56v4.76c-1.11.11-.84-1.49-1.64-2.1-2.43-1.84-8.32.19-11.3.06-.16-.98,1.18-.92,1.89-1.16,3.56-1.15,7.29-1.85,11.05-1.56Z"/>
      <path class="cls-7" d="M652.45,272.37l3.96-7.95c-1.68,17.97-16.7,30.41-34.39,31.31-7.53.38-17.67-4.49-20.76-11.57,6.22,4.57,16.56,7.89,24.29,7.91,11.14.03,21.93-10.41,26.9-19.7Z"/>
      <path class="cls-8" d="M655.73,175.2c2.42,2.38-9.82,18.76-10.22,22.47-.84.61-4.39-3.41-5.65-4.22-1.78-1.15-4.45-2.37-6.6-2.6,2.63-2.68,19.26-18.81,22.47-15.65Z"/>
      <path class="cls-9" d="M647.26,826.23c1.41,1.05,6.95,15.04,6.42,15.71-15.04-8.26-32.79-9.45-47.67-18.72l-4.75-3.07c3.46-.93,7.04-1.58,10.39-2.89,2.9-1.13,6.69-4.35,9.36-3.63,6.8,3.69,13.61,7.48,20.64,10.72,1.72.79,4.42,1,5.61,1.88Z"/>
      <path class="cls-5" d="M635.29,264.74c.86-.67,15.74-2.92,16.35-2.37-2.45,10.68-14.62,25.2-26.21,25.25-3.56.01-19.7-3.58-20.69-7.33-.77-2.94,7.87-4.39,9.76-6.34,2.49,6.03,9.84,8.49,15.02,4.09,3.85-3.26,5.03-12.72,5.77-13.3Z"/>
      <path class="cls-8" d="M638.68,198.04c8.27,6.69-3.99,13.91-2.02,21.42-3.65-2.26-8.51-3.2-12.82-3.37l.1-2.07c.33,0,.71-.1,1.14-.31,2.68-1.3.6-4.41.69-6.16.12-2.25,1.79-11.21,3.07-12.64,1.28-1.42,8.39,1.95,9.84,3.13Z"/>
      <path class="cls-3" d="M623.54,336.76l4.95-12.41c-1.92,9.08-5.06,18.69-8.34,27.4-1.58,4.2-4.16,11.83-6.5,15.29-.34.5-1.41,2.43-2.17,1.57-.72-.8,7.72-16.8,8.68-19.57,1.39-4.01,1.91-8.29,3.38-12.28Z"/>
      <path class="cls-7" d="M612.17,330.83c.95-1.19,11.46-11.48,12.23-10.57-5,14.94-16.47,26.16-26.86,37.5-2.4,1.97-4.91-2.35-6.5-4.12,12.79-.69,14.47-14.51,21.13-22.81Z"/>
      <path class="cls-7" d="M623.94,214.02l-.1,2.07c-.16-.01-.31-.02-.46-.02-3.09-.1-5.55.69-8.14.7-8.11.03-23.24-2.87-26.58,6.1-1-1.06-4.41-7.27-3.74-8.17,3.81,3.06,9.11,4.36,9.54-2.05,16.91,10.18,16.4-12.42,28.24-17.03.06,2.55-3.03,18.4,1.24,18.4Z"/>
      <path class="cls-3" d="M600.59,360.78l16.32-17.37c-2.17,6.13-5.2,15.46-8.94,20.68-1.76,2.46-5.41-1.98-7.38-3.31Z"/>
      <path d="M603.32,304.23c3.05,1.04,13.1.29,12.16,3.99-.82,3.24-9.19,1.56-11.64.94-7.37-1.85-13.8-8.06-14.84-15.8-.46-3.44,0-8.58,0-12.26,0-.15,1.34-1.08.24-1.08l1.96-.88c.51.8,2,.6,2.45,2.09.64,2.05-.65,3.97-.59,5.96.24,7.4,2.77,14.51,10.26,17.04Z"/>
      <path class="cls-7" d="M614.19,268.51l-11.23,6.12c-.66.87-2.31,1.85-2.71,2.73-.67,1.47.3,3.73-1.03,4.08-.02-1.51-1.39-8.96-2.14-9.44-2.59-1.63-5.48,1.91-7.47,2.9-8.48,4.23-13.89,1.7-18.88-5.5-2.39-3.46-3.32-8.86-7.6-10.09l4.07-10.56c-.87,10.88,2.17,24.8,15.37,25.21,3.68.12,10.91-1.83,11.76-5.96.56-2.72-1.05-3.48-1.24-5.35-.06-.6.58-4.79.76-4.96.31-.29,1.89-.03,2.65-.4,4.91-2.37,7.73-12.51,12.24-16.03.01,7.27-12.09,19.8-10.88,26.19,1.09,5.84,12.56,1.79,16.33,1.06Z"/>
      <path class="cls-7" d="M614.86,810.27c-.05,1.93-16.12,5.96-18.72,5.86-5.59-.22-9.6-8.76-15.81-6.35-7.13,2.77-26.65,18.52-30.7,25.13-1.48,2.41-2.86,7.83-3.88,9.05-.85,1.01-4.23,2.42-5.78,3.76-2.06,1.76-7.91,6.94-5.82,9.92,2.16,3.08,5.7-3.85,7.51-5.5,1.47-1.33,3.15-2.29,4.79-3.37,4.7,9.37,13.47,15.78,21.91,21.65,3.57,2.48,14.19,7.73,15.91,10.64.58.98.89,1.38.55,2.61-1.07,3.87-20.94,9-25.45,10.69-15.14,5.7-29.04,13.52-42.87,21.81-1.15-.23-2.09-9.73-2.61-11.71-.97-3.79-2.9-8.54-5.66-11.37-1.04-1.07-4.17-2.61-4.34-2.81-1.02-1.2.31-1.13.95-1.42,5.77-2.59,14.16-3.2,20.41-2.57,3.29.33,12.17,3.81,14.02,2.99,5.77-2.56-7.54-6.47-9.48-6.86-9.73-1.94-18.68-.88-27.95,2.43,0-5.54-3.74-9.39-7.49-12.94,12.87-1.28,26.71,5.24,39.15,5.5,3.7.07,7.49-1.83,5.14-5.89-3.4-5.88-23.86-5.97-29.45-15.48-1.91-3.25-1.58-6.82-3.13-9.81-.83-1.63-5.1-4.48-1.23-4.22,2.77.18,7.46,1.75,10.13,2.81,3.54,1.41,12.1,7.76,13.82,8.01,1.21.18,2.29.09,3.02-1.04.99-3.35-12.43-10.24-15.2-11.34-4.38-1.74-8.88-2.45-13.39-3.61,7.29-11.06,20.26-18.05,31.85-23.99,4.51-2.31,27.75-11.75,28.65-14.99.27-.99.16-1.84-.55-2.61-17.14-14.83-33.05-31.13-47.02-49,8.06.35,16.81,2.21,24.19-2.22,20.46,26.89,46.11,48.18,74.53,66.24Z"/>
      <path class="cls-7" d="M581.44,171.18l8.92,40.79c-3.58-.81-4.28-5.37-7.14-7.5-7.76-5.77-12.09,2.53-18.72,4.78-8.74-15.77-3.34-37.69,16.94-38.07Z"/>
      <path class="cls-7" d="M579.78,361.1c1.71.17,6.93,6.03,6.2,7.5-23.81,24.17-53.72,45.95-73.4,73.75-15.97,22.58-23.98,50.55-25.99,79.69l-.58-.04c0-1.49-1.65-2.6-3.43-2.1-1.68.47-12.83,12.95-14.76,15.26-13.07,15.65-26.3,35.43-32.04,55.12-4.19,14.39-4.02,29.87-6.81,44.62l-2-7c-2.84-3.51-8.67,2.38-10.92,4.28.01-2.42.13-8.4-3.04-8.23-25.54,7.31-52.44,7.78-78.23,12.43-4.76.85-10.17,1.29-14.08,4.29-10.31,7.91-12.44,22.6-18.11,33.65-1.77,3.46-7.8,14-11.56,14.38-8.46.83-28.69-14.88-35.02-20.76-.72-.68-2.09-2.39-.33-2.39,4.07,0,9.02.38,12.94,0,.76-.08,5.29-1.03,5.5-1.31.74-1.03.46-2.94-.84-3.36-1.81-.59-10.91-.22-13.54-.13-6.16.22-21.87,2.98-26.55-1.31-3.56-3.25-1.52-14.32,1.01-17.42.93-1.14,7.63-4.95,9.32-5.66,1.62-.67,3.18-1.54,5.01-1.46-1.38,11.5,16.02,7.48,22.26,4.21,5.32-2.8,11.95-10.22,12.99-16.29,1.51-8.83-2.82-13-9.71-6.32l-5.11-10.19c6.82-3.15,13.38-4.71,19.75.32,10.33,8.16,10.57,17.3,27.49,15.92,20.36-1.66,59.01-21.12,78.3-30.65,8.73-4.32,16.56-8.22,23.25-15.56,1.56-1.71,7.89-8.69,5.13-10.62-2.61-1.82-5.73,4.33-7.17,5.85-1.52,1.62-4.16,4.6-5.8,5.79-.88.64-.92.06-.67-.68,2.74-8.1,11.8-25.62,16.21-33.5,6.62-11.8,13.66-21.13,19.78-34.03,10.29-21.71,18.91-44.29,30.06-65.62,1.3-.94,6.81,6.35,7.62,7.7,2.04,3.42,4.4,14.23,4.95,14.79,2.85,2.88,3.93-.8,3.69-3.67-.72-8.64-6.75-18.1-13.48-23.25,5.63-9.86,12.83-17.52,21.41-24.84,13.47-11.51,31.88-25.27,46.68-35.03,4.18-2.76,30.71-18.42,33.62-18.13Z"/>
      <path class="cls-7" d="M577.66,224.3c2.12.56,8.16,12.58,7.26,13.55-7.85,3.5-5.84-14.56-13.08-5.92l-3.94,10c-.09-1.6-.56-3.1-1.26-4.54-1.09-2.22-2.77-2.93-3.52-4.98,5.03.75,4.22-6.78,4.77-7.5.66-.83,2.71,2.63,4.42,2.69,2.77.1,3.1-3.9,5.35-3.3Z"/>
      <path d="M580.47,300.53c.91,1.13,2.77,4.75,2.09,6.09-2.28,4.5-4.97-2.09-6.13-3.41-2.5-2.84-10.09-5.9-13.82-7.3-2.79-1.05-8.83-2.03-10.59-3.02-1.9-1.06-2.26-3.16.01-3.82,5.07-1.45,25.05,7.25,28.44,11.46Z"/>
      <path class="cls-7" d="M582.87,222.87c-1.28-.49-1.96-2.01-3.15-2.64-4.43-2.31-5.98,1.44-7.3,1.2-1.7-.3-5.83-5.04-5.79-7.22l7.87-5.5,3.6-1.51c.75,5.47,2.74,10.6,4.77,15.67Z"/>
      <path class="cls-1" d="M579.38,152.13c1.45.9.22,11.79,1.45,14.21-8.38,0-15.36,4.57-20.42,10.9,1.8-6.13,4.7-12.53,8.56-17.65,1.59-2.11,7.45-9.31,10.41-7.46Z"/>
      <path class="cls-5" d="M580.15,268.49c-3.63.17-5.82-3.34-6.94-6.34-2.81-7.57-2.1-17.86,1.83-24.98.87,2.56,3.34,4.11,4.72,6.17,3.03,4.52-.13,13.12-.32,18.66-.08,2.31.05,4.28.71,6.49Z"/>
      <path class="cls-3" d="M574.69,385.29c.48-.41,3.28-2.54,3.41-2.38-1.7,10.33-1.9,20.41-4.42,30.66-6.31,25.75-18.07,48.09-35.87,67.63-.61.67-.61,1.46-1.92,1.14-.14-8.25.09-27-8.67-31.17-7.53-3.58-15.39,5.61-15.11,13.02.41,10.73,6.01,25.33,7.9,36.42,2.1,12.35,2.14,28.43-3.12,40.03-.27.59-.3,2.12-1.42.96-.54-.55-3.07-12.46-3.91-14.83-3.23-9.12-8.83-18-19.26-19.23,4.13-29.08,15.33-53.51,34.39-75.6,13.09-15.17,32.65-33.61,48-46.65Z"/>
      <path class="cls-7" d="M561.42,237.86c1.94,1.68,1.87,4.01,1.63,6.38-.48,5-5.37,13.76-5.37,17.79v11.92c-1.12-.62-7.21-2.45-7.49-2.74-1.19-1.19.48-1.14.97-1.41,1.26-.67,4.07-1.34,4.7-2.82,3.67-8.61-14.9-11.4-15.21-12.45-.38-1.31.62-1,1.36-1.33,8.41-3.76,20.17-2.51,19.41-15.34Z"/>
      <path class="cls-9" d="M554.27,368.62l-42,29.87c-6.64-5.03-14.59-8.25-22.69-10.13,7.52-5.46,17.25-7.85,25.86-11.26,7.06-2.79,4.61-2.76,12.62-3.17,9.2-.48,17.55-2.26,26.21-5.31Z"/>
      <path class="cls-3" d="M544.08,299.46c.19,4.05-.58,14.38-1.57,18.23-3.06,11.9-21.43,13.33-31.27,8.08l2.23-1.96c1.96.9,6.11.65,7.7.46,6.88-.81,19.34-9.11,14.04-16.61-5.21-7.36-25.58-3.24-31.32,2.73-6.19,6.44-3.06,15.72,4.75,18.73.17,1.24-1.46.62-2.07.37-11.45-4.79-9.73-13.91-6.95-24.05,1.49-5.46,6.91-18.77,11.96-21.42,6.39-3.35,24.21-4.54,28.68,2.24,1.84,2.81,3.66,9.81,3.82,13.2Z"/>
      <path class="cls-9" d="M537.37,739.33c.32.76.96.68-.13,1.46-3.86,2.74-23.09,1.66-26.59-1.31-20.37-26.9-40.19-54.78-53.07-86.19,9.97,2.45,20.53,2.95,30.58.73,14.46,29.46,30.79,58.14,49.21,85.31Z"/>
      <path class="cls-3" d="M530.66,309.48c4.5,2.65-4.41,8.46-6.77,9.34-2.66.99-9.8,1.01-10.48,1.76-1.52,1.69-1.14,2.68.06,3.23l-2.23,1.96c-.81-.43-1.57-.91-2.25-1.43-14-10.7,13.4-19.75,21.67-14.86Z"/>
      <path d="M511.31,915.94c.13,2.91.09,2.89-2.19,4.45-5.68,3.87-17.76,7.57-24.58,6.62-14.96-2.08-3.75-18.85,2.29-24.83,1.21-1.19,11.83-9.59,12.62-9.6,7.51-.07,11.61,17.69,11.86,23.36Z"/>
      <path class="cls-9" d="M483.79,390.65c7.99,3.5,17.67,4.93,24.17,10.99-13.01,10.05-24.63,19.96-33.23,34.19-2.83,4.69-6.52,14.48-9.34,17.9-.88,1.07-.57.54-1.34.02-1.93-1.31-4.13-3.91-6.25-5.34-3.85-2.61-13.06-6.93-17.58-6.93h-16.69l7.49-11.23c15.55-15.58,34.03-28.15,52.77-39.6Z"/>
      <path d="M484.64,874.1c6.58-1.23,13.81,6.37,12.29,12.99-.8,3.45-8,7.18-10.76,9.66-1.58,1.42-6.35,7.43-7.28,7.7-3.77,1.11-16.74.37-17.27-4.95-.97-9.59,14.07-23.71,23.02-25.4Z"/>
      <path d="M501.15,288.93c-4.01,8.44-7,17.16-8.22,26.5-1.38,1.15-11.01-3.41-12.55-4.69-2.03-1.69-4.06-5.06-6.45-7.18-10.79-9.56-19.02-12.3-19.13-29.27-.21-31.41,24.53-36.87,32.75-61.97,2.66-8.12,2.52-14.53.68-22.82,6.91,8.92,4.48,19.21-.57,28.38-10.93,19.84-35.04,43.57-19.06,68.55,8.41,13.15,21.45,10.8,32.55,2.5Z"/>
      <path class="cls-9" d="M485.5,649.88c-10.2,1.81-21.21,1.26-30.86-2.67-3.9-9.42-7.98-18.9-11.02-28.66-1.52-4.88-5.33-16.7-4.97-21.25.32-4.01,4.95-15.69,6.77-19.85,3.19-7.29,7.58-14.62,12.5-20.87,2.77,32.83,14.18,63.59,27.58,93.3Z"/>
      <path class="cls-7" d="M469.83,393.47l-33.35,24.86c.62-14.38-.16-27.11-4.46-40.84-8.22-26.18-23.44-49.24-35.07-73.87,8.78-3.1,5.68-13.89,6.16-21.15,1.25-18.93,1.15-36.88-.01-55.85-1.1-17.98-7.07-22.61-13.06-37.34-4.62-11.36-1.14-16.85-1.89-27.4-.2-2.87-1.32-4.32-2.71-4.32l.14-2.88c1.14.07,2.32.11,3.55.1,2.9.55,8,10.86,9.33,13.83,9.9,22.27,11.04,50.94,14.96,74.93,4.3,26.37,13.6,59.3,22.17,84.74,7.72,22.92,20.34,45.52,34.24,65.19Z"/>
      <path class="cls-9" d="M453.71,451.14c2,1.24,8.86,6.72,8.54,8.91-12.63,24.95-21.32,51.93-36.68,75.41l-5.23-20.97c-4.31-20.34-8.34-39.59-2.74-60.21.81-3,1.45-7.6,4.88-8.06,9.41-1.27,23.06-.15,31.23,4.92Z"/>
      <path class="cls-3" d="M400.41,261.38l-1.17,16.1-1.4-.1c.66-7.99.07-17.53-.19-22.84-.38-7.75-.85-18.84-2.34-26.26-2.55-12.68-13.31-23.99-13.31-37.76v-13.96l2.41,10.86c4.14,10.26,10.84,18.83,12.94,29.97,2.62,13.88-.23,29.8,3.06,43.99Z"/>
      <path class="cls-3" d="M399.24,277.48l-1.5,20.59c-.55.73-2.4.26-3.47.74-2.62,1.16-1.26,4.35-5.45-.7-.55-1.41,2.09-1.07,2.61-2.85.44-1.52-.79-4.08-.59-4.28.37-.38,2.69.48,4.48-2.69,1.41-2.49,2.16-6.46,2.52-10.91l1.4.1Z"/>
      <path class="cls-6" d="M384.94,378.27c10.7,66,11.07,156.13-29.63,212.58-2.46,3.42-7.31,10.95-11.7,10.66-4.38-.3-23.69-12.94-27.21-16.44-.47-.46-1.39-.56-1.11-1.54,13.37-13.07,23.78-31.89,28.24-50.1,3.97-16.19,4.63-33.03,7.11-49.48.54-2.63-3.86-4.31-4.63-1.84-2.92,30.09-4.82,57.33-21.61,83.27-2.11,3.27-9.48,13.16-12.55,14.74-1.35.69-5.97-4.51-7.15-5.82-12.05-13.4-21.02-38.39-22.79-56.21-2.67-26.87-5.49-54.72-3.41-81.71.84-10.9,2.94-21.82,4.07-32.7,2.25-21.68,2.53-48.96,11.25-69.11,1.18-2.72,12.94-21.22,14.43-21.68,3.09-.97,7.58,2.85,9.73,4.99,19.89,19.72,30.07,69.57,28.6,96.7-.21,3.9-2.68,16.36-1.9,18.93.74,2.42,2.71,2.19,3.87.06,1.27-2.36,2.61-16.86,2.8-20.36,1.33-24.68-4.74-50.71-14.66-73.18-5.45-12.34-12.9-26.3-25.5-32.37,0-1.89,13.99-13.87,16.39-15.61,4.81-3.47,11.2-8.36,17.45-5.99,5.12,1.93,19.34,21.23,19.79,26.52.63,7.32-2.14,18.62-2.57,26.41-.32,5.88.17,11.85.03,17.73-.22,8.63-2.7,24.63,1.87,32.12,2.79,4.57,12.02,6.64,14.83,1.61,3.36-6.03.57-17.97.26-24.87-.11-2.61.14-5.26.04-7.86l5.66,20.55ZM318.27,544.95c15.28-26.03,17.18-96.94,16.09-127.67-.58-16.25-4.51-68.88-16.82-79.21-1.28-1.07-4.26-2.71-5.92-2.63-9.5.48-15.19,22.44-17,29.89-10.8,44.43-12.95,123.74-.27,167.56,3.56,12.32,12.4,31.69,23.92,12.06Z"/>
      <path class="cls-7" d="M385.58,154.68l-.14,2.88c-1.13,0-2.43.95-3.58,2.86-6.18,10.29-5.24,31.17-1.81,43.27l-1.63.47c-.91-2.53-7.46-.07-9.35.67-9.33,3.68-15.84,12.8-12.76,22.96,1.26,4.14,4.95,6.5,5.24,10.72l-20.89,8.06c-1.98.03-2.56-2.73-3.03-4.19-2.04-6.44-1.89-28.76-5.52-32.27-1.59-1.54-4-.6-4.42,1.65-1.43,7.57,2.24,17.01-.5,24.06-1.6,4.13-7.81,6.88-9.58,1.39-2-6.2.47-15.67.23-22.17-.26-7.35-3.47-13.45-3.5-21.25-.01-6.9-6.56,2.61-8.22,3.25-.94.37-9.52,1.92-9.96,1.67-.43-.25-3.35-6.34-4.45-7.79-2.03-2.68-4.85-4.74-7.31-6.99-.46-.43-1.8-1.02-1.14-1.91.22-.29,5.85-2.16,6.8-2.4,1.93-.49,8.29-1.84,9.86-1.69,1.19.11,2.21,1.49,3.6,1.86,5.83,1.58,26.6,5.29,30.43.14,1.23-1.65.67-4.5,1.18-5.29.18-.26,1.82-.64,2.55-1.18,9.77-7.27,18.73-13.63,30.52-17.85,6.42-2.31,11.34-1.28,17.38-.93Z"/>
      <path class="cls-7" d="M385.4,149.99c-5.62.06-9.6-1.34-15.28.05-10.42,2.55-25.44,12.02-33.81,18.62-1.37,1.09-4.21,2.19-5.02,3.15-3.04,3.6,2.47,5.64-6.12,6.14-4.51.27-8.85-.58-13.31-.72l15.87-7.62c11.25-6.43,31.76-25.91,43.74-26.45,4.77-.21,11.29,2.84,13.93,6.83Z"/>
      <path class="cls-4" d="M380.61,205.53c3.33,10.05,12.76,20.65.03,28.92.38-10.16-5.13-17.7-12.26-24.18,1.92-1.89,9.6-2.3,10.08-4.86.1-.51.07-.92-.04-1.25l1.63-.47c.18.64.37,1.25.56,1.84Z"/>
      <path class="cls-2" d="M375.86,230.71c3.04,30.76-4.29,61.17-3.43,91.96.52,18.48,2.93,37.33,3.47,55.79.07,2.42.76,10.46-2.36,10.55-5.85.18-6.78-4.4-7.2-9.17-2.32-26.46,2.92-55.95,2.75-83.11-.14-20.93,1.6-45.7-.01-66.05-.17-2.25-.76-8.86-4.7-6.35-.57.36-1.09,4.53-1.79,5.35-3.56-4.05-2.94-8.42-.69-12.95.38-.77,1.72-3.76,2.71-3.38,5.45,5.24,10.45,9.22,11.25,17.36Z"/>
      <path class="cls-4" d="M360.88,243.3c-1.29,2.42-3.95,14.62-5.56,15.53-3.82,2.17-5.36-7.95-4.54-10.31.55-1.56,8.22-4.32,10.1-5.22Z"/>
      <path d="M334.36,417.28c1.09,30.73-.81,101.64-16.09,127.67-11.52,19.63-20.36.26-23.92-12.06-12.68-43.82-10.53-123.13.27-167.56,1.81-7.45,7.5-29.41,17-29.89,1.66-.08,4.64,1.56,5.92,2.63,12.31,10.33,16.24,62.96,16.82,79.21ZM318,534.46c11.61-32.24,12.97-86.84,11.59-121.27-.6-15.02-4.69-59.01-13.65-70.11-1.35-1.68-2.62-2.97-4.96-2.27-6.3,1.88-11.88,24.89-13.21,31.08-9.1,42.38-10.46,109.08-1.24,151.33,3.37,15.43,10.88,40.63,21.47,11.24Z"/>
      <path class="cls-9" d="M329.59,413.19c1.38,34.43.02,89.03-11.59,121.27-10.59,29.39-18.1,4.19-21.47-11.24-9.22-42.25-7.86-108.95,1.24-151.33,1.33-6.19,6.91-29.2,13.21-31.08,2.34-.7,3.61.59,4.96,2.27,8.96,11.1,13.05,55.09,13.65,70.11ZM314.3,423.15c1.45-2.03,4.74-3.3,3.36-6.18-.31-.64-1.16-1.33-1.94-1.26-3.48.31-11.26,13.99-12.55,17.42-3.41,9.08-3.88,27.23-.51,36.28.72,1.94,2.93,3.12,4.13,1.39.89-1.28-1.62-13.15-1.77-16.01-.67-13.28,1.7-21,9.28-31.64Z"/>
      <path class="cls-8" d="M324.03,693.9c3.31,6.31-5.79,10.68-10.99,9.63-5.26-1.06-9.37-11.24-13.12-14.86-.8-1.94,5.43-8.86,5.82-11.54,1.03-.71,17.66,15.58,18.29,16.77Z"/>
      <path d="M317.66,416.97c1.38,2.88-1.91,4.15-3.36,6.18-7.58,10.64-9.95,18.36-9.28,31.64.15,2.86,2.66,14.73,1.77,16.01-1.2,1.73-3.41.55-4.13-1.39-3.37-9.05-2.9-27.2.51-36.28,1.29-3.43,9.07-17.11,12.55-17.42.78-.07,1.63.62,1.94,1.26Z"/>
      <path class="cls-2" d="M311.85,205.85c2.5,15.95-3.16,31.6-4.75,47.33-1.82,18.04-.56,41.23-4.84,58.5-1.13,4.54-5.23,7.65-6.75,11.98-1.12.18-.64-.92-.68-1.69-1.34-26.09,6.26-63.51,11.11-89.69,1.44-7.77,2.69-17.07,4.77-24.53.19-.7.16-2.06,1.14-1.9Z"/>
      <path class="cls-4" d="M292.04,200.75c-8.93,4.63-18.44,6.2-25.8,13.95.05-5.72,7.61-26.01,12.27-28.3,3.23-1.59,12.91,10.84,13.53,14.35Z"/>
      <path class="cls-8" d="M277.01,627.06c-1.33,2.3-6.7,8.18-9.18,8.41-1.51.13-6.23-4.69-7.39-6.01-8.18-9.29-12.2-22.33-15.65-34.06-.99-3.34-2.78-14.48-4.12-16.31-2.24-3.05-5.08.74-7.49.61-.78-.05-2.35-1.27-2.35-1.67,0-2.89.51-8.47,0-10.89-.69-3.26-4.5-3.01-6.8-4.1-27.73-13.09-12.16-55.28,16.11-44.04,11.14,4.44,16.86,17.34,14.21,28.76-.86,3.72-4.81,8.5-3.66,11.78.5,1.43,9.7,4.47,8.06,9.3-5.91.45-12.4-3.89-10.59,5.48,2.52,13.09,11.45,26.42,18.22,37.62,3.29,5.45,4.6,11.32,10.63,15.12ZM245.81,556.93c16.1-14.15,2.11-39.89-19.25-36.28-4.53.76-10.58,5.7-12.78,9.69-11.03,19.97,15.22,41.37,32.03,26.59Z"/>
      <path class="cls-7" d="M254.77,629.68l6.7,7.94h-8.17c3.33-12.91-10.09-6.25-16.34-3.4-.83-.83,7.65-15.95,11.56-14.98,1.12,3.85,4.32,6.93,6.25,10.44Z"/>
      <path d="M226.56,520.65c21.36-3.61,35.35,22.13,19.25,36.28-16.81,14.78-43.06-6.62-32.03-26.59,2.2-3.99,8.25-8.93,12.78-9.69ZM233.79,557.22c20.82-1.35,17.46-33.65-3.77-32.49-20.73,1.13-17.05,33.84,3.77,32.49Z"/>
      <path class="cls-6" d="M230.02,524.73c21.23-1.16,24.59,31.14,3.77,32.49-20.82,1.35-24.5-31.36-3.77-32.49Z"/>
    </g>
  </g>
  <g id="Mushu_3">
    <path class="cls-4" d="M539.73,339.21c-.27-1.33,2.73-2.32,6.76-5.58,5.23-4.24,6.62-7.82,8.89-7.3,1.22.28,1.16,1.4,3.61,3.25,1.76,1.33,3.36,1.74,4.28,2.29,5.6,3.38,8.41,5.07,11.46,7.64,1.73,1.46,1.01,1.07,8.1,8.71,5.53,5.96,7.23,7.56,8.87,11.01.5,1.05,3.28,6.91,1.53,8.41-1.91,1.63-8.11-2.82-8.87-3.36-5.4-3.88-5.87-6.99-10.55-11.16-3.93-3.51-7.8-5.05-10.85-6.27-10.87-4.34-19.57-5.96-19.57-5.96-1.28-.24-3.45-.62-3.67-1.68Z"/>
    <path class="cls-9" d="M512.27,742.58c5.65,7.78,10.6,13.91,14.06,18.04,12.51,14.94,27.4,27.29,57.17,51.97.86.72,2.95,2.42,6.11,3.67,8.42,3.33,16.32.27,17.73-.31,3.7-1.5,7.4-3.01,7.64-5.5.4-3.97-8.35-6.39-19.87-13.76-3.43-2.19-9.51-7.5-21.71-18.04,0,0-9.74-8.41-17.47-16.32-2.63-2.7-4.32-4.66-5.16-5.66-.53-.63-2.23-2.67-4.55-5.77-4.44-5.95-5.09-7.7-6.76-7.72-1.77-.03-2,1.91-5.5,3.06-1.44.47-2.62.54-4.29.64-2.98.17-5.2-.24-5.82-.37-1.64-.33-2.98-.79-3.95-1.19"/>
  </g>
</svg>