<?xml version="1.0" encoding="UTF-8"?>
<svg xmlns="http://www.w3.org/2000/svg" viewBox="0 0 1080 1080">
  <defs>
    <style>
      .cls-1 {
        fill: #d96a7a;
      }

      .cls-2 {
        fill: #7a1c1c;
      }

      .cls-3 {
        fill: #c62828;
      }

      .cls-4 {
        fill: #0d0d0d;
      }

      .cls-5 {
        fill: #f7f4ef;
      }

      .cls-6 {
        fill: #0b090a;
      }

      .cls-7 {
        fill: #e53935;
      }

      .cls-8 {
        fill: none;
        stroke: #000;
        stroke-miterlimit: 10;
        stroke-width: 5px;
      }

      .cls-9 {
        fill: #f2c14e;
      }
    </style>
  </defs>
  <g id="Mushu_2">
    <path class="cls-9" d="M541.17,896.97c-.77,13.06-12,23.18-7.34,29.96,1.4,2.04,4.7,2.89,11.31,4.59,2.1.54,9.74,2.4,22.93,2.14,13.06-.26,15.18-2.28,15.9-3.06,2.59-2.82,2.29-6.38,2.45-12.23.31-11.79,1.83-9.1,2.75-23.85.98-15.63.04-30.78-1.22-55.95-1.79-35.81-1.38-35.1-2.45-47.69-.66-7.79-1.16-12.24-4.59-40.66-4.44-36.89-6.68-55.46-7.64-62.06-2.85-19.51-5.17-35.22-9.78-55.95-5.22-23.46-7.83-35.19-14.06-50.45-6.27-15.36-14.14-34.63-31.8-52.59-4.57-4.65-15.38-12.58-36.99-28.43-14.64-10.74-18.65-13.22-32.41-23.54-19.18-14.39-28.88-21.73-34.24-29.04-9.83-13.39-13.13-26.55-15.59-36.38-3.62-14.45-6.57-26.2-2.75-39.75,2-7.09,4.54-10.05,6.42-20.18,1.35-7.29.98-10.86,3.67-18.04,1.77-4.72,3.58-7.59,2.75-8.25-1.15-.93-6.28,3.22-9.78,7.03-4,4.35-6.09,8.5-6.73,9.78-5.92,11.96-9.3,18.78-12.23,30.57-1.12,4.53-5.12,21.61-3.97,42.5,2.7,49.06,28.74,95.08,28.74,95.08,92.95,164.27,121.82,172.41,120.76,221.96-1.08,50.53-32.31,99.35-6.42,128.41,7.19,8.07,23.29,19.66,22.32,36.08Z"/>
    <path class="cls-6" d="M476.82,362.25c8.26-3.4,16.1-2.38,16.82-2.29,12.23,1.55,14.04-3.86,48.31-7.03,11.21-1.04,4.88.11,21.25-.92,12.24-.77,18.03-1.55,20.64,1.99,1.72,2.33,1.65,6.01.15,8.25-2.27,3.4-7.67,3.31-13.61,3.21-6.27-.11-7.42-1.32-12.99-1.38-5.61-.06-8,1.13-12.99,1.99-8.26,1.42-10.33-.35-22.32-.76-11.58-.4-11.05,1.2-27.36,1.38-6.04.07-21.28.23-21.55-1.99-.11-.87,2.15-1.82,3.67-2.45Z"/>
  </g>
  <g id="Mushu_1">
    <path class="cls-3" d="M371.57,336.76c-1.08.43-1.7,1.46-2.75,4.36-2.11,5.82-2.88,10.68-3.1,12.04-1.14,7.13-.99,4.35-2.06,11.35-1.49,9.69-2.71,17.66-2.75,27.52-.01,2.82.07,7.03.92,15.48,2.24,22.36,6.43,40.19,7.68,45.4,6.64,27.54,8.62,22.1,10.55,36.46.98,7.27,2.01,20.1,10.09,34.05.24.42,1.23,1.22,1.6,2.64,1.2,4.5-4.32,8.91-9.25,14.6-1.22,1.41-4.79,7.31-11.92,19.11-5.06,8.37-8.69,14.82-11.01,18.96-6.39,11.39-10.92,20.15-17.43,32.87-12.72,24.83-14.79,29.17-22.78,44.64-14.89,28.83-17.57,32.9-20.03,36.38-14.42,20.45-27.6,30.05-32.41,32.1-.51.22-3.36,1.38-3.21,1.99.18.72,4.48.23,5.2.15,7.6-.85,12.11-3.58,12.54-2.9.46.74-5.27,3.5-9.17,9.17-6.05,8.81-5.14,20.94-3.36,21.4.2.05.62,0,3.82-5.04,4.99-7.86,6.3-11.39,7.64-11.16,1.25.21.51,3.33,2.9,8.25,2.05,4.21,4.9,6.69,6.88,8.41,2.18,1.89,3.67,3.19,4.43,2.75,1.99-1.15-3.94-12.54-1.68-14.06,1.45-.98,5.1,2.95,9.48,5.96,7.44,5.12,14.7,6.01,24.31,7.18,11.26,1.38,18.57.34,42.8-2.6,34.6-4.2,30.16-3.37,36.99-4.43,10.86-1.69,38.09-6.31,44.18-7.34,17.92-3.04,27.09-4.61,31.49.61,2.12,2.51,2.28,6.11,2.6,13.3.15,3.44.15,8.9-2.14,21.4-1.7,9.28-2.8,15.33-5.5,23.39-4.23,12.64-8.41,20.94-8.41,20.94-4.02,8-7.53,12.96-5.5,15.9.73,1.06,1.63,1.06,7.49,3.06,7.07,2.41,6.61,2.69,8.41,3.06,7.08,1.45,16-2.56,19.72-8.87,1.6-2.71.97-3.7,1.99-11.31,1.24-9.33,3.31-16.25,6.57-27.21,1.27-4.26,2.34-7.38,4.43-13.45,10.72-31.11,13.05-32.17,12.54-39.29-.99-13.54-9.78-14.5-7.8-24.76,1.81-9.36,9.86-12.37,10.7-24.15.21-2.95-.14-4.87-1.15-10.09-3.6-18.69-5.4-28.03-6.42-32.1-4.33-17.27-6.51-25.99-9.86-36-6.99-20.89-15.46-46.21-36-68.79-8.11-8.91-17.56-16.64-36.46-32.1-15.17-12.4-17.27-12.99-23.62-19.72-14.66-15.52-21.52-31.49-25.91-41.96-5.46-13.01-9.96-23.74-11.01-38.98-.72-10.39-2.72-39.56,8.94-56.87,1.31-1.94,5.34-7.51,3.44-11.69-.84-1.86-2.06-1.69-9.63-6.42-4.56-2.85-6.26-4.25-8.03-3.55Z"/>
    <path class="cls-3" d="M390.14,254.63c-.3-.86.59-1.9,9.48-9.17,6.55-5.36,9.89-8.07,12.54-9.78,6.28-4.06,9.54-6.18,14.37-7.03,8.16-1.45,14.51,1.82,14.98.61.68-1.74-12.83-7.26-11.92-11.01.35-1.45,2.7-2.04,4.28-2.45,4.67-1.19,8.99.75,11.31,1.83,4.48,2.08,4.75,3.72,7.03,3.67,2.96-.07,3.87-2.87,7.95-6.73,3.35-3.17,7.64-5.27,16.2-9.48,7.13-3.5,6.2-2.39,9.48-4.28,10.9-6.29,11.75-13.14,19.57-14.37,1.27-.2,5-.78,8.25,1.22,5.98,3.68,5.57,13.13,7.95,13.15,1.93.02,1.82-6.18,6.42-8.56,3.65-1.88,7.77-.08,7.95,0,4.09,1.86,3.97,5.66,7.64,11.92,2.06,3.51,5.96,7.43,13.76,15.29,4.66,4.69,6.83,6.18,8.56,10.09,1.65,3.74.69,4.53,2.14,9.48.9,3.06,3.83,13.04,10.09,14.68,4.8,1.25,8.97-3.08,10.09-1.83,1.12,1.25-3.16,5.52-6.11,11.01-6.88,12.77.27,19.45-2.45,42.8-.25,2.14-.86,6.8.92,7.64,1.33.63,3.33-1.28,5.81-3.36,6.53-5.5,8.24-10.34,11.62-14.98,5.02-6.9,11.28-9.99,21.4-14.98,8.3-4.09,12.45-6.14,17.73-5.5,3.01.36,8.5,1.8,16.51,11.01,17.34,19.92,18.87,44.46,18.96,46.17.19,3.98.75,21.88-9.48,40.05-1.14,2.02-11.39,19.92-18.65,18.04-6.32-1.64-5.51-17.01-11.92-18.04-3.1-.5-3.77,3.01-10.7,6.73-1.32.71-11.21,5.85-22.62,3.67-4.24-.81-3.35-1.61-7.95-2.45-8.29-1.51-11.79.97-17.43-1.83-3.14-1.56-2.15-2.38-5.5-3.97-5.44-2.59-8.69-.74-12.84-3.67-.2-.14-4.33-3.1-3.67-5.2,1.06-3.38,14.13-3.12,17.12-3.06,3.16.06,5.3.33,7.95-.92,3.03-1.42,6.1-4.51,5.5-6.42-.58-1.86-4.57-2.33-15.59-2.14-23.96.42-28.68,3.04-35.16-.92-1-.61-1.38-.97-10.4-12.54-8.35-10.7-12.52-16.05-13.76-17.73-14.47-19.66-19.22-30.5-23.54-29.35-2.01.54-3.47,3.55-3.97,5.2-.92,2.97-.04,5.66.31,6.73,5.49,17.07,3.09,18.66,8.56,28.74,4.57,8.43,6,11.73,8.87,18.34.68,1.57,1.8,4.26.61,6.11-.79,1.22-2.23,1.53-7.95,2.14-8.95.96-9.76.68-10.4.31-3.76-2.2-3.65-8.81-3.67-11.01-.1-12.69-5.6-34.6-14.68-42.5-15.4-13.4-49.29,6.49-56.25-5.2-1.02-1.71-1.26-3.75-1.53-6.11-1.09-9.47,3.69-16.96,5.2-19.26,6.17-9.38,13.99-11.12,13.15-14.37-.58-2.24-4.69-2.97-10.7-3.97-13.12-2.19-20.63-.24-21.4-2.45Z"/>
    <path class="cls-3" d="M495.01,859.37c.13,7.65,1.19,15.29.92,22.93-.32,9.02-1.32,14.32,1.83,20.79,2.12,4.34,5.23,7.4,6.73,8.87,3.36,3.3,5.35,4.04,11.92,8.25,11.25,7.21,11.34,8.84,13.76,8.56,6.89-.8,11.97-14.65,12.84-25.38.67-8.17-1.47-10.07-1.53-22.93-.04-8.15.79-13.95,1.22-17.43,2.43-19.66,1.8-43.95,1.53-54.42-.68-26.25-3.39-18.46-11.01-79.49-2.04-16.32-3.6-30.97-11.01-33.02-5.07-1.41-10.63,3.72-12.84,5.81-29.48,27.86-15.21,106.77-14.37,157.45Z"/>
  </g>
  <g id="Outline">
    <g>
      <g>
        <path d="M815.02,636.54c1.85,1.83,5.81,3.48,5.7,6.65-.17,4.87-11.01.89-14.21.46-22.41-3.04-36.03-5.59-48.69-26.42-5.39-8.88-7.97-13.37-15.06-21.43-8.82-10.04-24.6-27.02-38.25-29.19-6.24-1-14.67,11.05-18.12,15.64-25.86,34.36-44.04,76.35-66.8,112.89l.34,1.04c2.56-3.45,14.56-11.3,10.07-1.16-1.83,4.12-9.18,13.98-12.23,17.95-.91,1.19-2.07,2.14-3.1,3.22,2.93.81,11.33-3.89,11.78,1.52.48,5.9-18.57,15.15-24.41,12.87-.16,1.02,1.24.97,1.96,1.18,2.59.73,11.46.56,10.4,4.45-1.53,5.64-18.59,6.04-23.27,5.62-3.65-.32-6.28-1.9-9.44-3.53,2.15,18.59,5.27,37.16,7.01,55.81,3.55,38.06,4.37,87.65.7,125.63-.28,2.91-.74,9.42-1.52,11.81-.59,1.78-3.45,1.67-3.98.02-1.18-3.66,1.01-13.14,1.29-17.45,2.87-44.57,1.99-90.97-2.89-135.38-3.59-32.68-9.01-65.21-11.85-98l-17.07,10.65c-2.67,1.46-15.64,8.15-17.56,7.54-1.93-.61-1.38-3.72.28-4.48,6.51-2.94,12.99-5.97,19.13-9.63,2.1-1.26,12.14-7.5,13.11-8.65.38-.44.77-.77.75-1.42-8.05-45.06-15-91.05-42.28-129-27.38-38.1-75.62-53.54-106.52-88.59-24.94-28.28-31.61-53.38-25.79-91.03.29-1.85,2.82-11.16,2.51-11.67-.22-.38-4.41-2.16-5.18-2.85-21.73,38.96-14.76,83.21,7.52,120.17,17.54,29.1,40.93,40.88,64.44,62.6,29.97,27.69,49.28,74.73,57.21,114.05,8.11,40.26,15.14,83.37,21.27,124.03,3.2,21.25,4.85,42.59,4.33,64.11,8.54-4.7,17.58-8.9,24.93-15.43,1.18-1.05,6.11-7.9,7.03-2.84.58,3.14-5.08,7.59-7.46,9.43-7.42,5.77-16.39,9.24-24.16,14.45l-3.85,62.83c-.57,3.27-4.92,2.12-4.86-2.02.21-16.65,2.77-33.94,3.45-50.64,2.12-52.21-7.49-101.61-16.36-152.79-9.78-56.37-14.53-96.2-49.33-143.69-21.63-29.5-56.27-44.58-77.07-75.94-20.16-30.4-31.8-70.7-21.11-106.63,2.46-8.28,6.38-16.1,9.42-24.15l-15.74-11.64c-1.39.02-3.94,14.48-4.34,16.7-4.13,23.25-5.3,46.41-1.4,69.75,5.63,33.77,17.09,67.4,26.45,100.25,4.4-1.47,7.34-8.29,11.9-9.5,8.59-2.27,20.89,8.84,27.03,14.43,8.38,7.63,12.78,15.29,19.34,24.18,1.73,2.35,7,6.71,6.35,9.75-.34.66-1.96,1.15-2.54,1.11-1.24-.09-7.74-8.15-9.04-9.85-9.52-12.48-18.04-25.5-32.46-33.51-7.02-3.89-9.44-.55-14.29,4.42-29.21,30.01-49.37,82.61-69.09,119.72-12.77,24.02-27.93,52.19-47.02,71.59-2.17,2.21-5.02,3.95-7.38,5.96,2.42.88,11.27-5.64,11.24-.01-.01,1.58-7.93,8.21-9.5,10.17-3.95,4.91-6.66,11.11-5.95,17.56l7.15-13.55c.58-2.53,4.35-4.75,6.03-2.44.72,1,1.12,8.73,2.12,11.56,1.19,3.38,3.42,6.32,6.1,8.64-.24-2.73-.61-6.72-1.23-9.3-.37-1.53-3.13-3.11-1.06-5.27,1.89-1.97,6.29,2.91,8.48,4.16,21.35,12.23,40.85,12.14,64.6,9.62,39.35-4.17,79.19-13.06,118.7-16.05,4.47-.34,14.2-1.11,18.13.11,2.09.64,1.08,4.1.11,4.1h-13.68c3.52,21.55-.32,43.76-7.9,64.04-3.68,9.86-9.12,18.97-12.44,28.99-.17,1.4.02.9,1.02,1.03,2.14.26,4.45-.28,6.68.7,1.13-5.79,3.1-11.93,5.5-17.33.88-1.98,4.32-11.08,6.82-5.82.9,1.89-4.34,12.14-5.31,15.06-2.21,6.72-5.84,14.67,5.23,12.95,3.09-.48,10.17-6.99,11.24-9.82,2-5.29,2.8-16.52,4.37-23,1.77-7.31,4.29-14.45,6.53-21.62l-.3-2.38c-3.75-9.9-11.89-21.68-14.99-31.41-.4-1.27-.93-2.3.02-3.51,3.78-3.82,8.21,11.02,10.02,13.17,1.91-2.82,3.41-5.86,5.39-8.64,1.44-2.01,7.76-10.67,9.44-10.81.77-.06,1.57.31,2.28.59.03.1.06.21.08.32.22,1.05.06,2.07-.38,3.07-1.68,3.93-8.55,9.77-10.97,15-.73,1.58-2.47,6.47-2.48,7.98-.02,1.59,7.33,15.55,8.54,19.2,1.21,3.61,2.16,7.39,2.5,11.2,1.46-.42,1.5-2.17,1.89-3.36,5.55-16.96,6.5-35.93,3.05-53.51-.54-2.79-1.19-5.54-1.96-8.25-2.09-7.38-4.72-20.07-14.48-19.05-50.18,17.08-121.81,21.82-166.99-10.02-2.42-1.7-9.18-6.58-10.79-8.5-1.27-1.51-1.2-3.26.49-4.4.48-.37.9-.18,1.41-.04,2.66.73,9.57,8.47,12.63,9.9.7.32,1.28.55,2.06.34,6.78-12.57,13.22-25.61,21.07-37.55,18.36-27.91,45.91-48.88,75.1-64.57,3.15-1.7,19.33-10.21,21.43-10.22,2.03-.01,3.02,1.1,2.36,3.11-.59,1.8-13.84,6.52-13.93,7.82,3.54,4.45,6.12,9.48,8.52,14.62,6.86,14.65,13.47,33.15,18.84,48.54,5.65,16.2,10.42,32.7,14.05,49.48,7.91-.74,14.92-6.1,22.39-.98,6.67,4.56,10.08,18.14,11.92,25.97,4.44,18.86,2.95,49.77-5.43,67.47-6.15,12.99-8.17-8.47-9.24-12.09-.3-1.03.41-1.23-1.42-1.03-.97,5.99-3.23,11.63-4.57,17.54-5.24,23.15-5.21,46.94-5.99,70.52-.11,3.51.75,18.09-.66,19.7-3.15,3.59-6.9-3.83-7.37-3.85-.91-.02-1.85,3.11-6.32-.02-3.31-2.32-12.32-13.51-15.06-17.23-24.15-32.79-6.07-48.7,4.89-79.98,6.44-18.35,10.07-39.3,6.22-58.54-34.73,2.87-69.02,9.45-103.53,13.86-18.04,2.3-36.28,5.37-54.32,1.88-9.58-1.86-18.72-5.75-27.34-10.21,10.62,27.3-15.44,7.39-15.45-5.61-3.7,2.21-6.31,18.8-12.32,14.79-6.62-4.41.22-24.52,6.01-28.82-2.77,1.39-19.82,4.67-13.7-2.14,1.77-1.97,8.73-5.22,11.54-7.41,19.29-14.99,36.35-45.5,48.14-66.96,15.82-28.77,27.97-59.34,45.01-87.4-13.46-20.47-17.13-46.35-16.6-70.54l-6.14,13.86c-1.59,4.3-6.61,22.41-8.55,24.43-1.25,1.29-2.48,1.45-3.96.36-2.02-1.48-3.99-16.72-4.41-20.15-5.77-47.07,2.31-124.62,28.39-165.15,3.36-5.22,7.67-9.82,10.76-15.08-15.39-12.37-29.63-29.12-39.11-46.53-1.64-3.02-4.13-7.73,1.63-6.59,13.34,16.63,25.26,35.04,42.81,47.62,8.18-7.9,15.59-16.56,23.83-24.42,1.35-1.28,6.43-4.66,7.01-5.62,2.01-3.32,1.68-15.04,4.6-19.27.01-.91-16.27,3-17.92,3.14-36.32,3.01-59.59-10.14-73.45-43.74-7.57-18.34,4.46-8.95,14.97-6.55,21.52,4.91,46.55,1.5,68.34,3.25,2.18.17,8.16,2.09,8.99,1.96.8-.13,6.51-4.27,8.17-5.11,6.43-3.28,12.95-6.06,20.37-5.26-2.36-3.11-7.93-3.95-10.16-7.03-5.74-7.92,16.22-4.69,20.18-3.34,1.26.44,7.14,3.93,7.52,3.76,2.63-1.17,3.19-3.75,1.99-6.26-4.62-9.69-18.24-21.65-25.13-30.3-13.31-16.71,2.94-29.75,19.57-16.78,7.74,6.04,12.61,15.37,20.41,21.35.51-2.66-.69-7.94,0-10.18,1.28-4.11,7.13,2.03,8.41,3.54,4.18,4.91,6.93,10.93,8.45,17.17.93.71,15.81-12.41,19.12-13.5,2.94-.96,5.36-.65,8.23.16.09-5.94,0-11.98-.7-17.88-.38-3.18-3.76-16.13-2.69-17.8,1.67-2.62,4.93.93,6.08,2.47,6.65,8.9,10.77,21.28,17.32,30.4,2.03-18.95,8.64-6.13,11.08,3.67,1.05,4.21,2.07,9.16.45,13.36-.26.68-1.54.22-1.28,1.43.88,4.06,10.09,17.72,13.75,18.67,1.44.38,6.95-5.18,8.71-6.52,37.63-28.56,90.47-49.88,133.49-18.54,7.88,5.74,19.98,16.46,5.39,22.67-12.96,5.52-29.56,2.13-43.13,1.74-19.83-.58-40.43,3.36-59.48,8.65-5.27,1.46-27.81,8.26-29.95,12.16-.96,1.74-.46,3.31-1.78,5.24-5.11,7.43-23.82-2.29-29.12-6.78-3.05-2.59-5.27-6.24-7.08-9.76-.94-1.81-1.32-6.48-2.96-3.66-.46.8-1.96,4.11-1.85,4.88.27,2.01,4.42,8.64,5.36,11.56.95,3,1.47,8.1-2.88,5.16-.84-.56-7.08-15.6-8.53-18.31-3.21-6.02-8.9-18.01-16.76-17.49-8.79.59-20.85,9.87-26.39,16.47-2.99,3.56-7.2,11.62-9.84,14.03-4.21,3.86-3.7-2.05-1.98-5.49,6.16-12.28,20.66-25.75,34.23-28.94,14.02-3.28,17.78,7.59,24.24,17.22.93-1.32,2.78-10.15,3.24-10.44,4.59-2.98,5.98,7.27,7.1,9.92,3.44,8.19,7.54,12.8,15.71,16.58,2.46,1.14,12.23,4.68,14.01,2.23-1.45-14.92-17.36-19.48-24.39-31.86-2.12-3.74-4.86-14-9.42-14.5-7.41-.8-5.15,12.7-11.01,11.12-3.69-.99-6.4-18.18-13.37-17.96-3.45.1-20.23,13.9-23.64,17-6.29,5.71-11.44,12.46-17.32,18.54-1.55,1.21-4.13-.18-3.62-2.22s8.82-9.91,8.31-10.33c-2.95.35-17.18,9.22-16.79,11.47.14.82,4.39,4.06,5.18,6.1.9,2.35.31,4.99-2.4,3.86-1.76-.74-7.12-7.76-9.5-9.51-4.09-3-10.05-4.53-15.09-4.2,2.03,2.61,14.62,8.13,11.84,12.53-1.41,2.25-10.94-1.16-13.59-1.16-13.44,0-30.96,14.61-38.95,24.77,4.63,2.27,34.3-.55,35.13,2.9.25,1.04-.04,2.57-.69,3.47-.85,1.18-8.88,5.45-11.21,7.74-7.41,7.29-9.79,18.32-10.59,28.35,7.17-5.87,16.13-8.12,25.13-9.6,3.8-.63,17.2-2.74,19.78-.58,1.6,1.35.69,3.78-1.32,4.2-.22.05-.5.07-.82.07-1.76,0-4.8-.57-6.67-.43-9.75.77-24.33,3.32-32.13,9.27-1.48,1.13-4.87,5.12-5.88,5.4-2.62.73-3.64-1.99-4.06-2-1.85,0-22.42,23.5-25.6,26.36-.25,1.14,5.38,4.43,6.63,5.23,3.14,2.03,6.48,3.78,9.76,5.55,9.62-13.21,23.03-27.94,38.86-33.46,8.69-3.03,16.64-1.89,25.44-4.39.77-.74-8.14-8.13-5.2-9.6.41-.2,1.05-.29,1.98-.23,5.32.34,13.91,17.89,15.97,22.69,5.86,13.65,9.24,28.95,13.28,43.23l16.08-2.05c-2.58-7.85-6.52-15.4-9.32-23.32-4.18-11.81-6.15-24.33-10.5-35.82-2.84-7.49-10.89-19.65-12.18-26.46-.77-4.07,1.93-5.53,4.92-2.77,5.05,4.67,12.24,17.47,16.97,23.73,12.48,16.48,25.75,34.43,38.91,50.23,1.48,1.77,4.93,6.47,6.6,7.44,2.89,1.66,6.07-.01,9.13-.07,7.9-.18,18.14.09,25.99.74,2.13.18,19.2,1.99,13.39,6.37-1.43,1.07-8.8-1.12-11.36-1.37-3.18-.31-7.28-.64-10.45-.79-25.39-1.22-50.07,5.27-75.09,8.42-.96.12-2.23.5-1.04,1.4l58.62-.67c6.24-1.08,12.63-.8,18.91-1.44,3.82-.4,18.58-5.48,15.11,1.77l-19.65,3.84c5.03,1.47,11.21,3.48,16.48,3.57,3.79.06,13.85-2.8,16.04-2.07,1.58.53,1.45,2.88.82,4.14l-8.08,4.2h10.87c.71,0,5.48-1.43,6.64-1.79,3.27-1.03,11.01-5.82,13.08-5.94,2.36-.14,3.82,1.99,2.59,4.04l-7.91,6.49c4.47-.39,9.04-1.48,13.1-3.38,3.68-1.71,11.88-9.74,15.3-5.72l1.76,5.59c-.17-4.71,4.83-8.25,6.86-3.02l.16,11.44c.86-1.41,3.13-10.14,3.58-10.45.55-.39,2.06-.05,2.74.29,3.1,1.53-1.02,6.26-.35,8.76,6.03-6.04,12.27-12.43,15.79-20.35h-14.38c-.72,0-5.74-1.91-6.63-2.49-11.85-7.75,2.92-29.92,12.1-34.86,8.3-4.46,11.7-.56,12.25,5.49.55,5.96-1.69,14.01-4.74,18.17-1.49,2.03-6.76,7.1-9.38,5.22-3.75-2.69,2.76-4.86,4.46-6.63,2.92-3.01,7.46-16.98,4.15-19.23-2.65-1.81-11.29,7-12.87,9.11-3.78,5.03-9.98,18-.43,19.99,2.21.46,15.49.78,17.14.22,1.25-.42,2.4-8.32,2.53-10.09.44-5.62.49-11.27.06-16.83-1.18-15.5-6.05-30.39-16.53-42.48-8.99-10.38-16.11-14.72-29.61-9.24-15.32,6.22-35.41,25.34-39.87,41.54-4.82,17.52.25,28.18,18.45,31.37,7.46,1.31,21.67,2.11,24.54-6.62,1.9-5.78.27-25.58-1.58-31.79-2.84-9.56-9.58-2.3-13.68,2.49-4.65,5.45-11.2,15.05-.87,18.38,3.85,1.24,11.93.03,9.18,5.72-15.16.5-25.18-7.38-15.63-22.3,4.05-6.34,16.91-20.59,23.58-10.37,3.96,6.07,5.7,31.3,3.76,38.41-3.65,13.38-21.84,12.45-32.68,10.16-23.02-4.88-24.17-22.19-18.18-42.03-.33-1.67-6.52-.41-7.07-2.22-.73-2.41,2.89-2.87,3.39-4.31.36-1.03-.17-6.06-.66-6.47-.54-.46-13.14-.35-14.17-.1-.83.2-.73,2.12-2.4,2.68-1.59.53-3.94.37-5.97,1.04-2.74.9-5.07,3.3-8.17,2.53-2.44-4.99,6.85-6.94,10.43-7.98-2.41-1.96-8.14-4.72-7.74-8.4.12-1.06,1.63-2.21,1.42-2.48-.08-.09-1.57-.35-2.33-.82-4.54-2.79-9.88-7.21-12.41-11.82-5.62,8.04-8.95,13.83-20,12.64-5.8-.63-14.54-6.7-18.61-10.87-6.25-6.37-14.73-22.93-22.05-27.08-2.16-1.23-7.32-1-10.42-2.21-2.3-.9-9.13-4.89-8.16-7.84,1.26-3.88,7.57,2.46,9.28,3.2,7.47,3.26,24.24.17,33,.14,9.07-.04,18.54.6,27.13,3.6,6.11,2.13,10.93,7.04,17.2,6.64,5.66-.35,8.33-1.56,14.67-.61,7.94,1.19,16.75,4.08,23.91,7.67l3.88-6.33c-2.83.65-11.26,2.91-13,.01-2.84-4.74,5.72-3.32,8.26-3.71,2.93-.45,11.71-4.15,12.79-4.05,1.38.13,2.8,1.56,2.41,3.04-.63,2.35-11.59,11.11-9.7,13.77.32.46,8.57,3.83,10.24,4.85,5.04,3.07,10.49,7.64,12.18,13.46,12.73-7.11,23.93-15.22,38.25-6.34,22.39,13.89,29.56,45.27,28.4,69.85-.13,2.8-1.79,8.09-1.41,10.5.23,1.46,6.09,6.98,7.4,11.61,7.41,26.31-24.43,39.62-44.3,44.91-.93,1.32,4.21,7.68-.28,13.72-3.4,4.58-12.63,5.38-17.94,5.29-6.71-.12-18.67-2.82-24.45-2.13-2.16.26-5.8,2.92-8.17,3.83-25.1,9.67-65.51,13.89-83.78-10.22-2.57-3.39-6.08-12.27-7.8-13.96-.99-.97-13.09-6.14-15.99-7.87-9.05-5.43-17.72-13.03-24.71-20.91-1.85-2.1-8.38-11.61-9.49-12.26-2.03-1.19-16.85-2.97-21.18-4.1-7.43-1.94-14.39-4.97-21.59-7.52-1.58,6.31-2.89,12.82-3.51,19.31-4.07,42.17,14.26,70.91,45.98,96.49,3.53,2.84,26.32,19.51,28.78,19.65,1.31.08,2.65-.79,4.15-.71,69.2,3.79,75.89,69.4,95.82,121.12,3.27,8.5,6.88,17.64,12.06,25.14,1.03,1.5,9.03,11.73,9.71,12.09,1.09.59,1.63.18,2.6-.22,3.61-1.5,13.73-8.82,17.27-11.53,22.09-16.87,39.92-52.72,53.24-77.31,1.68-3.11,10.29-18.41,10.33-20.46.05-2.24-4.77-12.49-5.72-15.98-7.79-28.46,5.2-61.57,39.67-48.81,11.28,4.18,24.17,17.24,31.75,26.51,3.19,3.88,15.42,18.94,1.9,14.95-12.33-3.64-23.58-10.98-37.34-6.87,2.82,3.38,7.04,5.09,10.19,8.06,17.1,16.13,24.37,36.63,37.37,54.57,11.28,15.57,33.74,28.81,50.67,37.76,2.59,1.37,10.65,3.65,11.11,5.71.95,4.35-13.2,4.91-16,5.5,4.18,5.16,8.97,9.75,13.66,14.42ZM811.17,640.03c.32-1.21-.48-1.41-1.04-2.11-1.31-1.66-13.92-14.86-14.91-15.27-2.73-1.12-6.63-.54-9.46-1.07-2.16-.4-8.32-2.63-9.35-2.58-1.22.06-5.64,4.51-7.33,5.23,5.33,4.63,10.6,8.97,17.34,11.43,8.11,2.95,16.54,2.18,24.75,4.37ZM806.27,616.86l-34.39-21.05c.67,5.61.42,10.61-2.81,15.43,11.9,5.23,24.17,8.03,37.2,5.62ZM770.46,617.21l-9.11-4.55c-.53.53,3.26,6.66,3.64,6.88,1.57.92,4.49-.97,5.47-2.33ZM764.52,608.26c4.2-.35,3.27-15.21,1.55-17.88-.67-1.04-5.87-4.4-7.21-5.77-11.21-11.51-17.12-27.39-26.13-40.55-4.73-6.91-10.4-12.96-15.64-19.45-13.34-4.86-24.13-1.52-26.58,13.35-7.89.81-1.59-10.42,1.07-13.69,4.79-5.89,9.64-6.89,17.13-6.39-1.84-2.37-7.01-7.05-7.01-10.17v-10.53c0-1.04,3.28-2.93,4.56-.34,1.09,2.23-1.02,6.88.36,9.82,12.69-5.22,25.63,1.28,37.89,4.91-10.55-12.93-22.03-28.6-39.3-32.28,2.3,3.92,11.88,14.92,8.48,19.35-3.48,4.53-4.97-5.29-6-7.45-1.82-3.78-5.65-6.76-7.45-10.1-.61-1.11-.57-3.05-.69-3.17-.46-.48-6.88.08-8.25.44-5.78,1.49-11.79,8.74-14,14.08-5.55,13.41-2.22,30.76,3.85,43.52.5,1.05,2.06,1.04,2.11,2.72.09,3.08-5.67,13.54-7.41,16.89-13.9,26.78-36.28,70.26-60.26,87.84-6.85,5.02-20.78,14.79-28.05,18.26-1.66.79-3.79,1.55-4.84-.6-1.7-3.48,8.6-5.68,8.09-8.01-.16-.68-7.76-8.96-8.99-10.7-26.75-37.64-27.8-112.36-70.53-135.82-10.03-5.51-21.34-8.58-32.75-9.7l30.51,22.47c23.87,19.9,40.76,52.41,49.3,81.96,12.21,42.27,17.72,87.23,22.66,130.88.2.43,7.51,4.63,8.06,4.74,3.74.76,9.67-.56,13.69,0l-9.78-4.61c-3.7-2.19-2.03-5.3,1.75-5.88,7.19-1.09,15.87.54,22.06-4.6-2.52-.62-10.68,2.7-12.33.4-2.21-3.09,5.34-7.24,7.44-9.51,1.58-1.7,2.8-3.77,4.19-5.63-2.68-.46-3.83,3.92-6.68,3.84-1.9-.04-3.08-2.39-1.91-3.99,20.64-34.15,38.38-70.19,59.54-104.03,5.85-9.36,23.3-37.41,32.78-40.94,4.31-1.6,13.72,2.76,17.81,4.97,19.36,10.45,28.13,30.5,46.91,41.35ZM677.52,199.89l26.28,2.83c-10.96-10.47-25.45-17.54-40.7-18.94,1.52,5.71,1.92,10.98.7,16.84l13.72-.73ZM690.81,213.95c5.21-.37,13.18-1.31,16.5-5.6-.95-.93-23.29-3.35-26.32-3.51-9.72-.51-27.37,1.74-35.67-2.23-4.62-2.2-6.5-8.13-12.74-6.89-5.51,1.1-1.5,10.22-3.96,14.3-1.26,2.09-5.28,3.47-9.88,4.47-5.91,1.27-12.79,1.91-16.03,2.6-9.65,2.05-19.19,5-27.56,10.34-1.11.71-5.64,3.23-5.39,4.42.85,1.07.87,1.07,2.13.76,1.88-.48,5.24-2.85,7.5-3.75,11.49-4.57,25.6-8.86,39.89-11.9,13.89-2.95,27.95-4.72,39.95-4.4,10.53.28,20.94,2.14,31.58,1.39ZM649.77,403.47c15.27-3.86,33.62-19.03,25.61-36.49-1.17-2.55-2.69-5.95-4.59-2.49-3.03,5.52-1.57,3.06.17,6.91,4.65,10.28-1.75,19.65-10.03,25.35l-11.16,6.72ZM667.84,379.09c.07-1.12-.7-7.16-2.62-5.79-2.43,4.16-6.67,9.32-10.17,12.65-1.81,1.71-13.39,10.82-14.93,11.11-3.9.72-4.11-1.6-3.7-4.81-5.91,2.6-4.99-3.63-4.91-7.72-4.16,3.65-8.46,7.44-11.26,12.29-.02,1.19,5.28,4.17,6.68,5.27,1.73,1.37,4.07,5.13,6.18,4.81,9.59-6.77,33.89-14.03,34.73-27.81ZM658.85,199.88c1.73-3.22.88-15.4-2.06-17.17-2.81-1.69-19.76.57-23.9,1.39-26.01,5.17-51.59,20.12-70.84,37.93.97.7,4.67,5.14,5.24,5.15.74,0,10.34-6.68,12.52-7.73,5.12-2.48,11.63-4.65,17.17-5.99,6.78-1.64,20.6-2.36,25.91-4.97,3.95-1.95,1.4-4.67,1.55-8.23.33-7.64,8.6-11.64,15.29-8.2,2.7,1.38,5.62,5.42,8.22,6.51,1.57.65,10.13,2.07,10.9,1.31ZM633.32,423.16c1.91-5.89-7.15-16.66-12.11-19.55-6.64-3.87-3.46.81-6.53,2.34-.32.15-.6.27-.87.34-3.63,1-2.94-5.29-3.88-7.55-.37-.89-4.84-5.53-5.58-5.72-1.29-.33-7.39,4.23-9.34,5.19-2.59,1.26-13.55,5.69-15.79,5.63-3.73-.11-3.26-3.13-4.95-5.23-3.22-4.02-8.05-7.03-10.15-11.98-3.6,2.15-7.7,3.12-11.78,3.99-3.18.69-14.55,2.87-16.8,1.82-.33-.15-.62-.33-.86-.51-2.59-2-.74-5.81-.69-8.43.07-3.63-.1-7.28-.03-10.9-6.17,2.18-12.43,4.39-18.94,5.25,4.46,6.89,10.73,12.09,17.74,16.19,5.44,3.19,11.33,5.72,17.17,7.86,21.11,7.75,42.33,10.14,64.17,5.84,2.18-.43,4.37-.93,6.57-1.49,5.64,1.86,1.33,4.51-2.33,5.46-27.68,7.11-62.27.92-86.95-13.03-11.7-6.6-22.39-17.45-26.98-30.22l-18.53.62-.97.97c9.72,21.53,11.89,52.33,36.43,62.55,16.83,7,39.78,4.85,56.84-.69,1.96-.63,5.14-1.48,6.31-3.16-3.94-.74-17.93-2.29-20.36-4.55-1.64-1.53-.13-3.55,1.78-3.87,7.96,1.13,16.69,4.36,24.67,4.85,7.94.5,16.2,1.95,24.41,2.19,4.09.12,16.84.38,18.33-4.21ZM628.75,380.71c2.73-1.83,5.14-.06,2.42-5.3-7.1,5.51-14.32,8.49-23.26,9.73-1.2.16-2.93.48-4.76.7-4.49.54-9.56.46-8.83-4.13-4.07.67-8.18.92-12.31.74-2.6-.11-10.74-.98-12.79-1.9-2.78-1.26-.82-3.72.53-5.14-5.6-.41-14.82-2.43-19.59-5.33-.76-.46-.9-1.93-1.92-2.29-2.86-1-7.08.77-10.07.6,1.9,6.45-.77,13.04,0,19.64,5.7-1.01,12.13-1.4,17.68-3.01,2.71-.78,7.02-3.6,9.16-3.19,2.71.51,2.64,2.89,4.03,4.45,2.07,2.34,4.56,4.36,6.68,6.66,1.23,1.34,3.38,5.56,4.86,5.61,3.79-1.28,7.76-2.37,11.39-4.08,4.07-1.91,7.68-5.64,11.45-6.1,1.92-.24,3.88.37,5.96,2.49l5.27,6.3c3.05-6.11,8.38-12.64,14.09-16.45ZM596.07,283.51c2.49.02,4.85-1.11,7.37-.77-6.04-9.93-18.17-13.35-28.07-18.24v11.58c0,.97-2.35,6.31-3.06,7.47-4.23,6.9-10.65,10.05-18.7,7.63,4.42,7.02,14.68,6.12,22.1,5.6,4.78-.34,9.61-1.87,14.4-2.1.48-3.68-6.98-6.26-6.03-9.84,1.08-4.09,8.8-1.34,11.99-1.33ZM596.09,293.28l6.65-5.61c-3.85.14-7.4.65-11.23.34l4.58,5.27ZM583.44,310.82l8.07-11.92c-1.66.45-8.88,1.17-9.53,2.05-.63.86.42,9.4,1.46,9.87ZM544.56,280.22c18.83,16.02,29.01,1.42,25.87-18.5l-14.01-2.83c3.33,8.95-6.13,26.06-15.79,16.14-.83,1.49,2.58,4.04,3.93,5.19ZM546.59,258.89l-4.21.7c1.07,5.32,3.7,3.95,4.21-.7ZM540.97,193.6c.76-4.37-1.48-7.8-2.1-11.93-1.78,1.05-1.42,4.99-3.51,5.99-1.28.62-2.92.32-4.01-.59l-14.22-25.05c.34,6.4,1.97,13.68,1.42,20.03-.17,2-.03,3.43-2.13,4.18,3.14,3.13,5.29,7.27,6.32,11.58l3.47-5.29c4.86-5.13,10.28-3.33,14.76,1.08ZM530.09,275.01c1.23-2.92,4.39-14.96,3.37-17.35-1.49-3.45-19.07-8.38-23.36-7.91.72,8.67-1.6,20.56-11.23,23.18,8.42,10.5,24.14,18.91,31.22,2.08ZM525.38,370.68l5.78-2.3h-14.74l1.08,4.24,7.88-1.94ZM527.65,351.53l-22.45-28.77.69,21.75c.96,1.13,5.72-6.01,9.36-4.81,3.39,1.12,1.24,10.5.47,13.23l11.93-1.4ZM512.91,368.39h-3.51c-.74.71,2.37,5.4,3.16,6.31.08-2.31-.73-3.95.35-6.31ZM512.2,346.63l-8.64,6.44-1.18,1.97c.33.28,7.95-.66,8.46-1.01,1.15-.78.42-5.76,1.36-7.4ZM500.98,317.84c.65-.7-7.8-11.49-9.12-12.63.9,5.84,1.83,11.59,1.4,17.55,2.64-1.64,4.12-5.13,7.72-4.92ZM500.27,347.32c2.05-1.96.81-10.43.71-12.99-.13-3.59.74-7.64-1.05-10.87-1.24,1.75-7.27,6.26-7.24,7.93,1.54,4.04,2.84,8.27,4.66,12.19.32.69,1.72,4.88,2.92,3.74ZM495.33,856.54l1.43-16.46c-5.63,4.89-11.33,8.23-18.95,5.26.55,16.93,6.89,36.25,17.55,49.49l-.03-38.29ZM496.76,249.06l-5.2.65c-2.56,1.81,4.88,7.26,5.2-.65ZM491.85,403.47c.25-.25-2.11-6.16-2.82-6.64-.97-.65-3.4-.75-4.89-1.43-3.31-1.52-6.55-3.27-9.78-4.96l-18.3-14.33c8.98,12.16,21.98,21.35,35.79,27.36ZM487.3,314.33c.32,1.11.69,3.82,1.74,4.21-.43-2.72-2.28-18.75-3.57-19.59-.3-.19-2.07-.31-2.05.3,1.54,4.96,2.44,10.1,3.88,15.08ZM486.85,717.15c1.13-1.76-4.76-15.98-5.71-19.03-1.54-4.93-2.64-12.89-4.68-17.08-.38-.78-.61-1.96-1.78-1.7-2.55.56-6.35,10.07-7.05,12.62-2.72,9.89-2.93,20.79-4.54,30.89,3-1.01,22.87-4.31,23.76-5.7ZM485.19,891.31c.54.1.42-.63.35-1.05-.78-5.34-7.37-17.51-9.31-24.38-.87-3.09-3.33-11.56-3.33-14.22v-10.18c-7.73-1.58-9.21-2.08-9.85,5.94-1.41,17.84,10.95,31.7,22.14,43.89ZM487.29,391.55c-.8-2.8-6.57-22.1-7.72-22.47h-22.81c8.35,9.54,18.67,17.7,30.53,22.47ZM482.03,201.32c-.8-6.59-3.49-13.71-8.42-18.25,2.86,11.64.6,14.86-8.8,6.34-6.65-6.04-22.41-31.33-33.3-23.52-8.41,6.05,9.38,21.21,13.3,25.98,5.31,6.44,10.36,13.13,15.16,19.97,6.97-3.9,14.24-8.68,22.06-10.52ZM447.99,359.26h29.13c-4.05-12.34-6.67-25.26-11.41-37.38-1.16-2.95-3.77-9.79-5.51-12.04-.85-1.09-1.05-1.01-2.34-1.16-6.69-.78-20.76.79-27.03,3.23-14.75,5.73-21.71,20.69-25.93,34.95.33,1.19,8.29,4.02,10.09,4.69,2.8,1.04,21.78,7.1,22.82,6.3-1.69-3.8-10.65-14.44-8.79-18.23.46-.93,1.62-1.64,2.7-1.35,1.78.46,12.3,19.5,16.27,20.99ZM471.48,676.16c1.35-.99,2.36-1.88,4.23-1.75-8.93-23.54-15.85-48.93-29.49-70.18-14.52,7.57-28.98,16.36-41.72,26.69-1.79,1.45-12.65,10.67-12.91,11.71-.61,2.34,6.81,12.18,7.76,15.16l14.59,22.25c-2.92-15.6-3.76-51.38,15.77-56.9,9.35-2.64,13.05,2.5,15.32,10.72,4.16,15.14.61,37.61,1.92,54.24.84,10.64,5.28,22.01,11.57,30.54,2.99-12.5,1.52-34.06,12.96-42.48ZM456.06,723.55c-8.04-11.12-13.19-24.39-14.07-38.22-.91-14.45,2.81-40.63-2.43-53.02-4.34-10.24-14.19-3.14-17.8,3.94-6.08,11.92-5.23,28.31-3.5,41.23.77,5.71,2.13,11.37,3.35,17-.11,2.14-3.01,3.32-4.51,1.71l-29.46-49.84c-17.3,17.25-28.03,39.51-39.68,60.68,12.98,7.79,27.65,12.53,42.59,15.01,21.27,3.54,44.13,3.95,65.51,1.51ZM419.56,260.98c.19-1.15-.95-.66-1.74-.7-3.67-.18-25.51-1.12-27.03-.32-.44.23-.59,1.28-.93,1.49-11.81,7.33-43.43,1.03-56.62-3.26,6.3,8.53,17.32,14.79,27.93,16.63,8.93,1.55,18.79,2.02,27.77.81,3.86-.52,15.85-2.4,18.91-3.55,1.73-.64,7.41-11.03,11.71-11.1ZM400.61,344.52l5.61-14.74c-4.4,3.41-7.74,8.18-10.51,12.99l4.9,1.75ZM400.97,239.93c.31-.7-.34-1.32-.7-1.4-3.59-.89-15.69,0-20.36,0-1.51,0-6.84,1.35-8.61,1.9-13.47,4.19-10.97,13.82,2.27,14.97,4.29.37,9.03-.36,13.38.02,1.13-.13,4.25-5.55,5.59-7.08,1.56-1.79,7.88-7.13,8.43-8.41ZM369.02,559.3c5.76-11,13.41-20.79,20.23-31.11-10.28-30.55-20.05-62.71-26.31-94.4-4.9-24.79-5.57-44.72-2.23-69.87,1.02-7.65,3.13-15.23,3.77-22.91-17.53,22.02-25.55,50.36-30.31,77.78-5.04,29.03-7.31,59.52-4.43,88.92.49,5.04,1.52,10.13,2.45,15.09,2.93-5.98,13.49-39.61,17.89-41.76,1.02-.49,2.34-.55,3.43-.26.49,1.18.87,2.47.85,3.77-.08,4.83-1.41,11.2-1.4,16.07.04,14.67,4.59,42.99,12.72,55.37.55.85,2.15,4.14,3.34,3.31ZM363.78,259.58c.95.06,4.34.6,4.55-.69-12.27-2.12-14.27-14.07-4.21-21.06-15.68-.23-31.31-.83-46.31-5.62-.59.56,5.71,13.42,6.7,14.7,6.37,8.28,29.25,11.97,39.27,12.67Z"/>
        <path class="cls-4" d="M810.13,637.92c.56.7,1.36.9,1.04,2.11-8.21-2.19-16.64-1.42-24.75-4.37-6.74-2.46-12.01-6.8-17.34-11.43,1.69-.72,6.11-5.17,7.33-5.23,1.03-.05,7.19,2.18,9.35,2.58,2.83.53,6.73-.05,9.46,1.07.99.41,13.6,13.61,14.91,15.27Z"/>
        <path class="cls-4" d="M771.88,595.81l34.39,21.05c-13.03,2.41-25.3-.39-37.2-5.62,3.23-4.82,3.48-9.82,2.81-15.43Z"/>
        <path class="cls-3" d="M761.35,612.66l9.11,4.55c-.98,1.36-3.9,3.25-5.47,2.33-.38-.22-4.17-6.35-3.64-6.88Z"/>
        <path class="cls-3" d="M766.07,590.38c1.72,2.67,2.65,17.53-1.55,17.88-18.78-10.85-27.55-30.9-46.91-41.35-4.09-2.21-13.5-6.57-17.81-4.97-9.48,3.53-26.93,31.58-32.78,40.94-21.16,33.84-38.9,69.88-59.54,104.03-1.17,1.6.01,3.95,1.91,3.99,2.85.08,4-4.3,6.68-3.84-1.39,1.86-2.61,3.93-4.19,5.63-2.1,2.27-9.65,6.42-7.44,9.51,1.65,2.3,9.81-1.02,12.33-.4-6.19,5.14-14.87,3.51-22.06,4.6-3.78.58-5.45,3.69-1.75,5.88l9.78,4.61c-4.02-.56-9.95.76-13.69,0-.55-.11-7.86-4.31-8.06-4.74-4.94-43.65-10.45-88.61-22.66-130.88-8.54-29.55-25.43-62.06-49.3-81.96l-30.51-22.47c11.41,1.12,22.72,4.19,32.75,9.7,42.73,23.46,43.78,98.18,70.53,135.82,1.23,1.74,8.83,10.02,8.99,10.7.51,2.33-9.79,4.53-8.09,8.01,1.05,2.15,3.18,1.39,4.84.6,7.27-3.47,21.2-13.24,28.05-18.26,23.98-17.58,46.36-61.06,60.26-87.84,1.74-3.35,7.5-13.81,7.41-16.89-.05-1.68-1.61-1.67-2.11-2.72-6.07-12.76-9.4-30.11-3.85-43.52,2.21-5.34,8.22-12.59,14-14.08,1.37-.36,7.79-.92,8.25-.44.12.12.08,2.06.69,3.17,1.8,3.34,5.63,6.32,7.45,10.1,1.03,2.16,2.52,11.98,6,7.45,3.4-4.43-6.18-15.43-8.48-19.35,17.27,3.68,28.75,19.35,39.3,32.28-12.26-3.63-25.2-10.13-37.89-4.91-1.38-2.94.73-7.59-.36-9.82-1.28-2.59-4.56-.7-4.56.34v10.53c0,3.12,5.17,7.8,7.01,10.17-7.49-.5-12.34.5-17.13,6.39-2.66,3.27-8.96,14.5-1.07,13.69,2.45-14.87,13.24-18.21,26.58-13.35,5.24,6.49,10.91,12.54,15.64,19.45,9.01,13.16,14.92,29.04,26.13,40.55,1.34,1.37,6.54,4.73,7.21,5.77Z"/>
        <path class="cls-3" d="M703.8,202.72l-26.28-2.83-13.72.73c1.22-5.86.82-11.13-.7-16.84,15.25,1.4,29.74,8.47,40.7,18.94Z"/>
        <path class="cls-1" d="M707.31,208.35c-3.32,4.29-11.29,5.23-16.5,5.6-10.64.75-21.05-1.11-31.58-1.39-12-.32-26.06,1.45-39.95,4.4l-.54-2.47c4.6-1,8.62-2.38,9.88-4.47,2.46-4.08-1.55-13.2,3.96-14.3,6.24-1.24,8.12,4.69,12.74,6.89,8.3,3.97,25.95,1.72,35.67,2.23,3.03.16,25.37,2.58,26.32,3.51Z"/>
        <path class="cls-6" d="M675.38,366.98c8.01,17.46-10.34,32.63-25.61,36.49l11.16-6.72c8.28-5.7,14.68-15.07,10.03-25.35-1.74-3.85-3.2-1.39-.17-6.91,1.9-3.46,3.42-.06,4.59,2.49Z"/>
        <path class="cls-3" d="M670.16,331.54c.43,5.56.38,11.21-.06,16.83-.13,1.77-1.28,9.67-2.53,10.09-1.65.56-14.93.24-17.14-.22-9.55-1.99-3.35-14.96.43-19.99,1.58-2.11,10.22-10.92,12.87-9.11,3.31,2.25-1.23,16.22-4.15,19.23-1.7,1.77-8.21,3.94-4.46,6.63,2.62,1.88,7.89-3.19,9.38-5.22,3.05-4.16,5.29-12.21,4.74-18.17l.92-.07Z"/>
        <path class="cls-7" d="M665.22,373.3c1.92-1.37,2.69,4.67,2.62,5.79-.84,13.78-25.14,21.04-34.73,27.81-2.11.32-4.45-3.44-6.18-4.81-1.4-1.1-6.7-4.08-6.68-5.27,2.8-4.85,7.1-8.64,11.26-12.29-.08,4.09-1,10.32,4.91,7.72-.41,3.21-.2,5.53,3.7,4.81,1.54-.29,13.12-9.4,14.93-11.11,3.5-3.33,7.74-8.49,10.17-12.65Z"/>
        <path class="cls-3" d="M656.79,182.71c2.94,1.77,3.79,13.95,2.06,17.17-.77.76-9.33-.66-10.9-1.31-2.6-1.09-5.52-5.13-8.22-6.51-6.69-3.44-14.96.56-15.29,8.2-.15,3.56,2.4,6.28-1.55,8.23-5.31,2.61-19.13,3.33-25.91,4.97-5.54,1.34-12.05,3.51-17.17,5.99-2.18,1.05-11.78,7.73-12.52,7.73-.57-.01-4.27-4.45-5.24-5.15,19.25-17.81,44.83-32.76,70.84-37.93,4.14-.82,21.09-3.08,23.9-1.39Z"/>
        <path class="cls-7" d="M621.21,403.61c4.96,2.89,14.02,13.66,12.11,19.55-1.49,4.59-14.24,4.33-18.33,4.21-8.21-.24-16.47-1.69-24.41-2.19-7.98-.49-16.71-3.72-24.67-4.85-1.91.32-3.42,2.34-1.78,3.87,2.43,2.26,16.42,3.81,20.36,4.55-1.17,1.68-4.35,2.53-6.31,3.16-17.06,5.54-40.01,7.69-56.84.69-24.54-10.22-26.71-41.02-36.43-62.55l.97-.97,18.53-.62c4.59,12.77,15.28,23.62,26.98,30.22,24.68,13.95,59.27,20.14,86.95,13.03,3.66-.95,7.97-3.6,2.33-5.46-2.2.56-4.39,1.06-6.57,1.49l-.29-1.45c.27-.07.55-.19.87-.34,3.07-1.53-.11-6.21,6.53-2.34Z"/>
        <path class="cls-5" d="M631.17,375.41c2.72,5.24.31,3.47-2.42,5.3-5.71,3.81-11.04,10.34-14.09,16.45l-5.27-6.3c-2.08-2.12-4.04-2.73-5.96-2.49l-.28-2.53c1.83-.22,3.56-.54,4.76-.7,8.94-1.24,16.16-4.22,23.26-9.73Z"/>
        <path class="cls-1" d="M618.74,214.49l.54,2.47c-14.29,3.04-28.4,7.33-39.89,11.9-2.26.9-5.62,3.27-7.5,3.75-1.26.31-1.28.31-2.13-.76-.25-1.19,4.28-3.71,5.39-4.42,8.37-5.34,17.91-8.29,27.56-10.34,3.24-.69,10.12-1.33,16.03-2.6Z"/>
        <path class="cls-1" d="M613.81,406.29l.29,1.45c-21.84,4.3-43.06,1.91-64.17-5.84-5.84-2.14-11.73-4.67-17.17-7.86l1.92-2.11c.24.18.53.36.86.51,2.25,1.05,13.62-1.13,16.8-1.82,4.08-.87,8.18-1.84,11.78-3.99,2.1,4.95,6.93,7.96,10.15,11.98,1.69,2.1,1.22,5.12,4.95,5.23,2.24.06,13.2-4.37,15.79-5.63,1.95-.96,8.05-5.52,9.34-5.19.74.19,5.21,4.83,5.58,5.72.94,2.26.25,8.55,3.88,7.55Z"/>
        <path class="cls-5" d="M603.15,385.84l.28,2.53c-3.77.46-7.38,4.19-11.45,6.1-3.63,1.71-7.6,2.8-11.39,4.08-1.48-.05-3.63-4.27-4.86-5.61-2.12-2.3-4.61-4.32-6.68-6.66-1.39-1.56-1.32-3.94-4.03-4.45-2.14-.41-6.45,2.41-9.16,3.19-5.55,1.61-11.98,2-17.68,3.01-.78-6.6,1.89-13.19,0-19.64,2.99.17,7.21-1.6,10.07-.6,1.02.36,1.16,1.83,1.92,2.29,4.77,2.9,13.99,4.92,19.59,5.33-1.35,1.42-3.31,3.88-.53,5.14,2.05.92,10.19,1.79,12.79,1.9,4.13.18,8.24-.07,12.31-.74-.73,4.59,4.34,4.67,8.83,4.13Z"/>
        <path class="cls-7" d="M603.44,282.74c-2.52-.34-4.88.79-7.37.77-3.19-.01-10.91-2.76-11.99,1.33-.95,3.58,6.51,6.16,6.03,9.84-4.79.23-9.62,1.76-14.4,2.1-7.42.52-17.68,1.42-22.1-5.6,8.05,2.42,14.47-.73,18.7-7.63.71-1.16,3.06-6.5,3.06-7.47v-11.58c9.9,4.89,22.03,8.31,28.07,18.24Z"/>
        <path d="M569.96,306.05c1.8.54,2.38,2.78,1.01,3.9-.81.67-7.23,1.37-9.42,2.15-2.97,1.06-9.45,6.17-11.22,6.33-1.84.16-2.83-2.03-1.67-3.78,2.64-3.97,16.73-9.98,21.3-8.6Z"/>
        <path class="cls-5" d="M570.43,261.72c3.14,19.92-7.04,34.52-25.87,18.5-1.35-1.15-4.76-3.7-3.93-5.19,9.66,9.92,19.12-7.19,15.79-16.14l14.01,2.83Z"/>
        <path class="cls-5" d="M542.38,259.59l4.21-.7c-.51,4.65-3.14,6.02-4.21.7Z"/>
        <path class="cls-2" d="M538.87,181.67c.62,4.13,2.86,7.56,2.1,11.93-4.48-4.41-9.9-6.21-14.76-1.08l-3.47,5.29c-1.03-4.31-3.18-8.45-6.32-11.58,2.1-.75,1.96-2.18,2.13-4.18.55-6.35-1.08-13.63-1.42-20.03l14.22,25.05c1.09.91,2.73,1.21,4.01.59,2.09-1,1.73-4.94,3.51-5.99Z"/>
        <path class="cls-1" d="M534.68,391.93l-1.92,2.11c-7.01-4.1-13.28-9.3-17.74-16.19,6.51-.86,12.77-3.07,18.94-5.25-.07,3.62.1,7.27.03,10.9-.05,2.62-1.9,6.43.69,8.43Z"/>
        <path class="cls-5" d="M533.46,257.66c1.02,2.39-2.14,14.43-3.37,17.35-7.08,16.83-22.8,8.42-31.22-2.08,9.63-2.62,11.95-14.51,11.23-23.18,4.29-.47,21.87,4.46,23.36,7.91Z"/>
        <polygon class="cls-5" points="531.16 368.38 525.38 370.68 517.5 372.62 516.42 368.38 531.16 368.38"/>
        <path class="cls-5" d="M505.2,322.76l22.45,28.77-11.93,1.4c.77-2.73,2.92-12.11-.47-13.23-3.64-1.2-8.4,5.94-9.36,4.81l-.69-21.75Z"/>
        <path d="M523.37,550.25c.37.54.06,2.08-.28,2.74-.78,1.49-11.71,6.26-14.16,7.6-3.13,1.7-10.19,6.7-12.83,7.53-2.46.79-4.26-.05-3.44-2.72.43-1.42,6.16-4.51,7.85-5.51,3.77-2.25,15.9-9.25,19.42-10.12.88-.22,3.06-.06,3.44.48Z"/>
        <path class="cls-4" d="M522.07,743.9c3.45,17.58,2.5,36.55-3.05,53.51-.39,1.19-.43,2.94-1.89,3.36-.34-3.81-1.29-7.59-2.5-11.2-1.21-3.65-8.56-17.61-8.54-19.2,0-1.51,1.75-6.4,2.48-7.98,2.42-5.23,9.29-11.07,10.97-15,.44-1,.6-2.02.38-3.07l2.15-.42Z"/>
        <path class="cls-1" d="M509.4,368.38h3.51c-1.08,2.37-.27,4.01-.35,6.32-.79-.91-3.9-5.6-3.16-6.32Z"/>
        <path class="cls-1" d="M503.56,353.07l8.64-6.44c-.94,1.64-.21,6.62-1.36,7.4-.51.35-8.13,1.29-8.46,1.01l1.18-1.97Z"/>
        <path class="cls-5" d="M491.86,305.21c1.32,1.14,9.77,11.93,9.12,12.63-3.6-.21-5.08,3.28-7.72,4.92.43-5.96-.5-11.71-1.4-17.55Z"/>
        <path class="cls-1" d="M500.98,334.33c.1,2.56,1.34,11.03-.71,12.99-1.2,1.14-2.6-3.05-2.92-3.74-1.82-3.92-3.12-8.15-4.66-12.19-.03-1.67,6-6.18,7.24-7.93,1.79,3.23.92,7.28,1.05,10.87Z"/>
        <path class="cls-4" d="M496.76,840.08l-1.43,16.46.03,38.29c-10.66-13.24-17-32.56-17.55-49.49,7.62,2.97,13.32-.37,18.95-5.26Z"/>
        <path class="cls-5" d="M491.56,249.71l5.2-.65c-.32,7.91-7.76,2.46-5.2.65Z"/>
        <path class="cls-6" d="M489.03,396.83c.71.48,3.07,6.39,2.82,6.64-13.81-6.01-26.81-15.2-35.79-27.36l18.3,14.33c3.23,1.69,6.47,3.44,9.78,4.96,1.49.68,3.92.78,4.89,1.43Z"/>
        <path class="cls-1" d="M489.04,318.54c-1.05-.39-1.42-3.1-1.74-4.21-1.44-4.98-2.34-10.12-3.88-15.08-.02-.61,1.75-.49,2.05-.3,1.29.84,3.14,16.87,3.57,19.59Z"/>
        <path class="cls-4" d="M485.54,890.26c.07.42.19,1.15-.35,1.05-11.19-12.19-23.55-26.05-22.14-43.89.64-8.02,2.12-7.52,9.85-5.94v10.18c0,2.66,2.46,11.13,3.33,14.22,1.94,6.87,8.53,19.04,9.31,24.38Z"/>
        <path class="cls-2" d="M473.61,183.07c4.93,4.54,7.62,11.66,8.42,18.25-7.82,1.84-15.09,6.62-22.06,10.52-4.8-6.84-9.85-13.53-15.16-19.97-3.92-4.77-21.71-19.93-13.3-25.98,10.89-7.81,26.65,17.48,33.3,23.52,9.4,8.52,11.66,5.3,8.8-6.34Z"/>
        <path class="cls-7" d="M475.71,674.41c-1.87-.13-2.88.76-4.23,1.75-11.44,8.42-9.97,29.98-12.96,42.48-6.29-8.53-10.73-19.9-11.57-30.54-1.31-16.63,2.24-39.1-1.92-54.24-2.27-8.22-5.97-13.36-15.32-10.72-19.53,5.52-18.69,41.3-15.77,56.9l-14.59-22.25c-.95-2.98-8.37-12.82-7.76-15.16.26-1.04,11.12-10.26,12.91-11.71,12.74-10.33,27.2-19.12,41.72-26.69,13.64,21.25,20.56,46.64,29.49,70.18Z"/>
        <path class="cls-3" d="M450.16,292.8c-2.94,1.47,5.97,8.86,5.2,9.6-8.8,2.5-16.75,1.36-25.44,4.39-15.83,5.52-29.24,20.25-38.86,33.46-3.28-1.77-6.62-3.52-9.76-5.55-1.25-.8-6.88-4.09-6.63-5.23,3.18-2.86,23.75-26.36,25.6-26.36.42.01,1.44,2.73,4.06,2,1.01-.28,4.4-4.27,5.88-5.4,7.8-5.95,22.38-8.5,32.13-9.27,1.87-.14,4.91.43,6.67.43l1.15,1.93Z"/>
        <path d="M429.2,471.68c2.3-.49,3.59.61,2.9,2.91-.27.9-14.13,10.81-15.12,10.89-1.3.12-2.59-1.58-2.25-2.89.38-1.46,12.68-10.53,14.47-10.91Z"/>
        <path class="cls-1" d="M417.82,260.28c.79.04,1.93-.45,1.74.7-4.3.07-9.98,10.46-11.71,11.1-3.06,1.15-15.05,3.03-18.91,3.55-8.98,1.21-18.84.74-27.77-.81-10.61-1.84-21.63-8.1-27.93-16.63,13.19,4.29,44.81,10.59,56.62,3.26.34-.21.49-1.26.93-1.49,1.52-.8,23.36.14,27.03.32Z"/>
        <path class="cls-3" d="M400.27,238.53c.36.08,1.01.7.7,1.4-.55,1.28-6.87,6.62-8.43,8.41-1.34,1.53-4.46,6.95-5.59,7.08-4.35-.38-9.09.35-13.38-.02-13.24-1.15-15.74-10.78-2.27-14.97,1.77-.55,7.1-1.9,8.61-1.9,4.67,0,16.77-.89,20.36,0Z"/>
        <path class="cls-7" d="M389.25,528.19c-6.82,10.32-14.47,20.11-20.23,31.11-1.19.83-2.79-2.46-3.34-3.31-8.13-12.38-12.68-40.7-12.72-55.37-.01-4.87,1.32-11.24,1.4-16.07.02-1.3-.36-2.59-.85-3.77-1.09-.29-2.41-.23-3.43.26-4.4,2.15-14.96,35.78-17.89,41.76-.93-4.96-1.96-10.05-2.45-15.09-2.88-29.4-.61-59.89,4.43-88.92,4.76-27.42,12.78-55.76,30.31-77.78-.64,7.68-2.75,15.26-3.77,22.91-3.34,25.15-2.67,45.08,2.23,69.87,6.26,31.69,16.03,63.85,26.31,94.4Z"/>
        <path class="cls-3" d="M368.33,258.89c-.21,1.29-3.6.75-4.55.69-10.02-.7-32.9-4.39-39.27-12.67-.99-1.28-7.29-14.14-6.7-14.7,15,4.79,30.63,5.39,46.31,5.62-10.06,6.99-8.06,18.94,4.21,21.06Z"/>
      </g>
      <path class="cls-8" d="M491.83,895.33c4.48,7.05,13.9,19.61,30.38,28.55,28.59,15.49,56.97,8.42,63.75,6.54"/>
    </g>
  </g>
</svg>