<?xml version="1.0" encoding="UTF-8"?>
<svg id="Outline" xmlns="http://www.w3.org/2000/svg" viewBox="0 0 1080 1080">
  <defs>
    <style>
      .cls-1 {
        fill: #d96a7a;
      }

      .cls-2 {
        fill: #7a1c1c;
      }

      .cls-3 {
        fill: #7fb3ea;
      }

      .cls-4 {
        fill: #c62828;
      }

      .cls-5 {
        fill: #0d0d0d;
      }

      .cls-6 {
        fill: #f4f2ee;
      }

      .cls-7 {
        fill: #6e4bae;
      }

      .cls-8 {
        fill: #f7f4ef;
      }

      .cls-9 {
        fill: #4d87c7;
      }

      .cls-10 {
        fill: #1b1b1b;
      }

      .cls-11 {
        fill: #e53935;
      }

      .cls-12 {
        fill: #f2c14e;
      }
    </style>
  </defs>
  <path class="cls-6" d="M467.35,610.68c3.92,5.01,7.08,9.14,4.9,15.8-1.63,5.01-4.08,5.15-8.46,3.02-7.94-3.84-14.49-13.81-10.88-22.64l3.8,5.19c3.81,2.98,7.61,2.18,10.64-1.37Z"/>
  <path class="cls-6" d="M446.31,649.44c-.41,1.56,2.26,2.89,2.02,3.79-.46,1.72-7.74,9.95-9.39,10.8-2.81,1.45-6.8.23-9.31-1.46-3.89-2.62-.86-4.63,1.85-6.54,2.23-1.58,10.2-5.67,12.69-6.39.7-.2,1.41-.44,2.14-.2Z"/>
  <path class="cls-3" d="M422.83,672.92c.66.99-.47,8.27.63,10.27-6.64-3.06-3.31-5.59-2.17-10.91.36.22,1.48.55,1.54.64Z"/>
  <path class="cls-9" d="M418.01,669.56c-.09,2.77-1.21,5.72-2.43,8.19-1.21,2.44-2.51,6.07-5.18,2.98,1.17-1.42,2.99-2.64,4.04-4.12,1.56-2.19,1.91-5.08,3.57-7.05Z"/>
  <path class="cls-3" d="M391.15,692.57c3.06-1.17,2.88-4.02,6.7-1.74-1.84,5.12-8.96,5.72-13.63,5.44,1.51-3.68,3.98-2.56,6.93-3.7Z"/>
  <path class="cls-3" d="M413.66,669.56c-1.29,3.52-3.11,7.61-7.09,8.71,1.25-3.66,3.19-7.39,7.09-8.71Z"/>
  <path class="cls-5" d="M426.74,677.73c7.37,5.01,10.65,13.24,15.81,20.17-8.15-3.38-15.57-10.86-15.81-20.17Z"/>
  <path class="cls-10" d="M410.93,666.82c-1.53-.18-2.52,2.8-3.83,1.94l-7.61-12.29c1.02-.23,1.29.58,1.9,1.09,3.2,2.66,6.34,6.46,9.54,9.26Z"/>
  <path class="cls-10" d="M373.83,709.11c.76.7.15,1.34-.24,1.34-3.4,0-7.65.34-10.9,0-5.27-.56-11.63-3.43-16.08-6.28,4.21-2.66,9.59-2.27,14.28-1.19,2.83.64,10.88,4.23,12.94,6.13Z"/>
  <polygon class="cls-10" points="358.06 665.74 358.05 669.56 353.7 666.01 358.06 665.74"/>
  <path class="cls-10" d="M402.57,679.82c2.2,1.29,12.83,9.17,12.71,11.27-.1,1.72-7.33-.33-8.58-.67-12.54-3.46-25.76-11.95-33.38-22.49,1.55-1.21,25.95,9.95,29.25,11.89Z"/>
  <path class="cls-10" d="M482.34,657.56c.61.65-3.72,4.7-4.5,5.04-1.63.71-2.61.34-4.22-.14.96-3.64,5.91-3.36,8.72-4.9Z"/>
  <path class="cls-10" d="M480.16,686.46l-5.72,1.09-3-.55c2.25-3.55,5.65-1.71,8.72-.54Z"/>
  <path class="cls-3" d="M450.18,690c1-.45,5.55-3.96,6-3.54-.05,1.46-6.27,14.56-7.63,13.63l-5.46-8.18c2.3-.39,4.97-.95,7.09-1.91Z"/>
  <path class="cls-9" d="M456.16,670.65c1.29,4.91,3.4,7.4-.82,11.43-2.7,2.58-11.35,7.91-14.97,5.74-.52-.32-4.08-6.09-5.18-7.37-1.82-2.11-4.04-4.04-6.27-5.72,9.24.56,18.3-1.95,27.24-4.08Z"/>
  <path class="cls-9" d="M398.39,696.82l3.27,9.26c-3.02-.95-5.18-3.37-7.37-5.46-.43-.41-2.45-.74-1.03-1.66.97-.63,3.85-1.3,5.13-2.14Z"/>
  <path class="cls-3" d="M432.19,711.54c-.32.83-2.62,1.64-3.37,1.8-2.88.65-5.78.12-8.65-.41-1.63-.31-11.37-2.94-12.15-3.53-.25-.2-3.05-4.81-3.38-5.47-1.73-3.48-2.91-6.97-2.43-10.93,2.3,1.09,6.78,1.24,8.7,2.48,1.13.73,2.46,3.43,3.56,4.61,4.8,5.18,10.41,10.37,17.72,11.45Z"/>
  <path class="cls-9" d="M445.82,702.82c.15,1.15-.93,1.77-1.68,2.4-1.23,1.03-6.57,4.57-7.91,4.7-1.07.11-.84-1.27-1.97-1.81-3.01-1.43-5.55-.87-9.55-3.54-1.37-.9-8.64-7.64-8.85-8.61-.26-1.16,3.14-1.79,3.19-4.31.05-2.55-3.62-6.17-3.63-6.55,0-.11.89-1.85.97-1.91.3-.22,5.42,3.28,6.33,3.75,4.86,2.53,3.12,2.21,6.47,6.07,3.85,4.43,10.77,8.89,16.63,9.81Z"/>
  <path class="cls-7" d="M473.62,632.48c.32,6.62,5.25,16.98,1.32,22.86-1.11,1.67-5.66,5.43-7.48,6.17-1.73.7-5.8-1.64-8.37-1.73-1.86-.06-7.64,1.61-7.85,3.51-.56,4.98,8.61-2.3,10.38,1.35-17.48,6.44-48.76,15.12-46.89-14.46.31-4.98,4.43-18.04,7.96-21.47,1.89-1.84,7.01-3.77,9.76-6.06,3.43-2.85,7.21-7.69,8.88-11.83,1.86-4.65.57-9.57,5.4-12.04,2.65-1.35,4.35-1.36,6.71.72-6.93,7.06-6.49,17.97-.52,25.61,2.94,3.77,11,10.12,16.01,9.54,1.86-.21,2.95-1.91,4.69-2.17ZM468.18,649.66c1.03-.63,5.01-8.58.37-7.27-1.19.33-3.39,4.64-3.57,5.75-.32,1.98,1.91,2.31,3.2,1.52ZM465.53,644.29c1.02-1.61,5.48-4.17,2.63-5.54-3.3-1.59-7.75,6.58-8.06,9.41-.05.5.23,2.09.49,2.26,2.7,1.89,3.99-4.62,4.94-6.13ZM454.04,648.56c.04-2.15-.86-2.49-1.11-3.84-.43-2.31.65-4.88-2.24-6.47-3.38-1.85-8.13.28-11.4,1.61-1.19.48-8.12,3.74-8.59,4.21-1.38,1.4-.15,3.24,1.71,3.14,2.94-.17,12.89-7.74,16.14-5.74.94.58,1.66,2.23.01,2.8-5.49,1.93-21.36,8.03-23.87,13.14-3.49,7.1,8.07,12.23,13.94,10.68,5.09-1.35,15.33-14.11,15.41-19.53Z"/>
  <path class="cls-1" d="M601.72,456.93l-3.54,7.08c-1-.46-2.34-6.65-1.91-7.08h5.45Z"/>
  <path class="cls-8" d="M578.49,482.93l.58.38c-2.29,3.03-1.87,8.63-2.77,9.65-1.55,1.78-8.26,1.63-10.56,1.58,2.29-2.16,5.32-3.6,7.64-5.71,1.93-1.75,3.62-3.75,5.11-5.9Z"/>
  <path class="cls-8" d="M595.57,469.28c.03.53-2.25,7.81-2.52,8.14-1.24,1.5-10.85,2.67-13.49,5.32-.18.18-.34.37-.49.57l-.58-.38c1.89-2.75,3.47-5.74,4.79-8.74,1.2-2.73,5.41-15.87,7.35-16.64.53-.21,1.24-.05,1.82-.08-.31,3.59,2.96,8.74,3.12,11.81Z"/>
  <path class="cls-8" d="M611.32,423.94c.15,1.57-2.9,7.27-2.77,9.56l-10.09,1.62c-.69-.89,6.24-18.99,9.25-20.17.55,2.43,1.62,4.74,2.46,7.09.24.68,1.1,1.39,1.15,1.9Z"/>
  <path class="cls-1" d="M623.52,395.32l-10.89,23.44c.51-1.58-3.31-6.88-3.24-7.28.3-1.7,11.9-14.26,14.13-16.16Z"/>
  <path class="cls-2" d="M580.9,201.61c.27.91-.36,6.98-.72,7.79-.26.58-2.97,3.31-3.75,4.43-1.69,2.44-3.08,4.86-4.57,7.42-.19.33-.01,1.07-.93.69-.72-.3-5.82-6.56-7.36-7.91-1.18-1.03-2.65-1.6-3.76-2.7,1.41-2.5,2.28-5.23,3.66-7.74.69-1.25,4.08-7.37,5.54-6.18.18.15,1.1,4.4,1.1,4.64,0,1.57-.3,10.19,0,10.63.05.07,1.61.47,1.82.43,2.22-.38,2.04-7.53,1.92-9.36-.1-1.41-1.12-5.16-1.62-7.39l1.8-.21c.06,2.13,5.98,2.53,6.87,5.46Z"/>
  <path class="cls-2" d="M585.11,175.07c.75-.6,3.03-2.74,3-.82-.09,7.03-5.15,15.52-6.02,22.61-1.99-.53-2.88-1.93-5.18-2.19-1.39-.15-2.92-.26-2.88,1.48l-1.8.21c-.19-.86-.31-1.49-.27-1.68.86-4.13,9.66-16.81,13.15-19.61Z"/>
  <path class="cls-2" d="M649.28,195.89c5.35-.2,12.84,3.74,12.39,9.95-.13,1.67-7.07,11.92-8.45,14.46-2.84,5.26-5.89,11.11-7.35,16.91-2.55-2.7-4.22-6.09-6.55-8.98-3.84-4.76-8.8-8.78-12.44-13.54,3.35-6.41,7.39-13.99,14.08-17.28,1.06,1.07-.82,18.14-1.11,20.97,3.16,4.42,4.11-2.13,4.38-4.89.3-3.02-.15-9.97.65-12.46.22-.68,1.2-.79,1.55-1.31.73-1.07,1.63-3.78,2.85-3.83Z"/>
  <path class="cls-2" d="M676.9,173.47c3.33,1.91-10.34,24.76-11.95,27.76-3.17-5.02-7.14-7.83-13.08-8.73-.22-.82.21-.9.54-1.37.68-.97,2.62-3.07,3.54-4.09,2.87-3.17,16.78-15.96,20.95-13.57Z"/>
  <path class="cls-5" d="M421.88,472c.26.35,1.11,7.74,1.06,8.63-.04.82.2.99-.77.77-.84-.18-6.33-2.45-6.33-2.94,0-1.89-.39-6.81,0-8.18.55-1.95,4.52,1.6,6.04,1.72Z"/>
  <path class="cls-5" d="M412.86,466.76c-.13,3.31-1.35,6.4-.84,9.79-15.49-8.05-24.75-19.9-31.71-35.61-6.8-15.33-10.65-31.78-11.38-48.59-.81-18.53.1-37.91,4.39-55.91.95-.13.52,1.24.54,1.9,1.27,32.43-4.67,69.54,11.9,98.78,6.91,12.18,16.5,20.78,27.1,29.64Z"/>
  <path class="cls-5" d="M728.45,492.38c.4.89.32,1.78.28,2.71-9.75-8.42-19.01-17.6-29.86-24.64l.43-4.8c.86-.25.92.29,1.36.55,5.85,3.59,16.64,13.63,21.55,18.79.98,1.04,5.89,6.6,6.24,7.39Z"/>
  <path class="cls-5" d="M695.47,463.21c.27,1.38-.15,3.17.01,4.62-4.07-1.65-7.62-4.27-11.62-6.09-25.61-11.66-73.62-10.69-101.41-6.92-5.95.81-11.76,2.07-17.52,3.75-1.08-2.54-.31-9.65,1.68-11.4,2.3-2.02,15.2-5.53,18.75-6.33,33.59-7.54,71.13-3.95,100.26,14.77,1.96,1.26,9.52,5.89,9.85,7.6Z"/>
  <path class="cls-8" d="M539.03,357.69c-2.15.26-4.26-.56-4.9-2.71.32-.29,4.67,1.73,4.9,2.71Z"/>
  <path class="cls-8" d="M594.64,357.15c-2.69.41-4.65-1.09-6-3.26,2.06.35,4.61,1.66,6,3.26Z"/>
  <path class="cls-11" d="M569.32,225.78c.92,1.85-6.31,11.02-.31,10.89l-3.83,5.44c-3.81-2.04-7.28-3.95-11.71-4.35-8.58-.76-17.36.58-24.24,5.99-.61-15.66,17.37-41.11,33.54-25.64.69.66,6.32,7.21,6.55,7.67Z"/>
  <path class="cls-1" d="M821.51,139.79c5.4,8.54.52,24.44-1.9,33.75-2.18,8.42-4.88,17.87-8.63,25.71-1.78,3.73-4.71,7.22-5.94,11.24-1.39.23-.84-.12-1.13-.76-2.26-5.02-3.96-14.97-11.67-14.95-12.7.03-17.13,23.42-17.71,32.89-.32,5.27.86,13.29-.02,17.98-.17.9-.52,1.09-1.05,1.67-2.18,2.39-10.19,7.38-13.29,9.07-14.35,7.81-29.83,10.3-44.81,15.7-1.93.7-5.2,2.85-6.64,3.18-3.12.7-9.84-1.34-13.52-.43-1.05.15-2.29-2.43-1.36-3.01,1.73-1.08,9.03-2.56,11.74-3.53,10.28-3.69,22.36-8.82,29.43-17.45,1.74-2.13,2.88-5.25,4.25-6.93,2.67-3.28,7.97-6.92,11.01-10.52,10.24-12.12,17.51-31.98,25.25-46.17,8.88-16.28,25.63-39.98,42.25-48.79,2.3-1.22,2.33-.88,3.74,1.35Z"/>
  <path class="cls-4" d="M542.53,437.34c7.87,13.33,2.43,19.86-6.78,30.2-15.25,17.12-38.19,22.94-60.5,23.19.89-13.61,7.89-26.07,15.84-36.78,3.33-4.49,7.93-10.41,11.69-14.48,1.39-1.51,4.97-5.64,6.96-5.35,3.21.48,12.28,11.36,13.92,14.47,6.01,11.37-14.32,12.03-15.15,19.56-.64,5.82,3.79,0,4.72-.77,6.93-5.76,19.96-7.83,13.91-20.09-2.01-4.09-12.11-15.97-16.43-16.87-2.79-.57-5.34,1.36-7.37,3.08-8.67,7.37-23.55,29.16-27.8,39.79-2.27,5.67-3.06,11.57-4.43,17.48-3.24-.62-10.59-1.16-12.68-3.66-2.69-3.24-8.07-14.4-10.17-18.72-2.54-5.23-5.13-10.98-6.96-16.49-1.65-4.97-2.59-12.42-4.48-16.78-2.81-6.49-5.9,1.22-6.96,3.94-3.33,8.56-6.02,16.21.16,24.12,1.01,1.3,7.58,8.77,8.67,5.4.63-1.95-5.42-6.89-6.74-8.96-2.76-4.37-2.13-6.63-1.12-11.42.55-2.63,1.62-6.89,3.54-8.72,1.55,7.64,3.85,15.16,6.83,22.34,3.36,8.09,8.08,15.5,11.7,23.46-9.42-6.44-26.94-14.43-31.71-25.26-3.83-8.71,1.94-21.95,6.74-29.43,10.8-16.82,38.11-46.85,60.09-43.95,16.54,2.18,46.15,36.53,54.51,50.7Z"/>
  <path class="cls-1" d="M591.91,482.01c-1.85,8.42-4.65,16.56-7.92,24.51-6.86,16.64-13.58,28.5-28.66,38.94-25.13,17.4-53.89,13.88-82.12,7.29-3.34-6.51-8.34-13.14-10.77-20.03-.17-.47-.64-1.45,0-1.64,2.47,3.03,11.12,13.92,14.76,14.17,4.03.27,9.84-9.06,13.02-10.94.51-.3.85-.68,1.54-.44,5.3,1.32,16.72,15.53,20.49,16.02.65.08,1.26-.1,1.83-.39,3.32-1.64,7.96-12.85,10.54-16.21,1.41-1.83,2.25-2.1,4.45-1.24,5.42,2.11,12.84,8.8,18.3,10.6,2.46.81,3.66-.25,4.86-2.47,4.54-8.39,2.95-21.42,14.44-25.89,5.98-2.33,12.35,1.49,13.25-6.93.55-5.16-1.11-17.55,1.92-21.52,1.69-2.22,7.44-2.66,10.07-3.83Z"/>
  <path class="cls-4" d="M584.36,933.37l.71,1.07c-2.08,1.11-4.3,4.76-5.73,5.77-3.08,2.17-8.24,3.74-11.96,2.77,4.32-3.83,7.39-8.66,10.63-13.35,1.23,1.17,4.19,3.74,6.35,3.74Z"/>
  <path class="cls-4" d="M536.16,373.94c1.03.43,4.28.6,3.96,2.02-.05.24-3.05,3.7-3.28,3.81-1.54.8-3.96.3-5.73,1.9-1.11,1.01-3.1,6.33-4.34,6.02-.3-.08-3.14-4.19-3.81-4.92-10.17-11.05-26.14-21.46-41.71-20.71.32-2.12,1.87-4.22,3.63-5.36,3.99-2.58,12.8-1.16,10.84-7.21-1.45-4.48-14.93-12.11-19.39-13.86-1.24-.49-8.13-2.17-8.15-2.73,4.98-7.29,14.57-13.01,22.17-17.62,2.01-1.22,9.09-4.29,9.99-5.27,2.42-2.64-.26-7.54-.86-10.62-.11-.56-.71-1.79.3-1.66.15,2.3,4.34,5.37,4.8,6.92.9,3-.16,11.34.09,15.18,1.15,18.07,13.87,46.84,31.49,54.11ZM528.12,376.53c2.94-1.39-1.58-4.63-2.62-6.11-.75-1.07-3.66-7.84-5.47-5.01-1.56,2.45,5.06,12.55,8.09,11.12Z"/>
  <path class="cls-5" d="M512.32,188.14c-22.86-11.82-31.22,22.89-32.16,38.99-.03.62.36,1.5-.54,1.35-12.92-19.89-6.85-50.5,7.09-68.4,20.23-25.98,24.03,14.3,25.61,28.06Z"/>
  <path class="cls-5" d="M813.77,136.35l-16.1,13.61c-21.61,20.43-29.84,49.6-45.06,73.79-2.84,4.52-6.04,9.04-10.24,12.37,4.52-17.61,6.5-35.8,11.97-53.17.85-2.69,1.79-6.04,2.87-8.58,2.35-5.51,14.13-15.37,19.24-19.47,7.79-6.26,16.53-11.89,25.88-15.55,3.64-1.42,7.47-3.09,11.44-3Z"/>
  <path class="cls-4" d="M763.52,425.68c21.21,30.73,34.98,67.08,25.72,104.85l-5.77-11.4c-3.62-6.66-12.45-7.65-16.5-.79-.39.67-2.26,5.99-2.26,6.46v14.45c-1.82-1.9-9.11-9.76-9.24-11.74,1.23-7.27,2.79-14.55,3.71-21.86,2.8-22.22,2.75-44.33-2.36-66.18-3.2-13.67-8.31-26.68-14.45-39.24,1.02-.24,1.29.58,1.9,1.09,5.93,4.9,14.64,17.68,19.25,24.36Z"/>
  <path class="cls-4" d="M770.24,592.88c4.61,32.23,15.43,63.83,6.31,96.42-5.51,19.68-20.76,37.37-34.73,51.68,3.18-12.81,4-25.37.27-38.17-.75-2.57-4.27-9.36-4.38-10.61-.35-3.97,2.35-13.42,2.46-18.56.13-5.71-.16-13.72-4.94-17.39-2.09-1.61-8.62-4.14-11.13-4.14-2.89,0-5.84-.13-8.72,0-.08,0-1.19,1.34-.81-.26,1.34-5.6,5.95-14.22,8.18-20.18,7.63-20.38,14.56-41.07,21.8-61.6l10.08-36.8,10.62,12.81c1.19,15.61,2.78,31.29,4.99,46.8Z"/>
  <path class="cls-4" d="M595.18,641.76c-17.26,21.91-38.6,41.37-53.43,65.13-10.78,17.27-8.16,25.48-6.53,45.26l3.54,22.08c-18.39-17.64-26.07-41.3-36.16-63.98,5.12-7.26,11.46-13.6,17.89-19.71,21.59-20.55,46.02-39.38,74.69-48.78Z"/>
  <path d="M827.35,144.85c2,15.2-8.13,46.51-15.47,60.21-1.48,2.74-5.14,10.37-8.03,11.08-3.11.77-2.78-3.76-3.56-6.06-2.08-6.13-4.92-15.88-12.87-9.32-11.96,9.87-7.37,33.22-9.05,46.02-.13.95-.2,1.18-.8,1.92-1.3,1.61-7.88,6.13-9.96,7.49-16.14,10.54-35.56,14.28-53.59,20.28l13.99,5.35c10.11,4.81,19.54,10.33,26.25,19.54,1.55,2.13,7.15,10.9,5.61,13.02-1.34,1.82-4.2.58-6.33.8-12.52,1.31-23.18,5.19-32.18,14.17,2.05,3.31,4.92,6.04,7.05,9.32,1.29,1.97,2.51,4.17,3.52,6.3,1.05,2.22,6.3,15.29,4.36,16.48-7.11-.34-14.27-1.55-21.46-1.02-.82.06-1.58-.43-1.35.81,4.35,4.73,8.57,9.66,12.51,14.75,3.46,4.47,7.67,11.79,11.18,15.52,3.98,4.23,10.26,7.42,14.99,12.82,19.1,21.83,39,56.6,42.46,85.65,1.47,12.29,1.9,33.48-2.94,44.9-.83,1.96-1.44,3.73-3.86,2.24-2.29-4.09-6.75-18.04-11.09-19.43-10.88-3.5-8.88,20.57-8.12,26.11,7.85,8.12,31.7,18.36,41.07,9.62,2.36-2.2,5.73-10.32,6.26-10.64,1.17-.72,2.54-.34,2.76,1.12.48,3.18-4.88,10.78-7.37,12.81-11.06,9.07-32.26-.04-42.25-7.64,1.18,13.69,2.53,27.46,4.43,41.08,5.03,35.92,17.65,71.09,4.29,106.95-4.84,13-16.3,28.39-25.61,38.71-2.03,2.25-10.32,11.11-12.25,12.28-1.95,1.18-2.6-.06-2.95-1.91,3.09-13.59,5.81-27.54,1.95-41.3l-2.57-6.42c-10.26,39.71-31.84,75.08-54.62,108.66-24.52,36.16-52.54,70.97-76.22,107.49-6.6,10.17-13.12,20.84-17.4,32.21-4.34,2.93-4.01-3.41-3.86-6.3-4.32,4.37-10.27,7.17-16.56,6.48-13.31-1.46-1.45-7.59,2.38-12.22,1.03-1.25,5.07-6.82,4.83-8.08-11.99-17.25-24.2-33.86-34.35-52.33-16.01-29.14-28.39-60.34-36.98-92.5-4.66,2.21-9.18,4.69-13.57,7.4-7.68,4.76-16.35,10.79-23.66,16.14-6.47,4.74-17.69,12.64-17.83,21.47-.05,2.7,2.76,14.67,1.14,15.81-1.55.75-2.62.05-3.85-.85-.91,2.89,2.95,15.22-1.88,14.75-2.2-.22-9.32-12.43-10.75-14.93-1.25-2.18-2.32-6.16-3.72-7.73-1.7-1.91-9.9-5.71-12.94-7.78-25.12-17.12-35.78-35.69-46.75-63.37-1.07-2.71-.67-6.12-3.79-6.01-11.79.42-21.67,5.5-34.78,3.15-20.46-3.67-32.24-30.71-40.78-47.27l-1.61.25c-8.47,6.87-22.65,20.98-34.15,20.97-2.21-.01-3.07-2.27-1.45-3.29,1.66-1.06,8.17-2.14,11.07-3.51,8.25-3.91,15.87-12.26,23.19-17.73l-12.86-27.52c.37-1.63,1.63-1.86,3.02-1.4,1.84.6,11.95,9.08,12.82,8.22-1.14-3.5-6.22-19.28-.79-20.18,3.06-.51,7.68,4.58,10.59,6.29,4.72,2.76,10.16,3.93,15.11,6.17.67.06,4.83-3.99,5-4.66.26-1-5.71-12.92-6.73-14.89-5.22-10.05-11.48-17.13-12.3-29.14-1.04-15.23.72-52.98,9.38-65.35,10.3-14.69,46.34-30.8,63.55-36.76,13.12-4.54,19.74-6.87,29.85,4.22,11.15,12.22,24.17,33.41,31.98,48.16,2.38,4.49,5.2,9.53,5.91,14.54,3.85-1.61,6.22-3.81,10.75-2.3,1.15.38,2.45,1.83,3.35,2.02,1.34.29,5.33-.43,7.42-.26,21.81,1.83,42.89,15.7,63.94,21.65,22.04,6.24,57.67,2.12,76.14-12.4,1.58-1.24,4.08-5.45,6.06-3.84,2.14,1.74-1.09,4.47-2.49,5.77-13.33,12.36-48.04,18.47-65.69,17.16-10.01-.74-20.53-4.81-29.85-8.31-5.59-2.1-29.91-13.49-33.39-13.49h-13.35c4.76,3.51,11.95,12.78,11.99,18.81.01,2.22-.78,4.26-.49,7.03.89,8.4,5.29,17.31,3.22,25.96,4.24-1.97,11.49-4.1,7.31,3.22-2.65,4.63-8.02,10.26-13.87,8.46l-.53,3.03c4.83-1.56,8.17-1.9,11.45,2.46l16.31,33.74c.97,1.26,2.42-2.17,3.33-3.19,25.25-28.47,59.87-55.45,96.76-66.24,18.9-21.26,38.71-40.88,53.22-65.62,13.63-23.25,32.78-59.55,38.89-85.41.47-1.98,2.64-11.59,2.37-12.73-.55-2.23-16.74-9.38-19.68-10.32-13.95-4.5-42.82-7.49-57.4-6.43-.78.06-2.37.13-2.85.7-.68.81-3.32,12.94-3.77,15.03-4.98,23.14-6.42,42.4-7.78,65.83-2.23,38.57-30.47,56.73-67.37,54.24-16.24-1.09-22.1-7.27-35.31-13.2-6.35-2.86-13.52-1.9-20.26-2.64-10.62-1.15-34.38-8.85-41.7-16.62-12.46-13.21,12.04-19.82,20.12-25.42-2.51-6.35-3.9-13.29-6.22-19.52-2.69,1.33-5.69,1.84-8.67,1.54-2.04-.21-11.78-3.02-12.25-4.68-.81-2.81,2.28-2.91,4.03-3.43.79-.23.96.33.8-1.1-8.28-.38-27.99-13.06-28.34-21.6-.21-5.01,6.99,1.1,8.89,2.07,1.54.79,5.77,2.79,7.25,3.12,1.58.36-.27-4.55-.45-4.73-.26-.26-5.67-1.5-6.96-2.04-49.17-20.33-56.63-87.32-50.09-133.49,1.5-10.53,6.64-22.56,6.49-32.81-.3-19.85-5.33-58.76-27.13-66.64-10.7-3.87-19.93-2.36-25.32,8.23-1.23,2.4-2.08,9.47-5.02,8.5-2.8-.92,1.33-9.49,2.3-11.22,11.35-20.25,36.45-10.19,46.32,6.19,21.26,35.28,9.4,102.66,14.89,144.31,3.18,24.06,18.34,46.92,39.01,59.66.94.58,1.61,1.43,2.9,1.19-.68-2.34-3.04-3.86-3.94-6.14-4.04-10.32,2.68-25.22,8.4-33.83,11.13-16.76,31.98-39.11,52.23-43.72,15.47-3.52,26.45,6.66,37.33,15.96,2.18-1.2,8.6-5.5,8.93-7.9.48-3.36-12.02-13.67-15.02-15.86-7.31-5.35-13.62-8.73-22.8-9.9-2.37-.31-5.78.75-7.65-1.08-3.87-3.8,2.16-10.44,5.92-12.12,1.53-.68,7.2-1.58,6.92-2.89-5.26-5.21-11.65-8.8-18.56-11.43-5.35-2.04-11.75-1.34-6.74-9.52,3.13-5.11,16.48-13.24,22.07-16.63,1.51-.91,8.71-4.24,8.98-4.67,1.25-2.01-5.66-18.41-2.96-20.11,3.85-2.41,8.09,10.29,10.83,11.92,1.29-12,4.8-23.59,8.69-34.85-19.86-11.63-43.23-32.57-45.2-57.02-1.15-14.28,3.93-32.09,11.35-44.25,4.91-8.05,15.62-20.95,25.67-12.4,7.66,6.51,9.56,34.1,11.66,44.49,2.24,11.03,6.17,22.22,11.56,32.06l6.52-9.27c3.98-4.46,10.36-8.37,16.42-8.66,1.52-.07,3.54,1.32,4.87-.04.67-.69,3.25-7.4,4.38-9.24,1.1-1.78,2.92-4.58,4.57-5.79,1.09-.79,2.66-1,3.16-1.47.62-.58,2.52-5.43,3.31-6.78,2.88-4.89,9.91-16.6,16.16-16.56,5.79.03,2.6,9.33,1.77,12.68-1.92,7.77-5.57,15.17-5.84,23.33,8.94-5.45,18.21-12.7,28.3-5.13,2.06,1.55,10.46,11.12,11.76,11.13,2.24-4.98,10.62-17.76,16.41-17.97,1.9-.08,2.62,1.27,4.03,2.15,4.84-7.91,18.86-23.58,27.91-25.79,17.9-4.38.97,23.34-2.19,28.89-6.31,11.08-14.23,21.85-19.27,33.61-.59,1.38-2.47,5.62-2.54,6.75-.08,1.28,6.34,3.45,7.92,4.42,4.99,3.05,8.45,8.54,10.8,13.73,12.59-9.4,24.1-20.21,34.89-31.61,20.13-21.26,38.98-43.88,60.49-63.81,11.53-10.69,37.14-31.02,53.47-29.45,5.84.56,10.37,6.77,11.09,12.34ZM819.61,173.54c2.42-9.31,7.3-25.21,1.9-33.75-1.41-2.23-1.44-2.57-3.74-1.35-16.62,8.81-33.37,32.51-42.25,48.79-7.74,14.19-15.01,34.05-25.25,46.17-3.04,3.6-8.34,7.24-11.01,10.52-1.37,1.68-2.51,4.8-4.25,6.93-7.07,8.63-19.15,13.76-29.43,17.45-2.71.97-10.01,2.45-11.74,3.53-.93.58.31,3.16,1.36,3.01,3.68-.91,10.4,1.13,13.52.43,1.44-.33,4.71-2.48,6.64-3.18,14.98-5.4,30.46-7.89,44.81-15.7,3.1-1.69,11.11-6.68,13.29-9.07.53-.58.88-.77,1.05-1.67.88-4.69-.3-12.71.02-17.98.58-9.47,5.01-32.86,17.71-32.89,7.71-.02,9.41,9.93,11.67,14.95.29.64-.26.99,1.13.76,1.23-4.02,4.16-7.51,5.94-11.24,3.75-7.84,6.45-17.29,8.63-25.71ZM797.67,149.96l16.1-13.61c-3.97-.09-7.8,1.58-11.44,3-9.35,3.66-18.09,9.29-25.88,15.55-5.11,4.1-16.89,13.96-19.24,19.47-1.08,2.54-2.02,5.89-2.87,8.58-5.47,17.37-7.45,35.56-11.97,53.17,4.2-3.33,7.4-7.85,10.24-12.37,15.22-24.19,23.45-53.36,45.06-73.79ZM789.24,530.53c9.26-37.77-4.51-74.12-25.72-104.85-4.61-6.68-13.32-19.46-19.25-24.36-.61-.51-.88-1.33-1.9-1.09,6.14,12.56,11.25,25.57,14.45,39.24,5.11,21.85,5.16,43.96,2.36,66.18-.92,7.31-2.48,14.59-3.71,21.86.13,1.98,7.42,9.84,9.24,11.74v-14.45c0-.47,1.87-5.79,2.26-6.46,4.05-6.86,12.88-5.87,16.5.79l5.77,11.4ZM776.55,689.3c9.12-32.59-1.7-64.19-6.31-96.42-2.21-15.51-3.8-31.19-4.99-46.8l-10.62-12.81-10.08,36.8c-7.24,20.53-14.17,41.22-21.8,61.6-2.23,5.96-6.84,14.58-8.18,20.18-.38,1.6.73.26.81.26,2.88-.13,5.83,0,8.72,0,2.51,0,9.04,2.53,11.13,4.14,4.78,3.67,5.07,11.68,4.94,17.39-.11,5.14-2.81,14.59-2.46,18.56.11,1.25,3.63,8.04,4.38,10.61,3.73,12.8,2.91,25.36-.27,38.17,13.97-14.31,29.22-32,34.73-51.68ZM752.72,523.44c4.79-26.62,7.09-52.91,1.37-79.6-6.92-32.26-22.99-59-45.54-82.61-2.11-.87-26.58,5.46-30.25,6.82-1.66.62-6.95,3.77-7.92,3.05-.95-.71-.67-2.46.04-3.31,2.86-3.45,26.13-8.47,31.5-9.37,10.23-1.73,20.35-2.67,30.63-.72-1.95-7.78-5.64-15.96-10.92-22.06-1.06-1.23-4.86-4.16-5.17-4.65-.38-.61-.37-1.13-.18-1.8.57-2.02,12.89-10.69,15.36-11.93,7.65-3.85,16.01-4.84,24.35-6.17-4.17-7.49-8.85-13.51-15.96-18.39-8.68-5.98-24.54-13.14-35.02-14.05-2.87-.24-11.15.65-12.98-.51-2.05-2.1-4.58-16.82-6.09-17.48-1.16,3.39-2.67,6.65-4.35,9.82-1.57,2.98-6.6,12.36-8.52,14.37-1.18,1.23-3.66,1.98-3.74-.47-.03-1.1,9.43-16.19,10.81-19.17,1.04-2.24,4.36-13.17,4.95-13.59.69-.48,2.54-.44,3.05.29l4.38,16.4c14.63-4.37,34.53-9.76,42.49-24,3.52-6.29,5.02-13.73,6.55-20.71,3.28-14.92,5.22-30.16,10.06-44.73-24.19,22.12-43.99,48.82-68.47,70.52-5.64,5.01-11.54,9.75-17.8,14.11-2.3,1.6-4.79,3.49-7.48,4.26.62,3.46,3.86,7.59.21,10.31l-1.55-1.08c-5.25-17.14-10.06-34.61-21.82-48.51-4.42-5.22-21.82-24.15-26.82-26.61-5.35-2.63-10.64.19-15.45,2.89-11.17,6.29-18.76,17.35-21.78,29.72,15.64-14.3,33.49-17.19,50.94-3.79,19.11,14.68,27.48,47.8,28.1,70.85.24.26,6.71-2.22,5.38,1.83-.37,1.14-4.82,2.19-6.31,2.98-11.35,6.04-21.48,22.77-26.8,34.25-6.18,13.34-12.16,46.74-31.84,43.68-4.11-.64-12.04-5.96-10.71-10.72,3.05-.8,4.06,2.5,6.21,4.32,7.69,6.54,15.9.98,19.91-6.54-19.52,3.97-37.29-9.22-45.25-26.18-.19-.14-.69.3-.82.54-1.62,3.03-2.93,8.76-4.53,12.37-3.66,8.19-8.71,15.42-13.73,22.8,3.16.68,6.35,2.09,9.61,2.39,2,.18,6.71-.84,7.57.61,1.79,2.98-3.89,3.36-5.98,3.28-4.57-.17-15.76-5.2-18.85-2.48-.29.26-4.16,6.17-4.33,6.57-.11.25-.14.89.26.8,2.88-1.9,6.97-1.89,10.29-1.56,1.86.18,12.21,2.41,13.17,3.19,1.96,1.59-.35,2.76-2.18,2.79-3.79.06-9.4-2.55-13.74-2.56-6.58-.02-12.52,5.12-17.04,9.4,3.16,4.04,7.01,7.46,10.31,11.39,6.53,7.78,20.59,25.09,20.06,35.25-.3,5.71-6.62,13.76-10.25,18.15-15.54,18.8-39.17,25.62-62.95,26.45-20.77.73-35.6-11.58-51.51-22.89.26,3.67.61,7.38,1.25,11.01.47,2.66,3.1,8.55,1.75,10.8-1.57,2.63-8.68-1.42-10.9-2.19-.52-.19-1.56-1.02-1.91-.27,5.77,5.71,16.07,11.99,24.25,12.81,2.41.25,5.41,0,7.91,0,.1,0,.52,1.75.51,1.93-.14,2.48-7.18,3.88-9.23,4.62l3.67,1.5c4.43.8,8.43-.51,12.1-2.9,5.3-3.46,6.98-9.79,14.37-6.13,13.23,6.55,16.53,16.3,35.02,15.18l4.06-1.1c-2.11-1.18-9.63-3.79-10.9-5.18-.84-.92-.9-2.52.36-2.94,1.74-.57,8.03,1.57,10.43,1.95,21.87,3.5,44.43,3.06,61.71-12.37-3.85.83-8.41-.86-11.81-.91-1.72-.02-12.16,4.01-11.02-.37.46-1.77,8.71-2.81,10.72-3.48,17.48-5.79,21.79-20.07,27.92-35.59-8.44,1.41-17.26,2.26-24.89,6.45-1.94,1.06-8.43,7.21-9.39,3.52-.75-2.84,9.4-7.09,9.7-8.15.4-1.44-1.55-7.62.05-10-.22-.26-4.97,4.27-5.95,1.3-.69-2.08,3.73-4.45,5.4-5.4,9.66-5.51,22.8-8.73,33.78-10.1,5.2-27.04,28.99-43.47,44.7-64.06,9.28-12.15,17.74-26.72,21.28-41.68-.52-.67-11.41,10.46-12.27,11.44-1.27,1.43-6.8,9.29-7.34,9.56-1.82.91-3.07-.06-2.65-2.07,1.03-4.81,20.09-22.65,24.82-25.92,8.63-5.95,21.05-11.71,31.58-12.57,1.54-.13,6.39-.63,6.72,1.35.42,2.53-8.98,2.69-10.99,3.1-9.29,1.9-16.87,5.92-24.82,10.88-3.48,16.28-11.27,31.35-20.95,44.74-4.28,5.91-11.39,12.57-14.55,18.71-1.71,3.3-2.75,7.49-4.34,10.93-5.14,11.09-10.91,21.94-13.72,33.97,1.28-.26,5.14.43,5.92-.07.43-.28,2.43-8.44,2.94-9.87,5.17-14.36,12.13-21.29,19.5-33.38,1.29-2.11,4.82-12.79,8.19-10.41,2.35,1.65-3.59,6.73-3.3,9.03,2.33-1.05,4.54-2.26,6.95-3.13,18.93-6.82,41.83,1.81,54.63,16.51,22.09,25.35,27.11,56.4,25.76,89.28,6.93,9.4,11.68,21.71,18.8,30.77.35.44-.01,1,1.25.69ZM751.1,530.23c.03-.83.14-1.65-.31-2.41-6.61-8.06-11.11-17.91-19.32-24.55-3.17,18.01-10.9,34.99-18.62,51.44-20,42.62-46.53,80.14-69.25,121.02-16.3,29.34-34.7,62.72-20.61,96.87.89-.27,1.32-2.15,1.64-2.99,3.47-9.05,6.33-18.36,9.56-27.51,1.22-2.06,3.35-1.09,3.24,1.12-3.78,11.5-7.45,23.15-11.86,34.42-7.66,19.56-18.68,36.72-33.08,52.01-.27,1.55,10.07,8.06,9.53,10.6-.95,4.47-4.68-1.03-5.74-1.97-6.71-5.99-14.11-11.3-20.73-17.42-20.71-19.16-51.49-53.73-63.32-78.97-8.57-18.26-16.12-36.97-24.89-55.18-.6-1.24-1.2-2.48-1.81-3.72-1.13-2.31-4.34-9.77-6.43-10.47-1.87-.63-7.02.86-8.21,2.21-.72.81-.97,4.31-2.07,6.11-1.61,2.67-5.51,5.04-8.28,2.89-.67,5.31-3.62,9.84-5.45,14.72,6.15-3.88,12.11-17.16,19.89-17.15,2.72.01,9.67,2.62,11.36,5.89.36.69.48,1.42.28,2.15-.82,2.99-6.69.76-8.31,1.06-.87.16-1.49,1.81-2.31,1.97-.8.15-4.74-2.55-8.54-1.44-.81.24-7.06,8.28-9.15,9.93-3.4,2.67-6.36,2.96-9.41,4.76-1.2.71-1.98,2.09-3.13,2.87-7.47,5.11-14.83,8.26-23.52,10.82-3.84,1.13-19.8,3.94-21.42,5.3-2.83,2.39-5.97,10.92-6.66,14.6-1.32,7.11-.98,21.64,8.36,22.98,5.05.72,15.03,1,20.11.59,1.67-.14,9.11-1.59,10.1-2.44.46-.39,2.56-9.59,3.25-11.47,5.26-14.37,19.75-34.4,31.08-44.7,1.7-1.55,8.34-7.37,10.09-7.4,1.57-.03,2.39.93,1.86,2.45-.31.89-1.97.56-1.53,1.6,18.9,29.27,24.1,63.94,34.28,96.6,9.72,31.18,24.26,64.23,41.76,91.81,4.85,7.65,21.25,33.23,26.98,37.89,1.53,1.24,7.24,3.38,5.46,5.52-.43.52-.98.73-1.61.73-2.16,0-5.12-2.57-6.35-3.74-3.24,4.69-6.31,9.52-10.63,13.35,3.72.97,8.88-.6,11.96-2.77,1.43-1.01,3.65-4.66,5.73-5.77.88-.48,1.73-.49,2.49.35.68.75.12,1.98,1.07,1.91,5-10.29,11.18-20.11,17.55-29.61,27.38-40.79,58.46-79.15,84.95-120.58,18.88-29.51,47.74-82.24,45.26-117.79-.64-9.05-3.78-11.94-12.84-12.79-10.93-1.01-18.85,2.82-28.44,6.99-9.69,4.21-19.23,8.99-28.52,14.03-2.62.33-3.4-1.82-1.28-3.5,3.17-2.51,10.75-5.71,14.71-7.63,9.81-4.77,20.19-9.57,30.62-12.73,11.94-34.14,26.84-68.22,35.93-103.36,1.34-5.18,4.3-14.57,4.53-19.5ZM729.27,487.46c.75-28.99-4.69-59-24.33-81.19-7.59,3.33-15.02,2.84-23.09,2.14,12.3,14.83,17.82,33.1,17.73,52.33,10.55,8.15,20.75,16.79,29.69,26.72ZM728.73,495.09c.04-.93.12-1.82-.28-2.71-.35-.79-5.26-6.35-6.24-7.39-4.91-5.16-15.7-15.2-21.55-18.79-.44-.26-.5-.8-1.36-.55l-.43,4.8c10.85,7.04,20.11,16.22,29.86,24.64ZM727.64,504.36c.11-1.74,1.25-3.6.03-5.21-9.5-8.6-18.85-17.55-29.46-24.78l-5.45,24.54c11.5-1.5,24.13,1.14,34.88,5.45ZM725.06,515.14c.54-1.9,2.23-5.81.95-7.24-2.12-2.38-19.4-5.47-23.17-5.72-2.48-.16-10.53-.55-11.98,1.11-16.85,37.91-34.21,76.7-62.42,107.66,15.62-.09,31.24,1.36,46.26,5.68,14.04-22.45,26.82-45.78,37.78-69.92,4.49-9.9,9.64-21.16,12.58-31.57ZM702.02,403.49c.49-.64-1.19-2.05-1.62-2.45-5.61-5.2-11.79-8.66-19.09-10.9-9.38-2.87-18.35-4.14-27.8-.81-.13.76.97.8,1.51.93,10.19,2.43,16.58,6.06,23.39,14.23,7.88.3,16.01,1.88,23.61-1ZM695.48,467.83c-.16-1.45.26-3.24-.01-4.62-.33-1.71-7.89-6.34-9.85-7.6-29.13-18.72-66.67-22.31-100.26-14.77-3.55.8-16.45,4.31-18.75,6.33-1.99,1.75-2.76,8.86-1.68,11.4,5.76-1.68,11.57-2.94,17.52-3.75,27.79-3.77,75.8-4.74,101.41,6.92,4,1.82,7.55,4.44,11.62,6.09ZM695.48,458.02c.89-19.05-7.31-37.39-19.89-51.26-7.95-8.77-18.92-16.48-31.18-11.54-5.34,2.16-8.03,6.62-10.97,11.38-5.2,8.44-9.28,17.77-11.55,27.42,12.86,0,26.27,1.53,38.58,5.32,12.75,3.91,24.19,11.07,35.01,18.68ZM664.95,201.23c1.61-3,15.28-25.85,11.95-27.76-4.17-2.39-18.08,10.4-20.95,13.57-.92,1.02-2.86,3.12-3.54,4.09-.33.47-.76.55-.54,1.37,5.94.9,9.91,3.71,13.08,8.73ZM672.06,620.76c.2-.42.97-.54-.01-1.1-2.4-1.37-13.85-2.95-17.27-3.44-10.06-1.45-21.16-2.93-30.98-.1-20.54,22.8-41.77,45.31-61.31,68.99-7.55,9.14-14.66,18.68-20.73,28.88,4.36.37,8.95-1.01,13.36-1.36,17.07-1.35,38.16.44,54.65,5.31,1.52.44,8.12,3.45,8.83,2.84,6.54-20.41,17.59-39.63,28.27-58.13,7.71-13.36,18.73-28.36,25.19-41.89ZM663.62,260.1c1.35-2.18-5.43-10.75-7.37-12.27-.84-.65-6.7-3.94-7.1-3.53l7.09,20.17c.53.48,6.97-3.7,7.38-4.37ZM661.67,205.84c.45-6.21-7.04-10.15-12.39-9.95-1.22.05-2.12,2.76-2.85,3.83-.35.52-1.33.63-1.55,1.31-.8,2.49-.35,9.44-.65,12.46-.27,2.76-1.22,9.31-4.38,4.89.29-2.83,2.17-19.9,1.11-20.97-6.69,3.29-10.73,10.87-14.08,17.28,3.64,4.76,8.6,8.78,12.44,13.54,2.33,2.89,4,6.28,6.55,8.98,1.46-5.8,4.51-11.65,7.35-16.91,1.38-2.54,8.32-12.79,8.45-14.46ZM646.38,303.67c-1.03-2.82-.28-5.97-.51-8.94-1.81-23.13-13.4-59.41-37.86-67.35-35.21-11.43-54.95,38.45-56.46,65.69-1.33,24.02,11.6,67.52,38.18,74.18,3.72.93,14.94,1.67,17.96-.58,1.37-1.02,9.48-24.36,11.38-28.42,5.99-12.83,14.95-27.31,27.31-34.58ZM612.63,418.76l10.89-23.44c-2.23,1.9-13.83,14.46-14.13,16.16-.07.4,3.75,5.7,3.24,7.28ZM609.91,801.23c2.56-4.04,11.88-19.85,11.22-23.74-.43-2.58-2.88-7.44-3.74-10.47-2.34-8.18-3.63-16.67-3.13-25.22.34-5.67,2.01-11.2,2.66-16.81-.47-1.44-11.07-4.4-13.11-4.91-16.74-4.13-38.08-5.28-55.17-3.02-1.3.17-9.1,1.39-9.49,1.68-1.91,1.4-1.89,12.34-1.77,14.9.4,8.92,1.43,19.89,2.91,28.7.77,4.52,2.84,15.69,4.51,19.49.87,1.99,7.12,9,8.97,11.2,10.64,12.68,22.77,24.2,35.63,34.61,7.52-8.23,14.54-16.97,20.51-26.41ZM608.55,433.5c-.13-2.29,2.92-7.99,2.77-9.56-.05-.51-.91-1.22-1.15-1.9-.84-2.35-1.91-4.66-2.46-7.09-3.01,1.18-9.94,19.28-9.25,20.17l10.09-1.62ZM610.99,456.38c-1.37.19-3.77-.43-4.91.27-1.07.64-7.57,15.59-8.33,17.84-2.03,6.07-3.1,12.79-5.02,18.96-9.95,32-27.31,59.63-62.41,66.8-16.9,3.45-50,.42-65.96-6.56-1.83-.8-6.28-2.15-5.42-4.83.86-2.65,6.73,2.11,8.68,1.84l-7.39-13.62c-4.48,3.3-19.66,8.9-21.28,14.16-1.63,5.26,12.31,11.64,16.15,13.35,30.19,13.4,69.08,9.7,97.93-5.62,1.49-.79,8.89-6.74,8.37-2.02-.22,2.01-8.83,6.64-10.89,7.68-14.33,7.19-30.47,10.16-46.36,11.42,26.4,19.79,76.18,15.85,90.58-16.8,6.76-15.33,4.59-34.62,6.52-51.28,2-17.35,5.95-34.58,9.74-51.59ZM598.18,464.01l3.54-7.08h-5.45c-.43.43.91,6.62,1.91,7.08ZM593.05,477.42c.27-.33,2.55-7.61,2.52-8.14-.16-3.07-3.43-8.22-3.12-11.81-.58.03-1.29-.13-1.82.08-1.94.77-6.15,13.91-7.35,16.64-1.32,3-2.9,5.99-4.79,8.74-1.49,2.15-3.18,4.15-5.11,5.9-2.32,2.11-5.35,3.55-7.64,5.71,2.3.05,9.01.2,10.56-1.58.9-1.02.48-6.62,2.77-9.65.15-.2.31-.39.49-.57,2.64-2.65,12.25-3.82,13.49-5.32ZM583.99,506.52c3.27-7.95,6.07-16.09,7.92-24.51-2.63,1.17-8.38,1.61-10.07,3.83-3.03,3.97-1.37,16.36-1.92,21.52-.9,8.42-7.27,4.6-13.25,6.93-11.49,4.47-9.9,17.5-14.44,25.89-1.2,2.22-2.4,3.28-4.86,2.47-5.46-1.8-12.88-8.49-18.3-10.6-2.2-.86-3.04-.59-4.45,1.24-2.58,3.36-7.22,14.57-10.54,16.21-.57.29-1.18.47-1.83.39-3.77-.49-15.19-14.7-20.49-16.02-.69-.24-1.03.14-1.54.44-3.18,1.88-8.99,11.21-13.02,10.94-3.64-.25-12.29-11.14-14.76-14.17-.64.19-.17,1.17,0,1.64,2.43,6.89,7.43,13.52,10.77,20.03,28.23,6.59,56.99,10.11,82.12-7.29,15.08-10.44,21.8-22.3,28.66-38.94ZM588.11,174.25c.03-1.92-2.25.22-3,.82-3.49,2.8-12.29,15.48-13.15,19.61-.04.19.08.82.27,1.68.5,2.23,1.52,5.98,1.62,7.39.12,1.83.3,8.98-1.92,9.36-.21.04-1.77-.36-1.82-.43-.3-.44,0-9.06,0-10.63,0-.24-.92-4.49-1.1-4.64-1.46-1.19-4.85,4.93-5.54,6.18-1.38,2.51-2.25,5.24-3.66,7.74,1.11,1.1,2.58,1.67,3.76,2.7,1.54,1.35,6.64,7.61,7.36,7.91.92.38.74-.36.93-.69,1.49-2.56,2.88-4.98,4.57-7.42.78-1.12,3.49-3.85,3.75-4.43.36-.81.99-6.88.72-7.79-.89-2.93-6.81-3.33-6.87-5.46-.04-1.74,1.49-1.63,2.88-1.48,2.3.26,3.19,1.66,5.18,2.19.87-7.09,5.93-15.58,6.02-22.61ZM575.34,509.32c1.26-1,1.3-8.96,1.3-10.95-.94-.25-1.09.38-1.63.81-3.99,3.07-6.64,5.74-11.28,8.34-15.55,8.69-32.29,10.29-49.77,7.75.05,1.05,1.61.52,2.23,1.46,2.35,3.56-5.21,4.16-7.48,4.46-9.81,1.33-17.89-.13-26.54-4.94-3.18-1.77-13.91-10.52-15.95-10.81-.72-.1-1.21-.02-1.86.29-.42.19-6.7,5.54-7.09,6-1.28,1.52.69,7.5,1.64,9.25,1.73,3.19,9.96,12.59,12.79,15.55,1.72,1.8,3.56,3.37,5.54,4.86,4.5-1.72,10.1-11.84,14.59-11.4,4.69.46,16.44,12.76,20.71,15.78,1.71-.36,8.1-13.69,10.22-15.97,2.07-2.23,3.97-2.54,6.86-1.58l19.22,11.03c3.05-10.71,6.46-27.63,19.95-29.39,1.85-.24,5.27.47,6.55-.54ZM569.01,236.67c-6,.13,1.23-9.04.31-10.89-.23-.46-5.86-7.01-6.55-7.67-16.17-15.47-34.15,9.98-33.54,25.64,6.88-5.41,15.66-6.75,24.24-5.99,4.43.4,7.9,2.31,11.71,4.35l3.83-5.44ZM541.75,706.89c14.83-23.76,36.17-43.22,53.43-65.13-28.67,9.4-53.1,28.23-74.69,48.78-6.43,6.11-12.77,12.45-17.89,19.71,10.09,22.68,17.77,46.34,36.16,63.98l-3.54-22.08c-1.63-19.78-4.25-27.99,6.53-45.26ZM559.11,252.11c.99-2.13,4.57-6.18,2.48-7.75-5.26-3.94-16.37-3.73-22.44-1.85-24.76,7.69-33.3,57.98-30.58,79.96,1.79,14.39,11.97,37.79,24.51,45.81,3.34,2.14,10.82,5.81,11.95-.22-7.43,3.88-21.41-4.98-20.14-13.32,1.6-10.48,25.44.9,21.78,10.59,2.76-3.68,5.07-8.73,6.8-13.09.98-2.47,4.1-10.69,4.03-12.83-.06-1.8-4.49-11.7-5.39-14.68-7.88-25.93-4.2-48.52,7-72.62ZM535.75,467.54c9.21-10.34,14.65-16.87,6.78-30.2-8.36-14.17-37.97-48.52-54.51-50.7-21.98-2.9-49.29,27.13-60.09,43.95-4.8,7.48-10.57,20.72-6.74,29.43,4.77,10.83,22.29,18.82,31.71,25.26-3.62-7.96-8.34-15.37-11.7-23.46-2.98-7.18-5.28-14.7-6.83-22.34-1.92,1.83-2.99,6.09-3.54,8.72-1.01,4.79-1.64,7.05,1.12,11.42,1.32,2.07,7.37,7.01,6.74,8.96-1.09,3.37-7.66-4.1-8.67-5.4-6.18-7.91-3.49-15.56-.16-24.12,1.06-2.72,4.15-10.43,6.96-3.94,1.89,4.36,2.83,11.81,4.48,16.78,1.83,5.51,4.42,11.26,6.96,16.49,2.1,4.32,7.48,15.48,10.17,18.72,2.09,2.5,9.44,3.04,12.68,3.66,1.37-5.91,2.16-11.81,4.43-17.48,4.25-10.63,19.13-32.42,27.8-39.79,2.03-1.72,4.58-3.65,7.37-3.08,4.32.9,14.42,12.78,16.43,16.87,6.05,12.26-6.98,14.33-13.91,20.09-.93.77-5.36,6.59-4.72.77.83-7.53,21.16-8.19,15.15-19.56-1.64-3.11-10.71-13.99-13.92-14.47-1.99-.29-5.57,3.84-6.96,5.35-3.76,4.07-8.36,9.99-11.69,14.48-7.95,10.71-14.95,23.17-15.84,36.78,22.31-.25,45.25-6.07,60.5-23.19ZM540.12,375.96c.32-1.42-2.93-1.59-3.96-2.02-17.62-7.27-30.34-36.04-31.49-54.11-.25-3.84.81-12.18-.09-15.18-.46-1.55-4.65-4.62-4.8-6.92-1.01-.13-.41,1.1-.3,1.66.6,3.08,3.28,7.98.86,10.62-.9.98-7.98,4.05-9.99,5.27-7.6,4.61-17.19,10.33-22.17,17.62.02.56,6.91,2.24,8.15,2.73,4.46,1.75,17.94,9.38,19.39,13.86,1.96,6.05-6.85,4.63-10.84,7.21-1.76,1.14-3.31,3.24-3.63,5.36,15.57-.75,31.54,9.66,41.71,20.71.67.73,3.51,4.84,3.81,4.92,1.24.31,3.23-5.01,4.34-6.02,1.77-1.6,4.19-1.1,5.73-1.9.23-.11,3.23-3.57,3.28-3.81ZM534.13,354.98c.64,2.15,2.75,2.97,4.9,2.71-.23-.98-4.58-3-4.9-2.71ZM527.54,232.56c-.02-1.22-3.11-5.35-3.87-6.97-2.25-4.76-4.67-11.03-6.3-16.05-.9-2.74-3.48-14.87-4.12-15.78-.4-.57-4.05-3.19-4.91-3.54-3.57-1.49-7.09-1.36-10.38.74-9.8,6.25-15.48,31.34-14.01,42.19.28,2.01,4.68,6.75,6.29,8.43,3.01,3.15,22.51,20.15,25.6,19.65,1.22-2.1,2.04-4.46,3.34-6.53,1.23-1.96,5.03-6.09,5.55-7.54.27-.77,2.81-13.8,2.81-14.6ZM480.16,227.13c.94-16.1,9.3-50.81,32.16-38.99-1.58-13.76-5.38-54.04-25.61-28.06-13.94,17.9-20.01,48.51-7.09,68.4.9.15.51-.73.54-1.35ZM502.47,778.54c-3.87-17.83-9.48-35.2-15.77-52.28-11.36,11.98-25.2,22.24-40.88,27.81,1.34,3.22,3.65,5.06,6.58,6.76,2.6,1.51,10.06,3.59,11.26,4.82,1.04,1.07.74,3.31-.75,3.59-.49.1-8.22-3.14-9.29-3.63-3.48-1.6-6.42-3.38-8.88-6.38-2.23-2.72-1.32-4.93-5.75-4.08-2.71.52-1.43,6.81-3.29,8.14-.69.5-7.54,2.39-8.83,2.63-7.86,1.45-24.36.45-32.31-1.21-8.03-1.66-15.45-5.75-22.61-9.55-.89-.29.76,5.06.94,5.6,9.11,26.47,23.58,48.01,47.24,63.43,3.1,2.03,9.71,4.72,11.88,6.93,1.76,1.79,3.54,7.37,4.99,10,1.56,2.81,3.92,5.24,5.01,8.35,1.33-.01.01-1.56,0-1.91-.2-3.33,0-6.98,0-10.35,0-1.92,2.05-2.97,3.82-2.46-3.62-14.43,4.76-22.07,15.09-29.88,8.18-6.19,18.43-13.24,27.14-18.65,4.62-2.87,9.35-5.66,14.42-7.68ZM475.51,732.24c1.82-1.6,9.12-8.55,8.93-10.47-.45-4.6-8.32-13.94-9.74-18.96-15.66,12.31-28.17,30-35.42,48.52,7.57-.29,14.37-4.13,20.67-7.95,4.99-3.02,11.19-7.3,15.56-11.14ZM477.84,662.6c.78-.34,5.11-4.39,4.5-5.04-2.81,1.54-7.76,1.26-8.72,4.9,1.61.48,2.59.85,4.22.14ZM474.44,687.55l5.72-1.09c-3.07-1.17-6.47-3.01-8.72.54l3,.55ZM474.94,655.34c3.93-5.88-1-16.24-1.32-22.86-1.74.26-2.83,1.96-4.69,2.17-5.01.58-13.07-5.77-16.01-9.54-5.97-7.64-6.41-18.55.52-25.61-2.36-2.08-4.06-2.07-6.71-.72-4.83,2.47-3.54,7.39-5.4,12.04-1.67,4.14-5.45,8.98-8.88,11.83-2.75,2.29-7.87,4.22-9.76,6.06-3.53,3.43-7.65,16.49-7.96,21.47-1.87,29.58,29.41,20.9,46.89,14.46-1.77-3.65-10.94,3.63-10.38-1.35.21-1.9,5.99-3.57,7.85-3.51,2.57.09,6.64,2.43,8.37,1.73,1.82-.74,6.37-4.5,7.48-6.17ZM472.25,626.48c2.18-6.66-.98-10.79-4.9-15.8-3.03,3.55-6.83,4.35-10.64,1.37l-3.8-5.19c-3.61,8.83,2.94,18.8,10.88,22.64,4.38,2.13,6.83,1.99,8.46-3.02ZM467.86,672.25c.45-.69,1.63-7.29,1.39-7.6-1.24,1.46-9.14,4.17-9.57,4.88-.19.32,1.85,7.11,2.22,7.1,1.07-1.47,5.2-3.22,5.96-4.38ZM455.34,682.08c4.22-4.03,2.11-6.52.82-11.43-8.94,2.13-18,4.64-27.24,4.08,2.23,1.68,4.45,3.61,6.27,5.72,1.1,1.28,4.66,7.05,5.18,7.37,3.62,2.17,12.27-3.16,14.97-5.74ZM456.18,686.46c-.45-.42-5,3.09-6,3.54-2.12.96-4.79,1.52-7.09,1.91l5.46,8.18c1.36.93,7.58-12.17,7.63-13.63ZM444.14,705.22c.75-.63,1.83-1.25,1.68-2.4-5.86-.92-12.78-5.38-16.63-9.81-3.35-3.86-1.61-3.54-6.47-6.07-.91-.47-6.03-3.97-6.33-3.75-.08.06-.97,1.8-.97,1.91,0,.38,3.68,4,3.63,6.55-.05,2.52-3.45,3.15-3.19,4.31.21.97,7.48,7.71,8.85,8.61,4,2.67,6.54,2.11,9.55,3.54,1.13.54.9,1.92,1.97,1.81,1.34-.13,6.68-3.67,7.91-4.7ZM439.04,606.35c1.58-7.87-2.65-15.51-6.21-22.21-5.8-10.91-13.74-23.54-20.91-33.61-3.88-5.45-13.5-19.35-19.92-20.41-7.45-1.24-24.65,6.51-31.96,9.75-16.46,7.31-44.31,18.91-50.1,37.13-4.12,12.98-6.65,44.55-4.7,57.87.72,4.88,2.91,9.7,5.57,14.5,4.42,8,10.12,15.94,12.36,24l13.62-10.63c-1.79-1.15-8.76-12.23-9.53-12.26-.35,0-3.08,2.47-6.4,2.07-1.95-.24-6.1-2.33-7.59-4.7-.58-.94-.75-1.92-.2-2.84,1.83-3.03,3.56,1.41,4.45,2.12,3.97,3.21,7.22,2.15,8.65-2.64,4.47-14.92-4.93-35.14-3.57-51.01.78-9.08,6.39-8.93,11.69-2.92,4.17,4.74,13.85,21.05,16.61,27,2.9,6.26-3.23,4.08-3.21,4.84l4.37,14.99c5.14,0,23.57-12.88,23.43-17.19-.03-.85-1.42-1.94-1.92-2.96-4.28-8.81-8.39-34.81-8.97-45.03-.22-3.99,2.39-3.84,3.55-.26,3.92,12.09,2.45,28.59,7.48,41.05.53,1.31,1.47,3.81,2.74,4.37,1.82.82,12.4-5.64,14.87-6.69-.86-18.48-4.84-36.47-6.83-54.8-.09-1.7-.8-12.8,3.04-9.59,1.45,1.22.6,9.78.77,12.31.15,2.24.65,7.77,1.22,9.68.72,2.38,6.44,9.01,8.14,12.59,3.85,8.1,3.6,16.38,8.4,23.76,4.43,6.8,9.85,11.99,18.51,11.51,2.47-.13,4.19-1.21,6.1-1.55.83-.15,1.95.61,2.26.41.66-.45,3.95-7.47,4.19-8.65ZM442.55,697.9c-5.16-6.93-8.44-15.16-15.81-20.17.24,9.31,7.66,16.79,15.81,20.17ZM428.82,713.34c.75-.16,3.05-.97,3.37-1.8-7.31-1.08-12.92-6.27-17.72-11.45-1.1-1.18-2.43-3.88-3.56-4.61-1.92-1.24-6.4-1.39-8.7-2.48-.48,3.96.7,7.45,2.43,10.93.33.66,3.13,5.27,3.38,5.47.78.59,10.52,3.22,12.15,3.53,2.87.53,5.77,1.06,8.65.41ZM430.01,619.4c-9.51,1.86-15.71-1.58-21.82-8.44l-3.25-4.1c-.31,9.33-4.18,18.2-10.36,25.07,11.98-2.89,26.03-3.73,35.43-12.53ZM423.46,683.19c-1.1-2,.03-9.28-.63-10.27-.06-.09-1.18-.42-1.54-.64-1.14,5.32-4.47,7.85,2.17,10.91ZM422.94,480.63c.05-.89-.8-8.28-1.06-8.63-1.52-.12-5.49-3.67-6.04-1.72-.39,1.37,0,6.29,0,8.18,0,.49,5.49,2.76,6.33,2.94.97.22.73.05.77-.77ZM417.22,717.01c.8-.24.95.3.8-1.11-4.54-.91-9.72-2.41-14-4.26-4.42-1.92-7.99-4.93-12.16-7.19-1.33,7.07-6.88,11.14-11.18,16.36l-4.63,2.17c9.62-.14,19.53-1.66,28.99-3.44,3.78-.71,8.57-1.47,12.18-2.53ZM415.58,677.75c1.22-2.47,2.34-5.42,2.43-8.19-1.66,1.97-2.01,4.86-3.57,7.05-1.05,1.48-2.87,2.7-4.04,4.12,2.67,3.09,3.97-.54,5.18-2.98ZM413.84,636.76c.85-.3,3.36-5.66,3.08-5.91-3.95.15-26.54,6.64-28.33,5.75-3.54-1.77,1.96-5.57,3.25-7.13,3.39-4.12,6.23-8.3,7.78-13.48,3.68-12.23,1.03-28.35-6.67-38.57,1.95,7.4,2.1,15.04,2.72,22.62.25,3.03,2.19,11.01.38,13.21-.9,1.1-10.61,5.58-12.73,6.61-1.18.58-3.21.89-3.98,1.47-.74.55-1.82,3.21-2.77,4.32-5,5.93-17.96,15.63-25.88,15.55-2.98-.03-7.04-2.42-9.25-4.37-1.01-.9-2.87-3.92-3.75-3.76-.69,1.86-6.58,3.53-6.83,3.83-.35.41-.63,8.98-1.73,10.49,3.98,3.95,7.09,9.01,10.66,13.43,18.68-12.22,42.98-22.01,65.42-23.97,2.28-.2,6.92.5,8.63-.09ZM415.28,691.09c.12-2.1-10.51-9.98-12.71-11.27-3.3-1.94-27.7-13.1-29.25-11.89,7.62,10.54,20.84,19.03,33.38,22.49,1.25.34,8.48,2.39,8.58.67ZM412.02,476.55c-.51-3.39.71-6.48.84-9.79-10.6-8.86-20.19-17.46-27.1-29.64-16.57-29.24-10.63-66.35-11.9-98.78-.02-.66.41-2.03-.54-1.9-4.29,18-5.2,37.38-4.39,55.91.73,16.81,4.58,33.26,11.38,48.59,6.96,15.71,16.22,27.56,31.71,35.61ZM406.57,678.27c3.98-1.1,5.8-5.19,7.09-8.71-3.9,1.32-5.84,5.05-7.09,8.71ZM407.1,668.76c1.31.86,2.3-2.12,3.83-1.94-3.2-2.8-6.34-6.6-9.54-9.26-.61-.51-.88-1.32-1.9-1.09l7.61,12.29ZM412.3,663.01c-.3-3.99-1.74-7.9-1.39-11.97-4.9-.72-9.65-2.47-14.7-2.2,5.77,4.27,11.19,8.91,16.09,14.17ZM404.7,673.37c.5-2.48-7.64-14.76-10.66-16.35l1.7,14.92,7.29,4.14c.33-.02,1.58-2.23,1.67-2.71ZM401.66,706.08l-3.27-9.26c-1.28.84-4.16,1.51-5.13,2.14-1.42.92.6,1.25,1.03,1.66,2.19,2.09,4.35,4.51,7.37,5.46ZM397.85,690.83c-3.82-2.28-3.64.57-6.7,1.74-2.95,1.14-5.42.02-6.93,3.7,4.67.28,11.79-.32,13.63-5.44ZM391.83,733.6c1-3.11,2.87-5.87,3.83-8.98-15.61,3.57-31.58,1.67-47.42,1.64,4.67,4.27,7.64,10.02,11.72,14.72,8.34,9.62,21.59,15.78,33.52,19.62-.06-1.22-1.03-1.91-1.51-3.11-2.73-6.83-2.36-16.93-.14-23.89ZM391.85,670.65c.66-8.14-3.2-15.62-3.81-23.45-3.04.42-5.93-.87-8.95-.5-7.36.91-22.32,8.04-29.03,11.86-1.34.76-7.94,4.48-7.74,5.71.13.85,8.76,12.3,10.07,13.95.93,1.17,6.21,7.73,6.9,8.08,2.06,1.04,6.69.38,9.12,1.24.6-.55-5-7.38-5.71-8.18-2.31-2.56-14.82-12.8-15.01-14.45-.31-2.7,1.98-2.85,4.08-3.01,7.84-.6,18.24.95,25.78,3.15,4.81,1.4,9.75,3.51,14.3,5.6ZM376.5,718.81c4.29-1.34,12.99-13.11,12.6-18.15-5.37-.79-11.48-.28-7.61-7.66l-5.44-.54c1.37,3.73,2.02,7.62,2.99,11.45.57,2.28,3.5,6.82.67,8.34-9.39,5.03-29.13.42-37.19-6.17-.84-.68-1.86-3.25-3.28-3.13-1,.08-4.62,4.82-4.08,6.4,10.37,1.97,31.42,12.54,41.34,9.46ZM387.24,689.76c1.64.07,3.34-.65,4.06-2.21-4.44-1.89-9.47-5.21-13.08-8.45-2.68-2.39-9.52-11.69-11.45-12.54-1.31-.57-3.41-.17-4.9-.82.06,1.49-.19,3.03.12,4.51.96,4.59,2.85,5.73,5.31,8.86,1.27,1.61,5.23,8.08,6.06,8.67,2.07,1.49,10.89,1.09,13.88,1.98ZM375.5,705.54l-.55-4.36c-1.39-.1-2.75,1.3-3.81-.28,1.16-2.62,3.59.17,2.72-4.08-.5-.52-6.1,2.2-4.63-1.64h3.54c-.29-1.08-.39-3.39-1.43-3.74l-19.82-1.71c.28,3.26-2.16,5.97-1.64,9.27,5.43-1.52,11.58.03,16.72,2.08,3.04,1.21,5.84,3.26,8.9,4.46ZM373.59,710.45c.39,0,1-.64.24-1.34-2.06-1.9-10.11-5.49-12.94-6.13-4.69-1.08-10.07-1.47-14.28,1.19,4.45,2.85,10.81,5.72,16.08,6.28,3.25.34,7.5,0,10.9,0ZM366.51,722.99c.66-.03,2.03.41,1.9-.54-6.29-.75-12.48-2.79-18.53-4.65-2.94-.9-20.17-7.36-21.27-7.13-4.06.84-12.84,10.46-14.64,14.29-2.3,4.89-3.08,12.63-1.6,17.82.46,1.6,7.47,8.13,9.21,9.33,13.38,9.17,31.03,2.51,45.74.86-2.61-2.88-5.76-4.69-8.46-7.62-3.82-4.16-6.88-9.6-10.63-13.9-2.45-2.8-10.66-8.1-1.35-9.01,6.55-.65,13.1.81,19.63.55ZM358.05,669.56v-3.82s-4.35.27-4.35.27l4.35,3.55ZM353.69,685.91l-14.99-20.16c-1.79,1.99-12.94,9.5-13.27,11.24-.09.52,2.51,6.47,3.04,6.75,1.4.73,7.73,1.42,9.69,1.62,5,.5,10.5.48,15.53.55ZM346.3,696.24c.57-2.19,1.23-4.37,1.95-6.5-4.7-.86-9.59-.57-14.38-1.17-6.12-.78-12.28-2.59-18.33-3.74,8.32,6.93,19.1,10.23,28.06,16.32,3.29-.38,2.13-2.7,2.7-4.91ZM346.58,617.5c.16-1.59-10.95-11.85-13.6-12.28,1.57,11.13,4.5,25.95,15.26,31.62-.68-3.82-5.81-14.53-3.76-17.66.46-.69,2.07-1.32,2.1-1.68ZM338.42,604.13l-6.52-10.64c-.61-.69-3.49-3.56-4.11-3.51-1.91.15-1.48,11.33-1.35,13.33.69,9.95,4.54,19.64,4.36,29.71.54.59,4.8-2.75,5.33-3.53-2.19-4.54-4.02-9.41-5.17-14.34-.52-2.22-3.6-16.05,1.09-14.77l6.37,3.75ZM331.82,707.11l3.63-6.48-22.09-11.99c-1.27,3.32-3.81,5.82-6.54,7.91l25,10.56ZM321.58,710.77c.65-.52,3.49-1.64,2.68-2.5l-21.54-9.13-9.83,10.21,14.74,26.72c.4-10.83,5.78-18.76,13.95-25.3ZM319.9,681.83l3.81.81c-1.02-3.31-1.6-3.45-3.81-.81ZM302.18,694.99c1.76-.11,8.52-6.75,8.46-8.83-.04-1.15-1.65-1.5-2.46-2.44-.48-.55-.53-1.62-.95-2.03-1-.98-7.39-2.25-8.96-3.86l-7.26-5c0,4.74,2.26,16.96,6.14,19.74.49.35,4.71,2.42,5.03,2.42ZM290.47,706.08l8.16-8.45-17.44-10.08,9.28,18.53Z"/>
  <path class="cls-11" d="M754.09,443.84c5.72,26.69,3.42,52.98-1.37,79.6-1.26.31-.9-.25-1.25-.69-7.12-9.06-11.87-21.37-18.8-30.77,1.35-32.88-3.67-63.93-25.76-89.28-12.8-14.7-35.7-23.33-54.63-16.51-2.41.87-4.62,2.08-6.95,3.13-.29-2.3,5.65-7.38,3.3-9.03-3.37-2.38-6.9,8.3-8.19,10.41-7.37,12.09-14.33,19.02-19.5,33.38-.51,1.43-2.51,9.59-2.94,9.87-.78.5-4.64-.19-5.92.07,2.81-12.03,8.58-22.88,13.72-33.97,1.59-3.44,2.63-7.63,4.34-10.93,3.16-6.14,10.27-12.8,14.55-18.71,9.68-13.39,17.47-28.46,20.95-44.74,7.95-4.96,15.53-8.98,24.82-10.88,2.01-.41,11.41-.57,10.99-3.1-.33-1.98-5.18-1.48-6.72-1.35-10.53.86-22.95,6.62-31.58,12.57-4.73,3.27-23.79,21.11-24.82,25.92-.42,2.01.83,2.98,2.65,2.07.54-.27,6.07-8.13,7.34-9.56.86-.98,11.75-12.11,12.27-11.44-3.54,14.96-12,29.53-21.28,41.68-15.71,20.59-39.5,37.02-44.7,64.06-10.98,1.37-24.12,4.59-33.78,10.1-1.67.95-6.09,3.32-5.4,5.4.98,2.97,5.73-1.56,5.95-1.3-1.6,2.38.35,8.56-.05,10-.3,1.06-10.45,5.31-9.7,8.15.96,3.69,7.45-2.46,9.39-3.52,7.63-4.19,16.45-5.04,24.89-6.45-6.13,15.52-10.44,29.8-27.92,35.59-2.01.67-10.26,1.71-10.72,3.48-1.14,4.38,9.3.35,11.02.37,3.4.05,7.96,1.74,11.81.91-17.28,15.43-39.84,15.87-61.71,12.37-2.4-.38-8.69-2.52-10.43-1.95-1.26.42-1.2,2.02-.36,2.94,1.27,1.39,8.79,4,10.9,5.18l-4.06,1.1c-18.49,1.12-21.79-8.63-35.02-15.18-7.39-3.66-9.07,2.67-14.37,6.13-3.67,2.39-7.67,3.7-12.1,2.9l-3.67-1.5c2.05-.74,9.09-2.14,9.23-4.62.01-.18-.41-1.93-.51-1.93-2.5,0-5.5.25-7.91,0-8.18-.82-18.48-7.1-24.25-12.81.35-.75,1.39.08,1.91.27,2.22.77,9.33,4.82,10.9,2.19,1.35-2.25-1.28-8.14-1.75-10.8-.64-3.63-.99-7.34-1.25-11.01,15.91,11.31,30.74,23.62,51.51,22.89,23.78-.83,47.41-7.65,62.95-26.45,3.63-4.39,9.95-12.44,10.25-18.15.53-10.16-13.53-27.47-20.06-35.25-3.3-3.93-7.15-7.35-10.31-11.39,4.52-4.28,10.46-9.42,17.04-9.4,4.34.01,9.95,2.62,13.74,2.56,1.83-.03,4.14-1.2,2.18-2.79-.96-.78-11.31-3.01-13.17-3.19-3.32-.33-7.41-.34-10.29,1.56-.4.09-.37-.55-.26-.8.17-.4,4.04-6.31,4.33-6.57,3.09-2.72,14.28,2.31,18.85,2.48,2.09.08,7.77-.3,5.98-3.28-.86-1.45-5.57-.43-7.57-.61-3.26-.3-6.45-1.71-9.61-2.39,5.02-7.38,10.07-14.61,13.73-22.8,1.6-3.61,2.91-9.34,4.53-12.37.13-.24.63-.68.82-.54,7.96,16.96,25.73,30.15,45.25,26.18-4.01,7.52-12.22,13.08-19.91,6.54-2.15-1.82-3.16-5.12-6.21-4.32-1.33,4.76,6.6,10.08,10.71,10.72,19.68,3.06,25.66-30.34,31.84-43.68,5.32-11.48,15.45-28.21,26.8-34.25,1.49-.79,5.94-1.84,6.31-2.98,1.33-4.05-5.14-1.57-5.38-1.83-.62-23.05-8.99-56.17-28.1-70.85-17.45-13.4-35.3-10.51-50.94,3.79,3.02-12.37,10.61-23.43,21.78-29.72,4.81-2.7,10.1-5.52,15.45-2.89,5,2.46,22.4,21.39,26.82,26.61,11.76,13.9,16.57,31.37,21.82,48.51l1.55,1.08c3.65-2.72.41-6.85-.21-10.31,2.69-.77,5.18-2.66,7.48-4.26,6.26-4.36,12.16-9.1,17.8-14.11l1.94,2.23c-.59.42-3.91,11.35-4.95,13.59-1.38,2.98-10.84,18.07-10.81,19.17.08,2.45,2.56,1.7,3.74.47,1.92-2.01,6.95-11.39,8.52-14.37,1.68-3.17,3.19-6.43,4.35-9.82,1.51.66,4.04,15.38,6.09,17.48,1.83,1.16,10.11.27,12.98.51,10.48.91,26.34,8.07,35.02,14.05,7.11,4.88,11.79,10.9,15.96,18.39-8.34,1.33-16.7,2.32-24.35,6.17-2.47,1.24-14.79,9.91-15.36,11.93-.19.67-.2,1.19.18,1.8.31.49,4.11,3.42,5.17,4.65,5.28,6.1,8.97,14.28,10.92,22.06-10.28-1.95-20.4-1.01-30.63.72-5.37.9-28.64,5.92-31.5,9.37-.71.85-.99,2.6-.04,3.31.97.72,6.26-2.43,7.92-3.05,3.67-1.36,28.14-7.69,30.25-6.82,22.55,23.61,38.62,50.35,45.54,82.61Z"/>
  <path class="cls-11" d="M750.79,527.82c.45.76.34,1.58.31,2.41-.23,4.93-3.19,14.32-4.53,19.5-9.09,35.14-23.99,69.22-35.93,103.36-10.43,3.16-20.81,7.96-30.62,12.73-3.96,1.92-11.54,5.12-14.71,7.63-2.12,1.68-1.34,3.83,1.28,3.5,9.29-5.04,18.83-9.82,28.52-14.03,9.59-4.17,17.51-8,28.44-6.99,9.06.85,12.2,3.74,12.84,12.79,2.48,35.55-26.38,88.28-45.26,117.79-26.49,41.43-57.57,79.79-84.95,120.58-6.37,9.5-12.55,19.32-17.55,29.61-.95.07-.39-1.16-1.07-1.91-.76-.84-1.61-.83-2.49-.35l-.71-1.07c.63,0,1.18-.21,1.61-.73,1.78-2.14-3.93-4.28-5.46-5.52-5.73-4.66-22.13-30.24-26.98-37.89-17.5-27.58-32.04-60.63-41.76-91.81-10.18-32.66-15.38-67.33-34.28-96.6-.44-1.04,1.22-.71,1.53-1.6.53-1.52-.29-2.48-1.86-2.45-1.75.03-8.39,5.85-10.09,7.4-11.33,10.3-25.82,30.33-31.08,44.7-.69,1.88-2.79,11.08-3.25,11.47-.99.85-8.43,2.3-10.1,2.44-5.08.41-15.06.13-20.11-.59-9.34-1.34-9.68-15.87-8.36-22.98.69-3.68,3.83-12.21,6.66-14.6,1.62-1.36,17.58-4.17,21.42-5.3,8.69-2.56,16.05-5.71,23.52-10.82,1.15-.78,1.93-2.16,3.13-2.87,3.05-1.8,6.01-2.09,9.41-4.76,2.09-1.65,8.34-9.69,9.15-9.93,3.8-1.11,7.74,1.59,8.54,1.44.82-.16,1.44-1.81,2.31-1.97,1.62-.3,7.49,1.93,8.31-1.06.2-.73.08-1.46-.28-2.15l1-.48c8.77,18.21,16.32,36.92,24.89,55.18,11.83,25.24,42.61,59.81,63.32,78.97,6.62,6.12,14.02,11.43,20.73,17.42,1.06.94,4.79,6.44,5.74,1.97.54-2.54-9.8-9.05-9.53-10.6,14.4-15.29,25.42-32.45,33.08-52.01,4.41-11.27,8.08-22.92,11.86-34.42.11-2.21-2.02-3.18-3.24-1.12-3.23,9.15-6.09,18.46-9.56,27.51-.32.84-.75,2.72-1.64,2.99-14.09-34.15,4.31-67.53,20.61-96.87,22.72-40.88,49.25-78.4,69.25-121.02,7.72-16.45,15.45-33.43,18.62-51.44,8.21,6.64,12.71,16.49,19.32,24.55Z"/>
  <path class="cls-11" d="M751.62,178.87c-4.84,14.57-6.78,29.81-10.06,44.73-1.53,6.98-3.03,14.42-6.55,20.71-7.96,14.24-27.86,19.63-42.49,24l-4.38-16.4c-.51-.73-2.36-.77-3.05-.29l-1.94-2.23c24.48-21.7,44.28-48.4,68.47-70.52Z"/>
  <path class="cls-12" d="M704.94,406.27c19.64,22.19,25.08,52.2,24.33,81.19-8.94-9.93-19.14-18.57-29.69-26.72.09-19.23-5.43-37.5-17.73-52.33,8.07.7,15.5,1.19,23.09-2.14Z"/>
  <path class="cls-12" d="M727.67,499.15c1.22,1.61.08,3.47-.03,5.21-10.75-4.31-23.38-6.95-34.88-5.45l5.45-24.54c10.61,7.23,19.96,16.18,29.46,24.78Z"/>
  <path class="cls-12" d="M726.01,507.9c1.28,1.43-.41,5.34-.95,7.24-2.94,10.41-8.09,21.67-12.58,31.57-10.96,24.14-23.74,47.47-37.78,69.92-15.02-4.32-30.64-5.77-46.26-5.68,28.21-30.96,45.57-69.75,62.42-107.66,1.45-1.66,9.5-1.27,11.98-1.11,3.77.25,21.05,3.34,23.17,5.72Z"/>
  <path class="cls-12" d="M700.4,401.04c.43.4,2.11,1.81,1.62,2.45-7.6,2.88-15.73,1.3-23.61,1-6.81-8.17-13.2-11.8-23.39-14.23-.54-.13-1.64-.17-1.51-.93,9.45-3.33,18.42-2.06,27.8.81,7.3,2.24,13.48,5.7,19.09,10.9Z"/>
  <path class="cls-12" d="M672.05,619.66c.98.56.21.68.01,1.1-6.46,13.53-17.48,28.53-25.19,41.89-10.68,18.5-21.73,37.72-28.27,58.13-.71.61-7.31-2.4-8.83-2.84-16.49-4.87-37.58-6.66-54.65-5.31-4.41.35-9,1.73-13.36,1.36,6.07-10.2,13.18-19.74,20.73-28.88,19.54-23.68,40.77-46.19,61.31-68.99,9.82-2.83,20.92-1.35,30.98.1,3.42.49,14.87,2.07,17.27,3.44Z"/>
  <path class="cls-8" d="M645.87,294.73c.23,2.97-.52,6.12.51,8.94-12.36,7.27-21.32,21.75-27.31,34.58-1.9,4.06-10.01,27.4-11.38,28.42-3.02,2.25-14.24,1.51-17.96.58-26.58-6.66-39.51-50.16-38.18-74.18,1.51-27.24,21.25-77.12,56.46-65.69,24.46,7.94,36.05,44.22,37.86,67.35ZM601.69,363.39c1.25-8.06-11.49-15.2-18.65-13.74-2.31.47-4.14,2.68-4.14,5.05,0,9.37,21.3,18.32,22.79,8.69Z"/>
  <path class="cls-12" d="M621.13,777.49c.66,3.89-8.66,19.7-11.22,23.74-5.97,9.44-12.99,18.18-20.51,26.41-12.86-10.41-24.99-21.93-35.63-34.61-1.85-2.2-8.1-9.21-8.97-11.2-1.67-3.8-3.74-14.97-4.51-19.49-1.48-8.81-2.51-19.78-2.91-28.7-.12-2.56-.14-13.5,1.77-14.9.39-.29,8.19-1.51,9.49-1.68,17.09-2.26,38.43-1.11,55.17,3.02,2.04.51,12.64,3.47,13.11,4.91-.65,5.61-2.32,11.14-2.66,16.81-.5,8.55.79,17.04,3.13,25.22.86,3.03,3.31,7.89,3.74,10.47Z"/>
  <path class="cls-11" d="M606.08,456.65c1.14-.7,3.54-.08,4.91-.27-3.79,17.01-7.74,34.24-9.74,51.59-1.93,16.66.24,35.95-6.52,51.28-14.4,32.65-64.18,36.59-90.58,16.8,15.89-1.26,32.03-4.23,46.36-11.42,2.06-1.04,10.67-5.67,10.89-7.68.52-4.72-6.88,1.23-8.37,2.02-28.85,15.32-67.74,19.02-97.93,5.62-3.84-1.71-17.78-8.09-16.15-13.35,1.62-5.26,16.8-10.86,21.28-14.16l7.39,13.62c-1.95.27-7.82-4.49-8.68-1.84-.86,2.68,3.59,4.03,5.42,4.83,15.96,6.98,49.06,10.01,65.96,6.56,35.1-7.17,52.46-34.8,62.41-66.8,1.92-6.17,2.99-12.89,5.02-18.96.76-2.25,7.26-17.2,8.33-17.84Z"/>
  <path d="M583.04,349.65c7.16-1.46,19.9,5.68,18.65,13.74-1.49,9.63-22.79.68-22.79-8.69,0-2.37,1.83-4.58,4.14-5.05ZM588.64,353.89c1.35,2.17,3.31,3.67,6,3.26-1.39-1.6-3.94-2.91-6-3.26Z"/>
  <path class="cls-8" d="M576.64,498.37c0,1.99-.04,9.95-1.3,10.95-1.28,1.01-4.7.3-6.55.54-13.49,1.76-16.9,18.68-19.95,29.39l-19.22-11.03c-2.89-.96-4.79-.65-6.86,1.58-2.12,2.28-8.51,15.61-10.22,15.97-4.27-3.02-16.02-15.32-20.71-15.78-4.49-.44-10.09,9.68-14.59,11.4-1.98-1.49-3.82-3.06-5.54-4.86-2.83-2.96-11.06-12.36-12.79-15.55-.95-1.75-2.92-7.73-1.64-9.25.39-.46,6.67-5.81,7.09-6,.65-.31,1.14-.39,1.86-.29,2.04.29,12.77,9.04,15.95,10.81,8.65,4.81,16.73,6.27,26.54,4.94,2.27-.3,9.83-.9,7.48-4.46-.62-.94-2.18-.41-2.23-1.46,17.48,2.54,34.22.94,49.77-7.75,4.64-2.6,7.29-5.27,11.28-8.34.54-.43.69-1.06,1.63-.81Z"/>
  <path class="cls-8" d="M561.59,244.36c2.09,1.57-1.49,5.62-2.48,7.75-11.2,24.1-14.88,46.69-7,72.62.9,2.98,5.33,12.88,5.39,14.68.07,2.14-3.05,10.36-4.03,12.83-1.73,4.36-4.04,9.41-6.8,13.09,3.66-9.69-20.18-21.07-21.78-10.59-1.27,8.34,12.71,17.2,20.14,13.32-1.13,6.03-8.61,2.36-11.95.22-12.54-8.02-22.72-31.42-24.51-45.81-2.72-21.98,5.82-72.27,30.58-79.96,6.07-1.88,17.18-2.09,22.44,1.85Z"/>
  <path d="M525.5,370.42c1.04,1.48,5.56,4.72,2.62,6.11-3.03,1.43-9.65-8.67-8.09-11.12,1.81-2.83,4.72,3.94,5.47,5.01Z"/>
  <path class="cls-11" d="M523.67,225.59c.76,1.62,3.85,5.75,3.87,6.97,0,.8-2.54,13.83-2.81,14.6-.52,1.45-4.32,5.58-5.55,7.54-1.3,2.07-2.12,4.43-3.34,6.53-3.09.5-22.59-16.5-25.6-19.65-1.61-1.68-6.01-6.42-6.29-8.43-1.47-10.85,4.21-35.94,14.01-42.19,3.29-2.1,6.81-2.23,10.38-.74.86.35,4.51,2.97,4.91,3.54.64.91,3.22,13.04,4.12,15.78,1.63,5.02,4.05,11.29,6.3,16.05Z"/>
  <path class="cls-11" d="M486.7,726.26c6.29,17.08,11.9,34.45,15.77,52.28-5.07,2.02-9.8,4.81-14.42,7.68-8.71,5.41-18.96,12.46-27.14,18.65-10.33,7.81-18.71,15.45-15.09,29.88-1.77-.51-3.82.54-3.82,2.46,0,3.37-.2,7.02,0,10.35.02.35,1.34,1.9,0,1.91-1.09-3.11-3.45-5.54-5.01-8.35-1.45-2.63-3.23-8.21-4.99-10-2.17-2.21-8.78-4.9-11.88-6.93-23.66-15.42-38.13-36.96-47.24-63.43-.18-.54-1.83-5.89-.94-5.6,7.16,3.8,14.58,7.89,22.61,9.55,7.95,1.66,24.45,2.66,32.31,1.21,1.29-.24,8.14-2.13,8.83-2.63,1.86-1.33.58-7.62,3.29-8.14,4.43-.85,3.52,1.36,5.75,4.08,2.46,3,5.4,4.78,8.88,6.38,1.07.49,8.8,3.73,9.29,3.63,1.49-.28,1.79-2.52.75-3.59-1.2-1.23-8.66-3.31-11.26-4.82-2.93-1.7-5.24-3.54-6.58-6.76,15.68-5.57,29.52-15.83,40.88-27.81Z"/>
  <path class="cls-11" d="M487.34,686.71l-1,.48c-1.69-3.27-8.64-5.88-11.36-5.89-7.78-.01-13.74,13.27-19.89,17.15,1.83-4.88,4.78-9.41,5.45-14.72,2.77,2.15,6.67-.22,8.28-2.89,1.1-1.8,1.35-5.3,2.07-6.11,1.19-1.35,6.34-2.84,8.21-2.21,2.09.7,5.3,8.16,6.43,10.47.61,1.24,1.21,2.48,1.81,3.72Z"/>
  <path d="M468.55,642.39c4.64-1.31.66,6.64-.37,7.27-1.29.79-3.52.46-3.2-1.52.18-1.11,2.38-5.42,3.57-5.75Z"/>
  <path d="M468.16,638.75c2.85,1.37-1.61,3.93-2.63,5.54-.95,1.51-2.24,8.02-4.94,6.13-.26-.17-.54-1.76-.49-2.26.31-2.83,4.76-11,8.06-9.41Z"/>
  <path d="M452.93,644.72c.25,1.35,1.15,1.69,1.11,3.84-.08,5.42-10.32,18.18-15.41,19.53-5.87,1.55-17.43-3.58-13.94-10.68,2.51-5.11,18.38-11.21,23.87-13.14,1.65-.57.93-2.22-.01-2.8-3.25-2-13.2,5.57-16.14,5.74-1.86.1-3.09-1.74-1.71-3.14.47-.47,7.4-3.73,8.59-4.21,3.27-1.33,8.02-3.46,11.4-1.61,2.89,1.59,1.81,4.16,2.24,6.47ZM448.33,653.23c.24-.9-2.43-2.23-2.02-3.79-.73-.24-1.44,0-2.14.2-2.49.72-10.46,4.81-12.69,6.39-2.71,1.91-5.74,3.92-1.85,6.54,2.51,1.69,6.5,2.91,9.31,1.46,1.65-.85,8.93-9.08,9.39-10.8Z"/>
  <path class="cls-11" d="M432.83,584.14c3.56,6.7,7.79,14.34,6.21,22.21-.24,1.18-3.53,8.2-4.19,8.65-.31.2-1.43-.56-2.26-.41-1.91.34-3.63,1.42-6.1,1.55-8.66.48-14.08-4.71-18.51-11.51-4.8-7.38-4.55-15.66-8.4-23.76-1.7-3.58-7.42-10.21-8.14-12.59-.57-1.91-1.07-7.44-1.22-9.68-.17-2.53.68-11.09-.77-12.31-3.84-3.21-3.13,7.89-3.04,9.59,1.99,18.33,5.97,36.32,6.83,54.8-2.47,1.05-13.05,7.51-14.87,6.69-1.27-.56-2.21-3.06-2.74-4.37-5.03-12.46-3.56-28.96-7.48-41.05-1.16-3.58-3.77-3.73-3.55.26.58,10.22,4.69,36.22,8.97,45.03.5,1.02,1.89,2.11,1.92,2.96.14,4.31-18.29,17.19-23.43,17.19l-4.37-14.99c-.02-.76,6.11,1.42,3.21-4.84-2.76-5.95-12.44-22.26-16.61-27-5.3-6.01-10.91-6.16-11.69,2.92-1.36,15.87,8.04,36.09,3.57,51.01-1.43,4.79-4.68,5.85-8.65,2.64-.89-.71-2.62-5.15-4.45-2.12-.55.92-.38,1.9.2,2.84l-2.46,1.52c-2.66-4.8-4.85-9.62-5.57-14.5-1.95-13.32.58-44.89,4.7-57.87,5.79-18.22,33.64-29.82,50.1-37.13,7.31-3.24,24.51-10.99,31.96-9.75,6.42,1.06,16.04,14.96,19.92,20.41,7.17,10.07,15.11,22.7,20.91,33.61Z"/>
  <path class="cls-5" d="M408.19,610.96c6.11,6.86,12.31,10.3,21.82,8.44-9.4,8.8-23.45,9.64-35.43,12.53,6.18-6.87,10.05-15.74,10.36-25.07l3.25,4.1Z"/>
  <path class="cls-11" d="M418.02,715.9c.15,1.41,0,.87-.8,1.11-3.61,1.06-8.4,1.82-12.18,2.53-9.46,1.78-19.37,3.3-28.99,3.44l4.63-2.17c4.3-5.22,9.85-9.29,11.18-16.36,4.17,2.26,7.74,5.27,12.16,7.19,4.28,1.85,9.46,3.35,14,4.26Z"/>
  <path class="cls-11" d="M395.66,724.62c-.96,3.11-2.83,5.87-3.83,8.98-2.22,6.96-2.59,17.06.14,23.89.48,1.2,1.45,1.89,1.51,3.11-11.93-3.84-25.18-10-33.52-19.62-4.08-4.7-7.05-10.45-11.72-14.72,15.84.03,31.81,1.93,47.42-1.64Z"/>
  <path class="cls-11" d="M389.1,700.66c.39,5.04-8.31,16.81-12.6,18.15-9.92,3.08-30.97-7.49-41.34-9.46-.54-1.58,3.08-6.32,4.08-6.4,1.42-.12,2.44,2.45,3.28,3.13,8.06,6.59,27.8,11.2,37.19,6.17,2.83-1.52-.1-6.06-.67-8.34-.97-3.83-1.62-7.72-2.99-11.45l5.44.54c-3.87,7.38,2.24,6.87,7.61,7.66Z"/>
  <path class="cls-11" d="M374.95,701.18l.55,4.36c-3.06-1.2-5.86-3.25-8.9-4.46-5.14-2.05-11.29-3.6-16.72-2.08-.52-3.3,1.92-6.01,1.64-9.27l19.82,1.71c1.04.35,1.14,2.66,1.43,3.74h-3.54c-1.47,3.84,4.13,1.12,4.63,1.64.87,4.25-1.56,1.46-2.72,4.08,1.06,1.58,2.42.18,3.81.28Z"/>
  <path class="cls-11" d="M368.41,722.45c.13.95-1.24.51-1.9.54-6.53.26-13.08-1.2-19.63-.55-9.31.91-1.1,6.21,1.35,9.01,3.75,4.3,6.81,9.74,10.63,13.9,2.7,2.93,5.85,4.74,8.46,7.62-14.71,1.65-32.36,8.31-45.74-.86-1.74-1.2-8.75-7.73-9.21-9.33-1.48-5.19-.7-12.93,1.6-17.82,1.8-3.83,10.58-13.45,14.64-14.29,1.1-.23,18.33,6.23,21.27,7.13,6.05,1.86,12.24,3.9,18.53,4.65Z"/>
  <path class="cls-11" d="M338.7,665.75l14.99,20.16c-5.03-.07-10.53-.05-15.53-.55-1.96-.2-8.29-.89-9.69-1.62-.53-.28-3.13-6.23-3.04-6.75.33-1.74,11.48-9.25,13.27-11.24Z"/>
  <path class="cls-11" d="M348.25,689.74c-.72,2.13-1.38,4.31-1.95,6.5-.57,2.21.59,4.53-2.7,4.91-8.96-6.09-19.74-9.39-28.06-16.32,6.05,1.15,12.21,2.96,18.33,3.74,4.79.6,9.68.31,14.38,1.17Z"/>
  <path class="cls-5" d="M332.98,605.22c2.65.43,13.76,10.69,13.6,12.28-.03.36-1.64.99-2.1,1.68-2.05,3.13,3.08,13.84,3.76,17.66-10.76-5.67-13.69-20.49-15.26-31.62Z"/>
  <path class="cls-11" d="M331.9,593.49l6.52,10.64-6.37-3.75c-4.69-1.28-1.61,12.55-1.09,14.77,1.15,4.93,2.98,9.8,5.17,14.34-.53.78-4.79,4.12-5.33,3.53.18-10.07-3.67-19.76-4.36-29.71-.13-2-.56-13.18,1.35-13.33.62-.05,3.5,2.82,4.11,3.51Z"/>
  <path class="cls-4" d="M336.79,662.74l-13.62,10.63c-2.24-8.06-7.94-16-12.36-24l2.46-1.52c1.49,2.37,5.64,4.46,7.59,4.7,3.32.4,6.05-2.08,6.4-2.07.77.03,7.74,11.11,9.53,12.26Z"/>
  <path class="cls-11" d="M335.45,700.63l-3.63,6.48-25-10.56c2.73-2.09,5.27-4.59,6.54-7.91l22.09,11.99Z"/>
  <path class="cls-11" d="M324.26,708.27c.81.86-2.03,1.98-2.68,2.5-8.17,6.54-13.55,14.47-13.95,25.3l-14.74-26.72,9.83-10.21,21.54,9.13Z"/>
  <path class="cls-5" d="M310.64,686.16c.06,2.08-6.7,8.72-8.46,8.83-.32,0-4.54-2.07-5.03-2.42-3.88-2.78-6.14-15-6.14-19.74l7.26,5c1.57,1.61,7.96,2.88,8.96,3.86.42.41.47,1.48.95,2.03.81.94,2.42,1.29,2.46,2.44Z"/>
  <polygon class="cls-5" points="298.63 697.63 290.47 706.08 281.19 687.55 298.63 697.63"/>
</svg>