<?xml version="1.0" encoding="UTF-8"?>
<svg id="Outline" xmlns="http://www.w3.org/2000/svg" viewBox="0 0 1080 1080">
  <path d="M319.49,22.32c.49-72.28.32-144.52.52-216.84.79-292.5,1.8-585.7,2.77-878.13.09-26.51-.22-53.03.1-79.54.44-2.43,3.04-2.84,4.51-.94.42,38.77.36,77.67.3,116.48-.13,76.53-.7,153.44-1.14,230.13-.1,16.82-.22,33.7.58,50.48l15.03-22.31c34.8-45.8,85.57-75.24,124.25-117.31,14.28-15.53,26.07-32.88,38.52-49.82,3.56-4.84,26.61-34.3,26.61-37.19v-89.45c0-.83,2.59-2.28,3.54-.27.93,1.96.17,17.36.25,21.02.51,22.97.69,46.07.7,69.12,9.84,21.48,21.02,43.59,33.23,63.84,20.94,34.74,49.87,60.97,80.4,87.05,1.84,1.02,5.94-2.91,7.98-3.86,5.07-2.36,9.8-2.33,15.32-2.04l10.13,2.96c-26.2-19.44-52.45-38.09-74.69-62.17-18.39-19.91-39.66-49.98-48.76-75.57-.94-2.64-4.12-9.84-.81-11.19,3.02-1.24,4.21,7.11,5.01,9.18,15.66,40.39,47.57,78,80.85,105.1,20.02,16.3,41.3,31.43,61.6,47.45,8.84,6.97,21.55,14.12,28.59,22.67,4.34,5.26,5.14,7.64-2.43,9-.7.12-.98-.39-.81.79,5.5,9.01,10.14,18.47,14.43,28.11l4.09,10.9c-.08-13.18.11-26.38.03-39.57-.68-107.96-1.82-216.48-2.77-324.5-.09-10.04-.8-22.46,0-32.23.2-2.41.73-5.34,3.84-3.8,1.87.92.93,7.14,1.06,9.3,1.29,21.5.4,43.31.55,64.91,1.89,280.01,4.12,560.14,6.04,839.95.55,79.74,1.33,159.34,1.64,238.91.02,6.46-.06,12.93-.02,19.39h-4.91l-2.47-250.91c-4.26.97-6.93,2.52-10.57,4.68-16.48,9.82-30.13,25.78-44.77,38.11-1.55,2.35.98,1.52,1.09,3.88.24,5.37-5.46.71-6.16.84-.31.05-4.07,3.45-4.72,4.03-42.11,37.38-79.41,94.09-109.79,141.6-11.8,18.45-22.82,37.6-31.39,57.77h-6c11.93-26.95,27.24-51.74,43.49-76.21,22.06-33.22,44.65-67.55,71.25-97.25,10.39-11.6,21.37-22.66,32.96-33.06.36-1.21-4.78-6.67-5.87-8.21-26.78-38.28-30.33-106.73-26.81-152.08,1.55-19.94,5.01-39.7,9.26-59.19-14.88,14.37-30.75,28.01-49.04,37.92-19.95,10.81-44.68,19.74-66.96,24.09-3,.59-7.48.62-10.07,1.38-.68.2-1.14.69-1.37,1.36-.09,20.51-.24,41.04-.13,61.55.35,65.51.16,131.37,1.14,196.86.09,5.93.57,14,0,19.69-.29,2.89-1.86,4.18-4.12,1.88-.76-93.38-.91-186.88-.87-280.31-11.67.06-23.52-.33-34.95-2.94-30.31-6.92-64.07-37.71-87.91-57.67-7.91-6.62-15.39-13.74-23.45-20.17l5.11,26.52c3.63,29.13,3.4,58.55,0,87.68-4.03,34.51-12.28,67.4-32.91,95.83l-.21,1.21c2.15,2.4,4.43,4.7,6.74,6.94,8.37,8.14,17.34,15.77,25.65,23.97,42.31,41.76,77.11,94.88,107.87,145.7,10.57,17.46,20.61,35.49,28.12,54.5h-5.45c-7.19-17.11-16.18-33.89-25.73-49.8-15.73-26.21-34.15-54.16-51.56-79.32-19.32-27.91-41.5-52.4-65.79-75.98-12.45-12.09-28.23-28.19-42.09-38.07-1.85-1.32-9.14-6.42-10.8-6.66-1.11-.16-.72.1-.82.81-.43,3.03.16,7.17.02,10.4-2.06,49.96-.49,101.12-.54,151.05-.03,29.19.29,58.45-.57,87.57h-4.91ZM533.17-344.77v-57.27c-9.35,3.14-17.82,3.61-27.37.94-17.87-5-28.35-21.93-42.46-32.79-2.41-1.85-12.12-7.33-12.37-9.96-.32-3.41,3.74-2.65,5.55-2.98,18.53-3.4,19.46-11.69,30.58-23.94,9.74-10.72,22.16-19.14,37-12.46,3.34,1.5,5.77,4.19,9.07,5.37l-1.64-494.72c-21.16,25.69-38.43,54.35-60.77,79.1-18.37,20.35-39.84,37.75-60.78,55.36-.2,1.18.24.63.75.86,20.75,9.16,38.57,39.1,49.49,58.5,4.24,7.53,8.66,15.83,12.37,23.62,1.82,3.82,6.8,13.64,7.33,17.23.36,2.41-.58,3.6-3.04,3.05-3.14-.7-7.97-8.6-10.47-11.36-24.13-26.66-61.09-43.45-97.05-45.8-1.94-.13-9.24-.37-10.34.55-9.58,11.58-19.32,23.32-26.89,36.37-2.32,4.01-5.1,8.32-5.55,13-.14,1.44-.24,7.6.26,8.45.44.74,9.85,2.57,11.46,2.72,15.12,1.37,31-1.71,45.63,1.25,31.9,6.45,58.99,20.63,74.65,50.22.32,3.4,7.06,13.69,7.04,15.92-.02,2.67-4.56,2.8-6.87,2.98-26.54,2.08-62.11-10.62-83.61-25.96-15.96-11.39-29.69-28.99-46.45-39.15-.68-.41-1.2-1.06-2.12-.87l-.58,245.21c.08,1.95,3.05,2.59,4.87,3.85,14.49,10.02,28.7,25.67,42.03,37.58,24.49,21.88,49.62,43.9,75.53,64.06,24.94,19.4,45.35,32.71,78.48,31.12,2.08-.1,4.18.06,6.26,0ZM537.53-402.04v55.91c0,.74,1.74.86,2.42.84,10.71-.35,29.95-6.63,40.39-10.36,37.67-13.46,61.25-31.17,88.78-59.53,20.91-21.55,39.63-45.11,59.23-67.82l.55-2.75c-5.98-45.71-9.42-91.72-14.76-137.46-2.9-24.82-6.44-49.56-12-73.91-1.74-.32-2.36,1.25-3.63,2.09-22.96,15.34-63.13,31.53-90.91,25.15-4.6-1.06.62-7.5,1.8-10.14,6.96-15.5,15.19-26.69,28.71-37.27,14.65-11.47,33.81-15.14,51.48-19.67.79-.92-6.84-20.22-7.89-22.88-3.33-8.42-7.16-16.7-10.72-25-26.97,5.53-51.08,20.47-69.41,40.81-2.39,2.65-5.28,8.79-9.27,8.78-2.21,0-2.62-1.44-2.19-3.31.8-3.54,5.19-11.68,7-15.39,9.38-19.23,22.51-41.83,35.84-58.51,4.25-5.32,9.21-10,13.57-15.21-21.66-19.54-44.36-38.28-62.63-61.18-18.49-23.17-29.97-49.04-44.27-74.61-.99-1.77-2.08-4.18-3.71-5.28.07,22.82-.11,45.65-.03,68.48.02,5.92-.03,12.04,0,17.95.52,134.37,1.33,268.68,1.11,403.12-.06.45.58,1.35.82,1.35.29,0,3.61-3.01,4.56-3.61,16.91-10.46,30.91-1.14,42.03,12.08,9.3,11.06,12.15,20.06,28.14,23.11,2.18.41,8.11-.34,5.93,4.41-.67,1.46-12.51,8.81-14.94,10.69-13.34,10.34-22.61,25.27-39.96,29.84-9.04,2.38-17.14,1.66-26.05-.7ZM468.3-752.23c-7.21-14.69-14.84-29.3-23.76-43.04-7.07-10.89-21.69-31.73-33.65-36.69-2.02-.84-5.14-2.14-7.11-.92-13.4,10.86-26.47,22.19-38.43,34.64l.19,1.28c33.64,2.23,67.71,13.55,93.2,36.01,2.65,2.33,4.99,5.4,7.64,7.62.61.51.89,1.32,1.91,1.08ZM664.42-832.26c-1.98.29-10.45,3.42-8.88,5.87l36.83,31.35c2.83,1.29,13.84-.82,17.7-.85,1.67-.01,11.62,1.66,11.72-.23.05-1.01-10.92-14.21-12.51-15.84-8.83-8.99-32.15-22.14-44.84-20.3ZM651.44-823.65c-.52-.36-1.39.16-1.91.5-1.46.95-5.62,5.53-7.07,7.11-11.67,12.74-22.43,30.37-30.89,45.46-3.29,5.86-7.06,12.05-9.17,18.37,17.94-18.57,40.86-30.87,65.72-37.61.61-.86-1.49-5.01-2.03-6.22-3.69-8.38-8.42-16.16-13.1-23.98-.48-.8-1.41-3.5-1.57-3.62ZM662.92-813.86l10.59,22.43c.28.34.6.36,1.01.36,1.22,0,8.39-1.58,9.97-2.03.7-.2,1.38-.06,1.86-.86l-23.42-19.91ZM731.05-794.77c.77-.75-5.93-6.78-7.08-7.09-.26.28,3.17,5.66,3.55,5.98.86.72,2.43.89,3.52,1.1ZM726.01-789.72c-.96-.93-11.18-1.27-13.25-1.26-1.55.01-2.84.53-4.31.59s-10.13-.56-10.1.8c5.92,6.24,12.37,12,18.26,18.27,8.3,8.84,15.91,18.89,24.24,27.57.67.7,5.19,5.53,6.01,4.62-2.05-18.39-12.04-34.76-20.85-50.59ZM739.22-738.04c.24-.94-.39-1.09-.81-1.64-13.08-16.94-30.17-32.77-45.01-48.23-.89-.54-1.74-1.2-2.85-1.23-4.09-.12-10.25,2.42-14.56,2.56l18.67,48.41c.85.89,4.55.02,6.16.11,5.59.28,11.27.64,16.85,1.14,7.2.08,14.39-.49,21.56-1.12ZM735.05-490.75c3.82-3.2,16.12-14.54,16.74-18.99,1.44-10.44-1.15-24.15,0-34.96-.68-59.46-1.3-119.21-1.09-178.91-.26-1.68-5.08-8.4-6.28-8.43-1.72-.03-17.69,12.66-20.17,14.74-4.93,4.13-9.39,8.83-14.2,13.06-1.47,1.3-4.12,1.82-4.11,4.08,6.76,26.08,10.02,52.91,13.12,79.66,4.16,35.91,7.44,72.07,11.44,108.01.86,7.74,1.15,15.53,2.74,23.17,1.29.32,1.23-.95,1.82-1.44ZM688.45-727.6c-8.26-.47-16.54,1.2-24.45,3.47-11.25,3.23-21.65,7.82-29.33,16.98,4.22,16.71,15.56,30.51,34.06,22.11,9.95-4.51,15.99-14.73,18.55-25.07.63-2.54,3.08-16.3,1.17-17.49ZM719.06-726.58l-20.17-.55.82,4.9,4.9,15.27c2.56-1.31,16.09-18.05,14.44-19.62ZM693.44-724.95v10.64c0,1.63-2.63,9.84-3.4,11.87-1.17,3.08-2.91,5.86-4.24,8.85.32.78,1.03.05,1.48-.16,2.09-.94,12.09-7.51,12.6-9.23.51-1.73-.78-5.33-1.26-7.24-.97-3.84-2.54-9.32-3.93-12.97-.26-.69-.32-1.61-1.24-1.75ZM387.08-720.58c-11.46-.32-22.9,1.87-34.34.54,4.27,10.23,12.5,19.22,21,26.16,2.02,1.66,8.86,7.02,10.9,7.64.8.24.93-.06.82-.81-.25-1.69-2.11-4.9-2.58-7.24-1.87-9.14,0-18.11,4.21-26.3ZM392.9-719.97c-10.74,14.42-6.57,38.8,12.58,43.44,11.07,2.68,22.61-5.08,27.6-14.66,1.03-1.98,3.68-7.59,2.56-9.49-.82-1.41-5.92-5.58-7.49-6.71-9.77-7-23.59-10.52-35.25-12.57ZM650.37-678.05c.4-.38-6.5-4.24-7.35-4.92-6.37-5.1-9.96-12.61-12.55-20.17-3.9,4.12-7.89,8.27-10.86,13.13-1.01,1.66-7.4,14.14-7.34,14.97.06.79,2.17,1.28,2.92,1.36,11.32,1.31,24.25-1.69,35.17-4.38ZM459.04-666.05c-3.74-8.27-6.76-16.03-12.55-23.16-.7-.86-5.32-6.12-5.71-6.28-.98-.41-.71.41-.86.75-4.74,10.7-8.82,17.15-20.12,21.89-.88.37-3.83.19-1.48,1.48,1.15.63,3.49,1.2,4.88,1.65,11.42,3.74,23.94,5.29,35.85,3.67ZM752.3-436.95l-.81-62.72c-4.4,5.38-11.75,10.43-15.82,15.8-.57.75-1.3,1.38-1.28,2.44,3.09,15.44,7.1,32.62,17.91,44.48ZM595.86-447.86c-12.61-11.35-24.27-38.93-45.39-32.05-5.82,1.9-9.13,5.5-13.14,9.83l.2,23.86c14.9-1.96,28.24-8.5,43.74-6.41,5.04.68,9.62,3.79,14.59,4.76ZM533.17-447.04v-22.36c0-.5-6.08-6.35-7.12-7.05-10.8-7.29-20.45-4.42-29.68,3.49-11.77,10.08-17.61,27.15-34.61,30.29.03,2.28,26.42-7.29,28.24-7.75,15.27-3.91,27.69-2.54,41.93,4.13.44.19,1.17-.46,1.25-.74ZM753.87-234.66c-.31-32.04-.81-64.16-1.04-96.22-.02-2.78.62-6.11.59-9.28-.22-29.58-1.33-59.25-1.13-88.87-5-5.76-9.32-11.54-12.62-18.46-4.5-9.43-7-19.71-9.44-29.82-14.12,16.26-27.54,33.11-41.97,49.1-4.25,4.7-10.41,9.9-14.19,14.72-3.23,4.12-6.04,19.65-7.19,25.53-9.77,49.9-11.06,115.66,5.83,164.03,3.46,9.92,9.45,23.73,16.38,31.61,1.15,1.31,3.55,4.56,5.19,3.05,9.19-8.39,18.04-17.32,27.5-25.4,9.4-8.04,20.06-16.58,32.09-19.98ZM325.57-233.58c7.82,3.61,15.33,8.8,21.97,14.28,1.23,1.01,6.29,6.32,7.14,6.51.9.2,2.63-3,3.19-3.85,17.96-27.15,25.07-54.36,29.14-86.48,5.17-40.82,4.39-83.77-6.78-123.44-13.05-11.45-25.37-23.76-38.38-35.23-2.24-1.98-13.67-12.27-15.54-12.27-.61,10.8-.15,21.66-.26,32.48-.26,27.9-.52,56.09-.59,83.95-.11,41.34.06,82.7.12,124.03ZM572.31-448.24c-11.76.82-22.96,5.54-34.54,7.43.14,4.3-1.18,31.35.3,33.04.84.96,8.4,2.86,10.07,3.02,26.66,2.5,38.21-21.32,57.52-34.11l-22.33-8.19c-3.81-.85-7.11-1.46-11.02-1.19ZM533.1-441.24c-6.52-1.06-12.4-4.8-18.87-5.93-16.93-2.97-31.73,5.24-47.56,9.4,12.35,9.1,21.45,24.02,35.78,30.2,9.81,4.23,21.12,4.82,30.65-.27v-33.4Z"/>
  <g>
    <path d="M514.78,372.69l-9.31-3.27c-24.43-9.88-37.15-25.68-39.63-52.31-.37-4.02-.73-9.64,4-10.81-5.79-5.15-13.48-10.05-16.67-17.38-3.66-8.42-3.01-21.83-.69-30.64,6.33-24.1,35.53-33.29,32.28-62.24-.36-3.21-5.8-16.59-3.61-18.19,3.16-2.31,7.94,4.25,9.69,6.66,17.2,23.66-3.95,39.67-14.54,58.78-6.58,11.88-11.99,28.8-3.62,41.1,10.52,15.46,23.68.65,35.31-3.96,9.44-3.75,23.27-6.24,32.22-.24,4.85,3.26,2.99,5.93,9.93,1.53,9.82-6.23-1.99-5.22-6.32-8.55-5.83-4.48,4.83-7.24,7.73-8.42-2.45-4.05-15.1-5.29-16.2-9-2.73-9.19,19.8-7.96,20.95-14.17.62-3.32-.87-7.41.85-10.73,2.24-4.33,7.13.35,6.69-9.02-.27-5.86-3.47-8.31-5.32-13.08-7.09-18.27-4.09-39.44,8.72-54.31,3.99-4.64,13.36-12.19,17.05-2.79,1.43,3.65.63,13.12,1.5,18.25,1.32,7.84,6.02,30.53,9.9,36.41,7.97,12.1,12.85-3.34,16.87-8.59,3.28-4.28,7.55-7.72,13.19-6.5,7.17-5.32,19.65-21.14,28.91-20.75,7.58.32,6.08,7.77,3.92,12.67-3.39,7.71-9.49,15.49-13.17,23.6-.67,1.48-4.1,9.45-3.69,10.02,2.06.22,6.93,3.99,8.22,4.03,4.26.14,12.89-9.55,18.47-10.14,3.95-.42,4.34,1.35,6.9,1.86,3.72.74,11.2-3.08,15.41-4.04,6.13-1.4,20.22-2.32,19.54,7.23-.69,9.64-20.91,12.84-23.36,18.91-2.14,5.31,1.38,15.19-2.56,20.93,12.04-.13,23.48-4.75,34.29-9.62,11.2-5.06,32.45-17.96,44.35-16.92,10.92.95,9.28,15.86,7.35,23.68-3.88,15.67-15.55,31.82-31.55,36.56-7.71,2.28-4.2-2.52-4.82-7.7-3.15-1.84-7.35,2.41-8.64,5.12-1.21,2.52-1.05,6.4-1.81,7.72-1.73,3.01-15.91.22-19.29-.47-8.01-1.64-15.79-4.51-23.27-7.71-.85.9,10.67,16.03,8.7,22.68-2.33,7.87-14.82-1.64-15.52-.88.81,6.55-1.37,8.01-7.49,6.13,1.11,2.72,1.42,5.5-1.01,7.49-6.44,5.28-24.63-7.94-31.6,1.08-2.08,8.51-4.62,16.89-7.55,25.14s-6.69,16.11-9.55,24.16c2.47.22,4.6,1.22,7.12,1.39,10.12.68,31.19-10.78,41.73-14.83,8.49-3.27,19.18-7.65,27.95-9.5,1.99-.42,5.97-1.56,7.63-.55,7.49,4.53-14.84,10.28-16.81,11.12-20.73,8.85-36.49,22.86-60.67,26.5-10.55,1.59-17.43-1.21-26.35,6.33-2.39,2.02-7.11,9.53-10.49,7.38-2.12-1.34,1.74-14.85,1.95-17.97.48-7.2-.34-12.74-4.4-3.04-4.87,11.62-4.24,28.67-8.19,42.21-7.4,25.34-15.03,37.33-30.96,57.57-1.98,2.51-7.76,12.12-10,12.41-.53.07-1.37-.15-1.81-.45-3.28-2.26-1.38-26.29-6.03-32.97-4.34-6.25-10.97.72-10.8,6.66.32,11.02,6.48,25.99,8.08,37.61,2.06,15.06.88,31.42-5.49,45.36-1.14,2.5-3.7,5.19-5.92,2.13-2.3-3.17-4.51-16.37-6.16-21.07-2.55-7.26-7.26-15.29-15.68-15.98-4.71,57.35,8.46,112.7,40.02,160.54,22.92,34.75,75.55,96.22,118.39,102.25,31.07,4.38,69.94-15.84,93.85-34.67,41.79-32.91,97.72-98.36,100.5-153.51,1.2-23.84-1.48-69.34-24.34-82.64-18.22-10.61-37.51-5.59-48.42,11.92-4.53,7.27-10.21,22.28-15.1,27.8-2.26,2.55-4.45,2.44-7.5,1.68l-4.58,27.09c-3.62,9.64-11.16,6.17-14-2.04-.66-1.9-.82-7.45-2.59-5.54-2.15,2.31-3.73,4.75-7.48,1.99-6.91-5.1-4.91-25.6-3.03-33.08,12.2-48.41,75.3-76.59,117.41-45.9,27.86,20.3,42.01,78.8,40.26,111.66-1.96,36.88-13.87,85.1-33.38,116.44-32.78,52.67-61.59,84.97-122.74,103.35-10.45,3.14-21.34,4.75-31.51,8.67l9.21,7.83c6.48,6.12,20.27,17.86,10.91,27.28-6.38,6.42-27.54,9.59-36.49,13.9-1.73.83-3.26,1.94-1.19,3.48,6.79,5.07,24.25-.8,32.55-1.4,11.96-.86,32.11-.51,41.89,7.12,5.55,4.34,20.27,23.38,14.76,30.13-4.24,5.2-14.7.79-20.23.88,2.3,7.57,6.14,19.2-3.89,23.01-10.58,4.02-28.82-4.82-38.99-9.07-18.2-7.62-43.38-19.47-58.23-32.34-16.27-14.11,7.77-22.54,15.19-31.77,17.78-22.13-15.78-26.43-29.69-31.37-8.45-3-17.13-7.39-24.88-11.89-2.43-1.42-14.16-9.76-15.23-9.94-2.48-.42-18.34,11.75-21.01,14.14-4.43,3.98-11.83,11.05-11.25,17.39.66,7.15,15.39,17.68,21.2,21.73,5.94,4.14,24.13,11.11,15.19,20.77-4.6,4.97-29.77,11.5-37.97,15.15-17.06,7.59-46.14,30.38-64.03,28.43-13.55-1.48-15.67-11.71-9.26-22.39-16.2.11-24.35-5.82-15.27-21.75,5.81-10.18,16.79-17.13,28.18-19.49,14.13-2.93,26.98,2.96,40.88,3.76l-16.12-6c-3.57-2.24-7.63-5.01-9.43-8.96-1.24-2.73-1.14-6.27-2.21-8.68-.77-1.73-2.81-2.55-3.61-4.56-3.86-9.7,10.35-20.33,17.26-25.06,12.63-8.64,27.29-14.5,41.17-20.81l.85-1.16c-23.11-20.15-43.1-43.5-61.15-68.24-25.81-35.38-47.7-74.12-59.37-116.67-.96.42-1.1,3.44-1.26,4.52-.82,5.5-.51,23.89-7.4,25.32-5.48,1.14-5.06-5.6-4.96-9.41-6.28,6.11-12,7.46-12.26-3.41-10.73,2.55-21.54,4.99-32.45,6.7-14.91,2.34-30.59,2.93-45.31,5.76-2.38.46-5.53.93-7.71,1.82-10.27,4.18-12.36,20.25-17.33,28.99.02,1.16,4.56,5.32,5.76,6.47,3.68,3.51,13.5,10.68,14.89,15.07,3.3,10.43-11.63,18.16-20.46,12.97-4.52-2.66-9.65-13.17-11.8-14.13-1.6-.71-4.51,1.04-6.92.89-7.59-.45-17.8-7.18-23.91-11.55-5.31-3.8-14.5-13.27-20.04-14.69-7.01-1.79-18.03-.29-19.24-10.72-.88-7.59,5.66-25.75,9.93-32.29,2.58-3.95,6.6-6.62,8.98-10.47-1.46-6.38-4.02-12.46-5.79-18.73-.55-1.96-1.84-10.64-2.25-11.03-.66-.64-6.03,2.23-9.54-1.69-3.58-4-.85-10.84-2.35-13.32-.47-.78-4.61-2.03-6.01-2.84-30.42-17.68-9.88-64.67,22.46-51.07,16.19,6.81,22.19,27.05,13.16,41.96,4.12,2.96,10.12,8.15,7.65,13.84-1.75,4.03-6.4,2.73-9.7,2.54-.87-.05-1.04-.74-.67.68,2.44,9.59,8.25,18.91,12.33,27.85,1.24,2.32,4.1-.57,6.05-1.26,5.54-1.97,10.37-2.77,16-.37,7.92,3.38,14.15,16.48,21.82,17.68,23.37,3.65,68.38-25.46,90.84-33.7,5.88-12.07,14.95-25.75,19.67-38.21,3.59-9.46-2.42-25.23-4.46-35.52-6.01-30.4-8.99-53.76,10.01-80.14,5.89-8.18,7.82-5.63,7.51-17.75-.58-22.87-5.6-39.26-15.11-59.8-6.2-13.4-15.22-30.79-23.86-42.19-2.11-2.79-12.65-14.51-12.83-16.52-.27-2.99,3.17-3.79,5.46-2.34-1.34-6.5,3.35-4.16,5.31-5.58s2.31-19.49,2.21-22.71c-.27-8.84-.98-20.52-2.08-29.25-.13-1.02-.29-4.07-1.35-4.43-1.35,4.86-5.51,8.14-9.55,10.69-.04,6.35,1.02,12.58.72,18.96-.65,13.79-3.51,28.25-4.11,42.2-.42,9.83-.9,34.69,1.53,43.4.89,3.19,3.61,7.21,4.9,10.76,3.71,10.23,7.13,25.66,8.45,36.5,7.71,62.99,5.44,150.54-34.36,203.15-7.67,10.13-10,13.89-22.54,7.68-37.63-18.63-54.6-50.11-58.64-91.04-2.35-23.83-4.61-49.44-2.85-73.55.81-11.15,2.94-22.26,4.07-33.38,2.04-20.03,2.49-38.81,7.55-58.51,1.02-3.95,4.92-12.97,5.19-15.8.31-3.26-.71-8.92-.51-12.88,1.12-22.14,4.13-43.99,7.73-65.82,2.76-16.7,6.27-33.28,9.33-49.92-6.22-1.05-10.99,2.7-16.38,4.73-6.67,2.52-10.9,3.27-16.94,7.57-2.69,1.92-11.17,11.56-12.25,3.99-1.36-9.51,7.66-29.69,14.54-36.43,10.69-10.48,27.85-6.89,41.01-12.1,16.17-6.41,39.35-31.42,55.03-31.44,16.75-.02,29.33,23.21,33.9,36.91,9.7,29.09,9.32,62.59,17.02,92.62,8.8,34.31,18.43,68.76,35.78,99.74,1.67,2.98,13.29,22.96,14.83,23.33,12.94-7.72,26.66-13.98,41.12-18.35ZM385.4,149.99c-2.64-3.99-9.16-7.04-13.93-6.83-11.99.54-32.49,20.02-43.75,26.45l-15.87,7.62c4.46.14,8.8.99,13.31.72,8.59-.51,3.08-2.54,6.12-6.14.81-.96,3.65-2.07,5.02-3.15,8.37-6.6,23.39-16.07,33.81-18.63,5.68-1.39,9.66,0,15.28-.05ZM579.39,152.13c-2.96-1.85-8.82,5.35-10.41,7.46-3.86,5.12-6.75,11.52-8.56,17.65,5.06-6.32,12.04-10.9,20.42-10.9-1.24-2.42,0-13.31-1.45-14.21ZM436.48,418.33l33.35-24.86c-13.89-19.67-26.51-42.27-34.23-65.19-8.57-25.44-17.88-58.37-22.18-84.74-3.92-23.99-5.05-52.66-14.96-74.94-1.32-2.97-6.43-13.28-9.33-13.83-7.8.06-13.29-1.91-20.93.83-11.78,4.23-20.75,10.58-30.51,17.85-.73.54-2.38.92-2.55,1.18-.52.79.04,3.64-1.18,5.29-3.83,5.16-24.6,1.44-30.43-.13-1.39-.37-2.4-1.75-3.6-1.86-1.57-.15-7.93,1.2-9.86,1.69-.96.24-6.59,2.11-6.8,2.4-.66.89.67,1.49,1.14,1.91,2.46,2.25,5.28,4.31,7.31,6.99,1.1,1.45,4.02,7.54,4.45,7.79s9.02-1.3,9.96-1.67c1.65-.64,8.2-10.15,8.22-3.25.02,7.81,3.24,13.91,3.5,21.25.23,6.5-2.24,15.97-.24,22.17,1.77,5.49,7.98,2.74,9.58-1.39,2.73-7.05-.94-16.49.49-24.06.43-2.25,2.83-3.19,4.42-1.65,3.63,3.51,3.48,25.83,5.53,32.27.46,1.46,1.04,4.22,3.03,4.19l20.89-8.07c-.29-4.22-3.98-6.58-5.24-10.72-3.08-10.16,3.43-19.27,12.76-22.95,2.13-.84,10.22-3.88,9.39.57-.48,2.57-8.16,2.98-10.08,4.86,7.13,6.49,12.64,14.02,12.26,24.18,12.73-8.26,3.3-18.87-.03-28.92-3.87-11.7-5.26-34.27,1.25-45.11,2.56-4.27,5.92-3.74,6.29,1.47.75,10.55-2.72,16.03,1.9,27.4,5.99,14.73,11.95,19.36,13.05,37.34,1.16,18.97,1.26,36.92.01,55.85-.48,7.26,2.62,18.05-6.17,21.15,11.63,24.63,26.86,47.69,35.07,73.87,4.31,13.73,5.08,26.46,4.46,40.84ZM581.45,171.18c-20.28.38-25.68,22.3-16.95,38.07,6.64-2.25,10.96-10.55,18.72-4.77,2.86,2.13,3.56,6.69,7.14,7.49l-8.92-40.79ZM655.74,175.2c-3.21-3.16-19.84,12.97-22.47,15.66,2.15.23,4.82,1.45,6.6,2.6,1.25.81,4.81,4.83,5.64,4.22.4-3.71,12.65-20.09,10.22-22.47ZM382,176.56v13.96c0,13.77,10.76,25.08,13.31,37.76,1.49,7.41,1.96,18.51,2.34,26.26.41,8.27,1.6,26.81-2.33,33.75-1.79,3.16-4.11,2.31-4.48,2.68-.2.2,1.03,2.76.59,4.28-.52,1.78-3.16,1.44-2.61,2.85,4.19,5.05,2.84,1.87,5.45.71,1.07-.48,2.92-.01,3.47-.74l2.67-36.69c-3.28-14.19-.43-30.11-3.06-43.99-2.1-11.13-8.8-19.71-12.94-29.96l-2.41-10.87ZM266.25,214.7c7.35-7.75,16.87-9.32,25.8-13.95-.61-3.51-10.3-15.94-13.53-14.35-4.66,2.29-12.22,22.58-12.27,28.3ZM501.16,288.93c-11.1,8.3-24.14,10.65-32.56-2.5-15.98-24.97,8.13-48.7,19.06-68.55,5.05-9.16,7.48-19.46.57-28.38,1.84,8.29,1.98,14.7-.68,22.82-8.22,25.1-32.96,30.55-32.75,61.96.11,16.97,8.34,19.71,19.14,29.28,2.39,2.11,4.42,5.49,6.45,7.17,1.54,1.28,11.18,5.85,12.55,4.69,1.22-9.34,4.21-18.06,8.22-26.5ZM636.67,219.46c-1.97-7.51,10.29-14.74,2.02-21.43-1.45-1.17-8.57-4.55-9.85-3.12s-2.95,10.39-3.07,12.64c-.09,1.75,1.98,4.86-.69,6.17-5.9,2.87-2.32-15.35-2.38-18.09-11.84,4.61-11.33,27.21-28.25,17.03-.43,6.41-5.72,5.11-9.53,2.04-.67.91,2.74,7.11,3.74,8.17,3.33-8.97,18.47-6.07,26.58-6.1,2.59-.01,5.05-.79,8.14-.7,4.41.14,9.5,1.05,13.28,3.39ZM295.51,323.66c1.52-4.32,5.63-7.44,6.75-11.98,4.29-17.27,3.02-40.46,4.84-58.49,1.58-15.73,7.25-31.38,4.75-47.34-.98-.16-.95,1.2-1.15,1.9-2.08,7.46-3.32,16.76-4.76,24.53-4.86,26.19-12.45,63.6-11.11,89.7.04.77-.44,1.87.67,1.69ZM578.1,207.21l-3.6,1.5-7.86,5.51c-.04,2.17,4.08,6.92,5.78,7.22,1.32.24,2.88-3.51,7.31-1.2,1.19.62,1.86,2.15,3.14,2.63-2.03-5.07-4.02-10.2-4.77-15.66ZM662.55,273.95h11.92c1.34,0,3.14,3.9,1.7,5.44,14.01,5.53,28.1,11.89,43.58,11.58-1.2-10.6,18.18-22.73,19.07-6.81,15.2-4.1,28.5-26.29,28.62-41.23.11-13.28-8.85-9.37-17.4-6.45-19.91,6.8-42.04,23.27-63.35,23.87-10.47.29-5.8-5.68-5.13-10.63.81-6-1.52-13.04,1.95-18.48,3.85-6.03,20.84-9.84,22.35-15.82.58-2.28-5.95-3.5-7.57-3.5-7.18-.02-18.4,6.47-23.68,5.36-1.45-.31-2.65-1.66-4.3-1.88-5.24-.68-14.48,10.02-20.64,10.56-2,.18-6.16-4.67-8.92-4.44,4.59,3.61,8.72,7.42,12.06,12.26,10.54-.08,26.56-3.97,26.09,11.87-.36,12.32-7.89,20.56-16.36,28.3ZM364.38,224.33c3.94-2.51,4.53,4.11,4.7,6.35,1.61,20.36-.13,45.12,0,66.06.17,27.15-5.07,56.65-2.74,83.1.42,4.77,1.34,9.35,7.2,9.17,3.12-.09,2.43-8.13,2.36-10.55-.53-18.46-2.94-37.31-3.46-55.79-.86-30.79,6.47-61.2,3.43-91.96-.8-8.14-5.8-12.11-11.25-17.36-.99-.38-2.33,2.61-2.71,3.38-2.25,4.53-2.87,8.9.7,12.95.7-.82,1.21-4.99,1.79-5.35ZM672.59,239.39c-.89-.81-4.88-1.46-6.28-1.56-3.59-.25-14.74.31-18.11,1.01-7.51,1.55-20.07,16.24-26.88,15.75-1.63-.12-3.15-1.72-3.05-3.39.36-6.31,21.75-16.38,27.23-19.13-5.23-5.36-11.8-10.4-19.48-11.15-7.17-.7-21.82-.07-29.2.59-7.34.66.34,9.32-2.31,12.66-2.44,3.07-4.5-.89-6.18-2.44,2.22,6.85,6.18,12.89,6.13,20.43,1.46,1.52,6.53-8.53,7.21-9.47.92-1.29,3.89-5.34,5.06-5.83,4.41-1.88,7.08,1.07,6.83,5.41-.26,4.42-11.86,22.62-10.92,23.52,2.87.38,5.32-.5,8.01-1.18,17.65-4.5,32.18-14.07,50.92-13.83,1.3.02,2.99.85,3.93.62,1.58-.39,3.15-5.16,5.49-5.31,4.33,2.77-.18,4.92-.78,7.27-.89,3.5,1.02,3.88-2.56,6.97-2.44,2.11-3.65,1.18-4.56,4.96-.21.9-1.31,1.32.48,1.18,6.37-3.1,14.28-22.28,9.03-27.06ZM584.92,237.85c.9-.97-5.13-12.99-7.26-13.55-2.25-.6-2.58,3.4-5.35,3.3-1.72-.06-3.77-3.52-4.42-2.68-.56.71.25,8.24-4.77,7.5.75,2.05,2.43,2.76,3.51,4.98.7,1.43,1.17,2.94,1.26,4.54l3.95-10c7.23-8.64,5.23,9.42,13.07,5.92ZM345.9,249.43c-9.9,5.31-13.56-3.72-13.62-12.26-1.69,1.02-1.91,2.96-3.37,4.45-3.12,3.19-8.94,4.48-12.64,1.69-1.26-.95-1.56-3.62-2.72-2.07l-5.77,62.67c8.18-7.17,21.5-22.79,33.01-23.2,10.81-.38,17.4,12.77,23.49,19.79v-52.44s-4.19,11.8-4.19,11.8c-8.4,10.35-14.66-1.59-14.19-10.44ZM580.15,268.5c-.66-2.21-.79-4.18-.71-6.49.19-5.54,3.35-14.14.32-18.66-1.38-2.06-3.85-3.61-4.72-6.17-3.94,7.12-4.65,17.41-1.83,24.98,1.12,3,3.3,6.5,6.93,6.34ZM557.68,273.95v-11.92c0-4.03,4.89-12.79,5.38-17.78.23-2.37.3-4.7-1.64-6.39.76,12.84-11,11.59-19.41,15.35-.74.33-1.75.01-1.36,1.33.31,1.05,18.88,3.84,15.21,12.44-.63,1.49-3.44,2.16-4.7,2.83-.49.26-2.16.21-.97,1.41.28.28,6.37,2.11,7.49,2.73ZM614.2,268.51c-3.77.74-15.24,4.78-16.34-1.05-1.2-6.39,10.89-18.93,10.89-26.2-4.51,3.52-7.34,13.66-12.24,16.03-.76.37-2.34.11-2.64.4-.18.17-.83,4.36-.77,4.96.19,1.86,1.8,2.63,1.24,5.35-.85,4.13-8.08,6.08-11.76,5.97-13.2-.41-16.24-14.33-15.37-25.21l-4.07,10.56c4.28,1.23,5.2,6.63,7.6,10.09,4.98,7.2,10.39,9.73,18.88,5.5,1.99-.99,4.88-4.53,7.46-2.9.75.48,2.12,7.93,2.14,9.43,1.32-.34.36-2.61,1.03-4.07.4-.89,2.05-1.86,2.71-2.73l11.23-6.13ZM355.33,258.84c1.61-.91,4.27-13.12,5.56-15.53-1.88.9-9.55,3.66-10.1,5.21-.83,2.37.72,12.48,4.54,10.32ZM657.1,255.56c-3.75-.29-7.49.41-11.04,1.57-.71.23-2.06.17-1.89,1.15,2.98.14,8.87-1.89,11.3-.06.8.61.53,2.21,1.63,2.1v-4.77ZM651.65,262.38c-.62-.55-15.5,1.69-16.35,2.37-.74.58-1.92,10.04-5.77,13.3-5.19,4.4-12.53,1.94-15.03-4.09-1.89,1.95-10.53,3.4-9.75,6.34.99,3.75,17.13,7.34,20.69,7.33,11.59-.05,23.76-14.57,26.21-25.25ZM601.27,284.17c3.08,7.07,13.22,11.95,20.75,11.57,17.69-.9,32.72-13.34,34.39-31.31l-3.95,7.95c-4.98,9.29-15.76,19.73-26.91,19.7-7.73-.02-18.07-3.34-24.28-7.91ZM589.01,293.36c-.46-3.43,0-8.57,0-12.26,0-.17,1.72-1.34-.34-1.03-3.65.56-5.63,2.05-10.17,1.33-1.25-.2-4.73-2.46-5.15-2-.25.27.58,2.74-1.12,3.32-3.44,1.17-9.92-1.35-14.18-.56-1.92.36-3.64,2.51-5.35,3.5-1.07.62-5.67,2.41-5.84,2.68-.54.86.6,5.24,1.67,6,1.56,1.1,9.62,2.7,12.79,4.23,3.72,1.79,9.99,5.71,9.9,10.47-.04,2.08-1.81,4.08-3.73,2.43-1.14-.98-.97-3.35-1.99-4.82-2.48-3.57-13.05-6.66-17.36-7.5v10.56c0,1.56-.66,6.66-.99,8.55-1.37,8.09-10.57,14.95-17.89,17.52-11.44,4.01-23.26.29-32.18-7.34-.6,2,2.23,13.61,3.74,13.61,5.45-8.77,9.11-1.66,11.25,4.78,2.09.29,1.47-2.29,3.41-3.72,4.93-3.63,7.27,3.64,11.54,4.76,2.76.73,7.12-.77,8.47.25.66.5.65,2.86.31,3.39-.27.42-5.38,1.48-6.38,1.5-6.06.14-9.18-5.59-11.56-5.51-4.73,15.06-11.26-3.42-12.27-3.38-6.11,9.05-10.91-2.02-12.29-8.15-1.11-4.91-1.91-10.8-.98-15.7-8.21-.44-14.11-6.98-21.79-8.86-.8,2.1-.11,4.1.21,6.26,3.43,22.55,8.74,33.4,29.29,44.25,25.26,13.35,49.52,6.55,71.94-8.63-5.47-4.9-12.48-8.72-19.71-10.24-2.5-.52-15.15-.58-12.22-5.02,1.31-1.99,13.03.45,15.45,1.11,11.13,3.01,22.37,11.94,30.13,20.27,1.71,1.83,4.12,7.84,6.46,3.77,1.32-2.29-.61-1.96-1.72-3.03-10.67-10.29-15.5-23.32-30.94-29.02-2.02-.75-8.72-.77-5.15-4.4,2.55-2.6,10.79,1.86,13.58,3.47,4.78,2.77,9.28,6.78,12.97,10.86,1.34,1.48,5.29,7.63,6.15,8.16,1.47.91,6.56-.59,8.18-1.36,4.79-2.27,8.24-12,11.28-16.64,3.18-4.84,7.16-9.25,11.92-12.6s13.19-8.22,11.52,1.64c9.45-10.57,21.19-2.47,32.68-2.05-1.04-4.38.1-8.15-3.86-10.78-4.2-2.78-11.24-3.91-16.22-3.51-2.82.23-7.96,3.05-8.88-.63-.83-3.33,9.2-4.21,11.59-4.21,3.06,0,9.26,2.27,10.84,2.13.44-.04,1.52-2.95,2.48-3.73,3.91-3.18,10.83,2.43,14.92,3.4.88.21,1.89.22,2.06-.73.54-2.91-10.04-9.49-10.73-12.42-1.24-5.26,3.21-5.65,4.59-9.7-3.58,1.84-8.81-.94-11.81.11-.97.34-4.01,6.99-5.55,8.75-14.25,16.29-46.54,19.69-56.52-3.42-1.22-2.83-.37-6.71-4.43-4.75.22,1.31,2.08.81,2.61,2.51.64,2.05-.66,3.97-.59,5.96.24,7.4,2.76,14.5,10.26,17.04,3.05,1.03,13.1.28,12.16,3.99-.82,3.24-9.19,1.55-11.64.94-7.37-1.85-13.8-8.06-14.84-15.8ZM685.01,307.32c-.68-9.77-9.75-16.66-10.55-26.55-9.21,6.13-3.78,6.1.7,10.86,1.67,1.77,5.06,6.16,5.01,8.56-.03,1.51-2.16,3.65-1.68,4.43.41.67,5.99,3.26,6.51,2.7ZM508.65,329.12c-7.81-3.01-10.95-12.3-4.76-18.73,5.74-5.97,26.11-10.09,31.32-2.73s-7.16,15.81-14.03,16.61c-2.56.3-11.76.78-7.76-3.69.68-.76,7.82-.77,10.48-1.76,2.36-.88,11.27-6.68,6.77-9.34-8.28-4.89-35.68,4.17-21.67,14.87,8.95,6.84,30.21,6.23,33.52-6.66.99-3.85,1.77-14.17,1.57-18.22-.16-3.39-1.98-10.4-3.82-13.2-4.46-6.78-22.28-5.59-28.68-2.24-5.05,2.64-10.46,15.95-11.96,21.41-2.77,10.14-4.5,19.26,6.95,24.05.61.25,2.24.87,2.07-.37ZM379.28,357.72c.1,2.6-.15,5.25-.04,7.86.31,6.91,3.1,18.85-.27,24.88-2.81,5.03-12.04,2.96-14.83-1.61-4.57-7.5-2.09-23.49-1.87-32.12.14-5.89-.34-11.86-.02-17.73.43-7.79,3.2-19.09,2.57-26.41-.45-5.29-14.68-24.59-19.79-26.53-6.26-2.36-12.64,2.52-17.46,6-2.4,1.73-16.41,13.74-16.39,15.61,12.6,6.07,20.05,20.03,25.5,32.37,9.92,22.46,15.99,48.5,14.66,73.18-.19,3.5-1.53,18-2.8,20.35-1.15,2.13-3.12,2.37-3.86-.06-.78-2.57,1.69-15.03,1.9-18.93,1.47-27.12-8.71-76.98-28.6-96.7-2.15-2.14-6.65-5.95-9.74-4.99-1.49.46-13.25,18.96-14.42,21.68-8.72,20.15-9,47.43-11.25,69.11-1.13,10.88-3.23,21.8-4.07,32.7-2.08,26.98.74,54.84,3.41,81.71,1.77,17.82,10.74,42.8,22.79,56.21,1.18,1.32,5.8,6.52,7.15,5.82,3.06-1.58,10.44-11.47,12.55-14.74,16.79-25.94,18.68-53.18,21.61-83.27.77-2.47,5.16-.79,4.63,1.83-2.48,16.46-3.14,33.29-7.11,49.48-4.46,18.21-14.87,37.03-28.24,50.1-.27.98.65,1.09,1.11,1.55,3.52,3.5,22.84,16.14,27.21,16.43,4.39.29,9.24-7.24,11.71-10.66,40.7-56.45,40.32-146.57,29.62-212.58l-5.66-20.55ZM591.05,353.64c1.59,1.77,4.1,6.09,6.5,4.12,10.39-11.34,21.85-22.56,26.86-37.5-.77-.91-11.28,9.38-12.24,10.57-6.65,8.3-8.34,22.12-21.12,22.81ZM611.48,368.61c.76.86,1.83-1.07,2.17-1.57,2.35-3.47,4.93-11.1,6.51-15.29,3.28-8.72,6.42-18.33,8.34-27.41l-4.94,12.41c-1.48,3.99-1.99,8.27-3.38,12.28-.96,2.78-9.4,18.77-8.68,19.57ZM616.92,343.42l-16.32,17.37c1.97,1.33,5.62,5.77,7.38,3.31,3.73-5.22,6.77-14.55,8.94-20.68ZM268.62,665.55c-3.92.39-8.87,0-12.94,0-1.76,0-.4,1.72.33,2.39,6.33,5.88,26.56,21.59,35.02,20.76,3.76-.37,9.78-10.91,11.56-14.37,5.67-11.06,7.8-25.74,18.11-33.65,3.91-3,9.33-3.44,14.09-4.3,25.79-4.65,52.69-5.12,78.23-12.42,3.17-.18,3.05,5.8,3.04,8.22,2.25-1.9,8.08-7.78,10.92-4.28l2,7c2.79-14.74,2.61-30.23,6.81-44.62,5.74-19.69,18.97-39.47,32.04-55.12,1.92-2.3,13.08-14.78,14.76-15.26,2.31-.65,4.41,1.41,2.95,3.5-3.03,2.36-5.98,5.12-8.55,7.97-3.08,3.43-12.15,13.94-13.78,17.54-1.11,2.44-.42,9.04-.16,12.09,3.96,47.17,31.47,98.73,55.03,139.06,24.48,41.89,46.68,71.02,87.47,98.44,8.67,5.83,28.37,18.72,37.62,21.63.44.14,1.15.14,1-.33-1.32-2.1-2.51-4.3-3.8-6.42-2.26-3.72-10.72-13.8-11.58-16.37-.61-1.84.04-3.01,2.07-2.78,2.74.31,11.73,14.14,13.59,17.11,8.71,13.91,13.65,27.43,18.14,43.16.16,8.28-4.95,15.26-10.93,20.47-4.72,4.1-20.37,11.72-12.6,19.39,10.09,9.96,35.57,22.78,48.9,28.73,1.7.76,7.38,3.5,8.61,3.68.63.09.57.06,1.06-.32,1.29-1.01,6.79-11.31,8.62-13.91,2.4-3.41,5.12-6.68,8.03-9.66,0-1.23-9.04-4.99-10.7-5.63-4.45-1.7-13.5-3.19-16.73-5.06-2.71-1.57-1.76-4.85,1.58-4.34,4.34.66,11.86,3.36,16.17,4.97,2.47.92,12.69,6.31,13.43,6.31,3.08,0,9.04-7.53,11.58-9.53,1.66-1.3,4.04-1.54,5.11-3.4-8.43-1.32-16.94-3.08-25.56-2.76-11.14.41-34.8,8.58-42.9.06-5.65-5.93.43-9.29,5.64-11.45,6.85-2.84,29.98-7.67,33.14-13.16,1.39-2.41,1.41-7.47-1.95-7.47-2.11,0-10.69,2.59-12.79,3.62-2.5,1.23-5.27,5.52-7.4,2.91-1.69-2.07,2.43-5.24,4.05-6.26,4.19-2.63,8.55-2.67,12.78-4.26.49-.18,1.43.08.93-1.08-.55-1.28-8.19-7.75-9.89-9.19-5.29-4.47-11.19-8.29-16.34-12.94-9.43-8.51-17.49-19.09-26.39-28.14-.6-3.01,1.8-4.15,4.23-2.13,3.17,2.64,7.19,8.4,10.24,11.55,5.01,5.17,11.99,13.06,17.36,17.36.96.77,1.69,1.91,3.15,1.7,27.25-7.48,54.79-13.94,79.61-27.92,39.57-22.28,83.8-86.87,95.8-130.29,14.15-51.16,18.33-93.99-3.77-143.62-15.67-35.19-48.56-52.37-86.1-38.2-29.05,10.97-57.12,46.75-46.11,78.84,1.8,1.31,4.55-7.76,8.86-5.12,2.37,1.45,3.21,18.65,8.09,15.27,1.18-.82,3.25-19.56,3.93-22.96.82-4.07,7.72-29.89,9.73-31.14,1.58-.98,3.98.14,4.07,2.04s-3.72,10.08-4.4,13.3c-.18.85-1.76,6.25,0,6.12,12.63-19.24,16.83-44.32,44.27-46.29,41.57-2.97,49.04,37.67,51.39,69.8,2.74,37.41-5.59,62.37-24.9,93.58-29.83,48.19-84.63,104.32-140.72,119.42-11.55,3.11-23.43,3.82-35.24,1.87l6.79,4.43c8.51,4.44,17.33,8.55,27,9.77,2.91.37,8.67-1.17,9.46,2.07.89,3.64-6.72,2.86-8.78,2.7-19.5-1.59-34.62-14.27-50.59-23.63-2.94-1.72-7.01-2.94-10.21-4.77-43.39-24.83-92.92-84.96-113.38-130.42-26.07-57.94-33.55-142.99,4.74-197.09,19.68-27.81,49.58-49.59,73.4-73.76.73-1.46-4.5-7.33-6.2-7.5-2.91-.29-29.44,15.37-33.62,18.13-14.8,9.76-33.21,23.53-46.69,35.03-8.58,7.32-15.78,14.98-21.4,24.84,6.73,5.14,12.76,14.6,13.47,23.24.24,2.88-.84,6.55-3.68,3.67-.55-.56-2.91-11.36-4.96-14.79-.81-1.35-6.32-8.64-7.61-7.7-11.15,21.33-19.77,43.91-30.07,65.62-6.11,12.89-13.16,22.22-19.77,34.03-4.42,7.88-13.47,25.4-16.21,33.51-.25.74-.21,1.31.67.67,1.64-1.19,4.28-4.17,5.8-5.78,1.44-1.52,4.56-7.68,7.17-5.85,2.76,1.93-3.57,8.91-5.13,10.62-6.69,7.34-14.52,11.24-23.26,15.56-19.29,9.53-57.93,28.99-78.3,30.66-16.92,1.38-17.15-7.77-27.48-15.92-6.38-5.03-12.93-3.48-19.75-.32l5.11,10.19c6.89-6.68,11.23-2.51,9.71,6.32-1.04,6.07-7.67,13.49-12.99,16.29-6.23,3.27-23.64,7.29-22.26-4.21-1.82-.08-3.39.79-5,1.46-1.69.7-8.39,4.52-9.32,5.66-2.53,3.1-4.57,14.17-1.02,17.42,4.69,4.28,20.39,1.52,26.55,1.31,2.63-.09,11.73-.46,13.54.13,1.3.42,1.57,2.33.83,3.35-.2.28-4.74,1.24-5.5,1.31ZM669.35,362.49c-17.37,3.88-35.18,20.52-53.58,13.74-4.53-1.67-16.43-11.76-19.47-10.93-.67.18-3.62,3.11-3.74,3.73-.32,1.7,1.26,7.02,1.26,9.45,0,3.76-1.49,8.68-1.41,12.6,8.88-10.63,20.26-7.81,32.12-9.75s21.69-7.1,32.12-11.46l12.69-7.39ZM554.28,368.62c-8.66,3.05-17.01,4.83-26.21,5.31-8.01.41-5.56.38-12.62,3.18-8.61,3.4-18.34,5.8-25.85,11.25,8.09,1.88,16.05,5.1,22.68,10.13l42-29.87ZM535.9,482.35c1.3.32,1.31-.48,1.92-1.14,17.8-19.54,29.56-41.88,35.88-67.64,2.51-10.24,2.72-20.32,4.41-30.65-.12-.17-2.93,1.97-3.41,2.37-15.35,13.04-34.91,31.48-48.01,46.65-19.06,22.09-30.25,46.52-34.38,75.6,10.43,1.23,16.02,10.11,19.26,19.23.84,2.37,3.38,14.28,3.91,14.83,1.12,1.17,1.15-.36,1.42-.96,5.26-11.6,5.23-27.68,3.12-40.03-1.89-11.09-7.5-25.69-7.9-36.42-.28-7.4,7.58-16.6,15.11-13.01,8.75,4.17,8.52,22.91,8.67,31.17ZM423.54,441.49h16.68c4.53,0,13.73,4.31,17.59,6.93,2.11,1.43,4.31,4.03,6.24,5.34.77.52.47,1.04,1.35-.02,2.82-3.42,6.5-13.2,9.34-17.9,8.59-14.23,20.22-24.14,33.22-34.18-6.5-6.07-16.18-7.5-24.17-11-18.74,11.46-37.22,24.03-52.77,39.6l-7.49,11.24ZM425.57,535.46c15.36-23.49,24.06-50.46,36.69-75.42.32-2.18-6.54-7.67-8.54-8.91-8.18-5.07-21.83-6.18-31.23-4.92-3.43.46-4.07,5.06-4.88,8.06-5.6,20.63-1.57,39.88,2.74,60.21l5.23,20.98ZM230.83,567.14c.51,2.42,0,8.01,0,10.9,0,.4,1.58,1.62,2.35,1.66,2.41.14,5.25-3.66,7.49-.61,1.34,1.83,3.13,12.97,4.12,16.31,3.46,11.73,7.47,24.77,15.65,34.06,1.17,1.32,5.88,6.14,7.39,6.01,2.48-.23,7.85-6.11,9.18-8.4-6.03-3.81-7.33-9.67-10.63-15.12-6.77-11.2-15.69-24.53-18.22-37.62-1.81-9.38,4.68-5.04,10.59-5.49,1.64-4.83-7.56-7.87-8.06-9.3-1.15-3.27,2.81-8.06,3.67-11.78,2.64-11.42-3.07-24.32-14.21-28.76-28.26-11.25-43.84,30.94-16.11,44.04,2.3,1.09,6.12.84,6.8,4.09ZM485.5,649.88c-13.4-29.7-24.81-60.47-27.58-93.29-4.92,6.25-9.32,13.58-12.5,20.87-1.82,4.16-6.45,15.84-6.77,19.85-.36,4.55,3.45,16.37,4.97,21.25,3.03,9.76,7.12,19.24,11.01,28.66,9.66,3.93,20.67,4.48,30.86,2.67ZM248.53,619.24c-3.91-.97-12.39,14.16-11.56,14.98,6.26-2.85,19.67-9.5,16.34,3.41h8.17s-6.69-7.94-6.69-7.94c-1.93-3.51-5.14-6.59-6.25-10.44ZM488.16,654.02c-10.04,2.23-20.6,1.73-30.57-.73,12.87,31.4,32.7,59.29,53.07,86.19,3.5,2.97,22.73,4.05,26.59,1.31,1.09-.78.45-.7.13-1.46-18.42-27.17-34.75-55.85-49.21-85.32ZM305.75,677.13c-.4,2.68-6.62,9.6-5.82,11.55,3.75,3.62,7.86,13.8,13.12,14.86,5.2,1.05,14.3-3.32,10.99-9.64-.62-1.19-17.26-17.47-18.28-16.77ZM503.89,890.28c.17.2,3.3,1.74,4.35,2.81,2.76,2.83,4.69,7.58,5.66,11.36.51,1.98,1.46,11.49,2.6,11.72,13.83-8.29,27.73-16.11,42.87-21.81,4.51-1.7,24.38-6.82,25.45-10.69.34-1.23.03-1.63-.55-2.61-1.72-2.91-12.34-8.16-15.91-10.65-8.44-5.86-17.21-12.28-21.91-21.64-1.64,1.08-3.32,2.04-4.79,3.37-1.81,1.65-5.35,8.59-7.51,5.5s3.76-8.15,5.82-9.92c1.56-1.34,4.94-2.75,5.78-3.75,1.03-1.23,2.4-6.64,3.88-9.06,4.05-6.6,23.57-22.36,30.71-25.13,6.2-2.41,10.22,6.13,15.8,6.35,2.6.1,18.68-3.93,18.73-5.86-28.42-18.06-54.08-39.34-74.54-66.24-7.38,4.43-16.13,2.57-24.18,2.22,13.96,17.87,29.87,34.17,47.02,49,.71.77.82,1.63.55,2.61-.9,3.24-24.14,12.68-28.65,14.99-11.59,5.94-24.56,12.93-31.85,23.99,4.52,1.17,9.01,1.88,13.4,3.62,2.77,1.1,16.19,7.98,15.19,11.34-.73,1.13-1.81,1.22-3.01,1.04-1.72-.26-10.29-6.61-13.83-8.01-2.67-1.06-7.36-2.63-10.13-2.82-3.87-.26.4,2.6,1.24,4.22,1.54,2.99,1.22,6.57,3.13,9.81,5.59,9.51,26.05,9.6,29.45,15.48,2.34,4.06-1.45,5.96-5.14,5.88-12.44-.26-26.28-6.78-39.15-5.5,3.75,3.55,7.49,7.39,7.49,12.94,9.26-3.31,18.22-4.37,27.95-2.42,1.94.39,15.25,4.3,9.48,6.86-1.86.82-10.73-2.66-14.02-2.99-6.25-.63-14.64-.02-20.41,2.58-.63.29-1.97.21-.95,1.41ZM653.69,841.94c.53-.67-5.01-14.66-6.42-15.7-1.2-.89-3.89-1.09-5.61-1.88-7.03-3.24-13.84-7.04-20.64-10.72-2.67-.72-6.46,2.5-9.36,3.63-3.35,1.31-6.93,1.96-10.39,2.9l4.75,3.07c14.88,9.27,32.64,10.46,47.67,18.71ZM484.64,874.11c-8.95,1.68-23.99,15.81-23.02,25.4.54,5.32,13.5,6.06,17.27,4.95.93-.27,5.7-6.28,7.28-7.7,2.76-2.48,9.96-6.21,10.76-9.67,1.53-6.61-5.71-14.22-12.29-12.98ZM723.15,901.2c-.26,1.05.17,1.09.72,1.65,2.22,2.25,7.04,5.11,9.81,7.22.92.7,2.42,2.79,3.05,3.01.82.3,2.46-.5,3.74-.33,2.97.39,14.25,3.99,15.29.26s-9.73-20.34-13.39-21.84c-8.45-3.47-13.05,7.31-19.23,10.05ZM499.46,892.58c-.79,0-11.41,8.41-12.62,9.6-6.05,5.98-17.25,22.75-2.3,24.83,6.82.95,18.9-2.75,24.59-6.62,2.28-1.55,2.32-1.54,2.19-4.45-.25-5.66-4.35-23.43-11.86-23.36ZM702.04,929.1c8.84,3,37.49,17.79,34.56-2.21-1.37-9.33-3.83-12.27-11.2-17.4-2.84-1.98-6.01-5.5-8.75-2.87-2.14,2.05-15.64,21.11-14.61,22.48Z"/>
    <path d="M311.63,335.44c1.66-.08,4.64,1.56,5.92,2.63,12.31,10.33,16.24,62.96,16.82,79.21,1.09,30.73-.81,101.65-16.09,127.67-11.53,19.63-20.36.26-23.92-12.06-12.68-43.82-10.53-123.13.27-167.56,1.81-7.45,7.5-29.41,17.01-29.89ZM310.99,340.81c-6.3,1.89-11.88,24.89-13.21,31.08-9.11,42.38-10.46,109.08-1.24,151.32,3.37,15.44,10.88,40.63,21.47,11.24,11.61-32.24,12.98-86.83,11.59-121.26-.6-15.02-4.69-59.02-13.65-70.11-1.35-1.67-2.62-2.97-4.96-2.27Z"/>
    <path d="M552.04,289.08c5.07-1.45,25.05,7.25,28.43,11.46.91,1.13,2.78,4.75,2.1,6.09-2.29,4.5-4.97-2.09-6.14-3.41-2.5-2.84-10.09-5.9-13.81-7.3-2.8-1.05-8.83-2.03-10.6-3.02-1.9-1.07-2.26-3.17.02-3.82Z"/>
    <path d="M681.81,280.56c-2.93-2.37.06-6.24-.97-7.88-1.23-1.95-11.13,1.89-7.3-5.78,4.81-9.64,11.72-3.8,18.6-3.82,8.47-.03,20.98-5.2,28.75-8.75,3.56-1.63,15.82-9.01,18.28-9.03,6.59-.04-1.51,10.53-3.11,12.62-8.99,11.8-20.08,20.55-35.12,22.76-3.56.52-16.82,1.74-19.12-.12ZM734.04,252.84c-14.35,6.92-29.36,15.56-45.96,14.29-2.61-.2-8.05-3.36-8.52.68,5.27.03,6.92,4.82,6.13,9.54,7.4-.68,15.39-.8,22.48-3.06,10.78-3.44,19.53-12.46,25.87-21.45Z"/>
    <path d="M748.1,275.75c-6.15,5.51-7.11,0-11.83-.96-6.96-1.43-13.82,2.42-5.3-8.34,3.75-4.74,14.6-16.42,20.52-16.98,6.74-.64,7.12,5.82,6.22,11.04-.72,4.18-6.44,12.4-9.61,15.24ZM753.08,254.23c-2.75-2.42-16.89,12.61-18.35,15.63,2.76-.56,6.76,3.14,8.64,3.31,2.76.24,12.84-14.91,9.72-18.94Z"/>
    <path d="M226.57,520.65c21.35-3.61,35.35,22.13,19.25,36.28-16.82,14.78-43.07-6.62-32.03-26.59,2.2-3.99,8.25-8.92,12.78-9.69ZM230.02,524.73c-20.73,1.13-17.05,33.84,3.78,32.49,20.81-1.35,17.46-33.65-3.78-32.49Z"/>
    <path d="M315.73,415.71c.78-.07,1.63.62,1.94,1.27,1.38,2.88-1.91,4.14-3.36,6.18-7.58,10.64-9.95,18.35-9.28,31.64.14,2.85,2.66,14.72,1.77,16.01-1.2,1.73-3.41.54-4.13-1.39-3.36-9.05-2.9-27.21.51-36.28,1.29-3.43,9.08-17.11,12.55-17.43Z"/>
  </g>
</svg>