<?xml version="1.0" encoding="UTF-8"?>
<svg id="Outline" xmlns="http://www.w3.org/2000/svg" viewBox="0 0 1080 1080">
  <path d="M464.9,603.04c4.76,3.51,11.95,12.78,11.99,18.81.01,2.22-.78,4.26-.48,7.03.89,8.4,5.29,17.31,3.22,25.95,4.24-1.96,11.49-4.09,7.31,3.23-2.65,4.63-8.02,10.26-13.87,8.46l-.53,3.04c4.83-1.57,8.17-1.9,11.44,2.46l16.32,33.74c.97,1.26,2.42-2.17,3.32-3.19,25.25-28.47,59.87-55.44,96.77-66.23,18.89-21.27,38.71-40.88,53.22-65.63,13.63-23.25,32.78-59.55,38.89-85.41.47-1.98,2.64-11.58,2.37-12.72-.54-2.24-16.74-9.38-19.67-10.33-13.95-4.5-42.82-7.48-57.4-6.42-.78.06-2.37.13-2.85.7-.68.81-3.32,12.93-3.77,15.03-4.98,23.14-6.42,42.39-7.78,65.82-2.23,38.57-30.47,56.73-67.37,54.25-16.25-1.09-22.1-7.27-35.31-13.21-6.35-2.85-13.52-1.9-20.26-2.63-10.62-1.16-34.38-8.86-41.7-16.63-12.45-13.21,12.04-19.82,20.12-25.42-2.51-6.35-3.9-13.29-6.21-19.52-2.7,1.33-5.69,1.84-8.68,1.54-2.04-.21-11.77-3.02-12.25-4.68-.8-2.81,2.28-2.91,4.03-3.42.79-.23.95.32.8-1.1-8.28-.39-27.99-13.06-28.34-21.6-.21-5.01,6.99,1.1,8.89,2.07,1.54.79,5.77,2.79,7.24,3.12,1.58.35-.27-4.55-.45-4.74-.26-.26-5.66-1.5-6.96-2.04-49.17-20.33-56.62-87.32-50.08-133.49,1.49-10.53,6.64-22.56,6.48-32.81-.29-19.85-5.33-58.76-27.13-66.64-10.7-3.87-19.93-2.36-25.33,8.23-1.22,2.4-2.08,9.48-5.02,8.51s1.34-9.5,2.3-11.22c11.35-20.25,36.45-10.19,46.32,6.19,21.26,35.28,9.4,102.66,14.89,144.3,3.17,24.07,18.34,46.92,39.01,59.67.93.57,1.61,1.43,2.89,1.19-.67-2.34-3.04-3.86-3.93-6.15-4.04-10.32,2.68-25.21,8.4-33.82,11.13-16.76,31.98-39.12,52.23-43.72,15.48-3.52,26.46,6.65,37.34,15.96,2.17-1.2,8.59-5.5,8.93-7.9.48-3.36-12.03-13.67-15.02-15.86-7.32-5.35-13.63-8.73-22.8-9.91-2.37-.3-5.78.76-7.65-1.07-3.87-3.8,2.16-10.44,5.91-12.12,1.53-.68,7.2-1.58,6.92-2.88-5.26-5.21-11.65-8.81-18.55-11.44-5.35-2.04-11.75-1.34-6.74-9.52,3.13-5.11,16.48-13.24,22.07-16.63,1.51-.91,8.71-4.24,8.98-4.67,1.25-2.01-5.66-18.41-2.96-20.11,3.85-2.41,8.09,10.29,10.83,11.92,1.29-12,4.8-23.59,8.69-34.85-19.87-11.63-43.23-32.57-45.2-57.02-1.15-14.28,3.93-32.09,11.34-44.25,4.91-8.05,15.63-20.95,25.67-12.4,7.66,6.52,9.56,34.11,11.66,44.49,2.23,11.03,6.17,22.22,11.55,32.06l6.53-9.27c3.98-4.46,10.35-8.37,16.42-8.66,1.51-.07,3.54,1.32,4.86-.04.67-.69,3.25-7.39,4.39-9.24s2.91-4.58,4.57-5.79c1.09-.79,2.66-1,3.16-1.47.61-.57,2.52-5.43,3.31-6.77,2.88-4.89,9.91-16.6,16.16-16.56,5.79.03,2.6,9.33,1.77,12.69-1.92,7.77-5.57,15.17-5.84,23.33,8.94-5.45,18.21-12.7,28.29-5.13,2.07,1.55,10.46,11.13,11.76,11.14,2.24-4.99,10.62-17.76,16.41-17.98,1.9-.07,2.62,1.28,4.03,2.16,4.84-7.91,18.86-23.58,27.91-25.8,17.9-4.38.98,23.34-2.19,28.89-6.31,11.08-14.23,21.85-19.27,33.61-.59,1.38-2.47,5.62-2.54,6.75-.08,1.29,6.34,3.45,7.92,4.42,4.98,3.06,8.45,8.54,10.79,13.73,12.6-9.4,24.11-20.21,34.9-31.61,20.13-21.26,38.97-43.88,60.49-63.81,11.53-10.69,37.14-31.02,53.47-29.45,5.84.56,10.37,6.78,11.1,12.34,1.99,15.2-8.14,46.52-15.48,60.21-1.47,2.74-5.14,10.38-8.03,11.09-3.11.77-2.78-3.76-3.56-6.06-2.08-6.13-4.92-15.88-12.87-9.32-11.95,9.86-7.37,33.21-9.05,46.01-.13.95-.2,1.18-.8,1.93-1.3,1.6-7.88,6.13-9.96,7.49-16.14,10.54-35.55,14.28-53.59,20.28l13.99,5.35c10.11,4.81,19.54,10.33,26.25,19.54,1.55,2.12,7.15,10.89,5.6,13.01-1.33,1.82-4.2.58-6.32.8-12.52,1.31-23.18,5.19-32.18,14.17,2.05,3.31,4.93,6.04,7.06,9.32,1.28,1.97,2.5,4.17,3.51,6.3s6.3,15.29,4.37,16.48c-7.11-.34-14.27-1.55-21.47-1.02-.81.06-1.58-.42-1.35.81,4.36,4.73,8.57,9.67,12.51,14.75,3.47,4.48,7.67,11.79,11.19,15.53,3.98,4.23,10.26,7.42,14.99,12.82,19.1,21.83,39,56.6,42.46,85.65,1.46,12.29,1.9,33.48-2.94,44.9-.83,1.97-1.44,3.73-3.86,2.25-2.29-4.09-6.76-18.04-11.09-19.44-10.88-3.5-8.88,20.58-8.12,26.11,7.84,8.12,31.7,18.36,41.07,9.62,2.36-2.2,5.73-10.32,6.26-10.65,1.18-.72,2.55-.34,2.77,1.12.48,3.18-4.88,10.78-7.37,12.81-11.07,9.07-32.26-.04-42.26-7.65,1.18,13.7,2.53,27.46,4.43,41.09,5.03,35.92,17.65,71.08,4.29,106.95-4.84,13-16.31,28.39-25.62,38.71-2.03,2.25-10.32,11.11-12.25,12.28s-2.6-.06-2.95-1.91c3.09-13.59,5.81-27.54,1.95-41.31l-2.56-6.42c-10.26,39.71-31.85,75.09-54.62,108.66-24.53,36.17-52.54,70.97-76.23,107.49-6.59,10.16-13.12,20.84-17.4,32.21-4.33,2.93-4-3.41-3.85-6.3-4.32,4.36-10.27,7.17-16.56,6.48-13.31-1.46-1.45-7.59,2.38-12.22,1.03-1.25,5.07-6.83,4.83-8.08-11.99-17.25-24.2-33.86-34.35-52.33-16.01-29.14-28.39-60.34-36.98-92.5-4.66,2.21-9.19,4.69-13.58,7.4-7.68,4.76-16.35,10.79-23.66,16.14-6.47,4.74-17.69,12.64-17.83,21.46-.04,2.7,2.76,14.67,1.15,15.82-1.55.75-2.62.04-3.85-.85-.91,2.89,2.94,15.22-1.89,14.75-2.2-.22-9.32-12.42-10.75-14.93-1.25-2.18-2.32-6.16-3.72-7.73-1.7-1.91-9.9-5.71-12.94-7.78-25.12-17.12-35.79-35.69-46.75-63.37-1.07-2.7-.68-6.11-3.8-6-11.78.42-21.67,5.5-34.78,3.15-20.46-3.67-32.24-30.71-40.78-47.27l-1.61.25c-8.48,6.87-22.65,20.98-34.15,20.97-2.22,0-3.07-2.27-1.46-3.29s8.18-2.14,11.07-3.51c8.25-3.91,15.88-12.25,23.2-17.73l-12.86-27.52c.37-1.63,1.63-1.86,3.02-1.4,1.84.6,11.95,9.08,12.82,8.22-1.13-3.49-6.22-19.27-.79-20.18,3.06-.51,7.68,4.59,10.59,6.29,4.72,2.76,10.16,3.93,15.1,6.17.68.06,4.83-3.99,5-4.66.26-1-5.71-12.92-6.73-14.89-5.22-10.04-11.48-17.13-12.3-29.13-1.04-15.23.72-52.98,9.38-65.35,10.29-14.69,46.34-30.8,63.55-36.76,13.11-4.54,19.73-6.87,29.85,4.22,11.15,12.22,24.17,33.41,31.98,48.16,2.38,4.49,5.2,9.53,5.91,14.54,3.86-1.62,6.23-3.82,10.76-2.31,1.15.38,2.45,1.83,3.35,2.02,1.35.28,5.33-.43,7.42-.26,21.81,1.83,42.89,15.69,63.94,21.65,22.04,6.23,57.67,2.12,76.15-12.4,1.58-1.24,4.08-5.45,6.05-3.84,2.15,1.74-1.08,4.47-2.49,5.77-13.33,12.36-48.03,18.47-65.69,17.16-10.01-.74-20.54-4.81-29.85-8.31-5.6-2.1-29.91-13.49-33.39-13.49h-13.36ZM813.78,136.36c-3.98-.09-7.8,1.58-11.44,3-9.36,3.65-18.09,9.28-25.89,15.54-5.11,4.1-16.89,13.96-19.24,19.47-1.08,2.54-2.02,5.89-2.87,8.58-5.47,17.37-7.46,35.56-11.98,53.17,4.2-3.33,7.41-7.85,10.25-12.37,15.22-24.19,23.45-53.36,45.06-73.79l16.1-13.6ZM805.05,210.5c1.23-4.03,4.16-7.52,5.94-11.24,3.74-7.84,6.45-17.29,8.63-25.71,2.41-9.31,7.29-25.21,1.9-33.75-1.41-2.23-1.44-2.56-3.74-1.35-16.63,8.81-33.37,32.51-42.25,48.79-7.74,14.19-15.01,34.05-25.25,46.17-3.04,3.6-8.34,7.24-11.01,10.52-1.37,1.68-2.51,4.8-4.25,6.93-7.07,8.63-19.15,13.76-29.43,17.45-2.71.97-10.01,2.46-11.74,3.53-.93.58.31,3.16,1.36,3.01,3.68-.91,10.4,1.13,13.52.43,1.44-.32,4.71-2.48,6.64-3.18,14.97-5.4,30.46-7.89,44.81-15.7,3.1-1.69,11.11-6.68,13.29-9.06.53-.58.88-.77,1.05-1.67.88-4.68-.3-12.71.02-17.97.58-9.48,5.01-32.86,17.71-32.89,7.71-.02,9.41,9.93,11.67,14.95.29.64-.26.99,1.13.76ZM512.32,188.14c-1.58-13.76-5.38-54.04-25.6-28.07-13.94,17.9-20.01,48.51-7.09,68.41.9.15.5-.74.54-1.35.94-16.1,9.29-50.81,32.16-38.99ZM570.11,212.68c-.3-.44,0-9.06,0-10.63,0-.24-.91-4.48-1.1-4.63-1.46-1.19-4.85,4.93-5.54,6.18-1.38,2.52-2.25,5.24-3.66,7.74,1.11,1.1,2.58,1.67,3.76,2.71,1.54,1.35,6.64,7.61,7.36,7.91.92.38.73-.36.93-.69,1.49-2.56,2.89-4.98,4.57-7.42.78-1.12,3.49-3.84,3.75-4.43.36-.81.99-6.88.71-7.79-.88-2.93-6.81-3.34-6.86-5.47-.05-1.74,1.49-1.63,2.88-1.47,2.3.26,3.18,1.66,5.18,2.19.86-7.09,5.92-15.58,6.02-22.62.03-1.92-2.25.22-3,.82-3.49,2.79-12.29,15.47-13.15,19.61-.15.7,1.75,7.11,1.88,9.07.12,1.83.3,8.98-1.92,9.37-.21.04-1.77-.36-1.83-.44ZM676.91,173.47c-4.17-2.4-18.09,10.4-20.95,13.57-.92,1.02-2.87,3.12-3.54,4.09-.33.46-.76.54-.53,1.37,5.94.9,9.9,3.71,13.07,8.73,1.61-3,15.28-25.84,11.95-27.75ZM440.1,503.82c2.41.24,5.41,0,7.9,0,.1,0,.52,1.75.51,1.93-.14,2.47-7.18,3.88-9.23,4.62l3.67,1.5c4.43.8,8.43-.51,12.1-2.9,5.3-3.46,6.98-9.79,14.37-6.13,13.23,6.54,16.52,16.3,35.02,15.18l4.06-1.11c-2.11-1.17-9.64-3.79-10.9-5.18-.84-.92-.9-2.52.36-2.93,1.74-.57,8.03,1.56,10.43,1.95,21.87,3.5,44.42,3.06,61.71-12.38-3.85.84-8.42-.86-11.81-.9-1.72-.02-12.17,4.01-11.03-.37.46-1.77,8.72-2.81,10.73-3.48,17.47-5.79,21.79-20.07,27.92-35.59-8.44,1.41-17.27,2.26-24.89,6.45-1.94,1.06-8.43,7.21-9.39,3.53-.74-2.84,9.4-7.09,9.7-8.15.41-1.44-1.55-7.62.05-10-.22-.26-4.96,4.27-5.95,1.3-.69-2.08,3.73-4.45,5.4-5.4,9.66-5.51,22.8-8.73,33.78-10.1,5.2-27.03,28.99-43.47,44.7-64.06,9.27-12.15,17.74-26.72,21.28-41.69-.52-.66-11.41,10.47-12.27,11.44-1.27,1.43-6.8,9.29-7.34,9.56-1.82.91-3.07-.05-2.64-2.07,1.02-4.8,20.09-22.65,24.82-25.91,8.63-5.95,21.05-11.71,31.58-12.57,1.54-.13,6.38-.62,6.71,1.35.42,2.53-8.98,2.69-10.98,3.1-9.3,1.9-16.88,5.92-24.83,10.88-3.48,16.28-11.27,31.35-20.95,44.74-4.27,5.91-11.38,12.57-14.55,18.71-1.7,3.3-2.74,7.49-4.33,10.93-5.14,11.09-10.91,21.94-13.72,33.98,1.28-.26,5.14.42,5.92-.07.43-.28,2.43-8.44,2.94-9.87,5.17-14.36,12.13-21.29,19.5-33.38,1.29-2.11,4.82-12.79,8.19-10.41,2.34,1.65-3.59,6.73-3.3,9.03,2.32-1.05,4.53-2.26,6.95-3.13,18.93-6.82,41.83,1.81,54.63,16.51,22.08,25.36,27.1,56.4,25.75,89.28,6.93,9.41,11.69,21.71,18.81,30.77.35.44-.02,1,1.24.69,4.79-26.62,7.1-52.91,1.37-79.61-6.92-32.25-22.99-58.99-45.54-82.61-2.11-.87-26.58,5.46-30.25,6.82-1.66.61-6.95,3.77-7.92,3.04s-.67-2.46.04-3.3c2.86-3.45,26.14-8.47,31.51-9.37,10.22-1.73,20.35-2.67,30.62-.72-1.95-7.77-5.64-15.96-10.92-22.06-1.06-1.23-4.86-4.15-5.17-4.65-.38-.61-.37-1.13-.18-1.8.57-2.02,12.89-10.69,15.36-11.93,7.66-3.85,16.01-4.83,24.35-6.17-4.17-7.49-8.85-13.51-15.95-18.39-8.68-5.97-24.54-13.14-35.02-14.04-2.87-.25-11.15.65-12.98-.51-2.06-2.1-4.58-16.82-6.09-17.49-1.16,3.39-2.67,6.65-4.35,9.82-1.58,2.98-6.6,12.37-8.52,14.37-1.18,1.23-3.67,1.98-3.74-.47-.03-1.1,9.43-16.19,10.81-19.17,1.04-2.24,4.36-13.17,4.95-13.59.69-.49,2.54-.45,3.06.29l4.38,16.4c14.63-4.37,34.53-9.76,42.49-24,3.52-6.29,5.02-13.73,6.55-20.71,3.28-14.92,5.21-30.16,10.06-44.73-29.77,27.23-52.89,61.38-86.28,84.63-2.3,1.6-4.79,3.48-7.47,4.26.62,3.46,3.86,7.59.21,10.31l-1.56-1.09c-5.25-17.14-10.06-34.61-21.82-48.51-4.42-5.22-21.81-24.15-26.82-26.61-5.35-2.63-10.64.18-15.45,2.89-11.17,6.29-18.77,17.35-21.79,29.72,15.65-14.31,33.49-17.19,50.94-3.79,19.12,14.68,27.48,47.8,28.1,70.85.25.26,6.71-2.22,5.38,1.83-.37,1.14-4.82,2.19-6.3,2.98-11.35,6.04-21.49,22.77-26.81,34.25-6.18,13.33-12.16,46.74-31.84,43.68-4.11-.64-12.05-5.96-10.72-10.73,3.05-.8,4.07,2.51,6.21,4.33,7.69,6.53,15.9.98,19.91-6.55-19.51,3.98-37.29-9.21-45.25-26.17-.18-.14-.68.3-.81.54-1.63,3.02-2.93,8.76-4.54,12.36-3.65,8.2-8.71,15.42-13.73,22.8,3.17.68,6.35,2.09,9.61,2.39,2,.18,6.71-.84,7.57.61,1.79,2.98-3.89,3.36-5.98,3.28-4.57-.17-15.76-5.2-18.85-2.48-.3.26-4.17,6.17-4.34,6.57-.1.25-.14.89.26.81,2.88-1.9,6.97-1.89,10.29-1.57,1.85.18,12.21,2.42,13.16,3.19,1.96,1.59-.35,2.76-2.18,2.79-3.79.06-9.4-2.55-13.73-2.56-6.59-.02-12.52,5.12-17.04,9.4,3.16,4.03,7,7.46,10.3,11.39,6.54,7.78,20.59,25.09,20.06,35.26-.3,5.7-6.62,13.76-10.25,18.15-15.54,18.8-39.17,25.62-62.95,26.45-20.77.73-35.59-11.58-51.5-22.89.26,3.68.6,7.38,1.25,11.01.47,2.65,3.09,8.55,1.75,10.8-1.57,2.63-8.68-1.42-10.9-2.19-.53-.18-1.56-1.01-1.91-.27,5.77,5.71,16.07,11.99,24.26,12.81ZM513.25,193.76c-.4-.57-4.05-3.18-4.91-3.54-3.57-1.49-7.1-1.35-10.38.74-9.81,6.26-15.49,31.35-14.01,42.19.27,2.01,4.68,6.75,6.29,8.43,3.01,3.15,22.51,20.15,25.6,19.65,1.22-2.1,2.04-4.46,3.34-6.53s5.03-6.09,5.55-7.54c.28-.77,2.82-13.85,2.81-14.6-.02-1.22-3.1-5.35-3.87-6.97-2.25-4.77-4.67-11.03-6.3-16.05-.89-2.74-3.48-14.87-4.12-15.78ZM645.88,237.21c1.46-5.8,4.51-11.65,7.35-16.91,1.37-2.54,8.32-12.79,8.44-14.46.46-6.21-7.04-10.15-12.38-9.95-1.22.05-2.12,2.76-2.86,3.83-.35.51-1.33.63-1.55,1.31-.8,2.49-.34,9.44-.65,12.46-.28,2.77-1.22,9.32-4.38,4.9.28-2.83,2.16-19.9,1.11-20.97-6.7,3.29-10.73,10.87-14.08,17.27,3.64,4.76,8.6,8.78,12.44,13.55,2.33,2.89,4,6.28,6.55,8.98ZM569.02,236.67c-6.01.13,1.22-9.04.3-10.9-.22-.45-5.85-7-6.55-7.67-16.17-15.47-34.15,9.99-33.54,25.65,6.88-5.41,15.67-6.76,24.24-5.99,4.43.4,7.9,2.31,11.71,4.34l3.84-5.43ZM646.39,303.67c-1.03-2.82-.28-5.97-.51-8.94-1.81-23.14-13.4-59.42-37.86-67.36-35.21-11.43-54.95,38.45-56.46,65.69-1.33,24.02,11.6,67.52,38.18,74.17,3.73.93,14.94,1.67,17.97-.58,1.37-1.02,9.48-24.36,11.38-28.42,5.99-12.83,14.95-27.31,27.31-34.58ZM546.67,365.33c2.76-3.68,5.07-8.73,6.8-13.09.98-2.47,4.1-10.69,4.03-12.83-.06-1.81-4.49-11.7-5.39-14.69-7.87-25.93-4.2-48.51,7-72.62.99-2.13,4.57-6.18,2.48-7.75-5.26-3.94-16.37-3.74-22.44-1.85-24.76,7.69-33.3,57.98-30.58,79.96,1.78,14.39,11.96,37.8,24.51,45.82,3.34,2.13,10.81,5.8,11.94-.22-7.43,3.88-21.41-4.98-20.14-13.32,1.6-10.48,25.45.9,21.78,10.59ZM656.24,264.47c.53.48,6.97-3.7,7.38-4.37,1.35-2.19-5.43-10.76-7.37-12.27-.83-.65-6.7-3.93-7.1-3.53l7.09,20.17ZM481.26,362.06c15.57-.75,31.53,9.66,41.71,20.71.67.73,3.51,4.84,3.81,4.91,1.24.31,3.23-5.01,4.34-6.02,1.77-1.6,4.19-1.1,5.73-1.9.22-.12,3.22-3.57,3.28-3.81.32-1.42-2.93-1.59-3.97-2.02-17.61-7.27-30.33-36.03-31.49-54.1-.25-3.84.81-12.18-.09-15.18-.47-1.55-4.65-4.62-4.8-6.92-1.01-.13-.41,1.1-.3,1.66.6,3.08,3.28,7.98.86,10.62-.9.98-7.98,4.05-9.99,5.27-7.6,4.61-17.19,10.33-22.17,17.62.02.57,6.91,2.24,8.15,2.73,4.46,1.75,17.94,9.38,19.39,13.86,1.96,6.05-6.86,4.63-10.84,7.21-1.76,1.14-3.31,3.24-3.63,5.36ZM412.02,476.56c-.51-3.39.71-6.48.84-9.79-10.6-8.86-20.19-17.46-27.1-29.64-16.57-29.24-10.64-66.35-11.9-98.78-.03-.66.41-2.03-.54-1.9-4.29,18-5.2,37.38-4.39,55.91.73,16.81,4.58,33.26,11.38,48.59,6.97,15.71,16.22,27.56,31.71,35.61ZM539.04,357.7c-.23-.99-4.58-3-4.91-2.72.64,2.15,2.75,2.97,4.91,2.72ZM475.26,490.73c22.31-.25,45.25-6.06,60.5-23.18,9.21-10.35,14.65-16.87,6.78-30.2-8.36-14.17-37.97-48.52-54.51-50.7-21.97-2.9-49.29,27.13-60.09,43.95-4.81,7.49-10.58,20.72-6.74,29.43,4.76,10.83,22.28,18.82,31.71,25.26-3.62-7.95-8.34-15.37-11.7-23.46-2.98-7.18-5.29-14.7-6.84-22.34-1.91,1.83-2.98,6.09-3.54,8.72-1.01,4.79-1.64,7.05,1.13,11.42,1.31,2.07,7.37,7.01,6.74,8.96-1.09,3.37-7.65-4.1-8.67-5.4-6.19-7.92-3.49-15.57-.16-24.12,1.06-2.72,4.15-10.43,6.96-3.94,1.89,4.36,2.82,11.81,4.48,16.78,1.83,5.51,4.42,11.26,6.96,16.48,2.1,4.32,7.48,15.49,10.17,18.72,2.09,2.5,9.43,3.04,12.68,3.66,1.37-5.91,2.16-11.81,4.42-17.48,4.26-10.63,19.13-32.43,27.81-39.79,2.02-1.72,4.58-3.65,7.37-3.08,4.32.89,14.42,12.78,16.43,16.86,6.05,12.26-6.98,14.33-13.91,20.09-.93.78-5.36,6.59-4.72.77.83-7.53,21.15-8.19,15.15-19.56-1.64-3.11-10.71-13.98-13.92-14.46-1.99-.3-5.57,3.83-6.96,5.35-3.75,4.07-8.35,9.98-11.69,14.48-7.95,10.71-14.95,23.17-15.83,36.78ZM702.03,403.49c.49-.64-1.19-2.05-1.63-2.45-5.6-5.19-11.78-8.65-19.09-10.89-9.37-2.87-18.35-4.14-27.8-.81-.13.76.97.8,1.51.93,10.19,2.44,16.58,6.07,23.39,14.23,7.88.3,16.01,1.88,23.61-.99ZM695.48,458.02c.9-19.04-7.3-37.38-19.88-51.26-7.95-8.77-18.93-16.49-31.18-11.54-5.34,2.16-8.04,6.62-10.97,11.38-5.2,8.44-9.28,17.77-11.55,27.42,12.86-.02,26.27,1.53,38.57,5.31,12.75,3.92,24.19,11.07,35.01,18.68ZM612.63,418.76l10.89-23.44c-2.23,1.9-13.83,14.46-14.13,16.16-.07.4,3.75,5.7,3.24,7.28ZM764.72,539.25v-14.45c0-.47,1.86-5.8,2.26-6.46,4.05-6.86,12.87-5.87,16.5.79l5.77,11.4c9.27-37.77-4.51-74.12-25.71-104.85-4.61-6.68-13.32-19.46-19.25-24.36-.61-.51-.88-1.32-1.91-1.09,6.15,12.56,11.25,25.57,14.45,39.24,5.11,21.85,5.17,43.95,2.37,66.17-.92,7.32-2.48,14.59-3.72,21.86.13,1.98,7.42,9.85,9.24,11.75ZM729.28,487.46c.75-28.99-4.69-58.99-24.34-81.19-7.59,3.33-15.01,2.84-23.08,2.14,12.3,14.83,17.82,33.1,17.72,52.33,10.55,8.15,20.75,16.79,29.7,26.72ZM598.46,435.12l10.1-1.62c-.13-2.29,2.92-7.99,2.77-9.56-.05-.51-.91-1.22-1.15-1.9-.84-2.35-1.91-4.66-2.45-7.09-3.01,1.18-9.94,19.28-9.26,20.17ZM695.48,467.83c-.16-1.45.26-3.24,0-4.62-.34-1.71-7.89-6.34-9.85-7.6-29.14-18.72-66.67-22.31-100.26-14.77-3.56.8-16.45,4.31-18.75,6.33-1.99,1.75-2.76,8.86-1.68,11.4,5.76-1.68,11.56-2.94,17.51-3.75,27.79-3.77,75.81-4.75,101.41,6.91,4,1.82,7.55,4.44,11.62,6.09ZM610.99,456.39c-1.37.18-3.77-.43-4.91.26-1.06.65-7.57,15.59-8.32,17.84-2.03,6.07-3.11,12.79-5.03,18.96-9.94,32-27.31,59.63-62.41,66.79-16.9,3.45-50,.42-65.96-6.56-1.83-.8-6.28-2.15-5.42-4.83s6.73,2.11,8.68,1.84l-7.39-13.62c-4.48,3.31-19.66,8.9-21.28,14.16s12.32,11.65,16.16,13.35c30.19,13.41,69.08,9.7,97.92-5.61,1.49-.79,8.89-6.75,8.38-2.03-.22,2.01-8.83,6.64-10.9,7.68-14.33,7.19-30.47,10.16-46.36,11.42,26.41,19.79,76.18,15.85,90.58-16.8,6.76-15.33,4.59-34.62,6.52-51.27,2.01-17.35,5.96-34.59,9.74-51.59ZM601.73,456.93h-5.45c-.43.43.91,6.61,1.91,7.08l3.54-7.08ZM592.46,457.47c-.58.03-1.29-.13-1.82.08-1.94.77-6.14,13.91-7.35,16.64-2.36,5.35-5.52,10.66-9.9,14.64-2.33,2.11-5.35,3.56-7.64,5.71,2.29.05,9,.19,10.55-1.58.96-1.1.43-7.39,3.26-10.23,2.65-2.65,12.25-3.82,13.49-5.32.27-.33,2.55-7.61,2.52-8.14-.16-3.07-3.43-8.22-3.12-11.81ZM728.73,495.09c.04-.93.12-1.83-.28-2.72-.35-.78-5.26-6.35-6.24-7.38-4.91-5.16-15.7-15.2-21.55-18.79-.43-.27-.49-.8-1.35-.55l-.44,4.8c10.86,7.04,20.11,16.22,29.86,24.64ZM415.84,470.29c-.38,1.36,0,6.28,0,8.18,0,.49,5.49,2.75,6.34,2.94.96.21.73.04.77-.77.05-.89-.81-8.28-1.06-8.64-1.52-.11-5.49-3.67-6.05-1.71ZM727.64,504.36c.11-1.74,1.25-3.6.03-5.21-9.5-8.6-18.85-17.55-29.46-24.78l-5.45,24.53c11.5-1.5,24.13,1.15,34.88,5.45ZM591.91,482.01c-2.63,1.17-8.38,1.61-10.07,3.83-3.03,3.97-1.37,16.37-1.92,21.52-.9,8.42-7.27,4.6-13.24,6.93-11.5,4.48-9.9,17.5-14.45,25.9-1.2,2.22-2.4,3.28-4.86,2.46-5.46-1.8-12.87-8.49-18.29-10.6-2.2-.86-3.04-.59-4.45,1.24-2.58,3.36-7.22,14.57-10.54,16.21-.58.28-1.19.47-1.84.38-3.77-.48-15.19-14.7-20.49-16.02-.68-.24-1.02.14-1.53.44-3.19,1.89-9,11.21-13.02,10.94-3.64-.24-12.29-11.14-14.76-14.17-.64.19-.17,1.18,0,1.64,2.44,6.89,7.44,13.52,10.77,20.03,28.23,6.59,57,10.11,82.12-7.29,15.08-10.45,21.81-22.3,28.66-38.94,3.28-7.95,6.07-16.09,7.92-24.51ZM576.65,498.37c-.94-.24-1.09.39-1.64.81-3.99,3.07-6.64,5.75-11.28,8.34-15.55,8.69-32.29,10.29-49.77,7.75.05,1.05,1.61.52,2.23,1.46,2.35,3.56-5.21,4.16-7.48,4.47-9.82,1.33-17.89-.14-26.54-4.95-3.18-1.77-13.92-10.52-15.96-10.81-.71-.1-1.21-.02-1.85.28-.42.2-6.7,5.54-7.09,6-1.29,1.52.68,7.5,1.64,9.25,1.73,3.19,9.96,12.59,12.79,15.55,1.71,1.79,3.55,3.37,5.54,4.85,4.5-1.71,10.1-11.84,14.58-11.4s16.44,12.76,20.71,15.78c1.71-.36,8.11-13.69,10.23-15.97s3.96-2.54,6.86-1.57l19.22,11.03c3.05-10.71,6.46-27.63,19.95-29.39,1.85-.24,5.27.47,6.55-.54s1.3-8.96,1.31-10.95ZM674.71,616.63c14.04-22.45,26.82-45.78,37.77-69.92,4.49-9.89,9.64-21.16,12.59-31.57.54-1.89,2.23-5.81.95-7.24-2.12-2.38-19.4-5.46-23.18-5.71-2.48-.16-10.53-.56-11.97,1.1-16.86,37.91-34.22,76.7-62.43,107.67,15.62-.09,31.24,1.36,46.27,5.68ZM710.65,653.09c11.94-34.14,26.84-68.22,35.93-103.36,1.34-5.18,4.3-14.57,4.53-19.5.04-.83.14-1.64-.31-2.4-6.6-8.06-11.11-17.91-19.32-24.55-3.16,18.01-10.9,35-18.62,51.44-20,42.62-46.53,80.13-69.25,121.02-16.3,29.34-34.71,62.72-20.61,96.86.89-.26,1.32-2.15,1.64-2.98,3.47-9.05,6.33-18.36,9.56-27.51,1.22-2.06,3.35-1.09,3.24,1.12-3.78,11.5-7.45,23.15-11.86,34.42-7.65,19.56-18.68,36.72-33.08,52.01-.27,1.55,10.06,8.07,9.53,10.6-.94,4.47-4.68-1.03-5.74-1.96-6.72-5.99-14.11-11.3-20.74-17.42-20.7-19.15-51.49-53.72-63.32-78.97-9.15-19.51-17.15-39.52-26.69-58.9-1.14-2.31-4.35-9.77-6.43-10.47-1.88-.63-7.02.87-8.22,2.21-.72.81-.97,4.31-2.06,6.12-1.62,2.66-5.52,5.04-8.28,2.89-.67,5.31-3.62,9.83-5.45,14.72,6.15-3.88,12.11-17.16,19.89-17.15,3.3,0,12.8,3.83,11.64,8.03-.82,2.99-6.7.76-8.31,1.06-.87.16-1.5,1.81-2.32,1.97s-4.73-2.55-8.53-1.44c-.81.24-7.06,8.28-9.15,9.93-3.4,2.67-6.36,2.96-9.41,4.76-1.2.71-1.97,2.09-3.12,2.87-7.47,5.1-14.83,8.26-23.52,10.82-3.84,1.13-19.8,3.93-21.42,5.3-2.83,2.39-5.98,10.92-6.66,14.6-1.32,7.11-.98,21.64,8.36,22.98,5.05.72,15.02,1,20.11.59,1.67-.14,9.11-1.58,10.1-2.44.45-.39,2.56-9.59,3.25-11.47,5.26-14.37,19.75-34.4,31.08-44.7,1.7-1.55,8.34-7.37,10.09-7.4,1.57-.03,2.39.93,1.86,2.46-.31.89-1.97.56-1.53,1.6,18.89,29.28,24.1,63.94,34.28,96.6,9.72,31.19,24.26,64.24,41.76,91.81,4.86,7.66,21.26,33.24,26.98,37.89,1.53,1.24,7.24,3.38,5.47,5.53-1.92,2.32-6.38-1.5-7.96-3.02-3.24,4.69-6.31,9.53-10.63,13.35,3.72.97,8.88-.6,11.96-2.76,2.04-1.44,5.69-8.25,8.22-5.43.68.76.13,1.98,1.07,1.91,4.99-10.3,11.18-20.11,17.55-29.61,27.37-40.79,58.45-79.15,84.95-120.58,18.88-29.52,47.74-82.24,45.25-117.8-.63-9.04-3.78-11.94-12.84-12.78-10.93-1.02-18.84,2.81-28.43,6.98-9.69,4.22-19.23,9-28.52,14.03-2.63.33-3.4-1.82-1.28-3.5,3.17-2.51,10.75-5.71,14.71-7.64,9.81-4.77,20.19-9.57,30.62-12.73ZM434.85,615c.66-.44,3.95-7.47,4.19-8.65,1.58-7.87-2.64-15.51-6.21-22.21-5.8-10.9-13.74-23.53-20.91-33.61-3.88-5.45-13.5-19.35-19.92-20.41-7.44-1.24-24.65,6.52-31.96,9.76-16.46,7.3-44.31,18.91-50.1,37.13-4.12,12.97-6.65,44.55-4.7,57.87,1.91,13.01,14.33,25.6,17.93,38.5l13.61-10.63c-1.78-1.15-8.75-12.23-9.53-12.26-.34-.01-3.07,2.47-6.39,2.07-2.73-.33-9.74-4.3-7.79-7.54,1.83-3.04,3.56,1.4,4.44,2.12,3.98,3.21,7.22,2.15,8.66-2.65,4.47-14.91-4.94-35.14-3.57-51,.78-9.08,6.39-8.93,11.68-2.92,4.18,4.74,13.85,21.05,16.61,27,2.91,6.26-3.23,4.08-3.21,4.85l4.37,14.99c5.14,0,23.57-12.88,23.43-17.19-.03-.85-1.42-1.94-1.92-2.96-4.28-8.81-8.39-34.81-8.97-45.02-.23-4,2.39-3.84,3.55-.26,3.92,12.09,2.45,28.59,7.47,41.05.53,1.31,1.48,3.81,2.74,4.38,1.82.82,12.4-5.64,14.87-6.69-.86-18.47-4.84-36.47-6.83-54.8-.08-1.7-.79-12.8,3.04-9.58,1.45,1.22.61,9.78.78,12.31.15,2.24.64,7.76,1.22,9.68.72,2.38,6.43,9.01,8.13,12.58,3.85,8.1,3.6,16.38,8.41,23.76,4.43,6.81,9.84,11.99,18.51,11.52,2.47-.13,4.19-1.21,6.1-1.55.83-.15,1.96.61,2.26.41ZM715.38,652.11c2.88-.13,5.83,0,8.72,0,2.51,0,9.04,2.53,11.13,4.14,4.78,3.68,5.07,11.68,4.95,17.39-.11,5.14-2.81,14.58-2.46,18.56.11,1.25,3.63,8.04,4.38,10.61,3.73,12.8,2.91,25.36-.27,38.16,13.97-14.31,29.22-31.99,34.73-51.68,9.12-32.59-1.7-64.19-6.31-96.42-2.22-15.51-3.8-31.18-4.99-46.8l-10.62-12.81-10.07,36.8c-7.24,20.53-14.18,41.22-21.81,61.61-2.23,5.96-6.84,14.57-8.18,20.18-.38,1.6.73.26.81.26ZM416.93,630.85c-3.96.15-26.55,6.64-28.33,5.75-3.55-1.77,1.95-5.57,3.24-7.13,3.39-4.11,6.23-8.3,7.79-13.47,3.68-12.23,1.03-28.36-6.68-38.58,1.96,7.4,2.1,15.04,2.72,22.62.25,3.03,2.19,11.01.38,13.21-.9,1.1-10.61,5.58-12.73,6.62-1.18.58-3.21.88-3.99,1.46s-1.82,3.21-2.76,4.32c-5,5.92-17.96,15.62-25.88,15.55-2.98-.03-7.04-2.42-9.25-4.37-1.02-.9-2.87-3.92-3.75-3.76-.68,1.86-6.58,3.53-6.83,3.83-.34.41-.63,8.98-1.73,10.49,3.98,3.96,7.09,9.02,10.66,13.44,18.68-12.22,42.98-22.02,65.42-23.97,2.28-.2,6.92.5,8.63-.09.85-.29,3.36-5.65,3.08-5.91ZM338.43,604.13l-6.52-10.64c-.61-.69-3.49-3.55-4.11-3.51-1.91.15-1.49,11.33-1.35,13.32.69,9.96,4.53,19.64,4.36,29.72.54.59,4.79-2.76,5.32-3.53-2.19-4.54-4.02-9.42-5.17-14.34-.52-2.22-3.59-16.05,1.09-14.77l6.37,3.75ZM473.62,632.49c-1.73.25-2.83,1.95-4.68,2.17-5.02.58-13.07-5.77-16.01-9.54-5.96-7.64-6.4-18.54.52-25.61-2.36-2.07-4.06-2.07-6.71-.72-4.83,2.47-3.54,7.39-5.41,12.03-1.67,4.14-5.45,8.98-8.88,11.84-2.75,2.29-7.87,4.22-9.76,6.05-3.53,3.44-7.65,16.5-7.97,21.47-1.86,29.58,29.41,20.9,46.9,14.46-1.78-3.65-10.94,3.63-10.38-1.35.21-1.9,5.99-3.58,7.85-3.51,2.57.09,6.64,2.43,8.36,1.73,1.82-.74,6.38-4.5,7.49-6.17,3.92-5.88-1.01-16.25-1.33-22.86ZM348.24,636.85c-.67-3.82-5.81-14.53-3.75-17.66.45-.69,2.06-1.32,2.1-1.68.15-1.58-10.95-11.85-13.6-12.28,1.57,11.13,4.49,25.95,15.25,31.62ZM430.01,619.4c-9.51,1.86-15.71-1.58-21.82-8.44l-3.25-4.1c-.31,9.33-4.18,18.2-10.36,25.07,11.98-2.89,26.03-3.73,35.43-12.53ZM452.92,606.86c-3.61,8.82,2.94,18.8,10.88,22.64,4.38,2.12,6.83,1.99,8.46-3.02,2.18-6.66-.98-10.79-4.9-15.8-3.03,3.55-6.83,4.35-10.64,1.37l-3.8-5.19ZM618.6,720.79c6.54-20.41,17.6-39.63,28.27-58.14,7.71-13.36,18.73-28.36,25.18-41.88.2-.42.97-.55,0-1.1-2.4-1.37-13.85-2.95-17.27-3.44-10.06-1.44-21.16-2.93-30.98-.09-20.54,22.8-41.77,45.3-61.31,68.98-7.54,9.14-14.66,18.68-20.72,28.89,4.36.37,8.95-1.01,13.36-1.36,17.07-1.35,38.16.44,54.65,5.3,1.52.45,8.12,3.46,8.83,2.85ZM595.18,641.76c-28.67,9.4-53.1,28.24-74.69,48.78-6.43,6.12-12.77,12.45-17.89,19.72,10.08,22.67,17.77,46.34,36.16,63.98l-3.54-22.08c-1.63-19.78-4.25-27.99,6.53-45.26,14.83-23.76,36.17-43.22,53.43-65.13ZM388.04,647.2c-3.04.42-5.93-.87-8.95-.49-7.36.91-22.31,8.04-29.03,11.85-1.33.76-7.94,4.49-7.74,5.72.13.85,8.76,12.3,10.07,13.95.93,1.17,6.22,7.73,6.9,8.08,2.06,1.04,6.69.39,9.12,1.25.6-.56-4.99-7.38-5.71-8.18-2.31-2.56-14.82-12.8-15.01-14.46-.3-2.7,1.98-2.84,4.08-3,7.84-.6,18.24.95,25.78,3.15,4.81,1.4,9.75,3.51,14.3,5.6.66-8.13-3.2-15.62-3.81-23.45ZM410.91,651.04c-4.9-.72-9.65-2.47-14.69-2.2,5.77,4.27,11.19,8.91,16.08,14.17-.3-3.99-1.73-7.9-1.39-11.97ZM410.94,666.82c-3.2-2.8-6.34-6.6-9.54-9.26-.61-.51-.88-1.32-1.91-1.09l7.61,12.28c1.31.86,2.3-2.11,3.83-1.94ZM394.04,657.02l1.7,14.92,7.29,4.14c.33-.02,1.58-2.23,1.67-2.71.5-2.49-7.65-14.76-10.67-16.36ZM473.63,662.46c1.61.48,2.58.85,4.22.14.78-.34,5.11-4.4,4.5-5.04-2.81,1.54-7.75,1.26-8.71,4.9ZM469.26,664.65c-1.24,1.46-9.15,4.17-9.57,4.89-.19.32,1.85,7.1,2.22,7.1,1.07-1.48,5.2-3.22,5.96-4.38.45-.69,1.62-7.29,1.39-7.6ZM353.7,685.91l-14.99-20.16c-1.79,1.99-12.94,9.5-13.27,11.25-.1.52,2.51,6.46,3.04,6.74,1.39.73,7.72,1.43,9.69,1.62,5,.5,10.5.47,15.53.55ZM358.06,665.74l-4.36.27,4.35,3.55v-3.82ZM391.31,687.56c-4.44-1.89-9.47-5.21-13.09-8.45-2.68-2.4-9.51-11.69-11.45-12.54-1.31-.58-3.41-.18-4.9-.82.06,1.49-.19,3.03.12,4.51.96,4.58,2.85,5.73,5.31,8.86,1.27,1.61,5.23,8.07,6.05,8.67,2.07,1.49,10.89,1.09,13.88,1.98,1.64.07,3.34-.65,4.07-2.21ZM373.32,667.93c7.62,10.54,20.84,19.04,33.38,22.49,1.25.34,8.48,2.39,8.58.68.12-2.11-10.51-9.99-12.7-11.27-3.31-1.94-27.71-13.1-29.26-11.9ZM413.66,669.56c-3.9,1.32-5.84,5.04-7.09,8.71,3.98-1.1,5.8-5.19,7.09-8.71ZM418.02,669.56c-1.66,1.97-2.02,4.87-3.57,7.05-1.05,1.48-2.87,2.7-4.04,4.12,2.68,3.09,3.98-.54,5.18-2.98s2.34-5.42,2.43-8.19ZM456.16,670.65c-8.94,2.13-18,4.64-27.24,4.09,2.23,1.68,4.45,3.61,6.27,5.72,1.1,1.27,4.65,7.05,5.17,7.36,3.62,2.17,12.27-3.15,14.97-5.74,4.21-4.03,2.11-6.52.82-11.43ZM422.83,672.92c-.06-.09-1.18-.42-1.54-.64-1.15,5.31-4.48,7.85,2.17,10.91-1.11-1.99.03-9.28-.63-10.26ZM307.23,681.69c-1-.98-7.38-2.24-8.95-3.86l-7.26-5c0,4.74,2.26,16.96,6.15,19.74.49.35,4.75,2.43,5.02,2.42,1.76-.11,8.52-6.75,8.46-8.83-.04-1.15-1.64-1.5-2.46-2.44-.48-.55-.53-1.62-.95-2.03ZM442.55,697.9c-5.16-6.93-8.44-15.16-15.8-20.17.24,9.31,7.65,16.79,15.8,20.17ZM323.72,682.64c-1.02-3.3-1.6-3.44-3.81-.81l3.81.81ZM445.82,702.82c-5.86-.92-12.78-5.37-16.63-9.81-3.35-3.85-1.61-3.53-6.47-6.07-.9-.47-6.03-3.97-6.32-3.75-.09.06-.97,1.81-.97,1.91,0,.38,3.68,4,3.63,6.55s-3.45,3.15-3.19,4.31c.22.96,7.49,7.7,8.85,8.61,4,2.67,6.55,2.11,9.55,3.54,1.13.54.91,1.92,1.98,1.81,1.34-.13,6.68-3.67,7.9-4.7.75-.63,1.84-1.25,1.68-2.4ZM348.25,689.74c-4.7-.85-9.59-.56-14.38-1.17-6.12-.77-12.28-2.58-18.33-3.74,8.33,6.93,19.1,10.23,28.07,16.32,3.29-.38,2.13-2.7,2.7-4.91s1.22-4.37,1.94-6.5ZM480.16,686.47c-3.07-1.17-6.47-3.01-8.72.53l3,.55,5.72-1.09ZM456.18,686.46c-.44-.42-5,3.08-6,3.54-2.11.96-4.79,1.53-7.08,1.92l5.46,8.17c1.35.93,7.58-12.17,7.62-13.62ZM290.47,706.09l8.16-8.45-17.43-10.08,9.27,18.53ZM331.83,707.11l3.63-6.48-22.08-11.99c-1.27,3.32-3.81,5.82-6.55,7.91l25.01,10.56ZM372.77,695.18c-.29-1.08-.39-3.39-1.43-3.74l-19.82-1.7c.28,3.26-2.15,5.97-1.63,9.27,5.43-1.52,11.58.03,16.72,2.08,3.04,1.21,5.84,3.27,8.89,4.46l-.54-4.36c-1.39-.1-2.75,1.31-3.81-.28,1.16-2.62,3.59.17,2.72-4.08-.5-.51-6.1,2.2-4.63-1.64h3.54ZM397.85,690.83c-3.82-2.28-3.64.58-6.69,1.75s-5.42.02-6.93,3.69c4.67.29,11.79-.31,13.63-5.44ZM381.5,693.01l-5.45-.55c1.37,3.73,2.02,7.62,2.99,11.45.58,2.28,3.51,6.82.68,8.34-9.4,5.03-29.14.42-37.2-6.17-.84-.69-1.86-3.25-3.28-3.13-1,.08-4.62,4.82-4.08,6.4,10.37,1.97,31.42,12.54,41.34,9.46,4.29-1.33,12.99-13.11,12.6-18.15-5.37-.79-11.48-.27-7.61-7.65ZM432.19,711.54c-7.3-1.08-12.92-6.27-17.72-11.45-1.09-1.18-2.43-3.89-3.56-4.62-1.92-1.24-6.39-1.39-8.69-2.48-.48,3.96.7,7.45,2.43,10.92.33.66,3.13,5.28,3.38,5.47.78.59,10.52,3.23,12.15,3.53,2.87.54,5.78,1.06,8.65.42.75-.17,3.05-.98,3.37-1.8ZM398.39,696.82c-1.27.84-4.15,1.51-5.13,2.15-1.42.92.6,1.25,1.03,1.66,2.19,2.1,4.35,4.51,7.37,5.46l-3.28-9.26ZM324.26,708.27l-21.54-9.13-9.82,10.2,14.74,26.72c.4-10.83,5.78-18.76,13.95-25.3.65-.52,3.49-1.64,2.68-2.5ZM362.69,710.45c3.25.35,7.51,0,10.9,0,.39,0,1-.64.24-1.33-2.06-1.9-10.11-5.49-12.94-6.14-4.69-1.07-10.07-1.47-14.28,1.2,4.45,2.85,10.81,5.71,16.08,6.27ZM439.28,751.33c7.57-.29,14.37-4.13,20.67-7.95,5-3.03,11.19-7.31,15.57-11.15,1.82-1.6,9.12-8.55,8.93-10.47-.45-4.59-8.32-13.94-9.74-18.95-15.67,12.3-28.17,30-35.42,48.52ZM418.02,715.9c-4.54-.91-9.72-2.41-14-4.27s-7.98-4.92-12.16-7.19c-1.33,7.07-6.88,11.14-11.18,16.36l-4.64,2.17c9.63-.14,19.54-1.66,28.99-3.44,3.78-.71,8.57-1.47,12.19-2.54.8-.24.95.3.8-1.1ZM368.41,722.45c-6.29-.75-12.48-2.78-18.53-4.64-2.94-.9-20.17-7.36-21.27-7.13-4.06.83-12.84,10.45-14.65,14.29-2.3,4.89-3.08,12.62-1.59,17.81.46,1.61,7.46,8.13,9.21,9.33,13.38,9.17,31.03,2.52,45.74.86-2.61-2.88-5.77-4.69-8.46-7.62-3.82-4.16-6.88-9.6-10.64-13.9-2.45-2.8-10.66-8.1-1.35-9.01,6.55-.64,13.1.82,19.63.55.66-.03,2.03.41,1.9-.54ZM539.16,718.74c-1.91,1.4-1.89,12.34-1.78,14.9.41,8.92,1.43,19.9,2.92,28.7.76,4.52,2.84,15.69,4.5,19.49.87,1.99,7.12,9,8.97,11.2,10.64,12.68,22.78,24.2,35.63,34.61,7.52-8.23,14.55-16.97,20.51-26.41,2.56-4.04,11.88-19.86,11.22-23.74-.44-2.58-2.88-7.44-3.75-10.47-2.34-8.18-3.63-16.67-3.12-25.22.34-5.67,2.01-11.2,2.65-16.81-.47-1.44-11.07-4.4-13.11-4.91-16.74-4.13-38.08-5.29-55.16-3.02-1.3.17-9.1,1.39-9.49,1.68ZM393.49,760.6c-.06-1.22-1.03-1.92-1.51-3.12-2.73-6.82-2.36-16.92-.14-23.89.99-3.11,2.86-5.87,3.83-8.98-15.61,3.57-31.58,1.66-47.42,1.64,4.67,4.27,7.63,10.02,11.71,14.72,8.35,9.61,21.59,15.77,33.53,19.62ZM442.01,847.57c-.2-3.33,0-6.98,0-10.36,0-1.92,2.05-2.96,3.82-2.46-3.62-14.43,4.76-22.07,15.09-29.88,8.18-6.18,18.43-13.24,27.14-18.65,4.62-2.87,9.35-5.65,14.42-7.67-3.87-17.83-9.48-35.2-15.78-52.28-11.35,11.98-25.2,22.24-40.88,27.81,1.34,3.22,3.65,5.06,6.58,6.76,2.6,1.5,10.06,3.59,11.26,4.82,1.04,1.07.74,3.31-.75,3.59-.49.09-8.22-3.14-9.29-3.63-3.48-1.6-6.43-3.38-8.88-6.38-2.23-2.72-1.32-4.93-5.75-4.08-2.72.52-1.43,6.81-3.3,8.15-.69.49-7.53,2.38-8.83,2.62-7.87,1.46-24.36.45-32.31-1.2-8.03-1.67-15.45-5.75-22.61-9.56-.9-.29.76,5.07.94,5.6,9.1,26.47,23.58,48.01,47.23,63.44,3.11,2.03,9.71,4.72,11.88,6.93,1.76,1.79,3.54,7.37,4.99,10,1.56,2.82,3.92,5.25,5.01,8.35,1.33,0,.01-1.56,0-1.9Z"/>
  <path d="M583.04,349.65c7.16-1.46,19.9,5.68,18.65,13.74-1.49,9.63-22.79.68-22.79-8.69,0-2.37,1.83-4.58,4.14-5.05ZM594.64,357.15c-1.38-1.6-3.94-2.91-6-3.26,1.35,2.17,3.31,3.67,6,3.26Z"/>
  <path d="M430.71,644.07c.46-.47,7.4-3.73,8.59-4.21,3.27-1.33,8.02-3.46,11.39-1.61,2.89,1.59,1.81,4.17,2.24,6.48.25,1.35,1.15,1.69,1.11,3.84-.09,5.42-10.32,18.18-15.41,19.53-5.87,1.55-17.43-3.58-13.95-10.68,2.51-5.11,18.39-11.22,23.88-13.14,1.64-.58.93-2.23-.02-2.81-3.25-1.99-13.19,5.58-16.13,5.74-1.86.1-3.09-1.74-1.71-3.14ZM446.32,649.44c-.73-.24-1.44,0-2.15.2-2.49.72-10.46,4.81-12.69,6.39-2.7,1.91-5.73,3.92-1.84,6.54,2.5,1.68,6.49,2.91,9.3,1.46,1.66-.85,8.94-9.09,9.39-10.81.24-.9-2.43-2.23-2.02-3.79Z"/>
  <path d="M460.59,650.43c-.26-.18-.54-1.76-.48-2.27.3-2.82,4.76-11,8.06-9.41,2.85,1.37-1.61,3.94-2.63,5.55-.95,1.51-2.24,8.01-4.94,6.13Z"/>
  <path d="M468.56,642.39c4.63-1.3.66,6.64-.38,7.28-1.28.79-3.51.46-3.2-1.52.18-1.12,2.38-5.42,3.57-5.76Z"/>
  <path d="M520.04,365.42c1.81-2.83,4.72,3.94,5.47,5,1.04,1.48,5.56,4.72,2.62,6.11s-9.65-8.67-8.09-11.12Z"/>
</svg>