<?xml version="1.0" encoding="UTF-8"?>
<svg id="Outline" xmlns="http://www.w3.org/2000/svg" viewBox="0 0 1080 1080">
  <path d="M469.4,176.41c1.27-4.11,7.12,2.03,8.4,3.53,4.19,4.92,6.94,10.93,8.45,17.17.93.71,15.82-12.41,19.13-13.5,2.93-.97,5.35-.65,8.23.16.09-5.95,0-11.98-.71-17.89-.38-3.17-3.75-16.13-2.69-17.8,1.67-2.62,4.93.93,6.08,2.47,6.65,8.9,10.77,21.28,17.32,30.41,2.03-18.95,8.64-6.13,11.07,3.67,1.05,4.21,2.07,9.16.46,13.36-.26.68-1.55.23-1.28,1.44.88,4.06,10.09,17.71,13.75,18.67,1.44.38,6.95-5.19,8.7-6.52,37.64-28.56,90.47-49.88,133.49-18.54,7.88,5.74,19.97,16.46,5.38,22.67-12.96,5.52-29.55,2.13-43.12,1.74-19.84-.57-40.43,3.36-59.48,8.65-5.27,1.46-27.8,8.26-29.95,12.16-.96,1.74-.45,3.31-1.78,5.24-5.11,7.43-23.82-2.29-29.11-6.78-3.06-2.59-5.27-6.24-7.09-9.76-.94-1.81-1.32-6.49-2.95-3.67-.47.81-1.96,4.11-1.85,4.89.27,2.01,4.42,8.64,5.36,11.56s1.47,8.1-2.88,5.16c-.84-.56-7.08-15.6-8.53-18.31-3.21-6.02-8.9-18.01-16.76-17.48-8.8.59-20.85,9.87-26.4,16.47-2.99,3.55-7.2,11.62-9.83,14.03-4.21,3.86-3.71-2.05-1.98-5.49,6.16-12.29,20.66-25.75,34.23-28.94,14.02-3.29,17.78,7.58,24.24,17.21.93-1.32,2.78-10.14,3.24-10.44,4.6-2.97,5.99,7.27,7.1,9.93,3.44,8.18,7.54,12.79,15.71,16.58,2.46,1.14,12.23,4.68,14.01,2.23-1.45-14.92-17.36-19.48-24.39-31.86-2.12-3.74-4.86-14-9.42-14.5-7.41-.8-5.15,12.7-11.01,11.12-3.69-.99-6.4-18.18-13.37-17.96-3.45.1-20.23,13.9-23.64,17.01-6.29,5.71-11.43,12.45-17.31,18.54-1.55,1.21-4.13-.18-3.62-2.22s8.82-9.91,8.31-10.34c-2.95.35-17.18,9.22-16.79,11.48.14.82,4.39,4.05,5.17,6.1.9,2.35.31,4.99-2.39,3.86-1.76-.74-7.12-7.75-9.5-9.5-4.09-3-10.06-4.54-15.09-4.21,2.02,2.62,14.61,8.13,11.84,12.54-1.42,2.25-10.94-1.16-13.59-1.16-13.44,0-30.96,14.61-38.95,24.77,4.63,2.27,34.3-.55,35.13,2.9.25,1.03-.04,2.57-.69,3.47-.85,1.18-8.88,5.45-11.21,7.74-7.42,7.29-9.79,18.32-10.59,28.35,7.17-5.88,16.13-8.12,25.13-9.61,3.8-.63,17.21-2.74,19.78-.57,1.6,1.34.7,3.78-1.32,4.2-1.42.3-5.28-.53-7.49-.36-9.75.77-24.33,3.31-32.13,9.27-1.48,1.13-4.87,5.11-5.89,5.4-2.61.73-3.63-1.99-4.06-2-1.84,0-22.41,23.49-25.59,26.36-.25,1.14,5.38,4.43,6.63,5.23,3.13,2.02,6.47,3.78,9.75,5.55,9.62-13.21,23.03-27.94,38.87-33.46,8.69-3.03,16.63-1.89,25.43-4.39.88-.84-10.8-10.32-3.21-9.83,5.32.34,13.91,17.89,15.97,22.7,5.86,13.65,9.24,28.94,13.27,43.22l16.08-2.04c-2.58-7.86-6.52-15.41-9.32-23.32-4.18-11.81-6.15-24.34-10.5-35.82-2.84-7.5-10.89-19.65-12.18-26.46-.77-4.07,1.93-5.53,4.92-2.77,5.05,4.67,12.24,17.47,16.98,23.73,12.48,16.48,25.75,34.43,38.91,50.23,1.48,1.77,4.93,6.47,6.6,7.44,2.89,1.66,6.07,0,9.13-.07,7.9-.17,18.14.09,25.99.74,2.13.18,19.2,1.99,13.38,6.37-1.42,1.07-8.8-1.12-11.36-1.37-3.17-.31-7.28-.63-10.44-.79-25.39-1.22-50.07,5.27-75.09,8.42-.96.12-2.23.5-1.04,1.39l58.63-.67c6.24-1.08,12.63-.79,18.91-1.44,3.81-.39,18.58-5.47,15.1,1.77l-19.65,3.84c5.04,1.47,11.21,3.48,16.48,3.57,3.8.06,13.85-2.8,16.04-2.07,1.58.53,1.45,2.88.82,4.14l-8.08,4.2h10.88c.71,0,5.48-1.42,6.64-1.79,3.27-1.03,11.01-5.82,13.08-5.94,2.36-.14,3.82,2,2.59,4.04l-7.91,6.49c4.47-.38,9.05-1.48,13.11-3.37,3.68-1.71,11.88-9.74,15.29-5.72l1.76,5.59c-.17-4.71,4.83-8.25,6.86-3.02l.16,11.44c.86-1.41,3.13-10.14,3.58-10.46.55-.38,2.06-.05,2.74.29,3.1,1.54-1.02,6.27-.35,8.77,6.04-6.04,12.27-12.43,15.79-20.35h-14.39c-.72,0-5.74-1.91-6.63-2.49-11.85-7.74,2.92-29.92,12.1-34.85,16.5-8.87,13.65,15.29,7.51,23.66-1.49,2.03-6.76,7.1-9.38,5.22-3.75-2.69,2.75-4.87,4.46-6.63,2.92-3.01,7.46-16.98,4.15-19.23-2.65-1.8-11.29,7-12.87,9.11-3.78,5.04-9.98,18-.44,20,2.22.46,15.49.78,17.14.22,1.25-.43,2.4-8.32,2.54-10.1,1.66-21.28-2.23-42.86-16.47-59.31-8.99-10.38-16.11-14.72-29.61-9.24-15.32,6.22-35.42,25.34-39.88,41.54-4.82,17.52.26,28.18,18.45,31.37,7.46,1.31,21.67,2.11,24.55-6.62,1.9-5.78.27-25.58-1.58-31.79-2.84-9.56-9.59-2.3-13.68,2.49-4.65,5.45-11.2,15.05-.87,18.38,3.85,1.24,11.93.03,9.18,5.72-15.16.5-25.18-7.38-15.63-22.31,4.05-6.33,16.92-20.58,23.58-10.37,3.97,6.08,5.7,31.31,3.76,38.42-3.65,13.37-21.83,12.45-32.67,10.16-23.03-4.88-24.17-22.19-18.18-42.03-.33-1.67-6.52-.41-7.07-2.22-.73-2.41,2.89-2.87,3.39-4.31.36-1.03-.17-6.06-.66-6.48-.54-.46-13.14-.34-14.17-.09-.83.2-.73,2.12-2.4,2.68s-3.94.38-5.97,1.05c-2.74.9-5.07,3.3-8.17,2.53-2.44-4.99,6.85-6.94,10.43-7.98-2.41-1.96-8.14-4.72-7.74-8.4.12-1.06,1.64-2.21,1.42-2.47-.08-.1-1.57-.36-2.34-.83-4.54-2.79-9.87-7.2-12.41-11.82-5.62,8.04-8.95,13.83-20,12.64-5.8-.63-14.53-6.7-18.61-10.86-6.24-6.37-14.72-22.94-22.04-27.09-2.16-1.22-7.32-1-10.42-2.21-2.3-.9-9.12-4.89-8.16-7.84,1.26-3.88,7.58,2.46,9.29,3.2,7.47,3.26,24.24.17,33,.13,9.07-.03,18.54.6,27.13,3.6,6.11,2.13,10.92,7.04,17.19,6.65,5.67-.36,8.34-1.56,14.67-.61,7.94,1.19,16.75,4.08,23.91,7.67l3.89-6.33c-2.84.65-11.26,2.91-13,0-2.84-4.74,5.72-3.31,8.26-3.71,2.93-.45,11.71-4.15,12.78-4.05,1.39.13,2.81,1.56,2.41,3.04-.63,2.35-11.59,11.11-9.7,13.77.33.46,8.57,3.83,10.25,4.85,5.03,3.07,10.49,7.64,12.17,13.45,12.73-7.1,23.93-15.21,38.26-6.33,22.39,13.88,29.55,45.27,28.4,69.85-.13,2.8-1.79,8.09-1.41,10.5.23,1.46,6.09,6.98,7.4,11.61,7.42,26.31-24.43,39.62-44.29,44.91-.94,1.33,4.21,7.68-.28,13.72-3.41,4.58-12.64,5.38-17.94,5.29-6.71-.11-18.67-2.82-24.46-2.13-2.16.26-5.8,2.92-8.16,3.83-25.1,9.67-65.51,13.89-83.78-10.22-2.57-3.4-6.08-12.28-7.8-13.96-.99-.98-13.09-6.14-15.99-7.88-9.05-5.43-17.72-13.02-24.71-20.91-1.86-2.1-8.39-11.61-9.5-12.26-2.03-1.19-16.85-2.97-21.17-4.09-7.43-1.94-14.4-4.98-21.6-7.52-1.57,6.31-2.88,12.83-3.51,19.31-4.07,42.17,14.26,70.91,45.98,96.49,3.53,2.84,26.33,19.51,28.79,19.65,1.3.08,2.65-.8,4.15-.71,69.2,3.79,75.89,69.4,95.82,121.13,3.27,8.49,6.88,17.63,12.06,25.14,1.03,1.49,9.03,11.72,9.71,12.09,1.08.59,1.63.18,2.59-.23,3.62-1.5,13.73-8.82,17.28-11.52,22.09-16.87,39.92-52.72,53.24-77.31,1.69-3.11,10.29-18.41,10.33-20.46.05-2.24-4.77-12.49-5.73-15.98-7.79-28.46,5.2-61.57,39.68-48.81,11.28,4.17,24.17,17.24,31.75,26.5,3.18,3.89,15.42,18.94,1.9,14.95-12.33-3.64-23.58-10.98-37.34-6.87,2.82,3.38,7.05,5.09,10.19,8.06,17.11,16.13,24.38,36.63,37.38,54.57,11.28,15.57,33.74,28.81,50.67,37.76,2.58,1.37,10.65,3.65,11.1,5.71.96,4.35-13.2,4.91-16,5.5,4.18,5.16,8.97,9.75,13.66,14.41,1.84,1.83,5.81,3.48,5.7,6.65-.17,4.87-11.01.89-14.21.46-22.41-3.03-36.03-5.59-48.68-26.41-5.39-8.88-7.97-13.37-15.06-21.44-8.83-10.04-24.6-27.02-38.25-29.19-6.24-.99-14.67,11.05-18.13,15.64-25.86,34.37-44.03,76.35-66.79,112.9l.34,1.04c2.56-3.45,14.56-11.3,10.07-1.16-1.82,4.12-9.18,13.98-12.23,17.95-.91,1.19-2.07,2.14-3.1,3.22,2.93.81,11.33-3.89,11.77,1.52.49,5.91-18.57,15.16-24.4,12.88-.16,1.02,1.24.97,1.96,1.18,2.59.73,11.45.56,10.4,4.45-1.53,5.64-18.6,6.05-23.27,5.63-3.65-.33-6.29-1.9-9.44-3.54,2.15,18.59,5.26,37.17,7,55.81,3.55,38.06,4.37,87.65.7,125.63-.28,2.91-.74,9.42-1.53,11.81-.58,1.78-3.45,1.67-3.98.02-1.18-3.66,1.01-13.14,1.29-17.45,2.87-44.57,2-90.97-2.89-135.38-3.59-32.68-9.01-65.22-11.85-98l-17.07,10.65c-2.67,1.46-15.64,8.15-17.57,7.54s-1.37-3.72.28-4.48c6.52-2.94,13-5.97,19.14-9.64,2.1-1.25,12.14-7.49,13.11-8.64.37-.44.77-.77.75-1.42-8.05-45.06-15-91.05-42.28-129.01-27.38-38.1-75.62-53.54-106.53-88.59-24.94-28.28-31.6-53.38-25.78-91.03.29-1.85,2.81-11.16,2.51-11.67-.22-.38-4.41-2.15-5.18-2.84-21.74,38.96-14.76,83.21,7.52,120.17,17.54,29.1,40.94,40.87,64.44,62.6,29.97,27.69,49.28,74.74,57.2,114.06,8.11,40.26,15.14,83.36,21.27,124.02,3.2,21.25,4.86,42.6,4.33,64.11,8.54-4.7,17.58-8.89,24.93-15.42,1.18-1.05,6.11-7.9,7.03-2.85.57,3.14-5.09,7.59-7.46,9.44-7.42,5.77-16.39,9.23-24.16,14.44l-3.85,62.83c-.57,3.28-4.92,2.12-4.86-2.02.21-16.65,2.77-33.93,3.45-50.64,2.13-52.21-7.48-101.61-16.36-152.79-9.78-56.37-14.53-96.2-49.33-143.69-21.62-29.5-56.27-44.59-77.06-75.94-20.16-30.39-31.8-70.7-21.11-106.63,2.46-8.27,6.38-16.1,9.41-24.15l-15.73-11.64c-1.39.02-3.94,14.48-4.34,16.7-4.13,23.25-5.3,46.4-1.4,69.75,5.64,33.76,17.09,67.4,26.45,100.24,4.4-1.47,7.34-8.28,11.9-9.49,8.59-2.28,20.89,8.84,27.02,14.43,8.38,7.63,12.78,15.29,19.34,24.18,1.74,2.35,7,6.71,6.35,9.75-.33.67-1.96,1.15-2.54,1.11-1.24-.09-7.74-8.15-9.04-9.85-9.53-12.48-18.04-25.5-32.47-33.51-7.02-3.9-9.44-.56-14.28,4.42-29.21,30.01-49.37,82.61-69.1,119.71-12.77,24.03-27.93,52.2-47.02,71.6-2.17,2.21-5.02,3.94-7.38,5.95,2.43.88,11.28-5.63,11.25,0,0,1.58-7.93,8.21-9.5,10.17-3.95,4.91-6.66,11.11-5.95,17.55l7.15-13.54c.58-2.54,4.35-4.75,6.03-2.44.72,1,1.13,8.73,2.12,11.55,1.19,3.38,3.42,6.32,6.1,8.64-.24-2.73-.61-6.72-1.23-9.3-.37-1.53-3.13-3.11-1.06-5.28,1.89-1.97,6.29,2.91,8.48,4.16,21.34,12.23,40.85,12.14,64.6,9.62,39.35-4.17,79.19-13.06,118.7-16.05,4.47-.34,14.19-1.11,18.13.1,2.09.64,1.08,4.1.11,4.1h-13.69c3.52,21.56-.32,43.76-7.9,64.05-3.68,9.86-9.13,18.97-12.44,28.98-.17,1.41.02.91,1.02,1.03,2.14.27,4.45-.27,6.68.7,1.13-5.79,3.09-11.93,5.5-17.32.88-1.99,4.32-11.08,6.82-5.82.9,1.89-4.34,12.14-5.31,15.06-2.21,6.72-5.84,14.67,5.23,12.95,3.09-.48,10.16-6.99,11.23-9.82,2-5.29,2.8-16.52,4.37-23,1.77-7.31,4.29-14.45,6.53-21.62l-.3-2.38c-3.75-9.9-11.88-21.68-14.98-31.42-.4-1.27-.94-2.3.01-3.51,3.78-3.82,8.21,11.03,10.02,13.17,1.91-2.82,3.41-5.86,5.4-8.64,1.44-2.01,7.76-10.67,9.43-10.81.77-.06,1.58.31,2.28.58.33,1.17.17,2.29-.3,3.4-1.68,3.93-8.55,9.77-10.97,14.99-.73,1.58-2.47,6.47-2.48,7.98-.01,1.59,7.33,15.56,8.55,19.2,1.2,3.61,2.15,7.39,2.49,11.2,1.47-.42,1.51-2.17,1.9-3.36,6.43-19.65,6.69-41.98,1.09-61.75-2.09-7.39-4.72-20.07-14.49-19.06-50.17,17.08-121.8,21.82-166.99-10.02-2.42-1.7-9.18-6.58-10.79-8.5-1.26-1.51-1.2-3.27.49-4.4.48-.37.9-.18,1.41-.04,2.66.73,9.56,8.47,12.63,9.9.7.33,1.27.55,2.06.34,6.78-12.56,13.22-25.6,21.07-37.54,18.35-27.91,45.91-48.88,75.09-64.58,3.15-1.69,19.34-10.21,21.43-10.22s3.02,1.1,2.36,3.11c-.59,1.8-13.84,6.52-13.93,7.82,3.54,4.45,6.12,9.48,8.53,14.62,6.86,14.65,13.47,33.15,18.84,48.54,5.65,16.2,10.42,32.7,14.05,49.48,7.91-.74,14.92-6.1,22.39-.98,6.67,4.57,10.08,18.15,11.93,25.98,4.44,18.86,2.95,49.76-5.43,67.47-6.15,12.99-8.17-8.46-9.24-12.09-.3-1.03.4-1.22-1.42-1.03-.97,5.99-3.24,11.64-4.57,17.54-5.24,23.15-5.21,46.94-5.99,70.52-.12,3.51.75,18.09-.66,19.7-3.15,3.59-6.9-3.83-7.37-3.85-.91-.02-1.84,3.11-6.32-.03-3.31-2.31-12.32-13.5-15.06-17.23-24.15-32.79-6.07-48.69,4.9-79.98,6.43-18.35,10.07-39.3,6.22-58.54-34.73,2.87-69.02,9.45-103.53,13.86-18.04,2.3-36.28,5.37-54.32,1.88-9.59-1.86-18.73-5.74-27.34-10.2,10.61,27.3-15.45,7.38-15.45-5.62-3.7,2.22-6.31,18.8-12.32,14.79-6.62-4.41.22-24.51,6.01-28.82-2.77,1.4-19.82,4.67-13.7-2.13,1.77-1.97,8.73-5.23,11.54-7.41,19.29-14.99,36.35-45.5,48.15-66.96,15.82-28.77,27.97-59.35,45-87.41-13.46-20.47-17.13-46.35-16.6-70.54l-6.13,13.86c-1.59,4.3-6.61,22.41-8.56,24.43-1.25,1.29-2.47,1.45-3.95.36-2.02-1.48-3.99-16.72-4.41-20.15-5.77-47.07,2.3-124.62,28.38-165.14,3.36-5.23,7.67-9.82,10.77-15.08-15.39-12.38-29.63-29.12-39.11-46.53-1.64-3.02-4.13-7.73,1.63-6.59,13.34,16.63,25.26,35.05,42.81,47.62,8.19-7.9,15.6-16.55,23.83-24.42,1.35-1.28,6.43-4.66,7.01-5.62,2-3.32,1.68-15.04,4.6-19.27,0-.91-16.27,3-17.92,3.14-36.33,3.01-59.59-10.14-73.45-43.74-7.57-18.35,4.46-8.95,14.97-6.55,21.51,4.91,46.54,1.5,68.34,3.24,2.18.18,8.16,2.09,8.98,1.96s6.51-4.27,8.17-5.11c6.43-3.28,12.95-6.05,20.37-5.26-2.36-3.11-7.92-3.96-10.15-7.03-5.75-7.92,16.22-4.69,20.17-3.34,1.26.43,7.14,3.92,7.52,3.75,2.62-1.17,3.19-3.75,1.99-6.26-4.63-9.69-18.24-21.65-25.14-30.31-13.31-16.71,2.95-29.74,19.58-16.77,7.73,6.03,12.6,15.36,20.41,21.35.5-2.66-.69-7.94,0-10.18ZM531.36,187.08l-14.23-25.05c.34,6.41,1.97,13.68,1.43,20.03-.17,2-.03,3.43-2.13,4.18,3.14,3.13,5.29,7.27,6.32,11.58l3.47-5.29c4.86-5.13,10.27-3.33,14.76,1.08.76-4.37-1.49-7.8-2.11-11.93-1.77,1.04-1.41,4.98-3.5,5.99-1.28.61-2.93.31-4.01-.59ZM473.62,183.08c2.86,11.64.6,14.86-8.8,6.34-6.65-6.04-22.42-31.33-33.3-23.52-8.42,6.04,9.38,21.21,13.3,25.97,5.31,6.45,10.36,13.14,15.16,19.97,6.97-3.9,14.23-8.68,22.06-10.52-.8-6.59-3.49-13.71-8.42-18.25ZM658.86,199.89c1.72-3.23.88-15.4-2.06-17.17s-19.76.57-23.9,1.39c-26.01,5.17-51.59,20.12-70.85,37.93.97.7,4.67,5.14,5.24,5.15.74,0,10.34-6.68,12.51-7.73,5.13-2.48,11.63-4.64,17.18-5.99,6.78-1.64,20.6-2.36,25.91-4.97,3.96-1.95,1.4-4.67,1.55-8.23.33-7.64,8.6-11.64,15.29-8.2,2.7,1.39,5.63,5.43,8.23,6.51,1.56.65,10.12,2.07,10.9,1.32ZM703.81,202.72c-10.97-10.47-25.45-17.54-40.7-18.94,1.52,5.71,1.92,10.98.7,16.84l13.72-.72,26.29,2.83ZM707.32,208.35c-.95-.93-23.29-3.35-26.32-3.51-9.71-.51-27.37,1.74-35.67-2.23-4.62-2.21-6.5-8.14-12.73-6.89-5.51,1.1-1.5,10.22-3.96,14.3-2.88,4.79-20.15,5.85-25.91,7.07-9.65,2.05-19.19,5-27.56,10.34-1.12.71-5.64,3.23-5.39,4.42.85,1.08.87,1.07,2.13.76,1.88-.47,5.24-2.84,7.5-3.74,22.65-9.01,55.48-16.95,79.84-16.3,10.53.28,20.94,2.14,31.58,1.39,5.21-.37,13.18-1.31,16.5-5.6ZM364.13,237.83c-15.69-.23-31.31-.83-46.32-5.62-.59.56,5.72,13.42,6.7,14.7,6.37,8.28,29.25,11.97,39.27,12.67.95.07,4.34.6,4.55-.69-12.27-2.12-14.27-14.07-4.21-21.06ZM400.27,238.53c-3.58-.89-15.69,0-20.35,0-1.51,0-6.85,1.36-8.62,1.91-13.46,4.19-10.97,13.82,2.28,14.96,4.29.37,9.03-.36,13.38.03,1.13-.13,4.25-5.55,5.58-7.08,1.57-1.79,7.88-7.14,8.44-8.41.3-.69-.35-1.31-.71-1.4ZM496.77,249.06l-5.2.65c-2.57,1.81,4.87,7.26,5.2-.65ZM498.88,272.93c8.42,10.5,24.14,18.92,31.22,2.08,1.23-2.92,4.4-14.96,3.37-17.35-1.49-3.45-19.07-8.38-23.36-7.91.72,8.67-1.6,20.55-11.23,23.18ZM389.87,261.45c-11.81,7.33-43.44,1.03-56.62-3.26,6.3,8.54,17.32,14.79,27.93,16.63,8.93,1.55,18.79,2.02,27.77.81,3.86-.52,15.85-2.41,18.91-3.55,1.73-.64,7.41-11.03,11.71-11.1.19-1.15-.95-.65-1.74-.69-3.67-.19-25.51-1.13-27.04-.33-.44.23-.59,1.28-.92,1.49ZM546.6,258.89l-4.21.71c1.07,5.32,3.7,3.95,4.21-.71ZM570.43,261.72l-14.01-2.83c3.33,8.95-6.13,26.06-15.79,16.14-.83,1.49,2.59,4.04,3.93,5.19,18.83,16.03,29.01,1.42,25.87-18.5ZM575.37,264.5v11.58c0,.97-2.35,6.31-3.06,7.47-4.23,6.9-10.65,10.05-18.7,7.63,4.41,7.02,14.68,6.12,22.1,5.6,4.78-.34,9.6-1.87,14.4-2.1.48-3.68-6.98-6.26-6.03-9.84,1.08-4.09,8.8-1.34,12-1.32,2.48.01,4.85-1.11,7.37-.77-6.04-9.93-18.18-13.35-28.07-18.24ZM602.74,287.67c-3.85.15-7.39.66-11.22.34l4.58,5.27,6.64-5.61ZM485.47,298.96c-.3-.19-2.07-.31-2.05.3,1.54,4.95,2.44,10.09,3.87,15.08.32,1.11.69,3.82,1.74,4.21-.43-2.72-2.27-18.75-3.57-19.59ZM591.52,298.9c-1.66.46-8.89,1.18-9.53,2.05s.42,9.41,1.46,9.87l8.07-11.92ZM500.98,317.84c.65-.7-7.8-11.49-9.12-12.63.9,5.84,1.83,11.6,1.4,17.55,2.64-1.64,4.12-5.13,7.71-4.92ZM477.12,359.26c-4.04-12.34-6.67-25.26-11.41-37.38-1.15-2.95-3.77-9.79-5.51-12.04-.85-1.09-1.05-1.02-2.34-1.17-6.69-.78-20.75.79-27.03,3.23-14.75,5.73-21.7,20.69-25.93,34.96.33,1.19,8.3,4.01,10.1,4.68,2.8,1.04,21.78,7.1,22.82,6.3-1.69-3.79-10.66-14.44-8.79-18.23.46-.93,1.62-1.63,2.7-1.35,1.78.46,12.3,19.51,16.27,20.99h29.13ZM527.65,351.53l-22.45-28.77.7,21.75c.95,1.12,5.72-6.01,9.35-4.81,3.39,1.12,1.25,10.5.47,13.23l11.93-1.4ZM500.27,347.32c2.05-1.97.81-10.43.72-12.99-.13-3.59.74-7.64-1.06-10.87-1.24,1.75-7.26,6.26-7.24,7.93,1.54,4.04,2.84,8.27,4.66,12.19.32.69,1.73,4.88,2.92,3.74ZM400.61,344.52l5.61-14.74c-4.41,3.42-7.74,8.18-10.51,12.99l4.9,1.75ZM369.03,559.3c5.75-11,13.41-20.79,20.23-31.11-10.29-30.55-20.06-62.71-26.32-94.4-4.9-24.79-5.57-44.72-2.22-69.88,1.02-7.65,3.12-15.23,3.76-22.91-17.53,22.02-25.55,50.36-30.31,77.78-5.04,29.03-7.31,59.52-4.43,88.92.49,5.04,1.52,10.13,2.45,15.09,2.93-5.98,13.49-39.61,17.9-41.76,1.02-.5,2.33-.55,3.42-.26.5,1.18.87,2.47.85,3.77-.08,4.84-1.41,11.2-1.39,16.07.04,14.67,4.59,42.99,12.72,55.38.55.84,2.15,4.14,3.34,3.31ZM512.21,346.63l-8.64,6.44-1.18,1.97c.32.28,7.95-.66,8.46-1.01,1.15-.78.41-5.76,1.36-7.41ZM649.77,403.47c15.27-3.87,33.63-19.03,25.61-36.49-1.17-2.55-2.69-5.95-4.59-2.49-3.02,5.51-1.57,3.06.17,6.9,4.65,10.28-1.75,19.65-10.03,25.35l-11.16,6.72ZM569.76,375.41c-5.6-.4-14.83-2.43-19.6-5.33-.76-.46-.9-1.93-1.92-2.29-2.86-1-7.09.77-10.07.6,1.89,6.45-.77,13.05,0,19.65,5.7-1.01,12.13-1.4,17.69-3.01,2.7-.78,7.02-3.6,9.16-3.2,2.71.51,2.64,2.89,4.03,4.46,2.07,2.34,4.56,4.36,6.68,6.66,1.23,1.33,3.38,5.56,4.86,5.61,3.8-1.28,7.76-2.37,11.4-4.08,6.13-2.88,11.23-9.92,17.41-3.61l5.27,6.29c3.05-6.1,8.38-12.63,14.09-16.45,2.73-1.83,5.13-.06,2.42-5.3-7.1,5.52-14.32,8.5-23.26,9.73-4.17.58-14.62,3.02-13.6-3.42-4.07.66-8.17.91-12.31.74-2.6-.11-10.74-.98-12.79-1.9-2.78-1.26-.82-3.72.53-5.14ZM504.41,368.46l-18.53.62-.97.97c9.72,21.53,11.89,52.33,36.43,62.54,16.83,7.01,39.78,4.86,56.84-.68,1.96-.64,5.13-1.49,6.31-3.16-3.94-.74-17.93-2.3-20.36-4.56-1.64-1.53-.13-3.55,1.78-3.87,7.97,1.13,16.7,4.36,24.67,4.85,7.95.49,16.21,1.94,24.42,2.19,4.08.12,16.84.38,18.33-4.21,1.91-5.89-7.15-16.67-12.11-19.56-6.64-3.87-3.46.82-6.53,2.34-4.6,2.28-3.73-4.79-4.75-7.2-.37-.9-4.84-5.53-5.58-5.72-1.29-.33-7.39,4.23-9.34,5.18-2.59,1.27-13.55,5.7-15.79,5.63-3.74-.11-3.26-3.13-4.95-5.23-3.22-4.02-8.05-7.03-10.15-11.98-3.6,2.15-7.71,3.11-11.78,3.99-3.18.68-14.55,2.86-16.8,1.82-3.83-1.78-1.6-6.07-1.55-8.94.06-3.63-.1-7.28-.03-10.91-6.16,2.18-12.42,4.39-18.94,5.26,7.92,12.25,21.58,19.15,34.91,24.04,23.22,8.53,46.57,10.56,70.74,4.36,5.64,1.85,1.33,4.51-2.33,5.45-27.67,7.11-62.27.93-86.95-13.02-11.69-6.61-22.39-17.46-26.98-30.22ZM512.91,368.39h-3.5c-.75.72,2.37,5.4,3.16,6.31.07-2.3-.73-3.94.35-6.31ZM531.16,368.38h-14.74l1.08,4.23,7.88-1.94,5.78-2.29ZM479.58,369.09h-22.81c8.35,9.54,18.66,17.69,30.52,22.47-.79-2.8-6.56-22.1-7.71-22.47ZM631.51,384.53c-4.16,3.65-8.46,7.45-11.26,12.29-.01,1.19,5.29,4.17,6.69,5.28,1.73,1.36,4.06,5.13,6.18,4.81,9.59-6.77,33.89-14.03,34.73-27.81.07-1.12-.7-7.16-2.62-5.79-2.43,4.16-6.67,9.32-10.17,12.65-1.8,1.71-13.38,10.82-14.92,11.11-3.9.72-4.12-1.59-3.7-4.81-5.91,2.6-4.99-3.63-4.91-7.72ZM491.85,403.48c.25-.26-2.11-6.17-2.82-6.64-.97-.65-3.4-.75-4.88-1.43-3.31-1.52-6.55-3.27-9.78-4.96l-18.3-14.33c8.98,12.16,21.98,21.35,35.79,27.36ZM589.06,736.89c3.74.76,9.66-.56,13.69,0l-9.78-4.61c-3.71-2.2-2.03-5.3,1.75-5.88,7.19-1.1,15.87.54,22.06-4.61-2.52-.62-10.69,2.7-12.33.4-2.21-3.09,5.34-7.24,7.44-9.5,1.58-1.71,2.8-3.78,4.19-5.64-2.68-.46-3.83,3.92-6.68,3.85-1.91-.05-3.08-2.39-1.92-3.99,20.64-34.15,38.38-70.2,59.54-104.03,5.86-9.36,23.31-37.41,32.78-40.94,4.31-1.6,13.72,2.76,17.81,4.96,19.36,10.46,28.14,30.51,46.91,41.35,4.2-.35,3.27-15.21,1.55-17.88-.67-1.04-5.87-4.4-7.21-5.78-11.21-11.5-17.12-27.39-26.13-40.55-4.73-6.91-10.41-12.96-15.64-19.45-13.34-4.86-24.12-1.52-26.58,13.35-7.89.81-1.59-10.42,1.07-13.69,4.79-5.89,9.65-6.89,17.14-6.38-1.84-2.38-7.02-7.05-7.02-10.17v-10.53c0-1.04,3.29-2.94,4.56-.34,1.09,2.23-1.02,6.88.36,9.82,12.69-5.22,25.63,1.28,37.89,4.91-10.55-12.93-22.03-28.6-39.3-32.27,2.3,3.92,11.89,14.92,8.48,19.35-3.48,4.52-4.96-5.29-6-7.45-1.82-3.79-5.64-6.77-7.45-10.1-.6-1.11-.57-3.05-.68-3.17-.46-.48-6.88.08-8.26.44-5.77,1.49-11.78,8.74-13.99,14.08-5.55,13.41-2.22,30.76,3.85,43.52.5,1.05,2.06,1.04,2.11,2.72.09,3.07-5.67,13.53-7.41,16.88-13.9,26.79-36.28,70.27-60.26,87.84-6.85,5.02-20.78,14.8-28.05,18.27-1.66.79-3.79,1.55-4.84-.6-1.7-3.48,8.6-5.68,8.09-8.01-.15-.68-7.75-8.96-8.98-10.7-26.75-37.65-27.81-112.37-70.53-135.82-10.04-5.51-21.35-8.58-32.75-9.7l30.51,22.47c23.87,19.9,40.76,52.41,49.3,81.95,12.21,42.27,17.72,87.23,22.67,130.88.2.42,7.5,4.63,8.06,4.74ZM806.27,616.86l-34.39-21.05c.67,5.61.42,10.61-2.81,15.43,11.9,5.23,24.17,8.04,37.2,5.62ZM475.72,674.42c-8.94-23.55-15.85-48.94-29.49-70.18-14.52,7.57-28.98,16.37-41.72,26.69-1.79,1.45-12.64,10.67-12.91,11.71-.61,2.34,6.82,12.18,7.76,15.16l14.6,22.25c-2.93-15.6-3.76-51.38,15.76-56.89,9.35-2.64,13.06,2.49,15.32,10.72,4.16,15.14.61,37.61,1.92,54.23.84,10.64,5.28,22.01,11.57,30.54,2.99-12.5,1.52-34.06,12.96-42.48,1.35-.99,2.36-1.88,4.23-1.75ZM765,619.54c1.57.92,4.48-.96,5.47-2.32l-9.11-4.56c-.54.53,3.26,6.66,3.64,6.88ZM811.18,640.03c.32-1.21-.48-1.41-1.04-2.11-1.31-1.66-13.93-14.86-14.91-15.27-2.73-1.12-6.63-.54-9.46-1.07-2.16-.4-8.32-2.64-9.35-2.58-1.21.06-5.64,4.51-7.32,5.23,5.33,4.62,10.59,8.97,17.34,11.42,8.11,2.95,16.54,2.18,24.75,4.37ZM456.06,723.55c-8.04-11.12-13.19-24.39-14.07-38.22s2.81-40.63-2.43-53.02c-4.34-10.25-14.19-3.14-17.8,3.94-6.08,11.92-5.23,28.31-3.5,41.23.77,5.72,2.12,11.37,3.35,17-.11,2.14-3.01,3.32-4.51,1.71l-29.46-49.84c-17.3,17.26-28.03,39.51-39.68,60.68,12.98,7.79,27.65,12.53,42.59,15.01,21.27,3.54,44.13,3.95,65.51,1.51ZM486.86,717.15c1.13-1.76-4.76-15.98-5.71-19.03-1.54-4.93-2.64-12.89-4.68-17.08-.38-.78-.61-1.96-1.78-1.7-2.54.56-6.34,10.07-7.04,12.62-2.72,9.89-2.93,20.79-4.55,30.89,3.01-1.02,22.87-4.31,23.77-5.7ZM495.36,894.83l-.02-38.28,1.43-16.47c-5.63,4.89-11.33,8.24-18.95,5.27.55,16.93,6.88,36.25,17.54,49.48ZM472.91,841.48c-7.74-1.58-9.21-2.08-9.85,5.94-1.42,17.84,10.95,31.7,22.14,43.89.54.1.42-.64.36-1.05-.78-5.34-7.38-17.5-9.32-24.38-.87-3.09-3.32-11.56-3.32-14.22v-10.18Z"/>
  <path d="M523.37,550.25c.38.54.06,2.08-.28,2.74-.77,1.49-11.7,6.26-14.16,7.6-3.13,1.71-10.19,6.7-12.83,7.54-2.46.78-4.25-.06-3.44-2.72.43-1.42,6.17-4.51,7.85-5.51,3.77-2.25,15.91-9.25,19.42-10.12.88-.22,3.06-.06,3.44.48Z"/>
  <path d="M570.98,309.95c-.82.67-7.24,1.37-9.42,2.15-2.97,1.06-9.45,6.18-11.23,6.33s-2.83-2.03-1.67-3.78c2.64-3.97,16.73-9.98,21.3-8.6,1.8.54,2.38,2.78,1.02,3.9Z"/>
  <path d="M429.2,471.68c2.31-.49,3.6.61,2.9,2.91-.27.9-14.13,10.8-15.12,10.89-1.3.12-2.59-1.58-2.25-2.9.38-1.46,12.68-10.53,14.47-10.91Z"/>
</svg>