<?xml version="1.0" encoding="UTF-8"?>
<svg id="Outline" xmlns="http://www.w3.org/2000/svg" viewBox="0 0 1080 1080">
  <defs>
    <style>
      .cls-1 {
        fill: #6b4a3a;
      }

      .cls-2 {
        fill: #8a6b2e;
      }

      .cls-3 {
        fill: #fce4ec;
      }

      .cls-4 {
        fill: #b9c2c9;
      }

      .cls-5 {
        fill: #f48fb1;
      }

      .cls-6 {
        fill: #8a5c49;
      }

      .cls-7 {
        fill: #6e9f5f;
      }

      .cls-8 {
        fill: #b58e3a;
      }

      .cls-9 {
        fill: #f8bbd0;
      }
    </style>
  </defs>
  <path class="cls-3" d="M523.83,319.14c.03-.57-.05-1.16-.13-1.46-.95-3.51-3.55-8.14-4.82-11.97-2.56-7.69-3.81-13.86-4.13-22.04-.16-3.9.15-7.84.02-11.74,3.42,1.44,6.8,2.81,9.53,5.41-2.1,9.29-1.23,18.65-.18,28.03.11.94,1.84,1.17,2.09.9.01,0,.02-.03.03-.06l.82.12c-.64,4.28-.84,8.58-1.14,12.95l-2.09-.14Z"/>
  <path class="cls-5" d="M523.21,320.45c.43-.15.59-.72.62-1.31l2.09.14c-.07,1.11-.15,2.23-.25,3.35-4.34-.25-8.37,1.44-12.21,3.23-3.63-3.89-5.76-9.66-9.57-13.34-3.05-2.94-7.46-3.56-9.75-7.15-2.86-4.51-1.97-12.1-3.75-17.51-2.08-6.35-6.25-8.48-11.91-9.5-.94-.18-1.93-.32-2.96-.44l17.15-7.1c3.21-1.37,13.98-2.83,16.38-.53.96.92,1.16,8.3,1.52,10.48,1.73,10.53,4.63,27.98,9.91,36.96.61,1.03,1.27,3.24,2.73,2.72Z"/>
  <path class="cls-5" d="M576.09,313.92c5.2,5.76,11.43,11.98,19.9,10.9-10.43,13.04-22.19,20.96-39.39,14.04-6.83-2.75-6.07-3.96-10.2-8.88-2.01-2.4-4.57-4.14-7.01-6.04-.25-1.03,2.63-8.24,3.57-8.97,2.13-1.68,10.83-4.24,13.57-4.27,1.87-.02,5.3,1.8,6.21,1.3,1.01-.54-.36-1.61-.82-1.91-3.98-2.62-10.72-.45-14.99.54,1.87-2.46,4.77-4.91,7.47-6.43,12.43-7,14.63,1.91,21.69,9.72Z"/>
  <path class="cls-3" d="M509.88,325.61c.88.3,1.55.98,2.15,1.66-3.29,1.5-7.07,9.34-8.94,10.67-1.03.73-7,.98-8.95,1.4-11.85,2.58-20.37,13.31-27.88,22,4.86-14.4,4.9-31.56,16.34-42.8,3.82-3.76,9.84-8.23,15.51-7.33,3.6.58,9.01,8.7,10.66,11.97h-8.99c-3,0-12.36,3.86-14.72,6-1.19,1.08-5.93,8.01-4.63,9.26.11.11,1.26.18,1.67-.34,1.26-1.59,1.84-4.79,3.78-6.86,4.28-4.58,18.25-7.61,24-5.63Z"/>
  <path class="cls-9" d="M573.64,249.58c-.8,1.81-1.75,3.66-2.33,5.56-3.81,12.3-1.21,24.57-5.61,37.2-.11.34-.23.67-.36,1-.33.87-2.42,6.09-2.68,6.31-.35.3-2.38-.03-3.34.21-9.22,2.31-20.58,13.54-21.66,23.32-3.09-.46-6.09-1.46-9.27-1.09-.41-5.37.57-10.68,2.63-15.64,1.54-3.7,7.67-14.93,10.25-17.56,1.62-1.66,9.63-5.96,4.88-8.82-7.26-4.35-15.72,13.58-17.36,18.69-.81,2.52-1.35,5.04-1.73,7.57l-.82-.12c.28-.88-1.07-9.52-1.14-11.09-1.22-28.68,9.54-33.32,33.95-41.33,1.86-.61,13.98-4.66,14.59-4.21Z"/>
  <path class="cls-9" d="M547.2,334.65c.07.19.13,3.75.09,3.99-1.1,7.61-10.95,14.88-15.61,20.81-7.72,9.82-11.98,20.91-6.01,32.96-18.34-2.02-25.98-26.53-24.52-42.24,1.01-10.82,11.14-25.14,22.89-25.35-3.36,5.55-7.64,12.04-7.11,18.83.04.59.03,2.4.84,2.41.94.02,1.22-8.04,2.2-9.23.84-2.6,5.39-11.51,7.85-12.33,5.41-1.79,12.16,1.63,15.86,5.48.63.66,3.33,4.07,3.52,4.67Z"/>
  <path class="cls-9" d="M648.86,485.11c.18.16,2.08,3.33,2.75,4.07,4.08,4.54,9.21,8.61,9.82,15.25.89,9.79-2.9,16.74-12.02,20.47,1.97-2.61,6.97-6.47,6.55-10.08-.32-2.8-4.76,5.25-5.18,5.73-.56.64-4.03,3.86-4.64,3.26l5.08-9.37c.52-10.74-1.93-.12-3.51,3.03-1.89,3.77-6.2,8.27-10.29,9.61,1.95-3.93,3.45-7.3,3.74-11.79.2-3.07-1.16-8.17-.77-10.03.41-1.94,3.57-7.11,4.53-9.65,1.23-3.24,2.37-6.75,2.86-10.19-.12-.54,1-.38,1.08-.31Z"/>
  <path class="cls-9" d="M633.54,527.15c.82.52,3.41,8.52,3.36,10-.21,6.46-11.2,12.15-16.79,13.24-7.23,1.4-13.69-.54-20.85.68,3.6-8.86,5.96-18.46,14.54-23.89,3.72-2.35,15.76-7.84,17.62-1.74-4.43.64-6.18,4.69-9.08,7-1.59,1.27-4.22,1.93-5.3,2.78-.51.41-.44,1.56-.33,1.67.66.68,5.3-1.67,6.17-2.26,2.1-1.44,8-9.17,10.66-7.48Z"/>
  <path class="cls-3" d="M640.93,560.31c1.38-5.36,3.23-7.61,2.44-13.83-.3-2.38-2.12-4.97-1.86-7.4,16.44,16.88,2,33.88-16.08,39.8,1.1-2.97,3.29-5.41,4.46-8.36,2.6-6.55,1.56-10.52,2.06-17.01.46-6.02,1.49-4.51,4.67-7.87.82-.87,2.8-4.96,3.53-3.5.4.82,1.63,6.58,1.65,7.59.05,2.82-4.69,13.51-2.74,14.97,1.71,1.28,1.7-3.74,1.87-4.39Z"/>
  <path class="cls-5" d="M630.71,498.08c8.03,3.33,7.71,17.78,5.07,24.64-4.56-7.07-14.4-7.19-18.46-14.51l-3.88-9.48c5.72.03,11.77-2.94,17.27-.65Z"/>
  <path class="cls-5" d="M676.39,539.63c4.26,11.95-4.63,17.21-6.27,28.34-3.6-4.79-5.84-9.62-11.84-11.87-1.93-.73-4.04-.83-5.9-1.72-.08-7.38-4.17-14.55-9.78-19.12-.86-.71-2.22-.74-2.45-1.63,4.68-1.31,16.24-.26,19.13,4.06,1.05,1.58-.75,2.17-.36,3.03,1.54,3.46,8.09-1.08,2.75-6l-4.9-3.28c2.31-.47,8.97-3.32,10.83-3.14,2.88.3,7.85,8.69,8.79,11.33Z"/>
  <path class="cls-4" d="M577.46,525.44l8.17-8.72c-.69,1.61-2.74,8.38-3.81,9.04-.69.42-3.24-.75-4.36-.32Z"/>
  <path class="cls-7" d="M625.43,481.29c-2.15,2.4-5.8,4.41-8.91,2.63l-4.72-3.72c4.36-1.25,9.31.11,13.63,1.09Z"/>
  <path class="cls-7" d="M631.42,440.94c-1.98,8.57-2.44,20.18-10.89,25.08-1.05-9.98,3.1-18.98,10.89-25.08Z"/>
  <path class="cls-7" d="M478.25,565.52c0-2.01-.4-6.63,0-8.18.04-.19.88-.95,1.08-.82,4.66,8.66,12.71,9.28,11.31,20.85-.1.83-.55,3.37-1.48,3.68-1.02-3.68-5.05-5.79-7.33-8.76-.9-1.18-3.58-5.56-3.58-6.77Z"/>
  <path class="cls-7" d="M585.35,644.85c-2.85-.07-6.73-5.43-8.98-7.37-1.06-.92-2.56-1.39-3.27-2.44,6.32-1.34,7.63,4.15,10.9,7.92.56.65,1.57.73,1.63.81.09.09.2,1.1-.28,1.08Z"/>
  <path class="cls-7" d="M555.11,656.3c18.32,2.3,8.65,17.99,10.89,29.98-9.18-7.46-6.38-20.31-10.89-29.98Z"/>
  <path class="cls-8" d="M371.25,955.19c12.8-2.66,13.92,16.39,1.5,15.73-9.15-.49-9.49-14.07-1.5-15.73Z"/>
  <path class="cls-6" d="M461.35,808.13l.54,1.58-3.82,14.51-44.13-16.93c-.45-.62,3.19-8.59,4.62-8.72,1.12-.1,5.09,1.81,6.29,2.45,1.22.66,7.58,6.1,8.15,3.29.25-1.26-4.6-4.54-5.71-5.19-1.18-.69-6.92-2.91-7.14-3.23-.5-.7.88-4.34,1.38-4.7,1.01-.73,9.18,2.63,10.92,3.32,9.86,3.93,19.22,9.28,28.9,13.62Z"/>
  <path class="cls-6" d="M405.29,883.28c6.91,1.78,16.73,1.3,23.72-.09.72-.15,1.02,0,.71.72l-18.37,25.92-2.34-1.66c1.81-2.86-4.99-2.05-6.26-2.18-7.06-.69-14.45-3.21-20.45-6.92-.43-3.95.92-7.7,1.1-11.61,5.46,4.61,14.38,11.63,21.68,12.43,2.37.26,3.33-1.37,1.38-2.51-1.17-.69-4.06-1.05-5.81-1.82-3.74-1.63-15.76-8.59-16.15-12.75-.1-1.08,3.16-16.08,3.87-16.54,6.43-.59,13.11,1.56,18.99,4.04,1.39.58,6.49,4.36,7.11,2.15.6-2.16-7.02-5.32-8.74-5.98-5.6-2.14-9.37-2.16-14.98-3-.58-.09-1.02-.23-1.26-.81l9.15-25.15c.6-.42,3.53.84,4.37,1.15,11.8,4.32,23.48,10.15,35.3,14.32,2.37.83,6.66,2.58,4.13-1.55l-41.62-16.58c-.22-.17-.4-.37-.48-.64-.2-.71,5.52-12.81,6.19-13.32s1.17-.67,1.95-.28l43.53,21.68c.41.71-1.14,4.7-1.83,4.76-.92.07-11.83-7.43-16.62-7.89-2.12-.2-3.34,1.06-1.32,2.44,1.09.75,6.29,2.15,8.33,3.12,1.19.57,8.54,4.66,8.65,5.36l-5.1,10.7c-6.32-1.91-12.59-4.89-19.3-4.95l.33,2.23,17.66,5.41-3.04,4.81c-10.71-1.34-20.63-4.41-30.03-9.63-1.89-1.05-4.3-3.23-5.88-3.97-1.46-.68-2.71.21-2.08,1.53,2.72,5.7,29.08,14.99,36.13,14.34.65.63-4.8,9.16-5.45,9.54-.44.26-8.84,1.28-10.09,1.36-5.13.32-12.04.37-16.92-1.06-1.58-.46-8.2-3.98-8.68-3.84-.79.23-1.16,2.03-.76,2.66.34.54,8.02,3.74,9.28,4.06Z"/>
  <path class="cls-6" d="M404.11,920.18l-10.67,24.51c-1.31.41-2.74-1.85-3.87-2.61-2.82-1.9-6.1-3.41-9.41-4.22-1.37-.33-4.54.17-4.92-1.11-.25-.86,3.15-7.66,3.65-9.37,1.05-3.6,1.66-7.83,1.78-11.57l23.44,4.37Z"/>
  <path class="cls-1" d="M371.29,942.14c25.65-2.4,33.62,31.18,10.66,40.65-33.43,13.8-45.08-37.42-10.66-40.65ZM372.23,975.78c19.3,1.5,18.27-28.86-1.52-25.49-13.74,2.34-13.45,24.32,1.52,25.49Z"/>
  <path class="cls-1" d="M411.35,909.83l-5.58,7.87-24.3-5.14c-.96-3.29.51-6.53.29-9.83,5.37,1.65,10.06,4.31,15.7,5.29,1.82.32,10.75,1.42,11.55.15l2.34,1.66Z"/>
  <path class="cls-1" d="M456.44,826.67c.67.39.53.87.46,1.5-.12.99-3.04,10.17-3.47,10.76-.44.6-.68.76-1.33.28l-43.09-21.27c-.43-.25-.52-.5-.47-.98.08-.87,3.42-7.25,4-7.34l43.9,17.05Z"/>
  <path class="cls-1" d="M472.55,773.5c.32.2.24.43.19.74-.07.43-3.24,6.2-3.79,7.7-.95,2.59-1.89,5.72-2.15,8.48-1.23.15-2.3-.3-3.42-.68-8.42-2.84-17.02-8.28-25.63-10.69l-1.35,1.27.85,1.36,28.21,11.98c-.84,3.52-1.39,7.21-2.47,10.67-.22.68.42.91-.8.79-13.05-5.5-25.42-12.7-39-16.89,1.43-2.1,5.7-14.31,7.08-15,2.84-1.42,8.41,1.69,11.44,2.24,2.36.43,2.22-2.02-.22-3.08-2.83-1.23-7.05-2.23-10.12-2.15l1.64-4.91,27.23,10.14c2.3.82,3.18-1.68.95-2.62l-26.23-9.75c-1.49-.13.06-4.15.25-4.29,1.62-1.18,33.5,12.04,37.34,14.69Z"/>
  <path class="cls-2" d="M436.54,701h8.45c.27,1.55-.36.9-1.19,1.23-5.85,2.34-12.07,4.36-16.46,9.19-.93,1.02-2.81,4.85-3.87,4.85-.24,0-2.89-3.43-2.95-3.66-.32-1.22,4.5-5.75,5.68-6.69,2.03-1.61,7.93-4.92,10.34-4.92Z"/>
  <path class="cls-2" d="M448.81,694.46l-1.49,2.1c-11.69-2.27-23.02,1.89-29.9,11.57-1.33.2-6.16-4.85-7.6-6.02-2.11-1.72-4.42-3.39-6.82-4.67-.15-.94.26-1.3.82-1.9,5.91-6.28,18.73-9.24,27.03-7.92,6.41,1.01,11.53,6.15,17.96,6.84Z"/>
  <path class="cls-2" d="M512.6,740.56c.1,3.86-1.18,11.7-6.55,10.05,1.68-6.6,1.37-13.17-.83-19.61-1.17-3.42-4.12-5.76-1.89-9.28,4.86,4.03,9.12,12.51,9.27,18.84Z"/>
  <path class="cls-2" d="M508.51,714.07c2.39,1.64,5.74,5.65,8.5,7.87,10.7,8.6,20.59,12.89,25.81,27.06.26.7,1.16,1.96.3,2.44l-27.01-2.46c2.9-9.36.15-18.5-5.26-26.34-2.22-3.22-6.44-5.34-3.7-9.09.78-.22.91.21,1.36.52Z"/>
  <path class="cls-8" d="M526.47,689.03c3.97,11.08,5.3,23.16,1.11,34.31-6.04-3.83-12.22-8.28-16.56-13.97,4.92-7.37,10.91-14.14,14.11-22.54.76,0,1.12,1.58,1.34,2.2Z"/>
  <path class="cls-8" d="M450.98,673.46c1.08-.96,11.24-9.25,12-8.44-2.51,8.4-3.39,16.32-2.19,25.07-7.33,1.53-14.24-.43-20.45-4.35-.73-1.01,9.33-11.1,10.64-12.28Z"/>
  <path class="cls-8" d="M498.9,728.33c4.08,8.06,3.66,15.84,1.99,24.49-8.67,3.68-15.59,9.98-22.44,16.26l-3.06.51c-8.52-4.84-17.65-8.57-26.84-11.9-2.03-.73-11.47-3.25-12.01-4.34-.94-1.91.21-3.95.27-5.74.23-6.76-.49-11.15-3.51-17.19-1.07-2.13-5.91-8.31-5.66-9.93.92-6.03,11.56-12.72,17.35-12.95.21,4.74-2.66,7.9,1.62,11.74,3.76,3.37,7.56,2.87,7.67,9.83.06,4.13-2.96,15.13-8.71,9.75-3.14-2.94,1.31-3.18,1.89-4.03,1.04-1.52.47-3.67-1.64-3.89-6.72-.69-8.27,8.24-2.43,12.28,12.87,8.89,20.81-15.66,11.69-24.22-.91-.85-7.17-3.89-5.72-5.46.16-.17,3.43,1.13,4.63,1.13,3.85.02,8.38-2.69,8.48-6.88.12-5.16-7.08-8.11-7.69-4.32-.55,3.34,4.37,2.88,1.94,5.17-2.55,2.4-7.26.67-7.4-3.02-.08-2.04,3.65-9.01,5.5-9.79,1.72-.73,11.48-1.76,13.89-1.91,15.75-.97,27.31.78,35.61,15.43-3.58,3.8-4.39,15.12-11.02,14.53-2.3-.21-8.58-3.67-6.39-6.29,1.97-2.36,7.16.86,9.17-.07,1.39-.64,2.31-2.7,1.11-3.85-1.35-1.29-6.96-1.96-8.89-1.79-5.3.46-8.72,5.37-5.92,10.34.87,1.55,3.33,2.26,2.95,4.4-8.69,1.02-18.09,9.32-16.32,18.79,1.58,8.5,18.93,7.85,16.85-2.69-.48-2.47-5.74-5.66-7.35-3.01-1.83,3,2.72,3.94,2.46,5.17-.35,1.64-6.4,3.09-7.05-1.12-1.38-8.93,9.63-11.73,15.9-13.46,1.09-.3,1.95-1.1,3-1.37.78-.19,5.79-.81,6.08-.6Z"/>
  <path class="cls-4" d="M604.71,453.76c.25,4.04.62,12.04.29,15.82-.16,1.78-11.77,30.27-13.25,32.81-.77,1.31-1.66,1.39-2.11,1.98-3.43,4.59-6.88,10.52-10.8,14.56-1.58,1.62-10.86,8.4-11.09,9.08-.21.64-.4,1.94.22,2.4,1.46,1.08,9.82-1.76,11.11,2.36l-15.25,38.47c-.98.21-1.08-.29-1.55-.9-1.68-2.21-4.34-7.77-5.82-10.53-1.64-3.06-6.39-11.42-7.1-14.18-.16-.62-.38-1.19-.23-1.85l47.68-117.56c4.54,8.03,7.32,18.28,7.9,27.54Z"/>
  <path class="cls-4" d="M595.35,424.17l-47.34,117.09c-1,.77-8.05-16.48-8.57-17.86-1.21-3.15-5.32-13.43-4.94-16.07,13.1-31.8,25.07-64.09,38.34-95.81.99-2.37,2.21-6.01,3.4-8.05.27-.46-.14-.9.94-.69,6.58,6.56,14.84,12.42,18.17,21.39Z"/>
  <path class="cls-4" d="M613.26,447.39c-2.82-11.34-4.85-22.59-11.55-32.56,37.4-93.92,76.08-187.54,113.97-281.35.58-.82.09-3.18-.86-2.5-38.57,93.24-76.18,187-114.2,280.52-.61.81-.51.48-1.1.01-1.07-.85-2.68-3.7-3.79-4.92-1.6-1.77-3.69-3.86-5.45-5.46-1.96-1.79-8.7-6.12-9.61-7.33-.21-.29-.43-.48-.26-.87l101.41-252.43,2.19-2.71,43.63-40.86c1.36-.03.72,8.67.79,10.1.88,18.33,2.64,36.89,2.38,55.21-38.86,95.47-78.37,190.73-116.84,286.33-.78.16-.57-.62-.71-1.18Z"/>
  <path class="cls-4" d="M551.2,571.61c2.87,6.08,6.64,8.82,5.51,16.23l-32.2,78.47c-1.81,2.27-8.22,3.71-11.11,4.15-1.31.21-9.81-.47-7.12,3.32,1.42,2.01,13.52-.82,16.12-1.67l-14.45,32.71c-.95.22-4.92-5.5-5.97-6.56-3.25-3.26-7.79-6.49-12.27-7.64l-.02-.76,55.05-134.97c2.13,5.55,3.91,11.34,6.46,16.72Z"/>
  <path class="cls-4" d="M543.4,552.22l-55.91,137.87c-6.74-1.73-14.36-1.33-21.22-.55-.69-3.2-1.6-6.53-.86-9.83,20.04-49.5,38.98-99.49,59.45-148.8.36-.86,4.09-10.23,4.62-9.82,4.16,10.59,10.26,20.34,13.92,31.13Z"/>
  <path d="M573.64,249.58c-.61-.45-12.73,3.6-14.59,4.21-24.41,8.01-35.17,12.65-33.95,41.33.07,1.57,1.42,10.21,1.14,11.09-.01.03-.02.05-.03.06-.25.27-1.98.04-2.09-.9-1.05-9.38-1.92-18.74.18-28.03-2.73-2.6-6.11-3.97-9.53-5.41.13,3.9-.18,7.84-.02,11.74.32,8.18,1.57,14.35,4.13,22.04,1.27,3.83,3.87,8.46,4.82,11.97.08.3.16.89.13,1.46-.03.59-.19,1.16-.62,1.31-1.46.52-2.12-1.69-2.73-2.72-5.28-8.98-8.18-26.43-9.91-36.96-.36-2.18-.56-9.56-1.52-10.48-2.4-2.3-13.17-.84-16.38.53l-17.15,7.1c1.03.12,2.02.26,2.96.44l-.33,1.77c-.07-.01-.13-.02-.18-.02h-8.17c-1.72,0-.35-2.06.98-2.84,4.17-2.43,24.44-9.86,29.01-10.24,3.19-.27,6.51,0,9.53,1.08.21-4.01-.3-8.29,0-12.27.35-4.73,1.46-9.99,4.89-13.64,4.88-5.19,11.4-1.72,9.13,4.78-1.31,3.77-5.28,5.5-6.43,8.28-1.59,3.82-1.2,9.58-2.17,13.66.14,1.27,5.36,3.14,6.94,4.01,1.13.62,2.22,1.38,3.17,2.26,4.47-12.8,15.55-17.04,27.25-21.26,5.31-1.92,11.89-4.14,17.31-5.59,10.39-2.78,5.29,2.29,3.55,8.45-2.77,9.79-1.29,19.65-3.3,29.42-.22,1.09-1.29,3.89-2.36,6.71l-1.6-.58c4.4-12.63,1.8-24.9,5.61-37.2.58-1.9,1.53-3.75,2.33-5.56Z"/>
  <path d="M544.74,554.89l-55.05,134.97.02.76c4.48,1.15,9.02,4.38,12.27,7.64,1.05,1.06,5.02,6.78,5.97,6.56l14.45-32.71c-2.6.85-14.7,3.68-16.12,1.67-2.69-3.79,5.81-3.11,7.12-3.32,2.89-.44,9.3-1.88,11.11-4.15l32.2-78.47c1.13-7.41-2.64-10.15-5.51-16.23-2.55-5.38-4.33-11.17-6.46-16.72ZM543.4,552.22c-3.66-10.79-9.76-20.54-13.92-31.13-.53-.41-4.26,8.96-4.62,9.82-20.47,49.31-39.41,99.3-59.45,148.8-.74,3.3.17,6.63.86,9.83,6.86-.78,14.48-1.18,21.22.55l55.91-137.87ZM527.82,324.5c-2.46.82-7.01,9.73-7.85,12.33-.98,1.19-1.26,9.25-2.2,9.23-.81,0-.8-1.82-.84-2.41-.53-6.79,3.75-13.28,7.11-18.83-11.75.21-21.88,14.53-22.89,25.35-1.46,15.71,6.18,40.22,24.52,42.24-5.97-12.05-1.71-23.14,6.01-32.96,4.66-5.93,14.51-13.2,15.61-20.81.04-.24-.02-3.8-.09-3.99-.19-.6-2.89-4.01-3.52-4.67-3.7-3.85-10.45-7.27-15.86-5.48ZM595.35,424.17c-3.33-8.97-11.59-14.83-18.17-21.39-1.08-.21-.67.23-.94.69-1.19,2.04-2.41,5.68-3.4,8.05-13.27,31.72-25.24,64.01-38.34,95.81-.38,2.64,3.73,12.92,4.94,16.07.52,1.38,7.57,18.63,8.57,17.86l47.34-117.09ZM596.81,426.22l-47.68,117.56c-.15.66.07,1.23.23,1.85.71,2.76,5.46,11.12,7.1,14.18,1.48,2.76,4.14,8.32,5.82,10.53.47.61.57,1.11,1.55.9l15.25-38.47c-1.29-4.12-9.65-1.28-11.11-2.36-.62-.46-.43-1.76-.22-2.4.23-.68,9.51-7.46,11.09-9.08,3.92-4.04,7.37-9.97,10.8-14.56.45-.59,1.34-.67,2.11-1.98,1.48-2.54,13.09-31.03,13.25-32.81.33-3.78-.04-11.78-.29-15.82-.58-9.26-3.36-19.51-7.9-27.54ZM715.68,133.48c-37.89,93.81-76.57,187.43-113.97,281.35,6.7,9.97,8.73,21.22,11.55,32.56.14.56-.07,1.34.71,1.18,38.47-95.6,77.98-190.86,116.84-286.33.26-18.32-1.5-36.88-2.38-55.21-.07-1.43.57-10.13-.79-10.1l-43.63,40.86-2.19,2.71-101.41,252.43c-.17.39.05.58.26.87.91,1.21,7.65,5.54,9.61,7.33,1.76,1.6,3.85,3.69,5.45,5.46,1.11,1.22,2.72,4.07,3.79,4.92.59.47.49.8,1.1-.01,38.02-93.52,75.63-187.28,114.2-280.52.95-.68,1.44,1.68.86,2.5ZM641.51,539.08c-.26,2.43,1.56,5.02,1.86,7.4.79,6.22-1.06,8.47-2.44,13.83-.17.65-.16,5.67-1.87,4.39-1.95-1.46,2.79-12.15,2.74-14.97-.02-1.01-1.25-6.77-1.65-7.59-.73-1.46-2.71,2.63-3.53,3.5-3.18,3.36-4.21,1.85-4.67,7.87-.5,6.49.54,10.46-2.06,17.01-1.17,2.95-3.36,5.39-4.46,8.36,18.08-5.92,32.52-22.92,16.08-39.8ZM646.14,523.81c.61.6,4.08-2.62,4.64-3.26.42-.48,4.86-8.53,5.18-5.73.42,3.61-4.58,7.47-6.55,10.08,9.12-3.73,12.91-10.68,12.02-20.47-.61-6.64-5.74-10.71-9.82-15.25-.67-.74-2.57-3.91-2.75-4.07-.08-.07-1.2-.23-1.08.31-.49,3.44-1.63,6.95-2.86,10.19-.96,2.54-4.12,7.71-4.53,9.65-.39,1.86.97,6.96.77,10.03-.29,4.49-1.79,7.86-3.74,11.79,4.09-1.34,8.4-5.84,10.29-9.61,1.58-3.15,4.03-13.77,3.51-3.03l-5.08,9.37ZM595.99,324.82c-8.47,1.08-14.7-5.14-19.9-10.9-7.06-7.81-9.26-16.72-21.69-9.72-2.7,1.52-5.6,3.97-7.47,6.43,4.27-.99,11.01-3.16,14.99-.54.46.3,1.83,1.37.82,1.91-.91.5-4.34-1.32-6.21-1.3-2.74.03-11.44,2.59-13.57,4.27-.94.73-3.82,7.94-3.57,8.97,2.44,1.9,5,3.64,7.01,6.04,4.13,4.92,3.37,6.13,10.2,8.88,17.2,6.92,28.96-1,39.39-14.04ZM622.34,532.44c2.9-2.31,4.65-6.36,9.08-7-1.86-6.1-13.9-.61-17.62,1.74-8.58,5.43-10.94,15.03-14.54,23.89,7.16-1.22,13.62.72,20.85-.68,5.59-1.09,16.58-6.78,16.79-13.24.05-1.48-2.54-9.48-3.36-10-2.66-1.69-8.56,6.04-10.66,7.48-.87.59-5.51,2.94-6.17,2.26-.11-.11-.18-1.26.33-1.67,1.08-.85,3.71-1.51,5.3-2.78ZM404.11,920.18l-23.44-4.37c-.12,3.74-.73,7.97-1.78,11.57-.5,1.71-3.9,8.51-3.65,9.37.38,1.28,3.55.78,4.92,1.11,3.31.81,6.59,2.32,9.41,4.22,1.13.76,2.56,3.02,3.87,2.61l10.67-24.51ZM413.94,807.29l44.13,16.93,3.82-14.51-.54-1.58c-9.68-4.34-19.04-9.69-28.9-13.62-1.74-.69-9.91-4.05-10.92-3.32-.5.36-1.88,4-1.38,4.7.22.32,5.96,2.54,7.14,3.23,1.11.65,5.96,3.93,5.71,5.19-.57,2.81-6.93-2.63-8.15-3.29-1.2-.64-5.17-2.55-6.29-2.45-1.43.13-5.07,8.1-4.62,8.72ZM460.24,775.47l-27.23-10.14-1.64,4.91c3.07-.08,7.29.92,10.12,2.15,2.44,1.06,2.58,3.51.22,3.08-3.03-.55-8.6-3.66-11.44-2.24-1.38.69-5.65,12.9-7.08,15,13.58,4.19,25.95,11.39,39,16.89,1.22.12.58-.11.8-.79,1.08-3.46,1.63-7.15,2.47-10.67l-28.21-11.98-.85-1.36,1.35-1.27c8.61,2.41,17.21,7.85,25.63,10.69,1.12.38,2.19.83,3.42.68.26-2.76,1.2-5.89,2.15-8.48.55-1.5,3.72-7.27,3.79-7.7.05-.31.13-.54-.19-.74-3.84-2.65-35.72-15.87-37.34-14.69-.19.14-1.74,4.16-.25,4.29l26.23,9.75c2.23.94,1.35,3.44-.95,2.62ZM452.1,839.21c.65.48.89.32,1.33-.28.43-.59,3.35-9.77,3.47-10.76.07-.63.21-1.11-.46-1.5l-43.9-17.05c-.58.09-3.92,6.47-4,7.34-.05.48.04.73.47.98l43.09,21.27ZM478.81,319.65c3.75-4.39,9.88-9.58,15.79-10.11-7.46-7.08-1.92-21.63-10.72-27.17-.82-.51-4.65-2.05-5.73-2.24l.33-1.77c5.66,1.02,9.83,3.15,11.91,9.5,1.78,5.41.89,13,3.75,17.51,2.29,3.59,6.7,4.21,9.75,7.15,3.81,3.68,5.94,9.45,9.57,13.34,3.84-1.79,7.87-3.48,12.21-3.23.1-1.12.18-2.24.25-3.35.3-4.37.5-8.67,1.14-12.95.38-2.53.92-5.05,1.73-7.57,1.64-5.11,10.1-23.04,17.36-18.69,4.75,2.86-3.26,7.16-4.88,8.82-2.58,2.63-8.71,13.86-10.25,17.56-2.06,4.96-3.04,10.27-2.63,15.64,3.18-.37,6.18.63,9.27,1.09,1.08-9.78,12.44-21.01,21.66-23.32.96-.24,2.99.09,3.34-.21.26-.22,2.35-5.44,2.68-6.31.13-.33.25-.66.36-1l1.6.58c-1.32,3.51-2.66,7.05-2.38,7.35.12.14,1.97.39,3.28,1.36,8.17,6.03,15.16,24.21,28.35,20.75,3.55-.94,5.8-6.17,9.26-5.47.05.54-.03.88-.18,1.15-.2.36-.54.6-.9,1.04-4.8,5.79-16.8,18.33-23.25,21.46-8.45,4.09-18.56,3.59-26.91-.48-.34.34,3.41,5.29,3.9,6.17,4,7.28,4.04,13,6.18,20.54,1.91,6.73,6.45,15.98,10.4,21.76.39.57,1.53,2.88,2.4,2.23l29.05-72.37,70.98-176.8.93-3.43,50.32-47.26c5.05-3.03,2.88,3.77,2.98,6.84.68,21.67,2.84,43.48,3.15,65.27-39.9,95.45-78.56,191.46-117.84,287.18-3.92,9.54-7.84,19.08-11.77,28.62-.22,1.15-.1.75.55.55,5.11-1.55,10.17-7.25,10.86-12.59.91-7.06.39-10.87,2.39-15.75.78-1.91,1.95-3.97,3.74-6.46,1.85-2.57,9.65-10.84,12.32-11.68,5.23-1.64,1.11,4.23.52,5.98-2.92,8.65-2.46,20.99-9.64,27.98-1.77,1.72-5.88,3.14-6.96,4.21-.18.18-2.21,4.16-2.31,4.51-.3,1.02.17.72.79.8,3.69.45,10.17.76,13.52,1.75.92.27,1.69,1.21,1.42,2.23-.53,2.03-9.88,7.77-12.27,7.99-7.31.68-9.94-8.93-16.85-3.81-6.61,13.71-11.65,28.25-17.71,42.25,6.02,2.91,12.81,2.67,19.3,3.44,5.33-5.67,11.95-10.19,19.96-10.78.27-1.28-.17-.88-.7-1.22-2.88-1.86-5.74-2.38-8.25-5.36-2.48-2.96-2.78-6.51-4.37-9.81-1.01-2.08-5.21-5.36-1.18-7.11,3.37-1.46,15.4-2.58,19.09-2.08,4.23.58,6.73,3.79,9.58,6.5,3.38-5.72,3.89-14.05,6.27-19.63,2.61-6.09,5.7,1.94,7.38,4.08,6.9,8.77,13.65,11.95,12.51,25.08-.38,4.37-2.1,6.17-3.36,9.74-.22.62-.61,1.19.39,1.44,1.96.49,7.01-4.2,8.45-5.71,2.37-2.49,7.49-11.28,8.94-12.31.96-.69,1.95-.56,3.03-.51,1.32,1.31-4.13,8.87-5.22,10.31-.87,1.14-1.99,2.53-2.94,3.61-1.14,1.28-6.88,6.1-7.1,6.53-1.03,2.06,5.02.26,5.57.11,1.72-.45,3.66-1.12,5.33-1.76,1.7-.66,7.91-5.22,8.22-1.62.15,1.73-2.03,2.54-3.3,3.27-3.36,1.96-7.22,2.94-10.91,4.09,4.37,4.47,8.2,10.15,8.74,16.6.95,11.33-7.55,17.38-7.67,27.31-.02,1.74,2.73,9.38-1.23,8.36-1.81-.46-4.06-7.04-5.2-9.03-3.53-6.15-6.83-11.22-14.57-12.04-.72.14-1.65,4.74-2.15,5.87-3.95,8.92-17.45,16.22-26.3,19.49-12.24,4.54-1.54-6.71.5-10.4.93-1.69,3.72-7.82,3.72-9.37v-11.45c0-.1,1.37-1.12-.27-.82-2.68.49-6.1,2.86-9.28,2.72l-22.61.29c-1.27-.63-1.29-2.46-.97-3.69l7.51-17.3c-6.35-.14-12.54-1.25-18.53-3.27-.67.73,5.1,15.46,4.24,19.23-1.04,4.62-7.75,4.88-8.9-.67l-.79-5.48-13.35,34.05c1.98,19.97,1.07,41.24-7.37,59.72,7.29-2.01,15.6-9.15,22.86-4.05,2.44,1.71,3.41,4.2,5.21,6.24,2.21,2.52,9.48,6.94,1.52,8.59-8.68,1.79-9.98-7.1-16.67-9.79-4.59-1.86-10.39,1.84-14.19,4.56-1.33.95-8.8,7.19-7.45,8.63,9.03,1.35,20.33,3.41,21.28,14.43.53,6.15-1.78,11.89-1.05,17.95.3,2.52,4.01,9.73-1.97,8.02-5.79-1.67-10.2-10.8-11.67-16.18-1.34-4.87-1.12-11.59-2.89-15.66-.91-2.09-4.32-6.67-6.96-5.58-.82.35-7.76,7.57-9.56,9-4.61,3.64-11.18,5.91-11.71,12.83-.12,1.58,1.15.06,2.56.65,2.78,1.16,2.79,6.78,3.59,9.55,1.12,3.83,2.8,7.86,3.52,11.75,1.74,9.52.29,19.34-1.97,28.65,4.79,3.96,9,8.71,12.03,14.17,1.56,2.82,7.37,13.5,3.15,15.36-2.86,1.26-14.6-1.68-18.77-1.92-24.05-1.4-28.82,3.12-45.82,17.45-4.83,4.07-5.91,2.9-8.7,9.84-8.36,20.77-10.51,45.85-19.35,67.88-13.07,32.56-50.06,66.03-56.46,96.74-1.26,6.04.77,6.67,1.8,11.88,5.16,26.27-30.75,42.96-48.66,22.5-12.7-14.51-5.2-34.96,11.73-41.71,1.52-.61,5.53-1.19,6.27-1.91.45-.43,4.53-10.22,4.89-11.47,2.67-9.44,1.88-20.98,3.02-30.78,5.04-43.4,24.82-73.25,42.6-111.13,6.04-12.85,13.63-28.62,11.84-43.11-1.39-11.28-21.92-34.41-31.97-39.45-1.61-.8-5.67-.86-4.82-3.97.49-1.8,8.7-7.74,10.73-8.94,9.41-5.56,18.81-7.28,29.57-4.73,6.24-8.13,13.68-15.7,22.22-21.43,3.67-2.46,7.81-5.79,12.44-4.18l21.81-54.71c-10.08-7.64-20.05,2.85-30.05,5.3-4.87,1.2-13.52,2.1-14.09-4.77-.19-2.42.25-7.56,3.52-7.39,4.84.25-.2,5.43,4.28,4.81,5.83-.82,15-10.93,20.62-14.3,3.13-1.89,6.44-3,9.77-4.43-4.26-6.8-10.65-9.43-11.44-18.53-.26-2.95.64-11.37,1.74-14.04,2-4.83,5.73,4.65,6.75,6.1,5.09,7.3,12.44,9.38,11.69,19.97-.17,2.35-1.14,4.51-1.43,6.82,1.3.42,5.24,2.83,6.27,2.11l20.52-51.73c.07-5.1-1.46-10.55-1.43-15.58.05-6.39,2.71-13.83,2.8-19.61.04-2.55-1.04-5.57-1.15-8.15-1.71-39.3,18.62-72.54,51.81-92.17.13-.55-5.51-5.39-6.53-6.55-5.36-6.13-8.79-13.45-10.88-21.29-1.01-3.79-4.57-26.66-6.31-27.49-8.83,16.01-28.4,24.4-22.08,46.08,1.22,4.19,4.88,7.45-2.75,6.01-8.84-1.67-16.04-9.6-19.52-17.55-4.74-10.82-7.09-25.06-2.25-36.17-12.08-.68-21.33,7.73-28.91,16.06-2.12,2.33-3.91,5.33-6,7.63-.72.8-4.47,5.09-5.43,4.11.51-3.92,2.87-7.59,4.09-11.44,4.03-12.76,4.22-26.63,13.37-37.34ZM449.22,850.09c-.11-.7-7.46-4.79-8.65-5.36-2.04-.97-7.24-2.37-8.33-3.12-2.02-1.38-.8-2.64,1.32-2.44,4.79.46,15.7,7.96,16.62,7.89.69-.06,2.24-4.05,1.83-4.76l-43.53-21.68c-.78-.39-1.28-.23-1.95.28s-6.39,12.61-6.19,13.32c.08.27.26.47.48.64l41.62,16.58c2.53,4.13-1.76,2.38-4.13,1.55-11.82-4.17-23.5-10-35.3-14.32-.84-.31-3.77-1.57-4.37-1.15l-9.15,25.15c.24.58.68.72,1.26.81,5.61.84,9.38.86,14.98,3,1.72.66,9.34,3.82,8.74,5.98-.62,2.21-5.72-1.57-7.11-2.15-5.88-2.48-12.56-4.63-18.99-4.04-.71.46-3.97,15.46-3.87,16.54.39,4.16,12.41,11.12,16.15,12.75,1.75.77,4.64,1.13,5.81,1.82,1.95,1.14.99,2.77-1.38,2.51-7.3-.8-16.22-7.82-21.68-12.43-.18,3.91-1.53,7.66-1.1,11.61,6,3.71,13.39,6.23,20.45,6.92,1.27.13,8.07-.68,6.26,2.18-.8,1.27-9.73.17-11.55-.15-5.64-.98-10.33-3.64-15.7-5.29.22,3.3-1.25,6.54-.29,9.83l24.3,5.14,5.58-7.87,18.37-25.92c.31-.73.01-.87-.71-.72-6.99,1.39-16.81,1.87-23.72.09-1.26-.32-8.94-3.52-9.28-4.06-.4-.63-.03-2.43.76-2.66.48-.14,7.1,3.38,8.68,3.84,4.88,1.43,11.79,1.38,16.92,1.06,1.25-.08,9.65-1.1,10.09-1.36.65-.38,6.1-8.91,5.45-9.54-7.05.65-33.41-8.64-36.13-14.34-.63-1.32.62-2.21,2.08-1.53,1.58.74,3.99,2.92,5.88,3.97,9.4,5.22,19.32,8.29,30.03,9.63l3.04-4.81-17.66-5.41-.33-2.23c6.71.06,12.98,3.04,19.3,4.95l5.1-10.7ZM482.6,318.54c-11.44,11.24-11.48,28.4-16.34,42.8,7.51-8.69,16.03-19.42,27.88-22,1.95-.42,7.92-.67,8.95-1.4,1.87-1.33,5.65-9.17,8.94-10.67-.6-.68-1.27-1.36-2.15-1.66-5.75-1.98-19.72,1.05-24,5.63-1.94,2.07-2.52,5.27-3.78,6.86-.41.52-1.56.45-1.67.34-1.3-1.25,3.44-8.18,4.63-9.26,2.36-2.14,11.72-6,14.72-6h8.99c-1.65-3.27-7.06-11.39-10.66-11.97-5.67-.9-11.69,3.57-15.51,7.33ZM670.12,567.97c1.64-11.13,10.53-16.39,6.27-28.34-.94-2.64-5.91-11.03-8.79-11.33-1.86-.18-8.52,2.67-10.83,3.14l4.9,3.28c5.34,4.92-1.21,9.46-2.75,6-.39-.86,1.41-1.45.36-3.03-2.89-4.32-14.45-5.37-19.13-4.06.23.89,1.59.92,2.45,1.63,5.61,4.57,9.7,11.74,9.78,19.12,1.86.89,3.97.99,5.9,1.72,6,2.25,8.24,7.08,11.84,11.87ZM635.78,522.72c2.64-6.86,2.96-21.31-5.07-24.64-5.5-2.29-11.55.68-17.27.65l3.88,9.48c4.06,7.32,13.9,7.44,18.46,14.51ZM620.53,466.02c8.45-4.9,8.91-16.51,10.89-25.08-7.79,6.1-11.94,15.1-10.89,25.08ZM616.52,483.92c3.11,1.78,6.76-.23,8.91-2.63-4.32-.98-9.27-2.34-13.63-1.09l4.72,3.72ZM585.35,644.85c.48.02.37-.99.28-1.08-.06-.08-1.07-.16-1.63-.81-3.27-3.77-4.58-9.26-10.9-7.92.71,1.05,2.21,1.52,3.27,2.44,2.25,1.94,6.13,7.3,8.98,7.37ZM585.63,516.72l-8.17,8.72c1.12-.43,3.67.74,4.36.32,1.07-.66,3.12-7.43,3.81-9.04ZM556.7,442.26l13.67-35.12c-15.13,11.56-27.53,23.73-34.98,41.61-3.76,9-5.73,17.88-6.44,27.63,3.12-4.33,5.52-9.1,8.59-13.48,5.21-7.41,11.9-15.33,19.16-20.64ZM566,686.28c-2.24-11.99,7.43-27.68-10.89-29.98,4.51,9.67,1.71,22.52,10.89,29.98ZM557.28,596.87l-25.61,62.15c16.49-16.13,25.11-39.2,25.61-62.15ZM532.22,501.46l20.7-50.71c-4.34,3.86-8.49,8.72-11.88,13.46-2.65,3.7-11.5,17.8-11.5,21.64,0,4.73,2.46,10.74,2.68,15.61ZM543.12,751.44c.86-.48-.04-1.74-.3-2.44-5.22-14.17-15.11-18.46-25.81-27.06-2.76-2.22-6.11-6.23-8.5-7.87-.45-.31-.58-.74-1.36-.52-2.74,3.75,1.48,5.87,3.7,9.09,5.41,7.84,8.16,16.98,5.26,26.34l27.01,2.46ZM527.58,723.34c4.19-11.15,2.86-23.23-1.11-34.31-.22-.62-.58-2.2-1.34-2.2-3.2,8.4-9.19,15.17-14.11,22.54,4.34,5.69,10.52,10.14,16.56,13.97ZM526.8,515.9c.13-2.8-2.51-7.2-3.04-10.09-1.03,5.24-1.76,10.71-1.35,16.09.05.73.26,3.29,1.07,3.54.12-3,3.19-6.79,3.32-9.54ZM506.05,750.61c5.37,1.65,6.65-6.19,6.55-10.05-.15-6.33-4.41-14.81-9.27-18.84-2.23,3.52.72,5.86,1.89,9.28,2.2,6.44,2.51,13.01.83,19.61ZM500.89,752.82c1.67-8.65,2.09-16.43-1.99-24.49-.29-.21-5.3.41-6.08.6-1.05.27-1.91,1.07-3,1.37-6.27,1.73-17.28,4.53-15.9,13.46.65,4.21,6.7,2.76,7.05,1.12.26-1.23-4.29-2.17-2.46-5.17,1.61-2.65,6.87.54,7.35,3.01,2.08,10.54-15.27,11.19-16.85,2.69-1.77-9.47,7.63-17.77,16.32-18.79.38-2.14-2.08-2.85-2.95-4.4-2.8-4.97.62-9.88,5.92-10.34,1.93-.17,7.54.5,8.89,1.79,1.2,1.15.28,3.21-1.11,3.85-2.01.93-7.2-2.29-9.17.07-2.19,2.62,4.09,6.08,6.39,6.29,6.63.59,7.44-10.73,11.02-14.53-8.3-14.65-19.86-16.4-35.61-15.43-2.41.15-12.17,1.18-13.89,1.91-1.85.78-5.58,7.75-5.5,9.79.14,3.69,4.85,5.42,7.4,3.02,2.43-2.29-2.49-1.83-1.94-5.17.61-3.79,7.81-.84,7.69,4.32-.1,4.19-4.63,6.9-8.48,6.88-1.2,0-4.47-1.3-4.63-1.13-1.45,1.57,4.81,4.61,5.72,5.46,9.12,8.56,1.18,33.11-11.69,24.22-5.84-4.04-4.29-12.97,2.43-12.28,2.11.22,2.68,2.37,1.64,3.89-.58.85-5.03,1.09-1.89,4.03,5.75,5.38,8.77-5.62,8.71-9.75-.11-6.96-3.91-6.46-7.67-9.83-4.28-3.84-1.41-7-1.62-11.74-5.79.23-16.43,6.92-17.35,12.95-.25,1.62,4.59,7.8,5.66,9.93,3.02,6.04,3.74,10.43,3.51,17.19-.06,1.79-1.21,3.83-.27,5.74.54,1.09,9.98,3.61,12.01,4.34,9.19,3.33,18.32,7.06,26.84,11.9l3.06-.51c6.85-6.28,13.77-12.58,22.44-16.26ZM490.64,577.37c1.4-11.57-6.65-12.19-11.31-20.85-.2-.13-1.04.63-1.08.82-.4,1.55,0,6.17,0,8.18,0,1.21,2.68,5.59,3.58,6.77,2.28,2.97,6.31,5.08,7.33,8.76.93-.31,1.38-2.85,1.48-3.68ZM462.98,665.02c-.76-.81-10.92,7.48-12,8.44-1.31,1.18-11.37,11.27-10.64,12.28,6.21,3.92,13.12,5.88,20.45,4.35-1.2-8.75-.32-16.67,2.19-25.07ZM447.32,696.56l1.49-2.1c-6.43-.69-11.55-5.83-17.96-6.84-8.3-1.32-21.12,1.64-27.03,7.92-.56.6-.97.96-.82,1.9,2.4,1.28,4.71,2.95,6.82,4.67,1.44,1.17,6.27,6.22,7.6,6.02,6.88-9.68,18.21-13.84,29.9-11.57ZM443.8,702.23c.83-.33,1.46.32,1.19-1.23h-8.45c-2.41,0-8.31,3.31-10.34,4.92-1.18.94-6,5.47-5.68,6.69.06.23,2.71,3.66,2.95,3.66,1.06,0,2.94-3.83,3.87-4.85,4.39-4.83,10.61-6.85,16.46-9.19ZM381.95,982.79c22.96-9.47,14.99-43.05-10.66-40.65-34.42,3.23-22.77,54.45,10.66,40.65Z"/>
  <path d="M370.71,950.29c19.79-3.37,20.82,26.99,1.52,25.49-14.97-1.17-15.26-23.15-1.52-25.49ZM372.75,970.92c12.42.66,11.3-18.39-1.5-15.73-7.99,1.66-7.65,15.24,1.5,15.73Z"/>
</svg>