<?xml version="1.0" encoding="UTF-8"?>
<svg id="Outline" xmlns="http://www.w3.org/2000/svg" viewBox="0 0 1080 1080">
  <path d="M509.32,255.85c.35-4.73,1.46-10,4.89-13.64,4.88-5.19,11.4-1.72,9.13,4.78-1.31,3.77-5.28,5.51-6.44,8.28-1.59,3.83-1.2,9.58-2.17,13.66.15,1.27,5.37,3.14,6.94,4.01,1.14.63,2.22,1.38,3.18,2.26,4.47-12.79,15.55-17.04,27.24-21.26,5.31-1.92,11.89-4.13,17.31-5.58,10.39-2.78,5.29,2.29,3.54,8.45-2.76,9.78-1.29,19.64-3.29,29.42-.5,2.44-5.25,13.51-4.75,14.06.12.13,1.97.38,3.29,1.36,8.17,6.03,15.16,24.21,28.35,20.75,3.55-.93,5.79-6.16,9.25-5.47.12,1.26-.45,1.43-1.08,2.19-4.8,5.79-16.79,18.32-23.25,21.45-8.45,4.1-18.56,3.6-26.91-.48-.33.34,3.42,5.29,3.9,6.18,4,7.27,4.03,13,6.18,20.54,1.91,6.73,6.45,15.98,10.4,21.76.39.57,1.53,2.88,2.4,2.23l100.02-249.17.93-3.43,50.33-47.26c5.05-3.03,2.87,3.78,2.97,6.84.69,21.67,2.85,43.48,3.16,65.27-43.88,104.97-86.25,210.6-129.61,315.8-.22,1.15-.1.75.55.55,5.11-1.56,10.17-7.25,10.86-12.59,1.26-9.82-.23-13.36,6.14-22.21,1.85-2.57,9.65-10.84,12.32-11.68,5.23-1.64,1.11,4.24.52,5.98-2.92,8.65-2.46,21-9.64,27.98-1.77,1.72-5.88,3.14-6.96,4.21-.18.18-2.21,4.16-2.31,4.51-.3,1.02.17.73.79.8,3.68.45,10.17.76,13.52,1.75.91.27,1.68,1.21,1.42,2.23-.53,2.04-9.88,7.77-12.27,7.99-7.31.68-9.94-8.93-16.85-3.81-6.61,13.71-11.65,28.25-17.71,42.25,6.02,2.9,12.81,2.67,19.3,3.43,5.33-5.67,11.95-10.18,19.96-10.78.27-1.28-.17-.88-.7-1.22-2.87-1.85-5.74-2.38-8.25-5.36s-2.78-6.51-4.37-9.8c-1-2.08-5.21-5.37-1.17-7.11,3.37-1.46,15.4-2.58,19.09-2.08,4.23.57,6.73,3.79,9.58,6.49,3.38-5.71,3.89-14.05,6.28-19.63,2.6-6.09,5.69,1.94,7.37,4.08,6.9,8.77,13.65,11.96,12.52,25.08-.38,4.37-2.1,6.17-3.36,9.74-.22.62-.61,1.2.39,1.44,1.96.49,7.01-4.2,8.45-5.71,2.37-2.49,7.5-11.29,8.94-12.32.96-.69,1.95-.55,3.04-.51,1.32,1.31-4.13,8.87-5.22,10.31-.87,1.14-1.99,2.53-2.94,3.61-1.14,1.29-6.88,6.1-7.1,6.53-1.04,2.06,5.02.26,5.57.11,1.72-.46,3.66-1.12,5.32-1.76s7.91-5.22,8.23-1.62c.15,1.73-2.03,2.53-3.3,3.27-3.36,1.96-7.22,2.94-10.91,4.09,4.37,4.47,8.2,10.15,8.74,16.6.95,11.33-7.55,17.37-7.67,27.31-.02,1.75,2.72,9.38-1.24,8.36-1.81-.46-4.06-7.04-5.2-9.03-3.53-6.15-6.83-11.22-14.57-12.04-.73.14-1.65,4.74-2.15,5.86-3.95,8.92-17.45,16.22-26.3,19.5-12.24,4.53-1.55-6.71.5-10.41.93-1.68,3.72-7.82,3.72-9.36v-11.45c0-.1,1.36-1.12-.28-.82-2.68.49-6.1,2.86-9.27,2.72l-22.62.28c-1.27-.62-1.29-2.46-.97-3.69l7.51-17.3c-6.35-.13-12.54-1.24-18.53-3.27-.67.73,5.1,15.47,4.24,19.24-1.05,4.61-7.75,4.87-8.91-.67l-.78-5.48-13.36,34.05c1.98,19.97,1.08,41.23-7.36,59.71,7.28-2.01,15.6-9.15,22.86-4.05,2.44,1.71,3.41,4.2,5.21,6.24,2.21,2.52,9.48,6.94,1.52,8.59-8.67,1.79-9.98-7.1-16.66-9.79-4.6-1.85-10.39,1.84-14.19,4.56-1.34.96-8.81,7.19-7.45,8.63,9.03,1.35,20.33,3.41,21.28,14.43.53,6.16-1.78,11.9-1.05,17.95.3,2.53,4.01,9.73-1.97,8.02-5.79-1.66-10.19-10.79-11.67-16.18-1.34-4.87-1.11-11.58-2.88-15.65-.91-2.09-4.33-6.67-6.96-5.58-.82.34-7.76,7.57-9.57,8.99-4.61,3.64-11.18,5.91-11.7,12.84-.12,1.57,1.15.06,2.56.65,2.78,1.16,2.79,6.77,3.59,9.55,1.11,3.83,2.8,7.86,3.51,11.75,1.74,9.52.3,19.34-1.96,28.65,4.78,3.97,8.99,8.71,12.02,14.18,1.56,2.82,7.37,13.5,3.16,15.36-2.87,1.26-14.6-1.68-18.77-1.92-24.05-1.4-28.82,3.12-45.83,17.46-4.83,4.07-5.91,2.9-8.7,9.84-8.35,20.77-10.51,45.85-19.35,67.88-13.07,32.56-50.05,66.03-56.45,96.74-1.26,6.05.77,6.68,1.79,11.88,5.16,26.27-30.75,42.96-48.66,22.49-12.7-14.51-5.2-34.96,11.73-41.71,1.52-.61,5.53-1.19,6.27-1.91.45-.43,4.53-10.22,4.88-11.47,2.68-9.44,1.88-20.98,3.02-30.78,5.05-43.4,24.83-73.25,42.61-111.13,6.03-12.85,13.63-28.62,11.84-43.11-1.39-11.28-21.92-34.41-31.97-39.45-1.61-.8-5.67-.86-4.82-3.97.49-1.8,8.7-7.74,10.73-8.94,9.41-5.57,18.81-7.28,29.57-4.73,6.24-8.13,13.68-15.7,22.22-21.43,3.67-2.46,7.81-5.79,12.44-4.18l21.81-54.71c-10.08-7.64-20.05,2.85-30.04,5.3-4.87,1.19-13.53,2.1-14.09-4.77-.2-2.42.25-7.56,3.52-7.39,4.84.25-.2,5.43,4.28,4.81,5.83-.81,15.01-10.92,20.62-14.3,3.13-1.88,6.44-2.99,9.77-4.42-4.26-6.8-10.65-9.43-11.44-18.53-.26-2.95.64-11.38,1.74-14.05,2-4.82,5.73,4.65,6.74,6.1,5.09,7.3,12.45,9.38,11.69,19.97-.17,2.35-1.14,4.51-1.43,6.82,1.3.42,5.24,2.83,6.27,2.1l20.52-51.72c.07-5.11-1.46-10.55-1.43-15.58.05-6.39,2.71-13.84,2.8-19.61.04-2.55-1.05-5.57-1.16-8.15-1.71-39.29,18.63-72.54,51.81-92.17.13-.55-5.51-5.39-6.52-6.55-5.36-6.13-8.79-13.45-10.88-21.29-1.01-3.79-4.57-26.66-6.31-27.49-8.83,16.01-28.4,24.4-22.08,46.08,1.22,4.2,4.89,7.45-2.75,6.01-8.85-1.67-16.04-9.6-19.52-17.55-4.74-10.82-7.09-25.06-2.26-36.17-12.07-.68-21.33,7.73-28.91,16.06-2.12,2.33-3.91,5.33-6,7.63-.72.8-4.47,5.09-5.43,4.1.51-3.92,2.87-7.59,4.09-11.44,4.03-12.75,4.22-26.62,13.37-37.34,3.75-4.39,9.89-9.58,15.79-10.11-7.46-7.08-1.92-21.63-10.72-27.17-.87-.55-5.17-2.27-5.91-2.27h-8.18c-1.72,0-.34-2.06.98-2.83,4.17-2.44,24.44-9.86,29.01-10.24,3.19-.27,6.52,0,9.53,1.08.22-4.01-.3-8.29,0-12.27ZM613.98,448.57c38.47-95.6,77.98-190.86,116.83-286.33.26-18.33-1.5-36.89-2.38-55.22-.07-1.43.57-10.13-.8-10.1l-43.62,40.86-2.2,2.71-101.41,252.42c-.17.4.05.58.26.87.91,1.21,7.65,5.55,9.61,7.33,1.76,1.6,3.84,3.69,5.44,5.46,1.11,1.23,2.73,4.07,3.8,4.93.59.47.48.79,1.1-.01,38.02-93.52,75.63-187.28,114.2-280.51.95-.68,1.44,1.68.86,2.5-37.89,93.81-76.58,187.43-113.98,281.35,6.71,9.97,8.74,21.22,11.56,32.56.14.56-.07,1.34.71,1.18ZM573.65,249.58c-.61-.45-12.73,3.6-14.59,4.21-24.41,8-35.17,12.65-33.95,41.33.07,1.62,1.49,10.74,1.11,11.15-.25.27-1.99.03-2.09-.9-1.05-9.37-1.93-18.74.18-28.02-2.73-2.6-6.11-3.98-9.53-5.42.13,3.9-.18,7.85-.03,11.74.32,8.17,1.57,14.34,4.13,22.04,1.27,3.83,3.87,8.46,4.82,11.97.16.61.34,2.47-.48,2.76-1.46.52-2.13-1.69-2.73-2.71-5.28-8.99-8.18-26.44-9.92-36.97-.36-2.17-.56-9.55-1.52-10.48-2.39-2.3-13.17-.84-16.38.53l-17.15,7.1c7.16.87,12.43,2.54,14.87,9.94,1.78,5.41.89,13,3.75,17.51,2.29,3.59,6.7,4.21,9.75,7.15,3.81,3.68,5.94,9.45,9.57,13.34,3.84-1.78,7.87-3.48,12.21-3.23.72-8.12.6-16.01,3.12-23.87,1.64-5.11,10.1-23.04,17.36-18.69,4.75,2.85-3.25,7.15-4.88,8.81-2.58,2.63-8.7,13.87-10.24,17.56-2.06,4.96-3.04,10.27-2.63,15.64,3.18-.37,6.18.63,9.27,1.09,1.08-9.78,12.44-21.01,21.66-23.32.96-.24,2.99.08,3.34-.21.26-.22,2.35-5.44,2.67-6.31,4.9-12.98,2.07-25.57,5.97-38.19.59-1.9,1.53-3.75,2.34-5.56ZM596,324.82c-8.48,1.08-14.7-5.14-19.9-10.9-7.05-7.81-9.25-16.71-21.69-9.71-2.7,1.52-5.6,3.96-7.47,6.43,4.27-.99,11.01-3.16,14.99-.54.46.3,1.82,1.37.82,1.91-.91.5-4.35-1.32-6.21-1.3-2.73.03-11.43,2.59-13.57,4.27-.93.73-3.82,7.94-3.57,8.97,2.44,1.89,5,3.64,7.01,6.04,4.13,4.92,3.37,6.13,10.2,8.88,17.2,6.92,28.96-1,39.39-14.04ZM508.78,323.18c-1.66-3.26-7.06-11.39-10.66-11.96-5.67-.91-11.69,3.56-15.51,7.32-11.44,11.24-11.48,28.41-16.34,42.8,7.51-8.69,16.03-19.42,27.88-22,1.95-.42,7.92-.67,8.95-1.41,1.87-1.33,5.65-9.17,8.95-10.67-.6-.67-1.27-1.36-2.15-1.66-5.75-1.98-19.73,1.05-24.01,5.63-1.94,2.07-2.51,5.27-3.77,6.87-.41.52-1.56.45-1.67.34-1.29-1.25,3.44-8.18,4.63-9.26,2.35-2.13,11.72-6,14.72-6h8.99ZM525.68,392.41c-5.97-12.05-1.71-23.14,6.01-32.96,4.66-5.93,14.5-13.2,15.61-20.81.03-.24-.03-3.8-.09-3.99-.2-.6-2.89-4.01-3.53-4.67-3.69-3.85-10.45-7.27-15.86-5.47-2.46.82-7.01,9.73-7.85,12.32-.98,1.19-1.26,9.25-2.2,9.24-.8-.01-.79-1.83-.84-2.42-.53-6.79,3.75-13.28,7.11-18.83-11.74.21-21.88,14.53-22.89,25.36-1.46,15.71,6.18,40.22,24.52,42.24ZM548.02,541.26l47.33-117.08c-3.33-8.98-11.58-14.84-18.17-21.39-1.07-.22-.67.23-.93.68-1.19,2.04-2.41,5.68-3.4,8.05-13.27,31.72-25.24,64.02-38.34,95.81-.38,2.65,3.73,12.93,4.94,16.08.53,1.37,7.58,18.63,8.58,17.85ZM528.95,476.38c3.13-4.33,5.52-9.1,8.6-13.48,5.2-7.41,11.9-15.33,19.15-20.64l13.67-35.12c-15.13,11.56-27.52,23.73-34.98,41.61-3.75,9-5.72,17.88-6.44,27.63ZM589.65,504.38c.45-.6,1.34-.68,2.1-1.99,1.49-2.53,13.1-31.02,13.25-32.81.33-3.79-.04-11.78-.29-15.82-.58-9.26-3.36-19.51-7.9-27.54l-47.68,117.56c-.15.66.07,1.23.23,1.85.71,2.76,5.46,11.12,7.1,14.18,1.48,2.76,4.14,8.32,5.82,10.53.47.62.57,1.11,1.54.91l15.25-38.47c-1.29-4.12-9.64-1.28-11.11-2.36-.62-.46-.43-1.76-.22-2.4.23-.68,9.51-7.46,11.09-9.08,3.92-4.04,7.37-9.96,10.8-14.55ZM620.53,466.02c8.45-4.9,8.91-16.51,10.89-25.08-7.79,6.1-11.94,15.1-10.89,25.08ZM532.22,501.46l20.7-50.7c-4.34,3.86-8.49,8.72-11.89,13.46-2.65,3.69-11.49,17.8-11.5,21.64,0,4.73,2.46,10.74,2.68,15.6ZM625.43,481.29c-4.31-.98-9.27-2.34-13.62-1.09l4.71,3.72c3.12,1.78,6.76-.23,8.91-2.63ZM648.86,485.11c-.08-.06-1.2-.22-1.07.32-.5,3.44-1.63,6.95-2.86,10.18-.96,2.54-4.12,7.72-4.53,9.65s.97,6.96.77,10.03c-.29,4.49-1.8,7.86-3.74,11.79,4.09-1.34,8.4-5.84,10.29-9.61,1.58-3.16,4.03-13.77,3.51-3.03l-5.07,9.36c.6.6,4.07-2.62,4.64-3.26.41-.48,4.86-8.53,5.18-5.73.42,3.61-4.58,7.47-6.55,10.08,9.12-3.72,12.91-10.68,12.01-20.46-.61-6.65-5.74-10.72-9.82-15.26-.67-.74-2.56-3.91-2.75-4.07ZM635.78,522.72c2.64-6.86,2.96-21.31-5.06-24.64-5.51-2.29-11.56.68-17.28.66l3.88,9.47c4.07,7.32,13.9,7.45,18.46,14.51ZM523.49,525.45c.11-3,3.19-6.8,3.31-9.54s-2.5-7.2-3.04-10.09c-1.03,5.24-1.76,10.71-1.36,16.08.06.73.27,3.3,1.08,3.55ZM577.46,525.44c1.12-.43,3.67.74,4.36.32,1.07-.66,3.12-7.43,3.81-9.03l-8.17,8.72ZM487.49,690.09l55.92-137.87c-3.67-10.79-9.77-20.54-13.92-31.13-.53-.41-4.26,8.96-4.62,9.82-20.47,49.32-39.41,99.31-59.45,148.8-.73,3.3.18,6.63.87,9.83,6.86-.78,14.48-1.18,21.21.55ZM631.43,525.44c-1.87-6.1-13.9-.61-17.62,1.74-8.58,5.43-10.95,15.03-14.54,23.89,7.16-1.21,13.61.72,20.84-.68,5.6-1.08,16.58-6.78,16.79-13.23.05-1.48-2.54-9.48-3.36-10-2.66-1.69-8.56,6.04-10.65,7.48-.87.59-5.51,2.94-6.18,2.27-.11-.11-.18-1.26.34-1.67,1.07-.85,3.7-1.51,5.29-2.78,2.9-2.32,4.66-6.36,9.09-7ZM670.13,567.97c1.64-11.13,10.53-16.39,6.27-28.34-.94-2.64-5.9-11.03-8.79-11.33-1.85-.19-8.52,2.67-10.83,3.14l4.91,3.28c5.33,4.92-1.21,9.46-2.75,6-.38-.86,1.41-1.45.36-3.02-2.88-4.33-14.45-5.38-19.13-4.06.23.89,1.59.92,2.46,1.63,5.61,4.57,9.7,11.75,9.77,19.12,1.87.9,3.97,1,5.91,1.73,5.99,2.25,8.23,7.08,11.84,11.87ZM625.44,578.88c18.07-5.91,32.51-22.92,16.07-39.8-.26,2.43,1.57,5.02,1.87,7.4.78,6.21-1.06,8.47-2.44,13.82-.17.65-.16,5.67-1.87,4.39-1.95-1.46,2.79-12.15,2.73-14.96-.02-1.02-1.24-6.78-1.65-7.6-.72-1.46-2.7,2.63-3.52,3.5-3.18,3.36-4.21,1.85-4.67,7.86-.5,6.5.54,10.46-2.06,17.02-1.17,2.95-3.35,5.39-4.45,8.35ZM522.4,672.11c-2.6.84-14.7,3.68-16.12,1.67-2.69-3.79,5.81-3.11,7.12-3.32,2.89-.45,9.3-1.88,11.11-4.16l32.2-78.47c1.13-7.41-2.63-10.15-5.51-16.23-2.55-5.38-4.32-11.17-6.45-16.72l-55.05,134.96v.77c4.5,1.15,9.03,4.37,12.28,7.64,1.06,1.06,5.02,6.79,5.97,6.56l14.45-32.71ZM478.25,557.34c-.39,1.55,0,6.17,0,8.18,0,1.21,2.68,5.59,3.59,6.77,2.27,2.97,6.31,5.08,7.32,8.76.93-.32,1.39-2.85,1.49-3.68,1.4-11.57-6.65-12.19-11.32-20.85-.19-.13-1.03.63-1.08.82ZM531.68,659.02c16.49-16.13,25.1-39.2,25.61-62.15l-25.61,62.15ZM585.63,643.77c-.06-.07-1.07-.15-1.63-.81-3.26-3.77-4.58-9.26-10.9-7.92.71,1.05,2.21,1.52,3.27,2.44,2.25,1.94,6.13,7.29,8.98,7.37.47.01.36-.99.28-1.09ZM566.01,686.28c-2.25-11.99,7.42-27.68-10.9-29.98,4.52,9.67,1.71,22.52,10.9,29.98ZM462.98,665.02c-.76-.81-10.92,7.48-12,8.44-1.32,1.18-11.37,11.27-10.64,12.28,6.2,3.92,13.12,5.87,20.45,4.35-1.2-8.75-.33-16.67,2.18-25.07ZM525.14,686.83c-3.21,8.4-9.19,15.17-14.12,22.54,4.35,5.69,10.53,10.14,16.57,13.97,4.19-11.15,2.86-23.23-1.12-34.31-.22-.62-.58-2.2-1.33-2.2ZM448.81,694.46c-6.43-.7-11.55-5.83-17.96-6.85-8.3-1.31-21.12,1.64-27.02,7.92-.57.6-.97.97-.82,1.91,2.4,1.28,4.71,2.95,6.82,4.66,1.44,1.18,6.27,6.22,7.61,6.02,6.88-9.68,18.21-13.84,29.9-11.57l1.48-2.1ZM497.2,713.67c1.19,1.15.28,3.21-1.11,3.85-2.01.93-7.2-2.28-9.17.07-2.19,2.63,4.09,6.08,6.39,6.29,6.62.59,7.43-10.73,11.02-14.52-8.31-14.66-19.86-16.41-35.61-15.43-2.41.15-12.17,1.18-13.9,1.91-1.84.78-5.58,7.75-5.5,9.79.14,3.69,4.86,5.41,7.4,3.02s-2.48-1.83-1.94-5.17c.62-3.79,7.81-.84,7.69,4.32-.1,4.19-4.63,6.9-8.48,6.88-1.19,0-4.47-1.3-4.63-1.13-1.44,1.56,4.81,4.6,5.72,5.45,9.13,8.57,1.18,33.12-11.68,24.22-5.84-4.04-4.29-12.97,2.42-12.28,2.11.22,2.69,2.37,1.65,3.88-.59.86-5.04,1.09-1.89,4.04,5.75,5.38,8.77-5.63,8.7-9.75-.11-6.96-3.91-6.46-7.66-9.82-4.29-3.84-1.41-7.01-1.62-11.74-5.79.23-16.43,6.92-17.35,12.94-.25,1.62,4.59,7.8,5.66,9.93,3.02,6.04,3.75,10.43,3.51,17.19-.06,1.79-1.21,3.83-.27,5.74.54,1.09,9.98,3.61,12.01,4.34,9.19,3.33,18.33,7.06,26.84,11.89l3.06-.51c6.85-6.28,13.77-12.58,22.44-16.26,1.67-8.65,2.08-16.43-2-24.5-.28-.2-5.3.41-6.08.61-1.05.26-1.91,1.06-3,1.36-6.27,1.73-17.28,4.53-15.9,13.46.65,4.21,6.7,2.76,7.05,1.12.26-1.23-4.29-2.17-2.46-5.18,1.61-2.65,6.87.54,7.35,3.02,2.08,10.54-15.28,11.19-16.86,2.69-1.76-9.47,7.64-17.77,16.33-18.79.38-2.15-2.09-2.86-2.96-4.4-2.79-4.97.62-9.88,5.92-10.34,1.93-.17,7.54.5,8.89,1.79ZM445,701h-8.45c-2.41,0-8.32,3.3-10.35,4.92-1.18.94-6,5.47-5.68,6.69.06.23,2.71,3.66,2.95,3.66,1.06,0,2.94-3.84,3.87-4.86,4.39-4.83,10.62-6.85,16.46-9.19.83-.33,1.47.32,1.2-1.23ZM507.15,713.55c-2.74,3.75,1.48,5.87,3.7,9.09,5.41,7.84,8.16,16.98,5.25,26.35l27.01,2.45c.86-.48-.04-1.74-.29-2.44-5.22-14.17-15.11-18.46-25.81-27.07-2.76-2.22-6.11-6.23-8.49-7.86-.46-.31-.58-.74-1.37-.53ZM506.05,750.61c5.38,1.65,6.65-6.19,6.56-10.05-.15-6.33-4.41-14.81-9.28-18.84-2.22,3.52.72,5.86,1.89,9.28,2.2,6.44,2.51,13.01.83,19.61ZM466.8,790.42c.27-2.76,1.21-5.88,2.16-8.48.55-1.5,3.72-7.27,3.78-7.69.05-.31.13-.54-.18-.75-3.85-2.65-35.72-15.87-37.34-14.68-.19.14-1.75,4.15-.25,4.28l26.23,9.75c2.23.94,1.35,3.44-.95,2.62l-27.23-10.14-1.64,4.91c3.07-.08,7.29.92,10.12,2.15,2.44,1.06,2.58,3.52.22,3.08-3.03-.56-8.6-3.66-11.44-2.24-1.37.69-5.64,12.89-7.08,14.99,13.58,4.2,25.95,11.39,39,16.89,1.22.12.58-.11.8-.79,1.08-3.46,1.64-7.15,2.47-10.67l-28.21-11.98-.85-1.36,1.35-1.27c8.62,2.41,17.21,7.85,25.63,10.69,1.12.38,2.19.83,3.42.67ZM458.08,824.22l3.82-14.51-.54-1.58c-9.68-4.34-19.05-9.69-28.91-13.62-1.74-.69-9.91-4.05-10.92-3.32-.5.36-1.89,4-1.39,4.71.23.32,5.96,2.53,7.15,3.23,1.11.65,5.96,3.93,5.71,5.19-.57,2.82-6.92-2.63-8.15-3.29s-5.17-2.55-6.29-2.45c-1.43.13-5.06,8.1-4.62,8.72l44.13,16.92ZM412.54,809.62c-.58.09-3.91,6.47-4,7.34-.05.48.04.73.47.98l43.09,21.26c.66.48.89.32,1.33-.28s3.35-9.77,3.47-10.76c.07-.63.21-1.11-.46-1.49l-43.91-17.05ZM452.01,842.3l-43.53-21.68c-.78-.39-1.29-.23-1.95.28s-6.39,12.61-6.19,13.32c.08.27.26.48.49.64l41.61,16.58c2.54,4.12-1.75,2.38-4.13,1.54-11.82-4.17-23.5-9.99-35.3-14.31-.84-.31-3.77-1.58-4.37-1.15l-9.15,25.15c.25.58.68.72,1.26.8,5.61.84,9.38.86,14.98,3,1.72.66,9.34,3.82,8.73,5.98s-5.71-1.57-7.1-2.15c-5.88-2.47-12.56-4.63-18.99-4.04-.71.46-3.98,15.46-3.87,16.54.39,4.16,12.42,11.13,16.15,12.75,1.76.77,4.64,1.13,5.82,1.82,1.95,1.14.99,2.77-1.38,2.51-7.3-.8-16.22-7.82-21.68-12.43-.18,3.91-1.53,7.66-1.1,11.61,6.01,3.71,13.39,6.23,20.46,6.92,1.26.12,8.07-.68,6.26,2.18-.8,1.27-9.74.16-11.56-.15-5.63-.98-10.32-3.64-15.69-5.29.22,3.3-1.25,6.54-.3,9.83l24.3,5.14,23.95-33.79c.3-.73,0-.87-.72-.72-6.99,1.4-16.81,1.87-23.72.1-1.26-.32-8.94-3.52-9.28-4.06-.39-.63-.03-2.43.77-2.66.48-.14,7.09,3.38,8.67,3.84,4.89,1.43,11.79,1.38,16.92,1.06,1.26-.08,9.65-1.1,10.09-1.36.65-.38,6.11-8.92,5.45-9.54-7.04.65-33.41-8.64-36.13-14.35-.63-1.32.62-2.21,2.08-1.52,1.58.74,3.98,2.92,5.88,3.97,9.4,5.22,19.32,8.29,30.03,9.63l3.05-4.81-17.66-5.41-.33-2.23c6.71.06,12.98,3.04,19.3,4.95l5.1-10.7c-.11-.7-7.46-4.8-8.66-5.36-2.04-.97-7.24-2.37-8.33-3.12-2.02-1.38-.8-2.64,1.32-2.44,4.79.46,15.7,7.95,16.62,7.88.69-.05,2.24-4.05,1.83-4.76ZM404.11,920.18l-23.44-4.37c-.12,3.74-.73,7.97-1.79,11.57-.5,1.7-3.89,8.51-3.64,9.36.38,1.28,3.55.78,4.91,1.11,3.32.81,6.59,2.32,9.41,4.22,1.13.76,2.56,3.02,3.87,2.62l10.67-24.52ZM371.29,942.15c-34.42,3.22-22.77,54.44,10.66,40.65,22.96-9.47,14.99-43.05-10.66-40.65Z"/>
  <path d="M370.72,950.29c19.79-3.37,20.82,26.99,1.51,25.49-14.97-1.17-15.26-23.15-1.51-25.49ZM371.26,955.19c-8,1.66-7.65,15.24,1.5,15.73,12.42.66,11.3-18.38-1.5-15.73Z"/>
</svg>