<?xml version="1.0" encoding="UTF-8"?>
<svg id="Ebene_2" data-name="Ebene 2" xmlns="http://www.w3.org/2000/svg" viewBox="0 0 1080 1080">
  <defs>
    <style>
      .cls-1 {
        fill: #fff;
      }
    </style>
  </defs>
  <path class="cls-1" d="M575.21,344.64c.22.06.44.14.65.23l-.6-.25c.41.18.8.4,1.15.68l-.51-.39c.17.13.33.28.49.43.23.24.49.42.8.52.3.16.62.23.96.22.34.01.67-.06.96-.22.31-.1.58-.27.8-.52l.39-.51c.23-.39.34-.81.34-1.26l-.09-.66c-.12-.42-.33-.79-.64-1.1-.31-.3-.65-.56-.99-.82-.18-.14-.37-.27-.57-.38-.28-.16-.58-.29-.88-.42s-.62-.26-.95-.35c-.33-.1-.66-.12-1-.04-.33.02-.64.11-.93.3-.29.16-.53.37-.7.64-.22.24-.37.52-.45.85l-.09.66c0,.45.12.87.34,1.26l.39.51c.31.31.68.52,1.1.64h0Z"/>
  <g>
    <path class="cls-1" d="M528.39,366.11c.86.24,1.66.7,2.29,1.33"/>
    <path d="M527.72,368.52c.22.06.44.14.65.23l-.6-.25c.41.18.8.4,1.15.68l-.51-.39c.17.13.33.28.49.43.23.24.49.42.8.52.3.16.62.23.96.22.34.01.67-.06.96-.22.31-.1.58-.27.8-.52l.39-.51c.23-.39.34-.81.34-1.26l-.09-.66c-.12-.42-.33-.79-.64-1.1-.31-.3-.65-.56-.99-.82-.18-.14-.37-.27-.57-.38-.28-.16-.58-.29-.88-.42s-.62-.26-.95-.35c-.33-.1-.66-.12-1-.04-.33.02-.64.11-.93.3-.29.16-.53.37-.7.64-.22.24-.37.52-.45.85l-.09.66c0,.45.12.87.34,1.26l.39.51c.31.31.68.52,1.1.64h0Z"/>
  </g>
  <g>
    <path class="cls-1" d="M585.97,349.06c2.8.45,5.4,1.34,7.46,2.55"/>
    <path d="M585.31,351.48c1.86.31,3.69.8,5.43,1.53l-.6-.25c.7.3,1.38.63,2.03,1.02,1.13.66,2.79.3,3.42-.9s.31-2.72-.9-3.42c-2.46-1.43-5.25-2.34-8.06-2.8-.68-.11-1.31-.11-1.93.25-.52.3-1.01.9-1.15,1.49-.15.64-.11,1.36.25,1.93.33.51.86,1.05,1.49,1.15h0Z"/>
  </g>
  <g>
    <path d="M463.54,676.28c-2.2-1.28-3.9.07-5.62.74-4.75,1.85-9.41,3.76-13.01-2-.77-1.24-1.95-.41-2.82,0-3.39,1.57-6.87,2.75-10.64,2.79-2.23.02-3.53,1.41-4.73,2.95-3.55,4.59-7.49,8.94-10.29,14.05-10.58,19.35-23.51,37.19-35.54,55.6-6.45,9.87-13.47,19.34-22.94,26.74-4.77,3.73-7.96,8.88-10.51,14.38-1.03,2.23-2.2,4.41-3.48,6.5-1.05,1.72-2.58,2.96-4.8,2.6-2.34-.38-3-2.24-3.35-4.21-.25-1.38-.52-2.81-.4-4.19.81-9.82.49-19.72,2.45-29.45.72-3.61.83-7.34,1.18-11.02.12-1.22.31-2.56-.45-3.6-3.71-5.09-2.78-10.76-1.94-16.3,1.44-9.39,3.3-18.71,4.28-28.18.42-4.04.64-8.07.15-12.12-.43-3.55-1.99-6.2-5.27-7.96-5.46-2.93-8.54-7.59-9.59-13.74-1.2-7.06-.42-14.05.38-21.05,1.65-14.51,3.16-29.05,5.1-43.53,5.2-38.74,15.51-76.07,30.23-112.32,10.18-25.07,22.27-48.98,37.58-71.3,8.67-12.64,18.93-23.58,31.81-32,3.97-2.6,7.77-5.48,11.58-8.31,2.94-2.18,4.45-5.16,5.48-8.72,2.59-8.97,4.65-18.06,6.72-27.14,3.29-14.4,10.51-26.38,21.25-36.35,14.15-13.15,30.21-23.03,49.08-27.75,14.96-3.74,29.57-2.33,44.02,3.14,14.83,5.61,28.19,13.55,40.33,23.63,8.5,7.05,15.36,15.49,20.76,25.1,3.28,5.83,6.52,11.69,9.52,17.66,3.37,6.73,8.53,11.54,15.06,15.02,4.51,2.41,9.27,4.25,14.05,6.03,24.11,9.01,47.54,19.45,69.44,33.09,3.14,1.96,6.33,3.83,9.19,6.18,1.91,1.57,3.66,3.31,5.05,5.37,2.98,4.42,1.53,8.3-3.66,9.5-2.76.64-5.59.42-8.38-.19-9.81-2.12-19.55-4.54-28.91-8.17-17.3-6.72-35.32-10.69-53.4-14.47-9.64-2.02-19.31-3.93-28.97-5.85-5.44-1.08-10.87-.88-16.22.53-6.68,1.75-11.42,6.06-14.91,11.83-1.65,2.73-1.4,5.69-.69,8.7,1.31,5.53,3.74,10.63,6.16,15.7,6.13,12.83,9.77,26.44,12.04,40.33,2.22,13.57.24,27-3.52,40.18-3.74,13.11-9.18,25.49-15.83,37.34-21.69,38.68-48.46,73.4-81.18,103.43-.63.58-1.25,1.16-1.95,1.82,1.36,1.41,2.95,1.43,4.43,1.72,11.6,2.27,22.9,5.51,33.71,10.37,2.1.94,4.21,1.87,5.83,3.54,2.2,2.28,1.78,4.53-1.12,5.88-2.26,1.05-4.73,1.24-7.22,1.31-9.53.3-19.01-.64-28.46-1.56-8.18-.79-16.2-.09-24.08,1.91-6.07,1.54-11.14,5.17-16.06,8.9-4.91,3.72-9.65,7.67-14.59,11.34-3.11,2.31-6.5,4.17-10.31,5.22-2.32.64-4.6,1-6.38-.96-1.76-1.94-1.39-4.34-.49-6.48.95-2.25,2.11-4.48,3.54-6.46,2.46-3.42,5.2-6.66,7.83-9.96,1.42-1.77,3.04-3.42,3.48-5.78ZM338.65,595.18c6.07-4.08,10.72-7.97,14.36-13.03,2.06-2.85,4.03-5.82,6.9-7.96,4.12-3.07,7.33-1.79,8.31,3.23.13.69.14,1.41.32,2.08.96,3.62,1.96,4.07,5.14,2.09,1.48-.92,2.83-2.08,4.15-3.24,4.24-3.74,7.88-8.05,11.58-12.3,4.98-5.71,10.02-11.37,15.72-16.38,3.72-3.28,5.5-3.3,8.88.2,1.54,1.59,2.63,1.37,3.98.15,1.05-.94,2.1-1.89,3.06-2.91,7.24-7.72,14.07-15.76,19.68-24.78,2.32-3.73,4.89-7.32,7.5-10.86,3.01-4.08,7.13-6.37,12.24-6.09,4.13.23,7.11-1.61,9.78-4.33,4.6-4.7,8.35-10.03,10.98-16.05,7.07-16.18,9.49-33.03,7.05-50.55-.14-1.03-.16-2.1-.02-3.13.12-.91.78-1.63,1.7-1.83,1.14-.24,2.13.2,2.6,1.3.48,1.13,1.01,2.31,1.1,3.51.48,5.95,1.68,11.86,1.17,17.88-.96,11.28-3.15,22.28-7.53,32.77-3.08,7.38-7.27,14.08-12.88,19.82-3.56,3.65-7.64,6.23-13.05,5.74-3.48-.31-6.1,1.32-8.3,3.81-2.58,2.91-4.69,6.18-6.7,9.48-5.89,9.68-13.09,18.33-20.75,26.62-1.91,2.07-3.85,4.13-6.41,5.44-2.9,1.49-5.7,1.79-8.25-.73-.6-.6-1.06-1.44-2.7-1.13-3.55,3.73-7.46,7.78-11.3,11.89-4.81,5.15-9.06,10.8-14.25,15.59-2.99,2.76-6.11,5.35-10.1,6.56-3.5,1.07-6.27.02-8.03-3.17-.82-1.49-1.34-3.14-2.14-5.05-2,1.35-3.18,3.1-4.35,4.79-3.14,4.55-7.12,8.26-11.45,11.62-2.37,1.83-4.76,3.63-7.19,5.38-1.79,1.3-2.93,2.82-3.16,5.18-.47,4.9-1.56,9.75-1.75,14.65-.14,3.75-1.5,7.43-1.01,11.89,5.33-7.48,10.21-14.35,15.1-21.2.92-1.29,1.84-2.59,3.25-3.42.82-.48,1.66-.57,2.47-.02,1.01.69,1.27,1.7.85,2.78-.32.81-.81,1.56-1.33,2.26-5.58,7.49-10.35,15.55-15.9,23.03-6.75,9.09-8.25,19.23-7.61,29.94.22,3.62.71,7.61,4.54,10.27,1.55-5.32,4.02-9.76,6.48-14.18,12.16-21.84,24.36-43.66,36.52-65.5,2.23-4,4.32-8.07,6.56-12.06.87-1.56,2.35-2.3,4.02-1.39,1.53.82,1.28,2.35.8,3.74-.23.66-.57,1.28-.9,1.9-2.99,5.59-5.9,11.22-8.99,16.75-11.83,21.22-23.73,42.41-35.56,63.63-1.11,1.99-1.99,4.13-2.73,6.28-.98,2.86.17,5.19,2.34,7.04,2.18,1.86,4.35.85,6.32-.4,4.56-2.89,8.17-6.67,10.25-11.74,1.73-4.24,3.48-8.46,5.87-12.39,7.86-12.94,15.75-25.86,23.5-38.87,4.24-7.11,8.28-14.33,11.89-21.79.78-1.6,1.91-3.3,4.06-2.27,2.08.99,1.72,2.88.91,4.57-1.28,2.7-2.61,5.39-4.04,8.01-8.19,14.99-16.93,29.66-26.16,44.04-3.99,6.22-7.79,12.59-10.32,19.59-.66,1.81-1.37,3.67-1.59,5.56-.39,3.5,2.05,5.28,5.38,4.04,1.13-.42,2.17-1.17,3.12-1.94,3.31-2.68,6.06-5.84,8.4-9.42,2.53-3.89,3.86-8.28,5.55-12.52,9.85-24.65,26.12-45.33,41.19-66.76.94-1.34,2.19-2.55,3.97-1.49,1.75,1.04,1.38,2.71.67,4.21-1.83,3.82-3.98,7.45-6.76,10.69-13.26,15.5-23.37,32.99-32.43,51.17-2.46,4.93-3.02,10.04-3,15.35,0,1.01-.26,2.3.96,2.77,1.08.42,2-.36,2.86-.97.57-.41,1.15-.82,1.67-1.3,6.89-6.29,14.06-12.31,20.17-19.39,7.13-8.27,14.11-16.66,21.03-25.1,11.99-14.62,22.65-30.11,30.66-47.31.61-1.31,1.83-2.58,1.07-4.43-1.24.29-2.23.62-3.26.75-1.56.2-3.18.48-4.6-.52-1.03-.73-2-1.63-1.71-3.03.3-1.51,1.54-1.74,2.88-1.63,3.83.29,7.28-1.15,10.62-2.68,13.82-6.33,26.7-14.21,38.54-23.78,19.29-15.59,30.45-36.23,36.81-59.69,4.42-16.29,5.06-32.71-1.78-48.63-3.86-8.98-7.72-17.63-16.15-24.11-17.73-13.63-36.91-23.24-59.25-25.63-11.29-1.21-22.59-1.28-32.4,6.04-.98.73-2.08,1.34-3.17,1.9-10.75,5.46-19.34,13.4-26.44,23.04-15.75,21.36-28.55,44.33-38.71,68.89-12.27,29.66-23,59.76-28.79,91.42-1,5.47-2.65,10.89-2.55,17.76ZM545.05,420.17c.06,1.59.75,2.64,1.33,3.7,9.11,16.48,12.25,33.99,8.77,52.52-4.44,23.67-13.76,45.07-30.61,62.65-12.32,12.85-27.05,22.46-42.88,30.41-3.29,1.65-5.55,3.74-7.08,7.25-6.55,15.06-14.68,29.25-24.71,42.3-8.37,10.9-16.89,21.67-26.03,31.94-2.93,3.29-5.8,6.62-8.72,9.91-1.51,1.7-1.15,2.74,1,3.36,1.68.49,3.34,1.08,5.01,1.62,2.93.94,5.6,2.39,7.17,5.08,1.6,2.75,3.78,2.85,6.32,1.97,2.82-.97,5.61-2.05,8.4-3.11,2.01-.77,3.71-.57,5.22,1.16,3.18,3.65,3.23,3.65,7.63,2,3.82-1.43,7.57-2.99,11.65-.78,1.24.67,2.38-.17,3.44-.79,3.34-1.95,6.65-3.97,10.01-5.9,2.12-1.21,4.24-2.69,6.89-1.84,3.14,1.02,5.93.05,8.56-1.49,7.89-4.61,15.72-9.23,22.34-15.75,26.5-26.09,49.29-55.08,68.37-86.97,6.69-11.18,12.54-22.79,17.32-34.97,4.43-11.28,6.41-22.94,7.25-34.91.35-4.94.69-9.93-.26-14.76-2.77-14.18-6.42-28.1-12.84-41.17-3.94-8.01-12.8-12.73-21.74-11.27-3.33.54-6.55.19-9.89-.66-6.95-1.78-14.18-1.4-21.29-2-.13-.01-.27.2-.63.48ZM596.8,344.97c.6-.93,1.05-1.66,1.54-2.37,4.11-5.9,8.26-6.83,14.41-3.28,3.08,1.78,5.67,4.17,8.17,6.65,3.5,3.47,6.91,7.03,10.41,10.5,2.21,2.18,4.66,3.88,8.51,3.43-5.65-10.13-10.88-19.89-16.47-29.43-3.76-6.41-8.54-12.17-14.23-16.93-13.19-11.02-27.57-20.09-43.96-25.73-11.4-3.92-23.08-5.12-34.84-2.79-20.66,4.11-37.77,14.86-52.67,29.46-8.23,8.07-14.14,17.51-17.09,28.68-2.38,9.01-4.57,18.06-6.75,27.12-.28,1.18-.93,2.47-.35,4.33,2.79-2.98,5.21-5.52,7.57-8.11,4.75-5.2,9.43-10.49,15.01-14.85,4.35-3.41,8.98-6.25,14.83-5.98,2.45.11,3.08-.99,2.52-3.27-.63-2.55.35-4.85,1.5-7.07,4.01-7.73,11.95-11.37,20.43-9.09,4.55,1.22,8.93,3.02,13.81,1.54,1.45-.44,3.15-.08,4.67.49,1.84.68,3.81,1.02,5.72.74,4.75-.69,8.62,1.16,12.22,3.87,1.97,1.48,3.89,3.04,5.71,4.69,1.76,1.59,3.15,1.62,4.98-.07,3.21-2.96,7.17-4.64,11.55-4.34,7.44.51,13.96,3.33,19.29,8.69.97.98,1.6,2.33,3.51,3.12ZM340.96,742.44c6.31-11.33,12.69-22.49,15.34-35.25.29-1.38.6-2.76,1.03-4.09.28-.86.92-1.57,1.93-1.48,1.27.11,1.88,1.11,1.77,2.21-.21,2.09-.59,4.18-1.06,6.23-2.1,9-6.09,17.29-10.45,25.31-4.26,7.83-7.85,15.65-7.21,24.82.07,1.03-.29,2.08-.48,3.12-1.77,9.56-1.78,19.27-2.37,28.93-.06,1.04-.68,2.51,1.05,3.12,1.78-1.14,2.15-3.15,2.95-4.86,2.2-4.64,4.53-9.31,8.33-12.75,4.37-3.95,6.46-8.28,7.17-14.33,1.13-9.59,4.47-18.84,8.29-27.74,6.12-14.23,11.31-28.83,17.36-43.09,1.29-3.04,2.59-6.12,2.97-10.16-3.25.57-5.76-.83-7.91-2.7-3.39,2.88-6.18,5.89-10.33,6.87-4.85,1.14-7.83-1.7-10.42-5.2-3.89,3.33-7.37,6.64-12.32,7.5-1.68.29-1.7,1.53-1.5,2.83.54,3.52.25,7.01-.06,10.53-.83,9.48-2.47,18.84-4.15,28.2-.71,3.93-1.19,7.9.07,11.99ZM607.2,395.68c-3.47-7.58-8.95-11.9-17.03-12.68-1.22-.12-2.4-.55-3.61-.7-18.3-2.18-34.77,2.76-49.89,12.89-2.54,1.7-4.49,3.85-5.52,6.84-.9,2.64-.37,4.43,1.81,6.43,7.56,6.92,17.1,6.4,26.23,7.51,8.6,1.05,17.21,2,25.9,2.08,2.96.03,5.47,2.14,8.95,3.14-3.52-12.66,4.22-19.24,13.16-25.5ZM362.85,766.05c2.35-.74,3.18-2.61,4.32-4.05,11.61-14.61,21.32-30.53,31.62-46.04,8.05-12.14,14.3-25.44,23.7-36.73,3.52-4.23,2.84-6.54-2.26-8.7-2.73-1.16-5.86-1.57-8.35-3.08-2.42-1.46-3.75-.76-5.47.8-4.27,3.88-8.03,8.44-13.6,10.66-.86.34-1.49.88-1.28,1.97.97,5-1.43,9.27-3.09,13.65-3.05,8.05-6.28,16.03-9.47,24.02-5.2,13.04-11.2,25.79-14.54,39.51-.61,2.53-1.44,5.01-1.58,7.97ZM601.47,373.14c.05-1.54-.93-1.76-1.58-2.25-14.11-10.48-30.59-17.24-44.39-28.25-2.35-1.87-5.74-3.62-8.85-1.99-4.6,2.4-8.43,1.43-12.24-1.38-2.11-1.56-4.17-2.43-6.66-.49-1.65,1.28-3.67.96-5.55.23-1.8-.7-3.63-1.34-5.35-2.2-2.49-1.25-5.1-1.34-7.72-.94-2.92.44-5.13,2.78-4.67,5.4,1.11,6.29,2.61,12.41,9.32,15.49,3.52,1.62,7.07,3.06,10.82,4.03,12.43,3.21,25.19,4.48,37.85,6.31,10.58,1.52,21.24,2.7,31.55,5.7,2.56.75,5,.94,7.48.33ZM454.55,380.15c11.87.41,23.19,1.32,34.22,4.69,1.06.32,2.03.22,3.05-.25,6.84-3.16,13.88-5.92,20.32-9.89,1.91-1.18,3.91-2.37,5.21-5.05-5.37-3.3-9.44-8.05-13.43-12.91-5.78-7.04-14.5-8.38-22.04-3.39-1.9,1.25-3.78,2.62-5.37,4.23-7.38,7.46-14.65,15.03-21.96,22.56ZM575.04,376.92c-1.17-.32-2.32-.68-3.5-.94-10.19-2.24-20.52-2.26-30.9-2.35-14.24-.12-26.89,4.27-38.64,11.9-.95.62-2.33.9-2.37,2.61,2.54,1.1,5.15,2.12,7.66,3.34,2.68,1.31,5.3,2.75,7.89,4.23,5.8,3.3,9.69,3.08,14.99-.87,13.36-9.96,27.91-16.83,44.87-17.91ZM698.46,408.47c-.27-1.19-.89-1.51-1.52-1.76-12.76-5-25.49-10.2-38.78-13.58-16.84-4.29-33.98-7.42-50.34-13.54-2.2-.82-4.84-1.57-7.64-.68,1.75,2.93,4.04,4.57,6.39,6.1,6.53,4.25,13.46,6.86,21.37,8.15,17.31,2.83,34.43,6.81,51.6,10.49,6.3,1.35,12.5,3.17,18.93,4.82ZM619.36,363.16c1.97.01,4.1.11,4.99-2.08.84-2.07.45-4.16-.94-5.98-.21-.28-.45-.54-.7-.79-3.03-2.95-6-5.95-9.12-8.81-1.55-1.42-3.31-2.68-5.35-3.34-2.71-.88-4.61.37-4.89,3.03-.97,9.26,6.73,17.9,16.01,17.96ZM586.79,357.27c5.9,4.6,11.55,8.42,17.58,11.66,1.18.64,2.47,1.51,3.73-.08,1.12-1.43.54-2.65-.32-3.83-1.24-1.7-2.47-3.43-3.89-4.98-4.94-5.37-9.53-6.17-17.1-2.78ZM579.55,343.5c-.45-1.68-1.55-2.6-3.36-2.57-.98.01-1.91.58-1.65,1.51.48,1.73,2.23,2.05,3.73,2.41.76.18,1.18-.52,1.28-1.34ZM588.16,351.4c1.44.15,2.88.42,4.22-.6-1.69-1.86-3.09-1.71-4.22.6ZM386.06,677.02c-.26-.5-.57-1.12-.88-1.74-.34.36-.83.68-.98,1.11-.26.77.11,1.4.93,1.56.51.1,1.06-.02.93-.93ZM527.9,366.61c1.33.82,2.27.79,3.26.26-.86-.77-1.79-.68-3.26-.26Z"/>
    <path d="M484.87,409.52c-.11,1.43-1.02,2.2-2.33,2.41-1.73.28-3.5.32-5.23.57-11.39,1.6-19.54,8.24-26.37,16.94-1.19,1.52-2.3,3.12-3.61,4.53-.85.91-2.02,1.51-3.31.65-1.44-.96-1.52-2.26-.76-3.68,1.51-2.81,3.55-5.23,5.62-7.63,7.38-8.54,16.38-14.25,27.7-15.96,1.93-.29,3.85-.44,5.77-.16,1.31.2,2.27.88,2.52,2.34Z"/>
    <path d="M435.19,416.25c-.24,1.54-1.35,2.44-2.37,3.4-4.08,3.86-8.14,7.73-11.61,12.18-3.6,4.6-6.55,9.54-8.39,15.1-.17.5-.3,1.01-.49,1.5-.68,1.75-1.65,3.35-3.82,2.71-2.28-.67-2.08-2.55-1.46-4.32.82-2.31,1.58-4.66,2.65-6.86,4.62-9.48,11.67-17.02,19.44-23.96,1.06-.95,2.23-1.83,3.67-1.93,1.43-.1,2.27.74,2.39,2.17Z"/>
    <path d="M496.21,531.31c-1.34-.06-2.07-.49-2.54-1.3-.62-1.07-.31-2.04.49-2.85.49-.49,1.07-.93,1.69-1.23,9.22-4.43,13.91-12.49,17.36-21.56.31-.81.55-1.67.99-2.42.54-.94,1.36-1.69,2.56-1.4,1.4.34,1.93,1.41,1.93,2.76,0,.52-.1,1.06-.26,1.55-3.37,10.47-8.57,19.6-18.69,25.03-1.22.65-2.58,1.04-3.54,1.42Z"/>
    <path d="M432.74,581.32c-4.14-.12-7.15-.86-8.69-4.22-.78-1.72-.89-3.53,1.02-4.63,1.58-.91,2.62.16,3.45,1.42,1.88,2.84,4.32,2.45,6.97,1.29,5.34-2.34,9.18-6.41,12.68-10.88.76-.97,1.35-2.07,2.13-3.02.82-1,1.89-1.68,3.23-.98,1.62.85,1.41,2.26.94,3.66-.17.49-.43.97-.72,1.41-3.92,5.98-8.76,11.01-15.23,14.25-2.04,1.02-4.2,1.86-5.77,1.71Z"/>
    <path d="M456.99,553.79c-2.42.21-4.68-.64-6.82-1.93-3.05-1.83-5.31-4.53-7.73-7.06-.93-.97-1.38-2.14-.45-3.29,1.04-1.3,2.38-1.22,3.77-.47,2.06,1.12,3.32,3.08,5.01,4.6,3.94,3.53,6.77,3.96,11.51,1.76,2.09-.97,3.9-2.33,5.57-3.89,1.02-.96,2.04-1.92,3.12-2.82,1.01-.83,2.2-1.31,3.33-.35,1.33,1.12,1.07,2.6.17,3.78-3.56,4.65-11.77,10.13-17.47,9.68Z"/>
    <path d="M471.75,532.73c-4.44.22-8.29-1.33-11.87-3.68-1.23-.81-2.14-1.97-1.46-3.55.74-1.73,2.31-1.26,3.65-1.02.67.11,1.31.48,1.91.84,6.21,3.75,12.08,2.32,17.79-1.17,2.69-1.65,5.16-3.61,7.52-5.72,1.05-.94,2.31-1.87,3.7-.58,1.54,1.43.89,2.97-.29,4.14-5.83,5.82-12.44,10.16-20.94,10.74Z"/>
    <path d="M402.64,505.01c-1.53-.31-2.32-1.36-1.88-2.99.31-1.16.92-2.27,1.52-3.34,3.95-7.02,8.6-13.68,11.01-21.51.47-1.52,1.35-3.17,3.33-2.61,2.25.64,2.1,2.48,1.48,4.3-.68,1.99-1.23,4.03-2.08,5.95-2.71,6.11-6.23,11.78-9.65,17.51-.81,1.35-1.66,2.75-3.73,2.69Z"/>
    <path d="M525.69,442.35c-1.35,6.24-3.96,13.11-11.29,17.06-1.06.57-2.14,1.21-3.43,1.15-1.19-.06-1.98-.75-2.37-1.78-.33-.89.07-1.74.76-2.34.51-.46,1.13-.82,1.74-1.14,6-3.16,8.34-8.65,9.46-14.9.31-1.75-.65-4.17,2.15-4.62,1.9-.31,3.03,1.79,2.98,6.57Z"/>
    <path d="M449.57,448.48c.2,2.94-.61,4.91-1.55,6.77-2.22,4.37-5.09,8.34-8.11,12.19-.63.8-1.52,1.44-2.4,1.97-.8.47-1.67.29-2.41-.36-.72-.64-1.01-1.42-.73-2.34.47-1.54,1.65-2.65,2.5-3.96,2.93-4.5,6.88-8.45,7.71-14.1.26-1.79.66-3.71,3.01-3.5,2.59.23,1.8,2.5,1.99,3.33Z"/>
    <path d="M494.87,495.57c-1.34.05-2.97-.26-3.18-2.26-.18-1.69,1.13-2.5,2.63-2.71,6.66-.94,11.61-4.64,15.81-9.62.55-.66,1.24-1.25,1.97-1.7.8-.48,1.76-.4,2.47.2.69.59.96,1.46.72,2.39-.13.5-.27,1.05-.57,1.46-4.89,6.62-11.08,11.18-19.84,12.24Z"/>
    <path d="M538.55,471.15c1.19.3,1.82.99,1.93,2.21.16,1.66-.41,3.13-1.14,4.54-2.83,5.46-6.42,10.12-12.75,11.8-1.01.27-2.04.5-3.07.55-1.19.06-2.03-.66-2.3-1.78-.21-.91.27-1.75,1-2.3.55-.41,1.19-.75,1.85-.95,5.74-1.69,8.96-5.94,11.27-11.09.67-1.5,1.31-2.91,3.21-2.98Z"/>
    <path d="M475.9,444.15c0,2.27.08,4.55-.02,6.82-.08,1.78-.4,3.81-2.58,3.98-2.34.19-2.73-1.94-2.85-3.65-.41-5.59-.18-11.18.51-16.75.14-1.14.65-1.98,1.87-2.19,1.49-.25,2.39.61,2.74,1.86.32,1.16.33,2.42.36,3.63.05,2.1.01,4.2.01,6.3-.01,0-.03,0-.04,0Z"/>
    <path d="M385.14,531.08c-1.11,5.69-3.59,11.46-6.68,16.98-.63,1.12-1.82,1.7-3.16.92-1.23-.72-1.54-1.89-1.14-3.18.36-1.17.89-2.28,1.34-3.43,1.66-4.23,3.88-8.26,4.62-12.83.28-1.7,1.07-3.17,3.06-2.85,2.09.34,1.88,2.21,1.96,4.38Z"/>
    <path d="M386.2,488.01c-.1.3-.29,1.17-.67,1.94-2.25,4.57-4.53,9.11-6.82,13.65-.31.62-.73,1.2-1.2,1.71-.8.86-1.81,1.02-2.86.52-.89-.42-1.13-1.27-1.12-2.19,0-.35,0-.72.13-1.04,2.28-5.71,5.03-11.19,8.14-16.49.62-1.06,1.72-1.85,3.12-1.27,1.13.46,1.45,1.44,1.29,3.15Z"/>
    <path d="M480.59,558.03c-3.29.1-6.02-1.01-8.49-2.8-.92-.67-1.29-1.65-.79-2.77.49-1.09,1.44-1.53,2.56-1.45.68.05,1.39.28,2,.6,4.24,2.25,8.1,1.34,11.85-1.24,1.69-1.17,3.55-2.79,5.61-.77,1.23,1.21.06,3.16-3.11,5.21-2.97,1.92-6.07,3.56-9.63,3.23Z"/>
    <path d="M404.73,578.16c-1.8-.03-3.52-.2-5.04-1.27-.76-.54-1.34-1.21-1.21-2.15.12-.95.86-1.74,1.75-1.65,6.3.68,11.19-1.85,15.34-6.36.58-.63,1.56-.73,2.44-.22,1.06.62,1.39,1.58,1.08,2.68-.24.82-.56,1.74-1.14,2.31-3.67,3.66-7.83,6.39-13.21,6.66Z"/>
    <path d="M464.17,474.77c-1.74,4.72-4.35,9.83-7.31,14.76-.62,1.04-1.85,1.72-3.17,1.03-1.51-.78-1.7-2.1-1.08-3.57,2.22-5.3,5.39-10.16,7.27-15.63.34-1,1.46-1.66,2.58-1.25,1.79.66,2,2.23,1.7,4.66Z"/>
    <path d="M427.26,516.65c-.1,1.48-.92,2.63-1.85,3.66-2.68,2.98-5.41,5.93-8.18,8.83-.58.61-1.37,1.11-2.16,1.39-1.04.37-2.09.14-2.78-.85-.55-.79-.54-1.73.02-2.45,1.17-1.51,2.45-2.94,3.73-4.36,2.34-2.59,4.67-5.18,7.09-7.69.72-.75,1.74-1.19,2.86-.63.87.43,1.26,1.15,1.27,2.1Z"/>
    <path d="M483.38,615.65c-2.11-.02-3.22-1.8-2.38-3.34.33-.59.83-1.19,1.41-1.53,8.66-5.06,13.76-13.36,19.38-21.18.51-.71.98-1.47,1.56-2.12.84-.95,1.86-1.8,3.19-1,1.52.93,1.27,2.34.67,3.71-.28.64-.67,1.23-1.06,1.82-3.62,5.39-7.4,10.68-11.64,15.61-2.43,2.83-5.42,4.98-8.58,6.9-.88.53-1.9.84-2.55,1.12Z"/>
    <path d="M542.17,533.74c-1.53,0-3.08.2-3.46-1.7-.35-1.77.89-2.83,2.26-3.03,9.61-1.43,14.49-8.49,19.27-15.77,1.08-1.64,2.03-4.53,4.6-3.06,2.52,1.45.7,3.73-.3,5.49-2.79,4.92-6.25,9.33-10.57,13.02-3.44,2.94-7.42,4.61-11.8,5.05Z"/>
    <path d="M520.97,611.69c-1.32-.09-2.27-.88-2.13-2.31.11-1.19.55-2.39,1.07-3.48,3.73-7.81,8.4-15.02,14.19-21.47,1.35-1.5,2.91-3.95,5.14-2.25,2.52,1.93.05,3.76-1.22,5.24-5.43,6.29-9.86,13.22-13.45,20.71-1.39,2.89-2.1,3.5-3.6,3.57Z"/>
    <path d="M585.71,474.33c-.7,5.53-.99,11.93-4.79,17.38-1.17,1.68-2.41,4.21-4.86,2.76-2.72-1.61-.62-3.65.47-5.34,3.5-5.47,3.86-11.58,3.69-17.8-.05-1.76-.28-3.51-.41-5.27-.1-1.27-.13-2.59,1.48-2.93,1.7-.36,2.76.68,3.18,2.11.78,2.7,1.21,5.5,1.26,9.09Z"/>
    <path d="M578.72,545.73c-.33.75-.75,1.91-1.32,2.99-2.98,5.61-7.76,9.51-12.77,13.15-1.29.94-2.94,1.79-4.19.03-1.2-1.69-.02-3.03,1.29-4.02,5.09-3.86,9.79-8.05,12.8-13.84.49-.95,1.49-1.58,2.67-1.22,1.17.36,1.55,1.33,1.52,2.92Z"/>
    <path d="M539.15,555.99c-.12,1.32-.94,2.25-1.82,3.1-4.6,4.41-10.07,7.59-15.49,10.83-1.31.79-2.77.91-3.71-.57-1-1.58.16-2.69,1.28-3.53,1.68-1.26,3.49-2.35,5.26-3.49,3.54-2.28,7.06-4.59,10.12-7.53.95-.91,2.18-1.16,3.41-.55.66.33.94,1,.96,1.75Z"/>
    <path d="M467.81,620.69c1.31.07,2.16.77,2.11,2.28-.04,1.1-.72,1.93-1.37,2.76-3.57,4.52-7.13,9.06-10.7,13.58-.43.55-.87,1.12-1.43,1.52-.91.68-2,.81-2.91.08-.71-.57-.92-1.47-.64-2.39.15-.5.3-1.02.59-1.44,3.58-5.17,7.25-10.28,11.54-14.89.71-.76,1.52-1.47,2.81-1.49Z"/>
    <path d="M493.85,636.99c-.11,1.13-.83,1.9-1.61,2.61-3.23,2.95-6.45,5.89-9.72,8.79-.64.57-1.4,1.08-2.19,1.38-.82.31-1.78.25-2.43-.46-.81-.87-.91-2.07-.16-2.87,3.93-4.21,7.97-8.35,12.9-11.42,1.61-1,3.37.26,3.21,1.97Z"/>
    <path d="M558.41,311.7c0,1.58.04,2.1,0,2.62-.15,1.67-.72,3.1-2.54,3.54-1.84.45-2.98-.63-3.83-2.06-2.03-3.44-2.2-7.3-2.28-11.13-.04-1.73.3-3.47.42-5.21.1-1.46.29-2.91,2.05-3.18,1.65-.25,2.51.8,3.08,2.24,1.8,4.58,2.58,9.39,3.11,13.19Z"/>
    <path d="M578.61,314.27c-.12,1.99-.12,3.94-.4,5.84-.19,1.25-1.04,2.27-2.35,2.61-1.58.4-2.7-.46-3.6-1.63-2.67-3.45-1.84-13.11,1.34-15.9,1.48-1.3,3.59-.78,4.04,1.29.56,2.56.67,5.22.97,7.8Z"/>
    <path d="M533.15,314.64c.04,1.7-.25,3.29-2.13,3.79-1.9.51-3.06-.77-3.71-2.26-1.74-4.04-3.15-8.21-3.51-12.64-.14-1.66.06-3.37,1.93-3.88,1.93-.53,2.87,1.01,3.51,2.49,1.76,4.02,3.6,8.03,3.9,12.5Z"/>
    <path d="M542.48,305.73c-.2,2.45-.41,4.49-2.79,5-2.35.51-3.49-1.02-4.3-2.96-1.5-3.57-1.31-7.19-.35-10.81.37-1.39,1.09-2.7,2.78-2.72,1.72-.02,2.34,1.24,2.67,2.72.68,3.07,1.39,6.14,1.99,8.76Z"/>
    <path d="M591.41,316.07c-.15,1.93-.13,3.88-.51,5.74-.29,1.42-1.35,2.43-3,2.45-1.42.02-2.19-.86-2.81-2-1.6-2.93-.95-9.99,1.19-12.6,1.48-1.81,3.83-1.54,4.47.7.52,1.81.46,3.79.66,5.7Z"/>
    <path d="M569.78,297.82c-.66,2.18-1.36,5.08-2.44,7.83-.65,1.65-2.03,3.15-4.07,2.45-2.25-.77-2.59-2.68-1.78-4.74,1.09-2.75,1.77-5.7,3.49-8.18.86-1.24,2.06-1.95,3.61-1.21,1.33.64,1.41,1.87,1.2,3.84Z"/>
    <path d="M478.76,340.28c-3.08.24-6.14-.16-8.83-2.11-1.03-.75-1.95-1.73-1.43-3.05.59-1.5,1.95-2.08,3.43-1.37,2.92,1.4,6.03,1.52,9.16,1.71.52.03,1.05.1,1.54.26,1.17.39,2.46.84,2.37,2.35-.11,1.78-1.51,2.13-2.99,2.19-1.04.04-2.09,0-3.25,0Z"/>
    <path d="M501.04,312.04c2.29.58,4.75,1.51,6.39,3.75.9,1.24.92,2.65-.13,3.87-.88,1.03-1.99,1.31-3.31.84-2.39-.85-4.26-2.38-5.77-4.37-.68-.89-.85-1.91-.2-2.93.63-1,1.59-1.29,3.02-1.17Z"/>
    <path d="M508.65,301.86c.03-.37.04-1.24.21-2.07.19-.91.79-1.53,1.76-1.69,1.18-.19,2.06.24,2.53,1.34,1.19,2.77,1.08,5.78,1.46,8.68.13,1.01-.72,1.96-1.88,2.19-1.19.23-1.95-.47-2.56-1.39-1.33-2-1.09-4.35-1.52-7.06Z"/>
    <path d="M483.78,319.37c.29.14,1.04.31,1.49.77,1.73,1.79,3.71,3.22,5.82,4.52.94.58,1.49,1.5.98,2.69-.51,1.19-1.57,1.29-2.65,1.26-2.79-.08-7.24-3.37-8.16-6.01-.63-1.81.37-3.34,2.53-3.24Z"/>
    <path d="M608.33,322.71c-.42,2.24-1.51,4.38-3.64,5.87-.91.64-1.89.93-2.91.18-1.01-.75-1.2-1.88-.7-2.82.98-1.84,2.13-3.62,3.39-5.28.65-.86,1.74-1.16,2.83-.47.83.52,1.1,1.31,1.03,2.52Z"/>
  </g>
</svg>