<?xml version="1.0" encoding="UTF-8"?>
<svg id="Ebene_3" data-name="Ebene 3" xmlns="http://www.w3.org/2000/svg" viewBox="0 0 1080 1080">
  <defs>
    <style>
      .cls-1, .cls-2 {
        fill: #fff;
      }

      .cls-2 {
        stroke: #fff;
        stroke-miterlimit: 10;
        stroke-width: 7px;
      }
    </style>
  </defs>
  <g>
    <path class="cls-1" d="M536.58,276.53c-20.01,2.52-39.2,11.24-54.27,24.66-8.2,7.3-15.43,16.48-17.28,27.3-.47,2.77-.59,5.63-1.47,8.3-1.21,3.68-3.76,6.72-5.88,9.97-5.71,8.77-8.28,19.15-11.77,29.01-3.27,9.25-8.62,19.25-18.16,21.59-2.8.69-5.78.64-8.47,1.7-3.92,1.54-6.57,5.15-9.01,8.59-4.8,6.77-9.6,13.54-14.4,20.31-1.09,1.53-2.21,3.16-2.38,5.02-.28,2.97,1.89,5.57,4.1,7.58,14.13,12.85,34.1,16.28,52.11,22.63,25.22,8.9,47.96,24.32,73.82,31.14,7.25,1.91,14.67,3.13,22.07,4.34,8.62,1.41,17.24,2.82,25.92,3.77,7.86.87,15.76,1.36,23.66,1.85,4.06.25,8.11.51,12.17.76,1.85.12,3.83.2,5.4-.79,2.92-1.85,2.71-6.11,2.07-9.51-6.29-33.41-19.98-65.81-19.57-99.8.02-1.51.12-3.17,1.16-4.26,1.02-1.08,2.63-1.29,4.11-1.43,12-1.19,24.01-2.38,36.01-3.58,4.68-.47,10.02-1.31,12.55-5.28,2.97-4.64.41-10.69-2.16-15.56-6.62-12.52-13.25-25.03-19.87-37.55-1.3-2.45-2.61-4.92-4.28-7.14-2.5-3.3-5.75-5.94-8.97-8.55-23.18-18.78-49.08-38.54-78.9-37.95"/>
    <path class="cls-1" d="M536.58,274.03c-12.87,1.65-25.32,5.61-36.73,11.81-11.12,6.04-21.69,14.18-29.28,24.39-3.69,4.96-6.59,10.68-7.79,16.78-.65,3.29-.63,6.78-1.91,9.92-1.22,2.98-3.33,5.54-5.1,8.2-3.7,5.6-6.17,11.91-8.33,18.23-1.97,5.76-3.57,11.72-6.16,17.25-2.16,4.62-5.02,9.36-9.37,12.21-2.46,1.61-5.07,2.27-7.96,2.67-3.25.45-6.28,1.13-8.95,3.14s-4.54,4.48-6.42,7.1c-2.13,2.97-4.23,5.96-6.34,8.94s-4.41,6.22-6.61,9.33c-2,2.82-4.58,5.74-4.65,9.38-.07,3.3,1.99,6.18,4.25,8.38s4.86,4.16,7.49,5.92c5.13,3.41,10.76,5.99,16.5,8.18,11.61,4.43,23.76,7.25,35.34,11.8,12.63,4.96,24.64,11.32,36.91,17.06,12.61,5.9,25.5,11.03,39.18,13.83,7.37,1.51,14.81,2.64,22.24,3.82,7.52,1.19,15.06,2.27,22.64,2.99s14.95,1.15,22.43,1.62c3.64.23,7.33.65,10.99.65,3.09,0,6.12-1.09,7.63-3.95,1.39-2.63,1.25-5.72.81-8.57-.5-3.29-1.26-6.56-1.99-9.8-1.55-6.94-3.34-13.83-5.16-20.7-3.64-13.7-7.48-27.39-9.97-41.36-1.22-6.86-2.08-13.78-2.4-20.75-.08-1.72-.13-3.45-.14-5.17,0-1.37-.24-3.03.2-4.35.32-.96,1.28-1.04,2.2-1.17,1.97-.28,3.97-.4,5.95-.59,7.52-.75,15.05-1.49,22.57-2.24,3.55-.35,7.13-.63,10.67-1.11,2.69-.37,5.38-.98,7.77-2.31,2.67-1.49,4.75-4.01,5.47-7.02.74-3.1.15-6.36-.93-9.31-1.24-3.36-3.02-6.49-4.7-9.65s-3.47-6.56-5.2-9.83c-3.55-6.7-7.1-13.41-10.64-20.11-1.67-3.16-3.24-6.42-5.24-9.39-1.92-2.85-4.28-5.3-6.88-7.54-4.97-4.29-10.2-8.33-15.41-12.33-5.16-3.97-10.43-7.82-15.9-11.37-10.55-6.85-22-12.74-34.28-15.71-6.05-1.47-12.28-2.21-18.5-2.11-3.21.05-3.22,5.05,0,5,25.17-.41,47.33,13.95,66.51,28.77,4.97,3.84,10.02,7.7,14.72,11.87,2.44,2.17,4.6,4.51,6.3,7.31,1.85,3.03,3.42,6.24,5.07,9.37,3.39,6.41,6.78,12.81,10.17,19.22,1.73,3.28,3.47,6.56,5.2,9.83,1.52,2.87,3.21,5.72,4.24,8.82.83,2.51,1.37,5.45-.18,7.8-1.27,1.92-3.55,2.78-5.7,3.3-2.86.69-5.83.85-8.76,1.14-3.55.35-7.1.71-10.65,1.06-7.34.73-14.72,1.3-22.05,2.2-3.33.41-6.19,1.96-6.8,5.54-.56,3.27-.24,6.81-.09,10.11,1.28,27.73,10.71,54.1,16.97,80.91.77,3.3,1.5,6.61,2.15,9.94.45,2.3,1.13,4.9.47,7.22-.7,2.48-3.46,2.1-5.63,1.97-3.72-.23-7.44-.47-11.16-.7-7.39-.46-14.79-.92-22.15-1.67-7.21-.74-14.38-1.82-21.54-2.97-7.17-1.15-14.36-2.25-21.47-3.77-6.7-1.43-13.24-3.39-19.65-5.79-12.26-4.61-23.9-10.65-35.7-16.28-6.06-2.89-12.18-5.69-18.43-8.18-5.81-2.32-11.76-4.24-17.74-6.08-11.22-3.44-22.75-6.71-32.74-13.07-2.44-1.55-4.76-3.28-6.9-5.23-1.86-1.7-4.21-4.09-3.06-6.81.55-1.3,1.5-2.45,2.32-3.6,1.18-1.66,2.35-3.32,3.53-4.97,2.11-2.97,4.21-5.94,6.32-8.91,1.89-2.66,3.7-5.4,5.71-7.98,1.64-2.11,3.62-4.29,6.2-5.21,3.03-1.08,6.35-.91,9.41-1.93,2.63-.88,4.97-2.28,7.09-4.06,8.9-7.48,11.74-19.91,15.31-30.41,2.09-6.15,4.49-12.19,8.13-17.61,1.76-2.62,3.69-5.13,4.95-8.05,1.4-3.25,1.58-6.66,2.17-10.1,2.05-11.87,10.55-21.28,19.55-28.69,9.47-7.79,20.52-13.75,32.18-17.5,5.66-1.82,11.5-3.17,17.4-3.93,1.34-.17,2.5-1.03,2.5-2.5,0-1.22-1.15-2.67-2.5-2.5h0Z"/>
  </g>
  <path class="cls-1" d="M596.12,398.21c3.67-.53,7.13-2.34,9.78-4.92.94-.91.99-2.63,0-3.54s-2.53-.97-3.54,0c-.29.28-.59.55-.9.81-.09.07-.58.46-.25.2s-.17.12-.26.18c-.66.46-1.36.88-2.08,1.23-.17.08-.34.16-.52.24-.08.04-.4.17-.03.02s.05-.02-.03,0c-.38.15-.76.28-1.14.4-.77.24-1.56.41-2.36.53-.58.08-1.21.67-1.49,1.15-.31.54-.45,1.33-.25,1.93s.57,1.19,1.15,1.49c.63.34,1.22.35,1.93.25h0Z"/>
  <g>
    <path class="cls-1" d="M393.36,435.58c-19.47,28.42-33.66,60.44-41.63,93.96-.61,2.56-1.19,5.13-2.21,7.55-.81,1.92-1.89,3.71-2.87,5.55-5.78,10.84-8.11,23.13-10.19,35.24-1.89,11.03-3.63,22.1-5.01,33.21-2.88,23.3-4.14,46.8-3.76,70.28,16.7,3.45,33.98,1.57,50.93-.33,4.21-.47,8.51-.97,12.32-2.82,2.98-1.45,5.55-3.68,8.62-4.92,3.24-1.31,6.82-1.42,10.31-1.62,22.18-1.31,43.82-7.14,65.28-12.93,4.81-1.3,9.61-2.6,14.42-3.9,7.33-1.98,14.82-4.03,21.08-8.32,4.14-2.84,7.58-6.55,11.36-9.84,6.71-5.86,14.52-10.45,20.69-16.87,13.2-13.74,17.7-34.49,32.11-46.96-5.6.05-9.45,7.63-6.19,12.18,8.35-14.02,16.2-28.34,23.54-42.92-5.12,4.57-8.02,11.52-7.66,18.37,6.74-17.9,13.49-35.8,20.23-53.7-1.15,11.78-5.1,23.29-11.42,33.3,5.01-10.62,8.88-21.77,11.55-33.2-36.96-9.32-74.06-18.68-109.38-33.01-33.74-13.7-66.49-32.09-102.71-35.86-1.96-.2-4.8,1.81-3.12,2.83"/>
    <path class="cls-1" d="M391.2,434.32c-18.26,26.71-31.94,56.58-40.21,87.87-1.05,3.96-1.8,8.03-3.04,11.93s-3.56,7.19-5.22,10.83c-3.4,7.47-5.49,15.4-7.08,23.43-3.42,17.33-5.99,34.92-7.81,52.48-2.09,20.1-2.96,40.31-2.65,60.51.02,1.04.76,2.19,1.84,2.41,10.06,2.04,20.34,2.31,30.57,1.72,5.16-.3,10.31-.79,15.45-1.35,4.8-.52,9.77-.8,14.45-2.03,2.31-.61,4.52-1.54,6.57-2.77,1.96-1.17,3.81-2.57,5.89-3.52,4.32-1.97,9.54-1.58,14.17-1.97,10.22-.86,20.35-2.6,30.37-4.8,10-2.19,19.89-4.84,29.78-7.5,5.05-1.36,10.11-2.73,15.16-4.1,4.56-1.23,9.15-2.45,13.55-4.2,4.42-1.76,8.45-4.01,12.14-7.02,3.64-2.97,6.88-6.39,10.51-9.37,7.06-5.8,14.95-10.6,20.93-17.62,10.44-12.26,15.04-28.4,25.76-40.42,1.33-1.49,2.76-2.9,4.27-4.22,1.63-1.42.33-4.34-1.77-4.27-7.45.26-12.64,9.6-8.35,15.94,1.04,1.53,3.31,1.69,4.32,0,8.34-14.03,16.19-28.34,23.54-42.92,1.27-2.53-1.78-4.98-3.93-3.03-5.58,5.09-8.71,12.6-8.4,20.14.12,2.92,3.93,3.27,4.91.66,6.74-17.9,13.49-35.8,20.23-53.7-1.64-.22-3.27-.44-4.91-.66-1.15,11.37-5.01,22.36-11.08,32.03l4.32,2.52c5.09-10.83,9.07-22.15,11.8-33.8.3-1.29-.39-2.73-1.75-3.08-31.13-7.85-62.33-15.71-92.57-26.59-14.53-5.23-28.65-11.38-42.77-17.63-13.84-6.12-27.74-12.22-42.14-16.93-7.96-2.61-16.07-4.78-24.32-6.26-1.94-.35-3.9-.66-5.85-.93s-4.35-.87-6.4-.53c-3.6.6-6.82,4.63-3.07,7.4,1.09.8,2.79.18,3.42-.9.74-1.27.19-2.62-.9-3.42l.38,2.35c.17-.23.24-.29.19-.18-.05.01.42-.22.48-.24.6-.2,1.14-.07,1.79,0,1.75.2,3.49.43,5.22.7,3.57.55,7.12,1.24,10.65,2.05,6.89,1.57,13.68,3.59,20.36,5.88,13.54,4.65,26.64,10.45,39.73,16.24,13.5,5.97,27.03,11.83,40.91,16.86,14.35,5.2,28.93,9.71,43.61,13.86,16.57,4.68,33.27,8.89,49.96,13.1l-1.75-3.08c-2.63,11.23-6.39,22.16-11.29,32.6-1.35,2.88,2.58,5.29,4.32,2.52,6.56-10.45,10.53-22.29,11.76-34.56.12-1.22-1.05-2.32-2.17-2.46-1.3-.16-2.29.59-2.74,1.79-6.74,17.9-13.49,35.8-20.23,53.7,1.64.22,3.27.44,4.91.66-.26-6.32,2.26-12.34,6.93-16.6-1.31-1.01-2.62-2.02-3.93-3.03-7.34,14.57-15.19,28.89-23.54,42.92h4.32c-2.05-3.03.13-8.28,4.03-8.42-.59-1.42-1.18-2.85-1.77-4.27-12.17,10.63-17.29,26.44-26.15,39.51-2.25,3.31-4.78,6.4-7.69,9.16-3.31,3.15-6.99,5.86-10.64,8.59-3.75,2.8-7.41,5.67-10.85,8.86s-6.49,6.18-10.37,8.47c-8.16,4.82-17.94,6.64-26.99,9.08-9.86,2.66-19.72,5.38-29.65,7.77-9.71,2.33-19.52,4.38-29.43,5.61-4.96.62-9.93.86-14.9,1.28-2.36.2-4.77.5-7.01,1.31s-4.22,2.05-6.21,3.32c-1.86,1.19-3.71,2.27-5.82,2.93-2.12.66-4.32,1.05-6.52,1.32-4.97.61-9.96,1.13-14.95,1.59-10.06.92-20.24,1.38-30.3.24-2.42-.27-4.82-.67-7.2-1.16l1.84,2.41c-.28-17.84.37-35.68,1.97-53.45,1.58-17.54,4.17-34.98,7.22-52.32,1.41-8.01,3.04-16.03,5.85-23.68,1.41-3.84,3.28-7.38,5.2-10.99,1.97-3.72,2.96-7.63,3.94-11.69,3.72-15.41,8.74-30.53,15.04-45.08,7.17-16.56,15.93-32.42,26.11-47.32,1.82-2.66-2.51-5.17-4.32-2.52h0Z"/>
  </g>
  <path class="cls-1" d="M606.27,502.93c-.85,4.45-2.02,8.82-3.48,13.11-.42,1.24.48,2.79,1.75,3.08,1.39.32,2.62-.42,3.08-1.75,1.46-4.28,2.63-8.66,3.48-13.11.25-1.28-.36-2.76-1.75-3.08-1.23-.28-2.81.37-3.08,1.75h0Z"/>
  <path class="cls-1" d="M567.53,582.72c-4.58,2.23-8.44,6.06-10.74,10.6-.59,1.17-.35,2.76.9,3.42,1.14.6,2.79.35,3.42-.9.51-1.01,1.1-1.99,1.76-2.91.09-.13.18-.25.28-.37.33-.44-.36.44-.01.02.16-.2.33-.4.49-.59.39-.45.79-.88,1.21-1.3s.82-.78,1.26-1.15c.1-.08.2-.17.3-.25.17-.14.51-.27-.02,0,.24-.13.46-.35.68-.5.95-.67,1.95-1.26,2.99-1.77,1.18-.57,1.59-2.34.9-3.42-.78-1.21-2.16-1.51-3.42-.9h0Z"/>
  <g>
    <path class="cls-1" d="M340.18,691.17c-.05,13.49-.11,26.98-.16,40.48,0,2.33-.03,4.71-.79,6.91-.64,1.84-1.76,3.47-2.48,5.28-1.25,3.16-1.19,6.66-1.11,10.06.3,12.84.6,25.67.91,38.51,6.76-6.12,13.52-12.24,20.28-18.36,3.61-3.27,7.3-6.63,9.63-10.91,1.58-2.89,2.5-6.14,4.3-8.89,1.66-2.53,3.99-4.53,6.07-6.73,4.89-5.18,8.39-11.49,11.9-17.69,7.37-13.01,15.01-25.86,22.93-38.54,1.96-3.14,4-6.33,6.93-8.58,2.82-2.16,6.28-3.31,9.71-4.24,11.74-3.2,24-4.39,36.15-3.78,5.09.26,10.26.82,15.23-.26s9.87-4.21,11.46-9.05c.61-1.85.9-4.14,2.64-5.02.95-.48,2.07-.38,3.13-.36,9.72.18,17.69-7.29,24.48-14.24,2.97-3.04,5.94-6.08,8.9-9.11,1.85-1.9,3.86-4.36,3.1-6.9-.44-1.46-1.7-2.5-2.93-3.4-20.16-14.85-46.45-18.19-71.48-18.97-14.87-.46-29.76-.2-44.61.79-6.63.44-13.29,1.04-19.74,2.66-8.53,2.15-16.52,6.05-24.1,10.5-18.87,11.07-35.93,26.06-46.4,45.26-1.71,3.13-3.26,6.48-3.38,10.04-.12,3.56,1.51,7.4,4.73,8.92,4.78,2.26,12.44-.26,14.38,4.66"/>
    <path class="cls-1" d="M337.68,691.17c-.06,13.65-.06,27.3-.17,40.94-.01,1.48,0,2.99-.32,4.44s-1.04,2.82-1.75,4.19c-1.49,2.91-2.19,5.88-2.32,9.14s.06,6.3.14,9.44c.08,3.46.16,6.91.24,10.37.18,7.57.36,15.14.53,22.71.05,2.23,2.67,3.22,4.27,1.77,7.66-6.94,15.48-13.74,22.98-20.84,3.34-3.16,6.35-6.64,8.27-10.86.95-2.08,1.73-4.25,2.9-6.23,1.1-1.88,2.62-3.42,4.15-4.95,3.35-3.35,6.27-6.99,8.83-10.98,2.63-4.1,4.95-8.39,7.36-12.62,5.08-8.89,10.29-17.7,15.62-26.44,2.52-4.13,4.95-8.38,7.75-12.34,2.53-3.57,5.76-5.83,9.9-7.2,9.32-3.06,19.33-4.4,29.11-4.65,5.01-.13,9.98.22,14.99.43,4.72.2,9.55-.04,13.95-1.91,3.67-1.56,7.09-4.24,8.77-7.95.43-.94.73-1.9,1.02-2.89.17-.6.34-1.69.86-2.12.25-.21,1.08-.16,1.52-.16,1.11.02,2.21,0,3.32-.13,8.67-1.05,15.6-6.91,21.58-12.85,3.5-3.47,6.91-7.04,10.35-10.57,3.25-3.32,6.43-7.91,2.93-12.29-1.36-1.69-3.33-2.92-5.11-4.13-1.81-1.22-3.67-2.37-5.57-3.43-3.8-2.13-7.79-3.94-11.85-5.49-8.09-3.1-16.57-5.08-25.13-6.37-18.98-2.87-38.44-2.95-57.58-2.3-10.19.35-20.57.68-30.63,2.5-9.64,1.75-18.67,5.69-27.17,10.5-14.97,8.47-28.93,19.31-39.68,32.81-2.69,3.38-5.2,6.89-7.45,10.57-2.34,3.83-4.86,8-5.71,12.47-.79,4.18-.08,8.59,2.84,11.83,2.58,2.87,6.36,3.36,10,3.61,1.55.11,2.86.15,4.2.51,1.17.32,1.56.54,2.08,1.75s2.36,1.52,3.42.9c1.28-.75,1.43-2.17.9-3.42-1.41-3.29-4.9-4.21-8.14-4.55-2.75-.28-6.07.04-8.2-1.63-2.88-2.26-2.76-6.45-1.78-9.6,1.24-3.99,3.65-7.73,5.9-11.22,8.92-13.85,21.39-25.18,35.1-34.18,7.5-4.92,15.43-9.48,23.89-12.53,9.14-3.29,18.68-4.15,28.31-4.74,19.21-1.17,38.68-1.42,57.87.3,16.57,1.48,33.43,4.97,47.9,13.52,1.82,1.08,3.6,2.23,5.33,3.46,1.07.76,3.04,1.84,2.84,3.37-.24,1.88-2.31,3.52-3.54,4.78-1.71,1.75-3.42,3.51-5.14,5.26-5.57,5.7-11.41,12.5-19.15,15.23-1.79.63-3.63,1.04-5.52,1.08-2.28.05-4.52-.15-6.33,1.54-1.42,1.33-1.92,3.24-2.45,5.04-.46,1.55-1.23,2.89-2.37,4.04-6.38,6.45-16.88,4.17-24.95,3.95-9.69-.26-19.44.63-28.91,2.73-4.49.99-9.19,2.09-13.23,4.35-3.95,2.2-6.69,5.73-9.08,9.48-5.33,8.33-10.39,16.84-15.4,25.37-2.51,4.27-4.99,8.56-7.44,12.87-2.3,4.05-4.54,8.15-7.13,12.04-2.48,3.74-5.44,6.86-8.53,10.08-1.59,1.65-3.05,3.44-4.14,5.47s-1.8,4.06-2.75,6.07c-1.88,3.95-4.83,7.05-8.01,10-3.67,3.4-7.42,6.73-11.13,10.09s-7.38,6.68-11.06,10.01l4.27,1.77c-.32-13.42-.82-26.86-.94-40.29-.03-2.91.13-5.8,1.45-8.45.66-1.33,1.4-2.63,1.93-4.03.62-1.66.87-3.43.97-5.19.19-3.25.08-6.54.09-9.8l.04-10.49c.03-7.66.06-15.32.09-22.99.01-3.22-4.99-3.22-5,0h0Z"/>
  </g>
  <g>
    <g>
      <path class="cls-2" d="M461.12,680.59c-2.27-1.32-4.02.08-5.79.76-4.9,1.91-9.71,3.88-13.42-2.06-.8-1.28-2.01-.42-2.91,0-3.5,1.62-7.09,2.84-10.98,2.87-2.3.02-3.65,1.45-4.88,3.05-3.66,4.74-7.73,9.23-10.61,14.5-10.91,19.96-24.25,38.36-36.66,57.35-6.65,10.18-13.89,19.95-23.67,27.58-4.92,3.84-8.21,9.16-10.84,14.84-1.06,2.3-2.27,4.55-3.59,6.71-1.09,1.78-2.66,3.05-4.95,2.68-2.41-.39-3.09-2.31-3.46-4.34-.26-1.42-.53-2.9-.42-4.32.83-10.12.51-20.34,2.53-30.38.75-3.72.85-7.57,1.21-11.37.12-1.26.32-2.64-.46-3.72-3.83-5.25-2.87-11.1-2-16.82,1.48-9.69,3.41-19.3,4.41-29.07.43-4.17.66-8.32.15-12.5-.45-3.66-2.05-6.4-5.44-8.21-5.63-3.02-8.81-7.83-9.89-14.17-1.23-7.28-.43-14.5.39-21.71,1.7-14.97,3.26-29.97,5.26-44.9,5.36-39.96,16-78.47,31.18-115.86,10.5-25.86,22.98-50.53,38.76-73.55,8.94-13.04,19.53-24.33,32.82-33.01,4.1-2.68,8.01-5.65,11.95-8.57,3.03-2.25,4.59-5.32,5.65-8.99,2.68-9.25,4.79-18.63,6.94-28,3.4-14.85,10.84-27.21,21.92-37.5,14.6-13.56,31.16-23.75,50.63-28.63,15.43-3.86,30.51-2.4,45.41,3.24,15.3,5.79,29.08,13.98,41.61,24.38,8.77,7.27,15.84,15.98,21.41,25.89,3.38,6.01,6.73,12.06,9.82,18.22,3.48,6.94,8.8,11.9,15.54,15.5,4.66,2.48,9.56,4.38,14.49,6.22,24.87,9.3,49.04,20.06,71.64,34.14,3.24,2.02,6.53,3.95,9.48,6.38,1.97,1.62,3.78,3.41,5.21,5.54,3.07,4.56,1.58,8.56-3.78,9.8-2.85.66-5.77.43-8.65-.19-10.12-2.18-20.17-4.68-29.82-8.43-17.85-6.93-36.44-11.03-55.09-14.93-9.95-2.08-19.92-4.05-29.88-6.04-5.61-1.12-11.22-.9-16.74.54-6.89,1.8-11.78,6.25-15.38,12.2-1.7,2.81-1.45,5.87-.71,8.98,1.35,5.71,3.86,10.97,6.36,16.19,6.33,13.24,10.08,27.27,12.42,41.61,2.29,14,.24,27.85-3.63,41.45-3.86,13.52-9.47,26.3-16.33,38.52-22.38,39.9-49.99,75.72-83.74,106.7-.65.59-1.29,1.2-2.01,1.88,1.4,1.46,3.04,1.47,4.57,1.77,11.97,2.34,23.62,5.69,34.77,10.69,2.16.97,4.35,1.93,6.01,3.65,2.27,2.35,1.84,4.67-1.15,6.06-2.34,1.08-4.88,1.27-7.45,1.35-9.84.31-19.61-.66-29.36-1.61-8.43-.82-16.71-.09-24.84,1.97-6.27,1.58-11.49,5.34-16.57,9.18-5.07,3.83-9.95,7.91-15.05,11.7-3.21,2.38-6.71,4.3-10.63,5.38-2.4.66-4.74,1.03-6.58-.99-1.82-2-1.44-4.48-.51-6.69.98-2.33,2.18-4.62,3.65-6.66,2.54-3.53,5.36-6.87,8.08-10.27,1.46-1.83,3.14-3.52,3.59-5.96ZM332.3,596.92c6.26-4.21,11.05-8.22,14.81-13.44,2.12-2.94,4.15-6,7.11-8.21,4.25-3.16,7.56-1.85,8.58,3.33.14.71.14,1.45.33,2.15.99,3.73,2.02,4.19,5.31,2.15,1.53-.95,2.92-2.15,4.28-3.34,4.37-3.86,8.13-8.31,11.95-12.69,5.13-5.89,10.34-11.72,16.22-16.9,3.84-3.38,5.67-3.4,9.16.2,1.59,1.64,2.71,1.41,4.11.15,1.08-.97,2.16-1.95,3.15-3.01,7.47-7.97,14.51-16.26,20.3-25.57,2.4-3.85,5.05-7.55,7.74-11.2,3.1-4.21,7.35-6.57,12.63-6.28,4.26.24,7.34-1.66,10.09-4.47,4.75-4.85,8.61-10.34,11.32-16.56,7.29-16.69,9.79-34.07,7.28-52.15-.15-1.06-.16-2.17-.02-3.23.12-.94.81-1.68,1.75-1.88,1.17-.25,2.2.21,2.68,1.34.49,1.16,1.04,2.39,1.14,3.62.5,6.14,1.74,12.23,1.21,18.44-.99,11.64-3.25,22.99-7.77,33.81-3.18,7.61-7.5,14.52-13.29,20.44-3.68,3.76-7.88,6.42-13.47,5.92-3.59-.32-6.29,1.36-8.57,3.93-2.67,3-4.83,6.37-6.91,9.78-6.08,9.98-13.5,18.91-21.41,27.46-1.97,2.13-3.97,4.26-6.61,5.61-2.99,1.54-5.88,1.84-8.51-.76-.62-.62-1.09-1.49-2.78-1.16-3.66,3.85-7.69,8.03-11.65,12.26-4.96,5.31-9.34,11.14-14.7,16.09-3.09,2.85-6.3,5.51-10.42,6.77-3.62,1.1-6.47.02-8.29-3.27-.85-1.53-1.39-3.24-2.21-5.21-2.06,1.4-3.28,3.2-4.49,4.94-3.24,4.7-7.34,8.52-11.81,11.98-2.44,1.89-4.92,3.74-7.42,5.55-1.85,1.34-3.02,2.91-3.26,5.34-.49,5.05-1.61,10.06-1.81,15.11-.15,3.86-1.55,7.66-1.04,12.27,5.5-7.72,10.53-14.8,15.58-21.87.95-1.33,1.89-2.68,3.35-3.53.85-.5,1.71-.59,2.55-.02,1.04.71,1.31,1.75.88,2.86-.33.83-.84,1.61-1.38,2.33-5.76,7.72-10.68,16.04-16.4,23.76-6.96,9.38-8.51,19.83-7.85,30.88.22,3.73.73,7.85,4.69,10.59,1.6-5.49,4.14-10.06,6.69-14.63,12.55-22.53,25.13-45.04,37.68-67.57,2.3-4.12,4.46-8.32,6.77-12.44.9-1.61,2.42-2.37,4.15-1.44,1.57.85,1.32,2.42.83,3.86-.23.68-.59,1.32-.93,1.96-3.08,5.77-6.09,11.57-9.27,17.28-12.2,21.89-24.48,43.74-36.68,65.64-1.14,2.05-2.05,4.26-2.81,6.48-1.02,2.95.17,5.36,2.42,7.26,2.25,1.91,4.48.88,6.52-.42,4.7-2.98,8.43-6.88,10.57-12.11,1.79-4.37,3.59-8.73,6.06-12.78,8.11-13.35,16.25-26.68,24.24-40.1,4.37-7.33,8.54-14.78,12.26-22.48.8-1.65,1.97-3.4,4.19-2.34,2.14,1.02,1.77,2.97.94,4.71-1.32,2.79-2.69,5.56-4.17,8.27-8.45,15.47-17.46,30.6-26.98,45.44-4.12,6.42-8.04,12.98-10.65,20.21-.68,1.87-1.42,3.79-1.64,5.74-.41,3.61,2.12,5.45,5.55,4.16,1.16-.44,2.24-1.21,3.22-2,3.41-2.76,6.26-6.02,8.66-9.72,2.61-4.01,3.98-8.54,5.73-12.91,10.16-25.43,26.95-46.76,42.49-68.87.97-1.39,2.26-2.63,4.09-1.54,1.8,1.07,1.43,2.8.69,4.34-1.89,3.94-4.11,7.68-6.97,11.02-13.68,15.99-24.1,34.03-33.46,52.78-2.54,5.09-3.11,10.36-3.09,15.83,0,1.04-.27,2.37.99,2.86,1.11.44,2.06-.37,2.95-1,.59-.42,1.19-.85,1.72-1.34,7.1-6.49,14.5-12.69,20.8-20,7.35-8.53,14.56-17.19,21.7-25.89,12.36-15.08,23.37-31.06,31.62-48.81.63-1.35,1.89-2.66,1.1-4.57-1.28.3-2.31.64-3.36.78-1.61.2-3.28.5-4.74-.54-1.06-.75-2.06-1.68-1.77-3.12.31-1.56,1.59-1.79,2.97-1.68,3.96.3,7.51-1.19,10.95-2.76,14.26-6.53,27.54-14.65,39.76-24.53,19.9-16.08,31.41-37.38,37.97-61.57,4.56-16.8,5.22-33.74-1.84-50.16-3.98-9.26-7.96-18.19-16.66-24.87-18.29-14.06-38.07-23.97-61.12-26.44-11.64-1.25-23.3-1.32-33.42,6.23-1.01.76-2.14,1.38-3.27,1.96-11.09,5.63-19.95,13.83-27.28,23.76-16.24,22.04-29.45,45.73-39.93,71.07-12.66,30.6-23.72,61.65-29.7,94.31-1.03,5.64-2.73,11.23-2.63,18.32ZM545.21,416.39c.06,1.64.77,2.72,1.38,3.82,9.4,17,12.64,35.06,9.05,54.18-4.58,24.42-14.19,46.5-31.58,64.63-12.71,13.26-27.91,23.17-44.24,31.37-3.4,1.71-5.73,3.85-7.31,7.48-6.76,15.54-15.15,30.17-25.49,43.64-8.63,11.24-17.42,22.35-26.85,32.95-3.02,3.39-5.98,6.83-9,10.23-1.56,1.76-1.19,2.83,1.03,3.47,1.74.5,3.44,1.12,5.17,1.67,3.02.97,5.77,2.46,7.39,5.24,1.65,2.84,3.9,2.94,6.52,2.03,2.91-1,5.78-2.12,8.66-3.21,2.07-.79,3.83-.58,5.38,1.2,3.28,3.76,3.33,3.76,7.87,2.07,3.94-1.47,7.81-3.09,12.02-.81,1.28.69,2.46-.18,3.55-.81,3.45-2.02,6.86-4.1,10.32-6.08,2.19-1.25,4.38-2.78,7.11-1.89,3.24,1.05,6.11.06,8.83-1.53,8.14-4.76,16.22-9.53,23.05-16.25,27.34-26.92,50.85-56.82,70.53-89.72,6.9-11.53,12.93-23.51,17.86-36.07,4.56-11.63,6.61-23.66,7.48-36.01.36-5.09.71-10.24-.27-15.22-2.85-14.63-6.62-28.99-13.25-42.47-4.06-8.27-13.21-13.13-22.42-11.63-3.43.56-6.76.2-10.21-.68-7.17-1.84-14.63-1.45-21.96-2.07-.13-.01-.28.2-.65.5ZM598.59,338.81c.62-.96,1.08-1.72,1.59-2.44,4.24-6.09,8.52-7.05,14.86-3.38,3.18,1.84,5.85,4.3,8.43,6.86,3.61,3.58,7.12,7.26,10.74,10.83,2.27,2.25,4.81,4.01,8.78,3.54-5.82-10.45-11.22-20.51-16.99-30.36-3.88-6.61-8.81-12.56-14.68-17.46-13.6-11.37-28.44-20.73-45.35-26.55-11.76-4.05-23.81-5.28-35.94-2.87-21.32,4.24-38.96,15.33-54.33,30.39-8.49,8.33-14.59,18.06-17.63,29.58-2.45,9.29-4.71,18.63-6.96,27.97-.29,1.22-.96,2.54-.36,4.47,2.88-3.08,5.38-5.69,7.81-8.36,4.9-5.37,9.73-10.82,15.48-15.32,4.49-3.51,9.27-6.45,15.3-6.17,2.52.12,3.18-1.02,2.59-3.37-.65-2.63.36-5.01,1.55-7.29,4.14-7.97,12.33-11.72,21.08-9.38,4.7,1.26,9.21,3.12,14.25,1.58,1.49-.45,3.25-.08,4.82.5,1.9.71,3.93,1.05,5.9.77,4.9-.71,8.89,1.19,12.61,3.99,2.03,1.53,4.01,3.14,5.89,4.84,1.81,1.64,3.25,1.67,5.14-.07,3.31-3.05,7.39-4.79,11.92-4.48,7.67.53,14.4,3.43,19.9,8.96,1.01,1.01,1.65,2.4,3.62,3.22ZM334.68,748.83c6.51-11.68,13.09-23.2,15.83-36.36.3-1.42.62-2.84,1.06-4.22.29-.89.95-1.62,1.99-1.53,1.31.12,1.94,1.14,1.82,2.27-.22,2.16-.6,4.31-1.1,6.43-2.16,9.28-6.28,17.83-10.78,26.11-4.39,8.08-8.1,16.14-7.44,25.61.07,1.06-.3,2.15-.5,3.22-1.82,9.86-1.83,19.88-2.44,29.84-.07,1.07-.7,2.59,1.08,3.21,1.84-1.18,2.22-3.25,3.05-5.01,2.27-4.79,4.67-9.61,8.59-13.16,4.51-4.08,6.66-8.54,7.39-14.78,1.16-9.89,4.61-19.44,8.56-28.61,6.31-14.68,11.67-29.74,17.91-44.45,1.33-3.14,2.67-6.31,3.06-10.48-3.35.59-5.94-.86-8.16-2.79-3.49,2.97-6.37,6.08-10.66,7.09-5,1.18-8.07-1.75-10.74-5.37-4.01,3.44-7.6,6.85-12.71,7.73-1.73.3-1.75,1.58-1.55,2.92.56,3.63.26,7.23-.06,10.86-.85,9.78-2.55,19.43-4.28,29.09-.73,4.05-1.22,8.15.08,12.37ZM609.32,391.12c-3.58-7.82-9.23-12.28-17.57-13.08-1.25-.12-2.47-.57-3.73-.72-18.87-2.25-35.86,2.84-51.46,13.29-2.62,1.76-4.64,3.98-5.69,7.05-.93,2.72-.38,4.57,1.87,6.63,7.8,7.14,17.64,6.6,27.06,7.74,8.88,1.08,17.75,2.07,26.72,2.15,3.05.03,5.65,2.21,9.23,3.24-3.63-13.06,4.35-19.85,13.57-26.31ZM357.26,773.19c2.42-.76,3.28-2.69,4.45-4.17,11.97-15.07,22-31.49,32.61-47.5,8.31-12.53,14.75-26.24,24.44-37.89,3.63-4.36,2.93-6.74-2.33-8.98-2.82-1.2-6.04-1.62-8.61-3.17-2.49-1.51-3.86-.78-5.64.83-4.41,4-8.28,8.7-14.03,11-.89.35-1.54.91-1.32,2.03,1,5.16-1.48,9.56-3.19,14.08-3.14,8.3-6.48,16.53-9.76,24.78-5.36,13.45-11.55,26.6-14.99,40.76-.63,2.61-1.49,5.17-1.63,8.22ZM603.41,367.87c.06-1.58-.96-1.82-1.63-2.32-14.56-10.81-31.55-17.79-45.8-29.14-2.42-1.93-5.92-3.73-9.13-2.05-4.75,2.48-8.69,1.47-12.62-1.42-2.18-1.61-4.3-2.5-6.87-.5-1.7,1.32-3.79.99-5.73.23-1.86-.72-3.75-1.38-5.52-2.27-2.57-1.29-5.26-1.38-7.97-.97-3.01.45-5.29,2.87-4.81,5.57,1.14,6.49,2.7,12.8,9.61,15.98,3.63,1.67,7.29,3.16,11.16,4.16,12.83,3.31,25.98,4.63,39.04,6.51,10.92,1.57,21.91,2.79,32.54,5.88,2.64.77,5.16.97,7.72.34ZM451.86,375.1c12.24.42,23.92,1.36,35.3,4.83,1.09.33,2.09.23,3.14-.26,7.06-3.26,14.32-6.11,20.96-10.2,1.97-1.22,4.04-2.45,5.37-5.21-5.54-3.4-9.74-8.31-13.85-13.31-5.97-7.26-14.95-8.64-22.74-3.49-1.96,1.29-3.9,2.71-5.54,4.37-7.61,7.7-15.11,15.5-22.65,23.27ZM576.15,371.77c-1.2-.33-2.4-.7-3.61-.97-10.51-2.31-21.17-2.33-31.88-2.42-14.69-.13-27.74,4.41-39.86,12.28-.98.63-2.41.93-2.45,2.69,2.62,1.13,5.31,2.19,7.91,3.45,2.76,1.35,5.46,2.84,8.14,4.36,5.98,3.4,10,3.17,15.46-.9,13.78-10.28,28.79-17.36,46.29-18.48ZM703.47,404.32c-.28-1.23-.92-1.56-1.57-1.81-13.17-5.15-26.29-10.52-40-14.01-17.37-4.42-35.05-7.65-51.93-13.97-2.27-.85-4.99-1.62-7.88-.7,1.81,3.02,4.17,4.72,6.59,6.29,6.74,4.38,13.89,7.07,22.05,8.41,17.85,2.92,35.52,7.03,53.23,10.82,6.5,1.39,12.89,3.27,19.53,4.98ZM621.87,357.58c2.03.01,4.23.11,5.15-2.15.87-2.14.47-4.29-.97-6.16-.22-.29-.46-.56-.72-.81-3.12-3.04-6.19-6.14-9.4-9.09-1.6-1.47-3.42-2.76-5.51-3.44-2.8-.9-4.76.38-5.04,3.13-1,9.55,6.94,18.46,16.51,18.52ZM588.26,351.5c6.08,4.74,11.91,8.68,18.13,12.03,1.22.66,2.55,1.56,3.84-.08,1.16-1.47.56-2.74-.33-3.95-1.28-1.75-2.54-3.54-4.01-5.13-5.1-5.54-9.83-6.36-17.64-2.87ZM580.79,337.29c-.47-1.73-1.6-2.68-3.47-2.65-1.01.01-1.97.6-1.71,1.55.5,1.78,2.31,2.12,3.85,2.48.78.19,1.22-.54,1.33-1.39ZM589.68,345.45c1.49.16,2.97.43,4.36-.62-1.74-1.91-3.19-1.76-4.36.62ZM381.2,681.35c-.26-.52-.59-1.16-.91-1.8-.35.38-.86.7-1.01,1.14-.27.79.12,1.45.96,1.61.53.1,1.09-.02.96-.96ZM527.52,361.14c1.37.85,2.34.81,3.36.27-.89-.79-1.85-.7-3.36-.27Z"/>
      <path class="cls-2" d="M483.13,405.4c-.11,1.47-1.05,2.27-2.41,2.48-1.78.29-3.61.34-5.4.59-11.74,1.65-20.16,8.5-27.2,17.47-1.23,1.57-2.37,3.22-3.72,4.67-.87.94-2.08,1.56-3.41.67-1.49-.99-1.57-2.33-.78-3.8,1.56-2.9,3.66-5.4,5.8-7.87,7.61-8.81,16.89-14.7,28.58-16.47,1.99-.3,3.97-.46,5.96-.16,1.35.2,2.34.91,2.6,2.41Z"/>
      <path class="cls-2" d="M431.88,412.35c-.25,1.59-1.4,2.52-2.45,3.51-4.21,3.98-8.39,7.98-11.98,12.56-3.71,4.75-6.76,9.84-8.66,15.58-.17.52-.31,1.04-.51,1.55-.7,1.8-1.7,3.45-3.95,2.79-2.35-.69-2.15-2.63-1.5-4.46.84-2.38,1.63-4.81,2.73-7.07,4.77-9.78,12.04-17.56,20.06-24.72,1.09-.98,2.3-1.89,3.78-1.99,1.47-.11,2.34.76,2.46,2.24Z"/>
      <path class="cls-2" d="M494.83,531.04c-1.38-.07-2.13-.51-2.62-1.35-.64-1.1-.32-2.11.51-2.94.5-.5,1.1-.96,1.74-1.27,9.51-4.57,14.35-12.89,17.91-22.24.32-.84.57-1.72,1.02-2.49.56-.97,1.4-1.74,2.65-1.44,1.44.35,1.99,1.46,1.99,2.85,0,.54-.1,1.09-.27,1.6-3.48,10.8-8.84,20.22-19.28,25.82-1.26.67-2.66,1.07-3.65,1.47Z"/>
      <path class="cls-2" d="M429.35,582.63c-4.27-.13-7.38-.89-8.96-4.36-.81-1.77-.92-3.64,1.05-4.78,1.63-.94,2.71.17,3.56,1.46,1.94,2.93,4.45,2.52,7.19,1.33,5.51-2.41,9.47-6.62,13.08-11.22.78-1,1.39-2.14,2.19-3.12.85-1.04,1.95-1.73,3.33-1.01,1.67.87,1.45,2.33.96,3.78-.17.51-.45,1-.74,1.45-4.05,6.17-9.04,11.36-15.71,14.7-2.1,1.05-4.33,1.92-5.95,1.76Z"/>
      <path class="cls-2" d="M454.37,554.22c-2.49.22-4.83-.66-7.04-1.99-3.14-1.89-5.48-4.68-7.98-7.28-.96-1.01-1.42-2.2-.47-3.4,1.07-1.34,2.45-1.26,3.89-.48,2.12,1.15,3.43,3.18,5.17,4.74,4.06,3.64,6.98,4.09,11.87,1.81,2.16-1,4.02-2.4,5.75-4.02,1.06-.99,2.11-1.98,3.22-2.9,1.04-.86,2.27-1.35,3.44-.36,1.37,1.16,1.1,2.68.17,3.89-3.67,4.8-12.14,10.45-18.03,9.98Z"/>
      <path class="cls-2" d="M469.6,532.5c-4.58.23-8.55-1.38-12.24-3.8-1.27-.83-2.21-2.03-1.51-3.66.77-1.78,2.38-1.29,3.77-1.06.69.12,1.35.5,1.97.87,6.4,3.87,12.46,2.39,18.35-1.21,2.78-1.7,5.32-3.72,7.75-5.9,1.08-.97,2.38-1.93,3.81-.6,1.59,1.47.91,3.06-.3,4.27-6.01,6-12.83,10.48-21.6,11.08Z"/>
      <path class="cls-2" d="M398.3,503.91c-1.58-.32-2.39-1.4-1.94-3.08.32-1.2.95-2.34,1.56-3.44,4.08-7.25,8.87-14.11,11.35-22.19.48-1.57,1.39-3.27,3.44-2.69,2.32.66,2.17,2.55,1.52,4.43-.7,2.05-1.27,4.16-2.15,6.13-2.8,6.3-6.43,12.16-9.95,18.06-.83,1.4-1.71,2.84-3.84,2.77Z"/>
      <path class="cls-2" d="M525.24,439.27c-1.39,6.44-4.08,13.52-11.65,17.6-1.1.59-2.21,1.25-3.54,1.19-1.22-.06-2.04-.77-2.44-1.84-.34-.92.08-1.79.78-2.42.53-.47,1.16-.84,1.8-1.18,6.19-3.26,8.6-8.92,9.76-15.37.32-1.81-.67-4.3,2.22-4.77,1.96-.32,3.13,1.85,3.08,6.78Z"/>
      <path class="cls-2" d="M446.72,445.59c.21,3.03-.63,5.07-1.6,6.98-2.29,4.51-5.25,8.61-8.37,12.58-.65.82-1.56,1.49-2.47,2.03-.82.49-1.73.3-2.49-.37-.74-.66-1.04-1.46-.76-2.41.48-1.59,1.7-2.73,2.58-4.08,3.02-4.64,7.1-8.71,7.95-14.54.27-1.85.68-3.83,3.1-3.61,2.67.24,1.86,2.57,2.05,3.43Z"/>
      <path class="cls-2" d="M493.45,494.17c-1.38.05-3.06-.27-3.28-2.33-.19-1.75,1.16-2.57,2.71-2.79,6.87-.97,11.98-4.79,16.31-9.93.57-.68,1.28-1.29,2.03-1.75.82-.5,1.81-.41,2.54.21.72.61.99,1.51.74,2.46-.14.52-.28,1.08-.59,1.5-5.04,6.83-11.43,11.53-20.47,12.63Z"/>
      <path class="cls-2" d="M538.5,468.98c1.23.3,1.87,1.02,2,2.28.17,1.72-.42,3.23-1.17,4.68-2.92,5.63-6.63,10.44-13.16,12.17-1.04.27-2.11.52-3.17.57-1.23.07-2.1-.68-2.37-1.84-.22-.94.27-1.8,1.03-2.37.56-.42,1.23-.78,1.91-.98,5.92-1.75,9.25-6.13,11.63-11.44.69-1.54,1.35-3.01,3.31-3.08Z"/>
      <path class="cls-2" d="M473.87,441.12c0,2.35.08,4.69-.03,7.03-.08,1.84-.41,3.93-2.66,4.11-2.41.19-2.81-2-2.94-3.77-.42-5.77-.19-11.53.53-17.28.15-1.18.67-2.05,1.93-2.26,1.54-.26,2.47.63,2.83,1.92.33,1.19.34,2.49.37,3.75.05,2.16.01,4.33.01,6.49-.01,0-.03,0-.04,0Z"/>
      <path class="cls-2" d="M380.25,530.8c-1.14,5.87-3.7,11.82-6.89,17.52-.65,1.16-1.88,1.76-3.26.94-1.27-.75-1.58-1.95-1.17-3.28.37-1.21.92-2.36,1.39-3.53,1.71-4.36,4-8.52,4.77-13.23.29-1.75,1.1-3.27,3.15-2.94,2.16.35,1.93,2.28,2.02,4.52Z"/>
      <path class="cls-2" d="M381.34,486.37c-.1.31-.3,1.21-.69,2-2.32,4.71-4.67,9.4-7.04,14.09-.32.64-.76,1.24-1.24,1.77-.82.89-1.87,1.05-2.95.54-.92-.44-1.17-1.31-1.16-2.26,0-.36,0-.75.14-1.07,2.36-5.89,5.19-11.54,8.4-17.01.64-1.09,1.77-1.91,3.22-1.31,1.16.48,1.49,1.49,1.33,3.25Z"/>
      <path class="cls-2" d="M478.71,558.6c-3.4.11-6.21-1.04-8.76-2.89-.95-.69-1.33-1.7-.81-2.86.5-1.12,1.49-1.58,2.64-1.5.7.05,1.44.29,2.06.62,4.38,2.33,8.35,1.38,12.22-1.28,1.75-1.2,3.66-2.88,5.78-.8,1.27,1.25.06,3.26-3.2,5.37-3.07,1.98-6.27,3.67-9.93,3.33Z"/>
      <path class="cls-2" d="M400.46,579.36c-1.86-.03-3.63-.2-5.2-1.31-.79-.55-1.38-1.24-1.25-2.22.13-.98.89-1.8,1.81-1.7,6.5.7,11.55-1.91,15.82-6.56.6-.65,1.61-.76,2.51-.23,1.1.64,1.44,1.63,1.11,2.76-.24.84-.58,1.79-1.17,2.39-3.78,3.78-8.08,6.59-13.63,6.87Z"/>
      <path class="cls-2" d="M461.77,472.71c-1.79,4.87-4.49,10.14-7.54,15.23-.64,1.07-1.91,1.77-3.27,1.06-1.55-.81-1.75-2.16-1.11-3.68,2.29-5.47,5.57-10.48,7.5-16.13.35-1.03,1.51-1.71,2.67-1.29,1.85.68,2.07,2.3,1.76,4.81Z"/>
      <path class="cls-2" d="M423.7,515.91c-.11,1.53-.95,2.71-1.91,3.78-2.77,3.08-5.58,6.12-8.43,9.11-.6.62-1.41,1.14-2.23,1.43-1.07.38-2.16.14-2.87-.87-.57-.82-.56-1.79.02-2.53,1.21-1.56,2.52-3.03,3.85-4.5,2.41-2.67,4.82-5.35,7.32-7.93.74-.77,1.79-1.22,2.95-.65.89.44,1.3,1.18,1.31,2.17Z"/>
      <path class="cls-2" d="M481.59,618.04c-2.18-.02-3.33-1.86-2.45-3.44.34-.61.86-1.23,1.45-1.57,8.93-5.22,14.2-13.78,20-21.85.53-.73,1.01-1.51,1.61-2.19.87-.98,1.92-1.86,3.29-1.03,1.57.96,1.31,2.42.69,3.83-.29.66-.69,1.27-1.09,1.87-3.74,5.56-7.63,11.01-12,16.1-2.51,2.92-5.59,5.14-8.85,7.12-.91.55-1.96.87-2.63,1.15Z"/>
      <path class="cls-2" d="M542.23,533.55c-1.58,0-3.18.2-3.57-1.75-.36-1.82.92-2.92,2.33-3.13,9.91-1.47,14.95-8.75,19.87-16.27,1.11-1.7,2.09-4.68,4.74-3.15,2.6,1.49.73,3.85-.31,5.67-2.88,5.08-6.45,9.62-10.9,13.43-3.55,3.03-7.65,4.76-12.17,5.21Z"/>
      <path class="cls-2" d="M520.37,613.95c-1.36-.1-2.34-.9-2.2-2.39.12-1.22.57-2.47,1.11-3.59,3.85-8.06,8.67-15.49,14.64-22.14,1.39-1.55,3.01-4.08,5.3-2.32,2.6,1.99.05,3.88-1.26,5.4-5.61,6.49-10.17,13.64-13.87,21.36-1.43,2.98-2.17,3.61-3.71,3.68Z"/>
      <path class="cls-2" d="M587.15,472.26c-.72,5.7-1.02,12.31-4.94,17.93-1.21,1.73-2.48,4.35-5.02,2.85-2.8-1.66-.64-3.76.48-5.51,3.61-5.64,3.99-11.95,3.8-18.36-.05-1.81-.29-3.62-.43-5.43-.1-1.31-.13-2.67,1.52-3.03,1.76-.38,2.85.71,3.28,2.18.81,2.79,1.25,5.67,1.3,9.38Z"/>
      <path class="cls-2" d="M579.94,545.91c-.34.78-.77,1.97-1.36,3.08-3.07,5.79-8,9.81-13.17,13.56-1.34.97-3.04,1.85-4.32.04-1.24-1.75-.02-3.12,1.33-4.15,5.25-3.98,10.1-8.3,13.2-14.28.51-.98,1.54-1.63,2.75-1.26,1.2.37,1.6,1.37,1.57,3.01Z"/>
      <path class="cls-2" d="M539.12,556.49c-.12,1.36-.97,2.32-1.88,3.2-4.75,4.55-10.39,7.83-15.98,11.17-1.36.81-2.86.94-3.83-.59-1.03-1.63.16-2.78,1.32-3.64,1.73-1.3,3.6-2.43,5.42-3.6,3.65-2.35,7.28-4.73,10.44-7.77.98-.94,2.24-1.2,3.51-.57.69.34.97,1.03.99,1.8Z"/>
      <path class="cls-2" d="M465.53,623.24c1.35.07,2.23.79,2.17,2.35-.04,1.14-.74,1.99-1.42,2.85-3.68,4.67-7.35,9.34-11.04,14.01-.44.56-.9,1.15-1.47,1.57-.94.7-2.06.83-3,.08-.73-.59-.94-1.52-.66-2.46.15-.51.31-1.06.61-1.49,3.69-5.34,7.48-10.6,11.91-15.36.73-.78,1.57-1.51,2.9-1.54Z"/>
      <path class="cls-2" d="M492.4,640.05c-.11,1.17-.86,1.96-1.66,2.69-3.33,3.04-6.66,6.08-10.03,9.07-.66.59-1.44,1.11-2.26,1.42-.84.32-1.83.26-2.5-.47-.83-.9-.94-2.14-.17-2.97,4.06-4.35,8.22-8.62,13.31-11.78,1.67-1.04,3.48.26,3.31,2.03Z"/>
      <path class="cls-2" d="M559,304.5c0,1.63.04,2.17,0,2.7-.16,1.72-.74,3.2-2.62,3.65-1.9.46-3.08-.65-3.95-2.13-2.1-3.55-2.27-7.53-2.35-11.48-.04-1.79.31-3.58.43-5.37.1-1.5.29-3,2.11-3.28,1.7-.25,2.59.82,3.17,2.31,1.86,4.73,2.66,9.68,3.2,13.6Z"/>
      <path class="cls-2" d="M579.83,307.15c-.13,2.05-.12,4.06-.42,6.02-.19,1.29-1.07,2.34-2.42,2.69-1.63.42-2.78-.48-3.71-1.68-2.75-3.56-1.9-13.52,1.38-16.4,1.53-1.34,3.7-.8,4.17,1.33.58,2.64.69,5.39,1,8.05Z"/>
      <path class="cls-2" d="M532.93,307.53c.04,1.76-.26,3.4-2.2,3.91-1.96.52-3.16-.79-3.82-2.33-1.8-4.17-3.25-8.47-3.62-13.04-.14-1.71.07-3.48,1.99-4,1.99-.54,2.96,1.04,3.63,2.56,1.82,4.15,3.71,8.28,4.03,12.9Z"/>
      <path class="cls-2" d="M542.56,298.33c-.21,2.53-.43,4.63-2.88,5.16-2.42.53-3.6-1.05-4.43-3.05-1.54-3.68-1.35-7.42-.36-11.15.38-1.43,1.13-2.79,2.87-2.81,1.77-.02,2.41,1.28,2.75,2.81.7,3.17,1.43,6.33,2.05,9.04Z"/>
      <path class="cls-2" d="M593.03,309c-.16,1.99-.13,4-.53,5.92-.3,1.47-1.4,2.51-3.09,2.53-1.47.02-2.26-.89-2.9-2.06-1.66-3.02-.98-10.31,1.22-12.99,1.53-1.86,3.96-1.59,4.62.72.53,1.87.48,3.91.68,5.88Z"/>
      <path class="cls-2" d="M570.73,290.18c-.68,2.25-1.41,5.24-2.52,8.08-.67,1.7-2.1,3.25-4.2,2.53-2.32-.79-2.67-2.77-1.83-4.89,1.13-2.84,1.82-5.88,3.6-8.43.89-1.28,2.13-2.01,3.73-1.25,1.38.66,1.46,1.93,1.24,3.96Z"/>
      <path class="cls-2" d="M476.83,333.97c-3.18.24-6.34-.17-9.11-2.17-1.07-.77-2.01-1.79-1.48-3.15.61-1.54,2.01-2.14,3.54-1.41,3.01,1.45,6.23,1.57,9.45,1.77.53.03,1.08.1,1.59.26,1.21.4,2.54.86,2.44,2.43-.11,1.84-1.56,2.2-3.08,2.26-1.08.04-2.15,0-3.35,0Z"/>
      <path class="cls-2" d="M499.81,304.84c2.36.6,4.9,1.55,6.59,3.87.93,1.28.95,2.73-.13,4-.91,1.06-2.05,1.35-3.42.87-2.47-.88-4.4-2.46-5.96-4.51-.7-.92-.87-1.97-.21-3.02.65-1.03,1.64-1.33,3.12-1.21Z"/>
      <path class="cls-2" d="M507.66,294.34c.04-.38.04-1.28.22-2.14.2-.94.81-1.58,1.81-1.74,1.21-.19,2.12.25,2.61,1.38,1.23,2.85,1.12,5.96,1.5,8.96.14,1.05-.74,2.02-1.93,2.26-1.22.24-2.01-.48-2.64-1.43-1.37-2.06-1.13-4.48-1.57-7.28Z"/>
      <path class="cls-2" d="M482.01,312.41c.3.15,1.07.32,1.53.8,1.78,1.85,3.83,3.32,6,4.66.97.6,1.54,1.55,1.01,2.78-.53,1.22-1.62,1.33-2.74,1.3-2.88-.08-7.47-3.48-8.42-6.19-.65-1.87.38-3.45,2.61-3.34Z"/>
      <path class="cls-2" d="M610.49,315.85c-.43,2.31-1.56,4.51-3.76,6.06-.94.66-1.95.96-3,.19-1.04-.77-1.23-1.94-.72-2.91,1.01-1.9,2.19-3.73,3.5-5.45.67-.89,1.8-1.19,2.92-.49.86.54,1.14,1.35,1.06,2.6Z"/>
    </g>
    <g>
      <path d="M461.12,680.59c-2.27-1.32-4.02.08-5.79.76-4.9,1.91-9.71,3.88-13.42-2.06-.8-1.28-2.01-.42-2.91,0-3.5,1.62-7.09,2.84-10.98,2.87-2.3.02-3.65,1.45-4.88,3.05-3.66,4.74-7.73,9.23-10.61,14.5-10.91,19.96-24.25,38.36-36.66,57.35-6.65,10.18-13.89,19.95-23.67,27.58-4.92,3.84-8.21,9.16-10.84,14.84-1.06,2.3-2.27,4.55-3.59,6.71-1.09,1.78-2.66,3.05-4.95,2.68-2.41-.39-3.09-2.31-3.46-4.34-.26-1.42-.53-2.9-.42-4.32.83-10.12.51-20.34,2.53-30.38.75-3.72.85-7.57,1.21-11.37.12-1.26.32-2.64-.46-3.72-3.83-5.25-2.87-11.1-2-16.82,1.48-9.69,3.41-19.3,4.41-29.07.43-4.17.66-8.32.15-12.5-.45-3.66-2.05-6.4-5.44-8.21-5.63-3.02-8.81-7.83-9.89-14.17-1.23-7.28-.43-14.5.39-21.71,1.7-14.97,3.26-29.97,5.26-44.9,5.36-39.96,16-78.47,31.18-115.86,10.5-25.86,22.98-50.53,38.76-73.55,8.94-13.04,19.53-24.33,32.82-33.01,4.1-2.68,8.01-5.65,11.95-8.57,3.03-2.25,4.59-5.32,5.65-8.99,2.68-9.25,4.79-18.63,6.94-28,3.4-14.85,10.84-27.21,21.92-37.5,14.6-13.56,31.16-23.75,50.63-28.63,15.43-3.86,30.51-2.4,45.41,3.24,15.3,5.79,29.08,13.98,41.61,24.38,8.77,7.27,15.84,15.98,21.41,25.89,3.38,6.01,6.73,12.06,9.82,18.22,3.48,6.94,8.8,11.9,15.54,15.5,4.66,2.48,9.56,4.38,14.49,6.22,24.87,9.3,49.04,20.06,71.64,34.14,3.24,2.02,6.53,3.95,9.48,6.38,1.97,1.62,3.78,3.41,5.21,5.54,3.07,4.56,1.58,8.56-3.78,9.8-2.85.66-5.77.43-8.65-.19-10.12-2.18-20.17-4.68-29.82-8.43-17.85-6.93-36.44-11.03-55.09-14.93-9.95-2.08-19.92-4.05-29.88-6.04-5.61-1.12-11.22-.9-16.74.54-6.89,1.8-11.78,6.25-15.38,12.2-1.7,2.81-1.45,5.87-.71,8.98,1.35,5.71,3.86,10.97,6.36,16.19,6.33,13.24,10.08,27.27,12.42,41.61,2.29,14,.24,27.85-3.63,41.45-3.86,13.52-9.47,26.3-16.33,38.52-22.38,39.9-49.99,75.72-83.74,106.7-.65.59-1.29,1.2-2.01,1.88,1.4,1.46,3.04,1.47,4.57,1.77,11.97,2.34,23.62,5.69,34.77,10.69,2.16.97,4.35,1.93,6.01,3.65,2.27,2.35,1.84,4.67-1.15,6.06-2.34,1.08-4.88,1.27-7.45,1.35-9.84.31-19.61-.66-29.36-1.61-8.43-.82-16.71-.09-24.84,1.97-6.27,1.58-11.49,5.34-16.57,9.18-5.07,3.83-9.95,7.91-15.05,11.7-3.21,2.38-6.71,4.3-10.63,5.38-2.4.66-4.74,1.03-6.58-.99-1.82-2-1.44-4.48-.51-6.69.98-2.33,2.18-4.62,3.65-6.66,2.54-3.53,5.36-6.87,8.08-10.27,1.46-1.83,3.14-3.52,3.59-5.96ZM332.3,596.92c6.26-4.21,11.05-8.22,14.81-13.44,2.12-2.94,4.15-6,7.11-8.21,4.25-3.16,7.56-1.85,8.58,3.33.14.71.14,1.45.33,2.15.99,3.73,2.02,4.19,5.31,2.15,1.53-.95,2.92-2.15,4.28-3.34,4.37-3.86,8.13-8.31,11.95-12.69,5.13-5.89,10.34-11.72,16.22-16.9,3.84-3.38,5.67-3.4,9.16.2,1.59,1.64,2.71,1.41,4.11.15,1.08-.97,2.16-1.95,3.15-3.01,7.47-7.97,14.51-16.26,20.3-25.57,2.4-3.85,5.05-7.55,7.74-11.2,3.1-4.21,7.35-6.57,12.63-6.28,4.26.24,7.34-1.66,10.09-4.47,4.75-4.85,8.61-10.34,11.32-16.56,7.29-16.69,9.79-34.07,7.28-52.15-.15-1.06-.16-2.17-.02-3.23.12-.94.81-1.68,1.75-1.88,1.17-.25,2.2.21,2.68,1.34.49,1.16,1.04,2.39,1.14,3.62.5,6.14,1.74,12.23,1.21,18.44-.99,11.64-3.25,22.99-7.77,33.81-3.18,7.61-7.5,14.52-13.29,20.44-3.68,3.76-7.88,6.42-13.47,5.92-3.59-.32-6.29,1.36-8.57,3.93-2.67,3-4.83,6.37-6.91,9.78-6.08,9.98-13.5,18.91-21.41,27.46-1.97,2.13-3.97,4.26-6.61,5.61-2.99,1.54-5.88,1.84-8.51-.76-.62-.62-1.09-1.49-2.78-1.16-3.66,3.85-7.69,8.03-11.65,12.26-4.96,5.31-9.34,11.14-14.7,16.09-3.09,2.85-6.3,5.51-10.42,6.77-3.62,1.1-6.47.02-8.29-3.27-.85-1.53-1.39-3.24-2.21-5.21-2.06,1.4-3.28,3.2-4.49,4.94-3.24,4.7-7.34,8.52-11.81,11.98-2.44,1.89-4.92,3.74-7.42,5.55-1.85,1.34-3.02,2.91-3.26,5.34-.49,5.05-1.61,10.06-1.81,15.11-.15,3.86-1.55,7.66-1.04,12.27,5.5-7.72,10.53-14.8,15.58-21.87.95-1.33,1.89-2.68,3.35-3.53.85-.5,1.71-.59,2.55-.02,1.04.71,1.31,1.75.88,2.86-.33.83-.84,1.61-1.38,2.33-5.76,7.72-10.68,16.04-16.4,23.76-6.96,9.38-8.51,19.83-7.85,30.88.22,3.73.73,7.85,4.69,10.59,1.6-5.49,4.14-10.06,6.69-14.63,12.55-22.53,25.13-45.04,37.68-67.57,2.3-4.12,4.46-8.32,6.77-12.44.9-1.61,2.42-2.37,4.15-1.44,1.57.85,1.32,2.42.83,3.86-.23.68-.59,1.32-.93,1.96-3.08,5.77-6.09,11.57-9.27,17.28-12.2,21.89-24.48,43.74-36.68,65.64-1.14,2.05-2.05,4.26-2.81,6.48-1.02,2.95.17,5.36,2.42,7.26,2.25,1.91,4.48.88,6.52-.42,4.7-2.98,8.43-6.88,10.57-12.11,1.79-4.37,3.59-8.73,6.06-12.78,8.11-13.35,16.25-26.68,24.24-40.1,4.37-7.33,8.54-14.78,12.26-22.48.8-1.65,1.97-3.4,4.19-2.34,2.14,1.02,1.77,2.97.94,4.71-1.32,2.79-2.69,5.56-4.17,8.27-8.45,15.47-17.46,30.6-26.98,45.44-4.12,6.42-8.04,12.98-10.65,20.21-.68,1.87-1.42,3.79-1.64,5.74-.41,3.61,2.12,5.45,5.55,4.16,1.16-.44,2.24-1.21,3.22-2,3.41-2.76,6.26-6.02,8.66-9.72,2.61-4.01,3.98-8.54,5.73-12.91,10.16-25.43,26.95-46.76,42.49-68.87.97-1.39,2.26-2.63,4.09-1.54,1.8,1.07,1.43,2.8.69,4.34-1.89,3.94-4.11,7.68-6.97,11.02-13.68,15.99-24.1,34.03-33.46,52.78-2.54,5.09-3.11,10.36-3.09,15.83,0,1.04-.27,2.37.99,2.86,1.11.44,2.06-.37,2.95-1,.59-.42,1.19-.85,1.72-1.34,7.1-6.49,14.5-12.69,20.8-20,7.35-8.53,14.56-17.19,21.7-25.89,12.36-15.08,23.37-31.06,31.62-48.81.63-1.35,1.89-2.66,1.1-4.57-1.28.3-2.31.64-3.36.78-1.61.2-3.28.5-4.74-.54-1.06-.75-2.06-1.68-1.77-3.12.31-1.56,1.59-1.79,2.97-1.68,3.96.3,7.51-1.19,10.95-2.76,14.26-6.53,27.54-14.65,39.76-24.53,19.9-16.08,31.41-37.38,37.97-61.57,4.56-16.8,5.22-33.74-1.84-50.16-3.98-9.26-7.96-18.19-16.66-24.87-18.29-14.06-38.07-23.97-61.12-26.44-11.64-1.25-23.3-1.32-33.42,6.23-1.01.76-2.14,1.38-3.27,1.96-11.09,5.63-19.95,13.83-27.28,23.76-16.24,22.04-29.45,45.73-39.93,71.07-12.66,30.6-23.72,61.65-29.7,94.31-1.03,5.64-2.73,11.23-2.63,18.32ZM545.21,416.39c.06,1.64.77,2.72,1.38,3.82,9.4,17,12.64,35.06,9.05,54.18-4.58,24.42-14.19,46.5-31.58,64.63-12.71,13.26-27.91,23.17-44.24,31.37-3.4,1.71-5.73,3.85-7.31,7.48-6.76,15.54-15.15,30.17-25.49,43.64-8.63,11.24-17.42,22.35-26.85,32.95-3.02,3.39-5.98,6.83-9,10.23-1.56,1.76-1.19,2.83,1.03,3.47,1.74.5,3.44,1.12,5.17,1.67,3.02.97,5.77,2.46,7.39,5.24,1.65,2.84,3.9,2.94,6.52,2.03,2.91-1,5.78-2.12,8.66-3.21,2.07-.79,3.83-.58,5.38,1.2,3.28,3.76,3.33,3.76,7.87,2.07,3.94-1.47,7.81-3.09,12.02-.81,1.28.69,2.46-.18,3.55-.81,3.45-2.02,6.86-4.1,10.32-6.08,2.19-1.25,4.38-2.78,7.11-1.89,3.24,1.05,6.11.06,8.83-1.53,8.14-4.76,16.22-9.53,23.05-16.25,27.34-26.92,50.85-56.82,70.53-89.72,6.9-11.53,12.93-23.51,17.86-36.07,4.56-11.63,6.61-23.66,7.48-36.01.36-5.09.71-10.24-.27-15.22-2.85-14.63-6.62-28.99-13.25-42.47-4.06-8.27-13.21-13.13-22.42-11.63-3.43.56-6.76.2-10.21-.68-7.17-1.84-14.63-1.45-21.96-2.07-.13-.01-.28.2-.65.5ZM598.59,338.81c.62-.96,1.08-1.72,1.59-2.44,4.24-6.09,8.52-7.05,14.86-3.38,3.18,1.84,5.85,4.3,8.43,6.86,3.61,3.58,7.12,7.26,10.74,10.83,2.27,2.25,4.81,4.01,8.78,3.54-5.82-10.45-11.22-20.51-16.99-30.36-3.88-6.61-8.81-12.56-14.68-17.46-13.6-11.37-28.44-20.73-45.35-26.55-11.76-4.05-23.81-5.28-35.94-2.87-21.32,4.24-38.96,15.33-54.33,30.39-8.49,8.33-14.59,18.06-17.63,29.58-2.45,9.29-4.71,18.63-6.96,27.97-.29,1.22-.96,2.54-.36,4.47,2.88-3.08,5.38-5.69,7.81-8.36,4.9-5.37,9.73-10.82,15.48-15.32,4.49-3.51,9.27-6.45,15.3-6.17,2.52.12,3.18-1.02,2.59-3.37-.65-2.63.36-5.01,1.55-7.29,4.14-7.97,12.33-11.72,21.08-9.38,4.7,1.26,9.21,3.12,14.25,1.58,1.49-.45,3.25-.08,4.82.5,1.9.71,3.93,1.05,5.9.77,4.9-.71,8.89,1.19,12.61,3.99,2.03,1.53,4.01,3.14,5.89,4.84,1.81,1.64,3.25,1.67,5.14-.07,3.31-3.05,7.39-4.79,11.92-4.48,7.67.53,14.4,3.43,19.9,8.96,1.01,1.01,1.65,2.4,3.62,3.22ZM334.68,748.83c6.51-11.68,13.09-23.2,15.83-36.36.3-1.42.62-2.84,1.06-4.22.29-.89.95-1.62,1.99-1.53,1.31.12,1.94,1.14,1.82,2.27-.22,2.16-.6,4.31-1.1,6.43-2.16,9.28-6.28,17.83-10.78,26.11-4.39,8.08-8.1,16.14-7.44,25.61.07,1.06-.3,2.15-.5,3.22-1.82,9.86-1.83,19.88-2.44,29.84-.07,1.07-.7,2.59,1.08,3.21,1.84-1.18,2.22-3.25,3.05-5.01,2.27-4.79,4.67-9.61,8.59-13.16,4.51-4.08,6.66-8.54,7.39-14.78,1.16-9.89,4.61-19.44,8.56-28.61,6.31-14.68,11.67-29.74,17.91-44.45,1.33-3.14,2.67-6.31,3.06-10.48-3.35.59-5.94-.86-8.16-2.79-3.49,2.97-6.37,6.08-10.66,7.09-5,1.18-8.07-1.75-10.74-5.37-4.01,3.44-7.6,6.85-12.71,7.73-1.73.3-1.75,1.58-1.55,2.92.56,3.63.26,7.23-.06,10.86-.85,9.78-2.55,19.43-4.28,29.09-.73,4.05-1.22,8.15.08,12.37ZM609.32,391.12c-3.58-7.82-9.23-12.28-17.57-13.08-1.25-.12-2.47-.57-3.73-.72-18.87-2.25-35.86,2.84-51.46,13.29-2.62,1.76-4.64,3.98-5.69,7.05-.93,2.72-.38,4.57,1.87,6.63,7.8,7.14,17.64,6.6,27.06,7.74,8.88,1.08,17.75,2.07,26.72,2.15,3.05.03,5.65,2.21,9.23,3.24-3.63-13.06,4.35-19.85,13.57-26.31ZM357.26,773.19c2.42-.76,3.28-2.69,4.45-4.17,11.97-15.07,22-31.49,32.61-47.5,8.31-12.53,14.75-26.24,24.44-37.89,3.63-4.36,2.93-6.74-2.33-8.98-2.82-1.2-6.04-1.62-8.61-3.17-2.49-1.51-3.86-.78-5.64.83-4.41,4-8.28,8.7-14.03,11-.89.35-1.54.91-1.32,2.03,1,5.16-1.48,9.56-3.19,14.08-3.14,8.3-6.48,16.53-9.76,24.78-5.36,13.45-11.55,26.6-14.99,40.76-.63,2.61-1.49,5.17-1.63,8.22ZM603.41,367.87c.06-1.58-.96-1.82-1.63-2.32-14.56-10.81-31.55-17.79-45.8-29.14-2.42-1.93-5.92-3.73-9.13-2.05-4.75,2.48-8.69,1.47-12.62-1.42-2.18-1.61-4.3-2.5-6.87-.5-1.7,1.32-3.79.99-5.73.23-1.86-.72-3.75-1.38-5.52-2.27-2.57-1.29-5.26-1.38-7.97-.97-3.01.45-5.29,2.87-4.81,5.57,1.14,6.49,2.7,12.8,9.61,15.98,3.63,1.67,7.29,3.16,11.16,4.16,12.83,3.31,25.98,4.63,39.04,6.51,10.92,1.57,21.91,2.79,32.54,5.88,2.64.77,5.16.97,7.72.34ZM451.86,375.1c12.24.42,23.92,1.36,35.3,4.83,1.09.33,2.09.23,3.14-.26,7.06-3.26,14.32-6.11,20.96-10.2,1.97-1.22,4.04-2.45,5.37-5.21-5.54-3.4-9.74-8.31-13.85-13.31-5.97-7.26-14.95-8.64-22.74-3.49-1.96,1.29-3.9,2.71-5.54,4.37-7.61,7.7-15.11,15.5-22.65,23.27ZM576.15,371.77c-1.2-.33-2.4-.7-3.61-.97-10.51-2.31-21.17-2.33-31.88-2.42-14.69-.13-27.74,4.41-39.86,12.28-.98.63-2.41.93-2.45,2.69,2.62,1.13,5.31,2.19,7.91,3.45,2.76,1.35,5.46,2.84,8.14,4.36,5.98,3.4,10,3.17,15.46-.9,13.78-10.28,28.79-17.36,46.29-18.48ZM703.47,404.32c-.28-1.23-.92-1.56-1.57-1.81-13.17-5.15-26.29-10.52-40-14.01-17.37-4.42-35.05-7.65-51.93-13.97-2.27-.85-4.99-1.62-7.88-.7,1.81,3.02,4.17,4.72,6.59,6.29,6.74,4.38,13.89,7.07,22.05,8.41,17.85,2.92,35.52,7.03,53.23,10.82,6.5,1.39,12.89,3.27,19.53,4.98ZM621.87,357.58c2.03.01,4.23.11,5.15-2.15.87-2.14.47-4.29-.97-6.16-.22-.29-.46-.56-.72-.81-3.12-3.04-6.19-6.14-9.4-9.09-1.6-1.47-3.42-2.76-5.51-3.44-2.8-.9-4.76.38-5.04,3.13-1,9.55,6.94,18.46,16.51,18.52ZM588.26,351.5c6.08,4.74,11.91,8.68,18.13,12.03,1.22.66,2.55,1.56,3.84-.08,1.16-1.47.56-2.74-.33-3.95-1.28-1.75-2.54-3.54-4.01-5.13-5.1-5.54-9.83-6.36-17.64-2.87ZM580.79,337.29c-.47-1.73-1.6-2.68-3.47-2.65-1.01.01-1.97.6-1.71,1.55.5,1.78,2.31,2.12,3.85,2.48.78.19,1.22-.54,1.33-1.39ZM589.68,345.45c1.49.16,2.97.43,4.36-.62-1.74-1.91-3.19-1.76-4.36.62ZM381.2,681.35c-.26-.52-.59-1.16-.91-1.8-.35.38-.86.7-1.01,1.14-.27.79.12,1.45.96,1.61.53.1,1.09-.02.96-.96ZM527.52,361.14c1.37.85,2.34.81,3.36.27-.89-.79-1.85-.7-3.36-.27Z"/>
      <path d="M483.13,405.4c-.11,1.47-1.05,2.27-2.41,2.48-1.78.29-3.61.34-5.4.59-11.74,1.65-20.16,8.5-27.2,17.47-1.23,1.57-2.37,3.22-3.72,4.67-.87.94-2.08,1.56-3.41.67-1.49-.99-1.57-2.33-.78-3.8,1.56-2.9,3.66-5.4,5.8-7.87,7.61-8.81,16.89-14.7,28.58-16.47,1.99-.3,3.97-.46,5.96-.16,1.35.2,2.34.91,2.6,2.41Z"/>
      <path d="M431.88,412.35c-.25,1.59-1.4,2.52-2.45,3.51-4.21,3.98-8.39,7.98-11.98,12.56-3.71,4.75-6.76,9.84-8.66,15.58-.17.52-.31,1.04-.51,1.55-.7,1.8-1.7,3.45-3.95,2.79-2.35-.69-2.15-2.63-1.5-4.46.84-2.38,1.63-4.81,2.73-7.07,4.77-9.78,12.04-17.56,20.06-24.72,1.09-.98,2.3-1.89,3.78-1.99,1.47-.11,2.34.76,2.46,2.24Z"/>
      <path d="M494.83,531.04c-1.38-.07-2.13-.51-2.62-1.35-.64-1.1-.32-2.11.51-2.94.5-.5,1.1-.96,1.74-1.27,9.51-4.57,14.35-12.89,17.91-22.24.32-.84.57-1.72,1.02-2.49.56-.97,1.4-1.74,2.65-1.44,1.44.35,1.99,1.46,1.99,2.85,0,.54-.1,1.09-.27,1.6-3.48,10.8-8.84,20.22-19.28,25.82-1.26.67-2.66,1.07-3.65,1.47Z"/>
      <path d="M429.35,582.63c-4.27-.13-7.38-.89-8.96-4.36-.81-1.77-.92-3.64,1.05-4.78,1.63-.94,2.71.17,3.56,1.46,1.94,2.93,4.45,2.52,7.19,1.33,5.51-2.41,9.47-6.62,13.08-11.22.78-1,1.39-2.14,2.19-3.12.85-1.04,1.95-1.73,3.33-1.01,1.67.87,1.45,2.33.96,3.78-.17.51-.45,1-.74,1.45-4.05,6.17-9.04,11.36-15.71,14.7-2.1,1.05-4.33,1.92-5.95,1.76Z"/>
      <path d="M454.37,554.22c-2.49.22-4.83-.66-7.04-1.99-3.14-1.89-5.48-4.68-7.98-7.28-.96-1.01-1.42-2.2-.47-3.4,1.07-1.34,2.45-1.26,3.89-.48,2.12,1.15,3.43,3.18,5.17,4.74,4.06,3.64,6.98,4.09,11.87,1.81,2.16-1,4.02-2.4,5.75-4.02,1.06-.99,2.11-1.98,3.22-2.9,1.04-.86,2.27-1.35,3.44-.36,1.37,1.16,1.1,2.68.17,3.89-3.67,4.8-12.14,10.45-18.03,9.98Z"/>
      <path d="M469.6,532.5c-4.58.23-8.55-1.38-12.24-3.8-1.27-.83-2.21-2.03-1.51-3.66.77-1.78,2.38-1.29,3.77-1.06.69.12,1.35.5,1.97.87,6.4,3.87,12.46,2.39,18.35-1.21,2.78-1.7,5.32-3.72,7.75-5.9,1.08-.97,2.38-1.93,3.81-.6,1.59,1.47.91,3.06-.3,4.27-6.01,6-12.83,10.48-21.6,11.08Z"/>
      <path d="M398.3,503.91c-1.58-.32-2.39-1.4-1.94-3.08.32-1.2.95-2.34,1.56-3.44,4.08-7.25,8.87-14.11,11.35-22.19.48-1.57,1.39-3.27,3.44-2.69,2.32.66,2.17,2.55,1.52,4.43-.7,2.05-1.27,4.16-2.15,6.13-2.8,6.3-6.43,12.16-9.95,18.06-.83,1.4-1.71,2.84-3.84,2.77Z"/>
      <path d="M525.24,439.27c-1.39,6.44-4.08,13.52-11.65,17.6-1.1.59-2.21,1.25-3.54,1.19-1.22-.06-2.04-.77-2.44-1.84-.34-.92.08-1.79.78-2.42.53-.47,1.16-.84,1.8-1.18,6.19-3.26,8.6-8.92,9.76-15.37.32-1.81-.67-4.3,2.22-4.77,1.96-.32,3.13,1.85,3.08,6.78Z"/>
      <path d="M446.72,445.59c.21,3.03-.63,5.07-1.6,6.98-2.29,4.51-5.25,8.61-8.37,12.58-.65.82-1.56,1.49-2.47,2.03-.82.49-1.73.3-2.49-.37-.74-.66-1.04-1.46-.76-2.41.48-1.59,1.7-2.73,2.58-4.08,3.02-4.64,7.1-8.71,7.95-14.54.27-1.85.68-3.83,3.1-3.61,2.67.24,1.86,2.57,2.05,3.43Z"/>
      <path d="M493.45,494.17c-1.38.05-3.06-.27-3.28-2.33-.19-1.75,1.16-2.57,2.71-2.79,6.87-.97,11.98-4.79,16.31-9.93.57-.68,1.28-1.29,2.03-1.75.82-.5,1.81-.41,2.54.21.72.61.99,1.51.74,2.46-.14.52-.28,1.08-.59,1.5-5.04,6.83-11.43,11.53-20.47,12.63Z"/>
      <path d="M538.5,468.98c1.23.3,1.87,1.02,2,2.28.17,1.72-.42,3.23-1.17,4.68-2.92,5.63-6.63,10.44-13.16,12.17-1.04.27-2.11.52-3.17.57-1.23.07-2.1-.68-2.37-1.84-.22-.94.27-1.8,1.03-2.37.56-.42,1.23-.78,1.91-.98,5.92-1.75,9.25-6.13,11.63-11.44.69-1.54,1.35-3.01,3.31-3.08Z"/>
      <path d="M473.87,441.12c0,2.35.08,4.69-.03,7.03-.08,1.84-.41,3.93-2.66,4.11-2.41.19-2.81-2-2.94-3.77-.42-5.77-.19-11.53.53-17.28.15-1.18.67-2.05,1.93-2.26,1.54-.26,2.47.63,2.83,1.92.33,1.19.34,2.49.37,3.75.05,2.16.01,4.33.01,6.49-.01,0-.03,0-.04,0Z"/>
      <path d="M380.25,530.8c-1.14,5.87-3.7,11.82-6.89,17.52-.65,1.16-1.88,1.76-3.26.94-1.27-.75-1.58-1.95-1.17-3.28.37-1.21.92-2.36,1.39-3.53,1.71-4.36,4-8.52,4.77-13.23.29-1.75,1.1-3.27,3.15-2.94,2.16.35,1.93,2.28,2.02,4.52Z"/>
      <path d="M381.34,486.37c-.1.31-.3,1.21-.69,2-2.32,4.71-4.67,9.4-7.04,14.09-.32.64-.76,1.24-1.24,1.77-.82.89-1.87,1.05-2.95.54-.92-.44-1.17-1.31-1.16-2.26,0-.36,0-.75.14-1.07,2.36-5.89,5.19-11.54,8.4-17.01.64-1.09,1.77-1.91,3.22-1.31,1.16.48,1.49,1.49,1.33,3.25Z"/>
      <path d="M478.71,558.6c-3.4.11-6.21-1.04-8.76-2.89-.95-.69-1.33-1.7-.81-2.86.5-1.12,1.49-1.58,2.64-1.5.7.05,1.44.29,2.06.62,4.38,2.33,8.35,1.38,12.22-1.28,1.75-1.2,3.66-2.88,5.78-.8,1.27,1.25.06,3.26-3.2,5.37-3.07,1.98-6.27,3.67-9.93,3.33Z"/>
      <path d="M400.46,579.36c-1.86-.03-3.63-.2-5.2-1.31-.79-.55-1.38-1.24-1.25-2.22.13-.98.89-1.8,1.81-1.7,6.5.7,11.55-1.91,15.82-6.56.6-.65,1.61-.76,2.51-.23,1.1.64,1.44,1.63,1.11,2.76-.24.84-.58,1.79-1.17,2.39-3.78,3.78-8.08,6.59-13.63,6.87Z"/>
      <path d="M461.77,472.71c-1.79,4.87-4.49,10.14-7.54,15.23-.64,1.07-1.91,1.77-3.27,1.06-1.55-.81-1.75-2.16-1.11-3.68,2.29-5.47,5.57-10.48,7.5-16.13.35-1.03,1.51-1.71,2.67-1.29,1.85.68,2.07,2.3,1.76,4.81Z"/>
      <path d="M423.7,515.91c-.11,1.53-.95,2.71-1.91,3.78-2.77,3.08-5.58,6.12-8.43,9.11-.6.62-1.41,1.14-2.23,1.43-1.07.38-2.16.14-2.87-.87-.57-.82-.56-1.79.02-2.53,1.21-1.56,2.52-3.03,3.85-4.5,2.41-2.67,4.82-5.35,7.32-7.93.74-.77,1.79-1.22,2.95-.65.89.44,1.3,1.18,1.31,2.17Z"/>
      <path d="M481.59,618.04c-2.18-.02-3.33-1.86-2.45-3.44.34-.61.86-1.23,1.45-1.57,8.93-5.22,14.2-13.78,20-21.85.53-.73,1.01-1.51,1.61-2.19.87-.98,1.92-1.86,3.29-1.03,1.57.96,1.31,2.42.69,3.83-.29.66-.69,1.27-1.09,1.87-3.74,5.56-7.63,11.01-12,16.1-2.51,2.92-5.59,5.14-8.85,7.12-.91.55-1.96.87-2.63,1.15Z"/>
      <path d="M542.23,533.55c-1.58,0-3.18.2-3.57-1.75-.36-1.82.92-2.92,2.33-3.13,9.91-1.47,14.95-8.75,19.87-16.27,1.11-1.7,2.09-4.68,4.74-3.15,2.6,1.49.73,3.85-.31,5.67-2.88,5.08-6.45,9.62-10.9,13.43-3.55,3.03-7.65,4.76-12.17,5.21Z"/>
      <path d="M520.37,613.95c-1.36-.1-2.34-.9-2.2-2.39.12-1.22.57-2.47,1.11-3.59,3.85-8.06,8.67-15.49,14.64-22.14,1.39-1.55,3.01-4.08,5.3-2.32,2.6,1.99.05,3.88-1.26,5.4-5.61,6.49-10.17,13.64-13.87,21.36-1.43,2.98-2.17,3.61-3.71,3.68Z"/>
      <path d="M587.15,472.26c-.72,5.7-1.02,12.31-4.94,17.93-1.21,1.73-2.48,4.35-5.02,2.85-2.8-1.66-.64-3.76.48-5.51,3.61-5.64,3.99-11.95,3.8-18.36-.05-1.81-.29-3.62-.43-5.43-.1-1.31-.13-2.67,1.52-3.03,1.76-.38,2.85.71,3.28,2.18.81,2.79,1.25,5.67,1.3,9.38Z"/>
      <path d="M579.94,545.91c-.34.78-.77,1.97-1.36,3.08-3.07,5.79-8,9.81-13.17,13.56-1.34.97-3.04,1.85-4.32.04-1.24-1.75-.02-3.12,1.33-4.15,5.25-3.98,10.1-8.3,13.2-14.28.51-.98,1.54-1.63,2.75-1.26,1.2.37,1.6,1.37,1.57,3.01Z"/>
      <path d="M539.12,556.49c-.12,1.36-.97,2.32-1.88,3.2-4.75,4.55-10.39,7.83-15.98,11.17-1.36.81-2.86.94-3.83-.59-1.03-1.63.16-2.78,1.32-3.64,1.73-1.3,3.6-2.43,5.42-3.6,3.65-2.35,7.28-4.73,10.44-7.77.98-.94,2.24-1.2,3.51-.57.69.34.97,1.03.99,1.8Z"/>
      <path d="M465.53,623.24c1.35.07,2.23.79,2.17,2.35-.04,1.14-.74,1.99-1.42,2.85-3.68,4.67-7.35,9.34-11.04,14.01-.44.56-.9,1.15-1.47,1.57-.94.7-2.06.83-3,.08-.73-.59-.94-1.52-.66-2.46.15-.51.31-1.06.61-1.49,3.69-5.34,7.48-10.6,11.91-15.36.73-.78,1.57-1.51,2.9-1.54Z"/>
      <path d="M492.4,640.05c-.11,1.17-.86,1.96-1.66,2.69-3.33,3.04-6.66,6.08-10.03,9.07-.66.59-1.44,1.11-2.26,1.42-.84.32-1.83.26-2.5-.47-.83-.9-.94-2.14-.17-2.97,4.06-4.35,8.22-8.62,13.31-11.78,1.67-1.04,3.48.26,3.31,2.03Z"/>
      <path d="M559,304.5c0,1.63.04,2.17,0,2.7-.16,1.72-.74,3.2-2.62,3.65-1.9.46-3.08-.65-3.95-2.13-2.1-3.55-2.27-7.53-2.35-11.48-.04-1.79.31-3.58.43-5.37.1-1.5.29-3,2.11-3.28,1.7-.25,2.59.82,3.17,2.31,1.86,4.73,2.66,9.68,3.2,13.6Z"/>
      <path d="M579.83,307.15c-.13,2.05-.12,4.06-.42,6.02-.19,1.29-1.07,2.34-2.42,2.69-1.63.42-2.78-.48-3.71-1.68-2.75-3.56-1.9-13.52,1.38-16.4,1.53-1.34,3.7-.8,4.17,1.33.58,2.64.69,5.39,1,8.05Z"/>
      <path d="M532.93,307.53c.04,1.76-.26,3.4-2.2,3.91-1.96.52-3.16-.79-3.82-2.33-1.8-4.17-3.25-8.47-3.62-13.04-.14-1.71.07-3.48,1.99-4,1.99-.54,2.96,1.04,3.63,2.56,1.82,4.15,3.71,8.28,4.03,12.9Z"/>
      <path d="M542.56,298.33c-.21,2.53-.43,4.63-2.88,5.16-2.42.53-3.6-1.05-4.43-3.05-1.54-3.68-1.35-7.42-.36-11.15.38-1.43,1.13-2.79,2.87-2.81,1.77-.02,2.41,1.28,2.75,2.81.7,3.17,1.43,6.33,2.05,9.04Z"/>
      <path d="M593.03,309c-.16,1.99-.13,4-.53,5.92-.3,1.47-1.4,2.51-3.09,2.53-1.47.02-2.26-.89-2.9-2.06-1.66-3.02-.98-10.31,1.22-12.99,1.53-1.86,3.96-1.59,4.62.72.53,1.87.48,3.91.68,5.88Z"/>
      <path d="M570.73,290.18c-.68,2.25-1.41,5.24-2.52,8.08-.67,1.7-2.1,3.25-4.2,2.53-2.32-.79-2.67-2.77-1.83-4.89,1.13-2.84,1.82-5.88,3.6-8.43.89-1.28,2.13-2.01,3.73-1.25,1.38.66,1.46,1.93,1.24,3.96Z"/>
      <path d="M476.83,333.97c-3.18.24-6.34-.17-9.11-2.17-1.07-.77-2.01-1.79-1.48-3.15.61-1.54,2.01-2.14,3.54-1.41,3.01,1.45,6.23,1.57,9.45,1.77.53.03,1.08.1,1.59.26,1.21.4,2.54.86,2.44,2.43-.11,1.84-1.56,2.2-3.08,2.26-1.08.04-2.15,0-3.35,0Z"/>
      <path d="M499.81,304.84c2.36.6,4.9,1.55,6.59,3.87.93,1.28.95,2.73-.13,4-.91,1.06-2.05,1.35-3.42.87-2.47-.88-4.4-2.46-5.96-4.51-.7-.92-.87-1.97-.21-3.02.65-1.03,1.64-1.33,3.12-1.21Z"/>
      <path d="M507.66,294.34c.04-.38.04-1.28.22-2.14.2-.94.81-1.58,1.81-1.74,1.21-.19,2.12.25,2.61,1.38,1.23,2.85,1.12,5.96,1.5,8.96.14,1.05-.74,2.02-1.93,2.26-1.22.24-2.01-.48-2.64-1.43-1.37-2.06-1.13-4.48-1.57-7.28Z"/>
      <path d="M482.01,312.41c.3.15,1.07.32,1.53.8,1.78,1.85,3.83,3.32,6,4.66.97.6,1.54,1.55,1.01,2.78-.53,1.22-1.62,1.33-2.74,1.3-2.88-.08-7.47-3.48-8.42-6.19-.65-1.87.38-3.45,2.61-3.34Z"/>
      <path d="M610.49,315.85c-.43,2.31-1.56,4.51-3.76,6.06-.94.66-1.95.96-3,.19-1.04-.77-1.23-1.94-.72-2.91,1.01-1.9,2.19-3.73,3.5-5.45.67-.89,1.8-1.19,2.92-.49.86.54,1.14,1.35,1.06,2.6Z"/>
    </g>
  </g>
</svg>